<svg width="145" height="36" viewBox="0 0 145 36" xmlns="http://www.w3.org/2000/svg">
    <path d="M56.005 25.175h1.662V13.29h-1.662v11.885zm-2.054-3.76a7.52 7.52 0 0 1-.886-.505 6.76 6.76 0 0 1-1.593-1.475c-.23-.297-.431-.62-.603-.97-.179.36-.39.693-.634 1.003-.243.31-.507.595-.79.856a7.62 7.62 0 0 1-.886.701 6.9 6.9 0 0 1-.918.526l-.879-1.105c1.01-.494 1.804-1.141 2.385-1.941.581-.8.872-1.756.872-2.87v-2.412h1.689v2.412c0 1.132.268 2.07.803 2.816.537.746 1.314 1.365 2.332 1.86l-.892 1.104zm14.384.324h1.662v-8.448h-1.662v8.448zm-6.796-3.665h2.905v-3.45h-2.905v3.45zm-.582 7.128V20.58h1.676v3.26H70.2v1.362h-9.243zm-1.08-5.795h6.229V13.29h-6.23v6.117zm21.74-2.87h1.918v1.375h-1.918v7.263h-1.662v-3.988h-8.053v-4.784h4.283v-1.738h-4.31V13.29h5.999v4.487h-4.297v2.035h6.378V13.29h1.662v3.248zm11.805 8.638h1.662V13.29h-1.662v11.885zm-4.946-6.28c.298 0 .566-.05.805-.154.239-.103.443-.25.614-.438a2.02 2.02 0 0 0 .4-.667c.094-.256.141-.536.141-.842 0-.62-.178-1.123-.534-1.51-.356-.386-.83-.578-1.426-.578-.594 0-1.066.192-1.418.578-.351.387-.527.89-.527 1.51 0 .306.047.586.142.842.094.256.225.479.392.667.166.189.37.335.608.438.238.103.507.155.803.155zm0 1.415c-.576 0-1.09-.096-1.54-.29a3.375 3.375 0 0 1-1.135-.774 3.265 3.265 0 0 1-.696-1.125 3.795 3.795 0 0 1-.236-1.327c0-.458.079-.898.236-1.32.158-.423.39-.795.696-1.12a3.39 3.39 0 0 1 1.135-.774c.45-.193.964-.29 1.54-.29.577 0 1.09.097 1.542.29.45.194.828.452 1.134.775.306.324.54.696.703 1.119.162.422.243.862.243 1.32 0 .458-.08.9-.243 1.327a3.35 3.35 0 0 1-.703 1.125 3.371 3.371 0 0 1-1.134.775c-.451.193-.965.29-1.542.29zm13.015-2.263h2.189v-3.396h-2.19v3.396zm-3.553 1.361v-1.36h1.878V14.65h-1.743V13.29h9.026v1.361h-1.743v3.396h1.878v1.361h-9.296zm-1.217 3.84h11.675v-1.36H96.72v1.36zm22.372-8.044h1.918v1.36h-1.918v2.938h-1.662v-6.211h1.662v1.913zm-8.905 10.132v-3.341h7.243v-.62h-7.243v-1.334h8.905v3.288h-7.229v.674h7.432v1.333h-9.108zm3.54-6.4v-1.59h-4.418v-1.36h4.418V14.65h-4.363v-1.36h6.093v5.645h-1.73zm18.78 6.24h-1.661v-3.99h-8.459v-4.783h4.283v-1.738h-4.31V13.29h6v4.488h-4.298v2.034h6.784V13.29h1.661v11.885zm10.83 0H145V13.29h-1.662v11.885zm-1.73-11.886v1.375h-2.567v.97c0 1.132.268 2.07.804 2.816s1.313 1.365 2.33 1.86l-.89 1.104a7.44 7.44 0 0 1-.886-.505 6.768 6.768 0 0 1-.844-.66c-.27-.247-.52-.52-.75-.815-.23-.297-.43-.62-.601-.97-.18.36-.393.693-.636 1.003-.243.31-.507.595-.79.856-.284.26-.579.494-.885.701a6.854 6.854 0 0 1-.919.526l-.878-1.105c1.009-.494 1.804-1.141 2.384-1.941.581-.8.872-1.756.872-2.87v-.97h-2.567V13.29h6.824zm-62.98 21.07h.746V30.37h-.746v3.992zm-1.632-2.498a.892.892 0 0 0-.188-.578c-.125-.155-.311-.232-.558-.232a.767.767 0 0 0-.313.06.664.664 0 0 0-.232.17.715.715 0 0 0-.147.256c-.032.1-.048.205-.048.318 0 .234.064.428.195.584.128.155.31.233.545.233.247 0 .433-.078.558-.233a.89.89 0 0 0 .188-.578zm-1.68 4.053v-2.074h.752v1.463h3.397v.611h-4.15zm-.546-4.053a1.416 1.416 0 0 1 .422-1.022c.13-.13.287-.23.467-.303.18-.072.376-.108.59-.108.215 0 .414.036.596.108.181.074.338.174.47.303a1.407 1.407 0 0 1 .42 1.022 1.414 1.414 0 0 1-.42 1.023c-.132.13-.289.23-.47.302-.182.072-.38.109-.595.109-.215 0-.412-.037-.591-.11a1.404 1.404 0 0 1-.89-1.324zm11.702-.12v-1.374h.747v3.992h-.747v-2.002h-.976v-.617h.976zm-3.311 4.173V33.84h.751v1.464h3.397v.61H83.16zm.57-5.105v-.575h.752v.575h1.153v.617h-1.153c.008.19.052.36.13.514.08.153.18.289.303.409.124.118.264.22.42.304.154.086.315.152.482.2l-.347.545a2.14 2.14 0 0 1-.709-.339 2.537 2.537 0 0 1-.63-.654 2.726 2.726 0 0 1-.623.696 3.113 3.113 0 0 1-.828.472l-.346-.514c.207-.085.394-.18.561-.287.168-.108.313-.228.434-.363.122-.135.217-.285.286-.448a1.54 1.54 0 0 0 .114-.535h-1.157v-.617h1.157zm10.593 5.093h.746v-5.535h-.746v5.535zm-.922-1.688a3.21 3.21 0 0 1-.776-.523 2.865 2.865 0 0 1-.337-.366 2.463 2.463 0 0 1-.27-.436c-.081.162-.176.312-.285.451a3.229 3.229 0 0 1-.753.699 3.017 3.017 0 0 1-.412.236l-.395-.497a2.82 2.82 0 0 0 1.071-.87c.261-.36.392-.789.392-1.289v-1.083h.758v1.083c0 .508.12.93.361 1.265.24.334.589.613 1.046.834l-.4.496zm8.703.146h.746v-3.992h-.746v3.992zm-3.05-1.646h1.303v-1.549h-1.304v1.549zm-.261 3.2v-2.074h.751v1.463h3.397v.611h-4.148zm-.486-2.6h2.796v-2.747h-2.796v2.746zm11.241-1.283h.412v-1.664h.735v5.535h-.735v-3.26h-.412v3.223h-.728v-1.748h-2.778v-3.55h2.378v.617h-1.626v2.316h2.026v-3.073h.728v1.604zm8.567-.484h.86v.61h-.86v1.32h-.746v-3.11h.746v1.18zm-2.275.52c0-.073-.008-.151-.024-.236a.633.633 0 0 0-.091-.23.548.548 0 0 0-.185-.172.587.587 0 0 0-.3-.07.558.558 0 0 0-.292.07.539.539 0 0 0-.182.175.722.722 0 0 0-.093.23 1.03 1.03 0 0 0 0 .463.646.646 0 0 0 .093.22.51.51 0 0 0 .182.164.605.605 0 0 0 .292.063c.12 0 .221-.022.3-.066.079-.045.14-.1.185-.167a.596.596 0 0 0 .09-.217c.017-.079.025-.155.025-.227zM117.37 36v-1.676h-3.319v-.605h4.065V36h-.746zm-3.464-3.932c0-.274.075-.516.224-.726h-.479v-.593h1.213v-.514h.758v.514h1.214v.593h-.48c.15.21.226.452.226.726 0 .178-.03.345-.089.505a1.148 1.148 0 0 1-.26.415c-.116.117-.256.21-.423.277a1.47 1.47 0 0 1-.57.103 1.45 1.45 0 0 1-.566-.103 1.22 1.22 0 0 1-.419-.28 1.173 1.173 0 0 1-.261-.415 1.42 1.42 0 0 1-.088-.502zm-102.938-13.7a8.333 8.333 0 0 1 7.319 4.339l.132.252.157-.297a8.332 8.332 0 0 1 6.957-4.287l.337-.006h10.97v13.038H25.87a8.333 8.333 0 0 0-7.318 4.34L18.42 36l-.158-.298a8.327 8.327 0 0 0-6.957-4.289l-.337-.006H0V18.369h10.968zm.003 15.335A7.177 7.177 0 0 1 16.238 36H0v-2.297h10.971zm25.868 0V36H20.596a7.148 7.148 0 0 1 5.272-2.297h10.971zM18.421 0c9.217 0 16.943 6.795 18.231 15.736l.045.336H25.87a10.64 10.64 0 0 0-7.446 3.033 10.551 10.551 0 0 0-7.116-3.027l-.34-.006H.144A18.3 18.3 0 0 1 5.396 5.38 18.328 18.328 0 0 1 18.42 0zm-.001 8.61a2.874 2.874 0 0 0-2.879 2.87c0 1.586 1.29 2.87 2.879 2.87a2.874 2.874 0 0 0 2.878-2.87c0-1.585-1.289-2.87-2.878-2.87z" fill="#BDBDBD" fill-rule="evenodd"/>
</svg>
