<svg width="20" height="20" viewBox="0 0 20 20" xmlns="http://www.w3.org/2000/svg">
    <path d="M5.955 10.205c1.639 0 3.142.903 3.94 2.35l.105.2.135-.254a4.564 4.564 0 0 1 1.532-1.607 4.45 4.45 0 0 1 2.093-.68l.284-.01H20v7.244h-5.956a4.508 4.508 0 0 0-3.94 2.351L10 20l-.135-.255a4.566 4.566 0 0 0-1.533-1.607 4.448 4.448 0 0 0-2.093-.68l-.284-.01H0v-7.243h5.955zm.001 8.519a3.83 3.83 0 0 1 2.047.594c.302.19.574.42.812.682H0v-1.276h5.956zm14.044 0V20h-8.819a3.84 3.84 0 0 1 2.863-1.276H20zM10 0c4.975 0 9.15 3.73 9.885 8.654l.037.275h-5.877a5.678 5.678 0 0 0-3.036.88c-.365.231-.702.5-1.007.805a5.665 5.665 0 0 0-3.777-1.679l-.27-.006H.077A10.265 10.265 0 0 1 2.93 2.99C4.819 1.06 7.329 0 10 0zm0 4.784c-.863 0-1.563.713-1.563 1.594 0 .88.7 1.595 1.563 1.595s1.563-.714 1.563-1.595c0-.88-.7-1.594-1.563-1.594z" fill="#FAFAFA" fill-rule="evenodd"/>
</svg>
