<svg width="175.281" height="36" viewBox="0 0 175.281 36" xmlns="http://www.w3.org/2000/svg" xmlns:xlink="http://www.w3.org/1999/xlink">
    <defs>
        <path id="tqheocp5ea" d="M0 0h27.82v28.33H0z"/>
        <path id="n0xhgceyic" d="M0 0h12.516v9.976H0z"/>
        <path id="fzkphbcwwe" d="M0 0h6.628v11.617H0z"/>
        <path id="xoa3u2dyeg" d="M0 36h175.28V0H0z"/>
    </defs>
    <g fill="none" fill-rule="evenodd">
        <path d="M17.5 3.57c0 1.972-1.608 3.569-3.59 3.569a3.577 3.577 0 0 1-3.588-3.569A3.58 3.58 0 0 1 13.91 0c1.982 0 3.59 1.6 3.59 3.57" fill="#F37920"/>
        <path d="M12.152 22.97C10.704 20.585 6.619 18.599 0 19.175v-4.687c9.663-.442 12.152 3.1 12.152 6.767v1.717z" fill="#009F5B"/>
        <path d="M12.152 16.307v-2.115c0-4.798-5.165-6.783-12.152-6.495v4.656c6.625-.394 11.11 1.758 12.152 3.954" fill="#009F5B"/>
        <g transform="translate(0 7.67)">
            <mask id="lpr4nqs47b" fill="#fff">
                <use xlink:href="#tqheocp5ea"/>
            </mask>
            <path d="M15.667 6.521c0-4.797 5.167-6.783 12.154-6.494v19c0 2.864-1.385 5.249-4.003 6.898-2.461 1.55-5.981 2.404-9.908 2.404-3.924 0-7.444-.854-9.906-2.404C1.386 24.275 0 21.891 0 19.027V13.64c6.293-.848 12.152 2.029 12.152 6.53v1.126c0 1.284.855 1.729 1.757 1.729.905 0 1.752-.457 1.752-1.74l.006-14.764z" fill="#0A4994" mask="url(#lpr4nqs47b)"/>
        </g>
        <path d="M132.562 19.274c0 3.173-.312 4.636-.312 4.636h2.839s.62-1.24.62-5.013v-7.39a.655.655 0 0 0-.64-.664h-13.912v1.72h11.405v6.71z" fill="#231F20"/>
        <path d="M137.625 28.103v-1.721h-6.89v-7.284h-3.601c-.185 0-.196.228-.06.314.294.184.514.422.514 1.398v5.572h-1.778v-7.284h-3.603c-.184 0-.196.228-.06.314.293.184.514.422.514 1.398v5.572h-3.422l.002 1.72h18.384z" fill="#231F20"/>
        <g transform="translate(162.765 21.581)">
            <mask id="etfwt61e0d" fill="#fff">
                <use xlink:href="#n0xhgceyic"/>
            </mask>
            <path d="M6.261 8.27c-1.703 0-3.086-1.469-3.086-3.285 0-1.81 1.383-3.277 3.086-3.277 1.706 0 3.086 1.467 3.086 3.277 0 1.816-1.38 3.284-3.086 3.284m0-8.269C2.807 0 0 2.232 0 4.985c0 2.76 2.807 4.991 6.261 4.991s6.255-2.231 6.255-4.99C12.516 2.231 9.716 0 6.261 0" fill="#231F20" mask="url(#etfwt61e0d)"/>
        </g>
        <path d="M163.949 17.26c2.262 3.412 6.108 3.74 6.108 3.74v-1.717s-4.269-1.153-4.506-5.928h3.829v-1.716h-3.86V9.427h-3.61c-.183 0-.195.228-.059.313.296.184.514.423.514 1.4v.499h-3.84v1.716h3.83c-.237 4.775-4.507 5.928-4.507 5.928v1.716s3.847-.327 6.1-3.739" fill="#231F20"/>
        <g transform="translate(168.652 10.074)">
            <mask id="kjccmkygxf" fill="#fff">
                <use xlink:href="#fzkphbcwwe"/>
            </mask>
            <path d="M3.025 0c-.183 0-.197.228-.06.316.295.183.515.42.515 1.397v2.986H0l.005 1.72H3.48v5.198h3.15V0H3.024z" fill="#231F20" mask="url(#kjccmkygxf)"/>
        </g>
        <path d="M41.593 17.83c2.08 3.93 6.125 4.42 6.125 4.42v-1.83s-4.465-1.012-4.544-7.857h3.843v-1.72H36.169v1.72h3.844c-.079 6.845-4.544 7.857-4.544 7.857v1.83s4.043-.49 6.124-4.42" fill="#231F20"/>
        <path d="M49.492 10.39c.292.183.516.42.516 1.396v3.283h-3.48l.004 1.722h3.476v9.189h3.147V10.074H49.55c-.184 0-.195.228-.059.315M42.114 28.945v-5.092h-3.605c-.181 0-.195.228-.059.314.294.184.515.423.515 1.398v3.438c0 1.004.82 1.818 1.829 1.818h12.493v-1.718H42.273a.159.159 0 0 1-.16-.158M90.064 20.45v-1.72h-7.611a.158.158 0 0 1-.158-.157v-7.96l.003-.003h-3.603c-.182 0-.197.226-.058.312.28.177.491.405.511 1.278v6.432c0 1.003.817 1.818 1.826 1.818h9.09zM91.875 28.945c0 .087-.07.158-.159.158h-7.198a.158.158 0 0 1-.16-.158v-4.61h7.517v4.61zm2.506-6.325H80.753c-.184 0-.196.227-.06.314.294.183.515.421.515 1.399v4.67c0 1.004.82 1.818 1.83 1.818h10.157a1.822 1.822 0 0 0 1.827-1.818v-5.719a.653.653 0 0 0-.641-.664zM95.022 10.074h-3.603c-.182 0-.197.228-.058.316.293.183.513.42.513 1.396v9.097h3.148v-4.55h3.238v-1.719h-3.238v-4.54zM60.74 24.177v-5.593h6.684v-7.078a.654.654 0 0 0-.64-.663h-9.19v1.72h6.683v4.304H57.14c-.184 0-.195.229-.059.315.287.178.505.414.514 1.344v5.71a1.82 1.82 0 0 0 1.826 1.816h9.09v-1.717H60.9a.158.158 0 0 1-.16-.158M73.467 10.074h-3.603c-.182 0-.195.228-.06.316.294.183.515.42.515 1.396v19.428h3.148V18.251h3.238v-1.718h-3.238v-6.46zM100.895 11.157c.293.184.515.424.515 1.4v7.19c0 1.003.817 1.816 1.826 1.816h12.742v-1.718h-11.263a.158.158 0 0 1-.159-.157v-7.125h11.422v-1.72h-15.026c-.183 0-.195.228-.057.314M110.266 22.864h-3.602c-.183 0-.198.227-.06.314.293.183.515.421.515 1.398v1.806h-7.614v1.72h18.378v-1.72h-7.617v-3.518zM147.76 10.63c1.553 0 2.812 1.42 2.812 3.173 0 1.751-1.26 3.175-2.811 3.175-1.554 0-2.813-1.424-2.813-3.175 0-1.753 1.26-3.172 2.813-3.172m0 8.066c3.293 0 5.966-2.19 5.966-4.894 0-2.7-2.673-4.89-5.966-4.89-3.298 0-5.974 2.19-5.974 4.89 0 2.705 2.676 4.894 5.974 4.894" fill="#231F20"/>
        <mask id="wqq9p6ooch" fill="#fff">
            <use xlink:href="#xoa3u2dyeg"/>
        </mask>
        <path d="M145.977 24.495h3.567v-3.132h-3.567v3.132zm-7.41-3.132h4.264v3.132h-2.601v1.716h11.908v5.003h3.149v-6.057a.652.652 0 0 0-.643-.662h-1.951v-3.132h4.257v-1.717h-18.386l.002 1.717z" fill="#231F20" mask="url(#wqq9p6ooch)"/>
    </g>
</svg>
