<svg width="16" height="16" viewBox="0 0 16 16" xmlns="http://www.w3.org/2000/svg">
    <g fill="none" fill-rule="evenodd">
        <path d="M0 0h16v16H0z"/>
        <path d="M15.283 11.204a.73.73 0 0 1 .717.737v.977C16 14.06 15.086 15 13.957 15H2.043C.913 15 0 14.06 0 12.918v-.977a.73.73 0 0 1 .717-.737.73.73 0 0 1 .716.737v.977a.62.62 0 0 0 .61.608h11.915c.34 0 .609-.258.609-.608v-.977a.73.73 0 0 1 .716-.737zM7.83 0c.34 0 .663.258.77.645l.018.037V9.14l2.06-1.824c.287-.258.735-.221 1.004.073.25.295.215.756-.072 1.032l-3.278 2.893-.072.074h-.036l-.036.019a.134.134 0 0 1-.071.036c-.036 0-.072.019-.126.019H7.71a.178.178 0 0 1-.077-.019c-.018-.018-.018-.018-.036-.018h-.054l-.036-.037h-.035l-.09-.092L4.12 8.421a.702.702 0 0 1-.25-.497.719.719 0 0 1 .178-.535.671.671 0 0 1 .484-.258.675.675 0 0 1 .52.185l2.06 1.806V.737A.73.73 0 0 1 7.83 0z" fill="#9E9E9E" fill-rule="nonzero"/>
    </g>
</svg>
