<svg width="142" height="40" viewBox="0 0 142 40" xmlns="http://www.w3.org/2000/svg">
    <g fill="#E0E0E0" fill-rule="evenodd">
        <path d="M10.76 35.968a1.153 1.153 0 0 1-.353-2.248l9.758-3.167a1.147 1.147 0 0 1 1.445.741 1.153 1.153 0 0 1-.739 1.45l-9.757 3.168a1.14 1.14 0 0 1-.353.056M11.909 40a1.152 1.152 0 0 1-.353-2.248l6.17-2.003a1.152 1.152 0 0 1 .707 2.192l-6.17 2.003a1.14 1.14 0 0 1-.354.056M15.281 21.562a1.153 1.153 0 0 1-.374-2.241l5.38-1.864c.6-.207 1.253.112 1.46.713a1.153 1.153 0 0 1-.711 1.465l-5.38 1.864c-.124.042-.25.063-.375.063M14.42 17.53a1.153 1.153 0 0 1-.374-2.241l5.38-1.863c.6-.207 1.253.112 1.46.713a1.153 1.153 0 0 1-.71 1.465l-5.381 1.863c-.124.043-.25.063-.375.063M17.003 25.305a1.153 1.153 0 0 1-.374-2.241l5.38-1.863c.6-.207 1.253.112 1.46.713a1.153 1.153 0 0 1-.711 1.465l-5.38 1.863c-.124.043-.25.063-.375.063"/>
        <path d="M17.792 28.625c-.458 0-.891-.277-1.069-.731l-4.618-11.817L8.543 26.13c-.213.6-.87.914-1.466.7a1.153 1.153 0 0 1-.697-1.471L10.97 12.4c.161-.453.585-.758 1.064-.766.477-.004.912.284 1.087.731l5.74 14.687a1.153 1.153 0 0 1-1.069 1.572M24.105 25.277c-.458 0-.891-.278-1.069-.732l-4.643-11.882c-.232-.593.059-1.261.65-1.493.59-.232 1.255.06 1.487.651l4.644 11.883a1.154 1.154 0 0 1-1.069 1.573"/>
        <path d="M14.348 21.496H9.81a1.15 1.15 0 0 1-1.148-1.152 1.15 1.15 0 0 1 1.148-1.152h4.538a1.15 1.15 0 0 1 1.148 1.152 1.15 1.15 0 0 1-1.148 1.152"/>
        <path d="M9.47 32.081a1.152 1.152 0 0 1-.322-2.258l8.225-2.417c2.24-.658 4.198-1.718 5.821-3.151 2.756-2.433 4.26-5.527 4.35-8.949.176-6.684-4.668-12.243-11.268-12.93-3.633-.379-7.116.753-9.806 3.186a12.714 12.714 0 0 0-4.174 9.414v.115c0 4.771 2.16 8.521 5.503 9.553.606.188.946.832.76 1.44a1.148 1.148 0 0 1-1.435.762C2.796 25.51 0 20.896 0 15.091v-.115C0 10.742 1.798 6.688 4.933 3.85 8.112.976 12.223-.362 16.513.084c7.805.813 13.534 7.383 13.326 15.283-.107 4.08-1.88 7.75-5.129 10.617-1.877 1.657-4.128 2.88-6.692 3.633l-8.226 2.417a1.153 1.153 0 0 1-.323.047"/>
        <path d="M19.194 8.888c0 .557-.45 1.008-1.005 1.008a1.006 1.006 0 0 1-1.004-1.008c0-.556.45-1.008 1.004-1.008.555 0 1.005.452 1.005 1.008M66.13 22.736a1.152 1.152 0 0 1-.353-2.248l9.756-3.168a1.153 1.153 0 0 1 .707 2.192l-9.757 3.168a1.145 1.145 0 0 1-.353.056M48.233 15.943c-.411 1.033-.82 2.103-1.227 3.21a118.075 118.075 0 0 1-1.227 3.198h4.862l-2.408-6.408zM40.29 27.917c.038-.15.081-.288.13-.415.05-.127.094-.243.132-.348l6.15-15.06a.667.667 0 0 1 .189-.275.569.569 0 0 1 .416-.151h1.838c.182 0 .313.045.393.134.08.09.139.169.177.236l.377.875 6.025 14.825c0 .022.005.061.017.117a.719.719 0 0 1 .017.14c0 .225-.167.337-.502.337h-2.248c-.167 0-.297-.033-.388-.1a.739.739 0 0 1-.228-.315l-.206-.516-.433-1.077c-.145-.36-.285-.722-.422-1.09h-7.041c-.198.525-.39 1.017-.576 1.477-.187.46-.345.862-.474 1.206-.107.277-.304.415-.593.415h-2.282a.673.673 0 0 1-.349-.078.257.257 0 0 1-.13-.236c0-.045.003-.079.01-.1zM58.594 12.161c0-.134.041-.25.125-.347.083-.098.208-.146.375-.146h2.263c.129 0 .25.045.364.134.114.09.17.21.17.36v15.677c0 .329-.178.493-.534.493h-2.263c-.334 0-.5-.164-.5-.493V12.16zM80.038 12.161c0-.134.046-.25.137-.347a.504.504 0 0 1 .386-.146h2.263c.136 0 .256.043.358.129a.451.451 0 0 1 .154.364v13.096h7.143a.493.493 0 0 1 .502.516v2.054a.51.51 0 0 1-.136.354.468.468 0 0 1-.366.151h-9.94c-.334 0-.5-.164-.5-.493V12.16zM93.287 12.206c0-.359.167-.538.501-.538h11c.198 0 .339.054.423.163a.654.654 0 0 1 .125.411v1.982a.523.523 0 0 1-.142.36c-.095.106-.238.159-.428.159h-8.113v3.4h6.253c.152-.015.274.017.365.095.092.079.137.212.137.398v2.032a.595.595 0 0 1-.114.359c-.076.105-.198.157-.365.157h-6.276v4.073h8.41c.212 0 .353.046.422.136.068.09.103.229.103.416v2.05c0 .316-.168.473-.502.473H93.788a.57.57 0 0 1-.353-.112c-.1-.075-.148-.194-.148-.36V12.207zM109.273 12.161a.55.55 0 0 1 .171-.353c.1-.094.224-.14.377-.14h2.853c.266 0 .44.142.524.426l4.028 11.042a851.125 851.125 0 0 1 2.037-5.52c.681-1.826 1.356-3.666 2.026-5.522.106-.284.28-.426.525-.426h2.864c.152 0 .276.048.37.146a.527.527 0 0 1 .155.347c.281 2.626.567 5.241.856 7.845l.867 7.833v.033c0 .307-.168.46-.502.46h-2.214c-.342 0-.52-.164-.536-.493l-1.164-10.617-3.8 10.325a.867.867 0 0 1-.182.292c-.084.09-.172.134-.263.134h-2.054c-.099 0-.19-.043-.274-.129a.782.782 0 0 1-.182-.297 689.138 689.138 0 0 0-1.883-5.151c-.632-1.706-1.267-3.427-1.906-5.162l-1.164 10.605c0 .329-.175.493-.525.493h-2.214c-.334 0-.502-.164-.502-.493l1.712-15.678zM138.668 16.981c0-.307-.061-.609-.183-.905a2.531 2.531 0 0 0-1.27-1.344 2.223 2.223 0 0 0-.971-.214h-3.213v4.926h3.213a2.3 2.3 0 0 0 .96-.202c.297-.135.555-.317.772-.545a2.53 2.53 0 0 0 .51-.788c.12-.296.182-.605.182-.928zm-8.935-4.786c0-.351.171-.527.514-.527h6.481c.768 0 1.476.147 2.123.443a5.328 5.328 0 0 1 2.761 2.884c.259.64.388 1.307.388 2.003a5.362 5.362 0 0 1-1.457 3.653c-.46.49-1.011.883-1.65 1.178a4.95 4.95 0 0 1-2.103.443h-3.76v5.578c0 .321-.17.482-.51.482h-2.287c-.333 0-.5-.16-.5-.482V12.195z"/>
    </g>
</svg>
