<?xml version="1.0" encoding="UTF-8"?>
<svg width="119.000446px" height="64.0003646px" viewBox="0 0 119.000446 64.0003646" version="1.1" xmlns="http://www.w3.org/2000/svg" xmlns:xlink="http://www.w3.org/1999/xlink">
    <title>안경</title>
    <g id="Design" stroke="none" stroke-width="1" fill="none" fill-rule="evenodd" stroke-linecap="round" stroke-linejoin="round">
        <g id="index_기본" transform="translate(-1444, -8492.9996)" stroke="#000000" stroke-width="4">
            <g id="09_공지/FAQ" transform="translate(48, 8267)">
                <g id="안경" transform="translate(1398, 228)">
                    <path d="M30.4425012,36.9472476 C31.3140752,32.9618309 30.5434607,28.6386669 27.6092469,25.1859986 C21.5516801,18.0588958 11.1234637,17.1527137 4.17259749,24.1268744 C1.05691227,27.2532662 -0.483038794,31.8695692 0.134219599,36.2335177 C0.265850271,37.1690137 0.493328519,38.0968626 0.869051019,38.9635346 C2.9738638,43.8219959 11.3241047,48.6103588 16.5062636,48.5581036 C23.2871602,48.4892796 29.0124554,43.4855233 30.4425012,36.9472476 Z" id="Stroke-1"></path>
                    <path d="M77.9713975,48.3887202 C78.8429714,44.4033034 78.0723569,40.081414 75.1381431,36.6274711 C69.0805763,29.5003683 58.65236,28.5941863 51.7014937,35.5696215 C48.5858085,38.6947388 47.0458574,43.3110418 47.6631158,47.6749903 C47.7947465,48.6104863 48.0222247,49.5383351 48.3979472,50.4062817 C50.50276,55.2634685 58.8530009,60.0518314 64.0351599,59.9995762 C70.8160564,59.9307522 76.5413516,54.9269958 77.9713975,48.3887202 Z" id="Stroke-3"></path>
                    <path d="M31.1191851,32.6024169 C37.2035893,30.8117196 44.1340081,32.1907477 49.0631294,36.1736154" id="Stroke-5"></path>
                    <path d="M77.6513944,40.6054957 C82.1191694,37.7327329 86.5869444,34.85997 91.0559974,31.9872072 C96.7122824,28.3497338 102.381347,24.7058878 108.378849,21.6572415 C111.374406,27.0981574 113.609571,32.9532916 115,39.003427" id="Stroke-7"></path>
                    <path d="M17.4207773,18.9482542 C21.8885523,16.0754914 26.3576053,13.2027285 30.8253804,10.3299657 C36.4816653,6.69249228 42.15073,3.04864627 48.1482324,0 C51.1437886,5.44091593 53.3789541,11.2960501 54.7693829,17.3461855" id="Stroke-9"></path>
                </g>
            </g>
        </g>
    </g>
</svg>