<svg width="56" height="20" viewBox="0 0 56 20" xmlns="http://www.w3.org/2000/svg">
    <g fill="#FF435F" fill-rule="evenodd">
        <rect fill-opacity=".16" width="56" height="20" rx="10"/>
        <g fill-rule="nonzero">
            <path d="m19.27 7.916-3.115-.479-1.376-2.941A.852.852 0 0 0 14 4a.851.851 0 0 0-.778.496l-1.38 2.943-3.112.477a.857.857 0 0 0-.685.577.857.857 0 0 0 .2.875l2.28 2.346L9.99 15c-.041.25.029.504.192.696.259.305.72.392 1.072.196l2.746-1.521 2.744 1.521A.86.86 0 0 0 18.01 15l-.534-3.29 2.279-2.342a.857.857 0 0 0 .2-.875.856.856 0 0 0-.685-.577zM33.27 7.916l-3.115-.479-1.376-2.941A.852.852 0 0 0 28 4a.85.85 0 0 0-.778.496l-1.38 2.943-3.112.477a.857.857 0 0 0-.685.577.857.857 0 0 0 .2.875l2.28 2.346L23.99 15c-.041.25.029.504.192.696.259.305.72.392 1.072.196l2.746-1.521 2.744 1.521A.86.86 0 0 0 32.01 15l-.534-3.29 2.279-2.342a.857.857 0 0 0 .2-.875.856.856 0 0 0-.685-.577zM47.27 7.916l-3.115-.479-1.376-2.941A.852.852 0 0 0 42 4a.85.85 0 0 0-.778.496l-1.38 2.943-3.112.477a.857.857 0 0 0-.685.577.857.857 0 0 0 .2.875l2.28 2.346L37.99 15c-.041.25.029.504.192.696.259.305.72.392 1.072.196l2.746-1.521 2.744 1.521A.86.86 0 0 0 46.01 15l-.534-3.29 2.279-2.342a.857.857 0 0 0 .2-.875.856.856 0 0 0-.685-.577z"/>
        </g>
    </g>
</svg>
