<?xml version="1.0" encoding="UTF-8"?>
<svg width="39px" height="29.9997704px" viewBox="0 0 39 29.9997704" version="1.1" xmlns="http://www.w3.org/2000/svg" xmlns:xlink="http://www.w3.org/1999/xlink">
    <title>왕관</title>
    <g id="Design" stroke="none" stroke-width="1" fill="none" fill-rule="evenodd">
        <g id="W_프로필편집(선택)" transform="translate(-569, -402)">
            <g id="Group" transform="translate(488, 223)">
                <g id="Group-4" transform="translate(0, 180)">
                    <g id="왕관" transform="translate(82, 0)">
                        <path d="M35.4016089,26.2462135 C24.3415543,23.163277 12.6585725,23.163277 1.598377,26.2462135 L1.598377,7.21431578 C4.26355898,8.14237881 6.96478738,9.24929249 9.68488383,10.5351989 C12.6088678,7.63367014 15.5543952,4.93897742 18.5000634,2.45112073 C21.4317917,4.93897742 24.3635201,7.63168133 27.2739866,10.5293745 C30.0078821,9.24361018 32.7230503,8.13854325 35.4016089,7.21431578 C35.4016089,13.558329 35.4016089,19.9022002 35.4016089,26.2462135" id="Fill-1" fill="#FFDE54"></path>
                        <path d="M18.1774424,2.06913157 C21.681772,4.49534381 24.5399851,7.11483455 27.3788469,9.92829075 C30.2478539,8.59287509 33.0956116,7.45553585 35.9016089,6.51628302 L35.9016089,26.9082563 C24.5313468,23.6092704 12.4687901,23.6092699 1.098377,26.9082539 L1.098377,6.51418772 C3.89153099,7.45797563 6.72575545,8.59787017 9.58200458,9.93344178 C12.433878,7.11605766 15.3056028,4.494634 18.1774424,2.06913157 Z" id="Stroke-3" stroke="#424242"></path>
                        <path d="M35.2473838,27.9336034 C24.2843447,24.9076321 12.7156976,24.9076321 1.75265848,27.9336034 C0.781658112,28.2010981 4.22418952e-05,27.6382654 4.22418952e-05,26.6425829 L4.22418952e-05,26.6424409 C4.22418952e-05,25.6476107 0.781658112,24.5966678 1.75265848,24.329031 C12.7156976,21.3032018 24.2843447,21.3032018 35.2473838,24.329031 C36.2183841,24.5966678 37,25.6476107 37,26.6424409 L37,26.6425829 C37,27.6382654 36.2183841,28.2010981 35.2473838,27.9336034" id="Fill-5" fill="#FFDE54"></path>
                        <path d="M1.61963096,23.8470521 C12.6697516,20.7971881 24.3302907,20.7971881 35.3802443,23.847006 C35.9328488,23.9993204 36.4390621,24.3557286 36.8170442,24.8224113 C37.1980721,25.2928546 37.4456796,25.8716284 37.4919682,26.444768 C37.4977656,27.2348168 37.224788,27.7800178 36.824269,28.1122727 C36.394699,28.468627 35.7938719,28.6027778 35.1143504,28.4155807 C24.2383967,25.4136463 12.7616456,25.4136463 1.88545343,28.4156464 C1.26141712,28.5875582 0.701691716,28.4871754 0.283680353,28.2116449 C-0.146743557,27.9279326 -0.444909539,27.450556 -0.493241968,26.8200521 C-0.497791136,26.1165697 -0.273479073,25.4724563 0.0958947258,24.9539597 C0.481773124,24.4122953 1.02402394,24.0112192 1.61963096,23.8470521 Z" id="Stroke-7" stroke="#424242"></path>
                        <path d="M20.3130151,1.83495962 C20.3130151,2.83447767 19.5014075,3.61721566 18.499993,3.61764183 C17.4985784,3.61721566 16.6869708,2.83433561 16.6869708,1.83495962 C16.6869708,0.836435965 17.4985784,-0.000426010433 18.499993,0 C19.5014075,-0.000426010433 20.3130151,0.836435965 20.3130151,1.83495962" id="Fill-9" fill="#FFDE54"></path>
                        <path d="M18.4997803,-0.499999955 C19.1370227,-0.500271043 19.7148947,-0.236487156 20.1339281,0.187616485 C20.553796,0.612564731 20.8130151,1.19806358 20.8130151,1.83495962 C20.8130151,2.47355448 20.5542661,3.04287769 20.1363789,3.45377174 C19.7185348,3.86462353 19.1402574,4.1173694 18.4997802,4.11764179 C17.8597499,4.11736941 17.281485,3.86460338 16.8636418,3.45375255 C16.445727,3.04283127 16.1869708,2.47348522 16.1869708,1.83495962 C16.1869708,1.19806358 16.4461899,0.612564731 16.8660578,0.187616485 C17.2850912,-0.236487156 17.8629632,-0.500271043 18.4997803,-0.499999955 Z" id="Stroke-11" stroke="#424242"></path>
                        <path d="M36.9350601,7.02059168 C36.9350601,8.01996768 36.1504873,8.58578354 35.1755444,8.31843093 C34.200883,8.05022597 33.405609,7.05028174 33.4057498,6.05076369 C33.405609,5.05224004 34.200883,4.43244224 35.1755444,4.70078926 C36.1504873,4.96814187 36.9350601,6.02206803 36.9350601,7.02059168" id="Fill-13" fill="#FFDE54"></path>
                        <path d="M33.6250084,4.50073808 C34.0562233,4.17181345 34.6486506,4.0371185 35.3077746,4.218591 C35.8946447,4.37952477 36.4293809,4.77027236 36.8146535,5.27822819 C37.2026774,5.78981142 37.4350601,6.41515804 37.4350601,7.02059168 C37.4350601,7.70472275 37.1504161,8.22775038 36.7207993,8.54464072 C36.2945864,8.85902036 35.7054761,8.98220979 35.0428865,8.80051173 C34.4527428,8.63811738 33.9138437,8.2571153 33.526312,7.76056447 C33.1386234,7.26381264 32.9056646,6.655657 32.9057498,6.05083419 C32.9056539,5.37122921 33.1912643,4.83159202 33.6250084,4.50073808 Z" id="Stroke-15" stroke="#424242"></path>
                        <path d="M3.52860633,6.06688724 C3.52874713,7.06640529 2.73347305,8.06720186 1.75909333,8.33640123 C0.784431997,8.6048903 0.000140806318,8.03992678 0,7.04055079 C0.000140806318,6.04202714 0.784431997,4.98710658 1.75909333,4.71875956 C2.73347305,4.44941814 3.52874713,5.06836359 3.52860633,6.06688724" id="Fill-17" fill="#FFDE54"></path>
                        <path d="M1.62587743,4.23683267 C2.28547427,4.05450463 2.87793308,4.18870914 3.30917959,4.51726019 C3.74295865,4.8477407 4.02870218,5.38717291 4.02860632,6.0668168 C4.02869153,6.67165082 3.7958128,7.27993998 3.40825808,7.77700377 C3.02084541,8.27388539 2.48211457,8.65537807 1.89188178,8.81844607 C1.22972898,9.0008487 0.640674587,8.87819463 0.214482042,8.56423642 C-0.215123589,8.24776393 -0.499903576,7.72495939 -0.499999995,7.04048028 C-0.499914636,6.43516024 -0.267611939,5.80962666 0.120248117,5.29769813 C0.505342923,4.78941938 1.03980629,4.39819147 1.62587743,4.23683267 Z" id="Stroke-19" stroke="#424242"></path>
                    </g>
                </g>
            </g>
        </g>
    </g>
</svg>