<svg width="180" height="180" viewBox="0 0 180 180" xmlns="http://www.w3.org/2000/svg" xmlns:xlink="http://www.w3.org/1999/xlink">
    <defs>
        <path id="99dil7xy5b" d="M0 0h20.933v22.819H0z"/>
        <path id="mqe32z4ssd" d="M0 0h18.002v19.33H0z"/>
        <path id="263os168nf" d="M0 0h17.181v11.63H0z"/>
        <circle id="w9rrzzj1va" cx="90" cy="90" r="90"/>
    </defs>
    <g fill="none" fill-rule="evenodd">
        <use fill="#EBFAF7" xlink:href="#w9rrzzj1va"/>
        <path d="M180 90c0 49.707-40.293 90-90 90-49.705 0-90-40.293-90-90S40.295 0 90 0c49.707 0 90 40.293 90 90" fill="#FF8E22"/>
        <path d="M110.492 89.426c-5.779-.117-10.377-5.32-10.27-11.62.108-6.3 4.881-11.312 10.66-11.195 5.78.117 10.378 5.32 10.27 11.62-.108 6.3-4.88 11.312-10.66 11.195" fill="#FFF"/>
        <path d="M118.222 70.243c0-.05-.004-.098-.004-.147-1.858-2.1-4.45-3.426-7.335-3.485-5.78-.117-10.553 4.895-10.661 11.195-.054 3.147 1.067 6.02 2.922 8.122.045.001.09.008.135.01 8.103.164 14.792-6.863 14.943-15.695" fill="#000"/>
        <g transform="translate(58.846 65.77)">
            <mask id="ykkkot5aic" fill="#fff">
                <use xlink:href="#99dil7xy5b"/>
            </mask>
            <path d="M10.272 22.817C4.492 22.7-.106 17.497.002 11.197.109 4.897 4.882-.115 10.662.002c5.778.117 10.377 5.32 10.27 11.62-.108 6.3-4.881 11.312-10.66 11.195" fill="#FFF" mask="url(#ykkkot5aic)"/>
        </g>
        <g transform="translate(58.846 65.77)">
            <mask id="qjr71bi5fe" fill="#fff">
                <use xlink:href="#mqe32z4ssd"/>
            </mask>
            <path d="M18.002 3.634c0-.05-.005-.099-.005-.148C16.14 1.387 13.547.061 10.662.002 4.882-.115.11 4.897.002 11.197c-.054 3.147 1.067 6.02 2.92 8.121.046.002.091.01.136.01 8.103.165 14.793-6.863 14.944-15.694" fill="#000" mask="url(#qjr71bi5fe)"/>
        </g>
        <g transform="translate(81.786 78.37)">
            <mask id="o4s7ceahxg" fill="#fff">
                <use xlink:href="#263os168nf"/>
            </mask>
            <path d="M.33 2.402C.95.792 2.648-.353 4.196.1 5.83.58 6.925 2.686 8.614 2.957c1.697-.203 2.862-2.263 4.51-2.675 1.564-.391 3.222.821 3.788 2.456.565 1.636.19 3.525-.66 5.01-1.529 2.67-4.8 4.03-7.786 3.869-2.989.041-6.212-1.452-7.65-4.184C.02 5.916-.292 4.013.33 2.402" fill="#000" mask="url(#o4s7ceahxg)"/>
        </g>
        <path d="M92.968 79.824c-.068 2.682-.614 6.092-3.423 5.355-1.342-.354-1.878-1.85-1.936-3.207-.033-.81-.006-1.635.044-2.459.868.758 1.691 1.644 2.747 1.814.966-.115 1.76-.831 2.568-1.503" fill="#FFF"/>
        <g fill="#000">
            <path d="M77.308 41.538a1.163 1.163 0 0 1-1.154-1.171c0-1.604.88-2.439 1.52-3.048.546-.518.788-.771.788-1.335 0-.563-.242-.815-.789-1.334-.641-.61-1.52-1.444-1.52-3.048 0-1.603.88-2.436 1.52-3.044.547-.518.789-.77.789-1.33 0-.561-.242-.813-.789-1.331-.64-.608-1.52-1.442-1.52-3.043 0-1.603.88-2.436 1.52-3.043.547-.518.789-.77.789-1.332 0-.646.515-1.171 1.153-1.171s1.154.525 1.154 1.171c0 1.603-.879 2.437-1.52 3.045-.546.516-.787.768-.787 1.33 0 .56.24.813.788 1.33.64.608 1.52 1.44 1.52 3.044 0 1.602-.88 2.435-1.52 3.043-.547.518-.788.77-.788 1.331 0 .564.24.817.788 1.336.641.608 1.52 1.442 1.52 3.046 0 1.604-.879 2.439-1.52 3.047-.547.519-.788.772-.788 1.336 0 .647-.516 1.171-1.154 1.171M88.846 41.538a1.163 1.163 0 0 1-1.154-1.171c0-1.604.88-2.439 1.52-3.048.547-.518.788-.771.788-1.335 0-.563-.241-.815-.788-1.334-.642-.61-1.52-1.444-1.52-3.048 0-1.603.88-2.436 1.52-3.044.547-.518.788-.77.788-1.33 0-.561-.241-.813-.788-1.331-.64-.608-1.52-1.442-1.52-3.043 0-1.603.88-2.436 1.52-3.043.547-.518.788-.77.788-1.332 0-.646.516-1.171 1.154-1.171.638 0 1.154.525 1.154 1.171 0 1.603-.88 2.437-1.52 3.045-.547.516-.788.768-.788 1.33 0 .56.241.813.788 1.33.64.608 1.52 1.44 1.52 3.044 0 1.602-.88 2.435-1.52 3.043-.547.518-.788.77-.788 1.331 0 .564.241.817.788 1.336.642.608 1.52 1.442 1.52 3.046 0 1.604-.878 2.439-1.52 3.047-.547.519-.788.772-.788 1.336 0 .647-.516 1.171-1.154 1.171M100.385 41.538a1.163 1.163 0 0 1-1.154-1.171c0-1.604.879-2.439 1.52-3.048.546-.518.787-.771.787-1.335 0-.563-.24-.815-.788-1.334-.641-.61-1.52-1.444-1.52-3.048 0-1.603.88-2.436 1.52-3.044.547-.518.788-.77.788-1.33 0-.561-.24-.813-.788-1.331-.64-.608-1.52-1.442-1.52-3.043 0-1.603.88-2.436 1.52-3.043.547-.518.788-.77.788-1.332 0-.646.516-1.171 1.154-1.171.638 0 1.154.525 1.154 1.171 0 1.603-.88 2.437-1.52 3.045-.546.516-.788.768-.788 1.33 0 .56.242.813.789 1.33.64.608 1.52 1.44 1.52 3.044 0 1.602-.88 2.435-1.52 3.043-.547.518-.789.77-.789 1.331 0 .564.242.817.789 1.336.641.608 1.52 1.442 1.52 3.046 0 1.604-.879 2.439-1.52 3.047-.547.519-.789.772-.789 1.336 0 .647-.515 1.171-1.153 1.171"/>
        </g>
    </g>
</svg>
