<svg width="180" height="180" viewBox="0 0 180 180" xmlns="http://www.w3.org/2000/svg" xmlns:xlink="http://www.w3.org/1999/xlink">
    <defs>
        <circle id="5hgp1nglya" cx="90" cy="90" r="90"/>
    </defs>
    <g fill="none" fill-rule="evenodd">
        <mask id="mnsmg0nb5b" fill="#fff">
            <use xlink:href="#5hgp1nglya"/>
        </mask>
        <use fill="#EBFAF7" xlink:href="#5hgp1nglya"/>
        <g mask="url(#mnsmg0nb5b)">
            <path d="M180 90c0 49.707-40.293 90-90 90-49.705 0-90-40.293-90-90S40.295 0 90 0c49.707 0 90 40.293 90 90" fill="#00BD99"/>
            <path d="M69.202 66.075c6.606 0 11.963 5.355 11.963 11.964 0 6.606-5.357 11.96-11.963 11.96-6.606 0-11.963-5.354-11.963-11.96 0-6.609 5.357-11.964 11.963-11.964" fill="#FFF"/>
            <path d="M57.24 78.038c0 3.162 1.236 6.03 3.24 8.168.606.092 1.223.154 1.855.154 6.78 0 12.276-5.496 12.276-12.276 0-2.914-1.02-5.588-2.717-7.693a11.875 11.875 0 0 0-2.691-.317c-6.609 0-11.964 5.357-11.964 11.964" fill="#000"/>
            <path d="M110.965 66.075c6.606 0 11.963 5.355 11.963 11.964 0 6.606-5.357 11.96-11.963 11.96C104.358 90 99 84.646 99 78.04c0-6.609 5.357-11.964 11.964-11.964" fill="#FFF"/>
            <path d="M99.002 78.038c0 3.162 1.237 6.03 3.24 8.168.606.092 1.224.154 1.856.154 6.78 0 12.276-5.496 12.276-12.276 0-2.914-1.02-5.588-2.717-7.693a11.875 11.875 0 0 0-2.692-.317c-6.608 0-11.963 5.357-11.963 11.964M93.89 79.614a8.024 8.024 0 0 1-8.449 0c-1.58-1.202-3.966.66-1.536 2.479a10.952 10.952 0 0 0 11.522 0c2.425-1.817.047-3.683-1.537-2.48M79.52 17.553c-4.755 2.5-10.618 7.341-7.327 13.337 1.138 2.072 3.264 3.246 5.638 2.815 2.944-.533 4.93-3.255 6.493-5.571.703-1.04-.98-2.012-1.676-.98-1.037 1.533-2.312 3.431-4.048 4.252-2.743 1.296-4.93-.654-5.29-3.347-.587-4.406 3.846-7.071 7.19-8.828 1.107-.583.125-2.259-.98-1.678" fill="#000"/>
            <path d="M82.696 27.343c-3.465 4.472-1.59 11.265 4.264 12.387 5.773 1.11 10.273-4.422 8.597-9.901-.366-1.192-2.241-.684-1.873.516 1.21 3.964-1.71 8.125-6.03 7.525-4.386-.61-6.263-5.695-3.585-9.154.757-.977-.608-2.361-1.373-1.373" fill="#000"/>
            <path d="M93.427 31.017c1.705 3.812 6.385 8.972 10.832 5.257 4.3-3.592 1.697-11.985-.86-15.748-.7-1.026-2.382-.056-1.677.982 2.033 2.99 3.722 7.677 2.335 11.294-1.063 2.773-3.61 3.354-5.933 1.64-1.477-1.091-2.29-2.773-3.02-4.406-.51-1.138-2.185-.152-1.677.981" fill="#000"/>
        </g>
    </g>
</svg>
