<svg width="180" height="180" viewBox="0 0 180 180" xmlns="http://www.w3.org/2000/svg" xmlns:xlink="http://www.w3.org/1999/xlink">
    <defs>
        <path id="s6ymx01bqc" d="M0 0h25.645v27.072H0z"/>
        <path id="mssh4dxnbe" d="M0 0h12.324v8.262H0z"/>
        <circle id="mypzyugsoa" cx="90" cy="90" r="90"/>
    </defs>
    <g fill="none" fill-rule="evenodd">
        <mask id="zndvzn98cb" fill="#fff">
            <use xlink:href="#mypzyugsoa"/>
        </mask>
        <use fill="#EBFAF7" xlink:href="#mypzyugsoa"/>
        <g mask="url(#zndvzn98cb)">
            <path d="M180 90c0 49.707-40.293 90-90 90-49.705 0-90-40.293-90-90S40.295 0 90 0c49.707 0 90 40.293 90 90" fill="#A578FF"/>
            <path d="M95.707 89.643c0 4.021-2.521 7.28-5.63 7.28-3.11 0-5.632-3.259-5.632-7.28 0-4.02 2.521-7.28 5.631-7.28 3.11 0 5.631 3.26 5.631 7.28" fill="#000"/>
            <path d="M87.752 89.643c-1.194 0-2.295.486-3.207 1.305.479 3.396 2.767 5.975 5.53 5.975 1.194 0 2.297-.486 3.207-1.305-.476-3.396-2.765-5.975-5.53-5.975" fill="#F27253"/>
            <g transform="translate(98.97 65.858)">
                <mask id="ubzys6jh5d" fill="#fff">
                    <use xlink:href="#s6ymx01bqc"/>
                </mask>
                <path d="M10.056 26.75c6.912 1.613 13.756-2.996 15.284-10.293 1.529-7.3-2.838-14.521-9.75-16.135C8.675-1.291 1.833 3.316.305 10.615c-1.529 7.297 2.838 14.521 9.75 16.135" fill="#FFF" mask="url(#ubzys6jh5d)"/>
            </g>
            <path d="M104.864 68.148c.012-.058.032-.111.044-.169 2.763-1.857 6.2-2.604 9.652-1.8 6.912 1.614 11.279 8.838 9.75 16.135-.762 3.647-2.852 6.62-5.613 8.483-.055-.013-.11-.017-.164-.03-9.692-2.262-15.812-12.388-13.67-22.619" fill="#000"/>
            <path d="M65.44 92.608c6.913 1.614 13.756-2.996 15.285-10.293 1.528-7.299-2.838-14.521-9.75-16.135-6.915-1.613-13.757 2.994-15.285 10.293-1.529 7.298 2.838 14.522 9.75 16.135" fill="#FFF"/>
            <path d="M61.278 68.148c.012-.058.03-.111.044-.169 2.763-1.857 6.2-2.604 9.652-1.8 6.912 1.614 11.279 8.838 9.75 16.135-.762 3.647-2.852 6.62-5.613 8.483-.055-.013-.11-.017-.164-.03-9.692-2.262-15.812-12.388-13.67-22.619" fill="#000"/>
            <g transform="translate(58.504 51.923)">
                <mask id="88a7y53utf" fill="#fff">
                    <use xlink:href="#mssh4dxnbe"/>
                </mask>
                <path d="M9.246.169c-2.49.94-4.847 2.215-7.434 2.852-3.174.786-1.83 5.945 1.348 5.16 2.585-.638 4.945-1.916 7.434-2.853C13.643 4.18 12.327-.993 9.246.168" fill="#000" mask="url(#88a7y53utf)"/>
            </g>
            <path d="M110.994 52.531c2.489.94 4.846 2.215 7.433 2.853 3.175.785 1.83 5.945-1.348 5.16-2.585-.638-4.944-1.916-7.433-2.853-3.05-1.15-1.736-6.322 1.348-5.16" fill="#000"/>
        </g>
    </g>
</svg>
