<svg width="180" height="180" viewBox="0 0 180 180" xmlns="http://www.w3.org/2000/svg" xmlns:xlink="http://www.w3.org/1999/xlink">
    <defs>
        <path id="eq1gkzav8b" d="M0 0h28.308v13.24H0z"/>
        <path id="oz2kxtvptd" d="M0 0h28.308v13.24H0z"/>
        <path id="jahvs9q30f" d="M0 0h10.119v9.502H0z"/>
        <circle id="qlyvl5pyaa" cx="90" cy="90" r="90"/>
    </defs>
    <g fill="none" fill-rule="evenodd">
        <use fill="#EBFAF7" xlink:href="#qlyvl5pyaa"/>
        <path d="M180 90c0 49.707-40.293 90-90 90-49.705 0-90-40.293-90-90S40.295 0 90 0c49.707 0 90 40.293 90 90" fill="#00C3ED"/>
        <g transform="translate(103.23 66.376)">
            <mask id="ffh1am5ryc" fill="#fff">
                <use xlink:href="#eq1gkzav8b"/>
            </mask>
            <path d="M0 0c.01 18.452 28.42 16.836 28.308 0H0z" fill="#FFF" mask="url(#ffh1am5ryc)"/>
        </g>
        <g transform="translate(48.462 66.376)">
            <mask id="4q5z4ukxfe" fill="#fff">
                <use xlink:href="#oz2kxtvptd"/>
            </mask>
            <path d="M0 0c.01 18.452 28.42 16.836 28.308 0H0z" fill="#FFF" mask="url(#4q5z4ukxfe)"/>
        </g>
        <path d="M117.436 79.608c.228-.509.44-1.02.635-1.538.838-1.315 1.42-2.904 1.809-3.976.73-2.011 1.222-5.231.417-7.718h-17.066c.005 9.228 7.113 13.437 14.205 13.232M63.49 66.58c-.012-.068-.033-.136-.047-.204H48.462c.005 9.564 7.64 13.724 14.978 13.18 3.03-3.284 1.98-8.74.05-12.977zM96.24 70.576c-3.95 1.972-8.447 2.064-12.46.197-2.119-.985-3.981 2.076-1.851 3.067 5.255 2.444 10.973 2.393 16.161-.198 2.099-1.048.247-4.114-1.85-3.066" fill="#000"/>
        <g transform="translate(57.861 55.385)">
            <mask id="hfxz1ryaug" fill="#fff">
                <use xlink:href="#jahvs9q30f"/>
            </mask>
            <path d="M2.587 9.386C6.07 8.26 8.605 5.858 10.006 2.6c.44-1.023-.474-2.255-1.48-2.522-1.218-.325-2.162.405-2.602 1.431-.795 1.848-2.525 3.296-4.463 3.924-2.57.833-1.468 4.793 1.126 3.953" fill="#000" mask="url(#hfxz1ryaug)"/>
        </g>
        <path d="M112.382 61.106c2.61.15 5.182-.05 7.748-.53 2.673-.5 1.54-4.451-1.126-3.952-2.194.409-4.392.51-6.622.383-2.722-.157-2.713 3.944 0 4.1" fill="#000"/>
    </g>
</svg>
