<svg width="280" height="79" viewBox="0 0 280 79" xmlns="http://www.w3.org/2000/svg" xmlns:xlink="http://www.w3.org/1999/xlink">
    <defs>
        <path id="ai5cy2i8oa" d="M0 0h58.848v63.36H0z"/>
        <path id="36q6754uic" d="M0 0h24.189v32.913H0z"/>
    </defs>
    <g fill="none" fill-rule="evenodd">
        <path d="M21.219 71.038a2.277 2.277 0 0 1-.696-4.44l19.238-6.256a2.26 2.26 0 0 1 2.85 1.464 2.278 2.278 0 0 1-1.456 2.865l-19.24 6.256a2.243 2.243 0 0 1-.696.11" fill="#B171EA"/>
        <path d="M23.482 79a2.277 2.277 0 0 1-.696-4.44l12.165-3.956a2.26 2.26 0 0 1 2.85 1.464 2.277 2.277 0 0 1-1.456 2.865l-12.166 3.956a2.243 2.243 0 0 1-.697.111" fill="#C3E20E"/>
        <path d="M30.132 42.585a2.278 2.278 0 0 1-.738-4.426l10.608-3.68a2.261 2.261 0 0 1 2.878 1.408 2.278 2.278 0 0 1-1.4 2.893l-10.61 3.68a2.257 2.257 0 0 1-.738.125M28.435 34.622a2.278 2.278 0 0 1-.738-4.426l10.608-3.68a2.26 2.26 0 0 1 2.878 1.408 2.278 2.278 0 0 1-1.401 2.893l-10.609 3.68a2.257 2.257 0 0 1-.738.125M33.527 49.978a2.278 2.278 0 0 1-.738-4.426l10.608-3.68a2.26 2.26 0 0 1 2.878 1.408 2.278 2.278 0 0 1-1.4 2.893l-10.61 3.68a2.257 2.257 0 0 1-.738.125" fill="#FFBE00"/>
        <path d="M35.083 56.535a2.265 2.265 0 0 1-2.108-1.445L23.869 31.75 16.844 51.61a2.259 2.259 0 0 1-2.89 1.381 2.278 2.278 0 0 1-1.375-2.905l9.054-25.593a2.265 2.265 0 0 1 2.096-1.513 2.28 2.28 0 0 1 2.144 1.445l11.316 29.005a2.279 2.279 0 0 1-1.28 2.949 2.245 2.245 0 0 1-.826.157M47.531 49.922a2.264 2.264 0 0 1-2.107-1.445l-9.157-23.468a2.28 2.28 0 0 1 1.281-2.95 2.261 2.261 0 0 1 2.934 1.288l9.156 23.469a2.28 2.28 0 0 1-1.28 2.948 2.255 2.255 0 0 1-.827.158" fill="#FFBE00"/>
        <path d="M28.292 42.455h-8.948a2.27 2.27 0 0 1-2.263-2.275 2.27 2.27 0 0 1 2.263-2.275h8.948a2.27 2.27 0 0 1 2.263 2.275 2.27 2.27 0 0 1-2.263 2.275" fill="#FFBE00"/>
        <g>
            <mask id="4tlqyo6utb" fill="#fff">
                <use xlink:href="#ai5cy2i8oa"/>
            </mask>
            <path d="M18.672 63.36c-.98 0-1.882-.644-2.171-1.637a2.277 2.277 0 0 1 1.536-2.822l16.219-4.774c4.416-1.3 8.278-3.394 11.479-6.224 5.433-4.804 8.4-10.916 8.577-17.673.348-13.202-9.204-24.181-22.218-25.538-7.165-.747-14.033 1.488-19.336 6.294a25.128 25.128 0 0 0-8.231 18.59v.228c0 9.424 4.259 16.83 10.85 18.869a2.278 2.278 0 0 1 1.498 2.844 2.263 2.263 0 0 1-2.829 1.505C5.514 50.382 0 41.269 0 29.804v-.227c0-8.36 3.545-16.369 9.727-21.971 6.268-5.68 14.376-8.322 22.834-7.44C47.95 1.772 59.248 14.749 58.838 30.35c-.213 8.056-3.71 15.307-10.113 20.969-3.701 3.273-8.142 5.687-13.197 7.175l-16.22 4.774a2.27 2.27 0 0 1-.636.092" fill="#FFBE00" mask="url(#4tlqyo6utb)"/>
        </g>
        <path d="M37.846 17.555c0 1.099-.886 1.99-1.98 1.99a1.986 1.986 0 0 1-1.98-1.99c0-1.1.886-1.991 1.98-1.991 1.094 0 1.98.891 1.98 1.99M130.397 44.903a2.277 2.277 0 0 1-.696-4.44l19.238-6.256a2.262 2.262 0 0 1 2.85 1.464 2.277 2.277 0 0 1-1.456 2.865l-19.239 6.256a2.255 2.255 0 0 1-.697.111" fill="#FFBE00"/>
        <path d="M95.107 31.488a256.21 256.21 0 0 0-2.419 6.339 233.428 233.428 0 0 1-2.419 6.316h9.586l-4.748-12.655zm-15.66 23.648c.074-.295.16-.568.258-.82.098-.25.184-.48.259-.687l12.128-29.743c.045-.162.168-.344.37-.543.203-.2.477-.3.822-.3h3.623c.36 0 .618.09.776.267.158.177.273.332.349.465l.742 1.729 11.88 29.278c0 .044.012.122.034.232.023.111.034.204.034.278 0 .443-.33.664-.99.664H105.3c-.33 0-.585-.066-.766-.2-.18-.132-.33-.339-.45-.62l-.404-1.02-.856-2.127a91.586 91.586 0 0 1-.832-2.15H88.11c-.39 1.035-.769 2.006-1.136 2.915-.368.909-.68 1.703-.934 2.382-.21.547-.6.82-1.17.82h-4.5c-.285 0-.514-.051-.687-.155a.507.507 0 0 1-.258-.465c0-.089.007-.156.022-.2zM115.537 24.019c0-.266.082-.495.246-.687.165-.192.411-.288.74-.288h4.462c.255 0 .494.089.718.266a.858.858 0 0 1 .336.709V54.98c0 .65-.351.975-1.054.975h-4.462c-.657 0-.986-.325-.986-.975V24.02zM157.822 24.019c0-.266.09-.495.269-.687.18-.192.433-.289.762-.289h4.462c.269 0 .505.086.707.255.201.17.303.41.303.72v25.865h14.085c.27 0 .502.093.697.278.195.185.293.431.293.742v4.056c0 .266-.09.499-.27.698-.18.2-.42.3-.72.3h-19.602c-.657 0-.986-.326-.986-.976V24.02zM183.945 24.107c0-.709.33-1.063.99-1.063h21.69c.39 0 .667.107.833.322.165.215.247.486.247.812v3.915c0 .267-.093.504-.28.712-.188.208-.47.311-.845.311h-15.997v6.716h12.33c.3-.03.54.033.72.188.18.156.27.418.27.787v4.012c0 .266-.075.502-.225.709-.15.207-.39.31-.72.31h-12.375v8.045h16.582c.42 0 .698.09.833.268.135.177.203.452.203.822v4.05c0 .622-.33.933-.99.933h-22.276c-.27 0-.503-.074-.698-.221-.195-.148-.292-.385-.292-.71V24.107zM215.468 24.019c.03-.28.142-.513.337-.698.195-.185.443-.278.743-.278h5.625c.525 0 .87.282 1.035.843l7.943 21.808c1.335-3.664 2.674-7.299 4.016-10.904a1085.5 1085.5 0 0 0 3.994-10.904c.21-.561.554-.843 1.035-.843h5.647c.301 0 .544.097.732.289.187.192.289.42.304.687.555 5.186 1.117 10.35 1.688 15.492l1.71 15.47v.067c0 .606-.331.908-.99.908h-4.367c-.673 0-1.026-.325-1.056-.975l-2.296-20.967-7.492 20.39c-.076.208-.195.4-.36.577-.165.177-.338.266-.518.266h-4.05c-.195 0-.375-.085-.54-.255a1.544 1.544 0 0 1-.36-.587 1362.43 1362.43 0 0 0-3.712-10.173 6073.702 6073.702 0 0 1-3.758-10.195l-2.295 20.944c0 .65-.346.975-1.035.975h-4.365c-.66 0-.99-.325-.99-.975l3.375-30.962z" fill="#000"/>
        <g transform="translate(255.811 23.044)">
            <mask id="xbwlwmyn1d" fill="#fff">
                <use xlink:href="#36q6754uic"/>
            </mask>
            <path d="M17.618 10.494c0-.607-.12-1.203-.36-1.788a4.992 4.992 0 0 0-2.503-2.655 4.378 4.378 0 0 0-1.917-.421H6.503v9.73h6.335c.677 0 1.307-.134 1.894-.4a4.846 4.846 0 0 0 1.522-1.078c.428-.451.763-.97 1.004-1.555a4.78 4.78 0 0 0 .36-1.833zM0 1.042C0 .348.338 0 1.013 0h12.78c1.515 0 2.91.292 4.185.875a10.506 10.506 0 0 1 3.296 2.339c.923.975 1.64 2.094 2.15 3.358.51 1.263.765 2.581.765 3.956 0 1.344-.253 2.64-.755 3.89a10.592 10.592 0 0 1-2.118 3.324 10.396 10.396 0 0 1-3.256 2.327c-1.261.584-2.643.876-4.145.876H6.503V31.96c0 .635-.337.953-1.01.953H.988c-.658 0-.987-.318-.987-.953V1.042z" fill="#000" mask="url(#xbwlwmyn1d)"/>
        </g>
    </g>
</svg>
