<svg width="16" height="16" viewBox="0 0 16 16" xmlns="http://www.w3.org/2000/svg">
    <g fill="none" fill-rule="evenodd">
        <circle fill="#FFBE00" cx="8" cy="8" r="8"/>
        <path d="M8.62 5c.418 0 .776.05 1.075.151.298.101.544.241.737.42.192.18.335.392.428.64.093.247.14.514.14.8v.137c0 .286-.048.558-.145.815a1.805 1.805 0 0 1-.443.674c-.199.192-.446.345-.741.459-.296.113-.646.17-1.05.17H7.232v2.197c0 .189-.06.325-.183.41a.742.742 0 0 1-.433.127.742.742 0 0 1-.434-.127c-.122-.085-.183-.221-.183-.41V5.81c0-.306.06-.517.178-.634.119-.117.333-.176.64-.176H8.62zM7.233 8.212h1.224c.404 0 .722-.078.953-.234.232-.157.347-.44.347-.85v-.107c0-.195-.029-.355-.086-.478a.74.74 0 0 0-.246-.298.982.982 0 0 0-.38-.156 2.478 2.478 0 0 0-.482-.044h-1.33v2.167z" fill="#FFF" fill-rule="nonzero"/>
    </g>
</svg>
