<?xml version="1.0" encoding="UTF-8"?>
<svg width="247.400007px" height="82.005557px" viewBox="0 0 247.400007 82.005557" version="1.1" xmlns="http://www.w3.org/2000/svg" xmlns:xlink="http://www.w3.org/1999/xlink">
    <title>책</title>
    <g id="Design" stroke="none" stroke-width="1" fill="none" fill-rule="evenodd">
        <g id="W_학습과정" transform="translate(-1413.6, -403.9944)">
            <g id="3depth" transform="translate(0, 241)">
                <g id="책" transform="translate(1415, 164)">
                    <path d="M172.098473,77.8908252 C171.390674,76.9266557 171.134495,75.710478 170.949798,74.5282324 C170.489501,71.5856533 170.368849,68.519346 171.258453,65.6773219 C172.205903,62.6523953 173.952881,62.0006498 176.84275,61.4560803 C179.929298,60.8746819 183.03692,60.4095633 186.149912,59.9945152 C192.220124,59.1851094 198.315127,58.5689513 204.372117,57.6610595 C215.691113,55.9640384 227.032835,54.4052288 238.410505,53.1567741 C238.315471,53.1604984 238.220437,53.1642226 238.125403,53.1679469 C238.105569,58.5089493 238.05516,63.8499518 238.03574,69.191368 C225.723841,72.2332607 220.025916,73.2752258 210.953034,74.2327744 C204.090732,74.9569361 197.263139,75.9711762 190.435132,76.9597602 C187.004394,77.456742 183.573243,77.9495858 180.136308,78.3993936 C178.081914,78.6683679 174.892481,79.8224747 172.947171,78.6646436 C172.626946,78.4742926 172.340604,78.2210429 172.098473,77.8908252 Z" id="Fill-1" fill="#FFFFFF"></path>
                    <path d="M242.634408,69.2488457 C242.487311,68.4212324 241.69894,67.8683868 240.871315,68.0169433 L175.8001,76.9104759 C174.881986,76.9754435 173.944865,77.0081342 173.466802,76.6439844 C173.11848,76.3783205 172.878002,75.7944393 172.707767,75.315665 C171.792132,72.738891 171.638425,69.8554863 172.275154,67.1963648 C172.644548,65.6545212 173.22839,64.4764136 174.010976,63.6951467 C175.501362,62.2062704 177.861104,61.8330168 180.56545,61.5280413 C185.736968,60.9454015 190.862208,60.2944836 195.818452,59.6646699 C200.768086,59.0356838 205.885889,58.3855936 211.040466,57.8050228 C214.964555,57.3626635 219.359685,56.7249875 223.610609,56.1084156 C229.927084,55.1918338 235.893584,54.3261503 240.267641,54.0762111 C241.105595,54.0282095 241.746457,53.3090136 241.698526,52.4693999 C241.652249,51.6554422 240.968415,51.0380427 240.168474,51.0401117 C228.485868,49.1879131 192.311687,41.1257182 190.239113,41.2846199 C176.442201,42.3431373 161.609002,43.7922882 145.906859,45.258819 C145.222612,45.322959 144.545389,45.519931 143.936344,45.8385621 C142.728169,46.4708587 141.995165,47.7404175 141.477435,49.0033554 C139.010262,55.0242421 139.157772,62.2770313 145.61969,65.2841642 C149.844171,67.2497458 165.414919,75.9665829 169.639399,77.9321645 C170.095977,78.1444473 170.569496,78.3579715 171.051691,78.5276323 C171.222753,78.7192247 171.409929,78.9021273 171.625202,79.0664085 C172.780489,79.9469891 174.163857,80.0343023 175.274106,79.9912664 C175.538549,79.981335 175.787291,79.9635413 176.014134,79.9474029 L241.404746,71.0145587 C242.231132,70.8668297 242.781917,70.076459 242.634408,69.2488457" id="Fill-3" fill="#FFB65D"></path>
                    <path d="M242.634408,69.2488457 C242.487311,68.4212324 241.69894,67.8683868 240.871315,68.0169433 L175.8001,76.9104759 C174.881986,76.9754435 173.944865,77.0081342 173.466802,76.6439844 C173.11848,76.3783205 172.878002,75.7944393 172.707767,75.315665 C171.792132,72.738891 171.638425,69.8554863 172.275154,67.1963648 C172.644548,65.6545212 173.22839,64.4764136 174.010976,63.6951467 C175.501362,62.2062704 177.861104,61.8330168 180.56545,61.5280413 C185.736968,60.9454015 190.862208,60.2944836 195.818452,59.6646699 C200.768086,59.0356838 205.885889,58.3855936 211.040466,57.8050228 C214.964555,57.3626635 219.359685,56.7249875 223.610609,56.1084156 C229.927084,55.1918338 235.893584,54.3261503 240.267641,54.0762111 C241.105595,54.0282095 241.746457,53.3090136 241.698526,52.4693999 C241.652249,51.6554422 240.968415,51.0380427 240.168474,51.0401117 C228.485868,49.1879131 192.311687,41.1257182 190.239113,41.2846199 C176.442201,42.3431373 161.609002,43.7922882 145.906859,45.258819 C145.222612,45.322959 144.545389,45.519931 143.936344,45.8385621 C142.728169,46.4708587 141.995165,47.7404175 141.477435,49.0033554 C139.010262,55.0242421 139.157772,62.2770313 145.61969,65.2841642 C149.844171,67.2497458 165.414919,75.9665829 169.639399,77.9321645 C170.095977,78.1444473 170.569496,78.3579715 171.051691,78.5276323 C171.222753,78.7192247 171.409929,78.9021273 171.625202,79.0664085 C172.780489,79.9469891 174.163857,80.0343023 175.274106,79.9912664 C175.538549,79.981335 175.787291,79.9635413 176.014134,79.9474029 L241.404746,71.0145587 C242.231132,70.8668297 242.781917,70.076459 242.634408,69.2488457 Z" id="Stroke-5" stroke="#000000" stroke-width="2" stroke-linecap="round" stroke-linejoin="round"></path>
                    <path d="M163.585178,36.8688891 C160.130475,35.2649746 147.838823,28.3767491 144.29735,27.1423638 C144.543199,32.7039252 145.301821,38.2423134 145.418754,43.8324275 C145.422473,43.9996053 145.429911,44.1796112 145.533209,44.3107879 C145.600146,44.3964459 154.711868,48.8974209 154.808555,48.9479053 C155.08622,49.0935652 158.64009,50.6337536 158.650419,50.9114178 C163.417009,53.0710747 168.183598,55.2303178 172.950187,57.3899747 C173.285699,57.5422556 173.62741,57.6961917 173.992672,57.7437794 C174.059609,57.7528832 174.126546,57.7516418 174.193483,57.7537108 L173.75426,40.7512231 C170.487973,39.4394561 164.404126,37.2491775 163.585178,36.8688891" id="Fill-7" fill="#FFFFFF"></path>
                    <path d="M242.891744,35.5858402 C242.704154,34.4040084 242.445496,33.1882445 241.736044,32.2257302 C241.493087,31.8959263 241.206331,31.6435043 240.885694,31.4539808 C238.937904,30.2998741 235.750537,31.4606017 233.69697,31.7337141 C230.260861,32.1905567 226.83095,32.6908489 223.401865,33.1948654 C216.575511,34.1983465 209.749983,35.2266561 202.889334,35.9653009 C193.818105,36.9414708 188.122245,37.9954364 175.817371,41.0633989 C175.816958,41.2806474 175.816545,41.4983097 175.816132,41.7155582 C175.816132,41.6145893 174.983136,41.2446462 173.754301,40.7513887 L174.193525,57.7538763 C174.570356,57.7654629 174.948427,57.6864258 175.319061,57.6053197 C186.505423,55.1568258 198.15456,54.248934 209.504547,52.5229464 C215.559883,51.6022267 221.653647,50.9736543 227.721793,50.1514205 C230.833959,49.7297516 233.940341,49.2584258 237.026062,48.6704065 C239.915105,48.1196299 241.660843,47.4641601 242.601269,44.4375783 C243.485502,41.5934852 243.358238,38.5275917 242.891744,35.5858402" id="Fill-9" fill="#E6E6E6"></path>
                    <path d="M243.993728,33.7751051 C243.680528,32.899904 243.194201,31.7987645 242.206671,31.0493607 C240.781569,29.9676701 239.013932,30.0913983 237.835093,30.1758149 L177.051991,23.7543633 C176.297501,23.3844201 143.175573,25.4145555 142.806593,26.1693389 C142.438025,26.924536 142.749985,27.8365659 143.504062,28.2056814 L171.617269,41.8571628 C171.660654,41.8786807 171.705279,41.895233 171.749491,41.9121991 C172.082937,42.1882081 172.526293,42.3264195 172.983697,42.2432444 L238.036318,33.2139833 C238.954432,33.1469466 239.891553,33.1121868 240.370443,33.4755091 C240.719177,33.7403453 240.960895,34.3238127 241.131957,34.802587 C242.052963,37.3768782 242.212868,40.2598691 241.58151,42.9210597 C241.215835,44.4633171 240.63406,45.6422522 239.853126,46.4255882 C238.365633,47.9173612 236.006716,48.2955805 233.303198,48.6059355 C228.13044,49.199748 223.004787,49.8622524 218.047716,50.5024113 C213.101801,51.140915 207.987303,51.8017642 202.836445,52.3930939 C198.913595,52.8437294 194.520119,53.4905092 190.27126,54.1161848 C184.046927,55.0323527 178.165958,55.8976224 173.810082,56.170321 C173.731989,56.1107329 173.647697,56.0573518 173.555969,56.0122469 L145.613409,42.5449094 C144.859333,42.1757939 143.94907,42.4882179 143.579676,43.2434151 C143.211108,43.9986122 143.523482,44.9102283 144.277558,45.2797576 L172.220117,58.7475088 C172.399443,58.8352359 172.587445,58.8836512 172.775035,58.8977207 C173.048568,59.1116587 173.391931,59.2382835 173.764218,59.2238003 C173.774961,59.2233865 173.78529,59.2229727 173.796033,59.2221451 C178.301898,58.9552398 184.330791,58.0680383 190.713789,57.1278696 C194.938683,56.5059182 199.308194,55.8628627 203.182701,55.4180205 C208.354632,54.824208 213.480285,54.1621174 218.43653,53.5219585 C223.383271,52.883041 228.498181,52.2226056 233.649453,51.6308621 C236.80955,51.2679536 239.826268,50.7614543 242.004619,48.5765552 C243.188416,47.3893439 244.041245,45.7233583 244.539143,43.624531 C245.305201,40.3964253 245.111414,36.8985177 243.993728,33.7751051" id="Fill-11" fill="#87C0FF"></path>
                    <g id="Group-3" transform="translate(0, 23.7097)" stroke="#000000" stroke-linecap="round" stroke-linejoin="round">
                        <path d="M243.993728,10.0653604 C243.680528,9.19015932 243.194201,8.08901982 242.206671,7.33961598 C240.781569,6.25792539 239.013932,6.38165358 237.835093,6.46607014 L177.051991,0.0446185331 C176.297501,-0.325324612 143.175573,1.70481082 142.806593,2.45959415 C142.438025,3.21479128 142.749985,4.12682114 143.504062,4.49593667 L171.617269,18.1474181 C171.660654,18.168936 171.705279,18.1854883 171.749491,18.2024544 C172.082937,18.4784634 172.526293,18.6166748 172.983697,18.5334997 L238.036318,9.50423856 C238.954432,9.43720189 239.891553,9.40244213 240.370443,9.76576437 C240.719177,10.0306006 240.960895,10.614068 241.131957,11.0928423 C242.052963,13.6671335 242.212868,16.5501244 241.58151,19.211315 C241.215835,20.7535724 240.63406,21.9325075 239.853126,22.7158435 C238.365633,24.2076165 236.006716,24.5858357 233.303198,24.8961907 C228.13044,25.4900033 223.004787,26.1525077 218.047716,26.7926666 C213.101801,27.4311703 207.987303,28.0920195 202.836445,28.6833492 C198.913595,29.1339846 194.520119,29.7807644 190.27126,30.4064401 C184.046927,31.322608 178.165958,32.1878777 173.810082,32.4605763 C173.731989,32.4009882 173.647697,32.3476071 173.555969,32.3025022 L145.613409,18.8351647 C144.859333,18.4660492 143.94907,18.7784732 143.579676,19.5336704 C143.211108,20.2888675 143.523482,21.2004835 144.277558,21.5700129 L172.220117,35.0377641 C172.399443,35.1254911 172.587445,35.1739065 172.775035,35.1879759 C173.048568,35.401914 173.391931,35.5285388 173.764218,35.5140556 C173.774961,35.5136418 173.78529,35.513228 173.796033,35.5124004 C178.301898,35.2454951 184.330791,34.3582936 190.713789,33.4181249 C194.938683,32.7961735 199.308194,32.153118 203.182701,31.7082758 C208.354632,31.1144633 213.480285,30.4523726 218.43653,29.8122137 C223.383271,29.1732963 228.498181,28.5128609 233.649453,27.9211174 C236.80955,27.5582089 239.826268,27.0517096 242.004619,24.8668105 C243.188416,23.6795992 244.041245,22.0136136 244.539143,19.9147863 C245.305201,16.6866806 245.111414,13.188773 243.993728,10.0653604 Z" id="Stroke-13" stroke-width="2"></path>
                        <g id="안경" transform="translate(0, 2.2903)" stroke-width="2.8">
                            <path d="M26.4717402,32.0209479 C27.2296306,28.5669201 26.559531,24.820178 24.0080408,21.8278654 C18.7405914,15.651043 9.67257716,14.8656852 3.62834564,20.9099578 C0.919054147,23.6194974 -0.420033734,27.6202933 0.116712695,31.402382 C0.231174148,32.2131452 0.428981321,33.0172809 0.755696538,33.7683966 C2.58596852,37.9790631 9.84704753,42.1289776 14.3532727,42.0836898 C20.2497045,42.0240424 25.2282221,37.6874535 26.4717402,32.0209479 Z" id="Stroke-1"></path>
                            <path d="M67.8012152,41.9368908 C68.5591056,38.482863 67.889006,34.7372255 65.3375158,31.7438083 C60.0700663,25.5669859 51.0020521,24.7816281 44.9578206,30.8270053 C42.2485291,33.5354403 40.9094412,37.5362362 41.4461877,41.3183249 C41.5606491,42.1290881 41.7584563,42.9332238 42.0851715,43.6854441 C43.9154435,47.895006 51.1765225,52.0449205 55.6827477,51.9996327 C61.5791795,51.9399853 66.5576971,47.6033964 67.8012152,41.9368908 Z" id="Stroke-3"></path>
                            <path d="M27.060161,28.255428 C32.3509472,26.7034903 38.3773983,27.898648 42.6635908,31.3504667" id="Stroke-5"></path>
                            <path d="M67.5229516,35.1914296 C71.4079734,32.7017018 75.2929952,30.211974 79.1791282,27.7222463 C84.0976369,24.5697693 89.0272583,21.4117694 94.2424778,18.7696093 C96.8473093,23.4850698 98.7909314,28.5595194 100,33.8029701" id="Stroke-7"></path>
                            <path d="M15.148502,16.4218203 C19.0335238,13.9320925 22.9196568,11.4423647 26.8046786,8.95263695 C31.7231873,5.80015998 36.6528087,2.6421601 41.8680281,0 C44.4728597,4.71546047 46.4164818,9.78991009 47.6255504,15.0333608" id="Stroke-9"></path>
                        </g>
                    </g>
                    <path d="M172.947171,37.3823404 C172.626946,37.1919894 172.340604,36.9387397 172.098473,36.608522 C171.390674,35.6443525 171.134495,34.4281748 170.949798,33.2459292 C170.489501,30.3029363 170.368849,27.2370428 171.258453,24.3950187 C172.205903,21.3700921 173.952881,20.7183466 176.84275,20.1737771 C179.929298,19.5923787 183.03692,19.12726 186.149912,18.712212 C192.220124,17.9028062 198.315127,17.2866481 204.372117,16.3787563 C215.691113,14.6817352 227.032835,13.1229255 238.410505,11.8744709 C238.315471,11.8781951 238.220437,11.8819194 238.125403,11.8856437 C238.105569,17.2266461 238.05516,22.5676485 238.03574,27.9090648 C225.723841,30.9509575 220.025916,31.9929226 210.953034,32.9504712 C204.090732,33.6746328 197.263139,34.6888729 190.435132,35.677457 C187.004394,36.1744388 183.573243,36.6672825 180.136308,37.1170904 C178.081914,37.3860647 174.892481,38.5401714 172.947171,37.3823404" id="Fill-15" fill="#FFFFFF"></path>
                    <path d="M242.634408,27.9665425 C242.487311,27.1389292 241.69894,26.5860835 240.871315,26.7346401 L175.8001,35.6281727 C174.881986,35.6931403 173.944865,35.725831 173.466802,35.3616812 C173.11848,35.0960173 172.878002,34.5117223 172.707767,34.0333618 C171.792132,31.4565878 171.638425,28.5731831 172.275154,25.9140615 C172.644548,24.372218 173.22839,23.1941104 174.010976,22.4128435 C175.501362,20.9239671 177.861104,20.5507135 180.56545,20.245738 C185.736968,19.6630983 190.862208,19.0121804 195.818452,18.3823667 C200.768086,17.7533806 205.885889,17.1032903 211.040466,16.5227196 C214.964555,16.0803603 219.359685,15.4426842 223.610609,14.8261123 C229.927084,13.9095306 235.893584,13.0438471 240.267641,12.7939079 C241.105595,12.7459063 241.746457,12.0267103 241.698526,11.1870967 C241.652249,10.373139 240.968415,9.75573945 240.168474,9.75780848 C228.485868,7.90560992 192.311687,-0.156585056 190.239113,0.002316698 C176.442201,1.06083411 161.609002,2.509985 145.906859,3.97651577 C145.222612,4.0406558 144.545389,4.23762777 143.936344,4.55625889 C142.728169,5.18855545 141.995165,6.45811425 141.477435,7.72105215 C139.010262,13.7419389 139.157772,20.9947281 145.61969,24.001861 C149.844171,25.9674426 165.414919,34.6842797 169.639399,36.6498613 C170.095977,36.8621441 170.569496,37.0756683 171.051691,37.2453291 C171.222753,37.4369215 171.409929,37.6198241 171.625202,37.7841053 C172.780489,38.6646859 174.163857,38.7519991 175.274106,38.7089632 C175.538549,38.6990318 175.787291,38.6812381 176.014134,38.6650997 L241.404746,29.7322555 C242.231132,29.5845265 242.781917,28.7941558 242.634408,27.9665425" id="Fill-17" fill="#8AD8B3"></path>
                    <path d="M242.634408,27.9665425 C242.487311,27.1389292 241.69894,26.5860835 240.871315,26.7346401 L175.8001,35.6281727 C174.881986,35.6931403 173.944865,35.725831 173.466802,35.3616812 C173.11848,35.0960173 172.878002,34.5117223 172.707767,34.0333618 C171.792132,31.4565878 171.638425,28.5731831 172.275154,25.9140615 C172.644548,24.372218 173.22839,23.1941104 174.010976,22.4128435 C175.501362,20.9239671 177.861104,20.5507135 180.56545,20.245738 C185.736968,19.6630983 190.862208,19.0121804 195.818452,18.3823667 C200.768086,17.7533806 205.885889,17.1032903 211.040466,16.5227196 C214.964555,16.0803603 219.359685,15.4426842 223.610609,14.8261123 C229.927084,13.9095306 235.893584,13.0438471 240.267641,12.7939079 C241.105595,12.7459063 241.746457,12.0267103 241.698526,11.1870967 C241.652249,10.373139 240.968415,9.75573945 240.168474,9.75780848 C228.485868,7.90560992 192.311687,-0.156585056 190.239113,0.002316698 C176.442201,1.06083411 161.609002,2.509985 145.906859,3.97651577 C145.222612,4.0406558 144.545389,4.23762777 143.936344,4.55625889 C142.728169,5.18855545 141.995165,6.45811425 141.477435,7.72105215 C139.010262,13.7419389 139.157772,20.9947281 145.61969,24.001861 C149.844171,25.9674426 165.414919,34.6842797 169.639399,36.6498613 C170.095977,36.8621441 170.569496,37.0756683 171.051691,37.2453291 C171.222753,37.4369215 171.409929,37.6198241 171.625202,37.7841053 C172.780489,38.6646859 174.163857,38.7519991 175.274106,38.7089632 C175.538549,38.6990318 175.787291,38.6812381 176.014134,38.6650997 L241.404746,29.7322555 C242.231132,29.5845265 242.781917,28.7941558 242.634408,27.9665425 Z" id="Stroke-19" stroke="#000000" stroke-width="2" stroke-linecap="round" stroke-linejoin="round"></path>
                    <path d="M144.547786,29.4842198 C145.177905,33.4249005 145.358056,37.4379974 145.08287,41.419645" id="Stroke-21" stroke="#000000" stroke-width="2" stroke-linecap="round" stroke-linejoin="round"></path>
                    <path d="M238.682758,13.8983992 C237.907196,17.8217001 237.90389,21.896868 238.673255,25.8214102" id="Stroke-23" stroke="#000000" stroke-width="2" stroke-linecap="round" stroke-linejoin="round"></path>
                    <path d="M238.682758,54.8652576 C237.907196,58.7885585 237.90389,62.8637264 238.673255,66.7882686" id="Stroke-23-Copy" stroke="#000000" stroke-width="2" stroke-linecap="round" stroke-linejoin="round"></path>
                    <line x1="179.495033" y1="24.7210156" x2="193.60184" y2="23.0699271" id="Stroke-25" stroke="#000000" stroke-width="2" stroke-linecap="round" stroke-linejoin="round"></line>
                    <line x1="207.891691" y1="25.2714612" x2="232.258068" y2="22.1521867" id="Stroke-27" stroke="#000000" stroke-width="2" stroke-linecap="round" stroke-linejoin="round"></line>
                    <line x1="149.632616" y1="35.5461562" x2="157.877047" y2="40.1332029" id="Stroke-29" stroke="#000000" stroke-width="2" stroke-linecap="round" stroke-linejoin="round"></line>
                    <line x1="178.762153" y1="50.591297" x2="196.349694" y2="48.2061155" id="Stroke-31" stroke="#000000" stroke-width="2" stroke-linecap="round" stroke-linejoin="round"></line>
                    <line x1="204.96042" y1="42.5183017" x2="215.952581" y2="41.0505295" id="Stroke-33" stroke="#000000" stroke-width="2" stroke-linecap="round" stroke-linejoin="round"></line>
                    <line x1="188.105635" y1="70.0398372" x2="204.044538" y2="68.0217021" id="Stroke-35" stroke="#000000" stroke-width="2" stroke-linecap="round" stroke-linejoin="round"></line>
                </g>
            </g>
        </g>
    </g>
</svg>