<svg width="24" height="24" viewBox="0 0 24 24" xmlns="http://www.w3.org/2000/svg">
    <g fill="none" fill-rule="evenodd">
        <path d="M24 0H0v24h24z"/>
        <path d="M21.917 6.018C19.355.678 13.062-1.519 7.86 1.112c-5.2 2.631-7.34 9.093-4.778 14.433a10.693 10.693 0 0 0 2.79 3.596L4.806 24 8.5 20.745a10.22 10.22 0 0 0 8.64-.294c5.2-2.63 7.34-9.092 4.777-14.433" fill="#FD7FC1"/>
        <path d="M15.788 11.174c0 .794.627 1.438 1.4 1.438.773 0 1.4-.644 1.4-1.438 0-.794-.627-1.438-1.4-1.438-.773 0-1.4.644-1.4 1.438M11.08 11.174c0 .794.627 1.438 1.4 1.438.773 0 1.4-.644 1.4-1.438 0-.794-.627-1.438-1.4-1.438-.773 0-1.4.644-1.4 1.438M6.37 11.174c0 .794.628 1.438 1.4 1.438.774 0 1.4-.644 1.4-1.438 0-.794-.626-1.438-1.4-1.438-.772 0-1.4.644-1.4 1.438" fill="#FFF"/>
    </g>
</svg>
