<svg width="149" height="40" viewBox="0 0 149 40" xmlns="http://www.w3.org/2000/svg">
    <g fill="none" fill-rule="evenodd">
        <g fill="#333">
            <path d="M71.306 28.886c-1.914 0-3.927-.422-5.344-1.068l.621-2.882c1.517.472 3.058.795 4.773.795 1.914 0 2.287-.373 2.287-1.765 0-1.49-.075-1.665-2.784-2.262-4.002-.869-4.599-1.664-4.599-5.243 0-3.304 1.169-4.621 5.718-4.621 1.441 0 3.181.149 5.02.547l-.372 3.13c-1.89-.322-3.107-.472-4.599-.472-1.665 0-2.038.298-2.038 1.516 0 1.59.075 1.615 2.684 2.236 4.474 1.069 4.699 1.939 4.699 5.194 0 3.28-1.07 4.895-6.066 4.895M87.959 17.232c0-1.292-.82-2.087-2.685-2.087-1.864 0-2.684.795-2.684 2.087v6.262c0 1.292.82 2.087 2.684 2.087 1.865 0 2.685-.795 2.685-2.087v-6.262zM84.18 28.837c-3.853-.349-5.32-2.709-5.32-5.02v-6.908c0-2.51 1.74-5.07 6.413-5.07s6.413 2.56 6.413 5.07v6.908c0 1.938-1.044 3.902-3.679 4.697l1.318 3.081-3.381 1.416-1.764-4.174zM106.152 12.088v11.729c0 2.51-1.566 5.069-6.239 5.069-4.672 0-6.239-2.56-6.239-5.07V12.089h3.729V23.47c0 1.342.646 2.112 2.51 2.112 1.864 0 2.51-.77 2.51-2.112V12.09h3.73zM112.762 22.301h3.803l-1.888-6.932-1.915 6.932zm9.471 6.337h-3.877l-.895-3.23h-5.544l-.895 3.23h-3.877l5.046-16.55h4.97l5.072 16.55zM132.025 17.132c0-1.242-.472-1.738-1.99-1.738h-2.956v4.87h2.957c1.59 0 1.989-.572 1.989-1.814v-1.318zm-2.76 6.362h-2.186v5.144h-3.73v-16.55h6.886c4.027 0 5.518 1.59 5.518 4.697v2.038c0 2.062-.745 3.453-2.41 4.15l4.001 5.665h-4.424l-3.655-5.144zM138.585 28.638v-16.55H149v3.305h-6.686v3.032h6.164v3.305h-6.164v3.602H149v3.306zM60.918 28.638h-5.32l-4.672-16.55h3.828l3.504 13.17 3.505-13.17h3.828z"/>
        </g>
        <path d="M40.013 20c0 11.046-8.957 20-20.007 20C8.957 40 0 31.046 0 20S8.957 0 20.006 0c11.05 0 20.007 8.954 20.007 20" fill="#E90000"/>
        <path fill="#E90000" d="m20.006 11.111 13.338 7.618-4.446 2.542-8.892-5.08-8.891 5.08-4.446-2.542z"/>
        <path stroke="#FFF" stroke-width=".88" stroke-linejoin="round" d="m20.006 11.111 13.338 7.618-4.446 2.542-8.892-5.08-8.891 5.08-4.446-2.542z"/>
        <path fill="#E90000" d="M6.669 18.73v5.08l4.446 2.539v-5.078z"/>
        <path stroke="#FFF" stroke-width=".88" stroke-linejoin="round" d="M6.669 18.73v5.08l4.446 2.539v-5.078z"/>
        <path fill="#E90000" d="m11.115 21.27 8.891-5.08v5.08l-8.891 5.079z"/>
        <path stroke="#FFF" stroke-width=".88" stroke-linejoin="round" d="m11.115 21.27 8.891-5.08v5.08l-8.891 5.079z"/>
        <path fill="#E90000" d="m20.006 16.19 8.892 5.08v5.079l-8.892-5.08z"/>
        <path stroke="#FFF" stroke-width=".88" stroke-linejoin="round" d="m20.006 16.19 8.892 5.08v5.079l-8.892-5.08z"/>
        <path fill="#E90000" d="m28.898 21.27 4.446-2.54v5.08l-4.446 2.539z"/>
        <path stroke="#FFF" stroke-width=".88" stroke-linejoin="round" d="m28.898 21.27 4.446-2.54v5.08l-4.446 2.539z"/>
        <path fill="#E90000" d="m20.006 18.73-4.445 2.54 4.445 2.54 4.446-2.54z"/>
        <path stroke="#FFF" stroke-width=".88" stroke-linejoin="round" d="m20.006 18.73-4.445 2.54 4.445 2.54 4.446-2.54z"/>
        <path fill="#E90000" d="M20.006 23.81v5.079l-4.446-2.54v-5.08z"/>
        <path stroke="#FFF" stroke-width=".88" stroke-linejoin="round" d="M20.006 23.81v5.079l-4.446-2.54v-5.08z"/>
        <path fill="#E90000" d="M24.452 21.27v5.077l-4.446 2.542v-5.08z"/>
        <path stroke="#FFF" stroke-width=".88" stroke-linejoin="round" d="M24.452 21.27v5.077l-4.446 2.542v-5.08z"/>
    </g>
</svg>
