<svg width="29" height="28" viewBox="0 0 29 28" xmlns="http://www.w3.org/2000/svg">
    <g fill="none" fill-rule="evenodd">
        <path d="M.5 0h28v28H.5z"/>
        <path d="m27.865 2.333.635.642v17.32l-.635.64H17.263l.523 4.615h4.542v1.283H6.672v-1.282h4.541l.523-4.616h-10.6l-.636-.64V2.974l.635-.642h26.73zm-11.88 18.602h-2.971l-.522 4.615h4.016l-.523-4.615zm11.244-17.32H1.769v16.037h25.46V3.615zM17.054 9.333l.946.877L14.372 14h-.946L11 11.464l.946-.876 1.952 2.041 3.156-3.296z" fill="#FFF" fill-rule="nonzero"/>
    </g>
</svg>
