<svg width="24" height="24" viewBox="0 0 24 24" xmlns="http://www.w3.org/2000/svg">
    <g fill="none" fill-rule="evenodd">
        <path d="M0 0h24v24H0z"/>
        <path d="m13.195 5.76.012.012 6 5.571c.387.36.39.939.012 1.302l-.012.012-6 5.571a1.055 1.055 0 0 1-1.414 0 .882.882 0 0 1-.012-1.302l.012-.011 4.292-3.987H5.5c-.552 0-1-.415-1-.928 0-.508.439-.92.983-.928l10.602-.001-4.292-3.986a.882.882 0 0 1-.012-1.302l.012-.011a1.056 1.056 0 0 1 1.402-.011z" fill="#FFF" fill-rule="nonzero"/>
    </g>
</svg>
