<svg width="32" height="32" viewBox="0 0 32 32" xmlns="http://www.w3.org/2000/svg">
    <g fill="none" fill-rule="evenodd">
        <path d="M0 0h32v32H0z"/>
        <path d="M24.034 29.333c-1.162 0-2.794-.42-5.239-1.786-2.973-1.666-5.272-3.205-8.228-6.153-2.851-2.849-4.238-4.693-6.18-8.225-2.193-3.988-1.82-6.078-1.401-6.972.498-1.068 1.232-1.706 2.182-2.34.54-.354 1.11-.657 1.705-.905l.164-.072c.295-.133.742-.334 1.307-.12.378.142.715.432 1.242.953 1.082 1.067 2.56 3.442 3.105 4.61.367.785.609 1.305.61 1.887 0 .681-.343 1.207-.76 1.774-.078.107-.155.208-.23.307-.453.595-.552.768-.487 1.075.133.617 1.123 2.454 2.75 4.078 1.627 1.623 3.412 2.55 4.032 2.682.32.069.496-.035 1.11-.504.088-.067.179-.137.273-.206.635-.472 1.136-.806 1.802-.806h.003c.58 0 1.076.251 1.897.665 1.072.54 3.52 2 4.593 3.082.522.527.813.862.955 1.24.215.566.013 1.011-.119 1.309l-.072.163c-.25.594-.555 1.164-.91 1.702-.633.946-1.274 1.679-2.344 2.177-.55.26-1.152.392-1.76.385z" fill="#FFF" fill-rule="nonzero"/>
    </g>
</svg>
