<svg width="16" height="16" viewBox="0 0 16 16" xmlns="http://www.w3.org/2000/svg">
    <g fill="none" fill-rule="evenodd">
        <path d="M0 0h16v16H0z"/>
        <path d="M6.786 1.743a6.549 6.549 0 0 1 4.064.687c.141.075.23.22.235.378a.441.441 0 0 1-.216.388.458.458 0 0 1-.45.011 5.636 5.636 0 0 0-3.704-.552c-1.263.243-2.4.909-3.217 1.885a5.39 5.39 0 0 0-1.265 3.463 5.4 5.4 0 0 0 1.625 3.853 5.6 5.6 0 0 0 3.924 1.597 5.6 5.6 0 0 0 3.923-1.597 5.4 5.4 0 0 0 1.514-4.944.436.436 0 0 1 .067-.332.451.451 0 0 1 .623-.123c.1.065.168.166.192.28a6.26 6.26 0 0 1-1.192 5.102 6.454 6.454 0 0 1-3.417 2.268 6.558 6.558 0 0 1-4.118-.232 6.418 6.418 0 0 1-3.132-2.634 6.24 6.24 0 0 1-.867-3.96 6.285 6.285 0 0 1 1.754-3.666 6.488 6.488 0 0 1 3.657-1.872zm7.436.164.095.01c.156.036.282.15.33.301.047.151.009.316-.1.431L8.194 9.364a.453.453 0 0 1-.33.147h-.027A.452.452 0 0 1 7.5 9.33L5.342 6.386a.436.436 0 0 1 .09-.631.456.456 0 0 1 .639.114l1.837 2.504 5.98-6.325a.451.451 0 0 1 .429-.13z" fill="#7284E9"/>
    </g>
</svg>
