<svg width="28" height="28" viewBox="0 0 28 28" xmlns="http://www.w3.org/2000/svg">
    <g fill="none" fill-rule="evenodd">
        <path d="M0 0h28v28H0z"/>
        <path d="M21.897 9.138c0-3.316-2.654-6.017-5.97-6.124l-.203-.003h-3.447c-3.342 0-6.063 2.634-6.17 5.925l-.004.202V19.24l-.635.63H3.804c-1.717 0-3.12-1.334-3.216-3.015l-.005-.181v-3.267c0-1.704 1.345-3.098 3.039-3.192l.182-.005h1.028v-1.07c0-4.008 3.215-7.27 7.225-7.386l.22-.003h3.447c4.038 0 7.324 3.19 7.44 7.17l.004.218v1.071h1.028c1.717 0 3.12 1.335 3.216 3.016l.005.181v3.267c0 1.704-1.345 3.098-3.039 3.192l-.182.005-1.029-.001v.868c0 1.997-1.584 3.627-3.573 3.719l-.177.004h-2.529a2.437 2.437 0 0 1-2.356 1.79 2.43 2.43 0 0 1-2.439-2.421 2.43 2.43 0 0 1 2.44-2.421c1.127 0 2.075.759 2.355 1.79h2.53c1.32 0 2.4-1.024 2.475-2.316l.004-.145V9.138zm-7.365 13.53c-.645 0-1.168.52-1.168 1.161 0 .64.523 1.16 1.168 1.16.646 0 1.17-.52 1.17-1.16 0-.64-.524-1.16-1.17-1.16zm-9.7-11.198H3.805c-.98 0-1.792.719-1.93 1.654l-.016.15-.004.132v3.267c0 1.018.792 1.853 1.798 1.93l.152.006h1.029V11.47zm19.364 0h-1.029v7.139h1.029a1.945 1.945 0 0 0 1.944-1.785l.006-.151v-3.267c0-1.069-.873-1.936-1.95-1.936z" fill="#FFF" fill-rule="nonzero"/>
    </g>
</svg>
