<svg width="29" height="28" viewBox="0 0 29 28" xmlns="http://www.w3.org/2000/svg">
    <g fill="none" fill-rule="evenodd">
        <path d="M.5 0h28v28H.5z"/>
        <path d="m17.12 1.7.095.175.153.323a2.161 2.161 0 0 0 1.841 1.158l.165-.002.296-.024c2.738-.181 4.555 2.826 3.158 5.192l-.093.15-.091.132a2.195 2.195 0 0 0-.178 2.291l.087.151.18.264c1.526 2.296-.151 5.386-2.885 5.351l-.116-.005 4.101 8.331-.797.868-2.854-1.159-.814 2.99L18.2 28l-3.85-7.823a3.495 3.495 0 0 1-.283.004L10.217 28l-1.169-.114-.814-2.989-2.854 1.158-.797-.868 4.102-8.334-.016.002c-2.738.18-4.555-2.827-3.158-5.193l.093-.15.091-.132c.494-.68.552-1.579.175-2.297l-.088-.151-.087-.128c-1.678-2.308.01-5.516 2.796-5.48l.175.006.16.013a2.158 2.158 0 0 0 2.073-1.016l.08-.144.137-.29C12.33-.552 15.776-.643 17.12 1.7zM9.995 17.04 6.44 24.26l1.98-.801.84.42.564 2.07 2.977-6.048a3.36 3.36 0 0 1-1.573-1.402l-.111-.206-.146-.308a2.18 2.18 0 0 0-.976-.945zm8.412-.028c-.39.172-.726.458-.955.826l-.092.163-.135.288a3.355 3.355 0 0 1-1.622 1.584l2.99 6.077.564-2.072.84-.42 1.978.802-3.568-7.248zm-.826-.995.05-.029a3.367 3.367 0 0 1 1.622-.426l.182.004.2.016.128.01.154.005.15-.006c1.582-.12 2.524-1.94 1.642-3.346l-.09-.134-.114-.169a3.467 3.467 0 0 1-.007-3.69l.124-.183.074-.107c.916-1.396-.03-3.215-1.605-3.364l-.15-.008c-.05-.002-.101-.001-.153 0l-.156.013-.175.014-.193.004a3.414 3.414 0 0 1-3.02-1.857l-.087-.182-.062-.134a2.114 2.114 0 0 0-1.757-1.175l-.152-.006a2.153 2.153 0 0 0-1.928 1.155l-.077.16-.075.16a3.42 3.42 0 0 1-2.807 1.872l-.197.008-.198-.004-.2-.016-.128-.01C6.813 4.483 5.69 6.448 6.63 7.941l.089.13.108.16a3.464 3.464 0 0 1 .013 3.7l-.124.183-.074.107c-.945 1.44.09 3.33 1.754 3.373l.153-.002.157-.011.175-.014.203-.005.11.002.108.006c.489.035.957.175 1.377.402l.185.108.02.013.03.018.01.007.023.015.025.017.026.018.01.007.003.002.038.027.033.024.001.001.044.033c.024.017.047.036.07.054l.1.083.136.125.089.09.053.057.001.001.031.035-.018-.02.04.044.002.003.026.031.035.041.018.022.003.004.016.02.001.001.003.004.017.022.02.027v-.001l.002.001.035.049.023.03-.015-.019.03.041.022.031-.02-.027.046.065.013.021.035.053.037.061.01.017.021.035.054.096.027.052.062.131.029.06.062.133a2.246 2.246 0 0 0 .4.558l.058.057a2.081 2.081 0 0 0 .13.11l.064.05.066.046a2.085 2.085 0 0 0 .14.086l.06.033a2.107 2.107 0 0 0 .152.071l.045.019a2.194 2.194 0 0 0 2.044-.234l.03-.022.032-.023a2.124 2.124 0 0 0 .269-.24l.033-.037a2.16 2.16 0 0 0 .24-.32l.074-.129.077-.16.075-.159.007-.013.1-.18.036-.063.057-.088-.015.022.015-.021.013-.022.045-.065.033-.044.036-.05.01-.012v.001l.02-.026.014-.02.003-.003.001-.002.003-.003.001-.002.015-.018.002-.003.001-.001.022-.028.015-.018.007-.008.008-.009.013-.016.016-.017.007-.01.01-.01.005-.006.017-.019.05-.054.02-.02.031-.032.03-.032.047-.044c.084-.08.172-.156.263-.227l.098-.074.027-.02.023-.016.036-.024.016-.011.023-.014.04-.027.02-.012.025-.016-.026.016.054-.033.017-.01-.045.027.133-.077-.086.049.035-.02zm-.527-7.85.946.876-3.628 3.79h-.946L11 10.298l.946-.876 1.952 2.04 3.156-3.295z" fill="#FFF" fill-rule="nonzero"/>
    </g>
</svg>
