<svg width="25" height="24" viewBox="0 0 25 24" xmlns="http://www.w3.org/2000/svg">
    <g fill="none" fill-rule="evenodd">
        <path d="M.438 0h24v24h-24z"/>
        <path d="M15.754 3.882C14.912 2.99 13.736 2.5 12.438 2.5c-1.305 0-2.485.488-3.323 1.373-.848.896-1.26 2.112-1.164 3.426.193 2.592 2.205 4.7 4.487 4.7 2.281 0 4.29-2.107 4.485-4.699.098-1.302-.317-2.516-1.17-3.418zM20.053 21.5H4.823a1.353 1.353 0 0 1-1.048-.472 1.476 1.476 0 0 1-.31-1.235c.365-1.985 1.504-3.653 3.296-4.824 1.591-1.04 3.607-1.612 5.676-1.612 2.07 0 4.086.573 5.677 1.612 1.792 1.17 2.931 2.838 3.296 4.824.084.455-.029.905-.31 1.234a1.353 1.353 0 0 1-1.047.473z" fill="#FFF" fill-rule="nonzero"/>
    </g>
</svg>
