<svg width="28" height="28" viewBox="0 0 28 28" xmlns="http://www.w3.org/2000/svg">
    <g fill="none" fill-rule="evenodd">
        <path d="M0 0h28v28H0z"/>
        <path d="m23.868.583.632.631v25.572l-.632.63H4.716l-.633-.63V1.214l.633-.63h19.152zm-.632 1.26H5.348v24.312h17.888V1.844zm-2.204 20.89v1.26H7.552v-1.26h13.48zm0-3.07v1.262H7.552v-1.262h13.48zm0-3.069v1.261H7.552v-1.26h13.48zM16.554 6.417l.946.876-3.628 3.79h-.946L10.5 8.548l.946-.876 1.952 2.04 3.156-3.295z" fill="#FFF" fill-rule="nonzero"/>
    </g>
</svg>
