<svg width="24" height="24" viewBox="0 0 24 24" xmlns="http://www.w3.org/2000/svg">
    <g fill="none" fill-rule="evenodd">
        <path d="M0 0h24v24H0z"/>
        <path d="M22 6.286a2.857 2.857 0 0 0-2.857-2.857h-.714v-.695a.728.728 0 0 0-.68-.733.714.714 0 0 0-.749.713v.715H7v-.695a.728.728 0 0 0-.68-.733.714.714 0 0 0-.749.713v.715h-.714A2.857 2.857 0 0 0 2 6.286v.535c0 .099.08.179.179.179H21.82c.1 0 .179-.08.179-.179v-.535zM2 19.143A2.857 2.857 0 0 0 4.857 22h14.286A2.857 2.857 0 0 0 22 19.143V8.607a.179.179 0 0 0-.179-.178H2.18A.179.179 0 0 0 2 8.607v10.536z" fill="#BDBDBD" fill-rule="nonzero"/>
    </g>
</svg>
