<svg width="48" height="48" viewBox="0 0 48 48" xmlns="http://www.w3.org/2000/svg">
    <g fill="none" fill-rule="evenodd">
        <path d="M43.567 39.081c0 1.577-1.266 2.282-2.828 2.282H7.155c-1.562 0-2.829-.705-2.829-2.282V11.38c0-1.575 1.267-2.852 2.83-2.852h33.583c1.562 0 2.828 1.277 2.828 2.852V39.08z" fill="#FFF"/>
        <path d="M43.567 39.081c0 1.577-1.266 2.282-2.828 2.282H7.155c-1.562 0-2.829-.705-2.829-2.282V11.38c0-1.575 1.267-2.852 2.83-2.852h33.583c1.562 0 2.828 1.277 2.828 2.852V39.08z" stroke="#6C4CB7" stroke-width="1.418" stroke-linecap="round" stroke-linejoin="round"/>
        <path d="M28.167 37.757h18.928v3.391c0 .394-.08.77-.221 1.11a2.842 2.842 0 0 1-1.507 1.518c-.338.144-.71.224-1.102.224H3.628a2.825 2.825 0 0 1-2-.835A2.852 2.852 0 0 1 .8 41.148V37.758h27.367z" fill="#F5F1FD"/>
        <path d="M28.167 37.757h18.928v3.391c0 .394-.08.77-.221 1.11a2.842 2.842 0 0 1-1.507 1.518c-.338.144-.71.224-1.102.224H3.628a2.825 2.825 0 0 1-2-.835A2.852 2.852 0 0 1 .8 41.148V37.758h27.367z" stroke="#6C4CB7" stroke-width="1.418" stroke-linecap="round" stroke-linejoin="round"/>
        <path stroke="#E1D2F9" stroke-width="1.418" stroke-linecap="round" stroke-linejoin="round" d="M22.217 41.143h3.355"/>
        <g fill-rule="nonzero">
            <path d="M24 16.8c-3.97 0-7.2 3.23-7.2 7.2s3.23 7.2 7.2 7.2 7.2-3.23 7.2-7.2-3.23-7.2-7.2-7.2z" fill="#E1D2F9"/>
            <path d="m27.747 21.587-4.652 5.538a.554.554 0 0 1-.416.198h-.009a.554.554 0 0 1-.412-.183l-1.993-2.216a.554.554 0 1 1 .823-.74l1.568 1.741 4.243-5.05a.554.554 0 0 1 .848.712z" fill="#6C4CB7"/>
        </g>
    </g>
</svg>
