<svg width="80" height="80" viewBox="0 0 80 80" xmlns="http://www.w3.org/2000/svg" xmlns:xlink="http://www.w3.org/1999/xlink">
    <defs>
        <path id="rj2lzeorka" d="M0 61h60V0H0z"/>
    </defs>
    <g transform="translate(10 10)" fill="none" fill-rule="evenodd">
        <path d="M25.697 4.637a3.549 3.549 0 0 1-3.539 3.558 3.549 3.549 0 0 1-3.54-3.558 3.548 3.548 0 0 1 3.54-3.556 3.548 3.548 0 0 1 3.54 3.556" fill="#FFF"/>
        <path d="M25.697 4.637a3.549 3.549 0 0 1-3.539 3.558 3.549 3.549 0 0 1-3.54-3.558 3.548 3.548 0 0 1 3.54-3.556 3.548 3.548 0 0 1 3.54 3.556z" stroke="#644DB2" stroke-width="2.151" stroke-linecap="round" stroke-linejoin="round"/>
        <mask id="0e5d8zjdjb" fill="#fff">
            <use xlink:href="#rj2lzeorka"/>
        </mask>
        <path fill="#F3F0FB" mask="url(#0e5d8zjdjb)" d="M35.484 59.919h23.44V3.705h-23.44z"/>
        <path stroke="#644DB2" stroke-width="2.151" stroke-linecap="round" stroke-linejoin="round" mask="url(#0e5d8zjdjb)" d="M35.484 59.919h23.44V3.705h-23.44z"/>
        <path fill="#F3F0FB" mask="url(#0e5d8zjdjb)" d="M4.52 59.919h16.889V35.343H4.519z"/>
        <path stroke="#644DB2" stroke-width="2.151" stroke-linecap="round" stroke-linejoin="round" mask="url(#0e5d8zjdjb)" d="M4.52 59.919h16.889V35.343H4.519z"/>
        <path fill="#DBD0F6" mask="url(#0e5d8zjdjb)" d="M46.811 12.798H15.707v47.12h9.467V41.794h12.17v18.124h9.467z"/>
        <path stroke="#644DB2" stroke-width="2.151" stroke-linecap="round" stroke-linejoin="round" mask="url(#0e5d8zjdjb)" d="M46.811 12.798H15.707v47.12h9.467V41.794h12.17v18.124h9.467z"/>
        <path fill="#FFF" mask="url(#0e5d8zjdjb)" d="M25.173 59.919h12.17V41.794h-12.17z"/>
        <path stroke="#644DB2" stroke-width="2.151" stroke-linecap="round" stroke-linejoin="round" mask="url(#0e5d8zjdjb)" d="M25.173 59.919h12.17V41.794h-12.17z"/>
        <g mask="url(#0e5d8zjdjb)">
            <path fill="#DBD0F6" d="M23.145 20.115h16.228"/>
            <path stroke="#644DB2" stroke-width="2.151" stroke-linecap="round" stroke-linejoin="round" d="M23.145 20.115h16.228"/>
        </g>
        <g mask="url(#0e5d8zjdjb)">
            <path fill="#DBD0F6" d="M23.145 25.552h16.228"/>
            <path stroke="#644DB2" stroke-width="2.151" stroke-linecap="round" stroke-linejoin="round" d="M23.145 25.552h16.228"/>
        </g>
        <g mask="url(#0e5d8zjdjb)">
            <path fill="#DBD0F6" d="M23.145 30.99h16.228"/>
            <path stroke="#644DB2" stroke-width="2.151" stroke-linecap="round" stroke-linejoin="round" d="M23.145 30.99h16.228"/>
        </g>
        <g mask="url(#0e5d8zjdjb)">
            <path fill="#FFF" d="M42.024 44.385v7.659"/>
            <path stroke="#644DB2" stroke-width="2.151" stroke-linecap="round" stroke-linejoin="round" d="M42.024 44.385v7.659"/>
        </g>
        <path stroke="#644DB2" stroke-width="2.151" stroke-linecap="round" stroke-linejoin="round" mask="url(#0e5d8zjdjb)" d="M4.097 20.274v6.074M1.076 23.311h6.043"/>
    </g>
</svg>
