<svg width="40" height="40" viewBox="0 0 40 40" xmlns="http://www.w3.org/2000/svg">
    <g fill="none" fill-rule="evenodd">
        <path d="M0 0h40v40H0z"/>
        <path d="m27.088 12.071-4.802-9.663c-.24-.477-.64-.915-1.16-1.153a2.56 2.56 0 0 0-3.403 1.153l-4.802 9.663-10.765 1.551c-.56.08-1.08.358-1.44.716-.961.994-.961 2.584.04 3.579l7.763 7.515L6.68 36.05c-.081.557 0 1.114.24 1.59.64 1.233 2.2 1.71 3.4 1.074l9.685-5.01 9.645 5.01c.48.24 1.04.358 1.6.24 1.361-.24 2.322-1.552 2.082-2.904L31.49 25.433l7.763-7.516c.4-.398.64-.875.72-1.432a2.523 2.523 0 0 0-2.12-2.863l-10.765-1.55z" fill="#FFB72E" fill-rule="nonzero"/>
    </g>
</svg>
