<svg width="40" height="40" viewBox="0 0 40 40" xmlns="http://www.w3.org/2000/svg">
    <g fill="none" fill-rule="evenodd">
        <path d="M0 0h40v40H0z"/>
        <path d="M12.645 33.787v2.511c0 2.044 1.64 3.702 3.662 3.702h8.39c2.023 0 3.662-1.658 3.662-3.702v-2.51H12.645zM20.502 0C12.505-.012 6 6.563 6 14.662a14.61 14.61 0 0 0 3.712 9.766c1.688 1.898 2.734 4.26 2.9 6.78h15.776c.166-2.52 1.212-4.882 2.9-6.78A14.612 14.612 0 0 0 35 14.662C35.003 6.563 28.498-.012 20.501 0zm4.28 17.06-3.415 5.633a1.526 1.526 0 0 1-1.305.738c-.272 0-.548-.072-.796-.227a1.555 1.555 0 0 1-.504-2.124l1.99-3.282h-3.228a1.526 1.526 0 0 1-1.332-.788 1.566 1.566 0 0 1 .029-1.562l3.408-5.64a1.518 1.518 0 0 1 2.1-.513c.72.445.948 1.396.508 2.123l-1.988 3.29h3.232c.554 0 1.063.302 1.333.79.27.49.257 1.085-.031 1.562z" fill="#3787F7" fill-rule="nonzero"/>
    </g>
</svg>
