<svg width="40" height="41" viewBox="0 0 40 41" xmlns="http://www.w3.org/2000/svg">
    <g fill="none" fill-rule="evenodd">
        <path d="M0 0h40v40H0z"/>
        <path d="m4.422 30.366 6.212 6.211a1.283 1.283 0 0 1-.267 2.016c-3.89 2.23-8.297 2.394-8.997 2.406h-.071L1.28 41A1.28 1.28 0 0 1 0 39.72v-.09c.013-.7.176-5.107 2.406-8.995.199-.346.546-.58.942-.633a1.29 1.29 0 0 1 1.074.364zm28.037-2.149c.215.873.335 1.765.342 2.658a11.26 11.26 0 0 1-2.376 6.886 1.228 1.228 0 0 1-1.821.113l-4.106-4.096c3.184-1.707 5.81-3.589 7.961-5.56zM7.2 24.991l8.808 8.808-.947 1.9a1.227 1.227 0 0 1-1.965.32l-8.116-8.116a1.227 1.227 0 0 1 .32-1.964l1.9-.948zm22.52-23.58.001.013c.369 2.62 1.478 4.917 3.208 6.647 1.73 1.73 4.029 2.84 6.645 3.208h.016c-1.197 6.856-5.486 15.846-18.68 21.904a2.678 2.678 0 0 1-3.02-.521l-9.552-9.553a2.68 2.68 0 0 1-.521-3.019C13.873 6.896 22.862 2.605 29.719 1.41zm-8.14 10.94a4.999 4.999 0 1 0 7.069 7.07 4.999 4.999 0 0 0-7.07-7.07zM10.123 8.199c.894.007 1.786.127 2.658.342-1.972 2.152-3.854 4.778-5.56 7.96l-4.097-4.105c-.512-.512-.455-1.365.114-1.82a11.258 11.258 0 0 1 6.885-2.377zm27.387-7.014a2.63 2.63 0 0 1 2.305 2.305c.17 1.352.284 3.33.056 5.677-2.12-.3-3.997-1.167-5.434-2.604C33 5.125 32.133 3.248 31.834 1.127a25.943 25.943 0 0 1 5.677.057z" fill="#6C4CB7" fill-rule="nonzero"/>
    </g>
</svg>
