<svg width="80" height="80" viewBox="0 0 80 80" xmlns="http://www.w3.org/2000/svg" xmlns:xlink="http://www.w3.org/1999/xlink">
    <defs>
        <path id="uocxsfn79a" d="M0 49h80V0H0z"/>
    </defs>
    <g transform="translate(0 16)" fill="none" fill-rule="evenodd">
        <path d="M79.007 8.143c0 1.815-1.463 3.286-3.266 3.286a3.277 3.277 0 0 1-3.268-3.286 3.277 3.277 0 0 1 3.268-3.285 3.276 3.276 0 0 1 3.266 3.285" fill="#FFF"/>
        <path d="M79.007 8.143c0 1.815-1.463 3.286-3.266 3.286a3.277 3.277 0 0 1-3.268-3.286 3.277 3.277 0 0 1 3.268-3.285 3.276 3.276 0 0 1 3.266 3.285zM3.782 27.223v5.611M.993 30.028h5.578" stroke="#644DB2" stroke-width="1.986" stroke-linecap="round" stroke-linejoin="round"/>
        <path d="M13.117 20.335 21.875.999l10.65 18.77s-13.274 2.16-13.664 1.669c-.391-.489-5.744-1.103-5.744-1.103" fill="#FFF"/>
        <path d="M13.117 20.335 21.875.999l10.65 18.77s-13.274 2.16-13.664 1.669c-.391-.489-5.744-1.103-5.744-1.103z" stroke="#644DB2" stroke-width="1.986" stroke-linecap="round" stroke-linejoin="round"/>
        <path fill="#FFF" d="M34.597 17.953V48H13.721v-28.84"/>
        <path stroke="#644DB2" stroke-width="1.986" stroke-linecap="round" stroke-linejoin="round" d="M34.597 17.953V48H13.721v-28.84"/>
        <mask id="j4v6cx085b" fill="#fff">
            <use xlink:href="#uocxsfn79a"/>
        </mask>
        <path fill="#FFF" mask="url(#j4v6cx085b)" d="M31.292 48.001h36.69V17.953h-36.69z"/>
        <path stroke="#644DB2" stroke-width="1.986" stroke-linecap="round" stroke-linejoin="round" mask="url(#j4v6cx085b)" d="M31.292 48.001h36.69V17.953h-36.69z"/>
        <path fill="#DBD0F6" mask="url(#j4v6cx085b)" d="M71.552 20.268H31.616L21.876.998h39.936z"/>
        <path stroke="#644DB2" stroke-width="1.986" stroke-linecap="round" stroke-linejoin="round" mask="url(#j4v6cx085b)" d="M71.552 20.268H31.616L21.876.998h39.936z"/>
        <g mask="url(#j4v6cx085b)">
            <path fill="#DBD0F6" d="M12.227 22.213 21.968.998"/>
            <path stroke="#644DB2" stroke-width="1.986" stroke-linecap="round" stroke-linejoin="round" d="M12.227 22.213 21.968.998"/>
        </g>
        <path fill="#FFF" mask="url(#j4v6cx085b)" d="M37.83 34.707h3.684V25.65H37.83z"/>
        <path stroke="#644DB2" stroke-width="1.986" stroke-linecap="round" stroke-linejoin="round" mask="url(#j4v6cx085b)" d="M37.83 34.707h3.684V25.65H37.83z"/>
        <path fill="#FFF" mask="url(#j4v6cx085b)" d="M47.858 34.707h3.684V25.65h-3.684z"/>
        <path stroke="#644DB2" stroke-width="1.986" stroke-linecap="round" stroke-linejoin="round" mask="url(#j4v6cx085b)" d="M47.858 34.707h3.684V25.65h-3.684z"/>
        <path fill="#FFF" mask="url(#j4v6cx085b)" d="M57.885 34.707h3.684V25.65h-3.684z"/>
        <path stroke="#644DB2" stroke-width="1.986" stroke-linecap="round" stroke-linejoin="round" mask="url(#j4v6cx085b)" d="M57.885 34.707h3.684V25.65h-3.684z"/>
        <path d="M25.237 29.162c0 1.965-1.583 3.557-3.536 3.557-1.952 0-3.535-1.592-3.535-3.557 0-1.964 1.583-3.555 3.535-3.555 1.953 0 3.536 1.591 3.536 3.555" fill="#F3F0FB" mask="url(#j4v6cx085b)"/>
        <path d="M25.237 29.162c0 1.965-1.583 3.557-3.536 3.557-1.952 0-3.535-1.592-3.535-3.557 0-1.964 1.583-3.555 3.535-3.555 1.953 0 3.536 1.591 3.536 3.555z" stroke="#644DB2" stroke-width="1.986" stroke-linecap="round" stroke-linejoin="round" mask="url(#j4v6cx085b)"/>
    </g>
</svg>
