<svg width="20" height="20" viewBox="0 0 20 20" xmlns="http://www.w3.org/2000/svg">
    <g fill="none" fill-rule="evenodd">
        <path d="M0 0h20v20H0z"/>
        <path d="M7.835 1.946a8.304 8.304 0 0 1 8.037 2.182A8.304 8.304 0 1 1 4.128 15.872 8.304 8.304 0 0 1 7.835 1.946zm.516 5.404h-.534a.53.53 0 0 0-.333.09.633.633 0 0 0-.173.199.71.71 0 0 0-.072.289v5.25c0 .101.031.186.094.253a.58.58 0 0 0 .238.152.999.999 0 0 0 .621.004.567.567 0 0 0 .239-.145.344.344 0 0 0 .093-.25V9.77l1.04 3.323a.563.563 0 0 0 .286.343 1.004 1.004 0 0 0 .917.007.562.562 0 0 0 .285-.336l1.055-3.337v3.41c0 .1.031.185.094.252a.58.58 0 0 0 .238.152.999.999 0 0 0 .621.004.567.567 0 0 0 .238-.145.344.344 0 0 0 .094-.25V7.929a.71.71 0 0 0-.072-.29.633.633 0 0 0-.173-.198.53.53 0 0 0-.333-.09h-.541c-.14 0-.258.03-.354.09a.908.908 0 0 0-.231.199 1.22 1.22 0 0 0-.166.289l-1.206 3.676-1.214-3.676a1.22 1.22 0 0 0-.166-.29.908.908 0 0 0-.231-.198.655.655 0 0 0-.354-.09z" fill="#20A9E0" fill-rule="nonzero"/>
    </g>
</svg>
