<svg width="48" height="48" viewBox="0 0 48 48" xmlns="http://www.w3.org/2000/svg">
    <g fill="none" fill-rule="evenodd">
        <path d="M0 0h48v48H0z"/>
        <g transform="translate(1 7)">
            <ellipse fill="#6C4CB7" cx="40.722" cy="4.712" rx="4.682" ry="4.712"/>
            <path d="m.165 10.995 9.293 1.314c-.646 7.815 1.597 14.064 6.73 18.747.051-.025-4.534-20.06 10.569-20.06.08 0-9.277 4.87-8.502 21.99 0-.025-2.722-.025-8.164 0-3.696-2.621-6.397-5.822-8.104-9.603C.28 19.6-.327 15.472.165 10.995z" fill="#E1D2F9"/>
            <path d="m22.34 18.211 5.104-6.044 6.37 17.286c4.748-4.581 6.145-10.343 4.19-17.286-.005-.014 2.58-.564 7.753-1.65 1.239 8.48-2.255 15.97-10.484 22.468-.025.02-2.519.02-7.48 0L22.34 18.211z" fill="#E1D2F9"/>
        </g>
    </g>
</svg>
