<svg width="60" height="180" viewBox="0 0 60 180" xmlns="http://www.w3.org/2000/svg">
    <path d="M0 0c5.622 13.661 15.985 23.67 26.535 33.404L28.16 34.9l.958.882.478.44.957.883.954.883.951.884C46.701 52.148 59.711 66.09 59.995 89.225L60 90c0 23.6-13.14 37.705-27.542 51.128l-.951.884-.954.883-.957.882-.478.44-.958.883-1.625 1.496C15.985 156.33 5.622 166.339 0 180V0zm32.906 80.593a1.5 1.5 0 0 0-2.062 0l-8.75 8.415-.018.017a1.365 1.365 0 0 0 .018 1.967l8.75 8.415.017.017a1.5 1.5 0 0 0 2.045-.017l.018-.017a1.365 1.365 0 0 0-.018-1.966L25.187 90l7.72-7.424.017-.017a1.365 1.365 0 0 0-.018-1.966z" fill="#FFF" fill-rule="nonzero" fill-opacity=".68"/>
</svg>
