<svg width="20" height="20" viewBox="0 0 20 20" xmlns="http://www.w3.org/2000/svg">
    <g fill="none" fill-rule="evenodd">
        <path d="M0 0h20v20H0z"/>
        <path d="M8.482 2.178a8.186 8.186 0 0 1 5.08.859.552.552 0 0 1 .294.473.551.551 0 0 1-.27.486.572.572 0 0 1-.563.013 7.046 7.046 0 0 0-4.63-.69 6.96 6.96 0 0 0-4.021 2.355 6.738 6.738 0 0 0-1.58 4.33c0 1.806.73 3.539 2.031 4.816a7 7 0 0 0 4.904 1.996 7 7 0 0 0 4.905-1.996 6.75 6.75 0 0 0 1.892-6.18.545.545 0 0 1 .084-.415.57.57 0 0 1 .779-.154c.123.081.21.208.239.351a7.826 7.826 0 0 1-1.49 6.378 8.068 8.068 0 0 1-4.272 2.833 8.198 8.198 0 0 1-5.146-.289 8.022 8.022 0 0 1-3.916-3.293 7.8 7.8 0 0 1-1.083-4.95c.2-1.722.97-3.331 2.192-4.582a8.11 8.11 0 0 1 4.571-2.34zm9.316.206.098.013a.559.559 0 0 1 .412.376.545.545 0 0 1-.125.539l-7.94 8.393a.567.567 0 0 1-.413.184h-.033a.565.565 0 0 1-.422-.228L6.677 7.982a.545.545 0 0 1 .113-.789.57.57 0 0 1 .799.143l2.296 3.13L17.36 2.56a.564.564 0 0 1 .536-.163z" fill="#6733B2" fill-rule="nonzero"/>
    </g>
</svg>
