<svg width="29" height="28" viewBox="0 0 29 28" xmlns="http://www.w3.org/2000/svg">
    <g fill="none" fill-rule="evenodd">
        <path d="M.5 0h28v28H.5z"/>
        <path d="m22.175 3.5.638.633v3.909h4.466l.638.634V21.23l-.638.633h-2.564v4.631l-1.176.34-3.176-4.972H10.227l-.638-.632v-3.911h-.953L5.461 22.29l-1.177-.339V17.32l-2.563.001-.638-.633V4.133l.638-.633h20.454zm.637 5.807v7.38l-.637.633-11.312-.001.002 3.277h9.849l.538.295 2.188 3.423V21.23l.638-.633 2.562-.001V9.308l-3.828-.001zm-1.275-4.542H2.359v11.288h2.563l.638.634v3.082l2.188-3.421.538-.294 13.25-.001V4.765zM13.03 9.777v1.266h-2.166V9.777h2.166zm4.294 0v1.266h-2.127V9.777h2.127zm-8.627 0v1.266H6.572V9.777h2.126z" fill="#FFF" fill-rule="nonzero"/>
    </g>
</svg>
