<?xml version="1.0" encoding="UTF-8"?>
<svg width="24px" height="24px" viewBox="0 0 24 24" version="1.1" xmlns="http://www.w3.org/2000/svg" xmlns:xlink="http://www.w3.org/1999/xlink">
    <title>VSQUARE/4) Icons/add/add_outline</title>
    <g id="VSQUARE_Symbols" stroke="none" stroke-width="1" fill="none" fill-rule="evenodd">
        <g id="VSQUARE/4)-Icons/add/add_outline">
            <rect id="Rectangle" x="0" y="0" width="24" height="24"></rect>
            <path d="M12,5 C12.381997,5 12.6925277,5.30598317 12.6998672,5.68622441 L12.699,11.3 L18.3,11.3 C18.6865993,11.3 19,11.6134007 19,12 C19,12.381997 18.6940168,12.6925277 18.3137756,12.6998672 L12.699,12.699 L12.7,18.3 C12.7,18.6865993 12.3865993,19 12,19 C11.618003,19 11.3074723,18.6940168 11.3001328,18.3137756 L11.3,12.699 L5.7,12.7 C5.31340068,12.7 5,12.3865993 5,12 C5,11.618003 5.30598317,11.3074723 5.68622441,11.3001328 L11.3,11.3 L11.3,5.7 C11.3,5.31340068 11.6134007,5 12,5 Z" id="Combined-Shape" fill="#000000" fill-rule="nonzero"></path>
        </g>
    </g>
</svg>