<?xml version="1.0" encoding="UTF-8"?>
<svg width="24px" height="24px" viewBox="0 0 24 24" version="1.1" xmlns="http://www.w3.org/2000/svg" xmlns:xlink="http://www.w3.org/1999/xlink">
    <title>VSQUARE/4) Icons/add_circle/add_circle_outline</title>
    <g id="VSQUARE_Symbols" stroke="none" stroke-width="1" fill="none" fill-rule="evenodd">
        <g id="VSQUARE/4)-Icons/add_circle/add_circle_outline">
            <rect id="Rectangle" x="0" y="0" width="24" height="24"></rect>
            <path d="M12,3 C16.9688894,3 21,7.03111056 21,12 C21,16.9688894 16.9688894,21 12,21 C7.03111056,21 3,16.9688894 3,12 C3,7.03111056 7.03111056,3 12,3 Z M12,4.38461538 C7.79581252,4.38461538 4.38461538,7.79581252 4.38461538,12 C4.38461538,16.2041875 7.79581252,19.6153846 12,19.6153846 C16.2041875,19.6153846 19.6153846,16.2041875 19.6153846,12 C19.6153846,7.79581252 16.2041875,4.38461538 12,4.38461538 Z M12,7.84615385 C12.3777992,7.84615385 12.6849175,8.14877456 12.6921763,8.52483733 L12.692,11.307 L15.4615385,11.3076923 C15.8438894,11.3076923 16.1538462,11.617649 16.1538462,12 C16.1538462,12.3777992 15.8512254,12.6849175 15.4751627,12.6921763 L12.692,12.692 L12.6923077,15.4615385 C12.6923077,15.8438894 12.382351,16.1538462 12,16.1538462 C11.6222008,16.1538462 11.3150825,15.8512254 11.3078237,15.4751627 L11.307,12.692 L8.53846154,12.6923077 C8.15611056,12.6923077 7.84615385,12.382351 7.84615385,12 C7.84615385,11.6222008 8.14877456,11.3150825 8.52483733,11.3078237 L11.307,11.307 L11.3076923,8.53846154 C11.3076923,8.15611056 11.617649,7.84615385 12,7.84615385 Z" id="Combined-Shape" fill="#000000" fill-rule="nonzero"></path>
        </g>
    </g>
</svg>