<?xml version="1.0" encoding="UTF-8"?>
<svg width="24px" height="24px" viewBox="0 0 24 24" version="1.1" xmlns="http://www.w3.org/2000/svg" xmlns:xlink="http://www.w3.org/1999/xlink">
    <title>VSQUARE/4) Icons/alarm/alarm_sharp</title>
    <g id="VSQUARE_Symbols" stroke="none" stroke-width="1" fill="none" fill-rule="evenodd">
        <g id="VSQUARE/4)-Icons/alarm/alarm_sharp">
            <rect id="Rectangle" x="0" y="0" width="24" height="24"></rect>
            <path d="M13.7599169,5.09121227 C16.2560901,5.65570962 18.8111293,8.18746065 19.4015195,10.6909215 C20.0074918,13.2592321 19.314952,15.686092 17.85629,17.4496566 L17.8556287,17.4513975 L17.85629,17.4531384 L19.9642081,19.5161434 L18.9288611,20.499335 L18.9253984,20.499335 L16.8754804,18.4376358 C14.0549148,20.8040756 9.95504044,20.8040756 7.13447482,18.4376358 L7.13274347,18.4369708 L7.13101212,18.4376358 L5.07806434,20.499335 L5.07460164,20.499335 L4.07907563,19.5196253 L4.07841431,19.5178843 L4.07907563,19.5161434 L6.15020258,17.4531384 C5.00822489,16.0762837 4.38335128,14.3425921 4.38509167,12.5524136 C4.38509167,7.75222754 8.79700326,3.9691813 13.7599169,5.09121227 Z M12.6955697,6.98142969 L11.31049,6.98142969 L11.31049,11.8603929 L7.84779085,11.8603929 L7.84779085,13.2487866 L12.6955697,13.2487866 L12.6955697,6.98142969 Z M18.2553661,3.5 L18.3969039,3.50435233 C19.8603271,3.59313989 21.0030179,4.87272525 20.999994,6.41736757 C20.9982567,7.24561619 20.6554494,7.67823791 20.3801648,8.03251766 C20.1299061,8.35459017 19.7047239,8.58925636 19.6294863,8.62926118 L19.6179382,8.63531553 L15.8089691,4.89231074 L15.8205369,4.8689599 C15.8643825,4.78528975 16.0406037,4.4876109 16.4790014,4.15284967 C16.9395404,3.80118132 17.4633484,3.55886931 18.02185,3.50936378 L18.2328585,3.5 L18.2553661,3.5 Z M5.76714148,3.5 C6.40471097,3.5 7.00289225,3.75722277 7.52099861,4.15284967 C7.95939631,4.4876109 8.13561747,4.78528975 8.17946309,4.8689599 L8.1910309,4.89231074 L8.1910309,4.89231074 L4.38206181,8.63531553 C4.38206181,8.63531553 3.89511974,8.38679742 3.61983515,8.03251766 C3.34455057,7.67823791 3.00174335,7.24561619 3.00000599,6.41562664 C2.99698214,4.87272525 4.13967287,3.59313989 5.60309611,3.50435233 L5.74463393,3.5 L5.76714148,3.5 Z" id="Combined-Shape" fill="#000000" fill-rule="nonzero"></path>
        </g>
    </g>
</svg>