<?xml version="1.0" encoding="UTF-8"?>
<svg width="24px" height="24px" viewBox="0 0 24 24" version="1.1" xmlns="http://www.w3.org/2000/svg" xmlns:xlink="http://www.w3.org/1999/xlink">
    <title>VSQUARE/4) Icons/alarm/alarm</title>
    <g id="VSQUARE_Symbols" stroke="none" stroke-width="1" fill="none" fill-rule="evenodd">
        <g id="VSQUARE/4)-Icons/alarm/alarm">
            <rect id="Rectangle" x="0" y="0" width="24" height="24"></rect>
            <path d="M12.002815,4.91605537 C16.2034016,4.91605537 19.6205713,8.41194207 19.6205713,12.7043599 C19.6221799,14.4181483 19.0683396,16.0809991 18.0504701,17.4351182 L17.8542041,17.6853347 L19.4180083,19.2841497 C19.5971869,19.4621407 19.6687087,19.7250019 19.6051717,19.9720235 C19.5416347,20.2190452 19.352889,20.4119312 19.1112486,20.4767816 C18.9041282,20.5323675 18.6856694,20.4865 18.5178962,20.3568493 L18.4385206,20.2851238 L16.8747164,18.6867513 C14.1260823,21.0329565 10.1613902,21.0931156 7.35039419,18.8672287 L7.13091351,18.6867513 L5.56754215,20.2851238 C5.39352798,20.4683926 5.13645459,20.5416319 4.89481416,20.4767816 C4.65317373,20.4119312 4.46442807,20.2190452 4.40089105,19.9720235 C4.34643075,19.7602907 4.39119736,19.5369207 4.51793478,19.3653341 L4.5880545,19.2841497 L6.15142586,17.6853347 C5.00888528,16.2885417 4.38357134,14.5252204 4.38505861,12.7043599 C4.38505861,8.40972948 7.80439243,4.91605537 12.002815,4.91605537 Z M12.002815,7.04013843 C11.6522174,7.04013843 11.3624701,7.30650211 11.3166136,7.65209095 L11.3102917,7.74816611 L11.3102917,11.9963322 L8.54019844,11.9963322 C8.15772838,11.9963322 7.84767513,12.313327 7.84767513,12.7043599 C7.84767513,13.0628067 8.10820599,13.359041 8.44622713,13.4059241 L8.54019844,13.4123876 L12.002815,13.4123876 C12.3534125,13.4123876 12.6431598,13.1460239 12.6890163,12.8004351 L12.6953383,12.7043599 L12.6953383,7.74816611 C12.6953383,7.35713322 12.385285,7.04013843 12.002815,7.04013843 Z M18.2550019,3.50044252 L18.3965364,3.50486769 C19.8599247,3.59514122 21.0025881,4.89614209 20.9999956,6.466636 C20.9982599,7.30874643 20.6554608,7.75259128 20.3801828,8.10881771 C20.2250759,8.31007926 19.9943153,8.43535018 19.7443599,8.45398121 C19.7322407,8.4561938 19.7131963,8.4561938 19.6577944,8.4561938 C19.4322988,8.4561938 19.2166197,8.36187937 19.0609259,8.19510859 L19.0609259,8.19510859 L16.4306358,5.55549287 C16.2469641,5.36940139 16.1476974,5.11331287 16.1568211,4.84910503 C16.1659448,4.58489719 16.282629,4.33660359 16.4786797,4.16421847 C16.9678408,3.73740377 17.589412,3.50215436 18.2324949,3.50044252 L18.2324949,3.50044252 L18.2550019,3.50044252 Z M5.76707543,3.5 C6.338175,3.50189418 6.89220974,3.68796029 7.35151293,4.02877434 L7.51915939,4.16377595 L7.61057234,4.25603771 C7.75145454,4.4194467 7.8338819,4.62873261 7.84148667,4.84909496 C7.84909143,5.0694573 7.78129611,5.28416217 7.6520288,5.45731621 L7.5672032,5.55593539 L4.93777877,8.19378104 C4.78242675,8.35994471 4.56747155,8.45408519 4.34264156,8.45442373 C4.28637404,8.45442373 4.26732965,8.45221114 4.25607614,8.45221114 C4.00596625,8.43370124 3.77502673,8.30841846 3.61982036,8.10704764 C3.34627365,7.75082122 3.00000599,7.30564881 3.00000599,6.46486593 C2.99709851,4.95647762 4.05344328,3.69561425 5.43719087,3.51981647 L5.60476528,3.50398266 L5.62554098,3.50398266 L5.76707543,3.5 Z" id="Combined-Shape" fill="#000000" fill-rule="nonzero"></path>
        </g>
    </g>
</svg>