<?xml version="1.0" encoding="UTF-8"?>
<svg width="24px" height="24px" viewBox="0 0 24 24" version="1.1" xmlns="http://www.w3.org/2000/svg" xmlns:xlink="http://www.w3.org/1999/xlink">
    <title>VSQUARE/4) Icons/alarm/alarm_outline</title>
    <g id="VSQUARE_Symbols" stroke="none" stroke-width="1" fill="none" fill-rule="evenodd">
        <g id="VSQUARE/4)-Icons/alarm/alarm_outline">
            <rect id="Rectangle" x="0" y="0" width="24" height="24"></rect>
            <path d="M12.0030338,4.9167112 C16.2102905,4.9167112 19.6209459,8.40514922 19.6209459,12.7083556 C19.6209459,14.5373575 18.9922108,16.3000567 17.8571606,17.694165 L19.4181063,19.2908028 C19.688559,19.5674234 19.688559,20.015914 19.4181063,20.2925346 C19.1514099,20.5653132 18.721311,20.5691018 18.4500757,20.3039003 L18.4387105,20.2925346 L16.8771859,18.6964053 C15.514239,19.8570794 13.7910408,20.5 12.0030338,20.5 C10.1486417,20.5 8.44900516,19.8223021 7.12795613,18.6958431 L5.56735716,20.2925346 C5.29690446,20.5691551 4.85841399,20.5691551 4.58796129,20.2925346 C4.32126488,20.0197559 4.31756076,19.5798483 4.57684894,19.3024272 L4.58796129,19.2908028 L6.14850175,17.6939393 C5.04748857,16.3428587 4.38512177,14.6047232 4.38512177,12.7083556 C4.38512177,8.40514922 7.79577716,4.9167112 12.0030338,4.9167112 Z M12.0030338,6.33337382 C8.56073292,6.33337382 5.77019668,9.18755038 5.77019668,12.7083556 C5.77019668,16.2291608 8.56073292,19.0833374 12.0030338,19.0833374 C13.656085,19.0833374 15.2414315,18.4116894 16.4103152,17.2161484 C17.5791989,16.0206075 18.2358709,14.3991059 18.2358709,12.7083556 C18.2358709,9.18755038 15.4453347,6.33337382 12.0030338,6.33337382 Z M12.0030338,7.04170513 C12.3809584,7.04170513 12.6881786,7.35133007 12.6954398,7.73609689 L12.6955713,12.7083556 C12.6955713,13.094899 12.3928501,13.4091257 12.0166625,13.4165525 L8.54034652,13.4166869 C8.15786864,13.4166869 7.84780906,13.0995562 7.84780906,12.7083556 C7.84780906,12.3218122 8.15053021,12.0075855 8.52671778,12.0001587 L11.3104883,12.0000243 L11.3104964,7.75003643 C11.3104964,7.363493 11.6132175,7.04926635 11.9894051,7.04183955 L12.0030338,7.04170513 Z M5.8005709,3.50037452 C6.43212014,3.51062606 7.04074966,3.74602269 7.52113352,4.16647046 L7.52113352,4.16647046 C7.71771558,4.34087139 7.83242324,4.58653805 7.84118442,4.84383561 C7.85154675,5.10607157 7.75498894,5.36093579 7.57457198,5.54755881 L7.57457198,5.54755881 L7.5710172,5.55123587 L4.95905412,8.17525657 C4.80480941,8.34844647 4.59506743,8.44893529 4.37145516,8.45775701 L4.37145516,8.45775701 L4.3480334,8.45836774 L4.27525508,8.45836774 L4.24685785,8.45597367 C3.99631874,8.43485154 3.76621757,8.30628137 3.61347146,8.10206585 L3.61347146,8.10206585 L3.60304967,8.08870768 L3.55376168,8.02432771 L3.52318172,7.98382883 L3.49429838,7.94504309 L3.46700338,7.90777873 L3.46700338,7.90777873 L3.45391766,7.88965713 L3.42880211,7.85431524 C3.424729,7.84851708 3.42071078,7.84276234 3.41674521,7.83704701 L3.41674521,7.83704701 L3.39356547,7.8031961 L3.37154091,7.77009945 C3.31783325,7.68814085 3.27394017,7.61145559 3.23224761,7.52655943 L3.23224761,7.52655943 L3.21566991,7.49213109 L3.19921863,7.45663514 C3.06524045,7.16220501 3.00001019,6.84280069 3.00001019,6.46801746 C2.99608531,4.9032492 4.1259451,3.59603895 5.60473925,3.50487341 L5.60473925,3.50487341 L5.61564001,3.50420139 L5.75889644,3.5 Z M18.2411115,3.5 L18.3843679,3.50420139 L18.3952687,3.50487341 C19.8740628,3.59603895 21.0039226,4.9032492 20.9999898,6.46618594 C20.9999898,6.84280069 20.9347675,7.16220501 20.8007893,7.45663514 L20.8007893,7.45663514 L20.784338,7.49213109 L20.7677603,7.52655943 C20.7455243,7.57183738 20.7226623,7.61477979 20.6980194,7.65743226 L20.6980194,7.65743226 L20.6791851,7.68939922 L20.6791851,7.68939922 L20.6494447,7.73756529 L20.628467,7.77009945 C20.6248865,7.77556336 20.6212624,7.7810507 20.6175924,7.78656548 L20.6175924,7.78656548 L20.5950037,7.82001528 C20.5911412,7.82565577 20.5872283,7.83133168 20.5832627,7.83704701 L20.5832627,7.83704701 L20.5588195,7.87184396 L20.5588195,7.87184396 L20.5460903,7.88965713 L20.5195488,7.92623273 L20.4914732,7.9642338 L20.4462462,8.02432771 L20.4138614,8.0667315 L20.3739503,8.11847866 C20.2209386,8.31336171 19.996022,8.43550776 19.7519042,8.45563484 L19.7519042,8.45563484 L19.7241268,8.45792504 L19.6457803,8.45781168 C19.4157361,8.45360166 19.1990322,8.35230384 19.0456826,8.180301 L19.0456826,8.180301 L19.0405914,8.17450397 L16.4290111,5.55125697 L16.4120623,5.53343515 C16.2402578,5.34819042 16.1487166,5.09961368 16.1586792,4.84775626 C16.1675847,4.58653805 16.2822923,4.34087139 16.4753291,4.16959468 L16.4753291,4.16959468 L16.5018463,4.14658917 C16.9862749,3.73202615 17.5972774,3.50315066 18.2295277,3.50005669 L18.2295277,3.50005669 L18.2411115,3.5 Z M5.7733916,4.91679974 L5.67963934,4.91954452 L5.66629856,4.9205014 C4.95652697,4.97661929 4.39448379,5.62727011 4.38522406,6.44121859 L4.38522406,6.44121859 L4.3851137,6.46618594 C4.3851137,6.5727472 4.39055581,6.65452276 4.40899084,6.73054566 L4.40899084,6.73054566 L4.41130027,6.73982318 L6.16177527,4.98121362 C6.03833475,4.94123975 5.91329505,4.91982236 5.78628643,4.91700661 L5.78628643,4.91700661 L5.7733916,4.91679974 Z M18.2265569,4.91679974 L18.2137215,4.91700661 C18.0867129,4.91982236 17.9616732,4.94123975 17.8421859,4.97989466 L17.8421859,4.97989466 L17.8382598,4.98116935 L19.5886482,6.73938047 C19.6085313,6.65755127 19.614319,6.57975143 19.6148547,6.4802482 L19.6148547,6.4802482 L19.6149023,6.46435442 C19.6170001,5.63227145 19.039226,4.96380607 18.3119359,4.91896968 L18.319,4.919 L18.2265569,4.91679974 Z" id="Combined-Shape" fill="#000000" fill-rule="nonzero"></path>
        </g>
    </g>
</svg>