<?xml version="1.0" encoding="UTF-8"?>
<svg width="24px" height="24px" viewBox="0 0 24 24" version="1.1" xmlns="http://www.w3.org/2000/svg" xmlns:xlink="http://www.w3.org/1999/xlink">
    <title>VSQUARE/4) Icons/albums/albums</title>
    <g id="VSQUARE_Symbols" stroke="none" stroke-width="1" fill="none" fill-rule="evenodd">
        <g id="VSQUARE/4)-Icons/albums/albums">
            <rect id="Rectangle" x="0" y="0" width="24" height="24"></rect>
            <path d="M16.8461538,5.33333333 L7.15384615,5.33333333 C6.77149517,5.33333333 6.46153846,5.0348565 6.46153846,4.66666667 C6.46153846,4.29847683 6.77149517,4 7.15384615,4 L16.8461538,4 C17.2285048,4 17.5384615,4.29847683 17.5384615,4.66666667 C17.5384615,5.0348565 17.2285048,5.33333333 16.8461538,5.33333333 Z M18.2307692,7.33333333 L5.76923077,7.33333333 C5.38687979,7.33333333 5.07692308,7.0348565 5.07692308,6.66666667 C5.07692308,6.29847683 5.38687979,6 5.76923077,6 L18.2307692,6 C18.6131202,6 18.9230769,6.29847683 18.9230769,6.66666667 C18.9230769,7.0348565 18.6131202,7.33333333 18.2307692,7.33333333 Z M19.0585096,20 L4.94149038,20 C3.86972911,19.9988519 3.0011923,19.1624831 3,18.1304167 L3,9.86958333 C3.0011923,8.83751692 3.86972911,8.00114814 4.94149038,8 L19.0585096,8 C20.1302709,8.00114814 20.9988077,8.83751692 21,9.86958333 L21,18.1304167 C20.9988077,19.1624831 20.1302709,19.9988519 19.0585096,20 L19.0585096,20 Z" id="Combined-Shape" fill="#000000" fill-rule="nonzero"></path>
        </g>
    </g>
</svg>