<?xml version="1.0" encoding="UTF-8"?>
<svg width="24px" height="24px" viewBox="0 0 24 24" version="1.1" xmlns="http://www.w3.org/2000/svg" xmlns:xlink="http://www.w3.org/1999/xlink">
    <title>VSQUARE/4) Icons/albums/albums_outline</title>
    <g id="VSQUARE_Symbols" stroke="none" stroke-width="1" fill="none" fill-rule="evenodd">
        <g id="VSQUARE/4)-Icons/albums/albums_outline">
            <rect id="Rectangle" x="0" y="0" width="24" height="24"></rect>
            <path d="M19.0585096,8 L4.94149038,8 C3.86923485,8 3,8.83704097 3,9.86958333 L3,18.1304167 C3,19.162959 3.86923485,20 4.94149038,20 L19.0585096,20 C20.1307651,20 21,19.162959 21,18.1304167 L21,9.86958333 C21,8.83704097 20.1307651,8 19.0585096,8 Z M4.94149038,9.33333333 L19.0585096,9.33333333 C19.3660632,9.33333333 19.6153846,9.57342064 19.6153846,9.86958333 L19.6153846,18.1304167 C19.6153846,18.4265794 19.3660632,18.6666667 19.0585096,18.6666667 L4.94149038,18.6666667 C4.63393681,18.6666667 4.38461538,18.4265794 4.38461538,18.1304167 L4.38461538,9.86958333 C4.38461538,9.57342064 4.63393681,9.33333333 4.94149038,9.33333333 Z M16.8461538,4 C17.2285048,4 17.5384615,4.29847683 17.5384615,4.66666667 C17.5384615,5.03047329 17.2358408,5.32621686 16.8597781,5.33320682 L16.8461538,5.33333333 L7.15384615,5.33333333 C6.77149517,5.33333333 6.46153846,5.0348565 6.46153846,4.66666667 C6.46153846,4.30286005 6.76415918,4.00711647 7.14022194,4.00012652 L7.15384615,4 L16.8461538,4 Z M18.2307692,6 C18.6131202,6 18.9230769,6.29847683 18.9230769,6.66666667 C18.9230769,7.03047329 18.6204562,7.32621686 18.2443934,7.33320682 L18.2307692,7.33333333 L5.76923077,7.33333333 C5.38687979,7.33333333 5.07692308,7.0348565 5.07692308,6.66666667 C5.07692308,6.30286005 5.37954379,6.00711647 5.75560656,6.00012652 L5.76923077,6 L18.2307692,6 Z" id="Combined-Shape" fill="#000000" fill-rule="nonzero"></path>
        </g>
    </g>
</svg>