<?xml version="1.0" encoding="UTF-8"?>
<svg width="24px" height="24px" viewBox="0 0 24 24" version="1.1" xmlns="http://www.w3.org/2000/svg" xmlns:xlink="http://www.w3.org/1999/xlink">
    <title>VSQUARE/4) Icons/alert_circle/alert_circle</title>
    <g id="VSQUARE_Symbols" stroke="none" stroke-width="1" fill="none" fill-rule="evenodd">
        <g id="VSQUARE/4)-Icons/alert_circle/alert_circle">
            <rect id="Rectangle" x="0" y="0" width="24" height="24"></rect>
            <path d="M12,3 C7.03745192,3 3,7.03745192 3,12 C3,16.9625481 7.03745192,21 12,21 C16.9625481,21 21,16.9625481 21,12 C21,7.03745192 16.9625481,3 12,3 Z M12,16.8422596 C11.5220613,16.8422596 11.1346154,16.4548137 11.1346154,15.976875 C11.1346154,15.4989363 11.5220613,15.1114904 12,15.1114904 C12.4779387,15.1114904 12.8653846,15.4989363 12.8653846,15.976875 C12.8653846,16.4548137 12.4779387,16.8422596 12,16.8422596 Z M12.9398077,8.13865385 L12.6914423,13.4175 C12.6914423,13.799851 12.3814856,14.1098077 11.9991346,14.1098077 C11.6167836,14.1098077 11.3068269,13.799851 11.3068269,13.4175 L11.0584615,8.14125 L11.0584615,8.13908654 C11.0436364,7.79370476 11.2194497,7.46802102 11.5163324,7.29090796 C11.813215,7.11379491 12.1833234,7.11379491 12.4802061,7.29090796 C12.7770888,7.46802102 12.9529021,7.79370476 12.9380769,8.13908654 L12.9398077,8.13865385 Z" id="Shape" fill="#000000" fill-rule="nonzero"></path>
        </g>
    </g>
</svg>