<?xml version="1.0" encoding="UTF-8"?>
<svg width="24px" height="24px" viewBox="0 0 24 24" version="1.1" xmlns="http://www.w3.org/2000/svg" xmlns:xlink="http://www.w3.org/1999/xlink">
    <title>VSQUARE/4) Icons/alert_circle/alert_circle_outline</title>
    <g id="VSQUARE_Symbols" stroke="none" stroke-width="1" fill="none" fill-rule="evenodd">
        <g id="VSQUARE/4)-Icons/alert_circle/alert_circle_outline">
            <rect id="Rectangle" x="0" y="0" width="24" height="24"></rect>
            <path d="M12,3 C16.9688894,3 21,7.03111056 21,12 C21,16.9688894 16.9688894,21 12,21 C7.03111056,21 3,16.9688894 3,12 C3,7.03111056 7.03111056,3 12,3 Z M12,4.38461538 C7.79581252,4.38461538 4.38461538,7.79581252 4.38461538,12 C4.38461538,16.2041875 7.79581252,19.6153846 12,19.6153846 C16.2041875,19.6153846 19.6153846,16.2041875 19.6153846,12 C19.6153846,7.79581252 16.2041875,4.38461538 12,4.38461538 Z M12,15.1114904 C12.4779387,15.1114904 12.8653846,15.4989363 12.8653846,15.976875 C12.8653846,16.4548137 12.4779387,16.8422596 12,16.8422596 C11.5220613,16.8422596 11.1346154,16.4548137 11.1346154,15.976875 C11.1346154,15.4989363 11.5220613,15.1114904 12,15.1114904 Z M11.990758,7.15599782 L11.9991282,7.15600702 L12.0362282,7.1566924 C12.2785637,7.16608515 12.5080997,7.26873043 12.6767193,7.44346578 C12.8262903,7.59846165 12.9172216,7.79905463 12.9365653,8.01167731 L12.9394774,8.14042594 L12.6915447,13.4171086 C12.6520071,14.2585766 11.4605582,14.2952109 11.3207914,13.5269212 L11.3084579,13.4171652 L11.0600389,8.13932232 C11.0484615,7.88424146 11.1410786,7.6354137 11.3166211,7.44998147 C11.4921402,7.26457399 11.7354762,7.15848041 11.990758,7.15599782 Z" id="Combined-Shape" fill="#000000" fill-rule="nonzero"></path>
        </g>
    </g>
</svg>