<?xml version="1.0" encoding="UTF-8"?>
<svg width="24px" height="24px" viewBox="0 0 24 24" version="1.1" xmlns="http://www.w3.org/2000/svg" xmlns:xlink="http://www.w3.org/1999/xlink">
    <title>VSQUARE/4) Icons/analytics/analytics_outline</title>
    <g id="VSQUARE_Symbols" stroke="none" stroke-width="1" fill="none" fill-rule="evenodd">
        <g id="VSQUARE/4)-Icons/analytics/analytics_outline">
            <rect id="Rectangle" x="0" y="0" width="24" height="24"></rect>
            <path d="M20.3333333,7 C21.2538079,7 22,7.76951059 22,8.71875 C22,9.66798941 21.2538079,10.4375 20.3333333,10.4375 C20.1185686,10.4375 19.9132915,10.3956094 19.7247661,10.3193192 L16.2190135,13.9356506 C16.2928145,14.1298658 16.3333333,14.3413032 16.3333333,14.5625 C16.3333333,15.5117394 15.5871412,16.28125 14.6666667,16.28125 C13.7461921,16.28125 13,15.5117394 13,14.5625 C13,14.3409218 13.0406587,14.1291367 13.1147019,13.9346462 L10.6081355,11.3507439 C10.4197284,11.4269233 10.2146008,11.46875 10,11.46875 C9.78539922,11.46875 9.58027156,11.4269233 9.39186447,11.3507439 L5.21879651,15.6538299 C5.29273508,15.8482015 5.33333333,16.0598365 5.33333333,16.28125 C5.33333333,17.2304894 4.58714125,18 3.66666667,18 C2.74619208,18 2,17.2304894 2,16.28125 C2,15.3320106 2.74619208,14.5625 3.66666667,14.5625 C3.88143135,14.5625 4.08670845,14.6043906 4.27523388,14.6806808 L8.4480352,10.3778538 C8.373992,10.1833633 8.33333333,9.97157818 8.33333333,9.75 C8.33333333,8.80076059 9.07952542,8.03125 10,8.03125 C10.9204746,8.03125 11.6666667,8.80076059 11.6666667,9.75 C11.6666667,9.97157818 11.626008,10.1833633 11.5519648,10.3778538 L14.0580995,12.9619308 C14.2466249,12.8856406 14.451902,12.84375 14.6666667,12.84375 C14.8818128,12.84375 15.0874376,12.8857896 15.2762383,12.9623376 L18.7812035,9.34617012 C18.7072649,9.15179845 18.6666667,8.9401635 18.6666667,8.71875 C18.6666667,7.76951059 19.4128588,7 20.3333333,7 Z M3.66666667,15.9375 C3.48257175,15.9375 3.33333333,16.0914021 3.33333333,16.28125 C3.33333333,16.4710979 3.48257175,16.625 3.66666667,16.625 C3.85076158,16.625 4,16.4710979 4,16.28125 C4,16.0914021 3.85076158,15.9375 3.66666667,15.9375 Z M14.6666667,14.21875 C14.4825718,14.21875 14.3333333,14.3726521 14.3333333,14.5625 C14.3333333,14.7523479 14.4825718,14.90625 14.6666667,14.90625 C14.8507616,14.90625 15,14.7523479 15,14.5625 C15,14.3726521 14.8507616,14.21875 14.6666667,14.21875 Z M10,9.40625 C9.81590508,9.40625 9.66666667,9.56015212 9.66666667,9.75 C9.66666667,9.93984788 9.81590508,10.09375 10,10.09375 C10.1840949,10.09375 10.3333333,9.93984788 10.3333333,9.75 C10.3333333,9.56015212 10.1840949,9.40625 10,9.40625 Z M20.3333333,8.375 C20.1492384,8.375 20,8.52890212 20,8.71875 C20,8.90859788 20.1492384,9.0625 20.3333333,9.0625 C20.5174282,9.0625 20.6666667,8.90859788 20.6666667,8.71875 C20.6666667,8.52890212 20.5174282,8.375 20.3333333,8.375 Z" id="Combined-Shape" fill="#000000" fill-rule="nonzero"></path>
        </g>
    </g>
</svg>