<?xml version="1.0" encoding="UTF-8"?>
<svg width="24px" height="24px" viewBox="0 0 24 24" version="1.1" xmlns="http://www.w3.org/2000/svg" xmlns:xlink="http://www.w3.org/1999/xlink">
    <title>VSQUARE/4) Icons/analytics/analytics_sharp</title>
    <g id="VSQUARE_Symbols" stroke="none" stroke-width="1" fill="none" fill-rule="evenodd">
        <g id="VSQUARE/4)-Icons/analytics/analytics_sharp">
            <rect id="Rectangle" x="0" y="0" width="24" height="24"></rect>
            <path d="M20.0833301,7 C19.47946,7.00020075 18.911021,7.29391849 18.5494338,7.79257874 C18.1878466,8.29123898 18.0754325,8.93647694 18.2460915,9.53371223 L15.2734387,12.5982155 C14.8813992,12.463567 14.4575906,12.463567 14.0655512,12.5982155 L11.8617812,10.3260341 C12.0604705,9.52666564 11.7563064,8.68418201 11.0990262,8.21333098 C10.4417461,7.74247996 9.56985307,7.74247996 8.91257294,8.21333098 C8.25529281,8.68418201 7.95112864,9.52666564 8.14981794,10.3260341 L4.46409497,14.1235961 C3.62229314,13.8666806 2.71872614,14.2314172 2.26986886,15.0093241 C1.82101157,15.787231 1.9412976,16.7799852 2.56197199,17.4201328 C3.18264637,18.0602805 4.14547172,18.1846196 4.90010134,17.7220785 C5.65473096,17.2595374 6.00877634,16.3280383 5.75986672,15.4600219 L9.39894024,11.7084102 C9.79096509,11.8431516 10.2148029,11.8431516 10.6068278,11.7084102 L12.8110142,13.9810211 C12.6123249,14.7803896 12.9164891,15.6228732 13.5737692,16.0937242 C14.2310493,16.5645752 15.1029424,16.5645752 15.7602225,16.0937242 C16.4175026,15.6228732 16.7216668,14.7803896 16.5229775,13.9810211 L19.5418633,10.870138 C20.2616725,11.0890895 21.0391924,10.8545816 21.531071,10.2701729 C22.0229497,9.68576419 22.1386118,8.85906852 21.8269811,8.15515376 C21.5153504,7.45123899 20.8338111,6.99972511 20.0833301,7 Z" id="Path" fill="#000000" fill-rule="nonzero"></path>
        </g>
    </g>
</svg>