<?xml version="1.0" encoding="UTF-8"?>
<svg width="24px" height="24px" viewBox="0 0 24 24" version="1.1" xmlns="http://www.w3.org/2000/svg" xmlns:xlink="http://www.w3.org/1999/xlink">
    <title>VSQUARE/4) Icons/analytics/analytics</title>
    <g id="VSQUARE_Symbols" stroke="none" stroke-width="1" fill="none" fill-rule="evenodd">
        <g id="VSQUARE/4)-Icons/analytics/analytics">
            <rect id="Rectangle" x="0" y="0" width="24" height="24"></rect>
            <path d="M20.3323194,7 C19.7814234,7.00014667 19.2661921,7.28104485 18.9558365,7.75044292 C18.645481,8.219841 18.5801067,8.81708141 18.7811838,9.34601971 L15.2743591,12.9625847 C14.8834319,12.8038852 14.4487093,12.8038852 14.0577821,12.9625847 L11.5508837,10.377237 C11.8239233,9.6604864 11.6013415,8.84392057 11.0061644,8.37887447 C10.4109874,7.91382838 9.58850872,7.91382838 8.99333164,8.37887447 C8.39815456,8.84392057 8.17557277,9.6604864 8.44861243,10.377237 L4.27517019,14.6812802 C3.54051482,14.3840729 2.70444368,14.6590112 2.27222015,15.3399414 C1.83999661,16.0208717 1.93012962,16.9210934 2.48814904,17.4965751 C3.04616846,18.0720569 3.91907408,18.1650104 4.57934232,17.7192612 C5.23961057,17.2735119 5.5062062,16.4112773 5.21801733,15.6536321 L9.39145956,11.349589 C9.78238672,11.5082884 10.2171094,11.5082884 10.6080365,11.349589 L13.114935,13.9349367 C12.8418953,14.6516873 13.0644771,15.4682531 13.6596542,15.9332992 C14.2548313,16.3983453 15.0773099,16.3983453 15.672487,15.9332992 C16.2676641,15.4682531 16.4902459,14.6516873 16.2172062,13.9349367 L19.7240309,10.3183717 C20.3480759,10.5712067 21.0582738,10.4137479 21.5264276,9.9187603 C21.9945813,9.4237727 22.1295187,8.68765426 21.8688824,8.05058059 C21.6082461,7.41350693 21.0027945,6.99954703 20.3323194,7 Z" id="Path" fill="#000000" fill-rule="nonzero"></path>
        </g>
    </g>
</svg>