<?xml version="1.0" encoding="UTF-8"?>
<svg width="24px" height="24px" viewBox="0 0 24 24" version="1.1" xmlns="http://www.w3.org/2000/svg" xmlns:xlink="http://www.w3.org/1999/xlink">
    <title>VSQUARE/4) Icons/apps/apps_outline</title>
    <g id="VSQUARE_Symbols" stroke="none" stroke-width="1" fill="none" fill-rule="evenodd">
        <g id="VSQUARE/4)-Icons/apps/apps_outline">
            <rect id="Rectangle" x="0" y="0" width="24" height="24"></rect>
            <path d="M5.42307692,3 C4.08484849,3 3,4.08484849 3,5.42307692 C3,6.76130536 4.08484849,7.84615385 5.42307692,7.84615385 C6.76130536,7.84615385 7.84615385,6.76130536 7.84615385,5.42307692 C7.84615385,4.08484849 6.76130536,3 5.42307692,3 Z M5.42307692,4.38461538 C5.99660339,4.38461538 6.46153846,4.84955045 6.46153846,5.42307692 C6.46153846,5.99660339 5.99660339,6.46153846 5.42307692,6.46153846 C4.84955045,6.46153846 4.38461538,5.99660339 4.38461538,5.42307692 C4.38461538,4.84955045 4.84955045,4.38461538 5.42307692,4.38461538 Z M12,3 C10.6617716,3 9.57692308,4.08484849 9.57692308,5.42307692 C9.57692308,6.76130536 10.6617716,7.84615385 12,7.84615385 C13.3382284,7.84615385 14.4230769,6.76130536 14.4230769,5.42307692 C14.4230769,4.08484849 13.3382284,3 12,3 Z M12,4.38461538 C12.5735265,4.38461538 13.0384615,4.84955045 13.0384615,5.42307692 C13.0384615,5.99660339 12.5735265,6.46153846 12,6.46153846 C11.4264735,6.46153846 10.9615385,5.99660339 10.9615385,5.42307692 C10.9615385,4.84955045 11.4264735,4.38461538 12,4.38461538 Z M18.5769231,3 C17.2386946,3 16.1538462,4.08484849 16.1538462,5.42307692 C16.1538462,6.76130536 17.2386946,7.84615385 18.5769231,7.84615385 C19.9151515,7.84615385 21,6.76130536 21,5.42307692 C21,4.08484849 19.9151515,3 18.5769231,3 Z M18.5769231,4.38461538 C19.1504495,4.38461538 19.6153846,4.84955045 19.6153846,5.42307692 C19.6153846,5.99660339 19.1504495,6.46153846 18.5769231,6.46153846 C18.0033966,6.46153846 17.5384615,5.99660339 17.5384615,5.42307692 C17.5384615,4.84955045 18.0033966,4.38461538 18.5769231,4.38461538 Z M5.42307692,9.57692308 C4.08484849,9.57692308 3,10.6617716 3,12 C3,13.3382284 4.08484849,14.4230769 5.42307692,14.4230769 C6.76130536,14.4230769 7.84615385,13.3382284 7.84615385,12 C7.84615385,10.6617716 6.76130536,9.57692308 5.42307692,9.57692308 Z M5.42307692,10.9615385 C5.99660339,10.9615385 6.46153846,11.4264735 6.46153846,12 C6.46153846,12.5735265 5.99660339,13.0384615 5.42307692,13.0384615 C4.84955045,13.0384615 4.38461538,12.5735265 4.38461538,12 C4.38461538,11.4264735 4.84955045,10.9615385 5.42307692,10.9615385 Z M12,9.57692308 C10.6617716,9.57692308 9.57692308,10.6617716 9.57692308,12 C9.57692308,13.3382284 10.6617716,14.4230769 12,14.4230769 C13.3382284,14.4230769 14.4230769,13.3382284 14.4230769,12 C14.4230769,10.6617716 13.3382284,9.57692308 12,9.57692308 Z M12,10.9615385 C12.5735265,10.9615385 13.0384615,11.4264735 13.0384615,12 C13.0384615,12.5735265 12.5735265,13.0384615 12,13.0384615 C11.4264735,13.0384615 10.9615385,12.5735265 10.9615385,12 C10.9615385,11.4264735 11.4264735,10.9615385 12,10.9615385 Z M18.5769231,9.57692308 C17.2386946,9.57692308 16.1538462,10.6617716 16.1538462,12 C16.1538462,13.3382284 17.2386946,14.4230769 18.5769231,14.4230769 C19.9151515,14.4230769 21,13.3382284 21,12 C21,10.6617716 19.9151515,9.57692308 18.5769231,9.57692308 Z M18.5769231,10.9615385 C19.1504495,10.9615385 19.6153846,11.4264735 19.6153846,12 C19.6153846,12.5735265 19.1504495,13.0384615 18.5769231,13.0384615 C18.0033966,13.0384615 17.5384615,12.5735265 17.5384615,12 C17.5384615,11.4264735 18.0033966,10.9615385 18.5769231,10.9615385 Z M5.42307692,16.1538462 C4.08484849,16.1538462 3,17.2386946 3,18.5769231 C3,19.9151515 4.08484849,21 5.42307692,21 C6.76130536,21 7.84615385,19.9151515 7.84615385,18.5769231 C7.84615385,17.2386946 6.76130536,16.1538462 5.42307692,16.1538462 Z M5.42307692,17.5384615 C5.99660339,17.5384615 6.46153846,18.0033966 6.46153846,18.5769231 C6.46153846,19.1504495 5.99660339,19.6153846 5.42307692,19.6153846 C4.84955045,19.6153846 4.38461538,19.1504495 4.38461538,18.5769231 C4.38461538,18.0033966 4.84955045,17.5384615 5.42307692,17.5384615 Z M12,16.1538462 C10.6617716,16.1538462 9.57692308,17.2386946 9.57692308,18.5769231 C9.57692308,19.9151515 10.6617716,21 12,21 C13.3382284,21 14.4230769,19.9151515 14.4230769,18.5769231 C14.4230769,17.2386946 13.3382284,16.1538462 12,16.1538462 Z M12,17.5384615 C12.5735265,17.5384615 13.0384615,18.0033966 13.0384615,18.5769231 C13.0384615,19.1504495 12.5735265,19.6153846 12,19.6153846 C11.4264735,19.6153846 10.9615385,19.1504495 10.9615385,18.5769231 C10.9615385,18.0033966 11.4264735,17.5384615 12,17.5384615 Z M18.5769231,16.1538462 C17.2386946,16.1538462 16.1538462,17.2386946 16.1538462,18.5769231 C16.1538462,19.9151515 17.2386946,21 18.5769231,21 C19.9151515,21 21,19.9151515 21,18.5769231 C21,17.2386946 19.9151515,16.1538462 18.5769231,16.1538462 Z M18.5769231,17.5384615 C19.1504495,17.5384615 19.6153846,18.0033966 19.6153846,18.5769231 C19.6153846,19.1504495 19.1504495,19.6153846 18.5769231,19.6153846 C18.0033966,19.6153846 17.5384615,19.1504495 17.5384615,18.5769231 C17.5384615,18.0033966 18.0033966,17.5384615 18.5769231,17.5384615 Z" id="Combined-Shape" fill="#000000" fill-rule="nonzero"></path>
        </g>
    </g>
</svg>