<?xml version="1.0" encoding="UTF-8"?>
<svg width="24px" height="24px" viewBox="0 0 24 24" version="1.1" xmlns="http://www.w3.org/2000/svg" xmlns:xlink="http://www.w3.org/1999/xlink">
    <title>VSQUARE/4) Icons/apps/apps</title>
    <g id="VSQUARE_Symbols" stroke="none" stroke-width="1" fill="none" fill-rule="evenodd">
        <g id="VSQUARE/4)-Icons/apps/apps">
            <rect id="Rectangle" x="0" y="0" width="24" height="24"></rect>
            <path d="M5.42313821,7.8462056 C4.08491505,7.8462056 3.00007083,6.76136138 3.00007083,5.42313821 C3.00007083,4.08491505 4.08491505,3.00007083 5.42313821,3.00007083 C6.76136138,3.00007083 7.8462056,4.08491505 7.8462056,5.42313821 C7.84477473,6.76076824 6.76076824,7.84477473 5.42313821,7.8462056 Z M12.0000354,7.8462056 C10.6618122,7.8462056 9.57696802,6.76136138 9.57696802,5.42313821 C9.57696802,4.08491505 10.6618122,3.00007083 12.0000354,3.00007083 C13.3382586,3.00007083 14.4231028,4.08491505 14.4231028,5.42313821 C14.4216719,6.76076824 13.3376654,7.84477473 12.0000354,7.8462056 Z M18.5769326,7.8462056 C17.5968933,7.8462056 16.713355,7.25584419 16.3383102,6.35040596 C15.9632655,5.44496773 16.1705728,4.40276325 16.8635652,3.70977083 C17.5565576,3.01677842 18.5987621,2.80947105 19.5042004,3.18451585 C20.4096386,3.55956064 21,4.44309894 21,5.42313821 C20.9985691,6.76076824 19.9145626,7.84477473 18.5769326,7.8462056 Z M5.42313821,14.4231028 C4.08491505,14.4231028 3.00007083,13.3382586 3.00007083,12.0000354 C3.00007083,10.6618122 4.08491505,9.57696802 5.42313821,9.57696802 C6.76136138,9.57696802 7.8462056,10.6618122 7.8462056,12.0000354 C7.84477473,13.3376654 6.76076824,14.4216719 5.42313821,14.4231028 Z M12.0000354,14.4231028 C10.6618122,14.4231028 9.57696802,13.3382586 9.57696802,12.0000354 C9.57696802,10.6618122 10.6618122,9.57696802 12.0000354,9.57696802 C13.3382586,9.57696802 14.4231028,10.6618122 14.4231028,12.0000354 C14.4216719,13.3376654 13.3376654,14.4216719 12.0000354,14.4231028 Z M18.5769326,14.4231028 C17.5968933,14.4231028 16.713355,13.8327414 16.3383102,12.9273032 C15.9632655,12.0218649 16.1705728,10.9796604 16.8635652,10.286668 C17.5565576,9.59367561 18.5987621,9.38636825 19.5042004,9.76141305 C20.4096386,10.1364578 21,11.0199961 21,12.0000354 C20.9985691,13.3376654 19.9145626,14.4216719 18.5769326,14.4231028 Z M5.42313821,21 C4.44309894,21 3.55956064,20.4096386 3.18451585,19.5042004 C2.80947105,18.5987621 3.01677842,17.5565576 3.70977083,16.8635652 C4.40276325,16.1705728 5.44496773,15.9632655 6.35040596,16.3383102 C7.25584419,16.713355 7.8462056,17.5968933 7.8462056,18.5769326 C7.84477473,19.9145626 6.76076824,20.9985691 5.42313821,21 Z M12.0000354,21 C11.0199961,21 10.1364578,20.4096386 9.76141305,19.5042004 C9.38636825,18.5987621 9.59367561,17.5565576 10.286668,16.8635652 C10.9796604,16.1705728 12.0218649,15.9632655 12.9273032,16.3383102 C13.8327414,16.713355 14.4231028,17.5968933 14.4231028,18.5769326 C14.4216719,19.9145626 13.3376654,20.9985691 12.0000354,21 Z M18.5769326,21 C17.5968933,21 16.713355,20.4096386 16.3383102,19.5042004 C15.9632655,18.5987621 16.1705728,17.5565576 16.8635652,16.8635652 C17.5565576,16.1705728 18.5987621,15.9632655 19.5042004,16.3383102 C20.4096386,16.713355 21,17.5968933 21,18.5769326 C20.9985691,19.9145626 19.9145626,20.9985691 18.5769326,21 Z" id="Combined-Shape" fill="#000000" fill-rule="nonzero"></path>
        </g>
    </g>
</svg>