<?xml version="1.0" encoding="UTF-8"?>
<svg width="24px" height="24px" viewBox="0 0 24 24" version="1.1" xmlns="http://www.w3.org/2000/svg" xmlns:xlink="http://www.w3.org/1999/xlink">
    <title>VSQUARE/4) Icons/apps/apps_sharp</title>
    <g id="VSQUARE_Symbols" stroke="none" stroke-width="1" fill="none" fill-rule="evenodd">
        <g id="VSQUARE/4)-Icons/apps/apps_sharp">
            <rect id="Rectangle" x="0" y="0" width="24" height="24"></rect>
            <path d="M3.34615248,3 L7.50000136,3 C7.6911761,3 7.84615385,3.15497775 7.84615385,3.34615248 L7.84615385,7.50000136 C7.84615385,7.6911761 7.6911761,7.84615385 7.50000136,7.84615385 L3.34615248,7.84615385 C3.15497775,7.84615385 3,7.6911761 3,7.50000136 L3,3.34615248 C3,3.15497775 3.15497775,3 3.34615248,3 Z M9.92307556,3 L14.0769244,3 C14.2680992,3 14.4230769,3.15497775 14.4230769,3.34615248 L14.4230769,7.50000136 C14.4230769,7.6911761 14.2680992,7.84615385 14.0769244,7.84615385 L9.92307556,7.84615385 C9.73190082,7.84615385 9.57692308,7.6911761 9.57692308,7.50000136 L9.57692308,3.34615248 C9.57692308,3.15497775 9.73190082,3 9.92307556,3 Z M16.4999986,3 L20.6538475,3 C20.8450223,3 21,3.15497775 21,3.34615248 L21,7.50000136 C21,7.6911761 20.8450223,7.84615385 20.6538475,7.84615385 L16.4999986,7.84615385 C16.3088239,7.84615385 16.1538462,7.6911761 16.1538462,7.50000136 L16.1538462,3.34615248 C16.1538462,3.15497775 16.3088239,3 16.4999986,3 Z M3.34615248,9.57692308 L7.50000136,9.57692308 C7.6911761,9.57692308 7.84615385,9.73190082 7.84615385,9.92307556 L7.84615385,14.0769244 C7.84615385,14.2680992 7.6911761,14.4230769 7.50000136,14.4230769 L3.34615248,14.4230769 C3.15497775,14.4230769 3,14.2680992 3,14.0769244 L3,9.92307556 C3,9.73190082 3.15497775,9.57692308 3.34615248,9.57692308 Z M9.92307556,9.57692308 L14.0769244,9.57692308 C14.2680992,9.57692308 14.4230769,9.73190082 14.4230769,9.92307556 L14.4230769,14.0769244 C14.4230769,14.2680992 14.2680992,14.4230769 14.0769244,14.4230769 L9.92307556,14.4230769 C9.73190082,14.4230769 9.57692308,14.2680992 9.57692308,14.0769244 L9.57692308,9.92307556 C9.57692308,9.73190082 9.73190082,9.57692308 9.92307556,9.57692308 Z M16.4999986,9.57692308 L20.6538475,9.57692308 C20.8450223,9.57692308 21,9.73190082 21,9.92307556 L21,14.0769244 C21,14.2680992 20.8450223,14.4230769 20.6538475,14.4230769 L16.4999986,14.4230769 C16.3088239,14.4230769 16.1538462,14.2680992 16.1538462,14.0769244 L16.1538462,9.92307556 C16.1538462,9.73190082 16.3088239,9.57692308 16.4999986,9.57692308 Z M3.34615248,16.1538462 L7.50000136,16.1538462 C7.6911761,16.1538462 7.84615385,16.3088239 7.84615385,16.4999986 L7.84615385,20.6538475 C7.84615385,20.8450223 7.6911761,21 7.50000136,21 L3.34615248,21 C3.15497775,21 3,20.8450223 3,20.6538475 L3,16.4999986 C3,16.3088239 3.15497775,16.1538462 3.34615248,16.1538462 Z M9.92307556,16.1538462 L14.0769244,16.1538462 C14.2680992,16.1538462 14.4230769,16.3088239 14.4230769,16.4999986 L14.4230769,20.6538475 C14.4230769,20.8450223 14.2680992,21 14.0769244,21 L9.92307556,21 C9.73190082,21 9.57692308,20.8450223 9.57692308,20.6538475 L9.57692308,16.4999986 C9.57692308,16.3088239 9.73190082,16.1538462 9.92307556,16.1538462 Z M16.4999986,16.1538462 L20.6538475,16.1538462 C20.8450223,16.1538462 21,16.3088239 21,16.4999986 L21,20.6538475 C21,20.8450223 20.8450223,21 20.6538475,21 L16.4999986,21 C16.3088239,21 16.1538462,20.8450223 16.1538462,20.6538475 L16.1538462,16.4999986 C16.1538462,16.3088239 16.3088239,16.1538462 16.4999986,16.1538462 Z" id="Combined-Shape" fill="#000000" fill-rule="nonzero"></path>
        </g>
    </g>
</svg>