<?xml version="1.0" encoding="UTF-8"?>
<svg width="24px" height="24px" viewBox="0 0 24 24" version="1.1" xmlns="http://www.w3.org/2000/svg" xmlns:xlink="http://www.w3.org/1999/xlink">
    <title>VSQUARE/4) Icons/archive/archive_outline</title>
    <g id="VSQUARE_Symbols" stroke="none" stroke-width="1" fill="none" fill-rule="evenodd">
        <g id="VSQUARE/4)-Icons/archive/archive_outline">
            <rect id="Rectangle" x="0" y="0" width="24" height="24"></rect>
            <path d="M19.6339286,3 C20.6645314,3 21.5,3.85238096 21.5,4.90384615 L21.5,4.90384615 L21.5,5.94230769 C21.5,6.81374261 20.9261343,7.54843078 20.1429277,7.77446839 L20.1428571,18.5789907 C20.138984,19.9010657 19.0999134,20.9743514 17.8071099,20.9995578 L17.7678571,21 L6.23011626,21 C4.93427291,20.9960484 3.88228257,19.935944 3.85757628,18.6169704 L3.8570723,7.77446839 C3.07386569,7.54843078 2.5,6.81374261 2.5,5.94230769 L2.5,5.94230769 L2.5,4.90384615 C2.5,3.85238096 3.33546864,3 4.36607143,3 L4.36607143,3 Z M18.785,7.846 L5.214,7.846 L5.21428269,18.5748555 C5.21594605,19.1430744 5.66253164,19.6043654 6.21535836,19.6151947 L17.7658305,19.6153877 C18.3227753,19.6136907 18.7749137,19.1580649 18.7855281,18.5940473 L18.785,7.846 Z M12,9.92307692 C12.3703032,9.92307692 12.6713279,10.2256976 12.6784427,10.6017604 L12.678,15.175 L14.2344633,13.5873876 C14.4994619,13.3170246 14.9291095,13.3170246 15.1941082,13.5873876 C15.4554263,13.8539955 15.4590557,14.2839517 15.2049964,14.5550971 L15.1941082,14.5664585 L12.4798225,17.3356893 C12.2185044,17.6022972 11.7970791,17.6060001 11.5313136,17.346798 L11.5201775,17.3356893 L8.80589183,14.5664585 C8.5408932,14.2960956 8.5408932,13.8577506 8.80589183,13.5873876 C9.06720992,13.3207797 9.48863522,13.3170768 9.75440073,13.5762789 L9.76553674,13.5873876 L11.321,15.174 L11.3214286,10.6153846 C11.3214286,10.2330336 11.6252353,9.92307692 12,9.92307692 Z M19.6339286,4.38461538 L4.36607143,4.38461538 C4.08499794,4.38461538 3.85714286,4.61708292 3.85714286,4.90384615 L3.85714286,4.90384615 L3.85714286,5.94230769 C3.85714286,6.22907093 4.08499794,6.46153846 4.36607143,6.46153846 L4.36607143,6.46153846 L19.6339286,6.46153846 C19.9150021,6.46153846 20.1428571,6.22907093 20.1428571,5.94230769 L20.1428571,5.94230769 L20.1428571,4.90384615 C20.1428571,4.61708292 19.9150021,4.38461538 19.6339286,4.38461538 L19.6339286,4.38461538 Z" id="Combined-Shape" fill="#000000" fill-rule="nonzero"></path>
        </g>
    </g>
</svg>