<?xml version="1.0" encoding="UTF-8"?>
<svg width="24px" height="24px" viewBox="0 0 24 24" version="1.1" xmlns="http://www.w3.org/2000/svg" xmlns:xlink="http://www.w3.org/1999/xlink">
    <title>VSQUARE/4) Icons/archive/archive</title>
    <g id="VSQUARE_Symbols" stroke="none" stroke-width="1" fill="none" fill-rule="evenodd">
        <g id="VSQUARE/4)-Icons/archive/archive">
            <rect id="Rectangle" x="0" y="0" width="24" height="24"></rect>
            <path d="M3.85714286,8.01923077 L3.85714286,18.5769231 C3.85714286,19.9151515 4.92046658,21 6.23214286,21 L17.7678571,21 C19.0795334,21 20.1428571,19.9151515 20.1428571,18.5769231 L20.1428571,8.01923077 C20.1428571,7.92364302 20.0669054,7.84615385 19.9732143,7.84615385 L4.02678571,7.84615385 C3.93309455,7.84615385 3.85714286,7.92364302 3.85714286,8.01923077 Z M15.1808036,14.5801442 L12.4796652,17.3355288 C12.2147026,17.6056779 11.7852974,17.6056779 11.5203348,17.3355288 L8.81919643,14.5801442 C8.56091518,14.3166346 8.53716518,13.8878365 8.78314732,13.6117788 C8.90792926,13.471537 9.08358108,13.3895787 9.2691759,13.3850003 C9.45477073,13.3804218 9.63409981,13.4536231 9.76537946,13.5875481 L11.3214286,15.1746635 L11.3214286,10.6348558 C11.3214286,10.2623077 11.6021875,9.94254808 11.9673438,9.92394231 C12.1527533,9.91482829 12.3337284,9.98360434 12.4681119,10.1142495 C12.6024955,10.2448947 12.6785545,10.4260024 12.6785714,10.6153846 L12.6785714,15.1746635 L14.2346205,13.5875481 C14.3659002,13.4536231 14.5452293,13.3804218 14.7308241,13.3850003 C14.9164189,13.3895787 15.0920707,13.471537 15.2168527,13.6117788 C15.4628348,13.8874038 15.4390848,14.3166346 15.1808036,14.5801442 Z M3.85338346,3 L20.1466165,3 C20.8940696,3 21.5,3.60593041 21.5,4.35338346 L21.5,5.108155 C21.5,5.85560805 20.8940696,6.46153846 20.1466165,6.46153846 L3.85338346,6.46153846 C3.10593041,6.46153846 2.5,5.85560805 2.5,5.108155 L2.5,4.35338346 C2.5,3.60593041 3.10593041,3 3.85338346,3 Z" id="Combined-Shape" fill="#000000" fill-rule="nonzero"></path>
        </g>
    </g>
</svg>