<?xml version="1.0" encoding="UTF-8"?>
<svg width="24px" height="24px" viewBox="0 0 24 24" version="1.1" xmlns="http://www.w3.org/2000/svg" xmlns:xlink="http://www.w3.org/1999/xlink">
    <title>VSQUARE/4) Icons/archive/archive_sharp</title>
    <g id="VSQUARE_Symbols" stroke="none" stroke-width="1" fill="none" fill-rule="evenodd">
        <g id="VSQUARE/4)-Icons/archive/archive_sharp">
            <rect id="Rectangle" x="0" y="0" width="24" height="24"></rect>
            <path d="M3.0075188,3 L20.9924812,3 C21.2727761,3 21.5,3.22722391 21.5,3.5075188 L21.5,5.95401966 C21.5,6.23431456 21.2727761,6.46153846 20.9924812,6.46153846 L3.0075188,6.46153846 C2.72722391,6.46153846 2.5,6.23431456 2.5,5.95401966 L2.5,3.5075188 C2.5,3.22722391 2.72722391,3 3.0075188,3 Z M3.85714286,7.84615385 L3.85714286,19.9615385 C3.85714286,20.5350649 4.31285302,21 4.875,21 L19.125,21 C19.687147,21 20.1428571,20.5350649 20.1428571,19.9615385 L20.1428571,7.84615385 L3.85714286,7.84615385 Z M12,17.8253365 L8.32383929,14.0769231 L9.28571429,13.0955769 L11.3214286,15.1746635 L11.3214286,9.92307692 L12.6785714,9.92307692 L12.6785714,15.1746635 L14.7172545,13.0947115 L15.6761607,14.0743269 L12,17.8253365 Z" id="Combined-Shape" fill="#000000" fill-rule="nonzero"></path>
        </g>
    </g>
</svg>