<?xml version="1.0" encoding="UTF-8"?>
<svg width="24px" height="24px" viewBox="0 0 24 24" version="1.1" xmlns="http://www.w3.org/2000/svg" xmlns:xlink="http://www.w3.org/1999/xlink">
    <title>VSQUARE/4) Icons/arrow/basic/forward/arrow_forward_outline</title>
    <g id="VSQUARE_Symbols" stroke="none" stroke-width="1" fill="none" fill-rule="evenodd">
        <g id="VSQUARE/4)-Icons/arrow/basic/forward/arrow_forward_outline">
            <rect id="Rectangle" x="0" y="0" width="24" height="24"></rect>
            <path d="M13.1949519,5.76087255 L13.2071068,5.77197227 L19.2071068,11.3434008 C19.593605,11.7022921 19.5975896,12.2818709 19.2190603,12.6453125 L19.2071068,12.6565992 L13.2071068,18.2280277 C12.8165825,18.5906574 12.1834175,18.5906574 11.7928932,18.2280277 C11.406395,17.8691365 11.4024104,17.2895576 11.7809397,16.9261161 L11.7928932,16.9148294 L16.085,12.928 L5.5,12.9285714 C4.94771525,12.9285714 4.5,12.5128358 4.5,12 C4.5,11.4922925 4.93880572,11.079753 5.48346317,11.071553 L16.085,11.071 L11.7928932,7.08517058 C11.406395,6.72627933 11.4024104,6.14670048 11.7809397,5.78325897 L11.7928932,5.77197227 C12.1793915,5.41308103 12.8035533,5.40938112 13.1949519,5.76087255 Z" id="Combined-Shape" fill="#000000" fill-rule="nonzero"></path>
        </g>
    </g>
</svg>