<?xml version="1.0" encoding="UTF-8"?>
<svg width="24px" height="24px" viewBox="0 0 24 24" version="1.1" xmlns="http://www.w3.org/2000/svg" xmlns:xlink="http://www.w3.org/1999/xlink">
    <title>VSQUARE/4) Icons/arrow/basic/back/arrow_back</title>
    <g id="VSQUARE_Symbols" stroke="none" stroke-width="1" fill="none" fill-rule="evenodd">
        <g id="VSQUARE/4)-Icons/arrow/basic/back/arrow_back">
            <rect id="Rectangle" x="0" y="0" width="24" height="24"></rect>
            <path d="M12.2071068,5.77197227 C12.593605,6.13086352 12.5975896,6.71044238 12.2190603,7.07388389 L12.2071068,7.08517058 L7.914,11.071 L18.5,11.0714286 C19.0522847,11.0714286 19.5,11.4871642 19.5,12 C19.5,12.5077075 19.0611943,12.920247 18.5165368,12.928447 L7.914,12.928 L12.2071068,16.9148294 C12.593605,17.2737207 12.5975896,17.8532995 12.2190603,18.216741 L12.2071068,18.2280277 C11.8206085,18.586919 11.1964467,18.5906189 10.8050481,18.2391275 L10.7928932,18.2280277 L4.79289322,12.6565992 C4.40639495,12.2977079 4.40241043,11.7181291 4.78093966,11.3546875 L4.79289322,11.3434008 L10.7928932,5.77197227 C11.1834175,5.40934258 11.8165825,5.40934258 12.2071068,5.77197227 Z" id="Combined-Shape" fill="#000000" fill-rule="nonzero"></path>
        </g>
    </g>
</svg>