<?xml version="1.0" encoding="UTF-8"?>
<svg width="24px" height="24px" viewBox="0 0 24 24" version="1.1" xmlns="http://www.w3.org/2000/svg" xmlns:xlink="http://www.w3.org/1999/xlink">
    <title>VSQUARE/4) Icons/arrow/circle/undo/arrow_undo_circle_outline</title>
    <g id="VSQUARE_Symbols" stroke="none" stroke-width="1" fill="none" fill-rule="evenodd">
        <g id="VSQUARE/4)-Icons/arrow/circle/undo/arrow_undo_circle_outline">
            <rect id="Rectangle" x="0" y="0" width="24" height="24"></rect>
            <path d="M12,3 C16.9688894,3 21,7.03111056 21,12 C21,16.9688894 16.9688894,21 12,21 C7.03111056,21 3,16.9688894 3,12 C3,7.03111056 7.03111056,3 12,3 Z M12,4.38461538 C7.79581252,4.38461538 4.38461538,7.79581252 4.38461538,12 C4.38461538,16.2041875 7.79581252,19.6153846 12,19.6153846 C16.2041875,19.6153846 19.6153846,16.2041875 19.6153846,12 C19.6153846,7.79581252 16.2041875,4.38461538 12,4.38461538 Z M10.92,7.94394231 C11.0241667,7.84494722 11.1771925,7.8174566 11.3093196,7.87388102 C11.4414468,7.93030544 11.5273747,8.05988794 11.5279327,8.20355769 L11.5279327,8.20355769 L11.5279327,9.81836538 C15.3672115,9.81836538 16.6086058,12.2258654 16.8444231,14.8847596 C16.8751442,15.2200962 16.4597596,15.4074519 16.2261058,15.1629808 C15.1846154,14.0721635 13.9973077,13.4893269 11.5279327,13.4893269 L11.5279327,13.4893269 L11.5279327,15.1041346 C11.5275153,15.2483042 11.4411272,15.3783207 11.3083811,15.4345658 C11.175635,15.4908109 11.0221357,15.4624359 10.9182692,15.3624519 L10.9182692,15.3624519 L7.26548077,11.9108654 C7.19427475,11.8438183 7.15390274,11.750352 7.15390274,11.6525481 C7.15390274,11.5547442 7.19427475,11.4612778 7.26548077,11.3942308 L7.26548077,11.3942308 Z" id="Combined-Shape" fill="#000000" fill-rule="nonzero"></path>
        </g>
    </g>
</svg>