<?xml version="1.0" encoding="UTF-8"?>
<svg width="24px" height="24px" viewBox="0 0 24 24" version="1.1" xmlns="http://www.w3.org/2000/svg" xmlns:xlink="http://www.w3.org/1999/xlink">
    <title>VSQUARE/4) Icons/arrow/circle/redo/arrow_redo_circle_outline</title>
    <g id="VSQUARE_Symbols" stroke="none" stroke-width="1" fill="none" fill-rule="evenodd">
        <g id="VSQUARE/4)-Icons/arrow/circle/redo/arrow_redo_circle_outline">
            <rect id="Rectangle" x="0" y="0" width="24" height="24"></rect>
            <path d="M12,3 C16.9688894,3 21,7.03111056 21,12 C21,16.9688894 16.9688894,21 12,21 C7.03111056,21 3,16.9688894 3,12 C3,7.03111056 7.03111056,3 12,3 Z M12,4.38461538 C7.79581252,4.38461538 4.38461538,7.79581252 4.38461538,12 C4.38461538,16.2041875 7.79581252,19.6153846 12,19.6153846 C16.2041875,19.6153846 19.6153846,16.2041875 19.6153846,12 C19.6153846,7.79581252 16.2041875,4.38461538 12,4.38461538 Z M13.0778365,7.94394231 L16.7345192,11.3942308 C16.8057253,11.4612778 16.8460973,11.5547442 16.8460973,11.6525481 C16.8460973,11.750352 16.8057253,11.8438183 16.7345192,11.9108654 L13.0817308,15.3624519 C12.9778643,15.4624359 12.824365,15.4908109 12.6916189,15.4345658 C12.5588728,15.3783207 12.4724847,15.2483042 12.4720673,15.1041346 L12.4720673,13.4893269 C10.0026923,13.4893269 8.81538462,14.0721635 7.77389423,15.1629808 C7.54024038,15.4074519 7.12485577,15.2200962 7.15557692,14.8847596 C7.39139423,12.2258654 8.63278846,9.81836538 12.4720673,9.81836538 L12.4720673,8.20355769 C12.473425,8.06079707 12.5590164,7.93232774 12.6902401,7.87608904 C12.8214637,7.81985033 12.9735218,7.84646987 13.0778365,7.94394231 Z" id="Combined-Shape" fill="#000000" fill-rule="nonzero"></path>
        </g>
    </g>
</svg>