<?xml version="1.0" encoding="UTF-8"?>
<svg width="24px" height="24px" viewBox="0 0 24 24" version="1.1" xmlns="http://www.w3.org/2000/svg" xmlns:xlink="http://www.w3.org/1999/xlink">
    <title>VSQUARE/4) Icons/arrow/circle/back/arrow_back_circle_outline</title>
    <g id="VSQUARE_Symbols" stroke="none" stroke-width="1" fill="none" fill-rule="evenodd">
        <g id="VSQUARE/4)-Icons/arrow/circle/back/arrow_back_circle_outline">
            <rect id="Rectangle" x="0" y="0" width="24" height="24"></rect>
            <path d="M12,3 C16.9688894,3 21,7.03111056 21,12 C21,16.9688894 16.9688894,21 12,21 C7.03111056,21 3,16.9688894 3,12 C3,7.03111056 7.03111056,3 12,3 Z M12,4.38461538 C7.79581252,4.38461538 4.38461538,7.79581252 4.38461538,12 C4.38461538,16.2041875 7.79581252,19.6153846 12,19.6153846 C16.2041875,19.6153846 19.6153846,16.2041875 19.6153846,12 C19.6153846,7.79581252 16.2041875,4.38461538 12,4.38461538 Z M12.2011851,8.04702546 C12.4688282,8.31259426 12.4742036,8.74253278 12.2160582,9.01468442 L12.2049938,9.02608898 L9.941,11.307 L15.7211538,11.3076923 C16.1035048,11.3076923 16.4134615,11.617649 16.4134615,12 C16.4134615,12.3777992 16.1108408,12.6849175 15.7347781,12.6921763 L9.941,12.692 L12.2049938,14.973911 C12.4705626,15.241554 12.4725929,15.6715214 12.2123379,15.9416564 L12.2011851,15.9529745 C11.9335421,16.2185433 11.5035748,16.2205736 11.2334398,15.9603187 L11.2221216,15.9491659 L7.78741008,12.4876274 C7.52335349,12.2215084 7.51963439,11.7945256 7.77625276,11.5238752 L7.78741008,11.5123726 L11.2221216,8.05083409 C11.4914308,7.77942144 11.9297725,7.77771626 12.2011851,8.04702546 Z" id="Combined-Shape" fill="#000000" fill-rule="nonzero"></path>
        </g>
    </g>
</svg>