<?xml version="1.0" encoding="UTF-8"?>
<svg width="24px" height="24px" viewBox="0 0 24 24" version="1.1" xmlns="http://www.w3.org/2000/svg" xmlns:xlink="http://www.w3.org/1999/xlink">
    <title>VSQUARE/4) Icons/arrow/circle/up/arrow_up_circle</title>
    <g id="VSQUARE_Symbols" stroke="none" stroke-width="1" fill="none" fill-rule="evenodd">
        <g id="VSQUARE/4)-Icons/arrow/circle/up/arrow_up_circle">
            <rect id="Rectangle" x="0" y="0" width="24" height="24"></rect>
            <path d="M12,3 C7.02966346,3 3,7.02966346 3,12 C3,16.9703365 7.02966346,21 12,21 C16.9703365,21 21,16.9703365 21,12 C21,7.02966346 16.9703365,3 12,3 Z M15.9530769,12.2012019 C15.8237567,12.3315867 15.6479315,12.4052491 15.4642922,12.4059794 C15.280653,12.4067098 15.1042474,12.3344482 14.9738942,12.2050962 L12.6923077,9.94125 L12.6923077,15.7211538 C12.6923077,16.1035048 12.382351,16.4134615 12,16.4134615 C11.617649,16.4134615 11.3076923,16.1035048 11.3076923,15.7211538 L11.3076923,9.94125 L9.02610577,12.2050962 C8.8503414,12.3793147 8.59498397,12.44653 8.35622414,12.3814229 C8.1174643,12.3163157 7.93157537,12.1287774 7.86857991,11.8894517 C7.80558444,11.6501261 7.87505294,11.3953723 8.05081731,11.2211538 L11.5123558,7.78600962 C11.7822804,7.51815858 12.2177196,7.51815858 12.4876442,7.78600962 L15.9491827,11.2211538 C16.0798321,11.3505084 16.1536628,11.5265188 16.1543988,11.7103702 C16.1551239,11.8942216 16.0826942,12.0708132 15.9530769,12.2012019 Z" id="Shape" fill="#000000" fill-rule="nonzero"></path>
        </g>
    </g>
</svg>