<?xml version="1.0" encoding="UTF-8"?>
<svg width="24px" height="24px" viewBox="0 0 24 24" version="1.1" xmlns="http://www.w3.org/2000/svg" xmlns:xlink="http://www.w3.org/1999/xlink">
    <title>VSQUARE/4) Icons/arrow/circle/undo/arrow_undo_circle</title>
    <g id="VSQUARE_Symbols" stroke="none" stroke-width="1" fill="none" fill-rule="evenodd">
        <g id="VSQUARE/4)-Icons/arrow/circle/undo/arrow_undo_circle">
            <rect id="Rectangle" x="0" y="0" width="24" height="24"></rect>
            <path d="M12,3 C7.02966346,3 3,7.02966346 3,12 C3,16.9703365 7.02966346,21 12,21 C16.9703365,21 21,16.9703365 21,12 C21,7.02966346 16.9703365,3 12,3 Z M16.2261058,15.1629808 C15.1846154,14.0721635 13.9973077,13.4893269 11.5279327,13.4893269 L11.5279327,15.1041346 C11.5273747,15.2478044 11.4414468,15.3773869 11.3093196,15.4338113 C11.1771925,15.4902357 11.0241667,15.4627451 10.92,15.36375 L7.26548077,11.9134615 C7.19427475,11.8464145 7.15390274,11.7529481 7.15390274,11.6551442 C7.15390274,11.5573403 7.19427475,11.463874 7.26548077,11.3968269 L10.9182692,7.94524038 C11.022436,7.8462453 11.1754617,7.81875468 11.3075889,7.8751791 C11.4397161,7.93160352 11.525644,8.06118602 11.5262019,8.20485577 L11.5262019,9.81966346 C15.3654808,9.81966346 16.606875,12.2271635 16.8426923,14.8860577 C16.8742788,15.2200962 16.4597596,15.4074519 16.2261058,15.1629808 Z" id="Shape" fill="#000000" fill-rule="nonzero"></path>
        </g>
    </g>
</svg>