<?xml version="1.0" encoding="UTF-8"?>
<svg width="24px" height="24px" viewBox="0 0 24 24" version="1.1" xmlns="http://www.w3.org/2000/svg" xmlns:xlink="http://www.w3.org/1999/xlink">
    <title>VSQUARE/4) Icons/arrow/basic/up/arrow_up</title>
    <g id="VSQUARE_Symbols" stroke="none" stroke-width="1" fill="none" fill-rule="evenodd">
        <g id="VSQUARE/4)-Icons/arrow/basic/up/arrow_up">
            <rect id="Rectangle" x="0" y="0" width="24" height="24"></rect>
            <path d="M12.6453125,4.78093966 L12.6565992,4.79289322 L18.2280277,10.7928932 C18.5906574,11.1834175 18.5906574,11.8165825 18.2280277,12.2071068 C17.8691365,12.593605 17.2895576,12.5975896 16.9261161,12.2190603 L16.9148294,12.2071068 L12.928,7.914 L12.9285714,18.5 C12.9285714,19.0522847 12.5128358,19.5 12,19.5 C11.4922925,19.5 11.079753,19.0611943 11.071553,18.5165368 L11.071,7.914 L7.08517058,12.2071068 C6.72627933,12.593605 6.14670048,12.5975896 5.78325897,12.2190603 L5.77197227,12.2071068 C5.41308103,11.8206085 5.40938112,11.1964467 5.76087255,10.8050481 L5.77197227,10.7928932 L11.3434008,4.79289322 C11.7022921,4.40639495 12.2818709,4.40241043 12.6453125,4.78093966 Z" id="Combined-Shape" fill="#000000" fill-rule="nonzero"></path>
        </g>
    </g>
</svg>