<?xml version="1.0" encoding="UTF-8"?>
<svg width="24px" height="24px" viewBox="0 0 24 24" version="1.1" xmlns="http://www.w3.org/2000/svg" xmlns:xlink="http://www.w3.org/1999/xlink">
    <title>VSQUARE/4) Icons/arrow/circle/down/arrow_down_circle</title>
    <g id="VSQUARE_Symbols" stroke="none" stroke-width="1" fill="none" fill-rule="evenodd">
        <g id="VSQUARE/4)-Icons/arrow/circle/down/arrow_down_circle">
            <rect id="Rectangle" x="0" y="0" width="24" height="24"></rect>
            <path d="M12,21 C16.9703365,21 21,16.9703365 21,12 C21,7.02966346 16.9703365,3 12,3 C7.02966346,3 3,7.02966346 3,12 C3,16.9703365 7.02966346,21 12,21 Z M8.04692308,11.7987981 C8.17624329,11.6684133 8.35206851,11.5947509 8.53570776,11.5940206 C8.71934701,11.5932902 8.89575257,11.6655518 9.02610577,11.7949038 L11.3076923,14.05875 L11.3076923,8.27884615 C11.3076923,7.89649517 11.617649,7.58653846 12,7.58653846 C12.382351,7.58653846 12.6923077,7.89649517 12.6923077,8.27884615 L12.6923077,14.05875 L14.9738942,11.7949038 C15.2456024,11.5255854 15.6841911,11.5275226 15.9535096,11.7992308 C16.2228281,12.0709389 16.2208909,12.5095277 15.9491827,12.7788462 L12.4876442,16.2139904 C12.2177196,16.4818414 11.7822804,16.4818414 11.5123558,16.2139904 L8.05081731,12.7788462 C7.9201679,12.6494916 7.84633717,12.4734812 7.84560116,12.2896298 C7.84487609,12.1057784 7.91730576,11.9291868 8.04692308,11.7987981 Z" id="Shape" fill="#000000" fill-rule="nonzero"></path>
        </g>
    </g>
</svg>