<?xml version="1.0" encoding="UTF-8"?>
<svg width="24px" height="24px" viewBox="0 0 24 24" version="1.1" xmlns="http://www.w3.org/2000/svg" xmlns:xlink="http://www.w3.org/1999/xlink">
    <title>VSQUARE/4) Icons/arrow/basic/redo/arrow_redo_outline</title>
    <g id="VSQUARE_Symbols" stroke="none" stroke-width="1" fill="none" fill-rule="evenodd">
        <g id="VSQUARE/4)-Icons/arrow/basic/redo/arrow_redo_outline">
            <rect id="Rectangle" x="0" y="0" width="24" height="24"></rect>
            <path d="M12,8.19031157 L11.9451152,8.19288419 C8.70412716,8.35478583 6.36563097,9.58691385 4.88853932,11.7494216 C3.57523291,13.6721427 3,16.2319708 3,19.3030838 C3,19.9646346 3.83261262,20.2525808 4.23792682,19.7312017 L4.27245235,19.6868816 L4.34104665,19.5993854 C4.35242927,19.5849291 4.36378733,19.5705356 4.37512133,19.5562048 L4.44284058,19.4709671 L4.51000603,19.3872121 L4.57664136,19.3049214 L4.64277023,19.2240767 C4.65375082,19.2107221 4.66471129,19.1974269 4.67565214,19.1841909 L4.7410657,19.1054808 C4.77365868,19.0664772 4.80608393,19.0279988 4.83835475,18.990035 L4.90269445,18.9147906 C4.92407501,18.8899359 4.94539088,18.8653069 4.96664601,18.8409005 L5.03023311,18.7683461 C5.11478345,18.6724894 5.198425,18.5801459 5.28141018,18.4911198 L5.34352994,18.4249691 C6.02558033,17.7040869 6.66725228,17.2056624 7.41029112,16.8197277 L7.44915,16.799704 C8.43212844,16.2972022 9.61998401,15.9936251 11.1618165,15.8784886 L11.2699624,15.8707615 C11.4874103,15.8559181 11.7118177,15.8447389 11.9435897,15.8371954 L12,15.8354231 L12,19.3030838 C12,19.914969 12.7297705,20.2286925 13.1703294,19.8062006 L20.785714,12.5031168 C21.0714287,12.229119 21.0714287,11.770881 20.785714,11.4968832 L13.1703294,4.19379944 C12.7297705,3.77130754 12,4.085031 12,4.69691622 L12,8.19031157 Z M13.3846154,6.32237401 L19.3050144,12 L13.3846154,17.6775825 L13.3846154,15.1298931 C13.3846154,14.7457615 13.0746587,14.4343613 12.6923077,14.4343613 C10.1434034,14.4343613 8.28492073,14.7994745 6.77440839,15.5840351 L6.73445884,15.6049159 C5.92542548,16.0304468 5.22821642,16.5600109 4.51984753,17.2796138 L4.47989423,17.32034 L4.48294947,17.290558 C4.68112259,15.3790036 5.18332771,13.7763524 6.03019866,12.5365072 C7.34896868,10.6057872 9.50009546,9.56563874 12.6923077,9.56563874 C13.0746587,9.56563874 13.3846154,9.25423855 13.3846154,8.87010695 L13.3846154,6.32237401 Z" id="Path" fill="#000000" fill-rule="nonzero"></path>
        </g>
    </g>
</svg>