<?xml version="1.0" encoding="UTF-8"?>
<svg width="24px" height="24px" viewBox="0 0 24 24" version="1.1" xmlns="http://www.w3.org/2000/svg" xmlns:xlink="http://www.w3.org/1999/xlink">
    <title>VSQUARE/4) Icons/arrow/circle/back/arrow_back_circle</title>
    <g id="VSQUARE_Symbols" stroke="none" stroke-width="1" fill="none" fill-rule="evenodd">
        <g id="VSQUARE/4)-Icons/arrow/circle/back/arrow_back_circle">
            <rect id="Rectangle" x="0" y="0" width="24" height="24"></rect>
            <path d="M3,12 C3,16.9703365 7.02966346,21 12,21 C16.9703365,21 21,16.9703365 21,12 C21,7.02966346 16.9703365,3 12,3 C7.02966346,3 3,7.02966346 3,12 Z M12.2012019,8.04692308 C12.3315867,8.17624329 12.4052491,8.35206851 12.4059794,8.53570776 C12.4067098,8.71934701 12.3344482,8.89575257 12.2050962,9.02610577 L9.94125,11.3076923 L15.7211538,11.3076923 C16.1035048,11.3076923 16.4134615,11.617649 16.4134615,12 C16.4134615,12.382351 16.1035048,12.6923077 15.7211538,12.6923077 L9.94125,12.6923077 L12.2050962,14.9738942 C12.3793147,15.1496586 12.44653,15.405016 12.3814229,15.6437759 C12.3163157,15.8825357 12.1287774,16.0684246 11.8894517,16.1314201 C11.6501261,16.1944156 11.3953723,16.1249471 11.2211538,15.9491827 L7.78600962,12.4876442 C7.51815858,12.2177196 7.51815858,11.7822804 7.78600962,11.5123558 L11.2211538,8.05081731 C11.3505084,7.9201679 11.5265188,7.84633717 11.7103702,7.84560116 C11.8942216,7.84487609 12.0708132,7.91730576 12.2012019,8.04692308 Z" id="Shape" fill="#000000" fill-rule="nonzero"></path>
        </g>
    </g>
</svg>