<?xml version="1.0" encoding="UTF-8"?>
<svg width="24px" height="24px" viewBox="0 0 24 24" version="1.1" xmlns="http://www.w3.org/2000/svg" xmlns:xlink="http://www.w3.org/1999/xlink">
    <title>VSQUARE/4) Icons/arrow/circle/forward/arrow_forward_circle</title>
    <g id="VSQUARE_Symbols" stroke="none" stroke-width="1" fill="none" fill-rule="evenodd">
        <g id="VSQUARE/4)-Icons/arrow/circle/forward/arrow_forward_circle">
            <rect id="Rectangle" x="0" y="0" width="24" height="24"></rect>
            <path d="M21,12 C21,7.02966346 16.9703365,3 12,3 C7.02966346,3 3,7.02966346 3,12 C3,16.9703365 7.02966346,21 12,21 C16.9703365,21 21,16.9703365 21,12 Z M11.7987981,15.9530769 C11.6684133,15.8237567 11.5947509,15.6479315 11.5940206,15.4642922 C11.5932902,15.280653 11.6655518,15.1042474 11.7949038,14.9738942 L14.05875,12.6923077 L8.27884615,12.6923077 C7.89649517,12.6923077 7.58653846,12.382351 7.58653846,12 C7.58653846,11.617649 7.89649517,11.3076923 8.27884615,11.3076923 L14.05875,11.3076923 L11.7949038,9.02610577 C11.6206853,8.8503414 11.55347,8.59498397 11.6185771,8.35622414 C11.6836843,8.1174643 11.8712226,7.93157537 12.1105483,7.86857991 C12.3498739,7.80558444 12.6046277,7.87505294 12.7788462,8.05081731 L16.2139904,11.5123558 C16.4818414,11.7822804 16.4818414,12.2177196 16.2139904,12.4876442 L12.7788462,15.9491827 C12.6494916,16.0798321 12.4734812,16.1536628 12.2896298,16.1543988 C12.1057784,16.1551239 11.9291868,16.0826942 11.7987981,15.9530769 Z" id="Shape" fill="#000000" fill-rule="nonzero"></path>
        </g>
    </g>
</svg>