<?xml version="1.0" encoding="UTF-8"?>
<svg width="24px" height="24px" viewBox="0 0 24 24" version="1.1" xmlns="http://www.w3.org/2000/svg" xmlns:xlink="http://www.w3.org/1999/xlink">
    <title>VSQUARE/4) Icons/arrow/basic/undo/arrow_undo</title>
    <g id="VSQUARE_Symbols" stroke="none" stroke-width="1" fill="none" fill-rule="evenodd">
        <g id="VSQUARE/4)-Icons/arrow/basic/undo/arrow_undo">
            <rect id="Rectangle" x="0" y="0" width="24" height="24"></rect>
            <path d="M20.3076066,20 C20.0944391,20 19.8931454,19.9013707 19.7619141,19.7325734 C18.7726571,18.459797 17.8548031,17.4774936 16.5890215,16.819146 C15.4175785,16.2116746 13.9462426,15.8946763 11.9988862,15.8355381 L11.9988862,19.3042561 C11.9980424,19.5818111 11.8331056,19.832309 11.5792147,19.9416324 C11.3253239,20.0509558 11.0310576,19.9981872 10.8304724,19.8073659 L3.21414537,12.5020552 C3.07737414,12.3707814 3,12.1889998 3,11.9989454 C3,11.808891 3.07737414,11.6271095 3.21414537,11.4958356 L10.8304724,4.19052492 C11.0310576,3.99970366 11.3253239,3.94693502 11.5792147,4.05625841 C11.8331056,4.16558179 11.9980424,4.41607969 11.9988862,4.69363471 L11.9988862,8.18800833 C15.207264,8.33628875 17.5977521,9.53209854 19.1110643,11.7480428 C20.3647291,13.5835021 21,16.1255763 21,19.3042561 C21,19.6885049 20.6900049,20 20.3076066,20 Z" id="Path" fill="#000000" fill-rule="nonzero"></path>
        </g>
    </g>
</svg>