<?xml version="1.0" encoding="UTF-8"?>
<svg width="24px" height="24px" viewBox="0 0 24 24" version="1.1" xmlns="http://www.w3.org/2000/svg" xmlns:xlink="http://www.w3.org/1999/xlink">
    <title>VSQUARE/4) Icons/arrow/basic/undo/arrow_undo_outline</title>
    <g id="VSQUARE_Symbols" stroke="none" stroke-width="1" fill="none" fill-rule="evenodd">
        <g id="VSQUARE/4)-Icons/arrow/basic/undo/arrow_undo_outline">
            <rect id="Rectangle" x="0" y="0" width="24" height="24"></rect>
            <path d="M10.8296706,4.19379944 L3.21428602,11.4968832 C2.92857133,11.770881 2.92857133,12.229119 3.21428602,12.5031168 L10.8296706,19.8062006 L10.8429731,19.8186549 C11.2847519,20.2223882 12,19.9088501 12,19.3030838 L12,15.8354231 L12.0564103,15.8371954 C14.009791,15.9007721 15.4400587,16.222599 16.5897089,16.8197277 C17.3327477,17.2056624 17.9744197,17.7040869 18.6564701,18.4249691 L18.7185898,18.4911198 C18.801575,18.5801459 18.8852165,18.6724894 18.9697669,18.7683461 L19.033354,18.8409005 C19.0546091,18.8653069 19.075925,18.8899359 19.0973056,18.9147906 L19.1616452,18.990035 C19.1939161,19.0279988 19.2263413,19.0664772 19.2589343,19.1054808 L19.3243479,19.1841909 L19.3902324,19.2643195 C19.4012537,19.2777935 19.4122956,19.2913273 19.4233586,19.3049214 L19.489994,19.3872121 L19.5571594,19.4709671 L19.6248787,19.5562048 L19.6931754,19.6429436 C19.7160398,19.6721087 19.7390044,19.7015271 19.7620732,19.7312017 C20.1673874,20.2525808 21,19.9646346 21,19.3030838 C21,16.2319708 20.4247671,13.6721427 19.1114607,11.7494216 L19.0635137,11.6799862 C17.5839744,9.56054021 15.2610235,8.35304495 12.0548848,8.19288419 L12,8.19031157 L12,4.69691622 C12,4.085031 11.2702295,3.77130754 10.8296706,4.19379944 Z M4.69494231,12 L10.6153846,6.32233054 L10.6153846,8.87010695 C10.6153846,9.25423855 10.9253413,9.56563874 11.3076923,9.56563874 C14.4999045,9.56563874 16.6510313,10.6057872 17.9698013,12.5365072 L18.0034924,12.5862944 C18.8300104,13.8191447 19.3215197,15.404491 19.5170505,17.290558 L19.5200625,17.32034 L19.5188026,17.3190539 C18.7854593,16.5673707 18.0664551,16.0207799 17.2255916,15.5840351 C15.7150793,14.7994745 13.8565966,14.4343613 11.3076923,14.4343613 L11.2940681,14.4344933 C10.9180053,14.4417859 10.6153846,14.7503344 10.6153846,15.1298931 L10.6153846,17.677626 L4.69494231,12 Z" id="Path" fill="#000000" fill-rule="nonzero"></path>
        </g>
    </g>
</svg>