<?xml version="1.0" encoding="UTF-8"?>
<svg width="24px" height="24px" viewBox="0 0 24 24" version="1.1" xmlns="http://www.w3.org/2000/svg" xmlns:xlink="http://www.w3.org/1999/xlink">
    <title>VSQUARE/4) Icons/arrow/circle/up/arrow_up_circle_outline</title>
    <g id="VSQUARE_Symbols" stroke="none" stroke-width="1" fill="none" fill-rule="evenodd">
        <g id="VSQUARE/4)-Icons/arrow/circle/up/arrow_up_circle_outline">
            <rect id="Rectangle" x="0" y="0" width="24" height="24"></rect>
            <path d="M12,3 C16.9688894,3 21,7.03111056 21,12 C21,16.9688894 16.9688894,21 12,21 C7.03111056,21 3,16.9688894 3,12 C3,7.03111056 7.03111056,3 12,3 Z M12,4.38461538 C7.79581252,4.38461538 4.38461538,7.79581252 4.38461538,12 C4.38461538,16.2041875 7.79581252,19.6153846 12,19.6153846 C16.2041875,19.6153846 19.6153846,16.2041875 19.6153846,12 C19.6153846,7.79581252 16.2041875,4.38461538 12,4.38461538 Z M12.4761248,7.77625276 L12.4876274,7.78741008 L15.9491659,11.2221216 C16.2205786,11.4914308 16.2222837,11.9297725 15.9529745,12.2011851 C15.6874057,12.4688282 15.2574672,12.4742036 14.9853156,12.2160582 L14.973911,12.2049938 L12.692,9.941 L12.6923077,15.7211538 C12.6923077,16.1035048 12.382351,16.4134615 12,16.4134615 C11.6222008,16.4134615 11.3150825,16.1108408 11.3078237,15.7347781 L11.307,9.941 L9.02608898,12.2049938 C8.75844595,12.4705626 8.32847862,12.4725929 8.0583436,12.2123379 L8.04702546,12.2011851 C7.78145667,11.9335421 7.77942636,11.5035748 8.03968132,11.2334398 L8.05083409,11.2221216 L11.5123726,7.78741008 C11.7784916,7.52335349 12.2054744,7.51963439 12.4761248,7.77625276 Z" id="Combined-Shape" fill="#000000" fill-rule="nonzero"></path>
        </g>
    </g>
</svg>