<?xml version="1.0" encoding="UTF-8"?>
<svg width="24px" height="24px" viewBox="0 0 24 24" version="1.1" xmlns="http://www.w3.org/2000/svg" xmlns:xlink="http://www.w3.org/1999/xlink">
    <title>VSQUARE/4) Icons/arrow/circle/forward/arrow_forward_circle_outline</title>
    <g id="VSQUARE_Symbols" stroke="none" stroke-width="1" fill="none" fill-rule="evenodd">
        <g id="VSQUARE/4)-Icons/arrow/circle/forward/arrow_forward_circle_outline">
            <rect id="Rectangle" x="0" y="0" width="24" height="24"></rect>
            <path d="M12,3 C16.9688894,3 21,7.03111056 21,12 C21,16.9688894 16.9688894,21 12,21 C7.03111056,21 3,16.9688894 3,12 C3,7.03111056 7.03111056,3 12,3 Z M12,4.38461538 C7.79581252,4.38461538 4.38461538,7.79581252 4.38461538,12 C4.38461538,16.2041875 7.79581252,19.6153846 12,19.6153846 C16.2041875,19.6153846 19.6153846,16.2041875 19.6153846,12 C19.6153846,7.79581252 16.2041875,4.38461538 12,4.38461538 Z M12.7665602,8.03968132 L12.7778784,8.05083409 L16.2125899,11.5123726 C16.4766465,11.7784916 16.4803656,12.2054744 16.2237472,12.4761248 L16.2125899,12.4876274 L12.7778784,15.9491659 C12.5085692,16.2205786 12.0702275,16.2222837 11.7988149,15.9529745 C11.5311718,15.6874057 11.5257964,15.2574672 11.7839418,14.9853156 L11.7950062,14.973911 L14.058,12.692 L8.27884615,12.6923077 C7.89649517,12.6923077 7.58653846,12.382351 7.58653846,12 C7.58653846,11.6222008 7.88915918,11.3150825 8.26522194,11.3078237 L14.058,11.307 L11.7950062,9.02608898 C11.5294374,8.75844595 11.5274071,8.32847862 11.7876621,8.0583436 L11.7988149,8.04702546 C12.0664579,7.78145667 12.4964252,7.77942636 12.7665602,8.03968132 Z" id="Combined-Shape" fill="#000000" fill-rule="nonzero"></path>
        </g>
    </g>
</svg>