<?xml version="1.0" encoding="UTF-8"?>
<svg width="24px" height="24px" viewBox="0 0 24 24" version="1.1" xmlns="http://www.w3.org/2000/svg" xmlns:xlink="http://www.w3.org/1999/xlink">
    <title>VSQUARE/4) Icons/arrow/basic/redo/arrow_redo</title>
    <g id="VSQUARE_Symbols" stroke="none" stroke-width="1" fill="none" fill-rule="evenodd">
        <g id="VSQUARE/4)-Icons/arrow/basic/redo/arrow_redo">
            <rect id="Rectangle" x="0" y="0" width="24" height="24"></rect>
            <path d="M3.46687666,19.96118 C3.18748448,19.8645001 3,19.6002989 3,19.3033931 C3,16.1253213 3.63519456,13.5837333 4.88870862,11.7486251 C6.40313707,9.53136572 8.79203977,8.3375237 12.0000319,8.18927165 L12.0000319,4.69556645 C12.0000563,4.41714434 12.1653083,4.16555805 12.4200822,4.05606498 C12.6748561,3.94657191 12.9700657,4.00026763 13.1704688,4.1925529 L20.7858804,11.4964662 C20.9226352,11.6277149 21,11.8094617 21,11.9994798 C21,12.1894978 20.9226352,12.3712446 20.7858804,12.5024933 L13.1704688,19.8064066 C12.9700657,19.9986919 12.6748561,20.0523876 12.4200822,19.9428945 C12.1653083,19.8334015 12.0000563,19.5818152 12.0000319,19.3033931 L12.0000319,15.8353385 C10.0529096,15.8944654 8.58175056,16.2114031 7.41044833,16.8196278 C6.14481884,17.47698 5.2270752,18.4590955 4.23793708,19.732498 C4.05602887,19.9665373 3.74631447,20.058742 3.46687666,19.9620495 L3.46687666,19.96118 Z" id="Path" fill="#000000" fill-rule="nonzero"></path>
        </g>
    </g>
</svg>