<?xml version="1.0" encoding="UTF-8"?>
<svg width="24px" height="24px" viewBox="0 0 24 24" version="1.1" xmlns="http://www.w3.org/2000/svg" xmlns:xlink="http://www.w3.org/1999/xlink">
    <title>VSQUARE/4) Icons/arrow/circle/redo/arrow_redo_circle</title>
    <g id="VSQUARE_Symbols" stroke="none" stroke-width="1" fill="none" fill-rule="evenodd">
        <g id="VSQUARE/4)-Icons/arrow/circle/redo/arrow_redo_circle">
            <rect id="Rectangle" x="0" y="0" width="24" height="24"></rect>
            <path d="M3,12 C3,16.9703365 7.02966346,21 12,21 C16.9703365,21 21,16.9703365 21,12 C21,7.02966346 16.9703365,3 12,3 C7.02966346,3 3,7.02966346 3,12 Z M7.15384615,14.8847596 C7.38966346,12.2258654 8.63105769,9.81836538 12.4703365,9.81836538 L12.4703365,8.20355769 C12.4716942,8.06079707 12.5572857,7.93232774 12.6885093,7.87608904 C12.819733,7.81985033 12.971791,7.84646987 13.0761058,7.94394231 L16.7345192,11.3942308 C16.8057253,11.4612778 16.8460973,11.5547442 16.8460973,11.6525481 C16.8460973,11.750352 16.8057253,11.8438183 16.7345192,11.9108654 L13.0817308,15.3624519 C12.977416,15.4599244 12.825358,15.4865439 12.6941343,15.4303052 C12.5629107,15.3740665 12.4773192,15.2455972 12.4759615,15.1028365 L12.4759615,13.4893269 C10.0065865,13.4893269 8.81927885,14.0721635 7.77778846,15.1629808 C7.54024038,15.4074519 7.12572115,15.2200962 7.15384615,14.8847596 Z" id="Shape" fill="#000000" fill-rule="nonzero"></path>
        </g>
    </g>
</svg>