<?xml version="1.0" encoding="UTF-8"?>
<svg width="24px" height="24px" viewBox="0 0 24 24" version="1.1" xmlns="http://www.w3.org/2000/svg" xmlns:xlink="http://www.w3.org/1999/xlink">
    <title>VSQUARE/4) Icons/arrow/circle/down/arrow_down_circle_outline</title>
    <g id="VSQUARE_Symbols" stroke="none" stroke-width="1" fill="none" fill-rule="evenodd">
        <g id="VSQUARE/4)-Icons/arrow/circle/down/arrow_down_circle_outline">
            <rect id="Rectangle" x="0" y="0" width="24" height="24"></rect>
            <path d="M12,3 C16.9688894,3 21,7.03111056 21,12 C21,16.9688894 16.9688894,21 12,21 C7.03111056,21 3,16.9688894 3,12 C3,7.03111056 7.03111056,3 12,3 Z M12,4.38461538 C7.79581252,4.38461538 4.38461538,7.79581252 4.38461538,12 C4.38461538,16.2041875 7.79581252,19.6153846 12,19.6153846 C16.2041875,19.6153846 19.6153846,16.2041875 19.6153846,12 C19.6153846,7.79581252 16.2041875,4.38461538 12,4.38461538 Z M12,7.58653846 C12.3777992,7.58653846 12.6849175,7.88915918 12.6921763,8.26522194 L12.692,14.058 L14.973911,11.7950062 C15.2453237,11.525697 15.6836653,11.5274022 15.9529745,11.7988149 C16.2185433,12.0664579 16.2205736,12.4964252 15.9603187,12.7665602 L15.9491659,12.7778784 L12.4876274,16.2125899 C12.2215084,16.4766465 11.7945256,16.4803656 11.5238752,16.2237472 L11.5123726,16.2125899 L8.05083409,12.7778784 C7.77942144,12.5085692 7.77771626,12.0702275 8.04702546,11.7988149 C8.31259426,11.5311718 8.74253278,11.5257964 9.01468442,11.7839418 L9.02608898,11.7950062 L11.307,14.058 L11.3076923,8.27884615 C11.3076923,7.89649517 11.617649,7.58653846 12,7.58653846 Z" id="Combined-Shape" fill="#000000" fill-rule="nonzero"></path>
        </g>
    </g>
</svg>