<?xml version="1.0" encoding="UTF-8"?>
<svg width="24px" height="24px" viewBox="0 0 24 24" version="1.1" xmlns="http://www.w3.org/2000/svg" xmlns:xlink="http://www.w3.org/1999/xlink">
    <title>VSQUARE/4) Icons/attach/attach_sharp</title>
    <g id="VSQUARE_Symbols" stroke="none" stroke-width="1" fill="none" fill-rule="evenodd">
        <g id="VSQUARE/4)-Icons/attach/attach_sharp">
            <rect id="Rectangle" x="0" y="0" width="24" height="24"></rect>
            <path d="M9.1819709,4.4747924 C10.236115,3.84173587 11.5391621,3.84173587 12.5933061,4.4747924 C13.6369088,5.10151837 14.2769366,6.25284174 14.2752706,7.49568865 L14.2750708,7.52576408 L14.2697439,15.3775224 C14.2502207,16.6511159 13.2427891,17.6730238 12.0067605,17.6730238 C10.7830921,17.6730238 9.78347177,16.6714519 9.74465839,15.4156539 L9.74369652,15.3722674 L9.74369652,8.73140175 L11.0351463,8.73140175 L11.0351454,15.3601395 L11.0354442,15.3728744 C11.0519418,15.9066505 11.4727046,16.3334595 11.9908682,16.3420275 L12.0067605,16.3421588 C12.5321873,16.3421588 12.9614108,15.9120972 12.9780768,15.3728744 L12.9783738,15.3595572 L12.9836687,7.51723231 C12.9928277,6.73929318 12.5953419,6.01637464 11.9430635,5.62465489 C11.2907852,5.23293513 10.4844918,5.23293513 9.8322135,5.62465489 C9.18645795,6.01245745 8.79042451,6.72486793 8.79145543,7.49391092 L8.79165589,7.52530528 L8.79165501,15.4139147 L8.79276977,15.4643167 C8.84505042,17.2285217 10.2350443,18.6403586 11.9475773,18.6687006 L12.0001014,18.6691349 C13.7366521,18.6691349 15.154619,17.2465237 15.2074331,15.4643167 L15.2085461,15.4120432 L15.208547,7.37724654 L16.5000032,7.37724654 L16.5000032,15.4246453 L16.5000032,15.4294596 C16.4643313,17.9643276 14.4601536,20 12.0001014,20 C9.56464975,20 7.57600068,18.0048375 7.50193071,15.5053543 L7.50027371,15.4294596 L7.5002061,7.52530528 L7.50000323,7.49568865 C7.49834041,6.25284174 8.13836826,5.10151837 9.1819709,4.4747924 Z" id="Path" fill="#000000" fill-rule="nonzero"></path>
        </g>
    </g>
</svg>