<?xml version="1.0" encoding="UTF-8"?>
<svg width="24px" height="24px" viewBox="0 0 24 24" version="1.1" xmlns="http://www.w3.org/2000/svg" xmlns:xlink="http://www.w3.org/1999/xlink">
    <title>VSQUARE/4) Icons/attach/attach_outline</title>
    <g id="VSQUARE_Symbols" stroke="none" stroke-width="1" fill="none" fill-rule="evenodd">
        <g id="VSQUARE/4)-Icons/attach/attach_outline">
            <rect id="Rectangle" x="0" y="0" width="24" height="24"></rect>
            <path d="M16.4999693,15.3785923 C16.505881,17.0203934 15.6565415,18.5429322 14.2687555,19.3719535 C12.8669514,20.2093488 11.1330486,20.2093488 9.73124453,19.3719535 C8.34345852,18.5429322 7.49411895,17.0203934 7.50003066,15.3785923 L7.50047486,15.3333175 L7.50043624,7.50015692 L7.50023663,7.47075157 C7.49857068,6.23677071 8.13855137,5.0936605 9.18207712,4.47140539 C10.2361435,3.84286487 11.5390946,3.84286487 12.593161,4.47140539 C13.6366867,5.0936605 14.2766674,6.23677071 14.2750015,7.47075157 L14.2748017,7.50061245 L14.2694752,15.2963589 C14.2499534,16.5608671 13.2425961,17.575485 12.0066585,17.575485 C10.7830804,17.575485 9.78353367,16.581058 9.74472314,15.3342184 L9.74376135,15.2911414 L9.74376135,9.3459472 C9.74376135,8.98106064 10.0328409,8.68526164 10.3894387,8.68526164 C10.7417912,8.68526164 11.0282236,8.97405973 11.0349934,9.3329453 L11.035116,9.3459472 L11.0351142,15.2791 L11.0354138,15.2917441 C11.0519102,15.8217124 11.472642,16.2454767 11.9907675,16.2539835 L12.0066585,16.2541139 C12.5320466,16.2541139 12.9612386,15.8271203 12.9779033,15.2917441 L12.9781994,15.2785219 L12.9834948,7.49214154 C12.9926531,6.71975197 12.5951966,6.0019905 11.9429663,5.61306514 C11.290736,5.22413978 10.4845021,5.22413978 9.83227181,5.61306514 C9.18656383,5.99810124 8.79055958,6.70542962 8.79159043,7.46898652 L8.79179086,7.50015692 L8.79179086,15.3431457 L8.79172326,15.3479256 C8.77497537,16.5320972 9.38278014,17.6337246 10.3823088,18.2308128 C11.3818374,18.8279009 12.6181626,18.8279009 13.6176912,18.2308128 C14.6072246,17.6396955 15.2128294,16.5540793 15.208592,15.3834256 L15.2082091,15.3431457 L15.2082091,8.01383994 C15.2082091,7.64895338 15.4972887,7.35315438 15.8538864,7.35315438 C16.206239,7.35315438 16.4926713,7.64195247 16.4994412,8.00083804 L16.4995638,8.01383994 L16.4995638,15.3383652 L16.4999693,15.3785923 Z" id="Path" fill="#000000" fill-rule="nonzero"></path>
        </g>
    </g>
</svg>