<?xml version="1.0" encoding="UTF-8"?>
<svg width="24px" height="24px" viewBox="0 0 24 24" version="1.1" xmlns="http://www.w3.org/2000/svg" xmlns:xlink="http://www.w3.org/1999/xlink">
    <title>VSQUARE/4) Icons/backspace/backspace</title>
    <g id="VSQUARE_Symbols" stroke="none" stroke-width="1" fill="none" fill-rule="evenodd">
        <g id="VSQUARE/4)-Icons/backspace/backspace">
            <rect id="Rectangle" x="0" y="0" width="24" height="24"></rect>
            <path d="M19.0691431,5 L8.47202217,5 C7.91695461,5.00069591 7.38899112,5.2440591 7.02269612,5.6680625 C6.99132962,5.70442172 6.96378307,5.74401137 6.94050453,5.7861875 L3.09858559,11.6390625 C2.96713814,11.861132 2.96713814,12.138868 3.09858559,12.3609375 L6.93491034,18.204625 C6.95904169,18.2496598 6.987898,18.291906 7.02097483,18.330625 C7.38719712,18.7553916 7.9155777,18.9992807 8.47116153,19 L19.0691431,19 C20.1350344,18.9987944 20.9988142,18.1206072 21,17.0369375 L21,6.9630625 C20.9988142,5.87939277 20.1350344,5.00120555 19.0691431,5 Z M16.6967754,14.40625 C16.8749172,14.582223 16.9460251,14.8421038 16.8828558,15.0863247 C16.8196864,15.3305455 16.632033,15.5212447 16.3917908,15.5853597 C16.1515487,15.6494747 15.8959629,15.5770659 15.7229557,15.395875 L13.412124,13.05 L11.1025834,15.3971875 C10.8334328,15.6708273 10.3970536,15.6708273 10.127903,15.3971875 C9.85875245,15.1235477 9.85875245,14.6798898 10.127903,14.40625 L12.436583,12.0581875 L10.1261817,9.70925 C9.85715001,9.43512691 9.85763167,8.99117528 10.1272575,8.71765627 C10.3968834,8.44413725 10.8335517,8.44462693 11.1025834,8.71875 L13.4129847,11.068125 L15.7225253,8.71875 C15.9915571,8.445231 16.4277436,8.44523101 16.6967754,8.71875003 C16.9658071,8.99226904 16.9658071,9.43573097 16.6967754,9.70925 L14.3859438,12.0581875 L16.6967754,14.40625 Z" id="Shape" fill="#000000" fill-rule="nonzero"></path>
        </g>
    </g>
</svg>