<?xml version="1.0" encoding="UTF-8"?>
<svg width="24px" height="24px" viewBox="0 0 24 24" version="1.1" xmlns="http://www.w3.org/2000/svg" xmlns:xlink="http://www.w3.org/1999/xlink">
    <title>VSQUARE/4) Icons/backspace/backspace_outline</title>
    <g id="VSQUARE_Symbols" stroke="none" stroke-width="1" fill="none" fill-rule="evenodd">
        <g id="VSQUARE/4)-Icons/backspace/backspace_outline">
            <rect id="Rectangle" x="0" y="0" width="24" height="24"></rect>
            <path d="M19.0693566,5 C20.1336397,5.00483924 20.9952328,5.87950287 21,6.96306224 L21,6.96306224 L21,17.0400684 C20.9952328,18.1204968 20.1336397,18.9951605 19.0662724,19 L19.0662724,19 L8.45312183,19 C7.8958886,18.9997748 7.36593728,18.7550982 6.99954531,18.3288889 C6.97605608,18.3015648 6.95482685,18.2725877 6.93596765,18.2422555 L6.93596765,18.2422555 L6.92766059,18.2284687 L3.11472884,12.3866417 C2.96477276,12.1568905 2.96181518,11.859707 3.10586389,11.6272939 L3.10586389,11.6272939 L3.11468322,11.6134279 L6.94464467,5.74392779 C6.96271499,5.71623462 6.98270418,5.68988235 7.00446068,5.66507076 L7.00446068,5.66507076 L7.01791558,5.6497265 L7.03865229,5.62667418 C7.40348716,5.22789724 7.91564244,5.00050449 8.45275825,5 L8.45275825,5 Z M19.0662724,6.39999943 L8.4540342,6.39999943 C8.30824469,6.40013636 8.16886771,6.45865449 8.06577735,6.56199358 L8.06577735,6.56199358 L8.06346158,6.56432473 L4.51664233,11.9999124 L8.06591807,17.4378625 C8.16977522,17.5396375 8.30034336,17.59569 8.4375381,17.5997615 L8.4375381,17.5997615 L8.45339622,17.600007 L19.0631883,17.600007 C19.3706478,17.5986109 19.6195525,17.3459303 19.6209277,17.0369375 L19.6209277,17.0369375 L19.6209277,6.96619317 C19.6195525,6.6540694 19.3706478,6.4013888 19.0662724,6.39999943 L19.0662724,6.39999943 Z M16.6896755,8.71946253 C16.9552174,8.98903278 16.9589055,9.42376626 16.7007397,9.69792437 L16.6896755,9.70941205 L14.481,11.951 L14.375,12.058 L16.6896755,14.4074002 C16.9589574,14.6807672 16.9589574,15.1239827 16.6896755,15.3973497 C16.5834587,15.5051778 16.4512107,15.5704737 16.3134672,15.5932374 L16.2094501,15.6023354 C16.0354404,15.6042074 15.8608659,15.5396229 15.7258352,15.4085818 L15.7145192,15.3973497 L13.4,13.048 L11.0867353,15.3973497 C10.9790226,15.5066965 10.8445401,15.5723046 10.7047038,15.5941739 L10.5991572,15.6023749 C10.4226887,15.6023749 10.2462201,15.5340332 10.1115791,15.3973497 C9.84603718,15.1277794 9.8423491,14.6930459 10.1005149,14.4188878 L10.1115791,14.4074002 L12.425,12.058 L12.32,11.951 L10.1115791,9.70941205 C9.84229715,9.43604504 9.84229715,8.99282954 10.1115791,8.71946253 C10.2443501,8.58467741 10.4177948,8.51634884 10.5918045,8.51447683 L10.6959572,8.5213284 C10.8340622,8.54109689 10.9673948,8.60339757 11.0754193,8.70823044 L11.0867353,8.71946253 L13.4,11.068 L15.7145192,8.71946253 C15.9838012,8.44609552 16.4203935,8.44609552 16.6896755,8.71946253 Z" id="Combined-Shape" fill="#000000" fill-rule="nonzero"></path>
        </g>
    </g>
</svg>