<?xml version="1.0" encoding="UTF-8"?>
<svg width="24px" height="24px" viewBox="0 0 24 24" version="1.1" xmlns="http://www.w3.org/2000/svg" xmlns:xlink="http://www.w3.org/1999/xlink">
    <title>VSQUARE/4) Icons/bag/bag</title>
    <g id="VSQUARE_Symbols" stroke="none" stroke-width="1" fill="none" fill-rule="evenodd">
        <g id="VSQUARE/4)-Icons/bag/bag">
            <rect id="Rectangle" x="0" y="0" width="24" height="24"></rect>
            <path d="M20.5954134,8.32723205 C20.3361934,8.07134019 19.9832696,7.92777882 19.6153664,7.92857134 L16.8461387,7.92857134 L16.8461387,7.24999992 C16.8461387,4.6266474 14.6764441,2.5 12,2.5 C9.32353621,2.5 7.15384161,4.6266474 7.15384161,7.24999992 L7.15384161,7.92857134 L4.38461387,7.92857134 C3.61991274,7.92857134 3,8.53618489 3,9.28571418 L3,18.4464283 C3,20.1004461 4.42788305,21.5 6.1153812,21.5 L17.8845991,21.5 C18.7008641,21.5002511 19.4848284,21.1874375 20.0688275,20.6284595 C20.6627129,20.0731324 20.9991252,19.3039484 20.9999869,18.4994417 L20.9999869,9.28571418 C21.0011207,8.92608587 20.8554434,8.58095356 20.5954134,8.32723205 Z M8.53845548,7.24999992 C8.53845548,5.3761767 10.0882373,3.85714284 11.9999901,3.85714284 C13.911743,3.85714284 15.4615248,5.3761767 15.4615248,7.24999992 L15.4615248,7.92857134 L8.53845548,7.92857134 L8.53845548,7.24999992 Z" id="Shape" fill="#000000" fill-rule="nonzero"></path>
        </g>
    </g>
</svg>