<?xml version="1.0" encoding="UTF-8"?>
<svg width="24px" height="24px" viewBox="0 0 24 24" version="1.1" xmlns="http://www.w3.org/2000/svg" xmlns:xlink="http://www.w3.org/1999/xlink">
    <title>VSQUARE/4) Icons/bag/bag_sharp</title>
    <g id="VSQUARE_Symbols" stroke="none" stroke-width="1" fill="none" fill-rule="evenodd">
        <g id="VSQUARE/4)-Icons/bag/bag_sharp">
            <rect id="Rectangle" x="0" y="0" width="24" height="24"></rect>
            <path d="M17.0192308,7.92857143 L17.0192308,7.41964286 C17.0171036,4.75093939 14.8468539,2.56939974 12.1250481,2.5 C12.0817788,2.5 12.0419712,2.5 12,2.5 C11.9580288,2.5 11.9164904,2.5 11.8749519,2.5 C9.15314609,2.56939974 6.98289635,4.75093939 6.98076923,7.41964286 L6.98076923,7.92857143 L3.17307692,7.92857143 C3.07748918,7.92857143 3,8.00452312 3,8.09821429 L3,20.8214286 C3,21.1961932 3.30995671,21.5 3.69230769,21.5 L20.3076923,21.5 C20.6900433,21.5 21,21.1961932 21,20.8214286 L21,8.09821429 C21,8.00452312 20.9225108,7.92857143 20.8269231,7.92857143 L17.0192308,7.92857143 Z M15.2884615,7.92857143 L8.71153846,7.92857143 L8.71153846,7.46205357 C8.71153846,5.68758929 10.1571635,4.21508929 11.9675481,4.19642857 C12.8450328,4.18885358 13.6892856,4.52498553 14.3128242,5.13018002 C14.9363628,5.73537451 15.2875728,6.55953561 15.2884615,7.41964286 L15.2884615,7.92857143 Z" id="Shape" fill="#000000" fill-rule="nonzero"></path>
        </g>
    </g>
</svg>