<?xml version="1.0" encoding="UTF-8"?>
<svg width="24px" height="24px" viewBox="0 0 24 24" version="1.1" xmlns="http://www.w3.org/2000/svg" xmlns:xlink="http://www.w3.org/1999/xlink">
    <title>VSQUARE/4) Icons/bag/bag_outline</title>
    <g id="VSQUARE_Symbols" stroke="none" stroke-width="1" fill="none" fill-rule="evenodd">
        <g id="VSQUARE/4)-Icons/bag/bag_outline">
            <rect id="Rectangle" x="0" y="0" width="24" height="24"></rect>
            <path d="M12,2.5 C14.6496923,2.5 16.8027092,4.58432715 16.8455046,7.17145006 L16.8461538,7.25 L16.846,7.928 L19.6153846,7.92857143 C20.3351041,7.92857143 20.926568,8.4668035 20.9936616,9.15501237 L21,9.28571429 L21,18.499442 C21,20.1516994 19.5810172,21.5 17.8846154,21.5 L17.8846154,21.5 L6.11538462,21.5 C4.4245721,21.5 3,20.1036932 3,18.4464286 L3,18.4464286 L3,9.28571429 C3,8.53618498 3.61991342,7.92857143 4.38461538,7.92857143 L4.38461538,7.92857143 L7.153,7.928 L7.15384615,7.25 C7.15384615,4.62664744 9.32354314,2.5 12,2.5 Z M19.6153846,9.28571429 L4.38461538,9.28571429 L4.38461538,18.4464286 C4.38461538,19.3541639 5.18927406,20.1428571 6.11538462,20.1428571 L6.11538462,20.1428571 L17.8846154,20.1428571 C18.8257722,20.1428571 19.6153846,19.3925768 19.6153846,18.499442 L19.6153846,18.499442 L19.6153846,9.28571429 Z M12,3.85714286 C10.1073626,3.85714286 8.56949341,5.34594797 8.53892529,7.1938929 L8.538,7.928 L15.461,7.928 L15.4615385,7.25 C15.4615385,5.37617674 13.9117549,3.85714286 12,3.85714286 Z" id="Combined-Shape" fill="#000000" fill-rule="nonzero"></path>
        </g>
    </g>
</svg>