<?xml version="1.0" encoding="UTF-8"?>
<svg width="24px" height="24px" viewBox="0 0 24 24" version="1.1" xmlns="http://www.w3.org/2000/svg" xmlns:xlink="http://www.w3.org/1999/xlink">
    <title>VSQUARE/4) Icons/ban/ban</title>
    <g id="VSQUARE_Symbols" stroke="none" stroke-width="1" fill="none" fill-rule="evenodd">
        <g id="VSQUARE/4)-Icons/ban/ban">
            <rect id="Rectangle" x="0" y="0" width="24" height="24"></rect>
            <path d="M12,2 C17.5228475,2 22,6.4771525 22,12 C22,17.5228475 17.5228475,22 12,22 C6.4771525,22 2,17.5228475 2,12 C2,6.4771525 6.4771525,2 12,2 Z M5.73737393,7.25437296 C4.7366969,8.57288161 4.14285714,10.2170915 4.14285714,12 C4.14285714,16.3393802 7.66061982,19.8571429 12,19.8571429 C13.7829085,19.8571429 15.4271184,19.2633031 16.745627,18.2626261 Z M12,4.14285714 C10.2170915,4.14285714 8.57288161,4.7366969 7.25437296,5.73737393 L18.2626261,16.745627 C19.2633031,15.4271184 19.8571429,13.7829085 19.8571429,12 C19.8571429,7.66061982 16.3393802,4.14285714 12,4.14285714 Z" id="Combined-Shape" fill="#000000" fill-rule="nonzero"></path>
        </g>
    </g>
</svg>