<?xml version="1.0" encoding="UTF-8"?>
<svg width="24px" height="24px" viewBox="0 0 24 24" version="1.1" xmlns="http://www.w3.org/2000/svg" xmlns:xlink="http://www.w3.org/1999/xlink">
    <title>VSQUARE/4) Icons/ban/ban_outline</title>
    <g id="VSQUARE_Symbols" stroke="none" stroke-width="1" fill="none" fill-rule="evenodd">
        <g id="VSQUARE/4)-Icons/ban/ban_outline">
            <rect id="Rectangle" x="0" y="0" width="24" height="24"></rect>
            <path d="M12,2 C17.5228475,2 22,6.4771525 22,12 C22,17.5228475 17.5228475,22 12,22 C6.4771525,22 2,17.5228475 2,12 C2,6.4771525 6.4771525,2 12,2 Z M5.4543158,6.46587581 C4.19056698,7.95911543 3.42857143,9.89057092 3.42857143,12 C3.42857143,16.7338693 7.26613072,20.5714286 12,20.5714286 C14.1094291,20.5714286 16.0408846,19.809433 17.5341242,18.5456842 Z M12,3.42857143 C9.89057092,3.42857143 7.95911543,4.19056698 6.46587581,5.4543158 L18.5456842,17.5341242 C19.809433,16.0408846 20.5714286,14.1094291 20.5714286,12 C20.5714286,7.26613072 16.7338693,3.42857143 12,3.42857143 Z" id="Combined-Shape" fill="#000000" fill-rule="nonzero"></path>
        </g>
    </g>
</svg>