<?xml version="1.0" encoding="UTF-8"?>
<svg width="24px" height="24px" viewBox="0 0 24 24" version="1.1" xmlns="http://www.w3.org/2000/svg" xmlns:xlink="http://www.w3.org/1999/xlink">
    <title>VSQUARE/4) Icons/ban/ban_sharp</title>
    <g id="VSQUARE_Symbols" stroke="none" stroke-width="1" fill="none" fill-rule="evenodd">
        <g id="VSQUARE/4)-Icons/ban/ban_sharp">
            <rect id="Rectangle" x="0" y="0" width="24" height="24"></rect>
            <path d="M19.0462916,4.95370845 C16.5330636,2.41561524 12.8536293,1.41676078 9.40195879,2.33556555 C5.95028824,3.25437031 3.25437031,5.95028824 2.33556555,9.40195879 C1.41676078,12.8536293 2.41561524,16.5330636 4.95370845,19.0462916 C7.46693638,21.5843848 11.1463707,22.5832392 14.5980412,21.6644345 C18.0497118,20.7456297 20.7456297,18.0497118 21.6644345,14.5980412 C22.5832392,11.1463707 21.5843848,7.46693638 19.0462916,4.95370845 Z M19.8297109,12 C19.8313772,13.7077098 19.2717924,15.3686451 18.2370735,16.7271857 L7.27281432,5.76292647 C8.63135488,4.72820765 10.2922902,4.16862281 12,4.17028914 C16.3174607,4.17028914 19.8297109,7.68476368 19.8297109,12 Z M4.17028914,12 C4.16862281,10.2922902 4.72820765,8.63135488 5.76292647,7.27281432 L16.7271857,18.2370735 C15.3686451,19.2717924 13.7077098,19.8313772 12,19.8297109 C7.68476368,19.8297109 4.17028914,16.3174607 4.17028914,12 Z" id="Shape" fill="#000000" fill-rule="nonzero"></path>
        </g>
    </g>
</svg>