<?xml version="1.0" encoding="UTF-8"?>
<svg width="24px" height="24px" viewBox="0 0 24 24" version="1.1" xmlns="http://www.w3.org/2000/svg" xmlns:xlink="http://www.w3.org/1999/xlink">
    <title>VSQUARE/4) Icons/book/book</title>
    <g id="VSQUARE_Symbols" stroke="none" stroke-width="1" fill="none" fill-rule="evenodd">
        <g id="VSQUARE/4)-Icons/book/book">
            <rect id="Rectangle" x="0" y="0" width="24" height="24"></rect>
            <path d="M9.5352888,4.16997942 C7.87946891,3.39385231 5.56507908,3.0136625 2.46654648,3.00003438 L2.46654648,3.00003438 C2.17432316,2.99626695 1.88783377,3.07992281 1.64528182,3.23997667 C1.24099861,3.50825268 0.999114919,3.95637246 1,4.43543739 L1,17.3078993 C1,18.1780616 1.63061638,18.8345076 2.46654648,18.8345076 C5.72364916,18.8345076 8.99083432,19.1332603 10.947754,20.9491728 C11.0024757,21.0001849 11.0829265,21.0142109 11.1521929,20.9848153 C11.2214592,20.9554197 11.2661702,20.8882768 11.2658129,20.8141942 L11.2658129,5.64664563 C11.2659727,5.43959198 11.1746926,5.24263855 11.0155817,5.10673111 C10.5673289,4.7305163 10.069403,4.41542128 9.5352888,4.16997942 Z M22.3528838,3.23862688 C22.1102117,3.07897141 21.8237089,2.99578253 21.5316191,3 L21.5316191,3 C18.4330865,3.0136625 16.1186967,3.39205259 14.4628768,4.16997942 C13.9287901,4.41497652 13.4307328,4.72945182 12.9821256,5.10493139 C12.823383,5.24106675 12.7323548,5.43791498 12.7323548,5.64484591 L12.7323548,20.8132943 C12.7323548,20.8844989 12.775773,20.948783 12.8426274,20.9763925 C12.9094817,21.0040019 12.986682,20.9895494 13.0384959,20.9397243 C14.2149392,19.792406 16.2795583,18.8331578 21.5334523,18.8336078 C22.3434022,18.8336078 23,18.1889999 23,17.3938357 L23,4.43588732 C23.0010842,3.95584642 22.7584037,3.50684921 22.3528838,3.23862688 Z" id="Combined-Shape" fill="#000000" fill-rule="nonzero"></path>
        </g>
    </g>
</svg>