<?xml version="1.0" encoding="UTF-8"?>
<svg width="24px" height="24px" viewBox="0 0 24 24" version="1.1" xmlns="http://www.w3.org/2000/svg" xmlns:xlink="http://www.w3.org/1999/xlink">
    <title>VSQUARE/4) Icons/book/book_outline</title>
    <g id="VSQUARE_Symbols" stroke="none" stroke-width="1" fill="none" fill-rule="evenodd">
        <g id="VSQUARE/4)-Icons/book/book_outline">
            <rect id="Rectangle" x="0" y="0" width="24" height="24"></rect>
            <path d="M21.5300048,2.50000982 L21.6759651,2.50668488 C22.0128126,2.53892705 22.3297911,2.68675051 22.5711904,2.92730617 C22.8470753,3.20222692 23.0014158,3.57551842 22.9999902,3.96157555 L22.9999902,3.96157555 L22.9999902,17.1153939 C22.9999902,17.9225782 22.3433077,18.5769293 21.5332938,18.5769293 C20.9301921,18.5769293 20.3628618,18.5895325 19.8292463,18.6145842 L19.8292463,18.6145842 L19.6845492,18.621725 L19.5415146,18.6294824 C19.5178135,18.6308266 19.4941813,18.6321965 19.4706178,18.6335921 L19.4706178,18.6335921 L19.3300597,18.642273 C17.6765059,18.7486369 16.3672864,18.9841431 15.3332734,19.3435922 C14.0994279,19.7725082 13.261649,20.3674223 12.5726471,21.225721 C12.5659863,21.2340185 12.5591893,21.2421277 12.5522622,21.2500487 C12.5397644,21.2642843 12.5265563,21.2782087 12.5128222,21.2915997 C12.5001181,21.3042323 12.4868204,21.3163284 12.4731915,21.3278465 C12.4609771,21.3378175 12.4484577,21.3476887 12.4356172,21.3571522 C12.4230879,21.3667904 12.4101146,21.3757272 12.3969229,21.3841992 C12.3818946,21.3934632 12.3665061,21.4025793 12.3507682,21.4111374 C12.3374958,21.4186827 12.3238603,21.4255296 12.3100623,21.4319258 C12.2955758,21.4384 12.2809169,21.4446517 12.2660217,21.4504322 C12.2483271,21.4574429 12.2302687,21.4636125 12.2120355,21.4690621 C12.2006921,21.4723997 12.1890102,21.475601 12.1772155,21.4785178 C12.158959,21.4830298 12.1408944,21.4867533 12.1227348,21.4897963 C12.1074939,21.4923751 12.0918028,21.4945021 12.0759623,21.4961267 C12.0563137,21.4981281 12.0366061,21.4993606 12.0168835,21.4998084 C12.0114574,21.4999343 12.0057352,21.5 11.9999976,21.5 L11.9837848,21.4998233 C11.9636346,21.4993839 11.9434995,21.4981255 11.9234355,21.4960481 L11.9999976,21.5 C11.9584889,21.5 11.9177858,21.4965634 11.878159,21.4899601 C11.8613977,21.4871589 11.8446936,21.4837868 11.8281036,21.4798335 C11.8141261,21.4764649 11.8004386,21.4727582 11.7869164,21.4686729 C11.7684218,21.4632032 11.7497004,21.4567582 11.7312196,21.4495385 C11.7201063,21.4449934 11.7090726,21.4403431 11.6981807,21.4354353 C11.6812707,21.4280935 11.6648817,21.4199845 11.6487593,21.4112277 C11.6344722,21.4031152 11.6199821,21.3945756 11.6058232,21.3855647 C11.5926085,21.3775523 11.5796883,21.3687396 11.5670057,21.3594682 C11.5530342,21.3488761 11.5394878,21.3382328 11.5263389,21.3271363 C11.4909542,21.2975228 11.45762,21.2634661 11.4271421,21.2254644 L11.4909619,21.2952676 C11.4761541,21.2810351 11.4619457,21.2661875 11.4483781,21.2507661 L11.4271421,21.2254644 C10.7422857,20.371543 9.90399268,19.776485 8.6695107,19.3467404 C7.6918641,19.0064047 6.46928287,18.7765506 4.94510672,18.6619095 L4.94510672,18.6619095 L4.80780561,18.6519512 C4.78478722,18.6503429 4.76170126,18.6487602 4.73854756,18.6472033 L4.73854756,18.6472033 L4.59881081,18.6381704 L4.45743901,18.6297554 C4.43374029,18.6284044 4.40997306,18.6270792 4.38613714,18.6257798 L4.38613714,18.6257798 L4.24229581,18.618293 C4.09762715,18.611116 3.950472,18.6048685 3.80078967,18.5995541 L3.80078967,18.5995541 L3.65026344,18.5945509 C3.42320597,18.5875128 3.19043183,18.5825767 2.95180366,18.5797538 L2.95180366,18.5797538 L2.79184945,18.5781851 C2.68463313,18.5773482 2.57625443,18.5769293 2.46670129,18.5769293 C1.59717777,18.5769293 1.00000986,17.8780418 1.00000986,17.027245 L1.00000986,17.027245 L1.00000986,3.96431192 C0.998579307,3.57551842 1.15291983,3.20222692 1.42880473,2.92730617 C1.70468963,2.65238541 2.07929026,2.49858427 2.46999037,2.50000982 C5.56096293,2.51385743 7.872052,2.89993195 9.53584083,3.69207663 C10.6064725,4.2018139 11.4178668,4.88488056 11.9790885,5.74288692 L11.9790885,5.74288692 L11.9999924,5.77515307 L12.0209066,5.74288692 C12.57322,4.89849971 13.3678271,4.22354263 14.4133678,3.71648085 L14.4133678,3.71648085 L14.4641543,3.69207663 C16.1279431,2.89993195 18.4390322,2.51385743 21.5300048,2.50000982 L21.5300048,2.50000982 Z M2.466,3.961 L2.46669609,17.027245 C2.46669609,17.060549 2.47124201,17.0888409 2.4786506,17.11058 L2.4786506,17.11058 L2.48035437,17.1153887 L2.63090932,17.1156899 C6.85285412,17.1309919 9.48155329,17.7400353 11.2666182,19.0545227 L11.2674911,7.71273369 C10.9350012,6.49323525 10.186043,5.6214261 8.90356134,5.01082514 C7.46745999,4.3270845 5.35681676,3.97449507 2.46395533,3.9615247 L2.466,3.961 Z M21.5332938,3.9615247 L21.4500155,3.96205287 C18.601033,3.98157998 16.5181741,4.33392191 15.0964338,5.01082514 C13.7853426,5.63504732 13.0318441,6.53226171 12.710873,7.79486709 L12.733,7.713 L12.7332328,19.0536945 C14.4568509,17.7823801 16.9617161,17.1734473 20.9383804,17.1193607 L21.3689165,17.1156883 L21.5332938,17.1153939 L21.5332938,3.9615247 Z" id="Combined-Shape" fill="#000000" fill-rule="nonzero"></path>
        </g>
    </g>
</svg>