<?xml version="1.0" encoding="UTF-8"?>
<svg width="24px" height="24px" viewBox="0 0 24 24" version="1.1" xmlns="http://www.w3.org/2000/svg" xmlns:xlink="http://www.w3.org/1999/xlink">
    <title>VSQUARE/4) Icons/calendar/calendar_outline</title>
    <g id="VSQUARE_Symbols" stroke="none" stroke-width="1" fill="none" fill-rule="evenodd">
        <g id="VSQUARE/4)-Icons/calendar/calendar_outline">
            <rect id="Rectangle" x="0" y="0" width="24" height="24"></rect>
            <path d="M17.7142857,2 C18.1040785,2 18.4209466,2.31222772 18.4284359,2.70022899 L18.428,3.428 L19.1428571,3.42857143 C20.664458,3.42857143 21.9082485,4.61801901 21.9951498,6.11783544 L22,6.28571429 L22,19.1428571 C22,20.664458 20.8105524,21.9082485 19.310736,21.9951498 L19.1428571,22 L4.85714286,22 C3.33554202,22 2.09175154,20.8105524 2.00485018,19.310736 L2,19.1428571 L2,6.28571429 C2,4.76411344 3.18944759,3.52032297 4.68926401,3.43342161 L4.85714286,3.42857143 L5.571,3.428 L5.57142857,2.71428571 C5.57142857,2.31979661 5.89122518,2 6.28571429,2 C6.67550709,2 6.99237521,2.31222772 6.99986445,2.70022899 L7,2.71428571 L7,3.428 L17,3.428 L17,2.71428571 C17,2.31979661 17.3197966,2 17.7142857,2 Z M20.571,8.428 L3.428,8.428 L3.42857143,19.1428571 C3.42857143,19.8854249 3.99513151,20.4956654 4.71956189,20.564889 L4.85714286,20.5714286 L19.1428571,20.5714286 C19.8854249,20.5714286 20.4956654,20.0048685 20.564889,19.2804381 L20.5714286,19.1428571 L20.571,8.428 Z M6.64285714,17 C7.2345908,17 7.71428571,17.4796949 7.71428571,18.0714286 C7.71428571,18.6631622 7.2345908,19.1428571 6.64285714,19.1428571 C6.05112348,19.1428571 5.57142857,18.6631622 5.57142857,18.0714286 C5.57142857,17.4796949 6.05112348,17 6.64285714,17 Z M10.2142857,17 C10.8060194,17 11.2857143,17.4796949 11.2857143,18.0714286 C11.2857143,18.6631622 10.8060194,19.1428571 10.2142857,19.1428571 C9.62255205,19.1428571 9.14285714,18.6631622 9.14285714,18.0714286 C9.14285714,17.4796949 9.62255205,17 10.2142857,17 Z M13.7857143,17 C14.3774479,17 14.8571429,17.4796949 14.8571429,18.0714286 C14.8571429,18.6631622 14.3774479,19.1428571 13.7857143,19.1428571 C13.1939806,19.1428571 12.7142857,18.6631622 12.7142857,18.0714286 C12.7142857,17.4796949 13.1939806,17 13.7857143,17 Z M13.7857143,13.4285714 C14.3774479,13.4285714 14.8571429,13.9082663 14.8571429,14.5 C14.8571429,15.0917337 14.3774479,15.5714286 13.7857143,15.5714286 C13.1939806,15.5714286 12.7142857,15.0917337 12.7142857,14.5 C12.7142857,13.9082663 13.1939806,13.4285714 13.7857143,13.4285714 Z M17.3571429,13.4285714 C17.9488765,13.4285714 18.4285714,13.9082663 18.4285714,14.5 C18.4285714,15.0917337 17.9488765,15.5714286 17.3571429,15.5714286 C16.7654092,15.5714286 16.2857143,15.0917337 16.2857143,14.5 C16.2857143,13.9082663 16.7654092,13.4285714 17.3571429,13.4285714 Z M6.64285714,13.4285714 C7.2345908,13.4285714 7.71428571,13.9082663 7.71428571,14.5 C7.71428571,15.0917337 7.2345908,15.5714286 6.64285714,15.5714286 C6.05112348,15.5714286 5.57142857,15.0917337 5.57142857,14.5 C5.57142857,13.9082663 6.05112348,13.4285714 6.64285714,13.4285714 Z M10.2142857,13.4285714 C10.8060194,13.4285714 11.2857143,13.9082663 11.2857143,14.5 C11.2857143,15.0917337 10.8060194,15.5714286 10.2142857,15.5714286 C9.62255205,15.5714286 9.14285714,15.0917337 9.14285714,14.5 C9.14285714,13.9082663 9.62255205,13.4285714 10.2142857,13.4285714 Z M13.7857143,9.85714286 C14.3774479,9.85714286 14.8571429,10.3368378 14.8571429,10.9285714 C14.8571429,11.5203051 14.3774479,12 13.7857143,12 C13.1939806,12 12.7142857,11.5203051 12.7142857,10.9285714 C12.7142857,10.3368378 13.1939806,9.85714286 13.7857143,9.85714286 Z M17.3571429,9.85714286 C17.9488765,9.85714286 18.4285714,10.3368378 18.4285714,10.9285714 C18.4285714,11.5203051 17.9488765,12 17.3571429,12 C16.7654092,12 16.2857143,11.5203051 16.2857143,10.9285714 C16.2857143,10.3368378 16.7654092,9.85714286 17.3571429,9.85714286 Z M19.1428571,4.85714286 L4.85714286,4.85714286 C4.11457513,4.85714286 3.50433459,5.42370294 3.43511103,6.14813332 L3.42857143,6.28571429 L3.428,7 L20.571,7 L20.5714286,6.28571429 C20.5714286,5.54314655 20.0048685,4.93290602 19.2804381,4.86368246 L19.1428571,4.85714286 Z" id="Combined-Shape" fill="#000000" fill-rule="nonzero"></path>
        </g>
    </g>
</svg>