<?xml version="1.0" encoding="UTF-8"?>
<svg width="24px" height="24px" viewBox="0 0 24 24" version="1.1" xmlns="http://www.w3.org/2000/svg" xmlns:xlink="http://www.w3.org/1999/xlink">
    <title>VSQUARE/4) Icons/calendar/calendar</title>
    <g id="VSQUARE_Symbols" stroke="none" stroke-width="1" fill="none" fill-rule="evenodd">
        <g id="VSQUARE/4)-Icons/calendar/calendar">
            <rect id="Rectangle" x="0" y="0" width="24" height="24"></rect>
            <path d="M22,6.28566377 C22,4.70770227 20.7208136,3.42851173 19.1428571,3.42851173 L18.4285714,3.42851173 L18.4285714,2.73431307 C18.4285714,2.34993683 18.1330357,2.02002506 17.7486607,2.00082857 C17.5534927,1.99142518 17.3629927,2.06238483 17.2215363,2.19717792 C17.0800799,2.33197101 17.0000178,2.51882871 17,2.71422372 L17,3.42851173 L7,3.42851173 L7,2.73431307 C7,2.34993683 6.70446429,2.02002506 6.32008929,2.00082857 C6.1249213,1.99142518 5.93442124,2.06238483 5.79296487,2.19717792 C5.6515085,2.33197101 5.57144641,2.51882871 5.57142857,2.71422372 L5.57142857,3.42851173 L4.85714286,3.42851173 C3.27918643,3.42851173 2,4.70770227 2,6.28566377 L2,6.82137978 C2,6.92000237 2.07994915,6.99995178 2.17857143,6.99995178 L21.8214286,6.99995178 C21.9200508,6.99995178 22,6.92000237 22,6.82137978 L22,6.28566377 Z M2,19.142848 C2,20.7208095 3.27918643,22 4.85714286,22 L19.1428571,22 C20.7208136,22 22,20.7208095 22,19.142848 L22,8.5624568 C22,8.48848986 21.9400381,8.4285278 21.8660714,8.4285278 L2.13392857,8.4285278 C2.05996186,8.4285278 2,8.48848986 2,8.5624568 L2,19.142848 Z M17.3571429,9.85710382 C17.9488765,9.85710382 18.4285714,10.3368003 18.4285714,10.9285358 C18.4285714,11.5202714 17.9488765,11.9999679 17.3571429,11.9999679 C16.7654092,11.9999679 16.2857143,11.5202714 16.2857143,10.9285358 C16.2857143,10.3368003 16.7654092,9.85710382 17.3571429,9.85710382 Z M17.3571429,13.4285439 C17.9488765,13.4285439 18.4285714,13.9082403 18.4285714,14.4999759 C18.4285714,15.0917115 17.9488765,15.5714079 17.3571429,15.5714079 C16.7654092,15.5714079 16.2857143,15.0917115 16.2857143,14.4999759 C16.2857143,13.9082403 16.7654092,13.4285439 17.3571429,13.4285439 Z M13.7857143,9.85710382 C14.3774479,9.85710382 14.8571429,10.3368003 14.8571429,10.9285358 C14.8571429,11.5202714 14.3774479,11.9999679 13.7857143,11.9999679 C13.1939806,11.9999679 12.7142857,11.5202714 12.7142857,10.9285358 C12.7142857,10.3368003 13.1939806,9.85710382 13.7857143,9.85710382 Z M13.7857143,13.4285439 C14.3774479,13.4285439 14.8571429,13.9082403 14.8571429,14.4999759 C14.8571429,15.0917115 14.3774479,15.5714079 13.7857143,15.5714079 C13.1939806,15.5714079 12.7142857,15.0917115 12.7142857,14.4999759 C12.7142857,13.9082403 13.1939806,13.4285439 13.7857143,13.4285439 Z M13.7857143,16.9999839 C14.3774479,16.9999839 14.8571429,17.4796804 14.8571429,18.0714159 C14.8571429,18.6631515 14.3774479,19.142848 13.7857143,19.142848 C13.1939806,19.142848 12.7142857,18.6631515 12.7142857,18.0714159 C12.7142857,17.4796804 13.1939806,16.9999839 13.7857143,16.9999839 Z M10.2142857,13.4285439 C10.8060194,13.4285439 11.2857143,13.9082403 11.2857143,14.4999759 C11.2857143,15.0917115 10.8060194,15.5714079 10.2142857,15.5714079 C9.62255205,15.5714079 9.14285714,15.0917115 9.14285714,14.4999759 C9.14285714,13.9082403 9.62255205,13.4285439 10.2142857,13.4285439 Z M10.2142857,16.9999839 C10.8060194,16.9999839 11.2857143,17.4796804 11.2857143,18.0714159 C11.2857143,18.6631515 10.8060194,19.142848 10.2142857,19.142848 C9.62255205,19.142848 9.14285714,18.6631515 9.14285714,18.0714159 C9.14285714,17.4796804 9.62255205,16.9999839 10.2142857,16.9999839 Z M6.64285714,13.4285439 C7.2345908,13.4285439 7.71428571,13.9082403 7.71428571,14.4999759 C7.71428571,15.0917115 7.2345908,15.5714079 6.64285714,15.5714079 C6.05112348,15.5714079 5.57142857,15.0917115 5.57142857,14.4999759 C5.57142857,13.9082403 6.05112348,13.4285439 6.64285714,13.4285439 Z M6.64285714,16.9999839 C7.2345908,16.9999839 7.71428571,17.4796804 7.71428571,18.0714159 C7.71428571,18.6631515 7.2345908,19.142848 6.64285714,19.142848 C6.05112348,19.142848 5.57142857,18.6631515 5.57142857,18.0714159 C5.57142857,17.4796804 6.05112348,16.9999839 6.64285714,16.9999839 Z" id="Combined-Shape" fill="#000000" fill-rule="nonzero"></path>
        </g>
    </g>
</svg>