<?xml version="1.0" encoding="UTF-8"?>
<svg width="24px" height="24px" viewBox="0 0 24 24" version="1.1" xmlns="http://www.w3.org/2000/svg" xmlns:xlink="http://www.w3.org/1999/xlink">
    <title>VSQUARE/4) Icons/calendar_clear/calendar_clear_outline</title>
    <g id="VSQUARE_Symbols" stroke="none" stroke-width="1" fill="none" fill-rule="evenodd">
        <g id="VSQUARE/4)-Icons/calendar_clear/calendar_clear_outline">
            <rect id="Rectangle" x="0" y="0" width="24" height="24"></rect>
            <path d="M17.7142857,2 C18.1040785,2 18.4209466,2.31222772 18.4284359,2.70022899 L18.428,3.428 L19.1428571,3.42857143 C20.664458,3.42857143 21.9082485,4.61801901 21.9951498,6.11783544 L22,6.28571429 L22,19.1428571 C22,20.7208136 20.7208136,22 19.1428571,22 L19.1428571,22 L4.85714286,22 C3.27918643,22 2,20.7208136 2,19.1428571 L2,19.1428571 L2,6.28571429 C2,4.70775786 3.27918643,3.42857143 4.85714286,3.42857143 L4.85714286,3.42857143 L5.571,3.428 L5.57142857,2.71428571 C5.57142857,2.31979661 5.89122518,2 6.28571429,2 C6.67550709,2 6.99237521,2.31222772 6.99986445,2.70022899 L7,2.71428571 L7,3.428 L17,3.428 L17,2.71428571 C17,2.31979661 17.3197966,2 17.7142857,2 Z M20.571,8.428 L3.428,8.428 L3.42857143,19.1428571 C3.42857143,19.8854249 3.99513151,20.4956654 4.71956189,20.564889 L4.85714286,20.5714286 L19.1428571,20.5714286 C19.9318354,20.5714286 20.5714286,19.9318354 20.5714286,19.1428571 L20.5714286,19.1428571 L20.571,8.428 Z M19.1428571,4.85714286 L4.85714286,4.85714286 C4.06816464,4.85714286 3.42857143,5.49673607 3.42857143,6.28571429 L3.42857143,6.28571429 L3.428,7 L20.571,7 L20.5714286,6.28571429 C20.5714286,5.54314655 20.0048685,4.93290602 19.2804381,4.86368246 L19.1428571,4.85714286 Z" id="Combined-Shape" fill="#000000" fill-rule="nonzero"></path>
        </g>
    </g>
</svg>