<?xml version="1.0" encoding="UTF-8"?>
<svg width="24px" height="24px" viewBox="0 0 24 24" version="1.1" xmlns="http://www.w3.org/2000/svg" xmlns:xlink="http://www.w3.org/1999/xlink">
    <title>VSQUARE/4) Icons/calendar/calendar_sharp</title>
    <g id="VSQUARE_Symbols" stroke="none" stroke-width="1" fill="none" fill-rule="evenodd">
        <g id="VSQUARE/4)-Icons/calendar/calendar_sharp">
            <rect id="Rectangle" x="0" y="0" width="24" height="24"></rect>
            <path d="M2,20.9285714 C2,21.5203051 2.47969491,22 3.07142857,22 L20.9285714,22 C21.5203051,22 22,21.5203051 22,20.9285714 L22,8.42857143 L2,8.42857143 L2,20.9285714 Z M16.2857143,10.0357143 C16.2857143,9.93709201 16.3656634,9.85714286 16.4642857,9.85714286 L18.25,9.85714286 C18.3486223,9.85714286 18.4285714,9.93709201 18.4285714,10.0357143 L18.4285714,11.8214286 C18.4285714,11.9200508 18.3486223,12 18.25,12 L16.4642857,12 C16.3656634,12 16.2857143,11.9200508 16.2857143,11.8214286 L16.2857143,10.0357143 Z M16.2857143,13.6071429 C16.2857143,13.5085206 16.3656634,13.4285714 16.4642857,13.4285714 L18.25,13.4285714 C18.3486223,13.4285714 18.4285714,13.5085206 18.4285714,13.6071429 L18.4285714,15.3928571 C18.4285714,15.4914794 18.3486223,15.5714286 18.25,15.5714286 L16.4642857,15.5714286 C16.3656634,15.5714286 16.2857143,15.4914794 16.2857143,15.3928571 L16.2857143,13.6071429 Z M12.7142857,10.0357143 C12.7142857,9.93709201 12.7942349,9.85714286 12.8928571,9.85714286 L14.6785714,9.85714286 C14.7771937,9.85714286 14.8571429,9.93709201 14.8571429,10.0357143 L14.8571429,11.8214286 C14.8571429,11.9200508 14.7771937,12 14.6785714,12 L12.8928571,12 C12.7942349,12 12.7142857,11.9200508 12.7142857,11.8214286 L12.7142857,10.0357143 Z M12.7142857,13.6071429 C12.7142857,13.5085206 12.7942349,13.4285714 12.8928571,13.4285714 L14.6785714,13.4285714 C14.7771937,13.4285714 14.8571429,13.5085206 14.8571429,13.6071429 L14.8571429,15.3928571 C14.8571429,15.4914794 14.7771937,15.5714286 14.6785714,15.5714286 L12.8928571,15.5714286 C12.7942349,15.5714286 12.7142857,15.4914794 12.7142857,15.3928571 L12.7142857,13.6071429 Z M12.7142857,17.1785714 C12.7142857,17.0799492 12.7942349,17 12.8928571,17 L14.6785714,17 C14.7771937,17 14.8571429,17.0799492 14.8571429,17.1785714 L14.8571429,18.9642857 C14.8571429,19.062908 14.7771937,19.1428571 14.6785714,19.1428571 L12.8928571,19.1428571 C12.7942349,19.1428571 12.7142857,19.062908 12.7142857,18.9642857 L12.7142857,17.1785714 Z M9.14285714,13.6071429 C9.14285714,13.5085206 9.22280629,13.4285714 9.32142857,13.4285714 L11.1071429,13.4285714 C11.2057651,13.4285714 11.2857143,13.5085206 11.2857143,13.6071429 L11.2857143,15.3928571 C11.2857143,15.4914794 11.2057651,15.5714286 11.1071429,15.5714286 L9.32142857,15.5714286 C9.22280629,15.5714286 9.14285714,15.4914794 9.14285714,15.3928571 L9.14285714,13.6071429 Z M9.14285714,17.1785714 C9.14285714,17.0799492 9.22280629,17 9.32142857,17 L11.1071429,17 C11.2057651,17 11.2857143,17.0799492 11.2857143,17.1785714 L11.2857143,18.9642857 C11.2857143,19.062908 11.2057651,19.1428571 11.1071429,19.1428571 L9.32142857,19.1428571 C9.22280629,19.1428571 9.14285714,19.062908 9.14285714,18.9642857 L9.14285714,17.1785714 Z M5.57142857,13.6071429 C5.57142857,13.5085206 5.65137772,13.4285714 5.75,13.4285714 L7.53571429,13.4285714 C7.63433656,13.4285714 7.71428571,13.5085206 7.71428571,13.6071429 L7.71428571,15.3928571 C7.71428571,15.4914794 7.63433656,15.5714286 7.53571429,15.5714286 L5.75,15.5714286 C5.65137772,15.5714286 5.57142857,15.4914794 5.57142857,15.3928571 L5.57142857,13.6071429 Z M5.57142857,17.1785714 C5.57142857,17.0799492 5.65137772,17 5.75,17 L7.53571429,17 C7.63433656,17 7.71428571,17.0799492 7.71428571,17.1785714 L7.71428571,18.9642857 C7.71428571,19.062908 7.63433656,19.1428571 7.53571429,19.1428571 L5.75,19.1428571 C5.65137772,19.1428571 5.57142857,19.062908 5.57142857,18.9642857 L5.57142857,17.1785714 Z M20.9285714,3.42857143 L18.4321429,3.42857143 L18.4321429,2 L16.2892857,2 L16.2892857,3.42857143 L7.71071429,3.42857143 L7.71071429,2 L5.56785714,2 L5.56785714,3.42857143 L3.07142857,3.42857143 C2.78832423,3.4261921 2.51597784,3.5368985 2.31482423,3.73612438 C2.11367062,3.93535027 2.00034687,4.20661801 2,4.48973214 L2,7 L22,7 L22,4.48973214 C21.9996531,4.20661801 21.8863294,3.93535027 21.6851758,3.73612438 C21.4840222,3.5368985 21.2116758,3.4261921 20.9285714,3.42857143 Z" id="Combined-Shape" fill="#000000" fill-rule="nonzero"></path>
        </g>
    </g>
</svg>