<?xml version="1.0" encoding="UTF-8"?>
<svg width="24px" height="24px" viewBox="0 0 24 24" version="1.1" xmlns="http://www.w3.org/2000/svg" xmlns:xlink="http://www.w3.org/1999/xlink">
    <title>VSQUARE/4) Icons/calendar_clear/calendar_clear</title>
    <g id="VSQUARE_Symbols" stroke="none" stroke-width="1" fill="none" fill-rule="evenodd">
        <g id="VSQUARE/4)-Icons/calendar_clear/calendar_clear">
            <rect id="Rectangle" x="0" y="0" width="24" height="24"></rect>
            <path d="M22,6.28566377 C22,4.70770227 20.7208136,3.42851173 19.1428571,3.42851173 L18.4285714,3.42851173 L18.4285714,2.73431307 C18.4285714,2.34993683 18.1330357,2.02002506 17.7486607,2.00082857 C17.5534927,1.99142518 17.3629927,2.06238483 17.2215363,2.19717792 C17.0800799,2.33197101 17.0000178,2.51882871 17,2.71422372 L17,3.42851173 L7,3.42851173 L7,2.73431307 C7,2.34993683 6.70446429,2.02002506 6.32008929,2.00082857 C6.1249213,1.99142518 5.93442124,2.06238483 5.79296487,2.19717792 C5.6515085,2.33197101 5.57144641,2.51882871 5.57142857,2.71422372 L5.57142857,3.42851173 L4.85714286,3.42851173 C3.27918643,3.42851173 2,4.70770227 2,6.28566377 L2,6.82137978 C2,6.92000237 2.07994915,6.99995178 2.17857143,6.99995178 L21.8214286,6.99995178 C21.9200508,6.99995178 22,6.92000237 22,6.82137978 L22,6.28566377 Z M2,19.142848 C2,20.7208095 3.27918643,22 4.85714286,22 L19.1428571,22 C20.7208136,22 22,20.7208095 22,19.142848 L22,8.6070998 C22,8.50847721 21.9200508,8.4285278 21.8214286,8.4285278 L2.17857143,8.4285278 C2.07994915,8.4285278 2,8.50847721 2,8.6070998 L2,19.142848 Z" id="Combined-Shape" fill="#000000" fill-rule="nonzero"></path>
        </g>
    </g>
</svg>