<?xml version="1.0" encoding="UTF-8"?>
<svg width="24px" height="24px" viewBox="0 0 24 24" version="1.1" xmlns="http://www.w3.org/2000/svg" xmlns:xlink="http://www.w3.org/1999/xlink">
    <title>VSQUARE/4) Icons/call/call_sharp</title>
    <g id="VSQUARE_Symbols" stroke="none" stroke-width="1" fill="none" fill-rule="evenodd">
        <g id="VSQUARE/4)-Icons/call/call_sharp">
            <rect id="Rectangle" x="0" y="0" width="24" height="24"></rect>
            <path d="M21.9531705,17.0955316 C21.7201287,16.8473127 20.8973394,16.1133705 19.3847999,15.1423703 C17.8610994,14.1628879 16.7374094,13.5521622 16.4150796,13.4097489 C16.3571945,13.3840721 16.2898585,13.3924891 16.240075,13.4316243 C15.720865,13.8365425 14.8467351,14.5803063 14.7998589,14.6204856 C14.4971724,14.8798655 14.4971724,14.8798655 14.2493981,14.7990604 C13.8136724,14.6562006 12.4600657,13.9374372 11.2805706,12.7552724 C10.1010756,11.5731076 9.34525227,10.1860283 9.2023914,9.75075238 C9.12069284,9.50253349 9.12069284,9.50253349 9.38096748,9.1998493 C9.4211471,9.15297343 10.1653629,8.27885005 10.5702842,7.76009042 C10.6094198,7.71030731 10.6178368,7.64297179 10.5921598,7.58508717 C10.4497454,7.26231333 9.83901515,6.13907819 8.85952531,4.61538919 C7.88717851,3.10330754 7.15412368,2.28052441 6.90590291,2.04748437 C6.85950248,2.00369826 6.79287008,1.98879601 6.73223767,2.00864436 C5.86457003,2.3068129 5.02740443,2.68727191 4.23217245,3.14482617 C3.4644841,3.59109563 2.73768641,4.10425725 2.06024079,4.67833678 C2.01205153,4.71930471 1.99041457,4.7835282 2.00398932,4.84530417 C2.09729532,5.28013367 2.5432891,7.09534594 3.92725378,9.60967833 C5.33934419,12.1757974 6.31794115,13.490554 8.39165596,15.5571102 C10.4653708,17.6236664 11.8216562,18.6611857 14.3904732,20.0732654 C16.9048245,21.4572197 18.7209433,21.9036566 19.1548832,21.996069 C19.2167854,22.0095137 19.2810736,21.9879131 19.3222983,21.939818 C19.8962773,21.2623981 20.4092962,20.5356019 20.855374,19.7679026 C21.3128467,18.972633 21.6933048,18.135482 21.9915643,17.2678562 C22.0109981,17.2077041 21.9963023,17.1417443 21.9531705,17.0955316 L21.9531705,17.0955316 Z" id="Path" fill="#000000" fill-rule="nonzero"></path>
        </g>
    </g>
</svg>