<?xml version="1.0" encoding="UTF-8"?>
<svg width="24px" height="24px" viewBox="0 0 24 24" version="1.1" xmlns="http://www.w3.org/2000/svg" xmlns:xlink="http://www.w3.org/1999/xlink">
    <title>VSQUARE/4) Icons/call/call_outline</title>
    <g id="VSQUARE_Symbols" stroke="none" stroke-width="1" fill="none" fill-rule="evenodd">
        <g id="VSQUARE/4)-Icons/call/call_outline">
            <rect id="Rectangle" x="0" y="0" width="24" height="24"></rect>
            <path d="M5.80390423,2.00333459 C5.66835495,2.0139097 5.55443156,2.04577885 5.42410847,2.09846639 L5.39263602,2.11147013 L5.17798721,2.20570329 L5.15325415,2.21621159 C4.71071852,2.40238342 4.28616403,2.62868555 3.88490924,2.892283 C3.81031289,2.94183575 3.73863949,2.99083079 3.66972629,3.03947026 L3.61133001,3.08107886 L3.55426288,3.1225416 L3.49850213,3.16388675 C2.89223549,3.61814047 2.51894334,4.05618732 2.24221001,4.64745817 C2.01028891,5.1429828 1.93686805,5.80243903 2.05705063,6.5949641 C2.11876611,7.00193718 2.23053607,7.44052885 2.39536236,7.91142716 L2.42332519,7.99020947 C2.43755275,8.0297503 2.45214991,8.06951576 2.46711842,8.10950623 L2.49755106,8.18978731 C2.51817027,8.2435082 2.53945169,8.29762959 2.56139945,8.35215243 L2.59482137,8.43423788 C2.66266677,8.59901141 2.73652777,8.76740218 2.81651554,8.93943567 L2.85702051,9.02575609 C2.91170925,9.14125505 2.96912925,9.25837488 3.02931343,9.37712313 L3.07497036,9.46648977 C3.1365387,9.5860527 3.20087946,9.70724595 3.26802559,9.83007706 L3.29333695,9.87621552 C3.3225273,9.92923756 3.35155107,9.98175347 3.38042032,10.0337793 L3.46657657,10.1884026 C4.80947336,12.5883035 5.83767618,13.9410905 7.8032038,15.914075 L7.92994803,16.0408685 C9.93425743,18.0393328 11.526949,19.2134854 14.099724,20.6562214 C14.1284858,20.6723279 14.1571284,20.688279 14.1856523,20.7040751 L14.2708689,20.7509992 L14.3553779,20.796997 L14.4391832,20.8420719 C14.4530924,20.8495076 14.4669724,20.8569051 14.4808233,20.8642642 L14.5635807,20.907961 L14.6456446,20.9507433 L14.7270189,20.9926143 L14.8077076,21.0335776 L14.8877148,21.0736364 L14.9670444,21.1127941 L15.0457006,21.1510541 L15.1236873,21.1884197 C15.1495717,21.2007262 15.1753452,21.2128842 15.2010085,21.2248942 L15.2776682,21.2604811 C15.2903899,21.2663385 15.3030842,21.272159 15.3157513,21.2779428 L15.3914264,21.3122045 C15.4039845,21.3178414 15.4165154,21.3234417 15.4290194,21.3290054 L15.5037188,21.3619495 C15.5161148,21.3673672 15.528484,21.3727485 15.5408263,21.3780935 L15.6145592,21.4097275 L15.6876527,21.4404923 C15.6997819,21.4455476 15.7118846,21.4505667 15.7239609,21.4555498 L15.7961029,21.4850172 C15.8200451,21.494696 15.8438825,21.5042313 15.8676156,21.5136237 L15.938503,21.5413728 C15.9620283,21.55048 15.9854501,21.5594448 16.008769,21.5682679 L16.0784178,21.5943122 L16.1474533,21.6195092 L16.2158796,21.6438622 L16.2837006,21.6673745 C16.3062072,21.6750723 16.3286136,21.6826304 16.3509205,21.6900496 L16.4175431,21.7118908 C16.4507058,21.7226034 16.483646,21.7330046 16.5163661,21.7430962 L16.5815133,21.7628673 L16.6460774,21.7818162 L16.7100623,21.7999463 C16.9011525,21.8531117 17.0844787,21.8952686 17.2605289,21.9268252 L17.3189435,21.9369519 L17.3768232,21.9462969 C17.4248345,21.9537595 17.4722927,21.9604112 17.5192083,21.9662607 C18.2614859,22.0588086 18.8085586,21.9572261 19.3449934,21.7073779 C19.9393761,21.43054 20.3798552,21.0579694 20.8330725,20.45563 L20.8743138,20.4002351 C20.9155995,20.3441999 20.9570322,20.2862321 20.9987371,20.2262312 L21.0405373,20.1655488 C21.0614875,20.134865 21.0825161,20.1036646 21.1036388,20.0719348 C21.3581331,19.6862931 21.5768631,19.2813313 21.7587011,18.8596594 L21.7928381,18.7796995 L21.8849936,18.5710637 L21.8899293,18.5595499 C21.9492606,18.4184448 21.9849561,18.2987453 21.9965027,18.1543941 C22.0189341,17.8739661 21.9327179,17.6266742 21.759226,17.3787278 L21.7505314,17.3663981 L21.7326018,17.3415455 L21.7139116,17.3163855 L21.694413,17.2908581 L21.6740584,17.2649035 L21.6528,17.2384615 L21.6305902,17.2114724 C21.6268066,17.2069253 21.6229813,17.2023529 21.6191135,17.1977539 L21.5831249,17.1556128 L21.5577741,17.1266225 L21.517591,17.0816427 L21.4746762,17.0346899 L21.4444693,17.0021921 L21.3966439,16.9515016 L21.3456574,16.8982986 L21.2913487,16.8423809 L21.2335566,16.7835462 L21.2134906,16.7632515 C21.0910373,16.6398881 20.9378421,16.5045857 20.7623172,16.3623001 L20.7029935,16.3146198 L20.6420849,16.2664629 C20.6318052,16.2583994 20.6214624,16.2503176 20.6110579,16.2422186 L20.547902,16.1934235 C20.5266108,16.1770938 20.5050844,16.1607017 20.4833343,16.1442539 L20.4174241,16.0947506 L20.3502407,16.0449544 L20.2818533,15.994906 C20.2703589,15.9865459 20.2588172,15.9781769 20.2472297,15.9698 L20.1771661,15.9194499 L20.1060715,15.8689496 C20.0941404,15.8605227 20.0821691,15.8520911 20.0701593,15.8436559 L19.9976482,15.7930069 L19.9242793,15.7423096 L19.8501218,15.691605 L19.7752449,15.6409337 L19.6997179,15.5903367 L19.6236101,15.5398546 L19.5469906,15.4895282 L19.4699287,15.4393984 L19.3924936,15.3895059 L19.3147546,15.3398915 L19.2367809,15.2905961 L19.1586417,15.2416603 L19.0804064,15.193125 L19.002144,15.145031 L18.9239239,15.0974191 L18.8458153,15.0503301 L18.7678874,15.0038046 L18.6902094,14.9578837 L18.6128507,14.9126079 L18.5358804,14.8680182 L18.4593677,14.8241552 L18.383382,14.7810599 L18.3079924,14.7387729 C18.295481,14.7317947 18.2829973,14.7248519 18.2705428,14.7179453 L18.1961773,14.6769474 C18.1838452,14.6701892 18.1715452,14.6634688 18.1592786,14.6567873 L18.0860929,14.6171702 C18.0739661,14.6106472 18.0618757,14.6041646 18.0498231,14.5977234 L17.977973,14.559579 C17.9541819,14.547034 17.9305537,14.5346611 17.9070998,14.5224672 L17.8372728,14.486429 L17.7685613,14.451505 L17.6295936,14.3816682 L17.4614595,14.2979916 L17.3664546,14.251589 L17.29739,14.2186048 L17.2471227,14.1951796 L17.2000299,14.1738028 L17.1549522,14.153935 L17.1180902,14.1381418 C17.0996959,14.1303614 17.0812728,14.1227164 17.0624434,14.1150311 C16.8025796,14.0089663 16.581204,13.9540407 16.3472272,13.9537939 C16.0914596,13.9535241 15.8557954,14.0203912 15.6115646,14.1487898 L15.5808495,14.165209 L15.5500531,14.1822195 C15.5449067,14.1851079 15.5397518,14.188024 15.5345858,14.1909694 L15.5034354,14.2090045 C15.4982145,14.2120729 15.4929774,14.2151735 15.4877214,14.218308 L15.4559383,14.2375332 L15.4235786,14.2576437 C15.4181303,14.2610733 15.4126529,14.2645429 15.4071438,14.2680539 L15.3736869,14.2896302 L15.3393438,14.3122756 L15.3039907,14.3360635 L15.2487961,14.3740487 L15.2103759,14.4010149 L15.1705121,14.4293809 L15.129081,14.4592204 L15.0410211,14.5236139 L14.9712733,14.5754116 L14.6688348,14.8050598 L14.6326272,14.8322215 L14.598712,14.8573622 L14.5668682,14.8806322 L14.5368746,14.9021818 L14.4948695,14.9316095 L14.4685339,14.9495159 L14.4432743,14.966228 L14.4188698,14.9818963 C14.2293243,15.1016601 14.1228985,15.126995 13.956597,15.0915307 C13.9481465,15.0897286 13.9394592,15.0877478 13.9305414,15.0855902 L13.903102,15.0785892 C13.8702964,15.0698076 13.8347402,15.058886 13.7966944,15.0459116 L13.7634802,15.0342901 C13.7522096,15.03025 13.7407418,15.0260444 13.729083,15.0216752 L13.6935395,15.0080794 C13.6875221,15.0057324 13.6814585,15.003345 13.6753493,15.0009175 L13.6381548,14.985873 L13.5999052,14.9698781 L13.5606372,14.9529449 C13.5540096,14.9500452 13.5473412,14.9471069 13.5406326,14.9441303 L13.4999052,14.9258126 L13.4582506,14.9065872 L13.4157054,14.8864662 L13.3723059,14.8654619 C13.3650036,14.8618883 13.3576671,14.8582783 13.3502973,14.8546323 L13.3056851,14.832326 L13.2603101,14.8091668 C13.252686,14.8052366 13.2450317,14.8012713 13.2373479,14.7972713 L13.1908971,14.7728558 L13.1437747,14.7476181 C13.135867,14.743344 13.1279329,14.7390361 13.1199731,14.7346947 L13.0719118,14.7082466 L13.0232704,14.6810066 L12.9740852,14.6529872 C12.9658444,14.648253 12.9575825,14.6434868 12.9493001,14.638689 L12.8993679,14.6095231 L12.8489832,14.5796083 L12.7981826,14.5489567 L12.7470027,14.5175806 C12.7384431,14.5122915 12.7298693,14.5069728 12.7212819,14.5016246 C12.1097252,14.1207508 11.4860749,13.630525 10.9332704,13.0795432 C10.3794576,12.5275563 9.87701404,11.8941902 9.48311063,11.2718439 L9.45115197,11.2209758 L9.4198862,11.1704626 L9.38932598,11.1203404 L9.35948399,11.070645 L9.3303729,11.0214124 L9.30200538,10.9726785 L9.2743941,10.9244793 L9.24755174,10.8768508 C9.2431428,10.8689623 9.23876641,10.861099 9.23442286,10.8532617 L9.20875764,10.8065566 L9.18389301,10.7605119 L9.15984164,10.7151636 L9.13661622,10.6705477 L9.1142294,10.6267001 C9.11056886,10.6194582 9.10694378,10.6122499 9.10335444,10.6050757 L9.0720223,10.5414538 L9.05222735,10.5001269 L9.02420633,10.4398579 L9.0066584,10.4008787 L8.99003144,10.3629013 L8.97433814,10.325962 L8.95959116,10.2900964 L8.94580318,10.2553407 L8.93298686,10.2217306 L8.92115489,10.1893023 L8.91031992,10.1580916 L8.90049464,10.1281345 L8.89169172,10.0994669 C8.8834042,10.071456 8.87666923,10.0454333 8.87154382,10.0215606 C8.83807964,9.86569366 8.86008099,9.76496495 8.96888056,9.58926649 L8.97901141,9.57308375 C8.98381638,9.56548764 8.988752,9.55780122 8.99384294,9.54998832 L9.00960641,9.526134 L9.03532298,9.48845469 L9.05406424,9.46175332 L9.08494168,9.41878577 L9.11958206,9.3716683 L9.1584852,9.31966821 L9.31727867,9.11046029 L9.36498973,9.04691111 L9.40911674,8.98730689 L9.44640338,8.9362457 L9.48226923,8.88649203 L9.51673064,8.83798067 L9.54980397,8.79064641 C9.55520143,8.78285184 9.56054173,8.77510359 9.56582521,8.76740032 L9.59684707,8.72170943 C9.60696225,8.70665177 9.61685289,8.69176312 9.62652172,8.67703261 L9.65486552,8.63330464 C9.88556404,8.27267726 9.97933518,8.00409524 9.97876142,7.65773004 C9.97838563,7.43087574 9.92908101,7.21192152 9.83361174,6.95458684 L9.81306393,6.90023927 L9.78699087,6.83412878 L9.76828358,6.78840387 L9.74288295,6.72814157 L9.71469661,6.66313323 L9.66944374,6.56150692 L9.61598354,6.44405282 L9.55271339,6.30696439 L9.52219742,6.24125837 L9.50752354,6.20999327 L9.4770404,6.14628149 C9.44060841,6.07105569 9.40117162,5.99275104 9.35909113,5.91194563 L9.32238313,5.8420849 C9.30993693,5.81860284 9.29728334,5.79493011 9.28443079,5.77108021 L9.24528464,5.69901246 L9.20499521,5.62596255 C9.19818785,5.61371021 9.19133495,5.60142032 9.18443757,5.58909456 L9.14252798,5.51472309 C9.12838582,5.48979812 9.11407417,5.46474317 9.09960145,5.43957171 L9.05570851,5.36372131 C9.04831529,5.35102582 9.04088391,5.33830457 9.03341542,5.32555926 L8.98816761,5.24881202 L8.94207972,5.17156802 L8.89520229,5.09390815 L8.84758583,5.01591331 L8.79928089,4.9376644 C8.7911755,4.92460624 8.78304353,4.91154086 8.77488604,4.89846996 L8.72564312,4.81999163 L8.67583806,4.74146149 L8.62552137,4.66296043 L8.5747436,4.58456935 L8.52355527,4.50636914 C8.51499248,4.49335617 8.50641468,4.48035453 8.49782294,4.4673659 L8.44611353,4.38960369 L8.39411989,4.31223462 L8.34189256,4.23533957 L8.28948207,4.15899944 L8.23693896,4.08329514 C8.22817353,4.07073524 8.21940468,4.0582052 8.21063346,4.04570671 L8.15798615,3.97110783 C8.14920967,3.95874228 8.14043293,3.94641164 8.13165698,3.93411762 L8.07901918,3.86080619 L8.02645088,3.78845418 C8.01769809,3.77647996 8.00895031,3.76454908 8.00020858,3.75266324 L7.94783929,3.68190205 C7.93912599,3.67020308 7.93042085,3.65855251 7.92172492,3.64695203 L7.86966832,3.57796368 L7.81788336,3.51025835 C7.80927797,3.49908555 7.80068601,3.48796957 7.79210853,3.47691211 L7.74082576,3.41128299 C7.73231039,3.40046634 7.7238116,3.38971156 7.71533045,3.37902036 L7.66466358,3.31564949 L7.61447047,3.25388523 C7.60614724,3.24372957 7.59784585,3.23364422 7.58956736,3.22363087 L7.54017964,3.16442823 C7.42562208,3.02836761 7.31596528,2.9070794 7.214098,2.80518833 L7.17217863,2.76372188 L7.13277617,2.72505246 L7.07611027,2.66994328 L7.0398721,2.63506562 L6.98767587,2.58542494 L6.95423296,2.55404685 L6.90595281,2.50943639 L6.8749361,2.4812657 L6.84478652,2.45429614 L6.81544505,2.42848098 L6.78685263,2.40377346 L6.7589502,2.38012684 L6.73167873,2.35749437 L6.70497917,2.33582929 L6.67879246,2.31508485 L6.65305957,2.29521432 C6.64455101,2.28873126 6.63610824,2.28238606 6.62772143,2.27617093 L6.60271901,2.25790793 L6.57799325,2.24037859 C6.33038382,2.06752361 6.08363699,1.98151075 5.80390423,2.00333459 Z M5.84109047,3.47470691 L5.8717031,3.5009029 L5.90194661,3.52754867 L5.93471467,3.55710786 L5.97009905,3.58967417 L6.00819157,3.62534129 L6.03513642,3.65088831 L6.10812131,3.72114961 L6.17251701,3.78416411 L6.18947868,3.80089186 C6.26562499,3.8757963 6.34938524,3.96759069 6.43840603,4.07257634 L6.47985751,4.12195444 L6.52200462,4.17312505 L6.56479596,4.22600735 C6.57197868,4.23495922 6.5791861,4.24397905 6.58641715,4.25306514 L6.63007842,4.30836347 L6.67425536,4.36517149 L6.71889657,4.42340836 C6.72637261,4.43322909 6.73386584,4.44310599 6.74137521,4.45303737 L6.7866164,4.51326604 C6.79418601,4.52340863 6.8017696,4.53360234 6.80936611,4.54384548 L6.8550916,4.60588411 L6.90107569,4.66902837 L6.94726696,4.73319745 L6.99361398,4.79831054 C7.0013486,4.8092369 7.00908758,4.82019923 7.01682983,4.83119584 L7.06331408,4.89757344 L7.10982555,4.96469304 C7.11757687,4.97593698 7.12532719,4.98720847 7.13307542,4.99850583 L7.17953131,5.06658689 L7.22588586,5.13520793 L7.27208767,5.20428813 L7.31808532,5.27374668 L7.36382739,5.34350278 L7.40926246,5.41347561 L7.45433912,5.48358437 L7.49900595,5.55374825 L7.54321152,5.62388644 L7.58690444,5.69391813 C7.59414101,5.70557671 7.60135408,5.71722749 7.60854257,5.72886878 L7.65137008,5.79858921 L7.69355637,5.86800111 L7.73505004,5.93702369 L7.77579966,6.00557612 L7.81575382,6.07357761 C7.82234371,6.08486079 7.8288983,6.09611765 7.83541654,6.1073465 L7.8740811,6.17437005 L7.91182166,6.24064064 L7.94858679,6.30607744 L7.98432509,6.37059967 C7.99019305,6.38127266 7.99601608,6.39190419 8.00179311,6.40249255 L8.03589474,6.46549138 L8.06884098,6.5273736 L8.10058043,6.5880584 L8.13106166,6.64746497 C8.14100665,6.66704515 8.15073338,6.68639882 8.16023326,6.70551252 L8.1880438,6.76212021 C8.19708143,6.7807405 8.20588364,6.79910733 8.21444187,6.81720726 L8.2810322,6.9604721 L8.32737537,7.06124373 L8.37299389,7.16183021 L8.40072599,7.2241477 L8.43381827,7.300512 L8.45403885,7.34885971 L8.47197715,7.39335334 L8.48813171,7.43514978 L8.49992793,7.46697129 L8.5103738,7.49651213 C8.52506024,7.53919359 8.53537441,7.57462313 8.54196941,7.60391053 C8.54573674,7.62064067 8.54799248,7.63382916 8.54915924,7.6442281 L8.55006368,7.65541598 L8.55017459,7.66009594 C8.55018081,7.66385187 8.54988384,7.66781986 8.54904322,7.67244596 L8.54734452,7.67993444 C8.54698343,7.68128337 8.54658085,7.68268737 8.54613302,7.68415342 L8.542873,7.6937499 C8.54222915,7.69549198 8.54153254,7.69731004 8.54077941,7.69921105 L8.53555235,7.71166824 C8.53455811,7.71392892 8.53349985,7.71628649 8.53237379,7.71874792 L8.52477393,7.73481853 L8.51619575,7.75204157 L8.50732485,7.76895808 L8.49755751,7.78674888 L8.48685371,7.80547178 L8.46895468,7.83543029 L8.45573477,7.85673639 L8.4414384,7.87917694 L8.417888,7.91509134 L8.4007255,7.94062097 L8.37268839,7.98144 L8.34177926,8.02546198 L8.3078631,8.07288204 L8.25773061,8.14173194 L8.19836998,8.2215924 L8.01743688,8.46019754 L7.98200092,8.5074812 L7.94882819,8.55229825 L7.91767648,8.59502605 L7.88830363,8.63604199 L7.86046743,8.67572344 C7.85594267,8.68224678 7.85147184,8.68873023 7.8470499,8.69518167 L7.82106458,8.73356897 L7.79601045,8.77156522 L7.77164531,8.80954781 C7.46754985,9.29028838 7.35472639,9.76220762 7.47477639,10.3213675 C7.67455015,11.2518586 8.69742304,12.8679428 9.92471173,14.091185 C11.1464238,15.308869 12.7187219,16.2880869 13.6586101,16.4885209 C14.2219532,16.6086555 14.697774,16.4953851 15.1820261,16.1894117 C15.2022272,16.1766477 15.2223139,16.1636681 15.2425072,16.1503328 L15.2831013,16.1231461 L15.3243726,16.0947613 C15.3313294,16.0899168 15.3383308,16.085012 15.345385,16.0800417 L15.3884089,16.049392 L15.4330925,16.0169206 L15.4798286,15.9823782 L15.846248,15.7048125 L15.8995842,15.6653757 L15.9648854,15.6176966 L16.0097719,15.5854289 L16.0513854,15.5559947 L16.0774126,15.5378752 L16.1140355,15.5128447 L16.1479425,15.4902653 L16.1793428,15.4699934 L16.2084451,15.4518858 L16.2354586,15.4357989 L16.2524102,15.4261261 L16.2764065,15.4130885 L16.2921895,15.4049066 L16.3111179,15.3955072 L16.3209167,15.3909245 L16.3287344,15.3875028 L16.3372623,15.3841988 L16.3411589,15.3829829 L16.3438996,15.3823708 L16.3457202,15.3822032 L16.353063,15.3824517 L16.3611448,15.3832101 L16.3700498,15.3845197 L16.3833489,15.3871946 L16.3984599,15.3910207 L16.4067571,15.393396 L16.4249596,15.3991324 L16.445472,15.4062649 L16.4624921,15.4125892 L16.4875263,15.4224001 L16.5154183,15.4338762 L16.5546054,15.4507123 L16.5989581,15.4704944 L16.6595477,15.498391 L16.741242,15.5370878 L16.8504279,15.5900661 L16.9610074,15.6446703 L17.1060063,15.7172054 L17.1867775,15.7581727 L17.2490949,15.790364 L17.312484,15.8235995 L17.3768744,15.8578359 L17.4421951,15.8930303 L17.5083757,15.9291395 L17.5753455,15.9661202 L17.6430338,16.0039295 L17.7113698,16.0425242 L17.8149341,16.1017945 L17.9195585,16.1625893 L17.9897794,16.2038942 C18.0015093,16.210827 18.0132516,16.2177836 18.0250046,16.224763 L18.0956408,16.2669063 C18.1074311,16.2739735 18.1192294,16.2810617 18.131034,16.2881701 L18.2019264,16.3310549 L18.2729014,16.37438 L18.3438883,16.4181023 L18.4148165,16.4621787 L18.4856152,16.5065661 L18.5562138,16.5512213 L18.6265417,16.5961012 L18.6965282,16.6411627 L18.8007132,16.7090011 L18.8695371,16.7543279 L18.9377722,16.7996852 L19.005348,16.8450301 L19.0721937,16.8903194 L19.1382387,16.9355099 L19.2034124,16.9805585 L19.2676441,17.0254221 C19.2782669,17.0328815 19.2888476,17.0403315 19.2993846,17.047771 L19.3620707,17.0922762 L19.4236382,17.1364885 C19.4338023,17.1438305 19.4439169,17.1511584 19.4539804,17.1584714 L19.5137374,17.2021637 C19.5235909,17.2094135 19.5333905,17.2166467 19.5431346,17.2238622 L19.6009221,17.2669373 C19.6104386,17.2740789 19.6198966,17.2812011 19.6292948,17.288303 L19.6849539,17.3306638 C19.6941068,17.337681 19.7031969,17.3446761 19.7122227,17.3516482 L19.7655943,17.3931978 C19.8444595,17.4550869 19.9178799,17.5149688 19.9847823,17.5721884 L20.0284065,17.6099332 C20.0923591,17.6659372 20.1495552,17.7191334 20.1989216,17.7688667 L20.2469435,17.8175764 L20.3071811,17.8793871 L20.3484226,17.9222855 L20.398339,17.9750433 L20.4211854,17.9995796 L20.4627921,18.0451018 L20.4905302,18.0762425 L20.5154,18.1049117 L20.5243492,18.1154193 L20.4986736,18.1735777 L20.4738551,18.2307007 L20.4660554,18.2491231 C20.3144458,18.6085844 20.1289553,18.9553275 19.9128193,19.2828527 L19.8940762,19.3108955 L19.8570345,19.3656346 C19.8447826,19.3835852 19.8326238,19.4012423 19.8205511,19.4186128 L19.7845849,19.4698713 C19.4273708,19.9739956 19.141548,20.226355 18.7417695,20.4125546 C18.4375496,20.5542471 18.1571031,20.6063215 17.6959795,20.5488281 L17.6738782,20.5459959 L17.6292007,20.5398115 C17.591705,20.534368 17.553547,20.5281984 17.5147188,20.5212916 L17.4678026,20.5126487 C17.43631,20.5066499 17.4043864,20.5001763 17.3720277,20.4932223 L17.3231629,20.4824301 C17.3067655,20.4787121 17.2902588,20.4748732 17.2736423,20.4709128 L17.2234629,20.4586662 C17.2150446,20.456564 17.2065987,20.4544313 17.1981252,20.452268 L17.1469518,20.4389191 C17.1383675,20.4366327 17.1297554,20.4343155 17.1211154,20.4319674 L17.0689413,20.4175067 C17.0601897,20.4150344 17.0514103,20.4125311 17.0426027,20.4099966 L16.9894208,20.3944142 L16.9355632,20.3780788 L16.8810269,20.3609858 L16.8258088,20.3431311 L16.7699059,20.3245104 C16.7605314,20.3213428 16.7511284,20.3181432 16.7416966,20.3149114 L16.6847605,20.2951334 C16.6752136,20.2917724 16.6656378,20.2883791 16.656033,20.2849533 L16.598057,20.2640084 L16.5393839,20.2422801 C16.5295468,20.2385932 16.5196805,20.2348735 16.5097849,20.2311209 L16.4500603,20.2082095 C16.4400476,20.2043249 16.4300054,20.2004072 16.4199339,20.1964563 L16.3591509,20.1723521 L16.2976585,20.1474473 L16.2354536,20.1217375 L16.1725332,20.0952185 L16.1088941,20.0678859 C16.0982276,20.0632625 16.0875309,20.0586049 16.0768042,20.0539132 L16.0120814,20.0253522 L15.9466324,19.9959669 L15.880454,19.9657528 L15.8135431,19.9347058 L15.7458968,19.9028215 L15.6775119,19.8700955 L15.6083854,19.8365236 L15.5385142,19.8021015 C15.5268067,19.7962934 15.5150681,19.7904496 15.5032983,19.7845702 L15.4323043,19.7488646 L15.3605579,19.7122979 L15.288056,19.6748659 L15.2147956,19.6365642 C15.2025222,19.6301078 15.190217,19.6236151 15.17788,19.6170858 L15.1034762,19.5774715 L15.0283061,19.5369767 C15.0157137,19.530154 15.0030893,19.5232944 14.9904328,19.5163978 L14.9141077,19.4745742 C14.9013224,19.4675295 14.8885049,19.4604476 14.8756551,19.4533285 L14.7981681,19.4101664 C14.7242623,19.3687222 14.6512342,19.3275338 14.5790461,19.2865719 L14.4357789,19.2049414 C12.5164919,18.1067697 11.1913078,17.1593873 9.7190814,15.7839564 L9.60974749,15.681281 C9.39049718,15.4743296 9.16761795,15.2576697 8.93869995,15.0294193 L8.81768255,14.9083684 C8.61810058,14.7080737 8.42898639,14.5149291 8.24883009,14.3269238 L8.14179917,14.2147213 C6.87003767,12.8753056 6.04699832,11.7814694 5.10911337,10.1827576 L5.03067837,10.0483469 C4.96507419,9.9353372 4.89884068,9.81979221 4.83178908,9.70146059 L4.75092241,9.55810897 C4.68318615,9.43750782 4.61455632,9.31401952 4.54484418,9.18739272 L4.49893051,9.10341058 L4.45404792,9.02013955 C4.41707418,8.95104328 4.38116994,8.88268754 4.34632386,8.81507183 L4.30501576,8.73428816 C4.27781467,8.68066914 4.2512879,8.62752361 4.22542963,8.5748513 L4.18714289,8.49619771 C4.17454729,8.47009814 4.16211809,8.44411683 4.14985456,8.41825377 L4.11356027,8.34101926 C4.09566092,8.30257933 4.0781327,8.26440537 4.06097316,8.22649726 L4.02714494,8.15103549 C4.02158859,8.13851759 4.01607302,8.12602923 4.01059815,8.11357039 L3.97823649,8.03917166 C3.96229909,8.00214943 3.94672629,7.96539286 3.93151563,7.92890185 L3.90157646,7.85627388 C3.89666684,7.84422822 3.89179727,7.83221206 3.88696767,7.82022539 L3.85846892,7.74865929 C3.79308752,7.58249738 3.73550394,7.42211471 3.6854691,7.26749999 L3.66448704,7.20158965 C3.57214099,6.90658194 3.50773929,6.63302148 3.46949527,6.38082732 C3.38946224,5.85306205 3.43136022,5.47673999 3.53612466,5.25289938 C3.7125305,4.87598914 3.9507136,4.59990478 4.41267385,4.26398015 L4.46126774,4.22900928 C4.47773621,4.21727678 4.49447742,4.20546654 4.51149799,4.19357196 L4.56340445,4.15762867 C4.5809904,4.14555885 4.59886237,4.13339811 4.61702699,4.12113987 L4.67240544,4.08406605 C4.98144811,3.88105643 5.31045446,3.70377078 5.65307494,3.5559276 L5.74076783,3.51860426 L5.84109047,3.47470691 Z" id="Path" fill="#000000" fill-rule="nonzero"></path>
        </g>
    </g>
</svg>