<?xml version="1.0" encoding="UTF-8"?>
<svg width="24px" height="24px" viewBox="0 0 24 24" version="1.1" xmlns="http://www.w3.org/2000/svg" xmlns:xlink="http://www.w3.org/1999/xlink">
    <title>VSQUARE/4) Icons/call/call</title>
    <g id="VSQUARE_Symbols" stroke="none" stroke-width="1" fill="none" fill-rule="evenodd">
        <g id="VSQUARE/4)-Icons/call/call">
            <rect id="Rectangle" x="0" y="0" width="24" height="24"></rect>
            <path d="M18.0256777,22 C17.154071,22 15.9297136,21.6846448 14.0963031,20.6605253 C11.8668294,19.4105102 10.1423698,18.2564784 7.92495222,16.045291 C5.78701518,13.9091045 4.74662393,12.5260521 3.2905227,9.876913 C1.64554358,6.88580547 1.92595804,5.31792941 2.23941498,4.64783204 C2.61270557,3.84692952 3.16371107,3.36790588 3.87591023,2.89245371 C4.28043494,2.62746637 4.70852249,2.40031277 5.15474307,2.21387409 C5.19939506,2.19467743 5.2409214,2.17637364 5.27798255,2.15985559 C5.49900988,2.06030081 5.83389976,1.90985257 6.25809362,2.07056879 C6.5411872,2.17682008 6.79391744,2.39423341 7.18953403,2.78486313 C8.00086059,3.58487278 9.10956938,5.36659071 9.51858156,6.24160127 C9.79319127,6.83134053 9.97492484,7.22063094 9.97537136,7.65724336 C9.97537136,8.16841024 9.71817593,8.56261142 9.40605856,8.98806299 C9.34756446,9.06797467 9.28951688,9.14431487 9.23325538,9.21842291 C8.89345377,9.66485687 8.81888496,9.79387628 8.86800214,10.0242362 C8.96757606,10.4871882 9.71013857,11.8653299 10.9304773,13.0827553 C12.1508161,14.3001807 13.4894826,14.9957248 13.9543097,15.0948331 C14.1945374,15.146173 14.3262608,15.0684935 14.7870693,14.7167035 C14.8531542,14.6662565 14.9210252,14.6140237 14.9920219,14.561791 C15.468012,14.2077688 15.8439817,13.9573194 16.3431909,13.9573194 L16.3458701,13.9573194 C16.7803339,13.9573194 17.1522849,14.1457145 17.7684823,14.4564325 C18.572218,14.8617946 20.4078611,15.9560042 21.2129364,16.7680676 C21.6045343,17.1627152 21.8228825,17.414504 21.9296008,17.6970967 C22.0903479,18.1225482 21.9389777,18.4560344 21.8402968,18.6792514 C21.8237756,18.7163054 21.8054682,18.7569309 21.7862679,18.8020207 C21.5983177,19.2473609 21.3697779,19.6744643 21.103539,20.077929 C20.6288884,20.787759 20.1479866,21.3373192 19.3451439,21.7109844 C18.9328822,21.9059466 18.4817048,22.0047133 18.0256777,22 L18.0256777,22 Z" id="Path" fill="#000000" fill-rule="nonzero"></path>
        </g>
    </g>
</svg>