<?xml version="1.0" encoding="UTF-8"?>
<svg width="24px" height="24px" viewBox="0 0 24 24" version="1.1" xmlns="http://www.w3.org/2000/svg" xmlns:xlink="http://www.w3.org/1999/xlink">
    <title>VSQUARE/4) Icons/caret/circle/back/caret_back_circle_outline</title>
    <g id="VSQUARE_Symbols" stroke="none" stroke-width="1" fill="none" fill-rule="evenodd">
        <g id="VSQUARE/4)-Icons/caret/circle/back/caret_back_circle_outline">
            <rect id="Rectangle" x="0" y="0" width="24" height="24"></rect>
            <path d="M12,3 C16.9688894,3 21,7.03111056 21,12 C21,16.9688894 16.9688894,21 12,21 C7.03111056,21 3,16.9688894 3,12 C3,7.03111056 7.03111056,3 12,3 Z M12,4.38461538 C7.79581252,4.38461538 4.38461538,7.79581252 4.38461538,12 C4.38461538,16.2041875 7.79581252,19.6153846 12,19.6153846 C16.2041875,19.6153846 19.6153846,16.2041875 19.6153846,12 C19.6153846,7.79581252 16.2041875,4.38461538 12,4.38461538 Z M12.7688942,8.26024038 C12.9752652,8.08863235 13.2622297,8.05176971 13.5052734,8.1656472 C13.7483171,8.2795247 13.9036395,8.52361977 13.9038462,8.79201923 L13.9038462,8.79201923 L13.9038462,15.2079808 C13.9036395,15.4763802 13.7483171,15.7204753 13.5052734,15.8343528 C13.2622297,15.9482303 12.9752652,15.9113676 12.7688942,15.7397596 L12.7688942,15.7397596 L8.91403846,12.5322115 C8.75593495,12.4006798 8.66449574,12.2056631 8.66449574,12 C8.66449574,11.7943369 8.75593495,11.5993202 8.91403846,11.4677885 L8.91403846,11.4677885 Z" id="Combined-Shape" fill="#000000" fill-rule="nonzero"></path>
        </g>
    </g>
</svg>