<?xml version="1.0" encoding="UTF-8"?>
<svg width="24px" height="24px" viewBox="0 0 24 24" version="1.1" xmlns="http://www.w3.org/2000/svg" xmlns:xlink="http://www.w3.org/1999/xlink">
    <title>VSQUARE/4) Icons/caret/circle/down/caret_down_circle</title>
    <g id="VSQUARE_Symbols" stroke="none" stroke-width="1" fill="none" fill-rule="evenodd">
        <g id="VSQUARE/4)-Icons/caret/circle/down/caret_down_circle">
            <rect id="Rectangle" x="0" y="0" width="24" height="24"></rect>
            <path d="M21,12 C21,7.02966346 16.9703365,3 12,3 C7.02966346,3 3,7.02966346 3,12 C3,16.9703365 7.02966346,21 12,21 C16.9703365,21 21,16.9703365 21,12 Z M15.7397596,11.2311058 L12.5322115,15.0859615 C12.4006798,15.2440651 12.2056631,15.3355043 12,15.3355043 C11.7943369,15.3355043 11.5993202,15.2440651 11.4677885,15.0859615 L8.26024038,11.2311058 C8.08863235,11.0247348 8.05176971,10.7377703 8.1656472,10.4947266 C8.2795247,10.2516829 8.52361977,10.0963605 8.79201923,10.0961538 L15.2079808,10.0961538 C15.4763802,10.0963605 15.7204753,10.2516829 15.8343528,10.4947266 C15.9482303,10.7377703 15.9113676,11.0247348 15.7397596,11.2311058 Z" id="Shape" fill="#000000" fill-rule="nonzero"></path>
        </g>
    </g>
</svg>