<?xml version="1.0" encoding="UTF-8"?>
<svg width="24px" height="24px" viewBox="0 0 24 24" version="1.1" xmlns="http://www.w3.org/2000/svg" xmlns:xlink="http://www.w3.org/1999/xlink">
    <title>VSQUARE/4) Icons/cart/cart_sharp</title>
    <g id="VSQUARE_Symbols" stroke="none" stroke-width="1" fill="none" fill-rule="evenodd">
        <g id="VSQUARE/4)-Icons/cart/cart_sharp">
            <rect id="Rectangle" x="0" y="0" width="24" height="24"></rect>
            <path d="M8.95150625,20 C9.68193428,20 10.2740632,19.4030463 10.2740632,18.6666667 C10.2740632,17.930287 9.68193428,17.3333333 8.95150625,17.3333333 C8.22107821,17.3333333 7.6289493,17.930287 7.6289493,18.6666667 C7.6289493,19.4030463 8.22107821,20 8.95150625,20 Z M18.2094048,20 C18.9398329,20 19.5319618,19.4030463 19.5319618,18.6666667 C19.5319618,17.930287 18.9398329,17.3333333 18.2094048,17.3333333 C17.4789768,17.3333333 16.8868479,17.930287 16.8868479,18.6666667 C16.8868479,19.4030463 17.4789768,20 18.2094048,20 Z M8.61177443,14 L19.4129317,14 L21,6 L7.21110397,6 L6.86103968,4 L3,4 L3,5.33333333 L5.75174504,5.33333333 L7.73558046,16.6666667 L19.5319618,16.6666667 L19.5319618,15.3333333 L8.84487509,15.3333333 L8.61177443,14 L8.61177443,14 Z" id="Combined-Shape" fill="#000000" fill-rule="nonzero"></path>
        </g>
    </g>
</svg>