<?xml version="1.0" encoding="UTF-8"?>
<svg width="24px" height="24px" viewBox="0 0 24 24" version="1.1" xmlns="http://www.w3.org/2000/svg" xmlns:xlink="http://www.w3.org/1999/xlink">
    <title>VSQUARE/4) Icons/cart/cart</title>
    <g id="VSQUARE_Symbols" stroke="none" stroke-width="1" fill="none" fill-rule="evenodd">
        <g id="VSQUARE/4)-Icons/cart/cart">
            <rect id="Rectangle" x="0" y="0" width="24" height="24"></rect>
            <path d="M9.02423172,20 C9.76358534,20 10.3629499,19.4030463 10.3629499,18.6666667 C10.3629499,17.930287 9.76358534,17.3333333 9.02423172,17.3333333 C8.28487809,17.3333333 7.68551356,17.930287 7.68551356,18.6666667 C7.68551356,19.4030463 8.28487809,20 9.02423172,20 Z M18.3952588,20 C19.1346125,20 19.733977,19.4030463 19.733977,18.6666667 C19.733977,17.930287 19.1346125,17.3333333 18.3952588,17.3333333 C17.6559052,17.3333333 17.0565407,17.930287 17.0565407,18.6666667 C17.0565407,19.4030463 17.6559052,20 18.3952588,20 Z M20.7714836,6.36583335 C20.5810456,6.13383101 20.2959042,5.99948451 19.995027,6 L7.26256229,6 L7.00611409,4.55083335 C6.9496692,4.23219872 6.67165809,4 6.3467954,4 L3.66935908,4 C3.29968227,4 3,4.29847685 3,4.66666668 C3,5.03485651 3.29968227,5.33333335 3.66935908,5.33333335 L5.78537047,5.33333335 L7.69555394,16.1158333 C7.75199883,16.434468 8.03000994,16.6666667 8.35487264,16.6666667 L19.0646179,16.6666667 C19.4342947,16.6666667 19.733977,16.3681898 19.733977,16 C19.733977,15.6318102 19.4342947,15.3333333 19.0646179,15.3333333 L8.91629756,15.3333333 L8.68034849,14 L18.7901807,14 C19.2687475,13.9993939 19.6807749,13.6633991 19.7758119,13.19625 L20.9806583,7.19625001 C21.0394465,6.90220975 20.9626707,6.59741251 20.7714836,6.36583335 L20.7714836,6.36583335 Z" id="Combined-Shape" fill="#000000" fill-rule="nonzero"></path>
        </g>
    </g>
</svg>