<?xml version="1.0" encoding="UTF-8"?>
<svg width="24px" height="24px" viewBox="0 0 24 24" version="1.1" xmlns="http://www.w3.org/2000/svg" xmlns:xlink="http://www.w3.org/1999/xlink">
    <title>VSQUARE/4) Icons/cart/cart_outline</title>
    <g id="VSQUARE_Symbols" stroke="none" stroke-width="1" fill="none" fill-rule="evenodd">
        <g id="VSQUARE/4)-Icons/cart/cart_outline">
            <rect id="Rectangle" x="0" y="0" width="24" height="24"></rect>
            <path d="M9.02446072,17.3333333 C8.28507899,17.3333333 7.68569167,17.930287 7.68569167,18.6666667 C7.68569167,19.4030463 8.28507899,20 9.02446072,20 C9.76384245,20 10.3632298,19.4030463 10.3632298,18.6666667 C10.3632298,17.930287 9.76384245,17.3333333 9.02446072,17.3333333 Z M18.3958441,17.3333333 C17.6564623,17.3333333 17.057075,17.930287 17.057075,18.6666667 C17.057075,19.4030463 17.6564623,20 18.3958441,20 C19.1352258,20 19.7346131,19.4030463 19.7346131,18.6666667 C19.7346131,17.930287 19.1352258,17.3333333 18.3958441,17.3333333 Z M6.34692262,4 C6.66688754,4 6.94136668,4.22535741 7.00344655,4.53660356 L7.0061215,4.55080978 L7.263,5.999 L19.9952076,5.99999984 C20.2961683,5.99979166 20.581352,6.13404724 20.7722229,6.36579474 C20.9591174,6.59271429 21.036287,6.88967176 20.9839895,7.17778342 L20.9804754,7.19616076 L19.7755654,13.1962498 C19.6826381,13.658672 19.2782765,13.9928388 18.8067018,13.9998865 L8.68,13.999 L8.91664798,15.3333333 L19.0652286,15.3333333 C19.4305184,15.3333333 19.7274676,15.6247459 19.7346131,15.9868804 L19.7346131,16 C19.7346131,16.3638066 19.4420126,16.6595502 19.0784017,16.6666667 L8.3550762,16.6666667 C8.03511129,16.6666667 7.76063214,16.4413093 7.69855228,16.1300631 L7.69587732,16.1158569 L5.78530901,5.33333333 L3.66938452,5.33333333 C3.30409474,5.33333333 3.00714548,5.04192079 3,4.67978628 L3,4.66666667 C3,4.30286005 3.29260057,4.00711647 3.65621143,4 L6.34692262,4 Z M8.444,12.666 L18.5165843,12.6666667 L19.5876414,7.33329167 L7.499,7.333 L8.444,12.666 Z" id="Combined-Shape" fill="#000000" fill-rule="nonzero"></path>
        </g>
    </g>
</svg>