<?xml version="1.0" encoding="UTF-8"?>
<svg width="24px" height="24px" viewBox="0 0 24 24" version="1.1" xmlns="http://www.w3.org/2000/svg" xmlns:xlink="http://www.w3.org/1999/xlink">
    <title>VSQUARE/4) Icons/chatbox_ellipses/chatbox_ellipses_outline</title>
    <g id="VSQUARE_Symbols" stroke="none" stroke-width="1" fill="none" fill-rule="evenodd">
        <g id="VSQUARE/4)-Icons/chatbox_ellipses/chatbox_ellipses_outline">
            <rect id="Rectangle" x="0" y="0" width="24" height="24"></rect>
            <path d="M18.4483591,3 C20.1317446,3.00488577 21.4952081,4.3958477 21.5,6.11515327 L21.5,6.11515327 L21.5,14.4242056 C21.4952081,16.1415417 20.1317446,17.5325036 18.4464286,17.5373922 L18.4464286,17.5373922 L11.5651205,17.5373489 L7.68454211,20.8381147 C7.24702099,21.2102594 6.58482911,20.8997651 6.57162902,20.3239496 L6.57162902,20.3239496 L6.57142857,17.5373922 L5.55164092,17.5373894 C3.88508928,17.5325525 2.53209319,16.1692223 2.50055032,14.4737157 L2.50055032,14.4737157 L2.5,6.11318383 C2.50479192,4.3958477 3.86825543,3.00488577 5.55164092,3 L5.55164092,3 Z M18.4464286,4.38450821 L5.55550193,4.38450821 C4.61862885,4.38722733 3.85980548,5.16135471 3.85714011,6.11515327 L3.85714011,6.11515327 L3.85714011,14.4202667 C3.85980548,15.3760347 4.61862885,16.1501621 5.55357143,16.1528784 L5.55357143,16.1528784 L7.25,16.1528784 C7.62476465,16.1528784 7.92857143,16.4628124 7.92857143,16.8451353 L7.92857143,16.8451353 L7.92857143,18.8278889 L10.7897346,16.394303 C10.9674577,16.2428672 11.1903098,16.1579169 11.4212804,16.1530956 L11.4212804,16.1530956 L11.4422991,16.1528784 L18.4444981,16.1528812 C19.3813711,16.1501621 20.1401945,15.3760347 20.1428599,14.4222361 L20.1428599,14.4222361 L20.1428599,6.11712271 C20.1401945,5.16135471 19.3813711,4.38722733 18.4464286,4.38450821 L18.4464286,4.38450821 Z M7.92857143,8.88418089 C8.67810073,8.88418089 9.28571429,9.50404883 9.28571429,10.2686947 C9.28571429,11.0333406 8.67810073,11.6532085 7.92857143,11.6532085 C7.17904213,11.6532085 6.57142857,11.0333406 6.57142857,10.2686947 C6.57142857,9.50404883 7.17904213,8.88418089 7.92857143,8.88418089 Z M12,8.88418089 C12.7495293,8.88418089 13.3571429,9.50404883 13.3571429,10.2686947 C13.3571429,11.0333406 12.7495293,11.6532085 12,11.6532085 C11.2504707,11.6532085 10.6428571,11.0333406 10.6428571,10.2686947 C10.6428571,9.50404883 11.2504707,8.88418089 12,8.88418089 Z M16.0714286,8.88418089 C16.8209579,8.88418089 17.4285714,9.50404883 17.4285714,10.2686947 C17.4285714,11.0333406 16.8209579,11.6532085 16.0714286,11.6532085 C15.3218993,11.6532085 14.7142857,11.0333406 14.7142857,10.2686947 C14.7142857,9.50404883 15.3218993,8.88418089 16.0714286,8.88418089 Z" id="Combined-Shape" fill="#000000" fill-rule="nonzero"></path>
        </g>
    </g>
</svg>