<?xml version="1.0" encoding="UTF-8"?>
<svg width="24px" height="24px" viewBox="0 0 24 24" version="1.1" xmlns="http://www.w3.org/2000/svg" xmlns:xlink="http://www.w3.org/1999/xlink">
    <title>VSQUARE/4) Icons/chatbubble/chatbubble_outline</title>
    <g id="VSQUARE_Symbols" stroke="none" stroke-width="1" fill="none" fill-rule="evenodd">
        <g id="VSQUARE/4)-Icons/chatbubble/chatbubble_outline">
            <rect id="Rectangle" x="0" y="0" width="24" height="24"></rect>
            <path d="M11.9924743,2 C6.4630282,2 1.9832704,6.38327986 2.00004697,11.7941302 C2.00004697,13.6586909 2.54233057,15.4847809 3.56031334,17.0484947 L3.60256223,17.1128688 L3.61477558,17.1292664 L3.63405156,17.1558466 C3.64667434,17.1737276 3.65883943,17.1919274 3.67053497,17.2104282 L3.68494484,17.233843 L3.69024043,17.2432895 C3.7237411,17.303568 3.75007366,17.3604965 3.7656761,17.40601 L3.76914067,17.4166545 L2.9162126,20.5023454 C2.8879135,20.5985514 2.86987159,20.6974814 2.86238806,20.7974837 L2.86078566,20.8188966 L2.86047241,20.8403671 C2.85601736,21.1457291 2.97396393,21.4401717 3.18800069,21.6580109 C3.40203744,21.8758501 3.6943574,21.9989625 3.99975003,22 L4.03804926,22 L4.07614126,21.9960195 L4.10483752,21.9927273 C4.21864946,21.9785028 4.33029714,21.9506281 4.43737484,21.9097315 L4.46958212,21.8969418 L7.49916203,20.8035898 L7.51697439,20.7960483 C7.59875065,20.7614254 7.68669962,20.7437483 7.77550267,20.744086 C7.85980253,20.7441828 7.94146962,20.7593852 8.01836721,20.7889434 L8.07281676,20.8097631 L8.15385665,20.840128 L8.24335538,20.8729947 L8.34001756,20.9078444 L8.44254782,20.9441581 L8.52251719,20.9720419 L8.66003104,21.0191019 L8.71604535,21.0379422 L8.75801076,21.0519275 C8.92287987,21.1066463 9.08515567,21.1579496 9.24332737,21.2049576 L9.31621721,21.2263976 L9.36373321,21.240126 L9.43881475,21.2614052 C10.2201117,21.4800758 11.3554941,21.6614967 12.1522946,21.6614967 C17.6427347,21.6614967 21.9999925,17.2543005 21.9999925,11.7986057 C21.9997589,11.1232646 21.9283017,10.4500791 21.7868075,9.78997965 C20.8307614,5.2826811 16.7514981,2 11.9924743,2 Z M11.9924743,3.4285634 C16.078707,3.4285634 19.5737021,6.24106996 20.3896567,10.0878974 C20.5104108,10.6512475 20.5712325,11.2242379 20.5714313,11.7988528 C20.5714313,16.4689474 16.8500955,20.2329333 12.1522946,20.2329333 C11.4976826,20.2329333 10.4880476,20.0716054 9.82384609,19.8857076 L9.75883783,19.8672884 L9.6937024,19.8484019 L9.64902512,19.8352129 C9.50729977,19.7930914 9.3592205,19.7462764 9.20882622,19.6963622 L9.11702503,19.6656093 L9.04068794,19.6396096 L8.94142281,19.6052391 L8.8695703,19.5799656 L8.80055014,19.5553667 L8.71387326,19.5239942 L8.63449753,19.494725 L8.56371774,19.4680757 L8.53195594,19.455895 C8.29095271,19.3632565 8.03610161,19.3158157 7.77901735,19.3155282 L7.74790299,19.3156448 C7.48865988,19.3185752 7.2306954,19.3704371 6.98893828,19.4685395 L6.9803232,19.4720447 L4.42846634,20.3930663 L5.16580574,17.7259544 C5.23297016,17.4787706 5.21017262,17.2371103 5.13258081,16.9900661 C5.0858282,16.8412107 5.01957676,16.694483 4.93975267,16.5508048 L4.91775043,16.5118558 L4.89029727,16.4666396 C4.85785353,16.4143395 4.82364205,16.3631569 4.78772206,16.3131804 L4.77529423,16.2962143 L4.78393138,16.3093925 C3.89987106,14.9686679 3.42857196,13.3979565 3.42857196,11.7919093 C3.41430839,7.17761728 7.24588061,3.4285634 11.9924743,3.4285634 Z" id="Path" fill="#000000" fill-rule="nonzero"></path>
        </g>
    </g>
</svg>