<?xml version="1.0" encoding="UTF-8"?>
<svg width="24px" height="24px" viewBox="0 0 24 24" version="1.1" xmlns="http://www.w3.org/2000/svg" xmlns:xlink="http://www.w3.org/1999/xlink">
    <title>VSQUARE/4) Icons/chatbubble/chatbubble_sharp</title>
    <g id="VSQUARE_Symbols" stroke="none" stroke-width="1" fill="none" fill-rule="evenodd">
        <g id="VSQUARE/4)-Icons/chatbubble/chatbubble_sharp">
            <rect id="Rectangle" x="0" y="0" width="24" height="24"></rect>
            <path d="M21.7866074,9.79107219 C21.3250014,7.61919732 20.1008972,5.64241173 18.3392943,4.2250011 C16.5378248,2.78362258 14.2991191,1.99886134 11.9919881,2 C9.27235176,2 6.73217928,3.04776903 4.8330767,4.95044749 C2.99781324,6.7915188 1.99201208,9.22232222 2,11.7933042 C2,13.6782586 2.55349201,15.5217304 3.59156182,17.0950896 L3.78575778,17.3651789 L2.71433178,22 L7.83931948,20.7250001 C7.83931948,20.7250001 7.94199781,20.7593751 8.01789048,20.7883929 C8.09378316,20.8174108 8.74690659,21.0678572 9.43976207,21.2616072 C10.0156535,21.4223215 11.213865,21.6633929 12.152702,21.6633929 C14.815642,21.6633929 17.3022432,20.6321429 19.1540245,18.7589288 C20.9892879,16.9004467 22,14.4294648 22,11.7986613 C22,11.1237974 21.9286115,10.4508267 21.7866074,9.79107219 Z" id="Path" fill="#000000" fill-rule="nonzero"></path>
        </g>
    </g>
</svg>