<?xml version="1.0" encoding="UTF-8"?>
<svg width="24px" height="24px" viewBox="0 0 24 24" version="1.1" xmlns="http://www.w3.org/2000/svg" xmlns:xlink="http://www.w3.org/1999/xlink">
    <title>VSQUARE/4) Icons/chatbox_ellipses/chatbox_ellipses</title>
    <g id="VSQUARE_Symbols" stroke="none" stroke-width="1" fill="none" fill-rule="evenodd">
        <g id="VSQUARE/4)-Icons/chatbox_ellipses/chatbox_ellipses">
            <rect id="Rectangle" x="0" y="0" width="24" height="24"></rect>
            <path d="M18.4464286,3 L5.55357143,3 C3.86790562,3.00190768 2.50186985,4.3955808 2.5,6.11535066 L2.5,14.4229524 C2.50186985,16.1427223 3.86790562,17.5363954 5.55357143,17.5383031 L6.57142857,17.5383031 L6.57142857,20.3075036 C6.57135715,20.5762341 6.72372283,20.8207288 6.96227322,20.9346755 C7.2008236,21.0486221 7.48245607,21.0114321 7.68470982,20.8392767 L11.5648661,17.5383031 L18.4464286,17.5383031 C20.1320944,17.5363954 21.4981302,16.1427223 21.5,14.4229524 L21.5,6.11535066 C21.4981302,4.3955808 20.1320944,3.00190768 18.4464286,3 Z M7.92857143,11.6537518 C7.17904213,11.6537518 6.57142857,11.0338452 6.57142857,10.2691515 C6.57142857,9.50445791 7.17904213,8.88455124 7.92857143,8.88455124 C8.67810073,8.88455124 9.28571429,9.50445791 9.28571429,10.2691515 C9.28571429,11.0338452 8.67810073,11.6537518 7.92857143,11.6537518 Z M12,11.6537518 C11.2504707,11.6537518 10.6428571,11.0338452 10.6428571,10.2691515 C10.6428571,9.50445791 11.2504707,8.88455124 12,8.88455124 C12.7495293,8.88455124 13.3571429,9.50445791 13.3571429,10.2691515 C13.3571429,11.0338452 12.7495293,11.6537518 12,11.6537518 Z M16.0714286,11.6537518 C15.3218993,11.6537518 14.7142857,11.0338452 14.7142857,10.2691515 C14.7142857,9.50445791 15.3218993,8.88455124 16.0714286,8.88455124 C16.8209579,8.88455124 17.4285714,9.50445791 17.4285714,10.2691515 C17.4285714,11.0338452 16.8209579,11.6537518 16.0714286,11.6537518 Z" id="Shape" fill="#000000" fill-rule="nonzero"></path>
        </g>
    </g>
</svg>