<?xml version="1.0" encoding="UTF-8"?>
<svg width="24px" height="24px" viewBox="0 0 24 24" version="1.1" xmlns="http://www.w3.org/2000/svg" xmlns:xlink="http://www.w3.org/1999/xlink">
    <title>VSQUARE/4) Icons/chatbubble/chatbubble</title>
    <g id="VSQUARE_Symbols" stroke="none" stroke-width="1" fill="none" fill-rule="evenodd">
        <g id="VSQUARE/4)-Icons/chatbubble/chatbubble">
            <rect id="Rectangle" x="0" y="0" width="24" height="24"></rect>
            <path d="M4.00146933,22.0000012 C3.36927789,21.9970482 2.85869416,21.483079 2.85993148,20.850893 C2.86259006,20.7354768 2.88060584,20.6209285 2.91350385,20.510268 L3.73583968,17.5357148 C3.77021528,17.4258934 3.73137532,17.3151792 3.680928,17.2276792 L3.6711064,17.209822 C3.66753491,17.2040185 3.65057033,17.1803577 3.63851655,17.162947 C3.62646276,17.1455363 3.61262324,17.1267863 3.60012302,17.1084827 L3.59164073,17.0964292 C2.55329906,15.5226894 2.00004722,13.6787152 2.00004722,11.7933048 C1.99205914,9.22232301 2.99788033,6.79330546 4.83318033,4.95044854 C6.73232073,3.0477702 9.27254378,2.00000124 11.9922343,2.00000124 C14.2994112,1.99886257 16.5381615,2.78362377 18.3396669,4.2250022 C20.1008584,5.64241274 21.324987,7.61785892 21.7866022,9.79107294 C21.9287035,10.4512651 22.0002374,11.1246897 21.9999994,11.8000013 C21.9999994,14.4308045 20.9892668,16.9017863 19.1535204,18.7584825 C17.3017022,20.6334823 14.8150516,21.6629465 12.1520585,21.6629465 C11.2145421,21.6629465 10.0149675,21.4236608 9.43906456,21.2611608 C8.74619528,21.0674108 8.08948735,20.8147323 8.01716466,20.7879466 C7.94062556,20.7586349 7.85938805,20.7435071 7.77742831,20.7433037 C7.6885367,20.7427644 7.60045616,20.7602283 7.51849521,20.794643 L7.48054812,20.8093751 L4.46799536,21.8977679 C4.32003534,21.9600504 4.1619166,21.9946998 4.00146933,22.0000012 Z" id="Shape" fill="#000000" fill-rule="nonzero"></path>
        </g>
    </g>
</svg>