<?xml version="1.0" encoding="UTF-8"?>
<svg width="24px" height="24px" viewBox="0 0 24 24" version="1.1" xmlns="http://www.w3.org/2000/svg" xmlns:xlink="http://www.w3.org/1999/xlink">
    <title>VSQUARE/4) Icons/chatbubble_ellipses/chatbubble_ellipses_outline</title>
    <g id="VSQUARE_Symbols" stroke="none" stroke-width="1" fill="none" fill-rule="evenodd">
        <g id="VSQUARE/4)-Icons/chatbubble_ellipses/chatbubble_ellipses_outline">
            <rect id="Rectangle" x="0" y="0" width="24" height="24"></rect>
            <path d="M11.9920339,2 C16.7512203,2 20.8308453,5.28285858 21.7863292,9.78981174 C21.9279855,10.4498939 21.9996044,11.1230796 21.9999966,11.7986054 C21.9999966,17.2543001 17.6427396,21.6614962 12.1523005,21.6614962 C11.3551919,21.6614962 10.2203419,21.480138 9.43882115,21.2614047 L9.43882115,21.2614047 L9.36373962,21.2401255 L9.31622364,21.2263972 L9.24333381,21.2049571 C9.08516214,21.1579491 8.92288637,21.1066459 8.75801729,21.0519271 L8.75801729,21.0519271 L8.71605189,21.0379417 L8.66003765,21.0191015 L8.52252655,20.9720425 L8.39065082,20.9258556 L8.290912,20.8902165 L8.22032105,20.8645929 L8.13285888,20.8323196 L8.09234688,20.8171399 L8.01857267,20.7890193 C7.94146936,20.7594085 7.85959172,20.7441805 7.77524591,20.7440862 C7.68654569,20.7437716 7.59870232,20.7614421 7.51702304,20.7960301 L7.51702304,20.7960301 L7.4991747,20.8035882 L4.46856011,21.8971645 L4.43981843,21.9086535 C4.33203502,21.9501342 4.21957352,21.9783713 4.10490637,21.9927174 L4.10490637,21.9927174 L4.07619506,21.9960142 L4.03807593,22 L3.99974915,22 C3.69444886,21.9989587 3.40220032,21.8759642 3.1881146,21.6583025 C2.97402887,21.4406409 2.8558916,21.1463949 2.860023,20.8411207 L2.860023,20.8411207 L2.86031868,20.8192725 L2.86194925,20.7974832 C2.86943277,20.697481 2.88747468,20.598551 2.91577377,20.5023449 L2.91577377,20.5023449 L3.76887772,17.4159398 L3.76555185,17.4057498 C3.75001069,17.3603661 3.72372566,17.3035266 3.69024356,17.2432815 L3.69024356,17.2432815 L3.68450333,17.2331283 L3.67011952,17.2095664 C3.65878664,17.1915862 3.64697364,17.1739132 3.63469324,17.1565664 L3.63469324,17.1565664 L3.61592369,17.1307932 L3.6030948,17.1136648 L3.56032079,17.0484943 C2.54233717,15.484779 2.00004967,13.6586893 2.00004967,11.7941932 C1.98279664,6.38337614 6.46250411,2 11.9920339,2 Z M11.9920339,3.42856337 C7.24538828,3.42856337 3.41390494,7.17765475 3.42857232,11.791909 C3.42857232,13.397954 3.89987726,14.9686657 4.78393863,16.3093921 L4.77462931,16.2951872 L4.78704908,16.3121059 C4.82355495,16.3627074 4.85823973,16.4145981 4.89103694,16.4676785 L4.89103694,16.4676785 L4.91823075,16.5126828 L4.93977429,16.5508303 C5.01965636,16.6946163 5.08590956,16.8413979 5.13262514,16.9903618 C5.21021887,17.2377882 5.23278594,17.4798799 5.1653665,17.725954 L5.1653665,17.725954 L4.4280247,20.3930659 L6.98126501,19.4717318 C7.2304653,19.3705116 7.48824606,19.3186448 7.74744938,19.3156521 L7.74744938,19.3156521 L7.77855966,19.3155277 C8.03572374,19.3158088 8.29065849,19.3632226 8.5319625,19.4558945 L8.5319625,19.4558945 L8.5637243,19.4680753 L8.63450408,19.4947245 L8.71387979,19.5239938 L8.80055666,19.5553663 L8.86957681,19.5799652 L8.94142931,19.6052386 L9.04069441,19.6396091 L9.11703149,19.6656089 L9.20883267,19.6963617 C9.35922692,19.7462759 9.50730616,19.793091 9.64903148,19.8352125 L9.64903148,19.8352125 L9.69370875,19.8484015 L9.75884418,19.8672879 L9.82385242,19.8857071 C10.488283,20.0716691 11.497392,20.2329328 12.1523005,20.2329328 C16.8501005,20.2329328 20.5714357,16.468947 20.5714357,11.7990203 C20.571102,11.2243909 20.5101427,10.6514003 20.3891993,10.0878248 C19.5737071,6.24121197 16.0784144,3.42856337 11.9920339,3.42856337 Z M7.71438648,10.5713802 C8.50335894,10.5713802 9.14294749,11.2109698 9.14294749,11.9999436 C9.14294749,12.7889173 8.50335894,13.4285069 7.71438648,13.4285069 C6.92541402,13.4285069 6.28582547,12.7889173 6.28582547,11.9999436 C6.28582547,11.2109698 6.92541402,10.5713802 7.71438648,10.5713802 Z M12.0000695,10.5713802 C12.789042,10.5713802 13.4286305,11.2109698 13.4286305,11.9999436 C13.4286305,12.7889173 12.789042,13.4285069 12.0000695,13.4285069 C11.211097,13.4285069 10.5715085,12.7889173 10.5715085,11.9999436 C10.5715085,11.2109698 11.211097,10.5713802 12.0000695,10.5713802 Z M16.2857525,10.5713802 C17.074725,10.5713802 17.7143136,11.2109698 17.7143136,11.9999436 C17.7143136,12.7889173 17.074725,13.4285069 16.2857525,13.4285069 C15.4967801,13.4285069 14.8571915,12.7889173 14.8571915,11.9999436 C14.8571915,11.2109698 15.4967801,10.5713802 16.2857525,10.5713802 Z" id="Combined-Shape" fill="#000000" fill-rule="nonzero"></path>
        </g>
    </g>
</svg>