<?xml version="1.0" encoding="UTF-8"?>
<svg width="24px" height="24px" viewBox="0 0 24 24" version="1.1" xmlns="http://www.w3.org/2000/svg" xmlns:xlink="http://www.w3.org/1999/xlink">
    <title>VSQUARE/4) Icons/chatbubble_ellipses/chatbubble_ellipses_sharp</title>
    <g id="VSQUARE_Symbols" stroke="none" stroke-width="1" fill="none" fill-rule="evenodd">
        <g id="VSQUARE/4)-Icons/chatbubble_ellipses/chatbubble_ellipses_sharp">
            <rect id="Rectangle" x="0" y="0" width="24" height="24"></rect>
            <path d="M21.7866079,9.79107294 C21.325003,7.61919821 20.1009017,5.64241274 18.3393029,4.2250022 C16.5378377,2.78362377 14.2991373,1.99886257 11.9920117,2.00000124 C9.2723818,2.00000124 6.73221532,3.0477702 4.83311722,4.95044854 C2.9978581,6.79151974 1.99205932,9.22232301 2.00004722,11.7933048 C2.00004722,13.6782591 2.55353791,15.5217308 3.59160528,17.0950899 L3.78580078,17.3651791 L2.71437731,22.0000012 L7.83935291,20.7250002 C7.83935291,20.7250002 7.94203099,20.7593752 8.01792349,20.788393 C8.09381599,20.8174109 8.74693788,21.0678573 9.43979172,21.2616072 C10.0156818,21.4223215 11.2138904,21.6633929 12.1527252,21.6633929 C14.815659,21.6633929 17.3022543,20.632143 19.1540312,18.758929 C20.9892903,16.9004471 22,14.4294652 22,11.798662 C22,11.1237981 21.9286117,10.4508274 21.7866079,9.79107294 Z M7.71435351,13.4285725 C6.92537905,13.4285725 6.28578888,12.7889794 6.28578888,12.0000012 C6.28578888,11.2110231 6.92537905,10.57143 7.71435351,10.57143 C8.50332796,10.57143 9.14291813,11.2110231 9.14291813,12.0000012 C9.14291813,12.7889794 8.50332796,13.4285725 7.71435351,13.4285725 Z M12.0000474,13.4285725 C11.2110729,13.4285725 10.5714828,12.7889794 10.5714828,12.0000012 C10.5714828,11.2110231 11.2110729,10.57143 12.0000474,10.57143 C12.7890218,10.57143 13.428612,11.2110231 13.428612,12.0000012 C13.428612,12.7889794 12.7890218,13.4285725 12.0000474,13.4285725 Z M16.2857413,13.4285725 C15.4967668,13.4285725 14.8571766,12.7889794 14.8571766,12.0000012 C14.8571766,11.2110231 15.4967668,10.57143 16.2857413,10.57143 C17.0747157,10.57143 17.7143059,11.2110231 17.7143059,12.0000012 C17.7143059,12.7889794 17.0747157,13.4285725 16.2857413,13.4285725 Z" id="Shape" fill="#000000" fill-rule="nonzero"></path>
        </g>
    </g>
</svg>