<?xml version="1.0" encoding="UTF-8"?>
<svg width="24px" height="24px" viewBox="0 0 24 24" version="1.1" xmlns="http://www.w3.org/2000/svg" xmlns:xlink="http://www.w3.org/1999/xlink">
    <title>VSQUARE/4) Icons/chatbubble_ellipses/chatbubble_ellipses</title>
    <g id="VSQUARE_Symbols" stroke="none" stroke-width="1" fill="none" fill-rule="evenodd">
        <g id="VSQUARE/4)-Icons/chatbubble_ellipses/chatbubble_ellipses">
            <rect id="Rectangle" x="0" y="0" width="24" height="24"></rect>
            <path d="M18.3393021,4.2250022 C16.537837,2.78362377 14.2991367,1.99886257 11.9920112,2.00000124 C9.27238145,2.00000124 6.73221509,3.0477702 4.83311709,4.95044854 C2.99785805,6.79151974 1.99205932,9.22232301 2.00004722,11.7933048 C2.00004722,13.6782591 2.55353789,15.5217308 3.5916052,17.0950899 L3.6000873,17.1071435 C3.61258724,17.125447 3.62553361,17.1437506 3.63847997,17.1616077 C3.65142634,17.1794649 3.66749769,17.2026792 3.6710691,17.2084827 L3.68089048,17.2263399 C3.73133667,17.3156256 3.77017577,17.4245541 3.73580093,17.5343756 L2.91348346,20.510268 C2.88058618,20.6209285 2.8625708,20.7354768 2.85991229,20.850893 C2.85867499,21.483079 3.36924733,21.9970482 4.00142466,22.0000012 C4.16186835,21.9946998 4.31998355,21.9600504 4.46794027,21.8977679 L7.48087221,20.810268 L7.51881845,20.7955359 C7.60077758,20.7611212 7.68885616,20.7436572 7.77774578,20.7441966 C7.85970368,20.7444 7.94093938,20.7595277 8.01747677,20.7888394 C8.08979785,20.8169644 8.74649112,21.0683037 9.43934493,21.2620537 C10.015235,21.4227679 11.2134435,21.6638393 12.1522783,21.6638393 C14.8152119,21.6638393 17.3018071,20.6325895 19.1535839,18.7593754 C20.9892894,16.9004471 21.9999994,14.4294652 21.9999994,11.798662 C22.0002374,11.1233504 21.9287051,10.4499258 21.786607,9.78973366 C21.3250021,7.61919821 20.1009008,5.64241274 18.3393021,4.2250022 Z M7.71435323,13.4285725 C6.92537881,13.4285725 6.28578867,12.7889794 6.28578867,12.0000012 C6.28578867,11.2110231 6.92537881,10.57143 7.71435323,10.57143 C8.50332765,10.57143 9.14291779,11.2110231 9.14291779,12.0000012 C9.14291779,12.7889794 8.50332765,13.4285725 7.71435323,13.4285725 Z M12.0000469,13.4285725 C11.2110725,13.4285725 10.5714823,12.7889794 10.5714823,12.0000012 C10.5714823,11.2110231 11.2110725,10.57143 12.0000469,10.57143 C12.7890213,10.57143 13.4286115,11.2110231 13.4286115,12.0000012 C13.4286115,12.7889794 12.7890213,13.4285725 12.0000469,13.4285725 Z M16.2857406,13.4285725 C15.4967662,13.4285725 14.857176,12.7889794 14.857176,12.0000012 C14.857176,11.2110231 15.4967662,10.57143 16.2857406,10.57143 C17.074715,10.57143 17.7143051,11.2110231 17.7143051,12.0000012 C17.7143051,12.7889794 17.074715,13.4285725 16.2857406,13.4285725 Z" id="Shape" fill="#000000" fill-rule="nonzero"></path>
        </g>
    </g>
</svg>