<?xml version="1.0" encoding="UTF-8"?>
<svg width="24px" height="24px" viewBox="0 0 24 24" version="1.1" xmlns="http://www.w3.org/2000/svg" xmlns:xlink="http://www.w3.org/1999/xlink">
    <title>VSQUARE/4) Icons/chatbox_ellipses/chatbox_ellipses_sharp</title>
    <g id="VSQUARE_Symbols" stroke="none" stroke-width="1" fill="none" fill-rule="evenodd">
        <g id="VSQUARE/4)-Icons/chatbox_ellipses/chatbox_ellipses_sharp">
            <rect id="Rectangle" x="0" y="0" width="24" height="24"></rect>
            <path d="M20.4821429,3 L3.51785714,3 C2.95571017,3 2.5,3.46493507 2.5,4.03846154 L2.5,16.5 C2.5,17.0735265 2.95571017,17.5384615 3.51785714,17.5384615 L6.57142857,17.5384615 L6.57142857,21 L11.5648661,17.5384615 L20.4821429,17.5384615 C21.0442898,17.5384615 21.5,17.0735265 21.5,16.5 L21.5,4.03846154 C21.5,3.46493507 21.0442898,3 20.4821429,3 Z M7.92857143,11.6538462 C7.17904213,11.6538462 6.57142857,11.0339327 6.57142857,10.2692308 C6.57142857,9.50452881 7.17904213,8.88461538 7.92857143,8.88461538 C8.67810073,8.88461538 9.28571429,9.50452881 9.28571429,10.2692308 C9.28571429,11.0339327 8.67810073,11.6538462 7.92857143,11.6538462 Z M12,11.6538462 C11.2504707,11.6538462 10.6428571,11.0339327 10.6428571,10.2692308 C10.6428571,9.50452881 11.2504707,8.88461538 12,8.88461538 C12.7495293,8.88461538 13.3571429,9.50452881 13.3571429,10.2692308 C13.3571429,11.0339327 12.7495293,11.6538462 12,11.6538462 Z M16.0714286,11.6538462 C15.3218993,11.6538462 14.7142857,11.0339327 14.7142857,10.2692308 C14.7142857,9.50452881 15.3218993,8.88461538 16.0714286,8.88461538 C16.8209579,8.88461538 17.4285714,9.50452881 17.4285714,10.2692308 C17.4285714,11.0339327 16.8209579,11.6538462 16.0714286,11.6538462 Z" id="Shape" fill="#000000" fill-rule="nonzero"></path>
        </g>
    </g>
</svg>