<?xml version="1.0" encoding="UTF-8"?>
<svg width="24px" height="24px" viewBox="0 0 24 24" version="1.1" xmlns="http://www.w3.org/2000/svg" xmlns:xlink="http://www.w3.org/1999/xlink">
    <title>VSQUARE/4) Icons/chatbox/chatbox_outline</title>
    <g id="VSQUARE_Symbols" stroke="none" stroke-width="1" fill="none" fill-rule="evenodd">
        <g id="VSQUARE/4)-Icons/chatbox/chatbox_outline">
            <rect id="Rectangle" x="0" y="0" width="24" height="24"></rect>
            <path d="M18.4483591,3 L5.55164092,3 C3.86825543,3.00488577 2.50479192,4.3958477 2.5,6.11318383 L2.5,14.4222361 L2.50055032,14.4737157 C2.53209319,16.1692223 3.88508928,17.5325525 5.55164092,17.5373894 L6.57142857,17.5373922 L6.57142857,20.3064198 L6.57162902,20.3239496 C6.58482911,20.8997651 7.24702099,21.2102594 7.68454211,20.8381147 L11.5651205,17.5373489 L18.4464286,17.5373922 C20.1317446,17.5325036 21.4952081,16.1415417 21.5,14.4242056 L21.5,6.11515327 C21.4952081,4.3958477 20.1317446,3.00488577 18.4483591,3 Z M5.55550193,4.38450821 L18.4464286,4.38450821 C19.3813711,4.38722733 20.1401945,5.16135471 20.1428599,6.11712271 L20.1428599,14.4222361 C20.1401945,15.3760347 19.3813711,16.1501621 18.4444981,16.1528812 L11.4422991,16.1528784 L11.4212804,16.1530956 C11.1903098,16.1579169 10.9674577,16.2428672 10.7897346,16.394303 L7.92857143,18.8278889 L7.92857143,16.8451353 C7.92857143,16.4628124 7.62476465,16.1528784 7.25,16.1528784 L5.55357143,16.1528784 C4.61862885,16.1501621 3.85980548,15.3760347 3.85714011,14.4202667 L3.85714011,6.11515327 C3.85980548,5.16135471 4.61862885,4.38722733 5.55550193,4.38450821 Z" id="Path" fill="#000000" fill-rule="nonzero"></path>
        </g>
    </g>
</svg>