<?xml version="1.0" encoding="UTF-8"?>
<svg width="24px" height="24px" viewBox="0 0 24 24" version="1.1" xmlns="http://www.w3.org/2000/svg" xmlns:xlink="http://www.w3.org/1999/xlink">
    <title>VSQUARE/4) Icons/checkmark_circle/checkmark_circle_outline</title>
    <g id="VSQUARE_Symbols" stroke="none" stroke-width="1" fill="none" fill-rule="evenodd">
        <g id="VSQUARE/4)-Icons/checkmark_circle/checkmark_circle_outline">
            <rect id="Rectangle" x="0" y="0" width="24" height="24"></rect>
            <path d="M12,3 C16.9688894,3 21,7.03111056 21,12 C21,16.9688894 16.9688894,21 12,21 C7.03111056,21 3,16.9688894 3,12 C3,7.03111056 7.03111056,3 12,3 Z M12,4.38461538 C7.79581252,4.38461538 4.38461538,7.79581252 4.38461538,12 C4.38461538,16.2041875 7.79581252,19.6153846 12,19.6153846 C16.2041875,19.6153846 19.6153846,16.2041875 19.6153846,12 C19.6153846,7.79581252 16.2041875,4.38461538 12,4.38461538 Z M16.599133,8.00835817 C16.8879447,8.25095998 16.9288018,8.67921258 16.693764,8.97180137 L16.6839495,8.98374837 L10.8685649,15.9068253 C10.6012681,16.2250357 10.1169323,16.2370417 9.83401092,15.9356964 L9.82387328,15.9246679 L7.33156559,13.1554371 C7.07578627,12.8712379 7.09882517,12.4334988 7.38302442,12.1777194 C7.66333052,11.9254439 8.09299874,11.9444001 8.35012905,12.2176459 L8.3607421,12.2291783 L10.3204183,14.4065913 L15.6237428,8.09317471 C15.8696679,7.8004067 16.306365,7.76243305 16.599133,8.00835817 Z" id="Combined-Shape" fill="#000000" fill-rule="nonzero"></path>
        </g>
    </g>
</svg>