<?xml version="1.0" encoding="UTF-8"?>
<svg width="24px" height="24px" viewBox="0 0 24 24" version="1.1" xmlns="http://www.w3.org/2000/svg" xmlns:xlink="http://www.w3.org/1999/xlink">
    <title>VSQUARE/4) Icons/chevron/circle/forward/chevron_forward_circle</title>
    <g id="VSQUARE_Symbols" stroke="none" stroke-width="1" fill="none" fill-rule="evenodd">
        <g id="VSQUARE/4)-Icons/chevron/circle/forward/chevron_forward_circle">
            <rect id="Rectangle" x="0" y="0" width="24" height="24"></rect>
            <path d="M3,12 C3,16.9703365 7.02966346,21 12,21 C16.9703365,21 21,16.9703365 21,12 C21,7.02966346 16.9703365,3 12,3 C7.02966346,3 3,7.02966346 3,12 Z M14.1362019,12 L10.4721635,8.33552885 C10.2135665,8.06333818 10.2190553,7.63463235 10.4845361,7.36915153 C10.750017,7.10367071 11.1787228,7.09818192 11.4509135,7.35677885 L15.6047596,11.510625 C15.8749087,11.7809512 15.8749087,12.2190488 15.6047596,12.489375 L11.4509135,16.6432212 C11.1787228,16.9018181 10.750017,16.8963293 10.4845361,16.6308485 C10.2190553,16.3653677 10.2135665,15.9366618 10.4721635,15.6644712 L14.1362019,12 Z" id="Shape" fill="#000000" fill-rule="nonzero"></path>
        </g>
    </g>
</svg>