<?xml version="1.0" encoding="UTF-8"?>
<svg width="24px" height="24px" viewBox="0 0 24 24" version="1.1" xmlns="http://www.w3.org/2000/svg" xmlns:xlink="http://www.w3.org/1999/xlink">
    <title>VSQUARE/4) Icons/chevron/circle/up/chevron_up_circle</title>
    <g id="VSQUARE_Symbols" stroke="none" stroke-width="1" fill="none" fill-rule="evenodd">
        <g id="VSQUARE/4)-Icons/chevron/circle/up/chevron_up_circle">
            <rect id="Rectangle" x="0" y="0" width="24" height="24"></rect>
            <path d="M12,3 C7.02966346,3 3,7.02966346 3,12 C3,16.9703365 7.02966346,21 12,21 C16.9703365,21 21,16.9703365 21,12 C21,7.02966346 16.9703365,3 12,3 Z M16.6432212,14.2201442 C16.3728949,14.4902933 15.9347974,14.4902933 15.6644712,14.2201442 L12,10.5561058 L8.33552885,14.2201442 C8.06333818,14.4787412 7.63463235,14.4732524 7.36915153,14.2077715 C7.10367071,13.9422907 7.09818192,13.5135849 7.35677885,13.2413942 L11.510625,9.08754808 C11.7809512,8.81739899 12.2190488,8.81739899 12.489375,9.08754808 L16.6432212,13.2413942 C16.9133702,13.5117205 16.9133702,13.949818 16.6432212,14.2201442 Z" id="Shape" fill="#000000" fill-rule="nonzero"></path>
        </g>
    </g>
</svg>