<?xml version="1.0" encoding="UTF-8"?>
<svg width="24px" height="24px" viewBox="0 0 24 24" version="1.1" xmlns="http://www.w3.org/2000/svg" xmlns:xlink="http://www.w3.org/1999/xlink">
    <title>VSQUARE/4) Icons/chevron/circle/down/chevron_down_circle_outline</title>
    <g id="VSQUARE_Symbols" stroke="none" stroke-width="1" fill="none" fill-rule="evenodd">
        <g id="VSQUARE/4)-Icons/chevron/circle/down/chevron_down_circle_outline">
            <rect id="Rectangle" x="0" y="0" width="24" height="24"></rect>
            <path d="M12,3 C16.9688894,3 21,7.03111056 21,12 C21,16.9688894 16.9688894,21 12,21 C7.03111056,21 3,16.9688894 3,12 C3,7.03111056 7.03111056,3 12,3 Z M12,4.38461538 C7.79581252,4.38461538 4.38461538,7.79581252 4.38461538,12 C4.38461538,16.2041875 7.79581252,19.6153846 12,19.6153846 C16.2041875,19.6153846 19.6153846,16.2041875 19.6153846,12 C19.6153846,7.79581252 16.2041875,4.38461538 12,4.38461538 Z M16.6433816,9.77969531 C16.9099895,10.0463032 16.9136924,10.4762594 16.6544903,10.7474048 L12.4895355,14.9126124 C12.2229275,15.1792203 11.7929714,15.1829232 11.521826,14.9237211 L7.35661838,10.7587662 C7.08625541,10.4884033 7.08625541,10.0500583 7.35661838,9.77969531 C7.62322631,9.51308738 8.05318249,9.50938449 8.32432787,9.76858664 L12,13.444024 L15.6643107,9.77969531 C15.9346737,9.50933233 16.3730186,9.50933233 16.6433816,9.77969531 Z" id="Combined-Shape" fill="#000000" fill-rule="nonzero"></path>
        </g>
    </g>
</svg>