<?xml version="1.0" encoding="UTF-8"?>
<svg width="24px" height="24px" viewBox="0 0 24 24" version="1.1" xmlns="http://www.w3.org/2000/svg" xmlns:xlink="http://www.w3.org/1999/xlink">
    <title>VSQUARE/4) Icons/chevron/circle/forward/chevron_forward_circle_outline</title>
    <g id="VSQUARE_Symbols" stroke="none" stroke-width="1" fill="none" fill-rule="evenodd">
        <g id="VSQUARE/4)-Icons/chevron/circle/forward/chevron_forward_circle_outline">
            <rect id="Rectangle" x="0" y="0" width="24" height="24"></rect>
            <path d="M12,3 C16.9688894,3 21,7.03111056 21,12 C21,16.9688894 16.9688894,21 12,21 C7.03111056,21 3,16.9688894 3,12 C3,7.03111056 7.03111056,3 12,3 Z M12,4.38461538 C7.79581252,4.38461538 4.38461538,7.79581252 4.38461538,12 C4.38461538,16.2041875 7.79581252,19.6153846 12,19.6153846 C16.2041875,19.6153846 19.6153846,16.2041875 19.6153846,12 C19.6153846,7.79581252 16.2041875,4.38461538 12,4.38461538 Z M10.7474048,7.34550972 L14.9126124,11.5104645 C15.1792203,11.7770725 15.1829232,12.2070286 14.9237211,12.478174 L10.7587662,16.6433816 C10.4884033,16.9137446 10.0500583,16.9137446 9.77969531,16.6433816 C9.51308738,16.3767737 9.50938449,15.9468175 9.76858664,15.6756721 L13.444024,12 L9.77969531,8.33568931 C9.51308738,8.06908138 9.50938449,7.6391252 9.76858664,7.36797982 L9.77969531,7.35661838 C10.0463032,7.09001045 10.4762594,7.08630756 10.7474048,7.34550972 Z" id="Combined-Shape" fill="#000000" fill-rule="nonzero"></path>
        </g>
    </g>
</svg>