<?xml version="1.0" encoding="UTF-8"?>
<svg width="24px" height="24px" viewBox="0 0 24 24" version="1.1" xmlns="http://www.w3.org/2000/svg" xmlns:xlink="http://www.w3.org/1999/xlink">
    <title>VSQUARE/4) Icons/chevron/circle/back/chevron_back_circle_outline</title>
    <g id="VSQUARE_Symbols" stroke="none" stroke-width="1" fill="none" fill-rule="evenodd">
        <g id="VSQUARE/4)-Icons/chevron/circle/back/chevron_back_circle_outline">
            <rect id="Rectangle" x="0" y="0" width="24" height="24"></rect>
            <path d="M12,3 C16.9688894,3 21,7.03111056 21,12 C21,16.9688894 16.9688894,21 12,21 C7.03111056,21 3,16.9688894 3,12 C3,7.03111056 7.03111056,3 12,3 Z M12,4.38461538 C7.79581252,4.38461538 4.38461538,7.79581252 4.38461538,12 C4.38461538,16.2041875 7.79581252,19.6153846 12,19.6153846 C16.2041875,19.6153846 19.6153846,16.2041875 19.6153846,12 C19.6153846,7.79581252 16.2041875,4.38461538 12,4.38461538 Z M14.2203047,7.35661838 C14.4869126,7.62322631 14.4906155,8.05318249 14.2314134,8.32432787 L14.2203047,8.33568931 L10.555976,12 L14.2203047,15.6643107 C14.4869126,15.9309186 14.4906155,16.3608748 14.2314134,16.6320202 L14.2203047,16.6433816 C13.9536968,16.9099895 13.5237406,16.9136924 13.2525952,16.6544903 L9.08738761,12.4895355 C8.82077968,12.2229275 8.8170768,11.7929714 9.07627895,11.521826 L13.2412338,7.35661838 C13.5115967,7.08625541 13.9499417,7.08625541 14.2203047,7.35661838 Z" id="Combined-Shape" fill="#000000" fill-rule="nonzero"></path>
        </g>
    </g>
</svg>