<?xml version="1.0" encoding="UTF-8"?>
<svg width="24px" height="24px" viewBox="0 0 24 24" version="1.1" xmlns="http://www.w3.org/2000/svg" xmlns:xlink="http://www.w3.org/1999/xlink">
    <title>VSQUARE/4) Icons/chevron/circle/up/chevron_up_circle_outline</title>
    <g id="VSQUARE_Symbols" stroke="none" stroke-width="1" fill="none" fill-rule="evenodd">
        <g id="VSQUARE/4)-Icons/chevron/circle/up/chevron_up_circle_outline">
            <rect id="Rectangle" x="0" y="0" width="24" height="24"></rect>
            <path d="M12,3 C16.9688894,3 21,7.03111056 21,12 C21,16.9688894 16.9688894,21 12,21 C7.03111056,21 3,16.9688894 3,12 C3,7.03111056 7.03111056,3 12,3 Z M12,4.38461538 C7.79581252,4.38461538 4.38461538,7.79581252 4.38461538,12 C4.38461538,16.2041875 7.79581252,19.6153846 12,19.6153846 C16.2041875,19.6153846 19.6153846,16.2041875 19.6153846,12 C19.6153846,7.79581252 16.2041875,4.38461538 12,4.38461538 Z M12.478174,9.07627895 L16.6433816,13.2412338 C16.9137446,13.5115967 16.9137446,13.9499417 16.6433816,14.2203047 C16.3767737,14.4869126 15.9468175,14.4906155 15.6756721,14.2314134 L12,10.555976 L8.33568931,14.2203047 C8.06908138,14.4869126 7.6391252,14.4906155 7.36797982,14.2314134 L7.35661838,14.2203047 C7.09001045,13.9536968 7.08630756,13.5237406 7.34550972,13.2525952 L11.5104645,9.08738761 C11.7770725,8.82077968 12.2070286,8.8170768 12.478174,9.07627895 Z" id="Combined-Shape" fill="#000000" fill-rule="nonzero"></path>
        </g>
    </g>
</svg>