<?xml version="1.0" encoding="UTF-8"?>
<svg width="24px" height="24px" viewBox="0 0 24 24" version="1.1" xmlns="http://www.w3.org/2000/svg" xmlns:xlink="http://www.w3.org/1999/xlink">
    <title>VSQUARE/4) Icons/chevron/circle/back/chevron_back_circle</title>
    <g id="VSQUARE_Symbols" stroke="none" stroke-width="1" fill="none" fill-rule="evenodd">
        <g id="VSQUARE/4)-Icons/chevron/circle/back/chevron_back_circle">
            <rect id="Rectangle" x="0" y="0" width="24" height="24"></rect>
            <path d="M12,3 C7.02966346,3 3,7.02966346 3,12 C3,16.9703365 7.02966346,21 12,21 C16.9703365,21 21,16.9703365 21,12 C21,7.02966346 16.9703365,3 12,3 Z M13.5278365,15.6644712 C13.7102155,15.8377417 13.7842509,16.0963082 13.7212175,16.3398478 C13.6581841,16.5833874 13.4680028,16.7735687 13.2244632,16.8366021 C12.9809235,16.8996356 12.7223571,16.8256001 12.5490865,16.6432212 L8.39524038,12.489375 C8.1250913,12.2190488 8.1250913,11.7809512 8.39524038,11.510625 L12.5490865,7.35677885 C12.8212772,7.09818192 13.249983,7.10367071 13.5154639,7.36915153 C13.7809447,7.63463235 13.7864335,8.06333818 13.5278365,8.33552885 L9.86379808,12 L13.5278365,15.6644712 Z" id="Shape" fill="#000000" fill-rule="nonzero"></path>
        </g>
    </g>
</svg>