<?xml version="1.0" encoding="UTF-8"?>
<svg width="24px" height="24px" viewBox="0 0 24 24" version="1.1" xmlns="http://www.w3.org/2000/svg" xmlns:xlink="http://www.w3.org/1999/xlink">
    <title>VSQUARE/4) Icons/clipboard/clipboard_sharp</title>
    <g id="VSQUARE_Symbols" stroke="none" stroke-width="1" fill="none" fill-rule="evenodd">
        <g id="VSQUARE/4)-Icons/clipboard/clipboard_sharp">
            <rect id="Rectangle" x="0" y="0" width="24" height="24"></rect>
            <path d="M18.9886364,3.33333333 L16.0909091,3.33333333 L16.0909091,2.5 C16.0909091,2.22385763 15.8619638,2 15.5795455,2 L8.42045455,2 C8.13803621,2 7.90909091,2.22385763 7.90909091,2.5 L7.90909091,3.33333333 L5.01136364,3.33333333 C4.7289453,3.33333333 4.5,3.55719096 4.5,3.83333333 L4.5,21.5 C4.5,21.7761424 4.7289453,22 5.01136364,22 L18.9886364,22 C19.2710547,22 19.5,21.7761424 19.5,21.5 L19.5,3.83333333 C19.5,3.55719096 19.2710547,3.33333333 18.9886364,3.33333333 Z M15.4035511,6 L8.59644886,6 L8.59644886,4.66666667 L15.4035511,4.66666667 L15.4035511,6 Z" id="Shape" fill="#000000" fill-rule="nonzero"></path>
        </g>
    </g>
</svg>