<?xml version="1.0" encoding="UTF-8"?>
<svg width="24px" height="24px" viewBox="0 0 24 24" version="1.1" xmlns="http://www.w3.org/2000/svg" xmlns:xlink="http://www.w3.org/1999/xlink">
    <title>VSQUARE/4) Icons/clipboard/clipboard</title>
    <g id="VSQUARE_Symbols" stroke="none" stroke-width="1" fill="none" fill-rule="evenodd">
        <g id="VSQUARE/4)-Icons/clipboard/clipboard">
            <rect id="Rectangle" x="0" y="0" width="24" height="24"></rect>
            <path d="M16.7727273,3.33333333 L16.2865057,3.33333333 C16.1463768,3.33319526 16.0206072,3.24922867 15.9694602,3.12166667 C15.7013466,2.44612838 15.0366872,2.0007359 14.2955966,2 L9.70440341,2 C8.96331278,2.0007359 8.2986534,2.44612838 8.03053977,3.12166667 C7.97939278,3.24922867 7.8536232,3.33319526 7.71349432,3.33333333 L7.22727273,3.33333333 C5.72104159,3.33333333 4.5,4.52724067 4.5,6 L4.5,19.3333333 C4.5,20.8060927 5.72104159,22 7.22727273,22 L16.7727273,22 C18.2789584,22 19.5,20.8060927 19.5,19.3333333 L19.5,6 C19.5,4.52724067 18.2789584,3.33333333 16.7727273,3.33333333 Z M14.721733,6 L9.27826705,6 C8.90170926,6 8.59644886,5.70152317 8.59644886,5.33333333 C8.59644886,4.9651435 8.90170926,4.66666667 9.27826705,4.66666667 L14.721733,4.66666667 C15.0982907,4.66666667 15.4035511,4.9651435 15.4035511,5.33333333 C15.4035511,5.70152317 15.0982907,6 14.721733,6 Z" id="Shape" fill="#000000" fill-rule="nonzero"></path>
        </g>
    </g>
</svg>