<?xml version="1.0" encoding="UTF-8"?>
<svg width="24px" height="24px" viewBox="0 0 24 24" version="1.1" xmlns="http://www.w3.org/2000/svg" xmlns:xlink="http://www.w3.org/1999/xlink">
    <title>VSQUARE/4) Icons/clipboard/clipboard_outline</title>
    <g id="VSQUARE_Symbols" stroke="none" stroke-width="1" fill="none" fill-rule="evenodd">
        <g id="VSQUARE/4)-Icons/clipboard/clipboard_outline">
            <rect id="Rectangle" x="0" y="0" width="24" height="24"></rect>
            <path d="M14.2955966,2 C15.1383917,2 15.8455484,2.56783212 16.0387325,3.33356972 L16.7727273,3.33333333 C18.2638961,3.33333333 19.4755506,4.50348191 19.4996346,5.95590179 L19.5,6 L19.5,19.3333333 C19.5,20.7913651 18.3032571,21.976094 16.8178277,21.9996427 L7.22727273,22 C5.7361039,22 4.52444935,20.8298514 4.50036538,19.3774315 L4.5,6 C4.5,4.54196826 5.69674286,3.35723937 7.18217229,3.33369059 L7.96126747,3.33356972 C8.15445158,2.56783212 8.86160825,2 9.70440341,2 L9.70440341,2 Z M16.0387325,4.66643028 C15.8455484,5.43216788 15.1383917,6 14.2955966,6 L14.2955966,6 L9.70440341,6 C8.86160825,6 8.15445158,5.43216788 7.96126747,4.66643028 L7.22727273,4.66666667 C6.48168832,4.66666667 5.87586104,5.25174096 5.86381905,5.9779509 L5.86363636,19.3333333 C5.86363636,20.0623492 6.4620078,20.6547137 7.20472251,20.666488 L16.7727273,20.6666667 C17.5183117,20.6666667 18.124139,20.0815924 18.1361809,19.3553824 L18.1363636,6 C18.1363636,5.27098413 17.5379922,4.67861968 16.7952775,4.6668453 Z M14.2955966,3.33333333 L9.70440341,3.33333333 C9.46599526,3.33333333 9.27272727,3.52230648 9.27272727,3.75541667 L9.27272727,3.75541667 L9.27272727,4.24458333 C9.27272727,4.47769352 9.46599526,4.66666667 9.70440341,4.66666667 L9.70440341,4.66666667 L14.2955966,4.66666667 C14.5340047,4.66666667 14.7272727,4.47769352 14.7272727,4.24458333 L14.7272727,4.24458333 L14.7272727,3.75541667 C14.7272727,3.52230648 14.5340047,3.33333333 14.2955966,3.33333333 L14.2955966,3.33333333 Z" id="Combined-Shape" fill="#000000" fill-rule="nonzero"></path>
        </g>
    </g>
</svg>