<?xml version="1.0" encoding="UTF-8"?>
<svg width="24px" height="24px" viewBox="0 0 24 24" version="1.1" xmlns="http://www.w3.org/2000/svg" xmlns:xlink="http://www.w3.org/1999/xlink">
    <title>VSQUARE/4) Icons/close_circle/close_circle_outline</title>
    <g id="VSQUARE_Symbols" stroke="none" stroke-width="1" fill="none" fill-rule="evenodd">
        <g id="VSQUARE/4)-Icons/close_circle/close_circle_outline">
            <rect id="Rectangle" x="0" y="0" width="24" height="24"></rect>
            <path d="M12,3 C16.9688894,3 21,7.03111056 21,12 C21,16.9688894 16.9688894,21 12,21 C7.03111056,21 3,16.9688894 3,12 C3,7.03111056 7.03111056,3 12,3 Z M12,4.38461538 C7.79581252,4.38461538 4.38461538,7.79581252 4.38461538,12 C4.38461538,16.2041875 7.79581252,19.6153846 12,19.6153846 C16.2041875,19.6153846 19.6153846,16.2041875 19.6153846,12 C19.6153846,7.79581252 16.2041875,4.38461538 12,4.38461538 Z M15.2587662,8.74123377 C15.5253742,9.0078417 15.5290771,9.43779788 15.2698749,9.70894326 L15.2587662,9.72030469 L12.979,12 L15.2587662,14.2796953 C15.5291292,14.5500583 15.5291292,14.9884033 15.2587662,15.2587662 C14.9921583,15.5253742 14.5622021,15.5290771 14.2910567,15.2698749 L14.2796953,15.2587662 L12,12.979 L9.72030469,15.2587662 C9.44994172,15.5291292 9.01159674,15.5291292 8.74123377,15.2587662 C8.47462584,14.9921583 8.47092295,14.5622021 8.7301251,14.2910567 L8.74123377,14.2796953 L11.021,12 L8.74123377,9.72030469 C8.4708708,9.44994172 8.4708708,9.01159674 8.74123377,8.74123377 C9.0078417,8.47462584 9.43779788,8.47092295 9.70894326,8.7301251 L9.72030469,8.74123377 L12,11.021 L14.2796953,8.74123377 C14.5500583,8.4708708 14.9884033,8.4708708 15.2587662,8.74123377 Z" id="Combined-Shape" fill="#000000" fill-rule="nonzero"></path>
        </g>
    </g>
</svg>