<?xml version="1.0" encoding="UTF-8"?>
<svg width="24px" height="24px" viewBox="0 0 24 24" version="1.1" xmlns="http://www.w3.org/2000/svg" xmlns:xlink="http://www.w3.org/1999/xlink">
    <title>VSQUARE/4) Icons/close/close_outline</title>
    <g id="VSQUARE_Symbols" stroke="none" stroke-width="1" fill="none" fill-rule="evenodd">
        <g id="VSQUARE/4)-Icons/close/close_outline">
            <rect id="Rectangle" x="0" y="0" width="24" height="24"></rect>
            <path d="M17.2986359,6.70136409 C17.5633924,6.96612057 17.5670696,7.39309095 17.3096674,7.66235338 L12.972,12 L17.2986359,16.3263641 C17.5671214,16.5948495 17.5671214,17.0301505 17.2986359,17.2986359 C17.0338794,17.5633924 16.6069091,17.5670696 16.3376466,17.3096674 L12,12.972 L7.67363591,17.2986359 C7.40515046,17.5671214 6.96984954,17.5671214 6.70136409,17.2986359 C6.4366076,17.0338794 6.43293043,16.6069091 6.69033257,16.3376466 L11.028,12 L6.70136409,7.67363591 C6.43287864,7.40515046 6.43287864,6.96984954 6.70136409,6.70136409 C6.96612057,6.4366076 7.39309095,6.43293043 7.66235338,6.69033257 L12,11.028 L16.3263641,6.70136409 C16.5948495,6.43287864 17.0301505,6.43287864 17.2986359,6.70136409 Z" id="Combined-Shape" fill="#000000" fill-rule="nonzero"></path>
        </g>
    </g>
</svg>