<?xml version="1.0" encoding="UTF-8"?>
<svg width="24px" height="24px" viewBox="0 0 24 24" version="1.1" xmlns="http://www.w3.org/2000/svg" xmlns:xlink="http://www.w3.org/1999/xlink">
    <title>VSQUARE/4) Icons/close_circle/close_circle</title>
    <g id="VSQUARE_Symbols" stroke="none" stroke-width="1" fill="none" fill-rule="evenodd">
        <g id="VSQUARE/4)-Icons/close_circle/close_circle">
            <rect id="Rectangle" x="0" y="0" width="24" height="24"></rect>
            <path d="M12,3 C7.03745192,3 3,7.03745192 3,12 C3,16.9625481 7.03745192,21 12,21 C16.9625481,21 21,16.9625481 21,12 C21,7.03745192 16.9625481,3 12,3 Z M15.2586058,14.2798558 C15.4409847,14.4531263 15.5150202,14.7116928 15.4519867,14.9552324 C15.3889533,15.198772 15.198772,15.3889533 14.9552324,15.4519867 C14.7116928,15.5150202 14.4531263,15.4409847 14.2798558,15.2586058 L12,12.9791827 L9.72014423,15.2586058 C9.44795356,15.5172027 9.01924773,15.5117139 8.75376691,15.2462331 C8.4882861,14.9807523 8.48279731,14.5520464 8.74139423,14.2798558 L11.0208173,12 L8.74139423,9.72014423 C8.48279731,9.44795356 8.4882861,9.01924773 8.75376691,8.75376691 C9.01924773,8.4882861 9.44795356,8.48279731 9.72014423,8.74139423 L12,11.0208173 L14.2798558,8.74139423 C14.5520464,8.48279731 14.9807523,8.4882861 15.2462331,8.75376691 C15.5117139,9.01924773 15.5172027,9.44795356 15.2586058,9.72014423 L12.9791827,12 L15.2586058,14.2798558 Z" id="Shape" fill="#000000" fill-rule="nonzero"></path>
        </g>
    </g>
</svg>