<?xml version="1.0" encoding="UTF-8"?>
<svg width="24px" height="24px" viewBox="0 0 24 24" version="1.1" xmlns="http://www.w3.org/2000/svg" xmlns:xlink="http://www.w3.org/1999/xlink">
    <title>VSQUARE/4) Icons/close/close</title>
    <g id="VSQUARE_Symbols" stroke="none" stroke-width="1" fill="none" fill-rule="evenodd">
        <g id="VSQUARE/4)-Icons/close/close">
            <rect id="Rectangle" x="0" y="0" width="24" height="24"></rect>
            <path d="M13.3721535,12 L17.2128896,8.15926391 C17.5924692,7.78035418 17.5930122,7.16547712 17.2141025,6.78589754 C16.8351927,6.40631797 16.2203157,6.40577495 15.8407361,6.78468468 L12,10.6254208 L8.15926391,6.78468468 C7.77968434,6.40510511 7.16426425,6.40510511 6.78468468,6.78468468 C6.40510511,7.16426425 6.40510511,7.77968434 6.78468468,8.15926391 L10.6254208,12 L6.78468468,15.8407361 C6.40510511,16.2203157 6.40510511,16.8357357 6.78468468,17.2153153 C7.16426425,17.5948949 7.77968434,17.5948949 8.15926391,17.2153153 L12,13.3745792 L15.8407361,17.2153153 C16.2203157,17.5948949 16.8357357,17.5948949 17.2153153,17.2153153 C17.5948949,16.8357357 17.5948949,16.2203157 17.2153153,15.8407361 L13.3721535,12 Z" id="Path" fill="#000000" fill-rule="nonzero"></path>
        </g>
    </g>
</svg>