<?xml version="1.0" encoding="UTF-8"?>
<svg width="24px" height="24px" viewBox="0 0 24 24" version="1.1" xmlns="http://www.w3.org/2000/svg" xmlns:xlink="http://www.w3.org/1999/xlink">
    <title>VSQUARE/4) Icons/cloud_upload/cloud_upload</title>
    <g id="VSQUARE_Symbols" stroke="none" stroke-width="1" fill="none" fill-rule="evenodd">
        <g id="VSQUARE/4)-Icons/cloud_upload/cloud_upload">
            <rect id="Rectangle" x="0" y="0" width="24" height="24"></rect>
            <path d="M12.6875,17.5237981 L12.6875,20.3083906 C12.6875,20.6903559 12.3796958,21 12,21 C11.6203042,21 11.3125,20.6903559 11.3125,20.3083906 L11.3125,20.3083906 L11.3125,17.5237981 L12.6875,17.5237981 Z M12,3 C13.7277734,3 15.3580078,3.62504202 16.5907812,4.76144277 C17.65125,5.73747659 18.3726953,7.02559915 18.7078516,8.52768839 C18.7660461,8.79093626 18.9701008,8.99671585 19.2316406,9.0559051 C20.0119531,9.23356227 20.7510156,9.56294126 21.3525781,10.0116229 C22.4302344,10.8147543 23,11.9243552 23,13.2185294 C23,14.5511743 22.4719141,15.6707171 21.4724609,16.4531002 C20.5898828,17.1434129 19.3622656,17.5237981 18.015625,17.5237981 L18.015625,17.5237981 L12.6875,17.5237981 L12.6875,10.8942894 L14.2648828,12.4802363 C14.3942474,12.6102921 14.5697933,12.6831341 14.7526841,12.6826474 C14.935575,12.6821606 15.1107353,12.6083853 15.2394141,12.4776428 C15.5079687,12.2048893 15.4925,11.7592335 15.2226562,11.4873445 L15.2226562,11.4873445 L12.4859766,8.73560348 C12.2175276,8.46572686 11.7824724,8.46572686 11.5140234,8.73560348 L11.5140234,8.73560348 L8.77734375,11.488209 C8.51566406,11.7514529 8.49160156,12.180683 8.74082031,12.45603 C8.86724412,12.5961303 9.04520715,12.678006 9.23324401,12.6825798 C9.42128087,12.6871536 9.60296955,12.6140262 9.73597656,12.4802363 L9.73597656,12.4802363 L11.3125,10.8942894 L11.3125,17.5237981 L6.84375,17.5237981 C5.28527344,17.5237981 3.83207031,17.0072523 2.75269531,16.0696893 C1.62261719,15.0858748 1,13.7251333 1,12.2329859 C1,10.756832 1.57835938,9.46395466 2.67234375,8.4913789 C3.4646875,7.78896307 4.50238281,7.29316555 5.65179688,7.05974737 C5.86494841,7.01645129 6.04517255,6.87426354 6.13777344,6.67633639 C6.55898053,5.78424275 7.17711163,5.00067708 7.94503906,4.38538015 C9.078125,3.47893953 10.4810547,3 12,3 Z" id="Combined-Shape" fill="#000000" fill-rule="nonzero"></path>
        </g>
    </g>
</svg>