<?xml version="1.0" encoding="UTF-8"?>
<svg width="24px" height="24px" viewBox="0 0 24 24" version="1.1" xmlns="http://www.w3.org/2000/svg" xmlns:xlink="http://www.w3.org/1999/xlink">
    <title>VSQUARE/4) Icons/cloud_upload/cloud_upload_sharp</title>
    <g id="VSQUARE_Symbols" stroke="none" stroke-width="1" fill="none" fill-rule="evenodd">
        <g id="VSQUARE/4)-Icons/cloud_upload/cloud_upload_sharp">
            <rect id="Rectangle" x="0" y="0" width="24" height="24"></rect>
            <path d="M12.6875,17.5241469 L12.6875,21 L11.3125,21 L11.3125,17.5241469 L12.6875,17.5241469 Z M12,3 C13.7277734,3 15.3580078,3.62505704 16.5907812,4.76191734 C17.7548047,5.83307317 18.510625,7.28073293 18.7950781,8.9743522 C19.7326563,9.11483874 20.6410156,9.48010374 21.3525781,10.0117913 C22.4302344,10.814942 23,11.9245695 23,13.2187748 C23,14.5514517 22.4719141,15.6710213 21.4724609,16.4534233 C20.5898828,17.1437526 19.3622656,17.5241469 18.015625,17.5241469 L18.015625,17.5241469 L12.6875,17.5241469 L12.6875,10.894479 L14.75,12.9693571 L15.7223828,11.9911385 L12,8.24684806 L8.27761719,11.9911385 L9.25,12.9693571 L11.3125,10.894479 L11.3125,17.5241469 L6.84375,17.5241469 C5.28527344,17.5241469 3.83207031,17.0075887 2.75269531,16.0700031 C1.62261719,15.0861651 1,13.7253908 1,12.2332077 C1,10.7570183 1.57835938,9.46410989 2.67234375,8.4936721 C3.54332031,7.72121227 4.71121094,7.19903461 5.99769531,7.00019212 C6.41364983,5.97529363 7.08416224,5.07496899 7.94503906,4.38541341 C9.078125,3.47895103 10.4810547,3 12,3 Z" id="Combined-Shape" fill="#000000" fill-rule="nonzero"></path>
        </g>
    </g>
</svg>