<?xml version="1.0" encoding="UTF-8"?>
<svg width="24px" height="24px" viewBox="0 0 24 24" version="1.1" xmlns="http://www.w3.org/2000/svg" xmlns:xlink="http://www.w3.org/1999/xlink">
    <title>VSQUARE/4) Icons/cloud_download/cloud_download</title>
    <g id="VSQUARE_Symbols" stroke="none" stroke-width="1" fill="none" fill-rule="evenodd">
        <g id="VSQUARE/4)-Icons/cloud_download/cloud_download">
            <rect id="Rectangle" x="0" y="0" width="24" height="24"></rect>
            <path d="M21.3113281,9.17979784 C20.7415625,8.82226961 20.0295703,8.56228764 19.2453906,8.41936117 C18.9752817,8.36830768 18.7619866,8.16328426 18.703125,7.89812488 C18.3653906,6.43450696 17.6460937,5.17828085 16.5912109,4.22614459 C15.3580078,3.11284494 13.7277734,2.5 12,2.5 C10.4810547,2.5 9.078125,2.96991848 7.94503906,3.85716528 C7.17976738,4.45939275 6.5633613,5.22559883 6.1425,6.09776032 C6.04750245,6.29731265 5.86046546,6.4390901 5.640625,6.47819071 C4.47488281,6.68600665 3.46941406,7.10079029 2.70113281,7.69539832 C1.58867187,8.55762239 1,9.77610234 1,11.2197869 C1,14.0783163 3.40324219,16.0716528 6.84375,16.0716528 L11.3125,16.0716528 L11.3125,10.6620768 C11.3125,10.2969145 11.5969531,9.98349415 11.9669141,9.96525725 C12.1547632,9.95632391 12.3381196,10.0237365 12.4742713,10.1517916 C12.6104231,10.2798467 12.6874828,10.4573639 12.6875,10.6429917 L12.6875,16.0716528 L18.015625,16.0716528 C21.136875,16.0716528 23,14.6194859 23,12.1867672 C23,10.9123041 22.4160547,9.87237625 21.3113281,9.17979784 Z M11.3125,19.1854988 L9.73554687,17.6315446 C9.46569064,17.373413 9.03584889,17.3769736 8.77042,17.6395393 C8.50499112,17.902105 8.50233363,18.3263782 8.76445312,18.5921631 L11.5144531,21.3018284 C11.7828033,21.5660572 12.2171967,21.5660572 12.4855469,21.3018284 L15.2355469,18.5921631 C15.4976664,18.3263782 15.4950089,17.902105 15.22958,17.6395393 C14.9641511,17.3769736 14.5343094,17.373413 14.2644531,17.6315446 L12.6875,19.1854988 L12.6875,16.0716528 L11.3125,16.0716528 L11.3125,19.1854988 Z" id="Combined-Shape" fill="#000000" fill-rule="nonzero"></path>
        </g>
    </g>
</svg>