<?xml version="1.0" encoding="UTF-8"?>
<svg width="24px" height="24px" viewBox="0 0 24 24" version="1.1" xmlns="http://www.w3.org/2000/svg" xmlns:xlink="http://www.w3.org/1999/xlink">
    <title>VSQUARE/4) Icons/cloud_upload/cloud_upload_outline</title>
    <g id="VSQUARE_Symbols" stroke="none" stroke-width="1" fill="none" fill-rule="evenodd">
        <g id="VSQUARE/4)-Icons/cloud_upload/cloud_upload_outline">
            <rect id="Rectangle" x="0" y="0" width="24" height="24"></rect>
            <path d="M12.4748534,8.72434572 L12.4861359,8.73544318 L15.2361359,11.5018809 C15.5046214,11.7719712 15.5046214,12.2098741 15.2361359,12.4799643 C14.9713794,12.7463034 14.5444091,12.7500025 14.2751466,12.4910618 L14.2638641,12.4799643 L12.687,10.893 L12.6875,20.3083906 C12.6875,20.6903559 12.3796958,21 12,21 C11.6248244,21 11.3198389,20.6976845 11.3126305,20.322001 L11.312,10.894 L9.73613591,12.4799643 C9.47137943,12.7463034 9.04440905,12.7500025 8.77514662,12.4910618 L8.76386409,12.4799643 C8.4991076,12.2136253 8.49543043,11.7841028 8.75283257,11.5132309 L8.76386409,11.5018809 L11.5138641,8.73544318 C11.7786206,8.46910415 12.2055909,8.46540499 12.4748534,8.72434572 Z M12,3 C15.4297085,3 18.1781057,5.37133111 18.792253,8.95691209 L18.7946484,8.97144229 L18.8287906,8.97669601 C19.7268306,9.11666089 20.6117978,9.46443631 21.3228881,9.98719825 L21.3528302,10.0093908 C22.393704,10.787193 23,11.8923479 23,13.2185294 C23,15.8430427 20.9284165,17.4906135 18.1015184,17.5233025 L14.75,17.5237981 C14.3703042,17.5237981 14.0625,17.214154 14.0625,16.8321887 C14.0625,16.4547705 14.3630192,16.147962 14.7364704,16.1407105 L18.015625,16.1405792 C19.067053,16.1405792 19.98732,15.8626674 20.6281337,15.3611343 C21.2752916,14.8546359 21.625,14.1350505 21.625,13.2185294 C21.625,12.351058 21.2389572,11.6473802 20.532912,11.1197816 C19.8847514,10.6354379 19.00129,10.3378794 18.1534865,10.2956326 C17.8197354,10.2790014 17.5469796,10.0235791 17.5054079,9.69146311 L17.5037244,9.67676169 C17.1706945,6.47126747 14.9016242,4.38321887 12,4.38321887 C10.7579783,4.38321887 9.67365475,4.77029622 8.80043716,5.46814533 C8.02029285,6.0916131 7.44194438,6.94363869 7.15467097,7.84494782 C7.07070889,8.10837557 6.838781,8.29612994 6.56501976,8.32229271 C5.39379762,8.43422389 4.33518133,8.86282636 3.58159539,9.53114776 C2.80067923,10.2237071 2.375,11.1416943 2.375,12.2329859 C2.375,14.4471454 4.26005711,16.1071013 6.76757537,16.140079 L9.25,16.1405792 C9.62969577,16.1405792 9.9375,16.4502233 9.9375,16.8321887 C9.9375,17.2096068 9.63698081,17.5164154 9.2635296,17.5237981 L6.84375,17.5237981 C3.58004978,17.5237981 1,15.2821459 1,12.2329859 C1,10.73823 1.59981797,9.44470846 2.67231086,8.49356287 C3.54568251,7.71900893 4.69735521,7.206426 5.96143738,7.00542813 L5.99765234,6.99975025 L6.00449088,6.98281093 C6.40182615,6.00363354 7.06058131,5.10124997 7.91347161,4.41057527 L7.94514878,4.38509179 C9.05958576,3.49446742 10.4447421,3 12,3 Z" id="Combined-Shape" fill="#000000" fill-rule="nonzero"></path>
        </g>
    </g>
</svg>