<?xml version="1.0" encoding="UTF-8"?>
<svg width="24px" height="24px" viewBox="0 0 24 24" version="1.1" xmlns="http://www.w3.org/2000/svg" xmlns:xlink="http://www.w3.org/1999/xlink">
    <title>VSQUARE/4) Icons/cloud/cloud</title>
    <g id="VSQUARE_Symbols" stroke="none" stroke-width="1" fill="none" fill-rule="evenodd">
        <g id="VSQUARE/4)-Icons/cloud/cloud">
            <rect id="Rectangle" x="0" y="0" width="24" height="24"></rect>
            <path d="M18.015625,19.5 L6.84375,19.5 C5.27796875,19.5 3.82046875,18.9643488 2.73980469,17.9910574 C1.61789063,16.9806922 1,15.5795617 1,14.0454771 C1,12.4866767 1.57535156,11.1426482 2.66375,10.1582773 C3.44191406,9.45387679 4.47789062,8.95444703 5.63632813,8.71495939 C5.85294799,8.67050558 6.03476681,8.52539685 6.12488281,8.32504623 C6.53733214,7.40425672 7.15512783,6.58831154 7.93171875,5.93869246 C9.0678125,4.9982134 10.4746094,4.5 12,4.5 C13.7158574,4.49265646 15.3671462,5.148383 16.6036719,6.32817949 C17.6662891,7.34280597 18.386875,8.68385156 18.716875,10.2486178 C18.7709949,10.5106927 18.9746527,10.7171659 19.2376563,10.7765986 C21.1953125,11.2082729 23,12.6149433 23,15.0682002 C23,16.4910636 22.4740625,17.6582463 21.4784766,18.4444646 C20.6036328,19.1348026 19.4065234,19.5 18.015625,19.5 Z" id="Path" fill="#000000" fill-rule="nonzero"></path>
        </g>
    </g>
</svg>