<?xml version="1.0" encoding="UTF-8"?>
<svg width="24px" height="24px" viewBox="0 0 24 24" version="1.1" xmlns="http://www.w3.org/2000/svg" xmlns:xlink="http://www.w3.org/1999/xlink">
    <title>VSQUARE/4) Icons/cloud_download/cloud_download_sharp</title>
    <g id="VSQUARE_Symbols" stroke="none" stroke-width="1" fill="none" fill-rule="evenodd">
        <g id="VSQUARE/4)-Icons/cloud_download/cloud_download_sharp">
            <rect id="Rectangle" x="0" y="0" width="24" height="24"></rect>
            <path d="M21.3113281,9.1796875 C20.6341406,8.75558036 19.7554297,8.46761161 18.7937891,8.35098214 C18.5080469,6.69272321 17.7530859,5.27535714 16.5907812,4.22611607 C15.3580078,3.11283482 13.7277734,2.5 12,2.5 C10.4810547,2.5 9.078125,2.96991071 7.94503906,3.85714286 C7.08517016,4.53313284 6.41517137,5.41534957 5.99898438,6.41959821 C4.68113281,6.6028125 3.54976563,7.03921875 2.70285156,7.69191964 C1.58867187,8.55752232 1,9.77598214 1,11.2196429 C1,14.078125 3.4028125,16.0714286 6.84375,16.0714286 L11.3125,16.0714286 L11.3125,9.96428571 L12.6875,9.96428571 L12.6875,16.0714286 L18.015625,16.0714286 C21.136875,16.0714286 23,14.6192857 23,12.1866071 C23,10.9121652 22.4160547,9.87225446 21.3113281,9.1796875 Z M11.3125,18.9307589 L9.24914062,16.8772321 L8.27761719,17.8526786 L12,21.5 L15.7223828,17.8526786 L14.7508594,16.8772321 L12.6875,18.9307589 L12.6875,16.0714286 L11.3125,16.0714286 L11.3125,18.9307589 L11.3125,18.9307589 Z" id="Combined-Shape" fill="#000000" fill-rule="nonzero"></path>
        </g>
    </g>
</svg>