<?xml version="1.0" encoding="UTF-8"?>
<svg width="24px" height="24px" viewBox="0 0 24 24" version="1.1" xmlns="http://www.w3.org/2000/svg" xmlns:xlink="http://www.w3.org/1999/xlink">
    <title>VSQUARE/4) Icons/cloud/cloud_sharp</title>
    <g id="VSQUARE_Symbols" stroke="none" stroke-width="1" fill="none" fill-rule="evenodd">
        <g id="VSQUARE/4)-Icons/cloud/cloud_sharp">
            <rect id="Rectangle" x="0" y="0" width="24" height="24"></rect>
            <path d="M18.015625,19.5 L6.84375,19.5 C5.27796875,19.5 3.82046875,18.9643488 2.73980469,17.9910574 C1.61789063,16.9806922 1,15.5795617 1,14.0454771 C1,12.4866767 1.57535156,11.1426482 2.66375,10.1582773 C3.52011719,9.38313844 4.6884375,8.85600994 5.98867187,8.6510392 C6.39500858,7.5991879 7.06349853,6.66661283 7.93171875,5.940397 C9.0678125,4.9982134 10.4746094,4.5 12,4.5 C13.7158574,4.49265646 15.3671462,5.148383 16.6036719,6.32817949 C17.7664062,7.43868626 18.5196484,8.93953232 18.7998047,10.6943546 C20.9185937,11.0054329 23,12.4325576 23,15.0682002 C23,16.4910636 22.4740625,17.6582463 21.4784766,18.4444646 C20.6036328,19.1348026 19.4065234,19.5 18.015625,19.5 Z" id="Path" fill="#000000" fill-rule="nonzero"></path>
        </g>
    </g>
</svg>