<?xml version="1.0" encoding="UTF-8"?>
<svg width="24px" height="24px" viewBox="0 0 24 24" version="1.1" xmlns="http://www.w3.org/2000/svg" xmlns:xlink="http://www.w3.org/1999/xlink">
    <title>VSQUARE/4) Icons/cloud/cloud_outline</title>
    <g id="VSQUARE_Symbols" stroke="none" stroke-width="1" fill="none" fill-rule="evenodd">
        <g id="VSQUARE/4)-Icons/cloud/cloud_outline">
            <rect id="Rectangle" x="0" y="0" width="24" height="24"></rect>
            <path d="M12,4.5 C10.4378157,4.5 9.04759616,5.01499895 7.93176434,5.94038269 L7.90052544,5.96645955 C7.04904192,6.68188946 6.39296891,7.61505693 5.9985,8.62578031 L5.98880078,8.65073864 L5.95287274,8.65647228 C4.67694569,8.86221772 3.52994666,9.37437816 2.66364489,10.1580312 C1.59071687,11.1285974 1,12.4628364 1,14.0454545 C1,17.1853156 3.57032514,19.5 6.84375,19.5 L18.015625,19.5 C20.9548903,19.5 23,17.8852667 23,15.0681818 C23,13.6638598 22.403096,12.5221266 21.3604903,11.7314372 L21.3311305,11.7093553 C20.6240517,11.1819441 19.7416905,10.8385551 18.8320827,10.6994977 L18.7990313,10.6945313 L18.7929855,10.656337 C18.1813338,6.95569277 15.4378371,4.5 12,4.5 Z M12,5.86363636 C14.8642383,5.86363636 17.1224687,7.99272842 17.4927231,11.2854116 L17.5033637,11.3855451 C17.5369316,11.7208468 17.8124365,11.9815478 18.1517345,11.9990768 C19.0177497,12.0438173 19.8900698,12.3329484 20.5252519,12.8146566 C21.2351455,13.3530244 21.625,14.0987219 21.625,15.0681818 C21.625,16.1009094 21.2727154,16.8638112 20.6220829,17.3775235 C19.9970139,17.8710519 19.0882448,18.1363636 18.015625,18.1363636 L6.84375,18.1363636 C4.30170809,18.1363636 2.375,16.4012831 2.375,14.0454545 C2.375,12.8452957 2.80367604,11.8770547 3.59026136,11.1655129 C4.33276107,10.4938507 5.38222612,10.0687997 6.56840881,9.95116172 C6.84443847,9.92378688 7.07683468,9.73457406 7.15766662,9.47139858 C7.44778357,8.52682563 8.0303376,7.63622432 8.81382159,6.9864639 C9.68564434,6.26344223 10.7649046,5.86363636 12,5.86363636 Z" id="Path" fill="#000000" fill-rule="nonzero"></path>
        </g>
    </g>
</svg>