<?xml version="1.0" encoding="UTF-8"?>
<svg width="24px" height="24px" viewBox="0 0 24 24" version="1.1" xmlns="http://www.w3.org/2000/svg" xmlns:xlink="http://www.w3.org/1999/xlink">
    <title>VSQUARE/4) Icons/cloud_download/cloud_download_outline</title>
    <g id="VSQUARE_Symbols" stroke="none" stroke-width="1" fill="none" fill-rule="evenodd">
        <g id="VSQUARE/4)-Icons/cloud_download/cloud_download_outline">
            <rect id="Rectangle" x="0" y="0" width="24" height="24"></rect>
            <path d="M12,9.96428571 C12.3751756,9.96428571 12.6801611,10.2609021 12.6873695,10.6295033 L12.687,19.184 L14.2642443,17.6311865 C14.5329396,17.3663951 14.9682404,17.366731 15.2365159,17.6319368 C15.5010653,17.8934591 15.5044086,18.3148871 15.246796,18.5804539 L15.2357557,18.5915814 L12.4857557,21.301626 C12.2210852,21.5624511 11.7946859,21.5660736 11.5255229,21.3124937 L11.5142443,21.301626 L8.76424433,18.5915814 C8.49554904,18.32679 8.4952087,17.8971425 8.76348415,17.6319368 C9.02803355,17.3704144 9.45500092,17.3664555 9.72446451,17.6203069 L9.73575567,17.6311865 L11.312,19.185 L11.3125,10.6428571 C11.3125,10.2680925 11.6203042,9.96428571 12,9.96428571 Z M12,2.5 C15.4297085,2.5 18.1781057,4.82662752 18.792253,8.34461425 L18.7932734,8.35068527 L18.8238138,8.35438004 C19.7318951,8.46694612 20.5874759,8.73384324 21.2792819,9.15954217 L21.3115899,9.17961314 C22.3831767,9.85169508 23,10.8738931 23,12.1866071 C23,13.513205 22.4459921,14.5509215 21.4320406,15.2190996 C20.5668267,15.789262 19.40432,16.0655827 18.0586345,16.0714286 L14.75,16.0714286 C14.3703042,16.0714286 14.0625,15.7676218 14.0625,15.3928571 C14.0625,15.022554 14.3630192,14.7215293 14.7364704,14.7144145 L18.015625,14.7142857 C19.1296659,14.7142857 20.0486478,14.4989065 20.6685454,14.0904037 C21.2977829,13.675746 21.625,13.0628332 21.625,12.1866071 C21.625,11.3571258 21.2628806,10.7570225 20.5741523,10.3250632 C19.9492216,9.93311677 19.0758498,9.70319339 18.1534865,9.65809759 C17.8197354,9.64177998 17.5469796,9.39117276 17.5054079,9.06531774 L17.5037244,9.05089347 C17.1706945,5.90582823 14.9016242,3.85714286 12,3.85714286 C10.7579783,3.85714286 9.67365475,4.23692315 8.80043716,4.92161663 C8.02029285,5.53333097 7.44194438,6.36929445 7.15467097,7.25361238 C7.07070889,7.51207407 6.838781,7.69628896 6.56501976,7.72195852 C5.33622263,7.8371782 4.28310199,8.19695749 3.5511399,8.76338069 C2.78232431,9.35832268 2.375,10.1682923 2.375,11.2196429 C2.375,12.2836851 2.81380087,13.1476239 3.62217666,13.7633652 C4.41599273,14.3680163 5.5394237,14.707318 6.80457658,14.7141796 L9.25,14.7142857 C9.62969577,14.7142857 9.9375,15.0180925 9.9375,15.3928571 C9.9375,15.7631603 9.63698081,16.064185 9.2635296,16.0714286 L6.84375,16.0714286 C3.50006324,16.0714286 1,14.167126 1,11.2196429 C1,9.74737809 1.60456509,8.54519269 2.70276635,7.69535815 C3.55385559,7.03674933 4.67395366,6.61271187 5.94477438,6.42910907 L5.99885547,6.42142188 L6.00449088,6.40772822 C6.40182615,5.44700998 7.06058131,4.56163786 7.91347161,3.88398355 L7.94514878,3.85898047 C9.05958576,2.98514588 10.4447421,2.5 12,2.5 Z" id="Combined-Shape" fill="#000000" fill-rule="nonzero"></path>
        </g>
    </g>
</svg>