<?xml version="1.0" encoding="UTF-8"?>
<svg width="24px" height="24px" viewBox="0 0 24 24" version="1.1" xmlns="http://www.w3.org/2000/svg" xmlns:xlink="http://www.w3.org/1999/xlink">
    <title>VSQUARE/4) Icons/copy/copy_sharp</title>
    <g id="VSQUARE_Symbols" stroke="none" stroke-width="1" fill="none" fill-rule="evenodd">
        <g id="VSQUARE/4)-Icons/copy/copy_sharp">
            <rect id="Rectangle" x="0" y="0" width="24" height="24"></rect>
            <path d="M20.9285714,5.57142857 C21.5203051,5.57142857 22,6.05112348 22,6.64285714 L22,20.9285714 C22,21.5203051 21.5203051,22 20.9285714,22 L6.64285714,22 C6.05112348,22 5.57142857,21.5203051 5.57142857,20.9285714 L5.57142857,6.28571429 C5.57142857,5.89122518 5.89122518,5.57142857 6.28571429,5.57142857 L20.9285714,5.57142857 Z M17.3571429,2 C17.9488765,2 18.4285714,2.47969491 18.4285714,3.07142857 L18.4285714,3.07142857 L18.4285714,4.14285714 L5.57142857,4.14285714 C4.78245036,4.14285714 4.14285714,4.78245036 4.14285714,5.57142857 L4.14285714,5.57142857 L4.14285714,18.4285714 L3.07142857,18.4285714 C2.47969491,18.4285714 2,17.9488765 2,17.3571429 L2,17.3571429 L2,3.25 C2,2.55964406 2.55964406,2 3.25,2 L3.25,2 Z" id="Combined-Shape" fill="#000000" fill-rule="nonzero"></path>
        </g>
    </g>
</svg>