<?xml version="1.0" encoding="UTF-8"?>
<svg width="24px" height="24px" viewBox="0 0 24 24" version="1.1" xmlns="http://www.w3.org/2000/svg" xmlns:xlink="http://www.w3.org/1999/xlink">
    <title>VSQUARE/4) Icons/copy/copy</title>
    <g id="VSQUARE_Symbols" stroke="none" stroke-width="1" fill="none" fill-rule="evenodd">
        <g id="VSQUARE/4)-Icons/copy/copy">
            <rect id="Rectangle" x="0" y="0" width="24" height="24"></rect>
            <path d="M18.7857143,5.57142857 C20.5609153,5.57142857 22,7.0105133 22,8.78571429 L22,18.7857143 C22,20.5609153 20.5609153,22 18.7857143,22 L8.78571429,22 C7.0105133,22 5.57142857,20.5609153 5.57142857,18.7857143 L5.57142857,8.78571429 C5.57142857,7.0105133 7.0105133,5.57142857 8.78571429,5.57142857 L18.7857143,5.57142857 Z M15.2142857,2 C16.575899,2.00164386 17.7892621,2.85964959 18.2446429,4.14285714 L18.2446429,4.14285714 L7.71428571,4.14285714 C5.74184018,4.14285714 4.14285714,5.74184018 4.14285714,7.71428571 L4.14285714,7.71428571 L4.14285714,18.2446429 C2.85964959,17.7892621 2.00164386,16.575899 2,15.2142857 L2,15.2142857 L2,5.21428571 C2,3.43908473 3.43908473,2 5.21428571,2 L5.21428571,2 Z" id="Combined-Shape" fill="#000000" fill-rule="nonzero"></path>
        </g>
    </g>
</svg>