<?xml version="1.0" encoding="UTF-8"?>
<svg width="24px" height="24px" viewBox="0 0 24 24" version="1.1" xmlns="http://www.w3.org/2000/svg" xmlns:xlink="http://www.w3.org/1999/xlink">
    <title>VSQUARE/4) Icons/create/create_outline</title>
    <g id="VSQUARE_Symbols" stroke="none" stroke-width="1" fill="none" fill-rule="evenodd">
        <g id="VSQUARE/4)-Icons/create/create_outline">
            <rect id="Rectangle" x="0" y="0" width="24" height="24"></rect>
            <path d="M12.7069987,5.42308855 C13.1105906,5.42308855 13.4377665,5.75026484 13.4377665,6.15385725 C13.4377665,6.55264499 13.1183341,6.87682521 12.7213798,6.88448727 L5.05768717,6.88462595 C4.45835321,6.88462595 3.97136226,7.36562418 3.96168238,7.96265211 L3.96153552,18.9423095 C3.96153552,19.5416443 4.44253313,20.0286358 5.03956029,20.0383157 L16.0192036,20.0384626 C16.3099211,20.0384626 16.5887315,19.9229754 16.7942999,19.7174068 C16.9949737,19.5167327 17.1098048,19.2462626 17.1151592,18.963054 L17.1153552,10.5384695 C17.1153552,10.1348771 17.4425311,9.80770076 17.846123,9.80770076 C18.2449102,9.80770076 18.56909,10.1271335 18.5768908,10.5240884 L18.5768908,18.9423095 C18.5768908,19.6206512 18.3074209,20.2712098 17.8277615,20.7508698 C17.3550537,21.2235782 16.7163653,21.4921451 16.0486787,21.4998304 L16.0192036,21.5 L5.05768717,21.5 C3.65924127,21.5 2.52292906,20.3776708 2.50034266,18.9846056 L2.5,7.98077901 C2.5,6.58233131 3.62232775,5.44601763 5.01539113,5.4234312 L12.7069987,5.42308855 Z M19.062825,4.36578717 L19.1272502,4.41828158 L19.5816964,4.87501202 C19.7203582,5.01515783 19.7376909,5.23012114 19.6336946,5.38897132 L19.5816964,5.45323276 L11.3514245,13.6990441 C11.3182338,13.7323703 11.2796972,13.7596274 11.2375771,13.7797793 L11.1719297,13.8045488 L10.036956,14.1859187 C9.97416966,14.2045303 9.90623276,14.1872835 9.85992664,14.1409773 C9.82519705,14.1062477 9.80681337,14.0593508 9.80764386,14.0115848 L9.8149853,13.9639478 L10.1963547,12.8280592 C10.2091425,12.7827962 10.2295534,12.7402354 10.2565514,12.7021393 L10.3018593,12.6485641 L18.5467466,4.41828158 C18.687126,4.27829649 18.9034576,4.26079835 19.062825,4.36578717 Z M20.7897358,2.50021351 C20.9900476,2.50504447 21.1796639,2.59160986 21.3145295,2.73979722 C21.5803463,3.03073451 21.5543127,3.4838111 21.2757075,3.76195994 L21.2757075,3.76195994 L20.7248913,4.31003647 C20.6563203,4.37892737 20.5631259,4.41765687 20.4659254,4.41765687 C20.368725,4.41765687 20.2755306,4.37892737 20.2069596,4.31003647 L20.2069596,4.31003647 L19.6890279,3.79301761 C19.5464495,3.65034554 19.5464495,3.41912755 19.6890279,3.27645548 L19.6890279,3.27645548 L20.2540028,2.71422031 C20.3958551,2.57270661 20.589424,2.49538256 20.7897358,2.50021351 Z" id="Combined-Shape" fill="#000000" fill-rule="nonzero"></path>
        </g>
    </g>
</svg>