<?xml version="1.0" encoding="UTF-8"?>
<svg width="24px" height="24px" viewBox="0 0 24 24" version="1.1" xmlns="http://www.w3.org/2000/svg" xmlns:xlink="http://www.w3.org/1999/xlink">
    <title>VSQUARE/4) Icons/create/create_sharp</title>
    <g id="VSQUARE_Symbols" stroke="none" stroke-width="1" fill="none" fill-rule="evenodd">
        <g id="VSQUARE/4)-Icons/create/create_sharp">
            <rect id="Rectangle" x="0" y="0" width="24" height="24"></rect>
            <path d="M14.904374,5.65145947 L8.6855302,11.8585044 L8.2623571,12.2808319 L8.2623571,15.7368944 L11.7179706,15.7368944 L12.1402434,15.3136663 L18.346482,9.09401461 L18.346482,21.5 L2.5,21.5 L2.5,5.65145947 L14.904374,5.65145947 Z M18.346482,7.0544155 L11.1205763,14.2961179 L9.70294637,14.2961179 L9.70294637,12.8783039 L16.9441584,5.65145947 L18.4230133,4.1751139 L19.8226358,5.57491823 L18.346482,7.0544155 Z M20.5340307,2.50028263 C20.805025,2.5067438 21.0616137,2.62366245 21.2443174,2.82393577 C21.5745906,3.19141012 21.5829003,3.73905477 21.2808268,4.11505863 L21.1988488,4.20528015 L20.3885173,5.0116647 L18.9848431,3.61141012 L19.8091303,2.78971733 C20.0011686,2.59837879 20.2630365,2.49382145 20.5340307,2.50028263 Z" id="Combined-Shape" fill="#000000" fill-rule="nonzero"></path>
        </g>
    </g>
</svg>