<?xml version="1.0" encoding="UTF-8"?>
<svg width="24px" height="24px" viewBox="0 0 24 24" version="1.1" xmlns="http://www.w3.org/2000/svg" xmlns:xlink="http://www.w3.org/1999/xlink">
    <title>VSQUARE/4) Icons/create/create</title>
    <g id="VSQUARE_Symbols" stroke="none" stroke-width="1" fill="none" fill-rule="evenodd">
        <g id="VSQUARE/4)-Icons/create/create">
            <rect id="Rectangle" x="0" y="0" width="24" height="24"></rect>
            <path d="M14.5891824,5.42308855 C14.7369726,5.42308855 14.8701679,5.51224913 14.9266551,5.64881844 C14.9831423,5.78538775 14.9517964,5.94253692 14.8472348,6.04698233 L14.8472348,6.04698233 L9.26919312,11.6149831 C9.05383288,11.8302471 8.89410022,12.094692 8.80378541,12.3854874 L8.80378541,12.3854874 L8.40780062,13.5684192 C8.24636995,14.1400632 8.40654515,14.7543169 8.82656652,15.1743388 C9.24658789,15.5943607 9.86084077,15.7545361 10.4324841,15.5931052 L10.4324841,15.5931052 L11.6154144,15.1971199 C11.9062998,15.1065413 12.1707526,14.94649 12.3859176,14.7307982 L12.3859176,14.7307982 L17.9529978,9.15274931 C18.0574431,9.04818761 18.214592,9.0168416 18.3511612,9.0733289 C18.4877303,9.12981621 18.5768908,9.26301166 18.5768908,9.41080201 L18.5768908,9.41080201 L18.5768908,18.9423095 C18.5768908,20.354883 17.4317752,21.5 16.0192036,21.5 L16.0192036,21.5 L5.05768717,21.5 C3.64511555,21.5 2.5,20.354883 2.5,18.9423095 L2.5,18.9423095 L2.5,7.98077901 C2.5,6.56820557 3.64511555,5.42308855 5.05768717,5.42308855 L5.05768717,5.42308855 Z M19.062825,4.36578717 L19.1272502,4.41828158 L19.5816964,4.87501202 C19.7203582,5.01515783 19.7376909,5.23012114 19.6336946,5.38897132 L19.5816964,5.45323276 L11.3514245,13.6990441 C11.3182338,13.7323703 11.2796972,13.7596274 11.2375771,13.7797793 L11.1719297,13.8045488 L10.036956,14.1859187 C9.97416966,14.2045303 9.90623276,14.1872835 9.85992664,14.1409773 C9.82519705,14.1062477 9.80681337,14.0593508 9.80764386,14.0115848 L9.8149853,13.9639478 L10.1963547,12.8280592 C10.2091425,12.7827962 10.2295534,12.7402354 10.2565514,12.7021393 L10.3018593,12.6485641 L18.5467466,4.41828158 C18.687126,4.27829649 18.9034576,4.26079835 19.062825,4.36578717 Z M20.7897358,2.50021351 C20.9900476,2.50504447 21.1796639,2.59160986 21.3145295,2.73979722 C21.5537646,3.00164078 21.5566009,3.39481718 21.3516726,3.67360452 L21.2757075,3.76195994 L20.7248913,4.31003647 C20.6563203,4.37892737 20.5631259,4.41765687 20.4659254,4.41765687 C20.3930251,4.41765687 20.3223782,4.39587153 20.2626826,4.3559155 L20.2069596,4.31003647 L19.6890279,3.79301761 C19.5668179,3.67072727 19.5493593,3.48338278 19.6366522,3.34250553 L19.6890279,3.27645548 L20.2540028,2.71422031 C20.3958551,2.57270661 20.589424,2.49538256 20.7897358,2.50021351 Z" id="Combined-Shape" fill="#000000" fill-rule="nonzero"></path>
        </g>
    </g>
</svg>