<?xml version="1.0" encoding="UTF-8"?>
<svg width="24px" height="24px" viewBox="0 0 24 24" version="1.1" xmlns="http://www.w3.org/2000/svg" xmlns:xlink="http://www.w3.org/1999/xlink">
    <title>VSQUARE/4) Icons/document/document_outline</title>
    <g id="VSQUARE_Symbols" stroke="none" stroke-width="1" fill="none" fill-rule="evenodd">
        <g id="VSQUARE/4)-Icons/document/document_outline">
            <rect id="Rectangle" x="0" y="0" width="24" height="24"></rect>
            <path d="M11.3977273,2 C11.9761964,2 12.5309917,2.22573462 12.9401686,2.62751301 L12.9401686,2.62751301 L19.3611364,8.93382067 C19.7701611,9.33563314 20,9.88052144 20,10.4486607 L20,10.4486607 L20,19.1428571 C20,20.7208136 18.6975556,22 17.0909091,22 L17.0909091,22 L6.90909091,22 C5.30244436,22 4,20.7208136 4,19.1428571 L4,19.1428571 L4,4.85714286 C4,3.27918643 5.30244436,2 6.90909091,2 L6.90909091,2 Z M11.272,3.428 L6.90909091,3.42857143 C6.10576764,3.42857143 5.45454545,4.06816464 5.45454545,4.85714286 L5.45454545,4.85714286 L5.45454545,19.1428571 C5.45454545,19.9318354 6.10576764,20.5714286 6.90909091,20.5714286 L6.90909091,20.5714286 L17.0909091,20.5714286 C17.8942324,20.5714286 18.5454545,19.9318354 18.5454545,19.1428571 L18.5454545,19.1428571 L18.545,10.571 L13.4545455,10.5714286 C12.2616104,10.5714286 11.2922868,9.63113061 11.2730196,8.46400749 L11.2727273,8.42857143 L11.272,3.428 Z M17.516,9.142 L12.727,4.438 L12.7272727,8.42857143 C12.7272727,8.81836424 13.0451773,9.13523235 13.4402332,9.14272159 L17.516,9.142 Z" id="Combined-Shape" fill="#000000" fill-rule="nonzero"></path>
        </g>
    </g>
</svg>