<?xml version="1.0" encoding="UTF-8"?>
<svg width="24px" height="24px" viewBox="0 0 24 24" version="1.1" xmlns="http://www.w3.org/2000/svg" xmlns:xlink="http://www.w3.org/1999/xlink">
    <title>VSQUARE/4) Icons/document/document</title>
    <g id="VSQUARE_Symbols" stroke="none" stroke-width="1" fill="none" fill-rule="evenodd">
        <g id="VSQUARE/4)-Icons/document/document">
            <rect id="Rectangle" x="0" y="0" width="24" height="24"></rect>
            <path d="M11.0909091,2 C11.1913245,2 11.2727273,2.07994915 11.2727273,2.17857143 L11.2727273,2.17857143 L11.2727273,8.42857143 C11.2727273,9.61203875 12.2495605,10.5714286 13.4545455,10.5714286 L13.4545455,10.5714286 L19.8181818,10.5714286 C19.9185972,10.5714286 20,10.6513777 20,10.75 L20,10.75 L20,19.1428571 C20,20.7208136 18.6975556,22 17.0909091,22 L17.0909091,22 L6.90909091,22 C5.30244436,22 4,20.7208136 4,19.1428571 L4,19.1428571 L4,4.85714286 C4,3.27918643 5.30244436,2 6.90909091,2 L6.90909091,2 Z M12.7834435,2.55134667 C12.8173131,2.53759201 12.85628,2.54515796 12.8822727,2.57053571 L12.8822727,2.57053571 L19.4190909,8.990625 C19.4449301,9.01615357 19.4526336,9.05442459 19.4386288,9.0876894 C19.4246241,9.1209542 19.3916505,9.14270601 19.355,9.14285714 L19.355,9.14285714 L13.4545455,9.14285714 C13.0528838,9.14285714 12.7272727,8.82306054 12.7272727,8.42857143 L12.7272727,8.42857143 L12.7272727,2.63348214 C12.7274266,2.5974861 12.7495739,2.56510133 12.7834435,2.55134667 Z" id="Combined-Shape" fill="#000000" fill-rule="nonzero"></path>
        </g>
    </g>
</svg>