<?xml version="1.0" encoding="UTF-8"?>
<svg width="24px" height="24px" viewBox="0 0 24 24" version="1.1" xmlns="http://www.w3.org/2000/svg" xmlns:xlink="http://www.w3.org/1999/xlink">
    <title>VSQUARE/4) Icons/document/document_sharp</title>
    <g id="VSQUARE_Symbols" stroke="none" stroke-width="1" fill="none" fill-rule="evenodd">
        <g id="VSQUARE/4)-Icons/document/document_sharp">
            <rect id="Rectangle" x="0" y="0" width="24" height="24"></rect>
            <path d="M11.2727273,2 L11.2727273,10.2142857 C11.2727273,10.4115303 11.4355328,10.5714286 11.6363636,10.5714286 L11.6363636,10.5714286 L20,10.5714286 L20,21.4642857 C20,21.7601525 19.7557917,22 19.4545455,22 L19.4545455,22 L4.54545455,22 C4.24420832,22 4,21.7601525 4,21.4642857 L4,21.4642857 L4,2.53571429 C4,2.23984746 4.24420832,2 4.54545455,2 L4.54545455,2 L11.2727273,2 Z M12.7832342,2.35009375 C12.8171447,2.33622482 12.8562213,2.34376195 12.8822727,2.36919643 L12.8822727,2.36919643 L19.6240909,8.990625 C19.6499878,9.01621124 19.657662,9.05458998 19.6435409,9.08789495 C19.6294198,9.12119992 19.5962786,9.14285717 19.5595455,9.14285717 L19.5595455,9.14285717 L12.9090909,9.14285717 C12.8086755,9.14285717 12.7272727,9.06290799 12.7272727,8.96428571 L12.7272727,8.96428571 L12.7272727,2.43258929 C12.7272727,2.39651204 12.7493237,2.36396268 12.7832342,2.35009375 Z" id="Combined-Shape" fill="#000000" fill-rule="nonzero"></path>
        </g>
    </g>
</svg>