<?xml version="1.0" encoding="UTF-8"?>
<svg width="24px" height="24px" viewBox="0 0 24 24" version="1.1" xmlns="http://www.w3.org/2000/svg" xmlns:xlink="http://www.w3.org/1999/xlink">
    <title>VSQUARE/4) Icons/download/download_outline</title>
    <g id="VSQUARE_Symbols" stroke="none" stroke-width="1" fill="none" fill-rule="evenodd">
        <g id="VSQUARE/4)-Icons/download/download_outline">
            <rect id="Rectangle" x="0" y="0" width="24" height="24"></rect>
            <path d="M8.36363636,7.71428571 C8.765298,7.71428571 9.09090909,8.03408232 9.09090909,8.42857143 C9.09090909,8.81836424 8.7730045,9.13523235 8.37794867,9.14272159 L6.54545455,9.14285714 C5.94898702,9.14285714 5.46432519,9.61300613 5.45469161,10.1965677 L5.45454545,19.5 C5.45454545,20.0858163 5.9332426,20.5618235 6.52741437,20.571285 L17.4545455,20.5714286 C18.051013,20.5714286 18.5356748,20.1012796 18.5453084,19.517718 L18.5454545,10.2142857 C18.5454545,9.62846939 18.0667574,9.15246224 17.4725856,9.14300068 L17.4545455,9.14285714 L15.6363636,9.14285714 C15.234702,9.14285714 14.9090909,8.82306054 14.9090909,8.42857143 C14.9090909,8.03877862 15.2269955,7.7219105 15.6220513,7.71428571 L17.4545455,7.71428571 C18.846303,7.71428571 19.9771806,8.81130001 19.999659,10.1729436 L20,10.2142857 L20,19.5 C20,20.8669048 18.88304,21.9775881 17.4966392,21.9996651 L6.54545455,22 C5.15369698,22 4.02281939,20.9029857 4.00034102,19.5413421 L4,10.2142857 C4,8.84738096 5.11696001,7.73669762 6.5033608,7.71462064 L8.36363636,7.71428571 Z M12,2 C12.39688,2 12.7195093,2.31222772 12.7271347,2.70022899 L12.727,14.56 L15.1221042,12.2092094 C15.4061218,11.9302635 15.8666054,11.9302635 16.1506231,12.2092094 C16.4306961,12.4842811 16.434586,12.9278867 16.1622928,13.2076399 L16.1506231,13.219362 L12.5142595,16.7907906 C12.2341865,17.0658622 11.7825154,17.0696827 11.4976758,16.8022519 L11.4857405,16.7907906 L7.84937689,13.219362 C7.56535922,12.9404161 7.56535922,12.4881554 7.84937689,12.2092094 C8.12944986,11.9341378 8.581121,11.9303173 8.8659606,12.1977481 L8.87789584,12.2092094 L11.272,14.561 L11.2727273,2.71428571 C11.2727273,2.31979661 11.5983384,2 12,2 Z" id="Combined-Shape" fill="#000000" fill-rule="nonzero"></path>
        </g>
    </g>
</svg>