<?xml version="1.0" encoding="UTF-8"?>
<svg width="24px" height="24px" viewBox="0 0 24 24" version="1.1" xmlns="http://www.w3.org/2000/svg" xmlns:xlink="http://www.w3.org/1999/xlink">
    <title>VSQUARE/4) Icons/download/download_sharp</title>
    <g id="VSQUARE_Symbols" stroke="none" stroke-width="1" fill="none" fill-rule="evenodd">
        <g id="VSQUARE/4)-Icons/download/download_sharp">
            <rect id="Rectangle" x="0" y="0" width="24" height="24"></rect>
            <path d="M11.2727273,7.71428571 L11.2727273,14.2933036 L8.36363636,11.4361607 L7.335,12.4464286 L12,17.028125 L16.665,12.4464286 L15.6363636,11.4361607 L12.7272727,14.2933036 L12.7272727,7.71428571 L19.4545455,7.71428571 C19.7557917,7.71428571 20,7.95413317 20,8.25 L20,8.25 L20,21.4642857 C20,21.7601525 19.7557917,22 19.4545455,22 L19.4545455,22 L4.54545455,22 C4.24420832,22 4,21.7601525 4,21.4642857 L4,21.4642857 L4,8.25 C4,7.95413317 4.24420832,7.71428571 4.54545455,7.71428571 L4.54545455,7.71428571 L11.2727273,7.71428571 Z M12.7272727,2 L12.7272727,7.71428571 L11.2727273,7.71428571 L11.2727273,2 L12.7272727,2 Z" id="Combined-Shape" fill="#000000" fill-rule="nonzero"></path>
        </g>
    </g>
</svg>