<?xml version="1.0" encoding="UTF-8"?>
<svg width="24px" height="24px" viewBox="0 0 24 24" version="1.1" xmlns="http://www.w3.org/2000/svg" xmlns:xlink="http://www.w3.org/1999/xlink">
    <title>VSQUARE/4) Icons/duplicate/duplicate</title>
    <g id="VSQUARE_Symbols" stroke="none" stroke-width="1" fill="none" fill-rule="evenodd">
        <g id="VSQUARE/4)-Icons/duplicate/duplicate">
            <rect id="Rectangle" x="0" y="0" width="24" height="24"></rect>
            <path d="M18.7857143,5.57142857 C20.5609153,5.57142857 22,7.0105133 22,8.78571429 L22,8.78571429 L22,18.7857143 C22,20.5609153 20.5609153,22 18.7857143,22 L18.7857143,22 L8.78571429,22 C7.0105133,22 5.57142857,20.5609153 5.57142857,18.7857143 L5.57142857,18.7857143 L5.57142857,8.78571429 C5.57142857,7.0105133 7.0105133,5.57142857 8.78571429,5.57142857 L8.78571429,5.57142857 Z M15.2142857,2 C16.575899,2.00164386 17.7892621,2.85964959 18.2446429,4.14285714 L18.2446429,4.14285714 L7.71428571,4.14285714 C5.74184018,4.14285714 4.14285714,5.74184018 4.14285714,7.71428571 L4.14285714,7.71428571 L4.14285714,18.2446429 C2.85964959,17.7892621 2.00164386,16.575899 2,15.2142857 L2,15.2142857 L2,5.21428571 C2,3.43908473 3.43908473,2 5.21428571,2 L5.21428571,2 Z M13.7513393,9.50089286 C13.3669643,9.52008929 13.0714286,9.85 13.0714286,10.234375 L13.0714286,10.234375 L13.0714286,13.0714286 L10.2142857,13.0714286 C10.0188913,13.0714464 9.83203423,13.1515085 9.69724158,13.2929649 C9.56244892,13.4344212 9.4914895,13.6249213 9.50089286,13.8200893 C9.52008929,14.2044643 9.85,14.5 10.234375,14.5 L10.234375,14.5 L13.0714286,14.5 L13.0714286,17.3571429 C13.0714464,17.5525372 13.1515085,17.7393943 13.2929649,17.874187 C13.4344212,18.0089796 13.6249213,18.0799391 13.8200893,18.0705357 C14.2044643,18.0513393 14.5,17.7214286 14.5,17.3370536 L14.5,17.3370536 L14.5,14.5 L17.3370536,14.5 C17.7214286,14.5 18.0526786,14.2044643 18.0714286,13.8200893 C18.0808395,13.6247663 18.0097601,13.4341259 17.874772,13.2926415 C17.7397839,13.1511571 17.5526923,13.071202 17.3571429,13.0714286 L17.3571429,13.0714286 L14.5,13.0714286 L14.5,10.2142857 C14.4999822,10.0188913 14.4199201,9.83203423 14.2784637,9.69724158 C14.1370073,9.56244892 13.9465073,9.4914895 13.7513393,9.50089286 Z" id="Combined-Shape" fill="#000000" fill-rule="nonzero"></path>
        </g>
    </g>
</svg>