<?xml version="1.0" encoding="UTF-8"?>
<svg width="24px" height="24px" viewBox="0 0 24 24" version="1.1" xmlns="http://www.w3.org/2000/svg" xmlns:xlink="http://www.w3.org/1999/xlink">
    <title>VSQUARE/4) Icons/duplicate/duplicate_outline</title>
    <g id="VSQUARE_Symbols" stroke="none" stroke-width="1" fill="none" fill-rule="evenodd">
        <g id="VSQUARE/4)-Icons/duplicate/duplicate_outline">
            <rect id="Rectangle" x="0" y="0" width="24" height="24"></rect>
            <path d="M15.2163178,2 C16.9883026,2.00504413 18.4235273,3.44026887 18.4285685,5.2122536 L18.4285685,5.22070897 L18.421,5.571 L18.7410714,5.57142857 C20.478864,5.57142857 21.8989691,6.93160986 21.9948411,8.64542658 L22,8.83035714 L22,18.7410714 C22,20.540928 20.540928,22 18.7410714,22 L18.7410714,22 L8.83035714,22 C7.03050059,22 5.57142857,20.540928 5.57142857,18.7410714 L5.57142857,18.7410714 L5.571,18.428 L5.2122536,18.4285714 C3.45798872,18.4235777 2.0337823,17.016864 2.00057928,15.2674035 L2,5.56931743 C2.00576411,3.62014362 3.56872122,2.03775238 5.51241348,2.0006501 L15.2163178,2 Z M18.7410714,7 L8.83035714,7 C7.81947881,7 7,7.81947881 7,8.83035714 L7,8.83035714 L7,18.7410714 C7,19.7519498 7.81947881,20.5714286 8.83035714,20.5714286 L8.83035714,20.5714286 L18.7410714,20.5714286 C19.7519498,20.5714286 20.5714286,19.7519498 20.5714286,18.7410714 L20.5714286,18.7410714 L20.5714286,8.83035714 C20.5714286,7.81947881 19.7519498,7 18.7410714,7 L18.7410714,7 Z M13.7857143,9.5 C14.1755071,9.5 14.4923752,9.81222772 14.4998644,10.200229 L14.499,13.071 L17.3571429,13.0714286 C17.751632,13.0714286 18.0714286,13.3912252 18.0714286,13.7857143 C18.0714286,14.1755071 17.7592008,14.4923752 17.3711996,14.4998644 L14.499,14.499 L14.5,17.3571429 C14.5,17.751632 14.1802034,18.0714286 13.7857143,18.0714286 C13.3959215,18.0714286 13.0790534,17.7592008 13.0715641,17.3711996 L13.071,14.499 L10.2142857,14.5 C9.81979661,14.5 9.5,14.1802034 9.5,13.7857143 C9.5,13.3959215 9.81222772,13.0790534 10.200229,13.0715641 L13.071,13.071 L13.0714286,10.2142857 C13.0714286,9.81979661 13.3912252,9.5 13.7857143,9.5 Z M15.243754,3.42889369 L5.57353971,3.42856831 C4.40218809,3.43203036 3.45125364,4.37128592 3.42896195,5.53606397 L3.42856854,15.2122536 C3.43134614,16.188574 4.21424,16.9812033 5.18481744,16.9996777 L5.21428571,17 L5.571,17 L5.57142857,8.83035714 C5.57142857,7.09256461 6.93160986,5.67245944 8.64542658,5.57658749 L8.83035714,5.57142857 L16.991,5.571 L16.9999107,5.20964286 L16.9996805,5.18678919 C16.9813901,4.22406373 16.2045276,3.44718155 15.243754,3.42889369 Z" id="Combined-Shape" fill="#000000" fill-rule="nonzero"></path>
        </g>
    </g>
</svg>