<?xml version="1.0" encoding="UTF-8"?>
<svg width="24px" height="24px" viewBox="0 0 24 24" version="1.1" xmlns="http://www.w3.org/2000/svg" xmlns:xlink="http://www.w3.org/1999/xlink">
    <title>VSQUARE/4) Icons/ellipsis/basic/horizontal/ellipsis_horizontal_sharp</title>
    <g id="VSQUARE_Symbols" stroke="none" stroke-width="1" fill="none" fill-rule="evenodd">
        <g id="VSQUARE/4)-Icons/ellipsis/basic/horizontal/ellipsis_horizontal_sharp">
            <rect id="Rectangle" x="0" y="0" width="24" height="24"></rect>
            <path d="M12,14 C13.1470529,14 14.0769231,13.1045695 14.0769231,12 C14.0769231,10.8954305 13.1470529,10 12,10 C10.8529471,10 9.92307692,10.8954305 9.92307692,12 C9.92307692,13.1045695 10.8529471,14 12,14 Z M18.9230769,14 C20.0701299,14 21,13.1045695 21,12 C21,10.8954305 20.0701299,10 18.9230769,10 C17.776024,10 16.8461538,10.8954305 16.8461538,12 C16.8461538,13.1045695 17.776024,14 18.9230769,14 Z M5.07692308,14 C6.22397602,14 7.15384615,13.1045695 7.15384615,12 C7.15384615,10.8954305 6.22397602,10 5.07692308,10 C3.92987014,10 3,10.8954305 3,12 C3,13.1045695 3.92987014,14 5.07692308,14 Z" id="Combined-Shape" fill="#000000" fill-rule="nonzero"></path>
        </g>
    </g>
</svg>