<?xml version="1.0" encoding="UTF-8"?>
<svg width="24px" height="24px" viewBox="0 0 24 24" version="1.1" xmlns="http://www.w3.org/2000/svg" xmlns:xlink="http://www.w3.org/1999/xlink">
    <title>VSQUARE/4) Icons/ellipsis/circle/horizontal/ellipsis_horizontal_circle_sharp</title>
    <g id="VSQUARE_Symbols" stroke="none" stroke-width="1" fill="none" fill-rule="evenodd">
        <g id="VSQUARE/4)-Icons/ellipsis/circle/horizontal/ellipsis_horizontal_circle_sharp">
            <rect id="Rectangle" x="0" y="0" width="24" height="24"></rect>
            <path d="M12,3 C7.02966346,3 3,7.02966346 3,12 C3,16.9703365 7.02966346,21 12,21 C16.9703365,21 21,16.9703365 21,12 C21,7.02966346 16.9703365,3 12,3 Z M8.10576923,13.125 C7.48444889,13.125 6.98076923,12.6213203 6.98076923,12 C6.98076923,11.3786797 7.48444889,10.875 8.10576923,10.875 C8.72708957,10.875 9.23076923,11.3786797 9.23076923,12 C9.23076923,12.6213203 8.72708957,13.125 8.10576923,13.125 Z M12,13.125 C11.3786797,13.125 10.875,12.6213203 10.875,12 C10.875,11.3786797 11.3786797,10.875 12,10.875 C12.6213203,10.875 13.125,11.3786797 13.125,12 C13.125,12.6213203 12.6213203,13.125 12,13.125 Z M15.8942308,13.125 C15.2729104,13.125 14.7692308,12.6213203 14.7692308,12 C14.7692308,11.3786797 15.2729104,10.875 15.8942308,10.875 C16.5155511,10.875 17.0192308,11.3786797 17.0192308,12 C17.0192308,12.6213203 16.5155511,13.125 15.8942308,13.125 Z" id="Shape" fill="#000000" fill-rule="nonzero"></path>
        </g>
    </g>
</svg>