<?xml version="1.0" encoding="UTF-8"?>
<svg width="24px" height="24px" viewBox="0 0 24 24" version="1.1" xmlns="http://www.w3.org/2000/svg" xmlns:xlink="http://www.w3.org/1999/xlink">
    <title>VSQUARE/4) Icons/ellipsis/circle/vertical/ellipsis_vertical_circle_outline</title>
    <g id="VSQUARE_Symbols" stroke="none" stroke-width="1" fill="none" fill-rule="evenodd">
        <g id="VSQUARE/4)-Icons/ellipsis/circle/vertical/ellipsis_vertical_circle_outline">
            <rect id="Rectangle" x="0" y="0" width="24" height="24"></rect>
            <path d="M12,3 C16.9688894,3 21,7.03111056 21,12 C21,16.9688894 16.9688894,21 12,21 C7.03111056,21 3,16.9688894 3,12 C3,7.03111056 7.03111056,3 12,3 Z M12,4.38461538 C7.79581252,4.38461538 4.38461538,7.79581252 4.38461538,12 C4.38461538,16.2041875 7.79581252,19.6153846 12,19.6153846 C16.2041875,19.6153846 19.6153846,16.2041875 19.6153846,12 C19.6153846,7.79581252 16.2041875,4.38461538 12,4.38461538 Z M12,14.7692308 C12.6213203,14.7692308 13.125,15.2729104 13.125,15.8942308 C13.125,16.5155511 12.6213203,17.0192308 12,17.0192308 C11.3786797,17.0192308 10.875,16.5155511 10.875,15.8942308 C10.875,15.2729104 11.3786797,14.7692308 12,14.7692308 Z M12,10.875 C12.6213203,10.875 13.125,11.3786797 13.125,12 C13.125,12.6213203 12.6213203,13.125 12,13.125 C11.3786797,13.125 10.875,12.6213203 10.875,12 C10.875,11.3786797 11.3786797,10.875 12,10.875 Z M12,6.98076923 C12.6213203,6.98076923 13.125,7.48444889 13.125,8.10576923 C13.125,8.72708957 12.6213203,9.23076923 12,9.23076923 C11.3786797,9.23076923 10.875,8.72708957 10.875,8.10576923 C10.875,7.48444889 11.3786797,6.98076923 12,6.98076923 Z" id="Combined-Shape" fill="#000000" fill-rule="nonzero"></path>
        </g>
    </g>
</svg>