<?xml version="1.0" encoding="UTF-8"?>
<svg width="24px" height="24px" viewBox="0 0 24 24" version="1.1" xmlns="http://www.w3.org/2000/svg" xmlns:xlink="http://www.w3.org/1999/xlink">
    <title>VSQUARE/4) Icons/ellipsis/basic/vertical/ellipsis_vertical_outline</title>
    <g id="VSQUARE_Symbols" stroke="none" stroke-width="1" fill="none" fill-rule="evenodd">
        <g id="VSQUARE/4)-Icons/ellipsis/basic/vertical/ellipsis_vertical_outline">
            <rect id="Rectangle" x="0" y="0" width="24" height="24"></rect>
            <path d="M12,9.92307692 C10.8954305,9.92307692 10,10.8529471 10,12 C10,13.1470529 10.8954305,14.0769231 12,14.0769231 C13.1045695,14.0769231 14,13.1470529 14,12 C14,10.8529471 13.1045695,9.92307692 12,9.92307692 Z M12,11.3076923 C12.3681898,11.3076923 12.6666667,11.617649 12.6666667,12 C12.6666667,12.382351 12.3681898,12.6923077 12,12.6923077 C11.6318102,12.6923077 11.3333333,12.382351 11.3333333,12 C11.3333333,11.617649 11.6318102,11.3076923 12,11.3076923 Z M12,16.8461538 C10.8954305,16.8461538 10,17.776024 10,18.9230769 C10,20.0701299 10.8954305,21 12,21 C13.1045695,21 14,20.0701299 14,18.9230769 C14,17.776024 13.1045695,16.8461538 12,16.8461538 Z M12,18.2307692 C12.3681898,18.2307692 12.6666667,18.5407259 12.6666667,18.9230769 C12.6666667,19.3054279 12.3681898,19.6153846 12,19.6153846 C11.6318102,19.6153846 11.3333333,19.3054279 11.3333333,18.9230769 C11.3333333,18.5407259 11.6318102,18.2307692 12,18.2307692 Z M12,3 C10.8954305,3 10,3.92987014 10,5.07692308 C10,6.22397602 10.8954305,7.15384615 12,7.15384615 C13.1045695,7.15384615 14,6.22397602 14,5.07692308 C14,3.92987014 13.1045695,3 12,3 Z M12,4.38461538 C12.3681898,4.38461538 12.6666667,4.6945721 12.6666667,5.07692308 C12.6666667,5.45927406 12.3681898,5.76923077 12,5.76923077 C11.6318102,5.76923077 11.3333333,5.45927406 11.3333333,5.07692308 C11.3333333,4.6945721 11.6318102,4.38461538 12,4.38461538 Z" id="Combined-Shape" fill="#000000" fill-rule="nonzero"></path>
        </g>
    </g>
</svg>