<?xml version="1.0" encoding="UTF-8"?>
<svg width="24px" height="24px" viewBox="0 0 24 24" version="1.1" xmlns="http://www.w3.org/2000/svg" xmlns:xlink="http://www.w3.org/1999/xlink">
    <title>VSQUARE/4) Icons/enter/enter_outline</title>
    <g id="VSQUARE_Symbols" stroke="none" stroke-width="1" fill="none" fill-rule="evenodd">
        <g id="VSQUARE/4)-Icons/enter/enter_outline">
            <rect id="Rectangle" x="0" y="0" width="24" height="24"></rect>
            <path d="M19.5,4 C20.8669048,4 21.9775881,5.11696001 21.9996651,6.5033608 L22,17.4545455 C22,18.846303 20.9029857,19.9771806 19.5413421,19.999659 L19.5,20 L10.2142857,20 C8.84738096,20 7.73669762,18.88304 7.71462064,17.4966392 L7.71428571,15.6363636 C7.71428571,15.234702 8.03408232,14.9090909 8.42857143,14.9090909 C8.81836424,14.9090909 9.13523235,15.2269955 9.14272159,15.6220513 L9.14285714,17.4545455 C9.14285714,18.051013 9.61300613,18.5356748 10.1965677,18.5453084 L19.5,18.5454545 C20.0858163,18.5454545 20.5618235,18.0667574 20.571285,17.4725856 L20.5714286,6.54545455 C20.5714286,5.94898702 20.1012796,5.46432519 19.517718,5.45469161 L10.2142857,5.45454545 C9.62846939,5.45454545 9.15246224,5.9332426 9.14300068,6.52741437 L9.14285714,6.54545455 L9.14285714,8.36363636 C9.14285714,8.765298 8.82306054,9.09090909 8.42857143,9.09090909 C8.03877862,9.09090909 7.7219105,8.7730045 7.71428571,8.37794867 L7.71428571,6.54545455 C7.71428571,5.15369698 8.81130001,4.02281939 10.1729436,4.00034102 L19.5,4 Z M13.2076399,7.83770718 L13.219362,7.84937689 L16.7907906,11.4857405 C17.0658622,11.7658135 17.0696827,12.2174846 16.8022519,12.5023242 L16.7907906,12.5142595 L13.219362,16.1506231 C12.9404161,16.4346408 12.4881554,16.4346408 12.2092094,16.1506231 C11.9341378,15.8705501 11.9303173,15.418879 12.1977481,15.1340394 L12.2092094,15.1221042 L14.56,12.727 L2.71428571,12.7272727 C2.31979661,12.7272727 2,12.4016616 2,12 C2,11.60312 2.31222772,11.2804907 2.70022899,11.2728653 L14.561,11.272 L12.2092094,8.87789584 C11.9341378,8.59782286 11.9303173,8.14615172 12.1977481,7.86131213 L12.2092094,7.84937689 C12.4842811,7.56930391 12.9278867,7.56541401 13.2076399,7.83770718 Z" id="Combined-Shape" fill="#000000" fill-rule="nonzero"></path>
        </g>
    </g>
</svg>