<?xml version="1.0" encoding="UTF-8"?>
<svg width="24px" height="24px" viewBox="0 0 24 24" version="1.1" xmlns="http://www.w3.org/2000/svg" xmlns:xlink="http://www.w3.org/1999/xlink">
    <title>VSQUARE/4) Icons/enter/enter_sharp</title>
    <g id="VSQUARE_Symbols" stroke="none" stroke-width="1" fill="none" fill-rule="evenodd">
        <g id="VSQUARE/4)-Icons/enter/enter_sharp">
            <rect id="Rectangle" x="0" y="0" width="24" height="24"></rect>
            <path d="M21.4642857,4 C21.7601525,4 22,4.24420832 22,4.54545455 L22,4.54545455 L22,19.4545455 C22,19.7557917 21.7601525,20 21.4642857,20 L21.4642857,20 L8.25,20 C7.95413317,20 7.71428571,19.7557917 7.71428571,19.4545455 L7.71428571,19.4545455 L7.71428571,12.7272727 L14.2933036,12.7272727 L11.4361607,15.6363636 L12.4464286,16.665 L17.028125,12 L12.4464286,7.335 L11.4361607,8.36363636 L14.2933036,11.2727273 L7.71428571,11.2727273 L7.71428571,4.54545455 C7.71428571,4.24420832 7.95413317,4 8.25,4 L8.25,4 Z M7.71428571,11.2727273 L7.71428571,12.7272727 L2,12.7272727 L2,11.2727273 L7.71428571,11.2727273 Z" id="Combined-Shape" fill="#000000" fill-rule="nonzero"></path>
        </g>
    </g>
</svg>