<?xml version="1.0" encoding="UTF-8"?>
<svg width="24px" height="24px" viewBox="0 0 24 24" version="1.1" xmlns="http://www.w3.org/2000/svg" xmlns:xlink="http://www.w3.org/1999/xlink">
    <title>VSQUARE/4) Icons/enter/enter</title>
    <g id="VSQUARE_Symbols" stroke="none" stroke-width="1" fill="none" fill-rule="evenodd">
        <g id="VSQUARE/4)-Icons/enter/enter">
            <rect id="Rectangle" x="0" y="0" width="24" height="24"></rect>
            <path d="M19.5,4 C20.8800999,4.00150315 21.9985237,5.14026191 22,6.54545455 L22,6.54545455 L22,17.4545455 C21.9985237,18.8597381 20.8800999,19.9984969 19.5,20 L19.5,20 L10.2142857,20 C8.83418581,19.9984969 7.71576202,18.8597381 7.71428571,17.4545455 L7.71428571,17.4545455 L7.71428571,12.7272727 L14.5611607,12.7272727 L12.209375,15.1222727 C11.9425687,15.4082104 11.9482317,15.858568 12.2221405,16.137457 C12.4960492,16.4163459 12.9383648,16.4221119 13.2191964,16.1504545 L13.2191964,16.1504545 L16.790625,12.5140909 C17.0693503,12.2301118 17.0693503,11.7698882 16.790625,11.4859091 L16.790625,11.4859091 L13.2191964,7.84954545 C12.9383648,7.57788808 12.4960492,7.58365408 12.2221405,7.86254302 C11.9482317,8.14143196 11.9425687,8.5917896 12.209375,8.87772727 L12.209375,8.87772727 L14.5611607,11.2727273 L7.71428571,11.2727273 L7.71428571,6.54545455 C7.71576202,5.14026191 8.83418581,4.00150315 10.2142857,4 L10.2142857,4 Z M7.71428571,11.2727273 L7.71428571,12.7272727 L2.71428571,12.7272727 C2.31979661,12.7272727 2,12.4016616 2,12 C2,11.5983384 2.31979661,11.2727273 2.71428571,11.2727273 L2.71428571,11.2727273 L7.71428571,11.2727273 Z" id="Combined-Shape" fill="#000000" fill-rule="nonzero"></path>
        </g>
    </g>
</svg>