<?xml version="1.0" encoding="UTF-8"?>
<svg width="24px" height="24px" viewBox="0 0 24 24" version="1.1" xmlns="http://www.w3.org/2000/svg" xmlns:xlink="http://www.w3.org/1999/xlink">
    <title>VSQUARE/4) Icons/exit/exit_outline</title>
    <g id="VSQUARE_Symbols" stroke="none" stroke-width="1" fill="none" fill-rule="evenodd">
        <g id="VSQUARE/4)-Icons/exit/exit_outline">
            <rect id="Rectangle" x="0" y="0" width="24" height="24"></rect>
            <path d="M13.0714286,4 C14.4383333,4 15.5490167,5.11696001 15.5710936,6.5033608 L15.5714286,8.36363636 C15.5714286,8.765298 15.251632,9.09090909 14.8571429,9.09090909 C14.46735,9.09090909 14.1504819,8.7730045 14.1429927,8.37794867 L14.1428571,6.54545455 C14.1428571,5.94898702 13.6727082,5.46432519 13.0891466,5.45469161 L4.5,5.45454545 C3.91418368,5.45454545 3.43817653,5.9332426 3.42871497,6.52741437 L3.42857143,17.4545455 C3.42857143,18.051013 3.89872041,18.5356748 4.48228197,18.5453084 L13.0714286,18.5454545 C13.6572449,18.5454545 14.133252,18.0667574 14.1427136,17.4725856 L14.1428571,15.6363636 C14.1428571,15.234702 14.4626538,14.9090909 14.8571429,14.9090909 C15.2469357,14.9090909 15.5638038,15.2269955 15.5714286,15.6220513 L15.5714286,17.4545455 C15.5714286,18.846303 14.4744143,19.9771806 13.1127706,19.999659 L13.0714286,20 L4.5,20 C3.13309524,20 2.0224119,18.88304 2.00033493,17.4966392 L2,6.54545455 C2,5.15369698 3.09701429,4.02281939 4.45865793,4.00034102 L13.0714286,4 Z M18.2076399,7.83770718 L18.219362,7.84937689 L21.7907906,11.4857405 C21.8154116,11.5108092 21.8382435,11.5376994 21.8590747,11.5661957 L21.7907906,11.4857405 C21.8245365,11.5201 21.8541999,11.5570421 21.8797809,11.595942 C21.89188,11.6144539 21.9032695,11.6336209 21.9137896,11.6533386 C21.9209144,11.6665896 21.9276499,11.6802426 21.9339368,11.694055 C21.9419043,11.7115995 21.9491276,11.7292416 21.955673,11.7472189 C21.9606519,11.7609525 21.9653938,11.7753556 21.9696811,11.7898683 C21.9763934,11.8124307 21.9819145,11.834981 21.9863761,11.8579194 C21.9883814,11.8685606 21.990179,11.8790031 21.9917516,11.8894739 C21.9971827,11.9252703 22,11.9623002 22,12 C22,12.1059134 21.9777641,12.2065389 21.9377861,12.2973009 C21.9317656,12.3110855 21.9248652,12.325531 21.9174676,12.339779 C21.908409,12.3570825 21.8989,12.3737122 21.8887791,12.3899067 C21.881528,12.4016336 21.8737835,12.4132734 21.8656717,12.424727 C21.8507632,12.4457039 21.8347688,12.4659371 21.8177759,12.4852403 C21.8128406,12.4908639 21.8076005,12.4966274 21.8022519,12.5023242 L21.7907906,12.5142595 L18.219362,16.1506231 C17.9404161,16.4346408 17.4881554,16.4346408 17.2092094,16.1506231 C16.9341378,15.8705501 16.9303173,15.418879 17.1977481,15.1340394 L17.2092094,15.1221042 L19.561,12.727 L9.09821429,12.7272727 C8.70372518,12.7272727 8.38392857,12.4016616 8.38392857,12 C8.38392857,11.60312 8.6961563,11.2804907 9.08415756,11.2728653 L19.56,11.272 L17.2092094,8.87789584 C16.9341378,8.59782286 16.9303173,8.14615172 17.1977481,7.86131213 L17.2092094,7.84937689 C17.4842811,7.56930391 17.9278867,7.56541401 18.2076399,7.83770718 Z" id="Combined-Shape" fill="#000000" fill-rule="nonzero"></path>
        </g>
    </g>
</svg>