<?xml version="1.0" encoding="UTF-8"?>
<svg width="24px" height="24px" viewBox="0 0 24 24" version="1.1" xmlns="http://www.w3.org/2000/svg" xmlns:xlink="http://www.w3.org/1999/xlink">
    <title>VSQUARE/4) Icons/exit/exit_sharp</title>
    <g id="VSQUARE_Symbols" stroke="none" stroke-width="1" fill="none" fill-rule="evenodd">
        <g id="VSQUARE/4)-Icons/exit/exit_sharp">
            <rect id="Rectangle" x="0" y="0" width="24" height="24"></rect>
            <path d="M15.0176987,4 C15.3131567,4 15.5526726,4.24420832 15.5526726,4.54545455 L15.5526726,4.54545455 L15.5526726,11.2727273 L8.37510588,11.2727273 L8.37510588,12.7272727 L15.5526726,12.7272727 L15.5526726,19.4545455 C15.5526726,19.7557917 15.3131567,20 15.0176987,20 L15.0176987,20 L2.53497392,20 C2.23951598,20 2,19.7557917 2,19.4545455 L2,19.4545455 L2,4.54545455 C2,4.24420832 2.23951598,4 2.53497392,4 L2.53497392,4 Z M17.4250814,7.335 L22,12 L17.4250814,16.665 L16.4162097,15.6363636 L19.2694039,12.7272727 L15.5526726,12.7272727 L15.5526726,11.2727273 L19.2694039,11.2727273 L16.4162097,8.36363636 L17.4250814,7.335 Z" id="Combined-Shape" fill="#000000" fill-rule="nonzero"></path>
        </g>
    </g>
</svg>