<?xml version="1.0" encoding="UTF-8"?>
<svg width="24px" height="24px" viewBox="0 0 24 24" version="1.1" xmlns="http://www.w3.org/2000/svg" xmlns:xlink="http://www.w3.org/1999/xlink">
    <title>VSQUARE/4) Icons/exit/exit</title>
    <g id="VSQUARE_Symbols" stroke="none" stroke-width="1" fill="none" fill-rule="evenodd">
        <g id="VSQUARE/4)-Icons/exit/exit">
            <rect id="Rectangle" x="0" y="0" width="24" height="24"></rect>
            <path d="M15.5716532,17.4545455 L15.5716532,12.7272727 L9.09833179,12.7272727 C8.70383615,12.7272727 8.38403425,12.4016616 8.38403425,12 C8.38403425,11.5983384 8.70383615,11.2727273 9.09833179,11.2727273 L15.5716532,11.2727273 L15.5716532,6.54545455 C15.5701769,5.14026191 14.4517346,4.00150315 13.0716118,4 L4.50004138,4 C3.11991863,4.00150315 2.00147633,5.14026191 2,6.54545455 L2,17.4545455 C2.00147633,18.8597381 3.11991863,19.9984969 4.50004138,20 L13.0716118,20 C14.4517346,19.9984969 15.5701769,18.8597381 15.5716532,17.4545455 L15.5716532,17.4545455 Z M19.5614514,12.7272727 L17.2096268,15.1222727 C16.942816,15.4082104 16.9484791,15.858568 17.2223924,16.137457 C17.4963058,16.4163459 17.9386286,16.4221119 18.2194649,16.1504545 L21.7909526,12.5140909 C22.0696825,12.2301118 22.0696825,11.7698882 21.7909526,11.4859091 L18.2194649,7.84954545 C17.9386286,7.57788808 17.4963058,7.58365408 17.2223924,7.86254302 C16.9484791,8.14143196 16.942816,8.5917896 17.2096268,8.87772727 L19.5614514,11.2727273 L15.5716532,11.2727273 L15.5716532,12.7272727 L19.5614514,12.7272727 Z" id="Combined-Shape" fill="#000000" fill-rule="nonzero"></path>
        </g>
    </g>
</svg>