<?xml version="1.0" encoding="UTF-8"?>
<svg width="24px" height="24px" viewBox="0 0 24 24" version="1.1" xmlns="http://www.w3.org/2000/svg" xmlns:xlink="http://www.w3.org/1999/xlink">
    <title>VSQUARE/4) Icons/expand/expand_sharp</title>
    <g id="VSQUARE_Symbols" stroke="none" stroke-width="1" fill="none" fill-rule="evenodd">
        <g id="VSQUARE/4)-Icons/expand/expand_sharp">
            <rect id="Rectangle" x="0" y="0" width="24" height="24"></rect>
            <path d="M14.1248724,13.1232654 L19.083,18.08 L19.0833333,14.125 L20.5,14.125 L20.5,20.5 L14.125,20.5 L14.125,19.0833333 L18.083,19.083 L13.1232654,14.1251276 L14.1248724,13.1232654 Z M9.875,3.5 L9.875,4.91666667 L5.916,4.916 L10.8767346,9.87487243 L9.87512757,10.8767346 L4.916,5.919 L4.91666667,9.875 L3.5,9.875 L3.5,3.5 L9.875,3.5 Z M20.5,3.5 L20.5,9.875 L19.0833333,9.875 L19.083,5.916 L14.1251276,10.8767346 L13.1232654,9.87512757 L18.08,4.916 L14.125,4.91666667 L14.125,3.5 L20.5,3.5 Z M9.87487243,13.1232654 L10.8767346,14.1248724 L5.919,19.083 L9.875,19.0833333 L9.875,20.5 L3.5,20.5 L3.5,14.125 L4.91666667,14.125 L4.916,18.083 L9.87487243,13.1232654 Z" id="Combined-Shape" fill="#000000" fill-rule="nonzero"></path>
        </g>
    </g>
</svg>