<?xml version="1.0" encoding="UTF-8"?>
<svg width="24px" height="24px" viewBox="0 0 24 24" version="1.1" xmlns="http://www.w3.org/2000/svg" xmlns:xlink="http://www.w3.org/1999/xlink">
    <title>VSQUARE/4) Icons/expand/expand</title>
    <g id="VSQUARE_Symbols" stroke="none" stroke-width="1" fill="none" fill-rule="evenodd">
        <g id="VSQUARE/4)-Icons/expand/expand">
            <rect id="Rectangle" x="0" y="0" width="24" height="24"></rect>
            <path d="M14.6141776,13.6127046 L14.6258035,13.6240689 L19.083,18.08 L19.0833333,14.8333333 C19.0833333,14.4467888 19.3929592,14.1325613 19.7777271,14.1251344 L19.7916667,14.125 C20.1782112,14.125 20.4924387,14.4346258 20.4998656,14.8193937 L20.5,14.8333333 L20.5,19.7916667 C20.5,20.1782112 20.1903742,20.4924387 19.8056063,20.4998656 L19.7916667,20.5 L14.8333333,20.5 C14.4421316,20.5 14.125,20.1828684 14.125,19.7916667 C14.125,19.4051221 14.4346258,19.0908946 14.8193937,19.0834678 L18.083,19.083 L13.6241965,14.6259311 C13.3475399,14.3493449 13.3474828,13.9008531 13.6240689,13.6241965 C13.8968136,13.3513823 14.336722,13.3475377 14.6141776,13.6127046 Z M9.16666667,3.5 C9.55786836,3.5 9.875,3.81713164 9.875,4.20833333 C9.875,4.59487787 9.56537417,4.90910542 9.18060625,4.91653224 L5.916,4.916 L10.3758035,9.37406891 C10.6524601,9.65065506 10.6525172,10.0991469 10.3759311,10.3758035 C10.1031864,10.6486177 9.66327803,10.6524623 9.38582237,10.3872954 L9.37419649,10.3759311 L4.916,5.919 L4.91666667,9.16666667 C4.91666667,9.5532112 4.60704084,9.86743875 4.22227292,9.87486558 L4.20833333,9.875 C3.8217888,9.875 3.50756125,9.56537417 3.50013442,9.18060625 L3.5,4.20833333 C3.5,3.8217888 3.80962583,3.50756125 4.19439375,3.50013442 L9.16666667,3.5 Z M19.7916667,3.5 C20.1782112,3.5 20.4924387,3.80962583 20.4998656,4.19439375 L20.5,4.20833333 L20.5,9.16666667 C20.5,9.55786836 20.1828684,9.875 19.7916667,9.875 C19.4051221,9.875 19.0908946,9.56537417 19.0834678,9.18060625 L19.083,5.916 L14.6259311,10.3758035 C14.3493449,10.6524601 13.9008531,10.6525172 13.6241965,10.3759311 C13.3513823,10.1031864 13.3475377,9.66327803 13.6127046,9.38582237 L13.6240689,9.37419649 L18.08,4.916 L14.8333333,4.91666667 C14.4467888,4.91666667 14.1325613,4.60704084 14.1251344,4.22227292 L14.125,4.20833333 C14.125,3.8217888 14.4346258,3.50756125 14.8193937,3.50013442 L19.7916667,3.5 Z M10.3758035,13.6240689 C10.6486177,13.8968136 10.6524623,14.336722 10.3872954,14.6141776 L10.3759311,14.6258035 L5.919,19.083 L9.16666667,19.0833333 C9.5532112,19.0833333 9.86743875,19.3929592 9.87486558,19.7777271 L9.875,19.7916667 C9.875,20.1782112 9.56537417,20.4924387 9.18060625,20.4998656 L9.16666667,20.5 L4.20833333,20.5 C3.8217888,20.5 3.50756125,20.1903742 3.50013442,19.8056063 L3.5,14.8333333 C3.5,14.4421316 3.81713164,14.125 4.20833333,14.125 C4.59487787,14.125 4.90910542,14.4346258 4.91653224,14.8193937 L4.916,18.083 L9.37406891,13.6241965 C9.65065506,13.3475399 10.0991469,13.3474828 10.3758035,13.6240689 Z" id="Combined-Shape" fill="#000000" fill-rule="nonzero"></path>
        </g>
    </g>
</svg>