<?xml version="1.0" encoding="UTF-8"?>
<svg width="24px" height="24px" viewBox="0 0 24 24" version="1.1" xmlns="http://www.w3.org/2000/svg" xmlns:xlink="http://www.w3.org/1999/xlink">
    <title>VSQUARE/4) Icons/eye/eye</title>
    <g id="VSQUARE_Symbols" stroke="none" stroke-width="1" fill="none" fill-rule="evenodd">
        <g id="VSQUARE/4)-Icons/eye/eye">
            <rect id="Rectangle" x="0" y="0" width="24" height="24"></rect>
            <path d="M11.9879352,6 C13.725673,6 15.4881606,6.545625 17.0845244,7.577625 C18.5275143,8.5095 19.8148803,9.813 20.8071233,11.3475 C21.0629282,11.7439522 21.0643929,12.2530825 20.8108733,12.651 C19.8223802,14.19825 18.5376392,15.506625 17.0953994,16.4355 C15.5057855,17.458875 13.7395479,18 11.9879352,18 C10.1969477,18 8.47570979,17.475 6.87634601,16.438875 C5.45585597,15.51975 4.1812399,14.214375 3.19087185,12.6645 C2.92789527,12.2564802 2.93737533,11.7300369 3.21487168,11.33175 C4.41673825,9.608625 5.80047855,8.27025 7.32784284,7.354125 C8.82558234,6.455625 10.3934463,6 11.9879352,6 Z M12.0006851,8.4 C10.0124739,8.4 8.40071032,10.0117749 8.40071032,12 C8.40071032,13.9882251 10.0124739,15.6 12.0006851,15.6 C13.9879539,15.5977268 15.5983867,13.9872828 15.6006598,12 C15.6006598,10.0117749 13.9888962,8.4 12.0006851,8.4 Z M12.0006851,9.6 C13.3261592,9.6 14.4006682,10.6745166 14.4006682,12 C14.4006682,13.3254834 13.3261592,14.4 12.0006851,14.4 C10.675211,14.4 9.60070191,13.3254834 9.60070191,12 C9.60070191,10.6745166 10.675211,9.6 12.0006851,9.6 Z" id="Combined-Shape" fill="#000000" fill-rule="nonzero"></path>
        </g>
    </g>
</svg>