<?xml version="1.0" encoding="UTF-8"?>
<svg width="24px" height="24px" viewBox="0 0 24 24" version="1.1" xmlns="http://www.w3.org/2000/svg" xmlns:xlink="http://www.w3.org/1999/xlink">
    <title>VSQUARE/4) Icons/eye/eye_outline</title>
    <g id="VSQUARE_Symbols" stroke="none" stroke-width="1" fill="none" fill-rule="evenodd">
        <g id="VSQUARE/4)-Icons/eye/eye_outline">
            <rect id="Rectangle" x="0" y="0" width="24" height="24"></rect>
            <path d="M11.9867582,6 C13.7641175,6 15.5008322,6.5558768 17.0834361,7.57775095 C18.5394693,8.51789943 19.8253117,9.83032365 20.8080988,11.3482788 C21.0637751,11.7455502 21.0637751,12.2555748 20.8092489,12.6510521 C18.7360336,15.8977095 15.4709751,18 11.9867582,18 C8.4803102,18 5.27297039,15.9246375 3.19186292,12.6668571 C2.9285913,12.2593589 2.93658223,11.7334184 3.21386453,11.3315814 C5.61543241,7.8889803 8.76410723,6 11.9867582,6 Z M11.9867582,7.2 C9.18581515,7.2 6.3884321,8.87823029 4.19975495,12.0156429 L4.19975495,12.0156429 L4.25803138,12.1060699 C6.13576308,14.9937268 8.95753485,16.8 11.9867582,16.8 C15.0255732,16.8 17.9304793,14.9296027 19.7990642,12.0034038 C19.8000703,12.0016733 19.8000703,11.9994517 19.8000703,11.9990955 C17.9165818,9.0901614 14.9892382,7.2 11.9867582,7.2 Z M11.9995077,8.4 C13.9876607,8.4 15.5993771,10.0117749 15.5993771,12 C15.5993771,13.9882251 13.9876607,15.6 11.9995077,15.6 C10.0113547,15.6 8.39963831,13.9882251 8.39963831,12 C8.39963831,10.0117749 10.0113547,8.4 11.9995077,8.4 Z M11.9995077,9.6 C10.6740724,9.6 9.59959478,10.6745166 9.59959478,12 C9.59959478,13.3254834 10.6740724,14.4 11.9995077,14.4 C13.324943,14.4 14.3994207,13.3254834 14.3994207,12 C14.3994207,10.6745166 13.324943,9.6 11.9995077,9.6 Z" id="Combined-Shape" fill="#000000" fill-rule="nonzero"></path>
        </g>
    </g>
</svg>