<?xml version="1.0" encoding="UTF-8"?>
<svg width="24px" height="24px" viewBox="0 0 24 24" version="1.1" xmlns="http://www.w3.org/2000/svg" xmlns:xlink="http://www.w3.org/1999/xlink">
    <title>VSQUARE/4) Icons/eye_off/eye_off</title>
    <g id="VSQUARE_Symbols" stroke="none" stroke-width="1" fill="none" fill-rule="evenodd">
        <g id="VSQUARE/4)-Icons/eye_off/eye_off">
            <rect id="Rectangle" x="0" y="0" width="24" height="24"></rect>
            <path d="M5.82386806,5.16055061 L19.0226756,18.0035699 C19.1941416,18.1705232 19.2454161,18.4215191 19.1526042,18.6395888 C19.0597922,18.8576585 18.841158,19 18.5985889,19 C18.4394358,19.0002491 18.2867691,18.9386482 18.1745022,18.8288798 L4.97569469,5.98586054 C4.75159761,5.75634161 4.75635413,5.39484461 4.98641672,5.17098361 C5.21647931,4.94712261 5.5879908,4.94249431 5.82386806,5.16055061 Z M5.75224954,8.58182879 C5.81183191,8.53289672 5.90000696,8.53654433 5.95510621,8.59022054 L5.95510621,8.59022054 L8.46137978,11.0300293 C8.49875472,11.0663818 8.51371136,11.1191901 8.50075122,11.1690404 C8.24048889,12.213077 8.48701329,13.3155867 9.16954393,14.1600242 C9.85207457,15.0044616 10.8951117,15.4974172 11.9991852,15.4973569 C12.285302,15.4974793 12.5704136,15.4644086 12.8484834,15.3988451 C12.8997148,15.3862343 12.953986,15.4007877 12.9913455,15.4371552 L12.9913455,15.4371552 L14.7713097,17.1687737 C14.8083284,17.2047624 14.8233942,17.2569229 14.8110633,17.3064075 C14.7987324,17.3558921 14.7607877,17.3955456 14.7109402,17.4110397 C13.8309181,17.6878711 12.9120501,17.8300358 11.9871862,17.8324513 C10.196348,17.8324513 8.47675339,17.3216494 6.87602301,16.3135453 C5.45527637,15.4192771 4.18114148,14.1492047 3.19085594,12.6412445 C2.92790128,12.2442592 2.93738055,11.732053 3.21485378,11.3445374 C3.98990875,10.2649211 4.83770716,9.34109934 5.75224954,8.58182879 Z M11.9871862,6.15697918 C13.7240293,6.15697918 15.4863701,6.6878483 17.0848507,7.6919389 C18.5277203,8.59861228 19.814979,9.86686044 20.8071394,11.3598614 C21.062923,11.745592 21.0643875,12.2409534 20.8108891,12.6281096 C20.1202462,13.6867728 19.2703744,14.6386898 18.2896168,15.4521144 C18.2299995,15.5007237 18.1420856,15.4969218 18.0871351,15.4433578 L18.0871351,15.4433578 L15.5392403,12.96232 C15.5018654,12.9259675 15.4869087,12.8731593 15.4998689,12.8233089 C15.7974399,11.6351493 15.4365991,10.3820012 14.5478999,9.51725788 C13.6592007,8.65251453 12.3713368,8.30140057 11.1502619,8.59095025 C11.0989135,8.60369926 11.0444623,8.58913577 11.0070248,8.55264011 L11.0070248,8.55264011 L9.23568482,6.82904854 C9.19879731,6.79330765 9.18359324,6.7415116 9.19551618,6.69220505 C9.20743912,6.64289851 9.24478377,6.60313356 9.29417954,6.58714736 C10.1621552,6.30346651 11.0715578,6.15820284 11.9871862,6.15697918 Z M9.67099767,12.2752987 C9.69975394,12.2613494 9.73444757,12.2667757 9.7572627,12.2887912 L9.7572627,12.2887912 L11.6992123,14.1783934 C11.7218376,14.2005935 11.7274143,14.2343519 11.7130785,14.262333 C11.6987428,14.2903141 11.6676806,14.3062995 11.635843,14.3020804 C10.6020515,14.1455471 9.79101892,13.3563768 9.63014919,12.3504523 C9.62581317,12.3194729 9.6422414,12.289248 9.67099767,12.2752987 Z M12.3636522,9.68735006 C13.3988984,9.84349331 14.211127,10.6338273 14.3715958,11.6411673 C14.3761458,11.6723086 14.3596761,11.7027824 14.3307291,11.7167829 C14.301782,11.7307834 14.2668727,11.7251596 14.2441073,11.7028284 L14.2441073,11.7028284 L12.2991581,9.81103709 C12.276243,9.78871371 12.2706682,9.75458829 12.2853397,9.72645117 C12.3000113,9.69831405 12.3316057,9.68253906 12.3636522,9.68735006 Z" id="Combined-Shape" fill="#000000" fill-rule="nonzero"></path>
        </g>
    </g>
</svg>