<?xml version="1.0" encoding="UTF-8"?>
<svg width="24px" height="24px" viewBox="0 0 24 24" version="1.1" xmlns="http://www.w3.org/2000/svg" xmlns:xlink="http://www.w3.org/1999/xlink">
    <title>VSQUARE/4) Icons/eye_off/eye_off_outline</title>
    <g id="VSQUARE_Symbols" stroke="none" stroke-width="1" fill="none" fill-rule="evenodd">
        <g id="VSQUARE/4)-Icons/eye_off/eye_off_outline">
            <rect id="Rectangle" x="0" y="0" width="24" height="24"></rect>
            <path d="M5.82481563,5.16055061 L19.0245467,18.0035699 C19.1960247,18.1705232 19.2473028,18.4215191 19.1544843,18.6395888 C19.0616659,18.8576585 18.8430163,19 18.6004303,19 C18.441266,19.0002491 18.2885887,18.9386482 18.176314,18.8288798 L4.97658292,5.98586054 C4.75247015,5.75634161 4.757227,5.39484461 4.98730569,5.17098361 C5.21738438,4.94712261 5.58892186,4.94249431 5.82481563,5.16055061 Z M5.80531603,8.53804577 C5.8351871,8.51351544 5.8794132,8.51542086 5.90693896,8.54242407 L5.90693896,8.54242407 L6.65392374,9.26812764 C6.66866236,9.28264356 6.67648117,9.30250064 6.67548366,9.32288237 C6.67448614,9.3432641 6.66476343,9.36230845 6.64867385,9.37539604 C5.76894177,10.0861404 4.94995846,10.9676385 4.20222369,12.0100393 L4.20222369,12.0100393 C5.10070539,13.3808127 6.25080695,14.5304818 7.52840592,15.3331705 C8.93162733,16.2168578 10.4319718,16.6649041 11.9878151,16.6649041 C12.6349702,16.6651773 13.2795657,16.5858609 13.906276,16.4288406 C13.957413,16.4154869 14.0119977,16.4293537 14.0498981,16.4653265 L14.0498981,16.4653265 L14.8591316,17.2526911 C14.8774965,17.2705149 14.8850916,17.2963065 14.8792143,17.3208885 C14.873337,17.3454704 14.8548218,17.3653523 14.8302572,17.3734593 C13.9143989,17.6745324 12.9545299,17.8295301 11.9878151,17.8324513 C10.1968516,17.8324513 8.47563662,17.3216494 6.87629421,16.3135453 C5.45582315,15.4192771 4.18122412,14.1492047 3.1908693,12.6412445 C2.92789623,12.2442592 2.93737616,11.732053 3.21486881,11.3445374 C4.00347774,10.2441241 4.87083507,9.30424863 5.80531603,8.53804577 Z M11.9878151,6.15697918 C13.7255297,6.15697918 15.4879938,6.6878483 17.0843362,7.6919389 C18.5273068,8.59861228 19.8146556,9.86686044 20.8068854,11.3598614 C21.0630074,11.7457642 21.0644724,12.24151 20.8106353,12.6288393 C20.1074004,13.7051826 19.2394212,14.6707734 18.2366877,15.4922488 C18.2067818,15.5164563 18.1628171,15.5143967 18.1354398,15.4875057 L18.1354398,15.4875057 L17.389205,14.7618021 C17.3743854,14.7472256 17.3665522,14.7272554 17.3676224,14.7067786 C17.3686925,14.6863017 17.3785671,14.6672076 17.3948299,14.6541689 C18.334091,13.8975 19.1454505,13.002062 19.7992809,12.000553 C19.8006574,11.9988375 19.8006574,11.9964307 19.7992809,11.9947152 C18.8985493,10.6403605 17.734948,9.4917859 16.4333495,8.67450285 C15.0095035,7.77804551 13.513659,7.32452639 11.9878151,7.32452639 C11.3519018,7.32497793 10.7188283,7.40704937 10.1049784,7.56861673 C10.0532634,7.58266919 9.99777292,7.568754 9.95948139,7.53213088 L9.95948139,7.53213088 L9.15137286,6.74586081 C9.13298188,6.72814057 9.12528144,6.70244607 9.13100114,6.67788532 C9.13672083,6.65332457 9.1550522,6.63336912 9.17949728,6.62509264 C10.0819858,6.3168778 11.031348,6.15863032 11.9878151,6.15697918 Z M8.54279122,11.1609694 C8.5692883,11.1533419 8.59794963,11.1605087 8.61738374,11.1796213 L8.61738374,11.1796213 L12.8405477,15.2886578 C12.8601912,15.3075667 12.867557,15.3354535 12.8597176,15.3612345 C12.8518783,15.3870155 12.8301038,15.4065139 12.8030485,15.41198 C11.5953393,15.6809516 10.3303393,15.3267746 9.45427375,14.474384 C8.57820822,13.6219934 8.21419406,12.391179 8.49063632,11.2161072 C8.49625421,11.189783 8.51629415,11.168597 8.54279122,11.1609694 Z M12.0005648,8.49207309 C13.0959752,8.49207309 14.1317995,8.97730741 14.8148859,9.81050483 C15.4979723,10.6437022 15.7539939,11.7341817 15.5104933,12.7733233 C15.5048754,12.7996474 15.4848355,12.8208335 15.4583384,12.828461 C15.4318413,12.8360885 15.40318,12.8289218 15.3837459,12.8098091 L15.3837459,12.8098091 L11.1617069,8.70296181 C11.1420634,8.6840529 11.1346976,8.65616611 11.142537,8.6303851 C11.1503763,8.60460409 11.1721508,8.58510572 11.1992061,8.57963964 C11.4621057,8.5213053 11.7309155,8.49193192 12.0005648,8.49207309 Z" id="Combined-Shape" fill="#000000" fill-rule="nonzero"></path>
        </g>
    </g>
</svg>