<?xml version="1.0" encoding="UTF-8"?>
<svg width="24px" height="24px" viewBox="0 0 24 24" version="1.1" xmlns="http://www.w3.org/2000/svg" xmlns:xlink="http://www.w3.org/1999/xlink">
    <title>VSQUARE/4) Icons/eye_off/eye_off_sharp</title>
    <g id="VSQUARE_Symbols" stroke="none" stroke-width="1" fill="none" fill-rule="evenodd">
        <g id="VSQUARE/4)-Icons/eye_off/eye_off_sharp">
            <rect id="Rectangle" x="0" y="0" width="24" height="24"></rect>
            <path d="M5.62485224,5 L19.1999766,18.1979878 L18.3750482,18.9999985 L4.79992379,5.80201074 L5.62485224,5 Z M5.937375,8.55735862 L8.5275,11.0758908 C8.23117957,12.1285982 8.45693428,13.2554396 9.13798025,14.1230672 C9.81902623,14.9906948 10.877397,15.499782 12,15.4997283 C12.3216505,15.5000174 12.6418853,15.4583258 12.952125,15.3757704 L12.952125,15.3757704 L14.9625,17.3299297 C14.0093962,17.663502 13.0039792,17.8337354 11.991,17.8330548 C10.137375,17.8330548 8.37675,17.2832632 6.7575,16.1989965 C5.346,15.2532709 3.99075,13.6039021 3,11.9997415 C3.8715,10.7288088 4.8795,9.4994384 5.937375,8.55735862 L5.937375,8.55735862 Z M11.991,6.16643014 C13.811625,6.16643014 15.56625,6.72059472 17.20575,7.81361143 C18.64125,8.77100365 20.01075,10.416362 21,11.9997415 C20.224875,13.2553617 19.215375,14.5427006 18.12225,15.4997283 L18.12225,15.4997283 L15.4725,12.9235921 C15.7688204,11.8708847 15.5430657,10.7440433 14.8620197,9.87641574 C14.1809738,9.00878817 13.122603,8.49970092 12,8.49975467 C11.6789773,8.4996285 11.3593842,8.54131865 11.04975,8.62371254 L11.04975,8.62371254 L9.058125,6.68741776 C9.99574098,6.34429646 10.9891624,6.16782789 11.991,6.16643014 Z M9.603375,12.1215118 L11.87475,14.3297848 C10.6483916,14.2662518 9.66872339,13.3138002 9.603375,12.1215118 L9.603375,12.1215118 Z M12.12525,9.66969817 C13.3516084,9.73323109 14.3312766,10.6856827 14.396625,11.8779711 L14.396625,11.8779711 Z" id="Combined-Shape" fill="#000000" fill-rule="nonzero"></path>
        </g>
    </g>
</svg>