<?xml version="1.0" encoding="UTF-8"?>
<svg width="24px" height="24px" viewBox="0 0 24 24" version="1.1" xmlns="http://www.w3.org/2000/svg" xmlns:xlink="http://www.w3.org/1999/xlink">
    <title>VSQUARE/4) Icons/eye/eye_sharp</title>
    <g id="VSQUARE_Symbols" stroke="none" stroke-width="1" fill="none" fill-rule="evenodd">
        <g id="VSQUARE/4)-Icons/eye/eye_sharp">
            <rect id="Rectangle" x="0" y="0" width="24" height="24"></rect>
            <path d="M11.991,6 C13.811625,6 15.56625,6.57 17.20575,7.69425 C18.64125,8.679 20.01075,10.371375 21,12 C20.014125,13.64325 18.649125,15.3375 17.21475,16.320375 C15.585375,17.434875 13.8285,18 11.991,18 C10.137375,18 8.37675,17.4345 6.7575,16.31925 C5.346,15.3465 3.99075,13.65 3,12 C4.225125,10.1625 5.7195,8.408625 7.243875,7.443 C8.7555,6.4875 10.352625,6 11.991,6 Z M12,8.4 C10.0117749,8.4 8.4,10.0117749 8.4,12 C8.4,13.9882251 10.0117749,15.6 12,15.6 C13.9872828,15.5977268 15.5977268,13.9872828 15.6,12 C15.6,10.0117749 13.9882251,8.4 12,8.4 Z M12,9.6 C13.3254834,9.6 14.4,10.6745166 14.4,12 C14.4,13.3254834 13.3254834,14.4 12,14.4 C10.6745166,14.4 9.6,13.3254834 9.6,12 C9.6,10.6745166 10.6745166,9.6 12,9.6 Z" id="Combined-Shape" fill="#000000" fill-rule="nonzero"></path>
        </g>
    </g>
</svg>