<?xml version="1.0" encoding="UTF-8"?>
<svg width="24px" height="24px" viewBox="0 0 24 24" version="1.1" xmlns="http://www.w3.org/2000/svg" xmlns:xlink="http://www.w3.org/1999/xlink">
    <title>VSQUARE/4) Icons/file_tray_full/file_tray_full_outline</title>
    <g id="VSQUARE_Symbols" stroke="none" stroke-width="1" fill="none" fill-rule="evenodd">
        <g id="VSQUARE/4)-Icons/file_tray_full/file_tray_full_outline">
            <rect id="Rectangle" x="0" y="0" width="24" height="24"></rect>
            <path d="M17.714283,3.5 C19.2100458,3.5 20.27967,4.3517829 20.5594839,5.85018677 L20.5574521,5.83971354 L21.9846749,12.5624092 C21.986717,12.5720282 21.988556,12.5816841 21.9901914,12.5913707 C21.9917323,12.5998473 21.9930833,12.6089551 21.9942577,12.6181176 C21.9971729,12.6413346 21.9989936,12.6643043 21.9996824,12.6873282 L21.9996824,12.6873282 L22,12.7083333 L22,17.6687236 C21.99542,19.2305103 20.719839,20.4954616 19.1428542,20.5 L19.1428542,20.5 L4.8550681,20.5 C3.28015749,20.4954616 2.00457652,19.2305103 2,17.6666667 L2,17.6666667 L2,12.7083333 C2,12.6592972 2.00513473,12.6103936 2.01532158,12.5624092 L2.006,12.618 C2.00710631,12.6078763 2.00790751,12.6024328 2.00877076,12.5970098 L2.01532158,12.5624092 L3.44285689,5.83811979 L3.4502653,5.80116994 C3.74654539,4.36237823 4.77242905,3.51718699 6.24063073,3.50025922 L6.24063073,3.50025922 Z M8.50000783,13.4166472 L3.428,13.416 L3.42856817,17.6646097 C3.43070354,18.3938067 3.98577829,18.9938684 4.69823988,19.0742 L4.83357423,19.0830763 L19.1407799,19.0833363 C19.929954,19.0810637 20.5691366,18.4472075 20.5714253,17.6666667 L20.5714253,17.6666667 L20.571,13.416 L15.4999887,13.4166472 C15.1690889,15.0332438 13.727832,16.25 11.9999983,16.25 C10.2721645,16.25 8.83090757,15.0332438 8.50000783,13.4166472 Z M17.714283,4.91666667 L6.28571354,4.91666667 C5.46501719,4.91666667 5.00235842,5.29782639 4.84428982,6.11293357 L4.84428982,6.11293357 L4.84308213,6.11901752 L3.594,12 L9.1428559,12 C9.18386014,12 9.22405739,12.0034263 9.26317241,12.010006 C9.31479102,12.0186787 9.36465239,12.0328949 9.41198234,12.0519994 C9.47830969,12.0787882 9.53954743,12.1150832 9.59408779,12.15921 C9.63434716,12.1917498 9.67118533,12.2288339 9.7036142,12.2695324 C9.71702006,12.2866639 9.72539981,12.298101 9.73343596,12.309789 C9.75871107,12.3465241 9.78068708,12.3859563 9.79877774,12.4274435 C9.80496978,12.4416448 9.8107,12.4560685 9.81595793,12.4707144 C9.82123272,12.4854145 9.82600171,12.5002331 9.83028353,12.5152545 C9.83086083,12.5172758 9.83151946,12.5196288 9.83216611,12.5219866 C9.83967955,12.5494104 9.84554609,12.5773126 9.84970744,12.6057626 C9.85163722,12.61886 9.85326944,12.6327956 9.85448789,12.6468484 C9.85586253,12.662795 9.85669717,12.6785305 9.85700593,12.6943937 L9.85714149,12.7083333 C9.85714149,13.8819384 10.8165311,14.8333333 11.9999983,14.8333333 C13.1716307,14.8333333 14.1236448,13.9008712 14.1425679,12.7434741 L14.142855,12.7083333 L14.1493756,12.6122167 L14.1493756,12.6122167 L14.1677793,12.5221731 C14.1759049,12.4925126 14.1859252,12.4636257 14.1977031,12.4356482 C14.2287535,12.362829 14.2694778,12.2987553 14.3190213,12.2425181 C14.329126,12.2310505 14.3395456,12.2199607 14.3503105,12.2092114 C14.404109,12.1552569 14.4680301,12.1090888 14.5385986,12.0741631 C14.5513487,12.0678614 14.5639526,12.0620804 14.5767485,12.0566592 C14.5860922,12.0526879 14.5962803,12.0486318 14.6065812,12.0448048 C14.6252069,12.0379021 14.6436338,12.0319076 14.6623739,12.0266525 C14.6761377,12.0227871 14.6903412,12.019262 14.7047059,12.0161654 C14.7207805,12.0127099 14.7366391,12.0098519 14.7526707,12.0075221 C14.7687678,12.0051681 14.7856723,12.0032982 14.8027442,12.0020233 C14.8162307,12.0010201 14.8296116,12.0003923 14.8430839,12.0001344 L20.405,12 L19.1581757,6.12509076 L19.1501254,6.08378164 C18.9928564,5.28410761 18.5233527,4.91666667 17.714283,4.91666667 L17.714283,4.91666667 Z M17.714283,9.16666667 C18.108772,9.16666667 18.4285686,9.4837983 18.4285686,9.875 C18.4285686,10.2615445 18.1163409,10.5757721 17.7283397,10.5831989 L6.28571354,10.5833333 C5.8912245,10.5833333 5.57142795,10.2662017 5.57142795,9.875 C5.57142795,9.48845547 5.88365562,9.17422792 6.27165682,9.16680109 L17.714283,9.16666667 Z M16.9999974,6.33333333 C17.3944864,6.33333333 17.714283,6.65046497 17.714283,7.04166667 C17.714283,7.4282112 17.4020553,7.74243875 17.0140541,7.74986558 L16.9999974,7.75 L6.99999913,7.75 C6.60551009,7.75 6.28571354,7.43286836 6.28571354,7.04166667 C6.28571354,6.65512213 6.59794121,6.34089458 6.98594241,6.33346776 L16.9999974,6.33333333 Z" id="Combined-Shape" fill="#000000" fill-rule="nonzero"></path>
        </g>
    </g>
</svg>