<?xml version="1.0" encoding="UTF-8"?>
<svg width="24px" height="24px" viewBox="0 0 24 24" version="1.1" xmlns="http://www.w3.org/2000/svg" xmlns:xlink="http://www.w3.org/1999/xlink">
    <title>VSQUARE/4) Icons/file_tray/file_tray</title>
    <g id="VSQUARE_Symbols" stroke="none" stroke-width="1" fill="none" fill-rule="evenodd">
        <g id="VSQUARE/4)-Icons/file_tray/file_tray">
            <rect id="Rectangle" x="0" y="0" width="24" height="24"></rect>
            <path d="M21.9848214,12.5622396 L20.5562503,5.84148437 C20.2803574,4.37523437 19.2178576,3.5 17.7142865,3.5 L6.28571702,3.5 C5.53571715,3.5 4.90178869,3.70763021 4.40625306,4.11713542 C3.91071744,4.52664062 3.58616392,5.10481771 3.44286038,5.83882813 L2.0142892,12.5622396 C2.00463768,12.6103449 2,12.6592854 2,12.7083333 L2,17.6666667 C2,19.2314735 3.27918969,20.5 4.85714584,20.5 L19.1428576,20.5 C20.7208138,20.5 22,19.2314735 22,17.6666667 L22,12.7083333 C22,12.6592558 21.9947728,12.610315 21.9848214,12.5622396 Z M4.84196727,6.12526042 C4.84196727,6.12083333 4.84196727,6.11684896 4.84196727,6.11286458 C5.00044939,5.29695312 5.45848502,4.91755208 6.28348488,4.91755208 L17.7142865,4.91755208 C18.5450899,4.91755208 19.0031255,5.29606771 19.1549112,6.10888021 C19.1549112,6.11463542 19.1571434,6.12039062 19.1580362,6.12614583 L20.3602681,11.7875 C20.3713015,11.8397391 20.357987,11.8941266 20.3240283,11.935534 C20.2900695,11.9769415 20.2390892,12.0009515 20.1852682,12.0008854 L14.8571441,12.0008854 C14.4649722,11.9989235 14.1453169,12.3123488 14.1428585,12.70125 C14.1428585,13.8748551 13.1834689,14.82625 12.0000017,14.82625 C10.8165346,14.82625 9.85714497,13.8748551 9.85714497,12.70125 C9.85620015,12.5143269 9.7804139,12.3354321 9.64645885,12.2039217 C9.5125038,12.0724113 9.33135322,11.9990583 9.14285938,12 L3.81473531,12 C3.76091424,12.0000661 3.70993397,11.9760561 3.67597521,11.9346486 C3.64201645,11.8932412 3.62870197,11.8388537 3.63973534,11.7866146 L4.84196727,6.12526042 Z" id="Shape" fill="#000000" fill-rule="nonzero"></path>
        </g>
    </g>
</svg>