<?xml version="1.0" encoding="UTF-8"?>
<svg width="24px" height="24px" viewBox="0 0 24 24" version="1.1" xmlns="http://www.w3.org/2000/svg" xmlns:xlink="http://www.w3.org/1999/xlink">
    <title>VSQUARE/4) Icons/file_tray_full/file_tray_full_sharp</title>
    <g id="VSQUARE_Symbols" stroke="none" stroke-width="1" fill="none" fill-rule="evenodd">
        <g id="VSQUARE/4)-Icons/file_tray_full/file_tray_full_sharp">
            <rect id="Rectangle" x="0" y="0" width="24" height="24"></rect>
            <path d="M20.5714253,3.5 L22,12 L22,20.5 L2,20.5 L2,12 L3.42857118,3.5 L20.5714253,3.5 Z M19.0535685,5.359375 L4.94642806,5.359375 L3.96428537,12 L9.1428559,12 C9.1428559,13.5648068 10.4220421,14.8333333 11.9999983,14.8333333 C13.5215988,14.8333333 14.7653891,13.6537978 14.8522904,12.1664799 L14.8571406,12 L20.0357111,12 L19.0535685,5.359375 Z M18.4285686,9.16666667 L18.4285686,10.8489583 L5.57142795,10.8489583 L5.57142795,9.16666667 L18.4285686,9.16666667 Z M17.714283,6.33333333 L17.714283,8.015625 L6.28571354,8.015625 L6.28571354,6.33333333 L17.714283,6.33333333 Z" id="Combined-Shape" fill="#000000" fill-rule="nonzero"></path>
        </g>
    </g>
</svg>