<?xml version="1.0" encoding="UTF-8"?>
<svg width="24px" height="24px" viewBox="0 0 24 24" version="1.1" xmlns="http://www.w3.org/2000/svg" xmlns:xlink="http://www.w3.org/1999/xlink">
    <title>VSQUARE/4) Icons/file_tray_full/file_tray_full</title>
    <g id="VSQUARE_Symbols" stroke="none" stroke-width="1" fill="none" fill-rule="evenodd">
        <g id="VSQUARE/4)-Icons/file_tray_full/file_tray_full">
            <rect id="Rectangle" x="0" y="0" width="24" height="24"></rect>
            <path d="M17.7142865,3.5 C19.2178576,3.5 20.2803574,4.37523437 20.5562503,5.84148437 L20.5562503,5.84148437 L21.9848214,12.5622396 C21.9947728,12.610315 22,12.6592558 22,12.7083333 L22,12.7083333 L22,17.6666667 C22,19.2314735 20.7208138,20.5 19.1428576,20.5 L19.1428576,20.5 L4.85714584,20.5 C3.27918969,20.5 2,19.2314735 2,17.6666667 L2,17.6666667 L2,12.7083333 C2,12.6592854 2.00463768,12.6103449 2.0142892,12.5622396 L2.0142892,12.5622396 L3.44286038,5.83882813 C3.58616392,5.10481771 3.91071744,4.52664062 4.40625306,4.11713542 C4.90178869,3.70763021 5.53571715,3.5 6.28571702,3.5 L6.28571702,3.5 Z M17.7142865,4.91755208 L6.28348488,4.91755208 C5.45848502,4.91755208 5.00044939,5.29695312 4.84196727,6.11286458 L4.84196727,6.11286458 L4.84196727,6.12526042 L3.63973534,11.7866146 C3.62870197,11.8388537 3.64201645,11.8932412 3.67597521,11.9346486 C3.70993397,11.9760561 3.76091424,12.0000661 3.81473531,12 L3.81473531,12 L9.14285938,12 C9.33135322,11.9990583 9.5125038,12.0724113 9.64645885,12.2039217 C9.7804139,12.3354321 9.85620015,12.5143269 9.85714497,12.70125 C9.85714497,13.8748551 10.8165346,14.82625 12.0000017,14.82625 C13.1834689,14.82625 14.1428585,13.8748551 14.1428585,12.70125 C14.1453169,12.3123488 14.4649722,11.9989235 14.8571441,12.0008854 L14.8571441,12.0008854 L20.1852682,12.0008854 C20.2390892,12.0009515 20.2900695,11.9769415 20.3240283,11.935534 C20.357987,11.8941266 20.3713015,11.8397391 20.3602681,11.7875 L20.3602681,11.7875 L19.1580362,6.12614583 L19.1580362,6.12614583 L19.1549112,6.10888021 C19.0031255,5.29606771 18.5450899,4.91755208 17.7142865,4.91755208 L17.7142865,4.91755208 Z M17.7142865,9.16666667 C18.1087755,9.16666667 18.4285721,9.4837983 18.4285721,9.875 C18.4285721,10.2662017 18.1087755,10.5833333 17.7142865,10.5833333 L6.28571702,10.5833333 C5.89122798,10.5833333 5.57143143,10.2662017 5.57143143,9.875 C5.57143143,9.4837983 5.89122798,9.16666667 6.28571702,9.16666667 L17.7142865,9.16666667 Z M17.0000009,6.33333333 C17.3944899,6.33333333 17.7142865,6.65046497 17.7142865,7.04166667 C17.7142865,7.43286836 17.3944899,7.75 17.0000009,7.75 L7.00000261,7.75 C6.60551357,7.75 6.28571702,7.43286836 6.28571702,7.04166667 C6.28571702,6.65046497 6.60551357,6.33333333 7.00000261,6.33333333 L17.0000009,6.33333333 Z" id="Combined-Shape" fill="#000000" fill-rule="nonzero"></path>
        </g>
    </g>
</svg>