<?xml version="1.0" encoding="UTF-8"?>
<svg width="24px" height="24px" viewBox="0 0 24 24" version="1.1" xmlns="http://www.w3.org/2000/svg" xmlns:xlink="http://www.w3.org/1999/xlink">
    <title>VSQUARE/4) Icons/flag/flag_outline</title>
    <g id="VSQUARE_Symbols" stroke="none" stroke-width="1" fill="none" fill-rule="evenodd">
        <g id="VSQUARE/4)-Icons/flag/flag_outline">
            <rect id="Rectangle" x="0" y="0" width="24" height="24"></rect>
            <path d="M4.04836691,2.67675757 C4.55018265,2.38615981 5.29766982,2.16705738 6.33350753,2.06441724 L6.42173048,2.05602167 C6.82183119,2.01949819 7.26380533,2 7.75,2 C8.23253066,2 8.7374539,2.05333904 9.28412404,2.15767782 L9.37825148,2.17606362 C9.45703783,2.19180072 9.53669872,2.2085759 9.61729059,2.22638234 L9.71445131,2.24824465 C10.0723723,2.33021824 10.4487539,2.43210428 10.8484028,2.55332179 L10.9579784,2.58685997 L11.075156,2.62334721 L11.1633338,2.65120454 L11.2818837,2.68919002 L11.4022239,2.72835137 L11.5250862,2.76892111 L11.6512023,2.81113178 L11.7813039,2.8552159 L12.0207728,2.93757051 L12.2405029,3.01423815 L12.4761978,3.09734462 L13.5187426,3.46657912 L13.7923453,3.56265014 L14.0210515,3.6416718 L14.1588543,3.68795136 L14.2441673,3.71572962 L14.3236276,3.74086125 L14.3980898,3.7638031 L14.5112087,3.79790772 L14.643544,3.83740885 C14.6684557,3.84484449 14.6931514,3.85214325 14.7176328,3.85930526 L14.7904365,3.88038116 L14.8619664,3.90063727 C14.8737826,3.90394501 14.8855461,3.90721863 14.8972573,3.91045814 L14.9668981,3.92948596 L15.0352938,3.94769583 C15.04659,3.95066269 15.0578347,3.95359549 15.0690283,3.95649427 L15.1355778,3.9734786 C15.1685475,3.98176668 15.2010609,3.98974871 15.2331247,3.99742512 L15.2966544,4.01237056 L15.3589963,4.02650172 C15.3692883,4.0287891 15.3795312,4.03104258 15.3897254,4.03326218 L15.450307,4.04617332 C15.470307,4.05034158 15.4901138,4.05437444 15.5097293,4.05827201 L15.5680039,4.06955901 L15.6251421,4.08003503 C15.672287,4.08842736 15.7182602,4.09597569 15.7630914,4.10268194 L15.8163426,4.11032537 C15.9217565,4.12480431 16.0206615,4.13443728 16.1134699,4.13925073 L16.159368,4.14125594 C16.1896305,4.14232516 16.2192233,4.14285937 16.2481616,4.14285955 C17.3287236,4.14003146 18.3978721,3.91988184 19.3963266,3.49389952 C19.6425523,3.39032121 19.9238435,3.41786869 20.1457038,3.56728771 C20.3627127,3.71343938 20.4943184,3.95693847 20.4998204,4.21862294 L20.5,4.23571429 L20.5,14.0306585 C20.4989736,14.3838476 20.2915846,14.7032329 19.9701031,14.8457701 L19.912891,14.8706708 C19.8741336,14.8872911 19.8341472,14.9039446 19.7929507,14.9205934 L19.7302506,14.9455583 C19.4334365,15.0620007 19.0777832,15.1772847 18.6697217,15.2784115 C17.9193702,15.4643654 17.1084056,15.5714286 16.25,15.5714286 C15.9223706,15.5714286 15.5648594,15.5424958 15.1611079,15.4855935 L15.0797362,15.4738404 L14.9971024,15.4613432 L14.9131773,15.4481035 C14.8990806,15.4458351 14.8849288,15.4435359 14.8707215,15.4412058 L14.784805,15.4268557 L14.6975246,15.4117675 L14.6088512,15.3959428 L14.5187557,15.3793834 L14.427209,15.362091 C14.4118286,15.3591479 14.3963866,15.3561744 14.3808823,15.3531705 L14.1219957,15.3019211 L13.9165677,15.2599268 L13.7457124,15.2231292 L13.6013204,15.1907645 L13.2575688,15.1112066 L11.8327309,14.7742384 L11.5846152,14.7163369 L11.3868651,14.6708476 L11.2613664,14.6423626 L11.080761,14.6019987 L10.8786501,14.5578506 L10.7099096,14.5219173 L10.5984053,14.498658 L10.4888529,14.4762113 C10.4707115,14.4725303 10.4526285,14.4688795 10.4346035,14.4652588 L10.3271438,14.443896 L10.2210505,14.4232569 L10.1163005,14.4033426 C10.0989528,14.400084 10.0816601,14.3968556 10.064422,14.3936575 L9.96164359,14.374832 L9.86015079,14.3567334 L9.75992049,14.3393628 L9.66092962,14.322721 C9.56255077,14.3064439 9.46599645,14.2912614 9.37116282,14.2771777 L9.27689891,14.2634605 L9.18375904,14.2504766 C9.07574258,14.235757 8.96997395,14.2225366 8.86628823,14.2108222 L8.77792102,14.2011502 C8.73398862,14.1964987 8.69043014,14.1921242 8.64723261,14.1880271 L8.56131495,14.180203 L8.47633673,14.1731197 C8.44816467,14.1708822 8.42014533,14.1687682 8.39227488,14.1667781 L8.30910631,14.1611791 C8.11607055,14.148982 7.9301415,14.1428571 7.75,14.1428571 L7.70581892,14.1429162 L7.61835593,14.1433872 L7.53208821,14.1443247 L7.44701139,14.1457238 C7.41885046,14.1462665 7.39088728,14.1468855 7.36312113,14.1475798 L7.28041308,14.1498879 L7.19888287,14.1526434 C7.17190196,14.1536359 7.14511663,14.1547022 7.11852616,14.1558414 L7.03933859,14.1594773 C7.02623785,14.1601195 7.01318564,14.1607798 7.00018187,14.161458 L6.92273985,14.1657417 L6.84645608,14.1704513 C6.83383839,14.1712715 6.82126879,14.1721092 6.80874718,14.1729644 L6.73419262,14.1783039 L6.66078544,14.1840575 L6.58852128,14.1902202 L6.51739577,14.1967875 C6.50563617,14.1979155 6.49392382,14.1990601 6.48225866,14.2002213 L6.41283298,14.2073863 L6.34453508,14.2149438 L6.2773606,14.2228891 C6.26625823,14.2242454 6.25520249,14.2256176 6.24419328,14.2270057 L6.17869577,14.2355237 L6.1143108,14.2444176 C6.09303408,14.2474443 6.07194206,14.2505329 6.051034,14.2536826 L5.98886104,14.2633139 L5.92778755,14.2733068 C5.87734988,14.2817835 5.82805297,14.2906318 5.77988546,14.2998395 L5.72262584,14.3110602 L5.6664461,14.3226211 L5.61134189,14.3345174 C5.60224724,14.3365277 5.59319723,14.3385519 5.58419175,14.3405897 L5.53069267,14.35298 L5.47825822,14.3656938 C5.46095703,14.369985 5.44383256,14.3743294 5.42688407,14.3787261 L5.37656585,14.3920724 C5.36826723,14.3943227 5.36001243,14.3965858 5.35180135,14.3988617 L5.30305886,14.4126699 L5.25536142,14.42678 L5.20870468,14.4411874 L5.16308427,14.4558872 C5.15556699,14.4583612 5.14809271,14.4608473 5.14066133,14.4633452 C5.06555403,14.4885914 4.99855479,14.5138612 4.93922873,14.5387537 L4.91666667,14.5483036 L4.91666667,21.2857143 C4.91666667,21.6755071 4.60704084,21.9923752 4.22227292,22 L4.20833333,22 C3.8217888,22 3.50756125,21.6877723 3.5,21.299771 L3.5,21.2857143 L3.5,3.61087214 C3.50131704,3.23579498 3.6969833,2.8892211 4.01498001,2.69643456 L4.03125441,2.686765 L4.04836691,2.67675757 Z M7.75,3.42857143 C7.60598769,3.42857143 7.46651067,3.43047226 7.33149861,3.43419333 L7.24215128,3.43694282 C7.22737004,3.43744572 7.21264374,3.43797087 7.19797227,3.43851816 L7.11060068,3.4420667 C7.05279059,3.44460833 6.99585475,3.44750067 6.93978698,3.45073665 L6.85633562,3.45584746 L6.77418174,3.4614684 L6.69332071,3.46759419 C6.67995135,3.46865693 6.66663567,3.46974048 6.65337356,3.47084473 L6.57444313,3.47771782 C6.54834678,3.48009107 6.52246398,3.48254625 6.49679396,3.48508248 L6.42042144,3.4929334 C6.26894995,3.50911796 6.12511053,3.52818825 5.98873646,3.54995324 L5.92117077,3.56105941 C5.86538317,3.57050021 5.81088682,3.58040331 5.75766965,3.59075489 L5.69442228,3.60339117 L5.6323983,3.61645269 C5.61192703,3.62087681 5.59165888,3.62537092 5.57159308,3.62993413 C5.30173385,3.69130351 5.08939229,3.75989813 4.92887451,3.82896046 L4.91666667,3.83424107 L4.91666667,13.0383036 L4.92293348,13.0365278 C5.21127354,12.9538169 5.5349197,12.8853973 5.89596904,12.8331989 L5.97681876,12.821867 C5.99039662,12.8200231 6.00402599,12.8182017 6.01770699,12.8164028 L6.10041338,12.8058808 C6.19762893,12.7939226 6.29738465,12.7830788 6.39971709,12.7733828 L6.4880625,12.765354 C6.51772188,12.7627719 6.54759245,12.7602844 6.57767508,12.7578921 L6.66855995,12.7510019 C6.98888948,12.7278921 7.33269136,12.7153733 7.70095227,12.7143535 L7.75,12.7142857 C8.30202839,12.7142857 8.88640811,12.7626875 9.53415317,12.8573188 L9.63975323,12.8730693 C9.69283588,12.8811468 9.74634612,12.8895274 9.80030049,12.8982101 L9.90880628,12.9159777 C9.94517554,12.9220342 9.98174708,12.9282246 10.0185258,12.9345485 L10.1294884,12.9539206 L10.2417236,12.9740917 L10.3552606,12.99506 C10.3933265,13.002182 10.4316143,13.0094365 10.4701289,13.0168232 L10.5863579,13.0393794 C10.6058444,13.0432048 10.6253889,13.047063 10.6449918,13.0509542 L10.7633169,13.074696 C10.7831565,13.0787187 10.8030558,13.0827742 10.8230154,13.0868625 L10.971607,13.1176553 L11.1197192,13.149012 L11.2699125,13.1814639 L11.4237792,13.2153511 L11.61551,13.2583888 L11.8524502,13.3126142 L12.1460673,13.3810227 L12.3447032,13.4278537 L13.5753442,13.7190183 L13.9425563,13.8038157 L14.1250238,13.8441608 L14.2412983,13.8687811 L14.3701289,13.8951094 L14.6018692,13.9412271 L14.6834127,13.9570452 L14.7635165,13.9722165 C14.7767482,13.9746911 14.7899206,13.9771388 14.8030342,13.9795596 L14.8810122,13.9937607 L14.9575957,14.0073151 C14.9702444,14.0095203 14.9828357,14.0116986 14.99537,14.0138499 L15.0698953,14.0264346 L15.143071,14.0383729 L15.2149152,14.049665 C15.2267792,14.0514932 15.2385886,14.0532944 15.2503435,14.0550687 L15.3202241,14.0653916 L15.3888182,14.0750685 C15.4001444,14.0766275 15.4114176,14.0781596 15.4226385,14.0796647 L15.4893366,14.0883729 L15.5547933,14.0964353 C15.5764072,14.0990151 15.5978173,14.1014874 15.6190265,14.103852 L15.6820543,14.1106233 C15.7132699,14.1138476 15.7440402,14.1168299 15.7743754,14.1195702 L15.8344685,14.1247281 C15.8443884,14.125534 15.8542606,14.1263131 15.8640856,14.1270652 L15.922472,14.1312556 L15.9797432,14.1348009 L16.035917,14.1377015 L16.0910116,14.1399572 L16.1450449,14.1415684 C16.1807174,14.1424276 16.2156944,14.1428571 16.25,14.1428571 C16.989521,14.1428571 17.6878308,14.0506666 18.331626,13.8911198 C18.6046881,13.8234489 18.8470755,13.7492443 19.0550311,13.674772 L19.0833333,13.6645089 L19.0833333,5.13022321 L19.0807993,5.13104019 C18.1849969,5.41414425 17.2508749,5.56289519 16.3077531,5.57110179 L16.25,5.57142857 C15.7894019,5.57142857 15.2763865,5.4883398 14.664526,5.32663497 L14.5823548,5.30460884 L14.4989876,5.28165333 C14.4709965,5.27384685 14.442802,5.26588587 14.4144,5.25777078 L14.3285676,5.23296355 L14.2414658,5.20723401 L14.1379628,5.17598419 L14.0678868,5.15443528 L13.9608808,5.12095646 L13.8881183,5.09781916 L13.8140847,5.07398919 L13.7386675,5.04943377 L13.6227018,5.01116878 L13.5029913,4.97108727 L13.3791566,4.92907868 L13.2069731,4.86987845 L12.9802907,4.79081229 L12.0073086,4.44539842 L11.7780022,4.36453984 L11.5992261,4.30209023 L11.4301773,4.24365671 L11.301018,4.19950664 L11.1157627,4.1370829 L10.9968886,4.09767371 L10.8808969,4.05976773 L10.7670839,4.02314032 L10.6827306,3.99637367 L10.5710369,3.96144317 L10.4929235,3.93737112 L10.3933237,3.90715443 L10.2949248,3.87785342 C10.2786241,3.87304627 10.2623728,3.86827732 10.2461705,3.86354657 L10.149542,3.83562075 C10.1175267,3.82646508 10.0857046,3.81746239 10.0540731,3.80861284 L9.95974728,3.78252373 L9.86654799,3.75735432 C9.82022722,3.74499969 9.77432269,3.73299028 9.72882511,3.72132659 L9.63836979,3.69846033 L9.54898311,3.6765169 C9.53417347,3.67293661 9.51940766,3.66939481 9.50468535,3.66589152 L9.41687063,3.64533399 L9.33008322,3.62570152 C8.74050821,3.49470895 8.22172894,3.42857143 7.75,3.42857143 Z" id="Path" fill="#000000" fill-rule="nonzero"></path>
        </g>
    </g>
</svg>