<?xml version="1.0" encoding="UTF-8"?>
<svg width="24px" height="24px" viewBox="0 0 24 24" version="1.1" xmlns="http://www.w3.org/2000/svg" xmlns:xlink="http://www.w3.org/1999/xlink">
    <title>VSQUARE/4) Icons/flag/flag_sharp</title>
    <g id="VSQUARE_Symbols" stroke="none" stroke-width="1" fill="none" fill-rule="evenodd">
        <g id="VSQUARE/4)-Icons/flag/flag_sharp">
            <rect id="Rectangle" x="0" y="0" width="24" height="24"></rect>
            <path d="M5.18229167,22 L3.5,22 L3.5,3.13258929 L3.70763021,2.92366071 C3.86036458,2.76919643 4.77411458,2 7.75,2 C9.39731771,2 11.2398698,2.65669643 12.8654948,3.23571429 C14.1745833,3.70223214 15.4110677,4.14285714 16.25,4.14285714 C18.1461198,4.14285714 19.469375,3.50669643 19.4817708,3.5 L20.5,3.00267857 L20.5,14.584375 L20.1086458,14.7816964 C20.0444531,14.8125 18.516224,15.5714286 16.25,15.5714286 C15.1813021,15.5714286 13.8425521,15.2526786 12.4254427,14.9147321 C10.8325781,14.5352679 9.18570312,14.1428571 7.75,14.1428571 C6.11773437,14.1428571 5.54796875,14.3919643 5.18229167,14.5495536 L5.18229167,22 Z" id="Path" fill="#000000" fill-rule="nonzero"></path>
        </g>
    </g>
</svg>