<?xml version="1.0" encoding="UTF-8"?>
<svg width="24px" height="24px" viewBox="0 0 24 24" version="1.1" xmlns="http://www.w3.org/2000/svg" xmlns:xlink="http://www.w3.org/1999/xlink">
    <title>VSQUARE/4) Icons/flag/flag</title>
    <g id="VSQUARE_Symbols" stroke="none" stroke-width="1" fill="none" fill-rule="evenodd">
        <g id="VSQUARE/4)-Icons/flag/flag">
            <rect id="Rectangle" x="0" y="0" width="24" height="24"></rect>
            <path d="M4.20833333,22 C3.81713164,22 3.5,21.6802034 3.5,21.2857143 L3.5,3.61294643 C3.5,3.23210997 3.70067088,2.87995147 4.02682292,2.68794643 C4.5625,2.37410714 5.64182292,2 7.75,2 C9.39731771,2 11.2398698,2.65669643 12.8654948,3.23571429 C14.1745833,3.70223214 15.4110677,4.14285714 16.25,4.14285714 C17.3299557,4.13951623 18.3984531,3.91946825 19.3932292,3.49553571 C19.6392743,3.39080337 19.9209876,3.41732416 20.1435566,3.56617234 C20.3661256,3.71502052 20.5,3.96640257 20.5,4.23571429 L20.5,14.0285714 C20.4996429,14.3832622 20.2911207,14.704106 19.96875,14.8459821 C19.583151,15.0160714 18.1753385,15.5714286 16.25,15.5714286 C15.1813021,15.5714286 13.8425521,15.2526786 12.4254427,14.9147321 C10.8325781,14.5352679 9.18570313,14.1428571 7.75,14.1428571 C6.11773437,14.1428571 5.28234375,14.3919643 4.91666667,14.5495536 L4.91666667,21.2857143 C4.91666667,21.6802034 4.59953503,22 4.20833333,22 Z" id="Path" fill="#000000" fill-rule="nonzero"></path>
        </g>
    </g>
</svg>