<?xml version="1.0" encoding="UTF-8"?>
<svg width="24px" height="24px" viewBox="0 0 24 24" version="1.1" xmlns="http://www.w3.org/2000/svg" xmlns:xlink="http://www.w3.org/1999/xlink">
    <title>VSQUARE/4) Icons/folder_open/folder_open_outline</title>
    <g id="VSQUARE_Symbols" stroke="none" stroke-width="1" fill="none" fill-rule="evenodd">
        <g id="VSQUARE/4)-Icons/folder_open/folder_open_outline">
            <rect id="Rectangle" x="0" y="0" width="24" height="24"></rect>
            <path d="M8.82877506,4 C9.28007911,4 9.72149311,4.13089216 10.0995995,4.37646875 L10.1231482,4.39196647 L11.2831892,5.16533333 C11.441597,5.27096009 11.6267384,5.32908768 11.8167826,5.33310946 L18.3332826,5.33333333 C19.6090502,5.33333333 20.6456797,6.35721334 20.6662847,7.62808073 L20.6670781,8.781183 C20.9714249,8.88887123 21.2484104,9.06977195 21.4715631,9.31222441 C21.8488148,9.72210331 22.0380265,10.2707512 21.9936331,10.8260448 L21.9936331,10.8260448 L21.9931296,10.8320058 L21.3196396,17.7021667 L21.318706,17.7428256 C21.2789704,18.9819001 20.2730847,19.9772977 19.0280995,19.9996207 L19.0280995,19.9996207 L5.00930552,20 C3.74798748,19.9977917 2.72185705,18.9950808 2.68131821,17.7435919 L2.68131821,17.7435919 L2.68032992,17.702125 L2.0068698,10.8320042 L2.00450586,10.800757 C1.96769101,10.2530418 2.15766594,9.71380202 2.53055799,9.30992982 C2.7533014,9.06868073 3.02939217,8.88865097 3.3326157,8.78130718 L3.33340222,6.33333333 C3.33340222,5.05755556 4.35727406,4.02091778 5.62813132,4.0003126 L8.82877506,4 Z M19.987,9.999 L4.01233301,9.99988936 C4.00825204,9.99996301 4.00416213,10 4.00006357,10 C3.81014114,10.0016846 3.63501507,10.0792139 3.5101794,10.2144211 C3.38396978,10.3511163 3.32062304,10.5343331 3.3354488,10.7197917 L3.33511637,10.7157083 L4.01021607,17.6016214 C4.0116289,17.6160329 4.01257163,17.6304848 4.01304312,17.6449539 L4.01304312,17.6449539 L4.01353042,17.6831842 C4.02233925,18.2271737 4.46554633,18.665712 5.01047218,18.6666677 L5.01047218,18.6666677 L18.9883607,18.6666677 C19.5399575,18.6657024 19.9866036,18.2182697 19.9866028,17.6666677 C19.9866027,17.6449467 19.9876642,17.6232387 19.9897835,17.6016214 L19.9897835,17.6016214 L20.6646865,10.717 L20.6656822,10.7029688 C20.675163,10.5292531 20.6163341,10.3586699 20.5017864,10.2277285 L20.5017864,10.2277285 L20.4905277,10.2151817 C20.3647771,10.0785554 20.1877424,10.0005668 20.0020563,9.99999686 C20.0046664,9.99998767 20.0023027,10 19.999936,10 L19.987,9.999 Z M8.84990978,5.33355668 L5.66671695,5.33333333 C5.1199594,5.33333333 4.67568961,5.77213905 4.66685889,6.3167965 L4.666,8.666 L19.333,8.666 L19.3332746,7.66666667 C19.3332746,7.11990476 18.8944724,6.67563143 18.3498193,6.66680064 L11.8379006,6.66666667 C11.3865965,6.6666551 10.9451896,6.53576778 10.5670927,6.29019752 L10.5435446,6.2747002 L9.38350355,5.50133333 C9.22508864,5.3957018 9.03995065,5.33757394 8.84990978,5.33355668 Z" id="Combined-Shape" fill="#000000" fill-rule="nonzero"></path>
        </g>
    </g>
</svg>