<?xml version="1.0" encoding="UTF-8"?>
<svg width="24px" height="24px" viewBox="0 0 24 24" version="1.1" xmlns="http://www.w3.org/2000/svg" xmlns:xlink="http://www.w3.org/1999/xlink">
    <title>VSQUARE/4) Icons/folder_open/folder_open</title>
    <g id="VSQUARE_Symbols" stroke="none" stroke-width="1" fill="none" fill-rule="evenodd">
        <g id="VSQUARE/4)-Icons/folder_open/folder_open">
            <rect id="Rectangle" x="0" y="0" width="24" height="24"></rect>
            <path d="M18.3313187,5.33334146 L11.836259,5.33334146 C11.6389768,5.33397343 11.4459564,5.27596264 11.2817061,5.16667488 L10.1234365,4.39209198 C9.73988579,4.13559771 9.2886604,3.99910584 8.8272577,4.00000441 L5.66534815,4.00000441 C4.3773257,4.00138675 3.33352087,5.04524837 3.33214306,6.3333409 L3.33214306,7.33334035 L20.6645237,7.33334035 C20.6645237,6.04667439 19.6179146,5.33334146 18.3313187,5.33334146 Z M18.9875326,20 L5.00913422,20 C3.73538073,19.9985545 2.69817859,18.9757615 2.67884564,17.7020846 L2.0063826,10.8379217 L2.0063826,10.8262551 C1.96186339,10.2700618 2.15170152,9.72055647 2.53004387,9.31046548 C2.90838623,8.90037449 3.44083119,8.66698627 3.99877309,8.66667294 L20.0020602,8.66667294 C20.559857,8.6672186 21.0920802,8.90070793 21.4702388,9.31077132 C21.8483975,9.72083471 22.0381252,10.2702062 21.9936174,10.8262551 L21.9936174,10.8379217 L21.3178212,17.7020846 C21.2984882,18.9757615 20.2612861,19.9985545 18.9875326,20 Z" id="Combined-Shape" fill="#000000" fill-rule="nonzero"></path>
        </g>
    </g>
</svg>