<?xml version="1.0" encoding="UTF-8"?>
<svg width="24px" height="24px" viewBox="0 0 24 24" version="1.1" xmlns="http://www.w3.org/2000/svg" xmlns:xlink="http://www.w3.org/1999/xlink">
    <title>VSQUARE/4) Icons/folder_open/folder_open_sharp</title>
    <g id="VSQUARE_Symbols" stroke="none" stroke-width="1" fill="none" fill-rule="evenodd">
        <g id="VSQUARE/4)-Icons/folder_open/folder_open_sharp">
            <rect id="Rectangle" x="0" y="0" width="24" height="24"></rect>
            <path d="M2.00341701,9.22499869 L3.19424038,18.9695796 C3.26342809,19.5579721 3.76262341,20.0010877 4.355064,19.999998 L19.6466027,19.999998 C20.2390432,20.0010877 20.7382386,19.5579721 20.8074263,18.9695796 L21.996583,9.22499869 C22.0132408,9.08319116 21.9684784,8.94102699 21.87358,8.83434511 C21.7786817,8.72766324 21.6427019,8.66666549 21.4999205,8.66666549 L2.50007952,8.66666549 C2.35729811,8.66666549 2.2213183,8.72766324 2.12641997,8.83434511 C2.03152163,8.94102699 1.98675918,9.08319116 2.00341701,9.22499869 Z M20.6665941,6.5 C20.6665941,5.85566733 20.144264,5.333333 19.4999372,5.333333 L11.5350039,5.333333 L9.53502063,4 L4.50006278,4 C3.85573597,4 3.33340588,4.52233433 3.33340588,5.16666637 L3.33340588,7.3333325 L20.6665941,7.3333325 L20.6665941,6.5 Z" id="Combined-Shape" fill="#000000" fill-rule="nonzero"></path>
        </g>
    </g>
</svg>