<?xml version="1.0" encoding="UTF-8"?>
<svg width="24px" height="24px" viewBox="0 0 24 24" version="1.1" xmlns="http://www.w3.org/2000/svg" xmlns:xlink="http://www.w3.org/1999/xlink">
    <title>VSQUARE/4) Icons/funnel/funnel_outline</title>
    <g id="VSQUARE_Symbols" stroke="none" stroke-width="1" fill="none" fill-rule="evenodd">
        <g id="VSQUARE/4)-Icons/funnel/funnel_outline">
            <rect id="Rectangle" x="0" y="0" width="24" height="24"></rect>
            <path d="M21.1894184,3.0000026 L2.81526576,3.0000026 C2.30197565,2.99898955 1.83517955,3.2939463 1.62042592,3.75499619 C1.40567178,4.21604714 1.48236823,4.75859012 1.81674271,5.14372154 L9.19901222,13.6472923 C9.19949285,13.6478382 9.19975991,13.6485363 9.19976505,13.6492601 L9.19978139,18.8005894 C9.19534684,19.2483712 9.48248237,19.6482322 9.91144559,19.7916433 L13.4214885,20.9467024 C13.7409434,21.0524449 14.093652,20.9989959 14.3674305,20.8027927 L14.3825243,20.7917711 C14.6421302,20.5986367 14.7964506,20.2972038 14.8001857,19.9759566 L14.800248,19.9618108 L14.8002086,13.6517471 C14.8002164,13.6510221 14.8004869,13.6503239 14.8009709,13.6497794 L22.1833391,5.14362249 C22.5170747,4.75922612 22.5941157,4.21776909 22.3805481,3.75710272 C22.166981,3.29643741 21.7018601,3.00080095 21.1894184,3.0000026 Z M3.00313186,4.38464103 L20.9968826,4.38464103 L13.7494312,12.7355519 C13.5276533,12.9850275 13.4037252,13.3049019 13.4001623,13.63706 L13.4001104,19.4803885 L10.5998603,18.5589124 L10.5998556,13.639547 L10.5995096,13.6169566 C10.5920685,13.3009651 10.4757459,12.996921 10.2698141,12.7551982 L3.00313186,4.38464103 Z" id="Path" fill="#000000" fill-rule="nonzero"></path>
        </g>
    </g>
</svg>