<?xml version="1.0" encoding="UTF-8"?>
<svg width="24px" height="24px" viewBox="0 0 24 24" version="1.1" xmlns="http://www.w3.org/2000/svg" xmlns:xlink="http://www.w3.org/1999/xlink">
    <title>VSQUARE/4) Icons/funnel/funnel_sharp</title>
    <g id="VSQUARE_Symbols" stroke="none" stroke-width="1" fill="none" fill-rule="evenodd">
        <g id="VSQUARE/4)-Icons/funnel/funnel_sharp">
            <rect id="Rectangle" x="0" y="0" width="24" height="24"></rect>
            <path d="M13.7488939,21 C13.6366142,21 13.5250802,20.981954 13.4185837,20.9467744 L9.91204597,19.7927843 C9.48434455,19.65063 9.19692455,19.2533587 9.198926,18.8071115 L9.198926,13.648988 C9.1979677,13.6468932 9.19663367,13.6449874 9.19498852,13.643363 L1.81660304,5.1435576 C1.48250521,4.75861449 1.40576438,4.21645307 1.62013904,3.75557166 C1.83451371,3.29469024 2.30071454,2.99955647 2.81365851,3 L21.1863415,3 C21.6992855,2.99955647 22.1654863,3.29469024 22.379861,3.75557166 C22.5942356,4.21645307 22.5174948,4.75861449 22.183397,5.1435576 L14.802824,13.6442283 C14.8013198,13.6459647 14.8000004,13.6478497 14.7988865,13.6498533 L14.7988865,19.9615343 C14.799703,20.2371981 14.6893414,20.5018043 14.4922523,20.6967289 C14.2951632,20.8916535 14.0276188,21.0008031 13.7488939,21 Z" id="Path" fill="#000000" fill-rule="nonzero"></path>
        </g>
    </g>
</svg>