<?xml version="1.0" encoding="UTF-8"?>
<svg width="24px" height="24px" viewBox="0 0 24 24" version="1.1" xmlns="http://www.w3.org/2000/svg" xmlns:xlink="http://www.w3.org/1999/xlink">
    <title>VSQUARE/4) Icons/globe/globe_sharp</title>
    <g id="VSQUARE_Symbols" stroke="none" stroke-width="1" fill="none" fill-rule="evenodd">
        <g id="VSQUARE/4)-Icons/globe/globe_sharp">
            <rect id="Rectangle" x="0" y="0" width="24" height="24"></rect>
            <path d="M12,2 C17.5226202,2 22,6.4773798 22,12 C22,17.5226202 17.5226202,22 12,22 C6.4773798,22 2,17.5226202 2,12 C2,6.4773798 6.4773798,2 12,2 Z M9.24986839,17.3194683 L9.14683444,17.3522086 C9.23942741,17.5522117 9.33725029,17.7450986 9.44003795,17.9301434 C9.9300057,18.8122143 10.489677,19.4385621 11.0436533,19.7815261 L11.0432928,16.9734364 C10.4286439,17.0329288 9.82827537,17.1494601 9.24986839,17.3194683 Z M12.9567072,16.9734364 L12.9563467,19.7815261 C13.510323,19.4385621 14.0699943,18.8122143 14.5599621,17.9301434 C14.6627497,17.7450986 14.7605726,17.5522117 14.8531656,17.3522086 C14.2429586,17.1634974 13.607846,17.0364606 12.9567072,16.9734364 Z M7.38327372,18.0962229 C7.24045128,18.175039 7.10645386,18.2537092 6.9747081,18.3357194 C7.23595637,18.5437043 7.50924657,18.734645 7.79412709,18.9084603 C7.6486373,18.6497717 7.51163615,18.3787132 7.38327372,18.0962229 Z M16.6165229,18.095953 L16.5940732,18.1457624 C16.4722812,18.4104347 16.3428667,18.6649059 16.2063672,18.908056 C16.4907534,18.734645 16.7640436,18.5437043 17.0243124,18.3370693 C16.8913154,18.2523206 16.7550104,18.1723759 16.6165229,18.095953 Z M6.17252355,12.956427 L3.96902191,12.9564721 C4.14496028,14.4493936 4.72761398,15.8178749 5.603138,16.9480709 L5.41712359,17.075282 C5.83304583,16.7799816 6.26998948,16.5141512 6.72456223,16.2792759 L6.70302143,16.2073285 C6.42222814,15.1945543 6.23883876,14.0972598 6.17252355,12.956427 Z M20.0309781,12.9564721 L17.8274765,12.956427 C17.7611612,14.0972598 17.5777719,15.1945543 17.2969786,16.2073285 L17.2754378,16.2792759 C17.6625462,16.4792927 18.0368699,16.7017582 18.396314,16.9457552 C19.272386,15.8178749 19.8550397,14.4493936 20.0309781,12.9564721 Z M11.043,12.956 L8.08906377,12.956808 C8.14045997,13.7415393 8.25430404,14.5027703 8.42335079,15.2206651 L8.50522082,15.5464954 C9.31967612,15.2903318 10.1706212,15.1235922 11.0427929,15.0529579 L11.043,12.956 Z M15.9109362,12.956808 L12.956,12.956 L12.9572071,15.0529579 C13.8293788,15.1235922 14.6803239,15.2903318 15.4947792,15.5464954 L15.5766492,15.2206651 C15.745696,14.5027703 15.85954,13.7415393 15.9109362,12.956808 Z M5.603686,7.05424481 L5.52833669,7.15001839 C4.69444035,8.26093297 4.13990094,9.5935373 3.96902191,11.0435279 L6.17252355,11.043573 C6.23883876,9.90274024 6.42222814,8.80544573 6.70302143,7.7926715 L6.72456223,7.72072408 C6.33745385,7.52070725 5.9631301,7.29824182 5.603686,7.05424481 Z M8.50522082,8.45350458 L8.42335079,8.77933487 C8.25430404,9.49722971 8.14045997,10.2584607 8.08906377,11.043192 L11.043,11.043 L11.0427929,8.94704206 C10.1706212,8.87640776 9.31967612,8.70966823 8.50522082,8.45350458 Z M12.9572071,8.94704206 L12.956,11.043 L15.9109362,11.043192 C15.85954,10.2584607 15.745696,9.49722971 15.5766492,8.77933487 L15.4947792,8.45350458 C14.6803239,8.70966823 13.8293788,8.87640776 12.9572071,8.94704206 Z M18.396862,7.05192912 L18.5828764,6.92471801 C18.1669542,7.22001845 17.7300105,7.48584878 17.2754378,7.72072408 L17.2969786,7.7926715 C17.5777719,8.80544573 17.7611612,9.90274024 17.8274765,11.043573 L20.0309781,11.0435279 C19.8550397,9.55060636 19.272386,8.18212509 18.396862,7.05192912 Z M11.0436533,4.21847386 C10.489677,4.56143787 9.9300057,5.18778574 9.44003795,6.06985659 C9.33725029,6.25490142 9.23942741,6.44778832 9.14683444,6.64779144 C9.75704141,6.83650261 10.392154,6.96353935 11.0432928,7.02656358 Z M12.9563467,4.21847386 L12.9567072,7.02656358 C13.607846,6.96353935 14.2429586,6.83650261 14.8529128,6.64968837 C14.7605726,6.44778832 14.6627497,6.25490142 14.5599621,6.06985659 C14.0699943,5.18778574 13.510323,4.56143787 12.9563467,4.21847386 Z M7.79363279,5.09194397 L7.72062033,5.13692914 C7.46216656,5.29843331 7.21349178,5.47413101 6.97568756,5.66293065 C7.10868456,5.74767939 7.24498957,5.82762409 7.38347713,5.90404702 C7.51163615,5.62128682 7.6486373,5.35022827 7.79363279,5.09194397 Z M16.2058729,5.09153971 L16.2682242,5.20379601 C16.3904611,5.42817104 16.5067635,5.6617794 16.6167263,5.90377709 C16.7550104,5.82762409 16.8913154,5.74767939 17.0252919,5.66428063 C16.7640436,5.45629572 16.4907534,5.26535505 16.2058729,5.09153971 Z" id="Combined-Shape" fill="#000000" fill-rule="nonzero"></path>
        </g>
    </g>
</svg>