<?xml version="1.0" encoding="UTF-8"?>
<svg width="24px" height="24px" viewBox="0 0 24 24" version="1.1" xmlns="http://www.w3.org/2000/svg" xmlns:xlink="http://www.w3.org/1999/xlink">
    <title>VSQUARE/4) Icons/globe/globe_outline</title>
    <g id="VSQUARE_Symbols" stroke="none" stroke-width="1" fill="none" fill-rule="evenodd">
        <g id="VSQUARE/4)-Icons/globe/globe_outline">
            <rect id="Rectangle" x="0" y="0" width="24" height="24"></rect>
            <path d="M12,2 C17.5226141,2 22,6.47738589 22,12 C22,17.5226141 17.5226141,22 12,22 C6.47738589,22 2,17.5226141 2,12 C2,6.47738589 6.47738589,2 12,2 Z M9.09946618,17.3838959 L8.77218482,17.486822 C8.88606177,17.74162 9.00792408,17.9861259 9.1373102,18.2190549 C9.7744051,19.3659934 10.5349825,20.1246002 11.2853241,20.4254759 L11.2853654,16.9944002 C10.5344866,17.0456605 9.80173232,17.1773865 9.09946618,17.3838959 Z M12.7146346,16.9944002 L12.7146759,20.4254759 C13.4650175,20.1246002 14.2255949,19.3659934 14.8626898,18.2190549 C14.9920759,17.9861259 15.1139382,17.74162 15.2278152,17.486822 C14.4261194,17.2203786 13.5824825,17.0536457 12.7146346,16.9944002 Z M7.45304085,18.0342385 L7.43656332,18.0414724 C7.1161958,18.2034969 6.80589425,18.3828834 6.50718217,18.5789316 C7.09291872,19.0697606 7.74518002,19.4826007 8.44834502,19.8031877 C8.076746,19.2843928 7.7423534,18.6895707 7.45304085,18.0342385 Z M16.546614,18.032985 L16.4941956,18.151986 C16.217233,18.7609429 15.9008964,19.3155931 15.5520419,19.8024226 C16.25482,19.4826007 16.9070813,19.0697606 17.4929664,18.58014 L17.7771134,18.7730443 C17.3873785,18.4963366 16.9759934,18.2490901 16.546614,18.032985 Z M6.27114953,12.7148233 L3.45792424,12.7144074 C3.60976329,14.5543367 4.34280838,16.2295356 5.47302649,17.555971 L5.39586339,17.6082057 C5.88637008,17.2599511 6.40613672,16.9525472 6.94962827,16.6884336 C6.57109127,15.4792073 6.33192654,14.1287416 6.27114953,12.7148233 Z M20.5420758,12.7144074 L17.7288505,12.7148233 C17.6680735,14.1287416 17.4289087,15.4792073 17.049622,16.6907951 C17.5654416,16.9387355 18.059203,17.2279183 18.5269448,17.5539057 C19.6571916,16.2295356 20.3902367,14.5543367 20.5420758,12.7144074 Z M11.285,12.714 L7.70101593,12.7144395 C7.75761401,13.9274369 7.95706581,15.0936467 8.27605159,16.1481552 C9.23479507,15.8232462 10.2458689,15.6253293 11.2849469,15.5629315 L11.285,12.714 Z M16.2989841,12.7144395 L12.714,12.714 L12.7150531,15.5629315 C13.7541311,15.6253293 14.7652049,15.8232462 15.7230178,16.1455508 C16.0429342,15.0936467 16.242386,13.9274369 16.2989841,12.7144395 Z M5.47305524,6.44609433 L5.37642601,6.5594263 C4.30109193,7.86703414 3.60539296,9.49862129 3.45792424,11.2855926 L6.27114953,11.2851767 C6.33192654,9.87125836 6.57109127,8.52079266 6.95037796,7.30920487 C6.4345584,7.06126448 5.94079696,6.77208166 5.47305524,6.44609433 Z M8.27698223,7.85444924 L8.21032842,8.07668684 C7.92963298,9.07114582 7.75362084,10.158144 7.70101593,11.2855605 L11.285,11.285 L11.2849469,8.43706847 C10.2458689,8.37467069 9.23479507,8.17675382 8.27698223,7.85444924 Z M15.7239484,7.85184477 L15.5070222,7.92473813 C14.6136664,8.20562714 13.6763439,8.3793419 12.7150531,8.43706847 L12.714,11.285 L16.2989841,11.2855605 C16.242386,10.0725631 16.0429342,8.90635328 15.7239484,7.85184477 Z M18.5269735,6.44402898 L18.6041366,6.39179429 C18.1136299,6.74004891 17.5938633,7.04745276 17.0503717,7.31156639 C17.4289087,8.52079266 17.6680735,9.87125836 17.7288505,11.2851767 L20.5420758,11.2855926 C20.3902367,9.44566328 19.6571916,7.77046439 18.5269735,6.44402898 Z M11.2853241,3.57452412 C10.5349825,3.87539984 9.7744051,4.63400665 9.1373102,5.78094506 C9.00792408,6.0138741 8.88606177,6.25838003 8.77218482,6.51317802 C9.57388056,6.77962138 10.4175175,6.94635431 11.2853654,7.00559984 Z M12.7146759,3.57452412 L12.7146346,7.00559984 C13.5824825,6.94635431 14.4261194,6.77962138 15.2264569,6.51417359 C15.1139382,6.25838003 14.9920759,6.0138741 14.8626898,5.78094506 C14.2255949,4.63400665 13.4650175,3.87539984 12.7146759,3.57452412 Z M8.44795812,4.19757737 L8.38660299,4.22525948 C7.70697405,4.54168346 7.07573407,4.9446005 6.50703361,5.41986003 L6.22288661,5.22695571 C6.61262146,5.50366337 7.02400656,5.75090985 7.45338603,5.96701499 C7.7423534,5.31042932 8.076746,4.7156072 8.44795812,4.19757737 Z M15.551655,4.19681226 L15.5708802,4.22397679 C15.9345733,4.73578257 16.2625489,5.32153363 16.5469592,5.96576147 C16.8729439,5.80277434 17.1888801,5.62054628 17.4928178,5.42106838 C16.9070813,4.93023939 16.25482,4.5173993 15.551655,4.19681226 Z" id="Combined-Shape" fill="#000000" fill-rule="nonzero"></path>
        </g>
    </g>
</svg>