<?xml version="1.0" encoding="UTF-8"?>
<svg width="24px" height="24px" viewBox="0 0 24 24" version="1.1" xmlns="http://www.w3.org/2000/svg" xmlns:xlink="http://www.w3.org/1999/xlink">
    <title>VSQUARE/4) Icons/globe/globe</title>
    <g id="VSQUARE_Symbols" stroke="none" stroke-width="1" fill="none" fill-rule="evenodd">
        <g id="VSQUARE/4)-Icons/globe/globe">
            <rect id="Rectangle" x="0" y="0" width="24" height="24"></rect>
            <path d="M19.0462916,4.95370845 C21.5843848,7.46693638 22.5832392,11.1463707 21.6644345,14.5980412 C20.7456297,18.0497118 18.0497118,20.7456297 14.5980412,21.6644345 C11.1463707,22.5832392 7.46693638,21.5843848 4.95370845,19.0462916 C2.41561524,16.5330636 1.41676078,12.8536293 2.33556555,9.40195879 C3.25437031,5.95028824 5.95028824,3.25437031 9.40195879,2.33556555 C12.8536293,1.41676078 16.5330636,2.41561524 19.0462916,4.95370845 Z M12,3.45840474 C10.7738417,3.45256183 9.56184992,3.72067739 8.45260882,4.2432515 C8.25112151,4.52842414 8.06490431,4.82408479 7.89474219,5.12898712 C7.80309903,5.29358891 7.70878665,5.48532777 7.62515114,5.65749235 C7.58282389,5.74488418 7.50618493,5.81083696 7.41346048,5.83966583 C7.32073603,5.86849471 7.22021181,5.85762357 7.13579444,5.80963779 C6.94627994,5.70286906 6.70960925,5.56807353 6.5281024,5.44884845 C6.15333548,5.75327681 5.80861583,6.09293143 5.49867386,6.46315142 C5.92293752,6.75786615 6.36642277,7.02389784 6.82616511,7.25946822 C6.90900613,7.30202695 6.94990493,7.39745749 6.92359158,7.48679665 C6.58106667,8.67327296 6.37216521,9.89430201 6.30077397,11.1271656 C6.29650322,11.2093775 6.24212235,11.2634025 6.16838074,11.281724 L6.10992486,11.2886533 L3.58573405,11.2886533 C3.54136778,11.2881517 3.50341263,11.3204136 3.4967601,11.3642812 C3.46824722,11.5749442 3.45545894,11.7874379 3.4585013,12 C3.45542331,12.2129779 3.46791292,12.425896 3.49587036,12.6370534 C3.50085976,12.6699541 3.52345688,12.6963266 3.55316062,12.7072449 L3.58484431,12.7126813 L6.10903512,12.7126813 C6.21190758,12.7139997 6.29585421,12.7954084 6.3003291,12.898192 C6.37267837,14.1362089 6.58291916,15.3622902 6.92715054,16.5536865 C6.95339785,16.6444399 6.91291471,16.6951551 6.83016894,16.739642 C6.36033662,16.979325 5.90823528,17.2522807 5.47732011,17.5564228 C5.78891628,17.9267399 6.1405807,18.2613956 6.52587805,18.5542656 C6.70960925,18.4337059 6.96318499,18.2864541 7.15447897,18.1792405 C7.23303196,18.1326782 7.32757497,18.1213904 7.41488213,18.1481499 C7.5021893,18.1749094 7.57416946,18.2372364 7.61313965,18.3198193 C7.69722003,18.4919839 7.82356303,18.7397763 7.91253698,18.9039332 C8.08196678,19.2051076 8.26729432,19.4970578 8.46773439,19.7785471 C9.56344852,20.291037 10.712547,20.5414987 12,20.5414987 C13.287453,20.5414987 14.4427797,20.291037 15.5380489,19.7781022 C15.736815,19.4986749 15.9202243,19.2086357 16.087463,18.9092717 C16.1782164,18.7464494 16.3081184,18.495098 16.3930885,18.3198193 C16.4780586,18.1445406 16.6586757,18.0733615 16.828616,18.1685636 C16.9069131,18.2126057 17.0479368,18.2913476 17.1244543,18.3358346 C17.2356718,18.4025651 17.364684,18.4839762 17.4732322,18.5556002 C17.8455798,18.2484617 18.1881605,17.9069237 18.4964326,17.535514 C18.2926822,17.3904864 18.0813691,17.2507973 17.8678317,17.1200057 C17.6542942,16.989214 17.4065018,16.8606466 17.1840669,16.7454253 C17.1008127,16.7014285 17.0600711,16.6048766 17.0866404,16.514538 C17.4274129,15.3359208 17.6343947,14.1226816 17.7036747,12.8977471 C17.7070787,12.8154414 17.7615673,12.7467992 17.8359443,12.7220736 L17.8949687,12.7122364 L20.4160454,12.7122364 C20.4607043,12.712676 20.498769,12.6799403 20.5050194,12.6357188 C20.5569175,12.2128997 20.5569175,11.7853208 20.5050194,11.3625017 C20.50003,11.329601 20.4774329,11.3032286 20.4477291,11.2923102 L20.4160454,11.2868738 L17.8971931,11.2899879 C17.7948677,11.2893993 17.7108601,11.2089083 17.7058991,11.1067016 C17.6446694,9.87947857 17.4378381,8.66387762 17.0897545,7.48546204 C17.0629389,7.39608564 17.1037219,7.30030165 17.1867361,7.25768875 C17.6349,7.0311019 18.0668606,6.77379847 18.4795275,6.48761925 C18.1688652,6.11446217 17.8232625,5.77183879 17.4474298,5.46441889 C17.2192116,5.61433999 16.9598525,5.76337134 16.7205126,5.89282843 C16.6744096,5.91777151 16.6200768,5.9226543 16.5702653,5.9063309 C16.5204537,5.89000751 16.4795486,5.85391504 16.4571498,5.80652371 C16.35394,5.58631319 16.2316008,5.33229258 16.1163796,5.12498329 C15.9542357,4.83355564 15.7760127,4.55136925 15.5825359,4.27973081 C14.4868218,3.76991011 13.287453,3.45840474 12,3.45840474 Z M12.9333367,16.992328 C13.6352528,17.0636276 14.3291751,17.1989871 15.0064296,17.3967146 C15.0615462,17.4113274 15.1072417,17.4498194 15.1310057,17.5016523 C15.1547696,17.5534852 15.1541123,17.6132287 15.1292136,17.6645262 C15.0500268,17.8220101 14.9187903,18.0795896 14.8324855,18.2290659 C14.3057598,19.1450526 13.7229804,19.8377148 13.0156376,20.250109 C12.9551309,20.2862485 12.8800153,20.2876616 12.8181922,20.2538235 C12.756369,20.2199854 12.717075,20.1559516 12.7149056,20.0855072 L12.7149056,20.0855072 L12.7149056,17.1831772 C12.7161863,17.1280323 12.7405704,17.0759611 12.7821085,17.0396682 C12.8236466,17.0033752 12.8785187,16.9861982 12.9333367,16.992328 Z M11.0786748,17.0003357 C11.1317139,16.9923398 11.1856131,17.0077491 11.2264107,17.0425721 C11.2672082,17.0773951 11.2908904,17.1282058 11.2913225,17.1818425 L11.2913225,17.1818425 L11.2913225,20.0855072 C11.2891532,20.1559516 11.2498591,20.2199854 11.188036,20.2538235 C11.1262128,20.2876616 11.0510973,20.2862485 10.9905906,20.250109 C10.3499782,19.8750838 9.7342785,19.2300227 9.15594786,18.2068224 C9.07186748,18.0555667 8.97355127,17.853151 8.89391959,17.6947773 C8.84053522,17.5884535 8.88991576,17.4265209 9.00736137,17.3927108 C9.68423292,17.1983706 10.377621,17.06702 11.0786748,17.0003357 Z M11.0924658,12.7117757 C11.1448877,12.7111987 11.1953855,12.731517 11.2327882,12.7682518 C11.2701909,12.8049866 11.2914157,12.8551101 11.2917674,12.9075342 L11.2917674,12.9075342 L11.2917674,15.3694433 C11.2905925,15.4726561 11.210146,15.5575611 11.1071465,15.5642962 C10.2162676,15.6353805 9.33599585,15.8048701 8.48241509,16.0696682 C8.43173885,16.0852714 8.37692557,16.0799415 8.33020466,16.0548676 C8.28348376,16.0297938 8.24874282,15.9870624 8.23373292,15.9362073 C7.97170465,15.0162167 7.79865033,13.9440807 7.73280961,12.9182111 C7.72997618,12.8640412 7.7496972,12.8111157 7.78728743,12.7720083 C7.82487765,12.732901 7.87698192,12.7111025 7.93122151,12.7117757 L7.93122151,12.7117757 Z M16.0750067,12.7117754 C16.1293278,12.7110949 16.181506,12.7329536 16.2191107,12.7721602 C16.2567153,12.8113669 16.2763795,12.8644111 16.2734186,12.918656 C16.207133,13.9458602 16.0331889,15.0157719 15.7702709,15.9366522 C15.7385924,16.0411079 15.6283425,16.100213 15.5238131,16.0687785 C14.670168,15.8039896 13.7899468,15.6340621 12.8990817,15.5620719 C12.8168223,15.5565063 12.7490461,15.5010936 12.7246333,15.4263881 L12.7149056,15.3672189 L12.7149056,12.9070894 C12.7153755,12.8548205 12.7365909,12.8048794 12.7738842,12.7682535 C12.7987464,12.7438362 12.8293965,12.7266704 12.8625545,12.7180753 L12.9137624,12.7117754 L16.0750067,12.7117754 Z M15.5282618,7.91832028 C15.5786418,7.90262994 15.6331967,7.90765396 15.6798638,7.93228149 C15.7265308,7.95690903 15.7614657,7.99911127 15.776944,8.04955685 C16.0389722,8.95798083 16.2075778,10.0714897 16.2734186,11.0844581 C16.2757565,11.1382479 16.2557845,11.1906167 16.2182222,11.2291898 C16.1806598,11.2677628 16.1288396,11.2891177 16.0750067,11.2882363 L16.0750067,11.2882363 L12.9137624,11.2882363 C12.8058221,11.2899435 12.7168545,11.2039614 12.7149056,11.0960247 L12.7149056,11.0960247 L12.7149056,8.64434767 C12.7166052,8.54181665 12.7971463,8.45797629 12.8995266,8.45216395 C13.8026121,8.38231941 14.6830093,8.17367551 15.5282618,7.91832028 Z M8.42664153,7.90993845 L8.4779664,7.91876515 C9.32232913,8.17501012 10.2036161,8.38365402 11.1067016,8.45260882 C11.2090819,8.45842116 11.2896229,8.54226152 11.2913225,8.64479254 L11.2913225,8.64479254 L11.2913225,11.0955799 C11.2906201,11.1475738 11.2692586,11.1971516 11.2319515,11.2333738 C11.1946443,11.2695959 11.1444578,11.2894853 11.0924658,11.2886812 L11.0924658,11.2886812 L7.93122151,11.2886812 C7.87738861,11.2895626 7.82556836,11.2682076 7.78800599,11.2296346 C7.75044363,11.1910616 7.7304717,11.1386928 7.73280961,11.084903 C7.79865033,10.0719346 7.96725595,8.9584257 8.22928422,8.05000172 C8.24476244,7.99955614 8.27969733,7.9573539 8.32636442,7.93272636 C8.37303151,7.90809883 8.42758639,7.90307481 8.4779664,7.91876515 Z M12.8192884,3.74655364 C12.8810138,3.712769 12.9559802,3.71403745 13.0165273,3.74989097 C13.6882806,4.13470328 14.3044252,4.81757831 14.8511701,5.7962917 C14.9356953,5.94799228 15.046023,6.17532071 15.1256547,6.3341392 C15.1500546,6.38536906 15.1504514,6.44478754 15.1267378,6.49633869 C15.1030243,6.54788985 15.0576481,6.58625274 15.0028706,6.60106103 C14.3287264,6.80572068 13.6356792,6.94194544 12.9342264,7.00767196 C12.8793621,7.01366716 12.8244978,6.99638192 12.7829782,6.9600205 C12.7414585,6.92365908 12.7170884,6.87155373 12.7157954,6.81637798 L12.7157954,6.81637798 L12.7157954,3.91449277 C12.7182274,3.8441684 12.7575629,3.78033828 12.8192884,3.74655364 Z M10.9905906,3.75033584 C11.0511221,3.71520608 11.1256244,3.7143193 11.1869749,3.74799835 C11.2483254,3.7816774 11.2875742,3.84500919 11.2904328,3.91493764 L11.2904328,3.91493764 L11.2904328,6.81637798 C11.2890175,6.87147538 11.2645946,6.9234626 11.2230898,6.95972653 C11.1815849,6.99599046 11.1267909,7.01321716 11.0720018,7.00722709 C10.3694341,6.94443846 9.67545163,6.80769975 9.00157806,6.59928155 C8.94689433,6.58433551 8.9016275,6.54595718 8.87793666,6.49445535 C8.85424582,6.44295352 8.85455971,6.38360807 8.87879402,6.33235972 C8.95931544,6.1739861 9.06074574,5.96489733 9.14571585,5.81319675 C9.69290561,4.83715258 10.3046015,4.1315892 10.9905906,3.75033584 Z" id="Combined-Shape" fill="#000000" fill-rule="nonzero"></path>
        </g>
    </g>
</svg>