<?xml version="1.0" encoding="UTF-8"?>
<svg width="24px" height="24px" viewBox="0 0 24 24" version="1.1" xmlns="http://www.w3.org/2000/svg" xmlns:xlink="http://www.w3.org/1999/xlink">
    <title>VSQUARE/4) Icons/grid/grid_outline</title>
    <g id="VSQUARE_Symbols" stroke="none" stroke-width="1" fill="none" fill-rule="evenodd">
        <g id="VSQUARE/4)-Icons/grid/grid_outline">
            <rect id="Rectangle" x="0" y="0" width="24" height="24"></rect>
            <path d="M9.91071429,3 L4.44642857,3 C3.64758813,3 3,3.64758813 3,4.44642857 L3,9.91071429 C3,10.7095547 3.64758813,11.3571429 4.44642857,11.3571429 L9.91071429,11.3571429 C10.7095547,11.3571429 11.3571429,10.7095547 11.3571429,9.91071429 L11.3571429,4.44642857 C11.3571429,3.64758813 10.7095547,3 9.91071429,3 Z M4.44642857,4.28571429 L9.91071429,4.28571429 C9.99947433,4.28571429 10.0714286,4.35766852 10.0714286,4.44642857 L10.0714286,9.91071429 C10.0714286,9.99947433 9.99947433,10.0714286 9.91071429,10.0714286 L4.44642857,10.0714286 C4.35766852,10.0714286 4.28571429,9.99947433 4.28571429,9.91071429 L4.28571429,4.44642857 C4.28571429,4.35766852 4.35766852,4.28571429 4.44642857,4.28571429 Z M19.5535714,3 L14.0892857,3 C13.2904453,3 12.6428571,3.64758813 12.6428571,4.44642857 L12.6428571,9.91071429 C12.6428571,10.7095547 13.2904453,11.3571429 14.0892857,11.3571429 L19.5535714,11.3571429 C20.3524119,11.3571429 21,10.7095547 21,9.91071429 L21,4.44642857 C21,3.64758813 20.3524119,3 19.5535714,3 Z M14.0892857,4.28571429 L19.5535714,4.28571429 C19.6423315,4.28571429 19.7142857,4.35766852 19.7142857,4.44642857 L19.7142857,9.91071429 C19.7142857,9.99947433 19.6423315,10.0714286 19.5535714,10.0714286 L14.0892857,10.0714286 C14.0005257,10.0714286 13.9285714,9.99947433 13.9285714,9.91071429 L13.9285714,4.44642857 C13.9285714,4.35766852 14.0005257,4.28571429 14.0892857,4.28571429 Z M9.91071429,12.6428571 L4.44642857,12.6428571 C3.64758813,12.6428571 3,13.2904453 3,14.0892857 L3,19.5535714 C3,20.3524119 3.64758813,21 4.44642857,21 L9.91071429,21 C10.7095547,21 11.3571429,20.3524119 11.3571429,19.5535714 L11.3571429,14.0892857 C11.3571429,13.2904453 10.7095547,12.6428571 9.91071429,12.6428571 Z M4.44642857,13.9285714 L9.91071429,13.9285714 C9.99947433,13.9285714 10.0714286,14.0005257 10.0714286,14.0892857 L10.0714286,19.5535714 C10.0714286,19.6423315 9.99947433,19.7142857 9.91071429,19.7142857 L4.44642857,19.7142857 C4.35766852,19.7142857 4.28571429,19.6423315 4.28571429,19.5535714 L4.28571429,14.0892857 C4.28571429,14.0005257 4.35766852,13.9285714 4.44642857,13.9285714 Z M19.5535714,12.6428571 L14.0892857,12.6428571 C13.2904453,12.6428571 12.6428571,13.2904453 12.6428571,14.0892857 L12.6428571,19.5535714 C12.6428571,20.3524119 13.2904453,21 14.0892857,21 L19.5535714,21 C20.3524119,21 21,20.3524119 21,19.5535714 L21,14.0892857 C21,13.2904453 20.3524119,12.6428571 19.5535714,12.6428571 Z M14.0892857,13.9285714 L19.5535714,13.9285714 C19.6423315,13.9285714 19.7142857,14.0005257 19.7142857,14.0892857 L19.7142857,19.5535714 C19.7142857,19.6423315 19.6423315,19.7142857 19.5535714,19.7142857 L14.0892857,19.7142857 C14.0005257,19.7142857 13.9285714,19.6423315 13.9285714,19.5535714 L13.9285714,14.0892857 C13.9285714,14.0005257 14.0005257,13.9285714 14.0892857,13.9285714 Z" id="Combined-Shape" fill="#000000" fill-rule="nonzero"></path>
        </g>
    </g>
</svg>