<?xml version="1.0" encoding="UTF-8"?>
<svg width="24px" height="24px" viewBox="0 0 24 24" version="1.1" xmlns="http://www.w3.org/2000/svg" xmlns:xlink="http://www.w3.org/1999/xlink">
    <title>VSQUARE/4) Icons/grid/grid</title>
    <g id="VSQUARE_Symbols" stroke="none" stroke-width="1" fill="none" fill-rule="evenodd">
        <g id="VSQUARE/4)-Icons/grid/grid">
            <rect id="Rectangle" x="0" y="0" width="24" height="24"></rect>
            <path d="M9.91071429,11.3571429 L4.44642857,11.3571429 C3.64758813,11.3571429 3,10.7095547 3,9.91071429 L3,4.44642857 C3,3.64758813 3.64758813,3 4.44642857,3 L9.91071429,3 C10.7095547,3 11.3571429,3.64758813 11.3571429,4.44642857 L11.3571429,9.91071429 C11.3571429,10.7095547 10.7095547,11.3571429 9.91071429,11.3571429 Z M19.5535714,11.3571429 L14.0892857,11.3571429 C13.2904453,11.3571429 12.6428571,10.7095547 12.6428571,9.91071429 L12.6428571,4.44642857 C12.6428571,3.64758813 13.2904453,3 14.0892857,3 L19.5535714,3 C20.3524119,3 21,3.64758813 21,4.44642857 L21,9.91071429 C21,10.7095547 20.3524119,11.3571429 19.5535714,11.3571429 L19.5535714,11.3571429 Z M9.91071429,21 L4.44642857,21 C3.64758813,21 3,20.3524119 3,19.5535714 L3,14.0892857 C3,13.2904453 3.64758813,12.6428571 4.44642857,12.6428571 L9.91071429,12.6428571 C10.7095547,12.6428571 11.3571429,13.2904453 11.3571429,14.0892857 L11.3571429,19.5535714 C11.3571429,20.3524119 10.7095547,21 9.91071429,21 L9.91071429,21 Z M19.5535714,21 L14.0892857,21 C13.2904453,21 12.6428571,20.3524119 12.6428571,19.5535714 L12.6428571,14.0892857 C12.6428571,13.2904453 13.2904453,12.6428571 14.0892857,12.6428571 L19.5535714,12.6428571 C20.3524119,12.6428571 21,13.2904453 21,14.0892857 L21,19.5535714 C21,20.3524119 20.3524119,21 19.5535714,21 L19.5535714,21 Z" id="Combined-Shape" fill="#000000" fill-rule="nonzero"></path>
        </g>
    </g>
</svg>