<?xml version="1.0" encoding="UTF-8"?>
<svg width="24px" height="24px" viewBox="0 0 24 24" version="1.1" xmlns="http://www.w3.org/2000/svg" xmlns:xlink="http://www.w3.org/1999/xlink">
    <title>VSQUARE/4) Icons/happy/happy</title>
    <g id="VSQUARE_Symbols" stroke="none" stroke-width="1" fill="none" fill-rule="evenodd">
        <g id="VSQUARE/4)-Icons/happy/happy">
            <rect id="Rectangle" x="0" y="0" width="24" height="24"></rect>
            <path d="M19.0462916,4.95370845 C16.5330636,2.41561524 12.8536293,1.41676078 9.40195879,2.33556555 C5.95028824,3.25437031 3.25437031,5.95028824 2.33556555,9.40195879 C1.41676078,12.8536293 2.41561524,16.5330636 4.95370845,19.0462916 C7.46693638,21.5843848 11.1463707,22.5832392 14.5980412,21.6644345 C18.0497118,20.7456297 20.7456297,18.0497118 21.6644345,14.5980412 C22.5832392,11.1463707 21.5843848,7.46693638 19.0462916,4.95370845 Z M8.79693799,9.86462197 C9.38660542,9.86462197 9.86462533,10.3426452 9.86462533,10.9323127 C9.86462533,11.5219801 9.38660542,12 8.79693799,12 C8.20727056,12 7.72924729,11.5219801 7.72924729,10.9323127 C7.72853952,10.648927 7.84079931,10.3769431 8.04118388,10.1765586 C8.24156846,9.97617398 8.51355229,9.86391419 8.79693799,9.86462197 Z M16.2560686,14.5878072 C15.722225,16.3806322 14.0228226,17.6943325 12.0022243,17.6943325 C9.98162606,17.6943325 8.28222372,16.3806322 7.74393135,14.5878072 C7.71340654,14.4795494 7.73585447,14.3632334 7.80447219,14.2741092 C7.87308991,14.1849851 7.97980033,14.1335437 8.09226435,14.1353747 L15.9081805,14.1353747 C16.0205668,14.1336861 16.127146,14.1851873 16.1956599,14.2742904 C16.2641738,14.3633936 16.2865696,14.4796257 16.2560686,14.5878072 L16.2560686,14.5878072 Z M15.203062,12.0000034 C14.6133946,12.0000034 14.1353747,11.5219801 14.1353747,10.9323127 C14.1353747,10.3426452 14.6133946,9.86462533 15.203062,9.86462533 C15.7927294,9.86462533 16.2707527,10.3426452 16.2707527,10.9323127 C16.2714605,11.2156984 16.1592007,11.4876822 15.9588161,11.6880668 C15.7584315,11.8884513 15.4864477,12.0007111 15.203062,12.0000034 Z" id="Shape" fill="#000000" fill-rule="nonzero"></path>
        </g>
    </g>
</svg>