<?xml version="1.0" encoding="UTF-8"?>
<svg width="24px" height="24px" viewBox="0 0 24 24" version="1.1" xmlns="http://www.w3.org/2000/svg" xmlns:xlink="http://www.w3.org/1999/xlink">
    <title>VSQUARE/4) Icons/happy/happy_outline</title>
    <g id="VSQUARE_Symbols" stroke="none" stroke-width="1" fill="none" fill-rule="evenodd">
        <g id="VSQUARE/4)-Icons/happy/happy_outline">
            <rect id="Rectangle" x="0" y="0" width="24" height="24"></rect>
            <path d="M12,2 C17.5228475,2 22,6.4771525 22,12 C22,17.5228475 17.5228475,22 12,22 C6.4771525,22 2,17.5228475 2,12 C2,6.4771525 6.4771525,2 12,2 Z M12,3.42857143 C7.26613072,3.42857143 3.42857143,7.26613072 3.42857143,12 C3.42857143,16.7338693 7.26613072,20.5714286 12,20.5714286 C16.7338693,20.5714286 20.5714286,16.7338693 20.5714286,12 C20.5714286,7.26613072 16.7338693,3.42857143 12,3.42857143 Z M15.921875,14.1428571 C16.0346551,14.1411627 16.1416077,14.1928443 16.2103617,14.2822597 C16.2791157,14.371675 16.3015899,14.4883145 16.2709821,14.596875 C15.7357143,16.3959821 14.0299107,17.7142857 12.0022321,17.7142857 C9.97455357,17.7142857 8.26919643,16.3959821 7.72946429,14.596875 C7.6988565,14.4883145 7.72133072,14.371675 7.79008473,14.2822597 C7.85883873,14.1928443 7.96579133,14.1411627 8.07857143,14.1428571 L15.921875,14.1428571 Z M8.78571429,9.85714286 C9.37744795,9.85714286 9.85714286,10.3368378 9.85714286,10.9285714 C9.85714286,11.5203051 9.37744795,12 8.78571429,12 C8.19398063,12 7.71428571,11.5203051 7.71428571,10.9285714 C7.71428571,10.3368378 8.19398063,9.85714286 8.78571429,9.85714286 Z M15.2142857,9.85714286 C15.8060194,9.85714286 16.2857143,10.3368378 16.2857143,10.9285714 C16.2857143,11.5203051 15.8060194,12 15.2142857,12 C14.6225521,12 14.1428571,11.5203051 14.1428571,10.9285714 C14.1428571,10.3368378 14.6225521,9.85714286 15.2142857,9.85714286 Z" id="Combined-Shape" fill="#000000" fill-rule="nonzero"></path>
        </g>
    </g>
</svg>