<?xml version="1.0" encoding="UTF-8"?>
<svg width="24px" height="24px" viewBox="0 0 24 24" version="1.1" xmlns="http://www.w3.org/2000/svg" xmlns:xlink="http://www.w3.org/1999/xlink">
    <title>VSQUARE/4) Icons/headset/headset_sharp</title>
    <g id="VSQUARE_Symbols" stroke="none" stroke-width="1" fill="none" fill-rule="evenodd">
        <g id="VSQUARE/4)-Icons/headset/headset_sharp">
            <rect id="Rectangle" x="0" y="0" width="24" height="24"></rect>
            <path d="M18.9267857,4.921875 C17.0191964,3.06473214 14.4946429,2 12,2 C9.50535714,2 6.98080357,3.06473214 5.07321429,4.921875 C3.09151786,6.85133929 2,9.32142857 2,12 C2,14.6785714 3.19821429,17.2897321 4.02767857,18.796875 C4.85714286,20.3040179 5.97321429,22 7,22 C8.42857143,22 11.2857143,20.5714286 11.2857143,20.5714286 L6.28571429,11.2857143 L3.85625,12.7022321 C3.82634832,12.4228743 3.81144598,12.1421142 3.81160714,11.8611607 C3.81160714,9.69285714 4.67410714,7.66026786 6.31830357,6.05758929 C7.90357143,4.51517857 9.94642857,3.69642857 12,3.69642857 C14.0535714,3.69642857 16.0950893,4.51517857 17.6816964,6.059375 C19.3258929,7.66026786 20.1879464,9.69285714 20.1879464,11.8629464 C20.1881194,12.1436033 20.173217,12.4240668 20.1433036,12.703125 L17.7142857,11.2857143 L12.7142857,20.5714286 C12.7142857,20.5714286 15.5714286,22 17,22 C18.0267857,22 19.1428571,20.3035714 19.9723214,18.796875 C20.8017857,17.2901786 22,14.6785714 22,12 C22,9.32142857 20.9084821,6.85133929 18.9267857,4.921875 Z" id="Path" fill="#000000" fill-rule="nonzero"></path>
        </g>
    </g>
</svg>