<?xml version="1.0" encoding="UTF-8"?>
<svg width="24px" height="24px" viewBox="0 0 24 24" version="1.1" xmlns="http://www.w3.org/2000/svg" xmlns:xlink="http://www.w3.org/1999/xlink">
    <title>VSQUARE/4) Icons/headset/headset_outline</title>
    <g id="VSQUARE_Symbols" stroke="none" stroke-width="1" fill="none" fill-rule="evenodd">
        <g id="VSQUARE/4)-Icons/headset/headset_outline">
            <rect id="Rectangle" x="0" y="0" width="24" height="24"></rect>
            <path d="M12,2 C14.5235328,2 17.0321433,3.07749637 18.9268656,4.92163025 C20.8665014,6.80947844 22,9.33513638 22,11.9983727 C22,12.2809689 21.971745,12.5974049 21.917526,12.9461029 L21.9059386,13.0187072 C21.9039459,13.0308844 21.9019224,13.0430999 21.8998684,13.0553536 L21.887178,13.129333 L21.8805589,13.1666653 L21.8805589,13.1666653 L21.8596127,13.2800276 L21.8447468,13.3567364 L21.8291648,13.4343489 L21.8128711,13.5128618 L21.7958703,13.5922722 L21.7871062,13.6323129 L21.7871062,13.6323129 L21.7690531,13.7130635 L21.7503042,13.7947038 C21.7471217,13.8083844 21.7439103,13.822102 21.7406702,13.8358565 L21.720886,13.9188254 L21.7004172,14.0026761 C21.6969489,14.0167245 21.6934523,14.0308096 21.6899275,14.0449312 L21.6684403,14.1300989 L21.6462797,14.2161407 L21.6234504,14.3030534 C21.61959,14.3176113 21.615702,14.3322054 21.6117863,14.3468355 L21.5634806,14.5241256 C21.5593458,14.5390435 21.5551838,14.5539972 21.5509947,14.5689867 L21.5255352,14.6593524 L21.4994295,14.7505736 L21.4726821,14.8426471 L21.4452974,14.9355699 L21.41728,15.0293389 L21.3886343,15.1239509 C21.1496997,15.9080642 20.8726835,16.6988689 20.5510991,17.5473901 C20.5262273,17.6159154 20.5009157,17.6825091 20.474576,17.7490668 C20.4694499,17.7615936 20.4646491,17.7741141 20.4598387,17.7866478 L20.3893344,17.9695395 C20.3744081,18.0080926 20.3565018,18.0446126 20.3359805,18.0789381 C20.2279178,18.3188116 20.1068232,18.557776 19.9724497,18.7936493 C18.5520118,21.2870237 16.0863414,22.6593711 14.3116167,21.6832446 L14.3116167,21.6832446 L14.2626247,21.6555174 L13.6436339,21.2939239 L13.6185122,21.2787757 C12.9625095,20.8737958 12.742637,20.0207844 13.1252959,19.347708 L13.1252959,19.347708 L17.0030658,12.5398557 C17.1893368,12.2101259 17.4998834,11.9686819 17.8653921,11.8694137 C18.2309008,11.7701454 18.6209445,11.8213166 18.9484659,12.0115058 L18.9484659,12.0115058 L19.5616499,12.3697699 C19.9152135,12.5766347 20.2011885,12.8571347 20.4209594,13.1937043 C20.4212576,13.1862162 20.4235004,13.175409 20.4257188,13.1646394 L20.4387363,13.1004753 L20.4511655,13.0372233 L20.4630033,12.9748921 L20.4742465,12.9134901 C20.4760707,12.9033344 20.4778699,12.8932177 20.4796442,12.8831403 L20.4899897,12.8231483 L20.4997327,12.7641069 C20.5013062,12.7543464 20.5028544,12.7446258 20.5043773,12.7349454 L20.5132107,12.677346 L20.5214337,12.6207186 L20.5253153,12.592772 L20.5253153,12.592772 L20.5326168,12.5376186 C20.5349477,12.5193993 20.5371756,12.5013455 20.5392999,12.4834586 L20.5453616,12.4303005 L20.5507987,12.3781528 C20.5516526,12.3695462 20.5524804,12.3609821 20.553282,12.3524606 L20.5577762,12.3018446 C20.5584726,12.2934943 20.5591426,12.2851871 20.5597863,12.276923 L20.5633305,12.2278579 L20.5662373,12.1798374 L20.5685038,12.1328701 C20.5688279,12.1251305 20.5691253,12.1174351 20.5693958,12.1097841 L20.5706956,12.0644126 C20.5711836,12.0419947 20.5714286,12.0199798 20.5714286,11.9983727 C20.5714286,9.73272293 19.6015567,7.57165757 17.9303888,5.94510929 C16.2954965,4.35386796 14.140694,3.42833896 12,3.42833896 C9.85930598,3.42833896 7.70450353,4.35386796 6.06961116,5.94510929 C4.39844329,7.57165757 3.42857143,9.73272293 3.42857143,11.9983727 C3.42857143,12.3308752 3.479821,12.7362265 3.57467265,13.2002287 C3.79497342,12.8611473 4.08231992,12.5781956 4.43819819,12.3698588 L4.43819819,12.3698588 L5.05153409,12.0115058 C5.37905549,11.8213166 5.7690992,11.7701454 6.13460788,11.8694137 C6.50011655,11.9686819 6.81066323,12.2101259 6.99569621,12.5376731 L6.99569621,12.5376731 L10.8749923,19.3486607 C11.2612282,20.0280296 11.0329872,20.891493 10.3614756,21.2913564 L10.3614756,21.2913564 L9.73737185,21.6559657 L9.68837592,21.6836947 C7.91332207,22.6599771 5.44563679,21.2868586 4.02733585,18.7937191 C3.8933045,18.558114 3.77249298,18.319445 3.66504415,18.0794998 C3.64470039,18.0467838 3.62703411,18.0111178 3.61220829,17.9734892 C3.22195725,16.9830131 2.87396414,16.013472 2.59423056,15.0891766 L2.56492945,14.9916782 L2.49465803,14.7517536 L2.46775507,14.6573225 L2.44154851,14.5637763 L2.39124448,14.3793544 L2.36715698,14.2884864 L2.34378578,14.1985186 L2.32113588,14.1094551 C2.31742128,14.0946868 2.31373694,14.0799563 2.31008296,14.0652637 L2.28852433,13.9775637 L2.26769944,13.8907775 C2.26429004,13.8763895 2.26091143,13.8620397 2.2575637,13.8477283 L2.23784875,13.76232 L2.21888,13.6778351 L2.20066241,13.5942774 L2.18320097,13.5116509 C2.18035402,13.4979576 2.17753878,13.4843032 2.17475536,13.4706879 L2.15843748,13.3894652 L2.1428882,13.3091831 L2.1428882,13.3091831 L2.12811249,13.2298456 C2.12571462,13.2167016 2.12334918,13.2035971 2.12101629,13.1905322 L2.10741028,13.1126187 L2.09459031,13.0356592 C2.07388147,12.9081907 2.05646849,12.7847137 2.04245511,12.6653082 L2.03445586,12.5941541 C2.01168696,12.3821613 2,12.1834121 2,11.9983727 C2,9.33513638 3.1334986,6.80947844 5.07313437,4.92163025 C6.96785667,3.07749637 9.47646721,2 12,2 Z M5.75888393,13.2525436 L5.1600161,13.6024579 C4.22792764,14.1481172 4.17275311,16.1603519 5.26909272,18.0875365 C6.35046184,19.9884054 8.06854867,20.9444173 8.99983305,20.4322095 L8.99983305,20.4322095 L9.02879464,20.4156635 L9.63058036,20.0640243 C9.63368539,20.0610721 9.63431165,20.0588509 9.63397879,20.0568682 L9.63332165,20.0549947 L5.75888393,13.2525436 Z M18.2410714,13.2525436 L14.3669566,20.0540594 C14.365035,20.0574394 14.3661705,20.0617352 14.3695114,20.0637246 L14.3695114,20.0637246 L14.9711607,20.4152171 L15.0020982,20.4328035 L15.0283358,20.4466881 C15.9559191,20.9197673 17.6245085,19.988456 18.6984336,18.1434773 L18.6984336,18.1434773 L18.7311217,18.0867135 C19.828367,16.1606572 19.7727279,14.1481926 18.8405089,13.602765 L18.8405089,13.602765 L18.2410714,13.2525436 Z" id="Combined-Shape" fill="#000000" fill-rule="nonzero"></path>
        </g>
    </g>
</svg>