<?xml version="1.0" encoding="UTF-8"?>
<svg width="24px" height="24px" viewBox="0 0 24 24" version="1.1" xmlns="http://www.w3.org/2000/svg" xmlns:xlink="http://www.w3.org/1999/xlink">
    <title>VSQUARE/4) Icons/headset/headset</title>
    <g id="VSQUARE_Symbols" stroke="none" stroke-width="1" fill="none" fill-rule="evenodd">
        <g id="VSQUARE/4)-Icons/headset/headset">
            <rect id="Rectangle" x="0" y="0" width="24" height="24"></rect>
            <path d="M18.9267857,4.92232129 C17.0191964,3.06517852 14.4946429,2 12,2 C9.50535714,2 6.98080357,3.06517852 5.07321429,4.92232129 C3.09151786,6.85133905 2,9.36607108 2,12 C2,13.1906245 2.390625,14.7272315 3.46785714,17.60491 C4.54508929,20.4825884 6.6875,21.6874991 7.59241071,21.8843741 C7.85178571,21.9410705 8.15580357,22 8.42857143,22 C8.89858649,22.0003956 9.36044818,21.8772325 9.76785714,21.6428562 L10.3928571,21.2857134 C11.065625,20.8919634 11.2620536,20.0299099 10.875,19.3504456 L6.99464286,12.5392852 C6.80787695,12.2100786 6.49712906,11.9693086 6.13171071,11.8706784 C5.76629236,11.7720482 5.37660002,11.823762 5.04955357,12.0142852 L4.43839286,12.3714281 C4.2034982,12.5090338 3.99243371,12.6837651 3.81339286,12.8888388 C3.76800809,12.9420938 3.69570197,12.9639356 3.62842361,12.9447133 C3.56114526,12.9254909 3.51129235,12.8687465 3.50089286,12.7995531 C3.45589416,12.5353391 3.43171269,12.2679996 3.42857143,12 C3.42857143,9.75401749 4.36607143,7.60357116 6.06964286,5.94598195 C7.71428571,4.34598203 9.87455357,3.42857136 12,3.42857136 C14.1254464,3.42857136 16.2857143,4.34598203 17.9303571,5.94598195 C19.6339286,7.60357116 20.5714286,9.75401749 20.5714286,12 C20.5674023,12.26807 20.5423252,12.5354101 20.4964286,12.7995531 C20.4860291,12.8687465 20.4361762,12.9254909 20.3688978,12.9447133 C20.3016195,12.9639356 20.2293133,12.9420938 20.1839286,12.8888388 C20.0048877,12.6837651 19.7938232,12.5090338 19.5589286,12.3714281 L18.9477679,12.0142852 C18.6207214,11.823762 18.2310291,11.7720482 17.8656107,11.8706784 C17.5001924,11.9693086 17.1894445,12.2100786 17.0026786,12.5392852 L13.125,19.3504456 C12.7379464,20.0299099 12.934375,20.8919634 13.6071429,21.2857134 L14.2321429,21.6428562 C14.6395518,21.8772325 15.1014135,22.0003956 15.5714286,22 C15.8441964,22 16.1482143,21.9410705 16.4075893,21.8843741 C17.3125,21.6874991 19.4553571,20.482142 20.5321429,17.60491 C21.6089286,14.727678 22,13.1906245 22,12 C22,9.36607108 20.9084821,6.85133905 18.9267857,4.92232129 Z" id="Path" fill="#000000" fill-rule="nonzero"></path>
        </g>
    </g>
</svg>