<?xml version="1.0" encoding="UTF-8"?>
<svg width="24px" height="24px" viewBox="0 0 24 24" version="1.1" xmlns="http://www.w3.org/2000/svg" xmlns:xlink="http://www.w3.org/1999/xlink">
    <title>VSQUARE/4) Icons/heart/heart_sharp</title>
    <g id="VSQUARE_Symbols" stroke="none" stroke-width="1" fill="none" fill-rule="evenodd">
        <g id="VSQUARE/4)-Icons/heart/heart_sharp">
            <rect id="Rectangle" x="0" y="0" width="24" height="24"></rect>
            <path d="M11.9999668,20 L11.6105634,19.75 C9.75959931,18.5595833 7.41755431,17.2141667 5.68297858,15.2366667 C3.85494604,13.1533333 2.97792309,11.01375 3.00042196,8.695 C3.02768019,6.10583333 5.18367691,4 7.80652502,4 C9.88810243,4 11.2722151,5.16666667 11.9999668,6.00875 C12.7277184,5.16666667 14.1118311,4 16.1934085,4 C18.8162566,4 20.9722533,6.10583333 20.9995116,8.69375 C21.0237411,11.01375 20.1467182,13.1520833 18.316955,15.2354167 C16.5823792,17.2141667 14.2403342,18.5595833 12.3893701,19.75 L11.9999668,20 Z" id="Path" fill="#000000" fill-rule="nonzero"></path>
        </g>
    </g>
</svg>