<?xml version="1.0" encoding="UTF-8"?>
<svg width="24px" height="24px" viewBox="0 0 24 24" version="1.1" xmlns="http://www.w3.org/2000/svg" xmlns:xlink="http://www.w3.org/1999/xlink">
    <title>VSQUARE/4) Icons/heart_circle/heart_circle_sharp</title>
    <g id="VSQUARE_Symbols" stroke="none" stroke-width="1" fill="none" fill-rule="evenodd">
        <g id="VSQUARE/4)-Icons/heart_circle/heart_circle_sharp">
            <rect id="Rectangle" x="0" y="0" width="24" height="24"></rect>
            <path d="M12,3 C7.03745192,3 3,7.03745192 3,12 C3,16.9625481 7.03745192,21 12,21 C16.9625481,21 21,16.9625481 21,12 C21,7.03745192 16.9625481,3 12,3 Z M15.2317788,13.9393269 C14.8639904,14.3875962 13.5144231,15.6043269 12,16.6873558 C10.4855769,15.605625 9.13600962,14.3875962 8.76822115,13.9393269 C7.90283654,12.8848558 7.48831731,11.8018269 7.50043269,10.6292308 C7.51384615,9.28528846 8.59168269,8.191875 9.90317308,8.191875 C10.8550962,8.191875 11.5171154,8.72884615 11.9017788,9.17668269 L12,9.29567308 L12.0982212,9.17668269 C12.4759615,8.72408654 13.1431731,8.19230769 14.0968269,8.19230769 C15.4083173,8.19230769 16.4861538,9.28572115 16.4995673,10.6296635 C16.5116827,11.8018269 16.0967308,12.8848558 15.2317788,13.9393269 Z" id="Shape" fill="#000000" fill-rule="nonzero"></path>
        </g>
    </g>
</svg>