<?xml version="1.0" encoding="UTF-8"?>
<svg width="24px" height="24px" viewBox="0 0 24 24" version="1.1" xmlns="http://www.w3.org/2000/svg" xmlns:xlink="http://www.w3.org/1999/xlink">
    <title>VSQUARE/4) Icons/heart/heart</title>
    <g id="VSQUARE_Symbols" stroke="none" stroke-width="1" fill="none" fill-rule="evenodd">
        <g id="VSQUARE/4)-Icons/heart/heart">
            <rect id="Rectangle" x="0" y="0" width="24" height="24"></rect>
            <path d="M12,20 C11.7220954,19.999662 11.4507276,19.9187946 11.2211956,19.7679167 C7.82084823,17.545 6.34847488,16.0208333 5.53635475,15.0679167 C3.80567786,13.0366667 2.97711631,10.95125 3.00048044,8.69291667 C3.0277386,6.105 5.18372933,4 7.80657015,4 C9.71377608,4 11.0347152,5.03458333 11.8040011,5.89625 C11.8533073,5.95092136 11.9248068,5.9823188 12,5.9823188 C12.0751937,5.9823188 12.1466932,5.95092136 12.1959994,5.89625 C12.9652853,5.03375 14.2862244,4 16.1934303,4 C18.8162711,4 20.9722619,6.105 20.99952,8.69333333 C21.0228842,10.9520833 20.1934573,13.0375 18.4636457,15.0683333 C17.6515256,16.02125 16.1791522,17.5454167 12.7788048,19.7683333 C12.5492236,19.9190637 12.2778596,19.9997848 12,20 Z" id="Path" fill="#000000" fill-rule="nonzero"></path>
        </g>
    </g>
</svg>