<?xml version="1.0" encoding="UTF-8"?>
<svg width="24px" height="24px" viewBox="0 0 24 24" version="1.1" xmlns="http://www.w3.org/2000/svg" xmlns:xlink="http://www.w3.org/1999/xlink">
    <title>VSQUARE/4) Icons/heart_circle/heart_circle</title>
    <g id="VSQUARE_Symbols" stroke="none" stroke-width="1" fill="none" fill-rule="evenodd">
        <g id="VSQUARE/4)-Icons/heart_circle/heart_circle">
            <rect id="Rectangle" x="0" y="0" width="24" height="24"></rect>
            <path d="M12,3 C7.03745192,3 3,7.03745192 3,12 C3,16.9625481 7.03745192,21 12,21 C16.9625481,21 21,16.9625481 21,12 C21,7.03745192 16.9625481,3 12,3 Z M15.2317788,13.9393269 C14.8259135,14.4343269 14.0894712,15.2257212 12.3889904,16.3801442 C12.1542524,16.5408746 11.8448822,16.5408746 11.6101442,16.3801442 C9.90966346,15.2257212 9.17322115,14.4330288 8.76735577,13.9393269 C7.90197115,12.8848558 7.48745192,11.8018269 7.49956731,10.6292308 C7.51298077,9.28528846 8.59081731,8.191875 9.90230769,8.191875 C10.785,8.191875 11.4167308,8.65182692 11.8104808,9.075 C11.8595196,9.12687101 11.9277525,9.15626216 11.9991346,9.15626216 C12.0705167,9.15626216 12.1387496,9.12687101 12.1877885,9.075 C12.5819712,8.65182692 13.2132692,8.191875 14.0959615,8.191875 C15.4074519,8.191875 16.4852885,9.28528846 16.4987019,10.6292308 C16.5116827,11.8018269 16.0967308,12.8848558 15.2317788,13.9393269 Z" id="Shape" fill="#000000" fill-rule="nonzero"></path>
        </g>
    </g>
</svg>