<?xml version="1.0" encoding="UTF-8"?>
<svg width="24px" height="24px" viewBox="0 0 24 24" version="1.1" xmlns="http://www.w3.org/2000/svg" xmlns:xlink="http://www.w3.org/1999/xlink">
    <title>VSQUARE/4) Icons/heart_circle/heart_circle_outline</title>
    <g id="VSQUARE_Symbols" stroke="none" stroke-width="1" fill="none" fill-rule="evenodd">
        <g id="VSQUARE/4)-Icons/heart_circle/heart_circle_outline">
            <rect id="Rectangle" x="0" y="0" width="24" height="24"></rect>
            <path d="M12,3 C16.9688894,3 21,7.03111056 21,12 C21,16.9688894 16.9688894,21 12,21 C7.03111056,21 3,16.9688894 3,12 C3,7.03111056 7.03111056,3 12,3 Z M12,4.38461538 C7.79581252,4.38461538 4.38461538,7.79581252 4.38461538,12 C4.38461538,16.2041875 7.79581252,19.6153846 12,19.6153846 C16.2041875,19.6153846 19.6153846,16.2041875 19.6153846,12 C19.6153846,7.79581252 16.2041875,4.38461538 12,4.38461538 Z M14.0963942,8.19144231 C15.4078846,8.19144231 16.4857212,9.28485577 16.4991346,10.6287981 C16.51125,11.8013942 16.0962981,12.8844231 15.2313462,13.9388942 C14.8254808,14.4338942 14.0890385,15.2252885 12.3885577,16.3797115 C12.2740048,16.4578097 12.138642,16.4997149 12,16.5 C11.8610629,16.4998883 11.7253737,16.4579754 11.6105769,16.3797115 C9.91009615,15.2252885 9.17365385,14.4325962 8.76778846,13.9388942 C7.90240385,12.8844231 7.48788462,11.8013942 7.5,10.6287981 C7.51341346,9.28485577 8.59125,8.19144231 9.90274038,8.19144231 C10.7854327,8.19144231 11.4171635,8.65139423 11.8109135,9.07456731 C11.8599523,9.12643832 11.9281852,9.15582946 11.9995673,9.15582946 C12.0709494,9.15582946 12.1391823,9.12643832 12.1882212,9.07456731 C12.5824038,8.65139423 13.2137019,8.19144231 14.0963942,8.19144231 Z" id="Combined-Shape" fill="#000000" fill-rule="nonzero"></path>
        </g>
    </g>
</svg>