<?xml version="1.0" encoding="UTF-8"?>
<svg width="24px" height="24px" viewBox="0 0 24 24" version="1.1" xmlns="http://www.w3.org/2000/svg" xmlns:xlink="http://www.w3.org/1999/xlink">
    <title>VSQUARE/4) Icons/heart/heart_outline</title>
    <g id="VSQUARE_Symbols" stroke="none" stroke-width="1" fill="none" fill-rule="evenodd">
        <g id="VSQUARE/4)-Icons/heart/heart_outline">
            <rect id="Rectangle" x="0" y="0" width="24" height="24"></rect>
            <path d="M16.1934511,4 C14.7623072,4 13.5471936,4.57883903 12.5556342,5.52690057 L12.515089,5.56600075 C12.3404401,5.73587355 12.1793905,5.91137412 12.0316231,6.08957085 L12,6.1279862 L11.9683837,6.08957085 C11.8092496,5.89766668 11.6347112,5.70888941 11.4443726,5.52690057 C10.4528131,4.57883903 9.2376996,4 7.80655566,4 C5.16130363,4 3.02792536,6.1158483 3.00048213,8.69355158 C2.97637008,11.0014071 3.8571431,13.0975868 5.5365743,15.0692429 C6.81717859,16.5726753 8.50066452,17.9562588 10.7783625,19.4765671 L10.9245563,19.5737962 C11.0225593,19.6387427 11.1216456,19.7039467 11.2218301,19.7694279 C11.6911737,20.0769266 12.308833,20.0769266 12.7788112,19.7690126 C13.029196,19.6053426 13.2727237,19.4434024 13.5096241,19.2828835 L13.6509709,19.1867403 C13.7446744,19.1227552 13.8373249,19.0589876 13.9289372,18.9954178 L14.0655786,18.9002089 C15.9224196,17.6009809 17.3460127,16.3807153 18.4631079,15.0692429 C20.142542,13.0975835 21.0234178,11.0014326 20.9995266,8.69374002 C20.9720814,6.1158483 18.8387031,4 16.1934511,4 Z M16.1934511,5.33332469 C18.0670512,5.33332469 19.5952665,6.84898268 19.6150501,8.7072208 C19.6354492,10.677618 18.8782098,12.4795611 17.3926261,14.2236398 C16.319872,15.4830556 14.9120057,16.675842 13.0373861,17.9704236 L12.9042831,18.0619771 C12.7034605,18.1995675 12.4973705,18.3383436 12.2858566,18.4785053 L12.1440421,18.5721539 C12.1202719,18.587797 12.0964342,18.6034577 12.072529,18.6191363 L12.0000034,18.6666234 L11.856526,18.572531 L11.7146675,18.478863 C11.5971237,18.4009795 11.4812555,18.3235245 11.3670359,18.2464635 L11.2307621,18.1541772 C11.1404381,18.0927762 11.0511625,18.0316187 10.9629213,17.9706869 L10.8313338,17.8794566 C10.6133086,17.7276809 10.4017063,17.5772619 10.1963119,17.427925 L10.0738185,17.3384505 C10.0332346,17.3086675 9.99289723,17.2789255 9.95280475,17.2492225 L9.83326024,17.1602279 C8.50651161,16.1677085 7.45265092,15.2163701 6.60705611,14.2236398 C5.12150223,12.4795961 4.3643698,10.6776726 4.38495804,8.70709333 C4.40474022,6.84898268 5.93295556,5.33332469 7.80655566,5.33332469 C8.83319956,5.33332469 9.71729773,5.75447918 10.4688618,6.4730735 C10.7390645,6.73142297 10.9715618,7.00979209 11.1644093,7.28736401 C11.2033634,7.34343203 11.2388702,7.39687705 11.2709052,7.44717214 L11.2975131,7.48949853 C11.3060985,7.50334199 11.3144001,7.51691603 11.322417,7.53020835 L11.3440308,7.56651791 L11.3637081,7.60050482 L11.3764767,7.62334444 L11.380815,7.63145218 C11.6333834,8.11790107 12.3495567,8.12276556 12.6113972,7.64604565 L12.6303612,7.61101136 L12.6514886,7.57417877 L12.6657777,7.54993401 C12.67351,7.53692648 12.6815271,7.52363109 12.6898285,7.51006012 L12.7155848,7.4685328 C12.7510621,7.41209352 12.7910784,7.35144174 12.8355975,7.28736401 C13.028445,7.00979209 13.2609422,6.73142297 13.531145,6.4730735 C14.282709,5.75447918 15.1668072,5.33332469 16.1934511,5.33332469 Z" id="Path" fill="#000000" fill-rule="nonzero"></path>
        </g>
    </g>
</svg>