<?xml version="1.0" encoding="UTF-8"?>
<svg width="24px" height="24px" viewBox="0 0 24 24" version="1.1" xmlns="http://www.w3.org/2000/svg" xmlns:xlink="http://www.w3.org/1999/xlink">
    <title>VSQUARE/4) Icons/help_circle/help_circle_sharp</title>
    <g id="VSQUARE_Symbols" stroke="none" stroke-width="1" fill="none" fill-rule="evenodd">
        <g id="VSQUARE/4)-Icons/help_circle/help_circle_sharp">
            <rect id="Rectangle" x="0" y="0" width="24" height="24"></rect>
            <path d="M12,3.5 C7.30729167,3.5 3.5,7.30729167 3.5,12 C3.5,16.6927083 7.30729167,20.5 12,20.5 C16.6927083,20.5 20.5,16.6927083 20.5,12 C20.5,7.30729167 16.6927083,3.5 12,3.5 Z M12.4621875,16.8697917 L11.1247656,16.8697917 C11.0621018,16.8695478 11.0114323,16.8186799 11.0114323,16.7560156 L11.0114323,15.4190365 C11.0114323,15.3563722 11.0621018,15.3055042 11.1247656,15.3052604 L12.4621875,15.3052604 C12.5248513,15.3055042 12.5755208,15.3563722 12.5755208,15.4190365 L12.5755208,16.7560156 C12.5755208,16.8186799 12.5248513,16.8695478 12.4621875,16.8697917 Z M13.2147917,12.4869792 C12.4971615,12.9686458 12.3984375,13.410026 12.3984375,13.8151042 L12.3984375,14.3020833 C12.3984375,14.3754337 12.3389753,14.4348958 12.265625,14.4348958 L11.2916667,14.4348958 C11.2183163,14.4348958 11.1588542,14.3754337 11.1588542,14.3020833 L11.1588542,13.8151042 C11.1588542,12.8451302 11.6051042,12.0739323 12.5232813,11.4572396 C13.3768229,10.884375 13.859375,10.5213542 13.859375,9.72315104 C13.859375,9.18039062 13.5494792,8.76822917 12.9079948,8.46320312 C12.7570313,8.39148437 12.4210156,8.32153646 12.007526,8.32640625 C11.4886719,8.33304687 11.0858073,8.45700521 10.7754688,8.70669271 C10.1902083,9.17773438 10.140625,9.69083333 10.140625,9.69791667 C10.1163221,9.84840914 10.103888,10.0005793 10.1034375,10.1530208 C10.1034375,10.2263712 10.0439753,10.2858333 9.970625,10.2858333 L9.02986979,10.2858333 C8.96156103,10.2861989 8.90411499,10.234689 8.89705729,10.1667448 C8.88111763,9.98995277 8.88245207,9.81202784 8.90104167,9.63549479 C8.91078125,9.52791667 8.98072917,8.55882812 9.99763021,7.74070312 C10.5248958,7.31658854 11.195599,7.09611979 11.9898177,7.08638021 C12.5520573,7.07973958 13.0802083,7.17492187 13.4383594,7.34403646 C14.5101563,7.85359375 15.0989583,8.69872396 15.0989583,9.72315104 C15.0989583,11.2208333 14.0979948,11.8933073 13.2147917,12.4869792 Z" id="Shape" fill="#000000" fill-rule="nonzero"></path>
        </g>
    </g>
</svg>