<?xml version="1.0" encoding="UTF-8"?>
<svg width="24px" height="24px" viewBox="0 0 24 24" version="1.1" xmlns="http://www.w3.org/2000/svg" xmlns:xlink="http://www.w3.org/1999/xlink">
    <title>VSQUARE/4) Icons/help_circle/help_circle</title>
    <g id="VSQUARE_Symbols" stroke="none" stroke-width="1" fill="none" fill-rule="evenodd">
        <g id="VSQUARE/4)-Icons/help_circle/help_circle">
            <rect id="Rectangle" x="0" y="0" width="24" height="24"></rect>
            <path d="M12,3.5 C7.30729167,3.5 3.5,7.30729167 3.5,12 C3.5,16.6927083 7.30729167,20.5 12,20.5 C16.6927083,20.5 20.5,16.6927083 20.5,12 C20.5,7.30729167 16.6927083,3.5 12,3.5 Z M11.734375,16.9583333 C11.2453729,16.9583333 10.8489583,16.5619188 10.8489583,16.0729167 C10.8489583,15.5839145 11.2453729,15.1875 11.734375,15.1875 C12.2233771,15.1875 12.6197917,15.5839145 12.6197917,16.0729167 C12.6197917,16.5619188 12.2233771,16.9583333 11.734375,16.9583333 L11.734375,16.9583333 Z M13.2147917,12.4427083 C12.4971615,12.924375 12.3984375,13.3657552 12.3984375,13.7708333 C12.3984375,14.1131348 12.1209473,14.390625 11.7786458,14.390625 C11.4363443,14.390625 11.1588542,14.1131348 11.1588542,13.7708333 C11.1588542,12.8008594 11.6051042,12.0296615 12.5232813,11.4129688 C13.3768229,10.8401042 13.859375,10.4770833 13.859375,9.67888021 C13.859375,9.13611979 13.5494792,8.72395833 12.9079948,8.41893229 C12.7570312,8.34721354 12.4210156,8.27726563 12.007526,8.28213542 C11.4886719,8.28877604 11.0858073,8.41273437 10.7754688,8.66242187 C10.1902083,9.13346354 10.140625,9.64611979 10.140625,9.65364583 C10.1299489,9.87507607 10.0019522,10.0739904 9.8048499,10.1754598 C9.60774763,10.2769291 9.37148438,10.2655379 9.18505822,10.145577 C8.99863206,10.0256161 8.89036556,9.81531045 8.90104167,9.59388021 C8.90591146,9.48630208 8.98072917,8.51721354 9.99763021,7.69908854 C10.5248958,7.27497396 11.195599,7.05450521 11.9898177,7.04476563 C12.5520573,7.038125 13.0802083,7.13330729 13.4383594,7.30242188 C14.5101563,7.80932292 15.0989583,8.65445313 15.0989583,9.67888021 C15.0989583,11.1765625 14.0979948,11.8490365 13.2147917,12.4427083 Z" id="Shape" fill="#000000" fill-rule="nonzero"></path>
        </g>
    </g>
</svg>