<?xml version="1.0" encoding="UTF-8"?>
<svg width="24px" height="24px" viewBox="0 0 24 24" version="1.1" xmlns="http://www.w3.org/2000/svg" xmlns:xlink="http://www.w3.org/1999/xlink">
    <title>VSQUARE/4) Icons/help_circle/help_circle_outline</title>
    <g id="VSQUARE_Symbols" stroke="none" stroke-width="1" fill="none" fill-rule="evenodd">
        <g id="VSQUARE/4)-Icons/help_circle/help_circle_outline">
            <rect id="Rectangle" x="0" y="0" width="24" height="24"></rect>
            <path d="M12,3.5 C14.2543402,3.5 16.4163484,4.39553314 18.0104076,5.98959236 C19.6044669,7.58365158 20.5,9.74565984 20.5,12 C20.5,16.6944204 16.6944204,20.5 12,20.5 C7.30557963,20.5 3.5,16.6944204 3.5,12 C3.5,7.30557963 7.30557963,3.5 12,3.5 Z M12,4.91666667 C8.08798302,4.91666667 4.91666667,8.08798302 4.91666667,12 C4.91666667,15.912017 8.08798302,19.0833333 12,19.0833333 C15.912017,19.0833333 19.0833333,15.912017 19.0833333,12 C19.0833333,10.1213832 18.3370557,8.31970965 17.008673,6.99132697 C15.6802904,5.66294429 13.8786168,4.91666667 12,4.91666667 Z M11.734375,15.1875 C12.2233771,15.1875 12.6197917,15.5839145 12.6197917,16.0729167 C12.6197917,16.5619188 12.2233771,16.9583333 11.734375,16.9583333 C11.2453729,16.9583333 10.8489583,16.5619188 10.8489583,16.0729167 C10.8489583,15.5839145 11.2453729,15.1875 11.734375,15.1875 Z M11.9920619,7.0417175 C12.5484339,7.03459105 13.0775009,7.12585474 13.4408876,7.29883675 C13.8206997,7.47962732 14.1573381,7.70306005 14.4470523,8.01509186 C14.8607155,8.4606208 15.0989583,9.01831785 15.0989583,9.67755208 C15.0989583,10.365984 14.8823549,10.9332362 14.4673538,11.4200869 L14.4406125,11.4511358 L14.3868896,11.51154 C14.3823899,11.5164883 14.3778829,11.5214166 14.3733675,11.5263262 L14.346164,11.5555663 L14.3187009,11.5844068 L14.2909216,11.6128999 C14.2862622,11.6176227 14.2815873,11.6223331 14.2768956,11.6270324 L14.2485357,11.655102 L14.2197178,11.6829543 L14.1903852,11.7106416 L14.1604814,11.7382158 L14.1299497,11.7657292 L14.0987332,11.7932338 L14.0667755,11.8207817 L14.0505009,11.8345882 L14.0505009,11.8345882 L14.0173249,11.8622989 L13.9832659,11.8901831 L13.9482673,11.918293 L13.9303978,11.9324489 L13.9303978,11.9324489 L13.8752241,11.9753984 L13.8370664,12.0044981 L13.777625,12.0489778 L13.736445,12.0792605 L13.6939569,12.1101076 L13.6276482,12.1575504 L13.581642,12.1900364 L13.5341293,12.2232692 L13.4599117,12.2746326 L13.3819859,12.3279692 L13.3001605,12.3834551 L13.2142442,12.441266 C13.1789605,12.4649282 13.1450218,12.4885321 13.1123913,12.5121092 L13.07386,12.540391 C12.5747362,12.9126514 12.3984375,13.2813772 12.3984375,13.7708333 C12.3984375,14.1131348 12.1209473,14.390625 11.7786458,14.390625 C11.4363443,14.390625 11.1588542,14.1131348 11.1588542,13.7708333 C11.1588542,12.833269 11.5662372,12.0639175 12.4955091,11.4308956 L12.6223089,11.3454283 L12.6917504,11.2982488 L12.7575807,11.253118 L12.8199582,11.209901 L12.8790416,11.1684626 L12.9349892,11.1286678 L12.9879596,11.0903815 L13.0216976,11.0656286 L13.0700584,11.0295563 L13.1158647,10.9946324 L13.1450613,10.971921 L13.1732401,10.9496199 L13.200448,10.9276891 L13.2395421,10.8953997 L13.2645281,10.8742196 L13.3121276,10.8325099 C13.3159702,10.8290636 13.3197831,10.8256235 13.3235674,10.8221889 L13.345936,10.8016394 L13.3676626,10.7811801 L13.3887939,10.7607709 L13.4093771,10.7403718 L13.429459,10.7199428 L13.4490866,10.6994438 L13.4683069,10.6788349 L13.487167,10.658076 L13.5057136,10.6371272 L13.5239939,10.6159483 C13.7510484,10.3495836 13.859375,10.0658923 13.859375,9.67755208 C13.859375,9.13908712 13.5646287,8.77268424 13.0642904,8.49786359 L13.026381,8.4774225 C13.0199989,8.47404386 13.0135851,8.4706792 13.0071397,8.46732839 L12.9680895,8.4473883 C12.9483762,8.43750003 12.9283815,8.42773347 12.9081104,8.41808439 C12.8370168,8.38424193 12.7361117,8.35417 12.6153852,8.33087024 L12.5766138,8.32374103 C12.5372068,8.31684394 12.495928,8.3106537 12.4530921,8.30526484 L12.4097487,8.3001466 C12.3951357,8.29853189 12.3803613,8.29700973 12.3654372,8.29558362 L12.3202273,8.29159689 C12.22135,8.28359845 12.1166395,8.27980576 12.0092958,8.28118029 C11.5044778,8.28875256 11.0940064,8.40681982 10.7757448,8.66320502 C10.6991217,8.72485529 10.629655,8.78880263 10.5668787,8.85477922 C10.3812686,9.04985145 10.2610755,9.25353524 10.1913621,9.45319276 C10.1684168,9.51890756 10.1533148,9.57778501 10.1444918,9.62761257 L10.1430481,9.63603384 L10.1399939,9.65673852 L10.1393985,9.66139593 L10.1379854,9.67947658 C10.1077617,10.0078955 9.82378463,10.2572605 9.49111755,10.2412924 C9.14920971,10.2248809 8.88534286,9.93440559 8.90175444,9.59249775 L8.90306101,9.57090363 L8.90306101,9.57090363 L8.90505557,9.5469615 L8.90778851,9.52072042 C8.91142725,9.48878386 8.91667641,9.45225382 8.92389609,9.41148095 C8.94399466,9.29797498 8.97557548,9.17485223 9.02106656,9.04456681 C9.14688567,8.68422368 9.35714701,8.32790684 9.66885179,8.00031181 C9.76939647,7.89464152 9.87926728,7.7935003 9.9983926,7.69765321 C10.5580157,7.2468317 11.231454,7.05312513 11.9920619,7.0417175 Z" id="Combined-Shape" fill="#000000" fill-rule="nonzero"></path>
        </g>
    </g>
</svg>