<?xml version="1.0" encoding="UTF-8"?>
<svg width="24px" height="24px" viewBox="0 0 24 24" version="1.1" xmlns="http://www.w3.org/2000/svg" xmlns:xlink="http://www.w3.org/1999/xlink">
    <title>VSQUARE/4) Icons/home/home_outline</title>
    <g id="VSQUARE_Symbols" stroke="none" stroke-width="1" fill="none" fill-rule="evenodd">
        <g id="VSQUARE/4)-Icons/home/home_outline">
            <rect id="Rectangle" x="0" y="0" width="24" height="24"></rect>
            <path d="M12.8635377,3.33262881 L12.8772853,3.34659366 L15.166,5.57 L15.1666664,4.28506235 C15.1666664,3.93423514 15.4435082,3.64904271 15.787536,3.64230213 L17.6999994,3.64218013 C18.0456157,3.64218013 18.3265721,3.92319604 18.3332125,4.2724108 L18.333,8.648 L21.3046145,11.5352448 C21.5537789,11.777354 21.5657541,12.1764444 21.334105,12.4334278 L21.324172,12.4442008 C21.0856589,12.6971219 20.6924964,12.7092776 20.43933,12.4741359 L20.428717,12.4640531 L19.599,11.658 L19.5999992,19.7142356 C19.5999992,20.4172426 19.0441787,20.9884734 18.3542793,20.9998277 L18.3333327,21 L14.5333331,21 C14.1877168,21 13.9067605,20.7189841 13.90012,20.3697693 L13.9000008,14.8926189 C13.9000008,14.7184415 13.7635229,14.5766205 13.5931965,14.5713308 L10.4166668,14.5711778 C10.2450765,14.5711778 10.105362,14.7097124 10.1001509,14.8826069 L10.1000002,20.3571178 C10.1000002,20.707945 9.8231583,20.9931374 9.47913055,20.999878 L9.46666692,21 L5.6666673,21 C4.97410229,21 4.41135612,20.4357992 4.40017045,19.735498 L4.4,11.658 L3.57128298,12.4640531 C3.32211865,12.7061623 2.92880822,12.7008819 2.68599726,12.4547443 L2.67582803,12.4442008 C2.43731495,12.1912797 2.44251688,11.7920393 2.68499855,11.5455674 L2.69538545,11.5352448 L11.1241559,3.34507721 C11.5697954,2.88865681 12.4126016,2.88550849 12.8635377,3.33262881 Z M12.0059626,4.28588529 L11.9944366,4.28586438 L11.9872938,4.28628656 L5.666,10.428 L5.6666673,19.7142356 L8.83333365,19.7142142 L8.83333365,14.8926189 C8.83333365,14.0138602 9.5281093,13.2998216 10.3904835,13.2856287 L13.5833332,13.2854134 C14.4490394,13.2854134 15.1524721,13.9906644 15.1664542,14.8660409 L15.1666664,19.7142142 L18.3333327,19.7142356 L18.333,10.428 L12.0126667,4.28628656 L12.0059626,4.28588529 Z M17.0666662,4.9279232 L16.4333329,4.9279232 L16.433,6.802 L17.066,7.417 L17.0666662,4.9279232 Z" id="Combined-Shape" fill="#000000" fill-rule="nonzero"></path>
        </g>
    </g>
</svg>