<?xml version="1.0" encoding="UTF-8"?>
<svg width="24px" height="24px" viewBox="0 0 24 24" version="1.1" xmlns="http://www.w3.org/2000/svg" xmlns:xlink="http://www.w3.org/1999/xlink">
    <title>VSQUARE/4) Icons/home/home</title>
    <g id="VSQUARE_Symbols" stroke="none" stroke-width="1" fill="none" fill-rule="evenodd">
        <g id="VSQUARE/4)-Icons/home/home">
            <rect id="Rectangle" x="0" y="0" width="24" height="24"></rect>
            <path d="M11.7822838,5.78357143 C11.9047155,5.66469244 12.0976426,5.66469244 12.2200744,5.78357143 L12.2200744,5.78357143 L19.5045772,12.8497768 C19.5671171,12.9105017 19.602348,12.9945627 19.602348,13.0824107 L19.602348,13.0824107 L19.602348,19.7142857 C19.602348,20.4243661 19.0352432,21 18.3356843,21 L18.3356843,21 L14.5333186,21 C14.1835392,21 13.8999869,20.7121831 13.8999869,20.3571429 L13.8999869,20.3571429 L13.8999869,14.8928571 C13.8999869,14.715337 13.7582107,14.5714286 13.583321,14.5714286 L13.583321,14.5714286 L10.4166621,14.5714286 C10.2417724,14.5714286 10.0999962,14.715337 10.0999962,14.8928571 L10.0999962,14.8928571 L10.0999962,20.3571429 C10.0999962,20.7121831 9.81644396,21 9.46666448,21 L9.46666448,21 L5.66271553,21 C4.96315657,21 4.39605199,20.4243661 4.39605199,19.7142857 L4.39605199,19.7142857 L4.39723948,13.0824107 C4.39714137,12.9945627 4.43247021,12.9105017 4.49501008,12.8497768 L4.49501008,12.8497768 Z M12,3 L12.1459505,3.00763041 C12.4337834,3.03796465 12.6944512,3.1576148 12.8783436,3.34633929 L12.8783436,3.34633929 L15.1710046,5.57142857 L15.1710046,4.28571429 C15.1710046,3.93067409 15.4545569,3.64285714 15.8043363,3.64285714 L15.8043363,3.64285714 L17.7043317,3.64285714 C18.0541111,3.64285714 18.3376634,3.93067409 18.3376634,4.28571429 L18.3376634,4.28571429 L18.3376634,8.64870536 L21.2984895,11.5238839 C21.5514263,11.769375 21.5716138,12.19125 21.3285727,12.4467857 C21.0862384,12.7017894 20.6863207,12.709696 20.4343874,12.4644643 L20.4343874,12.4644643 L12.2200744,4.49785714 C12.0976426,4.37897815 11.9047155,4.37897815 11.7822838,4.49785714 L11.7822838,4.49785714 L3.56876236,12.4644643 C3.44356104,12.5865962 3.27444809,12.6511917 3.10098369,12.64314 C2.92751929,12.6350883 2.76492025,12.5550959 2.65122296,12.421875 C2.42718184,12.1607143 2.45805677,11.7641518 2.70426449,11.5230804 L2.70426449,11.5230804 L11.1236187,3.34674107 C11.3381599,3.12616071 11.6564091,3 12,3 L12,3 Z" id="Combined-Shape" fill="#000000" fill-rule="nonzero"></path>
        </g>
    </g>
</svg>