<?xml version="1.0" encoding="UTF-8"?>
<svg width="24px" height="24px" viewBox="0 0 24 24" version="1.1" xmlns="http://www.w3.org/2000/svg" xmlns:xlink="http://www.w3.org/1999/xlink">
    <title>VSQUARE/4) Icons/images/images_sharp</title>
    <g id="VSQUARE_Symbols" stroke="none" stroke-width="1" fill="none" fill-rule="evenodd">
        <g id="VSQUARE/4)-Icons/images/images_sharp">
            <rect id="Rectangle" x="0" y="0" width="24" height="24"></rect>
            <path d="M21.6796875,6.21428571 C22.1327336,6.21428571 22.5,6.5740569 22.5,7.01785714 L22.5,7.01785714 L22.5,20.1964286 C22.5,20.6402288 22.1327336,21 21.6796875,21 L21.6796875,21 L5.6015625,21 C5.14851642,21 4.78125,20.6402288 4.78125,20.1964286 L4.78125,20.1964286 L4.78125,7.01785714 C4.78125,6.5740569 5.14851642,6.21428571 5.6015625,6.21428571 L5.6015625,6.21428571 Z M11.1177539,11.5037946 L6.08267578,15.9314732 L6.08267578,19.7677232 L10.3294336,19.7677232 L14.9641992,15.2544643 L11.1177539,11.5037946 Z M18.0530859,13.9820089 L12.1230469,19.7677232 L21.1875,19.7677232 L21.1875,16.6040625 L18.0530859,13.9820089 Z M19.0546875,3 C19.5077336,3 19.875,3.35977118 19.875,3.80357143 L19.875,3.80357143 L19.875,4.92857143 L4.2890625,4.92857143 C3.83601642,4.92857143 3.46875,5.28834261 3.46875,5.73214286 L3.46875,5.73214286 L3.46875,18.4285714 L2.3203125,18.4285714 C1.86726642,18.4285714 1.5,18.0688002 1.5,17.625 L1.5,17.625 L1.5,3.80357143 C1.5,3.35977118 1.86726642,3 2.3203125,3 L2.3203125,3 Z M16.8045703,8.67843387 C15.7598561,8.67643479 14.9106626,9.50326499 14.9063672,10.5266518 C14.9063672,11.5459237 15.7487764,12.3727726 16.7892811,12.3748319 C17.8297858,12.3768836 18.6755733,11.5533697 18.679805,10.5341062 C18.6840051,9.51484258 17.8450578,8.68464176 16.8045703,8.67843387 Z" id="Combined-Shape" fill="#000000" fill-rule="nonzero"></path>
        </g>
    </g>
</svg>