<?xml version="1.0" encoding="UTF-8"?>
<svg width="24px" height="24px" viewBox="0 0 24 24" version="1.1" xmlns="http://www.w3.org/2000/svg" xmlns:xlink="http://www.w3.org/1999/xlink">
    <title>VSQUARE/4) Icons/image/image_outline</title>
    <g id="VSQUARE_Symbols" stroke="none" stroke-width="1" fill="none" fill-rule="evenodd">
        <g id="VSQUARE/4)-Icons/image/image_outline">
            <rect id="Rectangle" x="0" y="0" width="24" height="24"></rect>
            <path d="M4.85714685,20.5 C3.27919243,20.5 2.00000762,19.2314735 2.00000762,17.6666667 L2.00000762,17.6666667 L2.00000762,6.33333333 C2.00000762,4.76852654 3.27919243,3.5 4.85714685,3.5 L4.85714685,3.5 L19.142843,3.5 C20.7207974,3.5 21.9999822,4.76852654 21.9999822,6.33333333 L21.9999822,6.33333333 L21.9999822,17.6666667 C21.9999822,19.2314735 20.7207974,20.5 19.142843,20.5 L19.142843,20.5 Z M8.62421188,11.9873123 L8.61166386,11.9981072 L3.428,16.567 L3.42857724,17.6666667 C3.42857724,18.4030463 3.9951366,19.0082015 4.71956606,19.0768482 L4.85714685,19.0833333 L10.275,19.083 L13.494,15.891 L9.5905146,12.0272261 C9.32713005,11.7660952 8.90653667,11.7500092 8.62421188,11.9873123 Z M16.5945543,14.8206973 L16.582744,14.8321694 L12.295,19.083 L19.142843,19.0833333 C19.8854098,19.0833333 20.4956496,18.5214946 20.564873,17.8031011 L20.5714126,17.6666667 L20.571,17.289 L17.5455257,14.7873961 C17.2657225,14.556666 16.8566307,14.571851 16.5945543,14.8206973 Z M19.142843,4.91666667 L4.85714685,4.91666667 C4.06816964,4.91666667 3.42857724,5.55092994 3.42857724,6.33333333 L3.42857724,6.33333333 L3.428,14.672 L7.66283203,10.93905 C8.50236744,10.1999168 9.77289338,10.2296146 10.5759436,11.0013519 L10.6001345,11.024965 L14.504,14.889 L15.5720865,13.8309372 C16.3471205,13.0608182 17.5817954,12.9966706 18.4339997,13.6779078 L18.4597062,13.6987795 L20.571,15.445 L20.5714126,6.33333333 C20.5714126,5.59695367 20.0048533,4.99179847 19.2804238,4.92315177 L19.142843,4.91666667 Z M15.571419,6.33333333 C16.7548848,6.33333333 17.7142734,7.28472824 17.7142734,8.45833333 C17.7142734,9.63193843 16.7548848,10.5833333 15.571419,10.5833333 C14.3879531,10.5833333 13.4285645,9.63193843 13.4285645,8.45833333 C13.4285645,7.28472824 14.3879531,6.33333333 15.571419,6.33333333 Z M15.571419,7.75 C15.1769304,7.75 14.8571342,8.06713164 14.8571342,8.45833333 C14.8571342,8.84953503 15.1769304,9.16666667 15.571419,9.16666667 C15.9659076,9.16666667 16.2857038,8.84953503 16.2857038,8.45833333 C16.2857038,8.06713164 15.9659076,7.75 15.571419,7.75 Z" id="Combined-Shape" fill="#000000" fill-rule="nonzero"></path>
        </g>
    </g>
</svg>