<?xml version="1.0" encoding="UTF-8"?>
<svg width="24px" height="24px" viewBox="0 0 24 24" version="1.1" xmlns="http://www.w3.org/2000/svg" xmlns:xlink="http://www.w3.org/1999/xlink">
    <title>VSQUARE/4) Icons/images/images</title>
    <g id="VSQUARE_Symbols" stroke="none" stroke-width="1" fill="none" fill-rule="evenodd">
        <g id="VSQUARE/4)-Icons/images/images">
            <rect id="Rectangle" x="0" y="0" width="24" height="24"></rect>
            <path d="M19.9689258,6.21428571 C21.3646875,6.21428571 22.5,7.31959821 22.5,8.6784375 L22.5,8.6784375 L22.5,18.5892857 C22.5,19.948125 21.3515625,21 19.9570313,21 L19.9570313,21 L7.32421875,21 C5.9296875,21 4.78125,19.8946875 4.78125,18.5358482 L4.78125,18.5358482 L4.78125,8.6784375 C4.78125,7.31959821 5.9296875,6.21428571 7.32421875,6.21428571 L7.32421875,6.21428571 Z M12.3949805,12.7589732 C11.6818422,12.0691006 10.5454974,12.0369904 9.79294922,12.6854464 L9.79294922,12.6854464 L6.08267578,15.9314732 L6.08267578,18.53625 C6.08267578,19.2156696 6.61013672,19.768125 7.30740234,19.768125 L7.30740234,19.768125 L10.3294336,19.7677232 L14.9641992,15.2544643 Z M19.363125,15.0873214 C18.65651,14.5097487 17.6285868,14.5124592 16.9251563,15.09375 L16.9251563,15.09375 L12.1230469,19.7677243 L19.9279102,19.7677243 C20.2617521,19.7681497 20.5820759,19.6385644 20.8183303,19.4075084 C21.0545847,19.1764523 21.1873914,18.8628774 21.1875,18.5358482 L21.1875,18.5358482 L21.1875,16.6040625 Z M17.25,3 C18.4469441,3.00096725 19.4921927,3.79367718 19.7929688,4.92857143 L19.7929688,4.92857143 L6.421875,4.92857143 C4.7909091,4.92857143 3.46875,6.22374769 3.46875,7.82142857 L3.46875,7.82142857 L3.46875,18.3482143 C2.31021212,18.0535766 1.5009874,17.0296596 1.5,15.8571429 L1.5,15.8571429 L1.5,5.57142857 C1.5,4.15126779 2.67525253,3 4.125,3 L4.125,3 Z M16.8045703,8.67843387 C15.7596967,8.67643537 14.910437,9.50350967 14.9063672,10.5270536 C14.9063672,11.5463255 15.7487764,12.3731743 16.7892811,12.3752337 C17.8297858,12.3772854 18.6755733,11.5537715 18.679805,10.5345079 C18.6840051,9.51524437 17.8450578,8.68504355 16.8045703,8.67883929 Z" id="Combined-Shape" fill="#000000" fill-rule="nonzero"></path>
        </g>
    </g>
</svg>