<?xml version="1.0" encoding="UTF-8"?>
<svg width="24px" height="24px" viewBox="0 0 24 24" version="1.1" xmlns="http://www.w3.org/2000/svg" xmlns:xlink="http://www.w3.org/1999/xlink">
    <title>VSQUARE/4) Icons/image/image</title>
    <g id="VSQUARE_Symbols" stroke="none" stroke-width="1" fill="none" fill-rule="evenodd">
        <g id="VSQUARE/4)-Icons/image/image">
            <rect id="Rectangle" x="0" y="0" width="24" height="24"></rect>
            <path d="M19.1428571,3.5 L4.85714286,3.5 C3.27990037,3.50170793 2.00172228,4.76923454 2,6.33333333 L2,17.6666667 C2.00172228,19.2307655 3.27990037,20.4982921 4.85714286,20.5 L19.1428571,20.5 C20.7200996,20.4982921 21.9982777,19.2307655 22,17.6666667 L22,6.33333333 C21.9982777,4.76923454 20.7200996,3.50170793 19.1428571,3.5 Z M15.5714286,6.33333333 C16.7548959,6.33333333 17.7142857,7.28472824 17.7142857,8.45833333 C17.7142857,9.63193843 16.7548959,10.5833333 15.5714286,10.5833333 C14.3879613,10.5833333 13.4285714,9.63193843 13.4285714,8.45833333 C13.4298018,7.28523398 14.3884712,6.33455341 15.5714286,6.33333333 L15.5714286,6.33333333 Z M4.85714286,19.0833333 C4.06816464,19.0833333 3.42857143,18.4490701 3.42857143,17.6666667 L3.42857143,14.6726302 L7.6625,10.940599 C8.51039154,10.1948778 9.79691289,10.231717 10.6,11.0247135 L13.4995536,13.8939062 L8.26651786,19.0833333 L4.85714286,19.0833333 Z M20.5714286,17.6666667 C20.5714286,18.4490701 19.9318354,19.0833333 19.1428571,19.0833333 L10.2870536,19.0833333 L15.7075893,13.7079688 C16.5000722,13.0396445 17.6634041,13.03665 18.459375,13.7008854 L20.5714286,15.4460417 L20.5714286,17.6666667 Z" id="Shape" fill="#000000" fill-rule="nonzero"></path>
        </g>
    </g>
</svg>