<?xml version="1.0" encoding="UTF-8"?>
<svg width="24px" height="24px" viewBox="0 0 24 24" version="1.1" xmlns="http://www.w3.org/2000/svg" xmlns:xlink="http://www.w3.org/1999/xlink">
    <title>VSQUARE/4) Icons/images/images_outline</title>
    <g id="VSQUARE_Symbols" stroke="none" stroke-width="1" fill="none" fill-rule="evenodd">
        <g id="VSQUARE/4)-Icons/images/images_outline">
            <rect id="Rectangle" x="0" y="0" width="24" height="24"></rect>
            <path d="M7.32380368,21 C5.91958853,21 4.78124723,19.8848892 4.78124723,18.5093303 L4.78124723,18.5093303 L4.78124723,18.4285714 L4.12309206,18.4285714 C2.69061339,18.4244937 1.52767096,17.2992755 1.50047557,15.8996392 L1.5,5.56956173 C1.50416266,4.16631614 2.6528219,3.02710627 4.08161613,3.00046586 L17.2518924,3 C18.6843711,3.00407771 19.8473135,4.12929587 19.8745089,5.52893222 L19.8749845,6.21428571 L19.9574258,6.21428571 C21.361641,6.21428571 22.4999823,7.32939649 22.4999823,8.70495535 L22.4999823,8.70495535 L22.4999823,18.5093303 C22.4999823,19.8848892 21.361641,21 19.9574258,21 L19.9574258,21 Z M10.6743205,13.620514 L10.6631115,13.6299536 L6.093,17.579 L6.09374612,18.5093303 C6.09374612,19.1332164 6.57777344,19.6463589 7.19803744,19.7080646 L7.32380368,19.7142857 L12.107,19.714 L14.921,16.978 L11.4977439,13.6538194 C11.2724104,13.4357308 10.9152821,13.4224373 10.6743205,13.620514 Z M17.7154893,16.0731973 L17.7049506,16.0831395 L13.97,19.714 L19.9574258,19.7142857 C20.594309,19.7142857 21.1181415,19.2401361 21.1811327,18.63253 L21.1874834,18.5093303 L21.187,18.204 L18.5262372,16.0482761 C18.2867185,15.8552911 17.9387998,15.8674826 17.7154893,16.0731973 Z M17.2716399,4.2859476 L4.12690351,4.28571157 C3.40910082,4.28775352 2.82636042,4.85159062 2.81273707,5.55021725 L2.81249613,15.855276 C2.81458061,16.5584302 3.39016383,17.1292785 4.10334458,17.1426238 L4.78124723,17.1428571 L4.78124723,8.70495535 C4.78124723,7.32939649 5.91958853,6.21428571 7.32380368,6.21428571 L7.32380368,6.21428571 L18.5624856,6.21428571 L18.5624884,5.5732954 C18.5604039,4.87014116 17.9848207,4.29929293 17.2716399,4.2859476 Z M19.9574258,7.49999999 L7.32380368,7.49999999 C6.64446165,7.49999999 6.09374612,8.03947688 6.09374612,8.70495535 L6.09374612,8.70495535 L6.093,15.865 L9.79522615,12.6654512 C10.5465636,12.0173027 11.6779465,12.0424033 12.3992461,12.7192528 L12.4209773,12.7399628 L15.853,16.072 L16.7817962,15.169208 C17.477624,14.4969739 18.5753612,14.4420573 19.3384222,15.0382095 L19.361442,15.0564741 L21.187,16.536 L21.1874834,8.70495535 C21.1874834,8.08106929 20.7034561,7.5679268 20.0831921,7.50622104 L19.9574258,7.49999999 Z M16.795534,8.66879463 C17.8539314,8.66879463 18.7138331,9.50512537 18.7138331,10.5391071 C18.7138331,11.5730889 17.8539314,12.4094196 16.795534,12.4094196 C15.7371365,12.4094196 14.8772348,11.5730889 14.8772348,10.5391071 C14.8772348,9.50512537 15.7371365,8.66879463 16.795534,8.66879463 Z M16.795534,9.95450892 C16.4599098,9.95450892 16.1897337,10.2172791 16.1897337,10.5391071 C16.1897337,10.8609351 16.4599098,11.1237053 16.795534,11.1237053 C17.1311581,11.1237053 17.4013342,10.8609351 17.4013342,10.5391071 C17.4013342,10.2172791 17.1311581,9.95450892 16.795534,9.95450892 Z" id="Combined-Shape" fill="#000000" fill-rule="nonzero"></path>
        </g>
    </g>
</svg>