<?xml version="1.0" encoding="UTF-8"?>
<svg width="24px" height="24px" viewBox="0 0 24 24" version="1.1" xmlns="http://www.w3.org/2000/svg" xmlns:xlink="http://www.w3.org/1999/xlink">
    <title>VSQUARE/4) Icons/image/image_sharp</title>
    <g id="VSQUARE_Symbols" stroke="none" stroke-width="1" fill="none" fill-rule="evenodd">
        <g id="VSQUARE/4)-Icons/image/image_sharp">
            <rect id="Rectangle" x="0" y="0" width="24" height="24"></rect>
            <path d="M20.9285714,3.5 L3.07142857,3.5 C2.47969491,3.5 2,3.97569745 2,4.5625 L2,19.4375 C2,20.0243025 2.47969491,20.5 3.07142857,20.5 L20.9285714,20.5 C21.5203051,20.5 22,20.0243025 22,19.4375 L22,4.5625 C22,3.97569745 21.5203051,3.5 20.9285714,3.5 Z M15.3758929,6.3421875 C16.2745942,6.26052808 17.1285661,6.74598949 17.511643,7.55630743 C17.89472,8.36662536 17.7247868,9.32810285 17.086647,9.96092489 C16.4485071,10.5937469 15.4789499,10.762264 14.6618226,10.3823794 C13.8446953,10.0024948 13.3551544,9.15563929 13.4375,8.26442708 C13.5317815,7.24403464 14.3469257,6.43568336 15.3758929,6.3421875 Z M3.96428571,19.0833333 C3.66841888,19.0833333 3.42857143,18.8454846 3.42857143,18.5520833 L3.42857143,14.6726302 L9.17142857,9.609375 L13.4995536,13.8925781 L8.26651786,19.0833333 L3.96428571,19.0833333 Z M20.5714286,18.5520833 C20.5714286,18.8454846 20.3315811,19.0833333 20.0357143,19.0833333 L10.2870536,19.0833333 L16.9625,12.4635156 L20.5714286,15.4460417 L20.5714286,18.5520833 Z" id="Shape" fill="#000000" fill-rule="nonzero"></path>
        </g>
    </g>
</svg>