<?xml version="1.0" encoding="UTF-8"?>
<svg width="24px" height="24px" viewBox="0 0 24 24" version="1.1" xmlns="http://www.w3.org/2000/svg" xmlns:xlink="http://www.w3.org/1999/xlink">
    <title>VSQUARE/4) Icons/information/information_outline</title>
    <g id="VSQUARE_Symbols" stroke="none" stroke-width="1" fill="none" fill-rule="evenodd">
        <g id="VSQUARE/4)-Icons/information/information_outline">
            <rect id="Rectangle" x="0" y="0" width="24" height="24"></rect>
            <path d="M12,3 C16.970095,3 21,7.02990498 21,12 C21,16.970095 16.970095,21 12,21 C7.02990498,21 3,16.970095 3,12 C3,7.02990498 7.02990498,3 12,3 Z M12,4.44 C7.82519502,4.44 4.44,7.82519502 4.44,12 C4.44,16.174805 7.82519502,19.56 12,19.56 C16.174805,19.56 19.56,16.174805 19.56,12 C19.56,7.82519502 16.174805,4.44 12,4.44 Z M12.18,10.02 C12.5729112,10.02 12.8923142,10.3347255 12.8998634,10.7258308 L12.899,15.42 L14.16,15.42 C14.557645,15.42 14.88,15.742355 14.88,16.14 C14.88,16.5329112 14.5652745,16.8523142 14.1741692,16.8598634 L14.16,16.86 L10.2,16.86 C9.80235498,16.86 9.48,16.537645 9.48,16.14 C9.48,15.7470888 9.79472555,15.4276858 10.1858308,15.4201366 L11.459,15.42 L11.46,11.46 L10.74,11.46 C10.3470888,11.46 10.0276858,11.1452745 10.0201366,10.7541692 L10.02,10.74 C10.02,10.3470888 10.3347255,10.0276858 10.7258308,10.0201366 L12.18,10.02 Z M12,6.69 C12.6461732,6.69 13.17,7.21382684 13.17,7.86 C13.17,8.50617316 12.6461732,9.03 12,9.03 C11.3538268,9.03 10.83,8.50617316 10.83,7.86 C10.83,7.21382684 11.3538268,6.69 12,6.69 Z" id="Combined-Shape" fill="#000000" fill-rule="nonzero"></path>
        </g>
    </g>
</svg>