<?xml version="1.0" encoding="UTF-8"?>
<svg width="24px" height="24px" viewBox="0 0 24 24" version="1.1" xmlns="http://www.w3.org/2000/svg" xmlns:xlink="http://www.w3.org/1999/xlink">
    <title>VSQUARE/4) Icons/language/language</title>
    <g id="VSQUARE_Symbols" stroke="none" stroke-width="1" fill="none" fill-rule="evenodd">
        <g id="VSQUARE/4)-Icons/language/language">
            <rect id="Rectangle" x="0" y="0" width="24" height="24"></rect>
            <path d="M16.7502056,9.66174479 C17.1279843,9.66174479 17.4684839,9.89409318 17.6126528,10.2502572 L17.6126528,10.2502572 L21.4293048,19.6807826 C21.5481927,19.9743145 21.5156926,20.3089922 21.3426598,20.573032 C21.1696269,20.8370719 20.8788666,20.9956742 20.5674939,20.995865 C20.1895791,20.9959114 19.8489576,20.7634396 19.7048347,20.4071061 L19.7048347,20.4071061 L18.9274235,18.4868262 L14.5729878,18.4868262 L13.7955766,20.4071061 C13.669478,20.7230586 13.3872331,20.9460075 13.0557722,20.9914871 C12.7243113,21.0369668 12.394337,20.8980202 12.1908623,20.6272884 C11.9873876,20.3565565 11.9415374,19.9954523 12.0706823,19.6807826 L12.0706823,19.6807826 L15.8877585,10.2502572 C16.0319274,9.89409318 16.372427,9.66174479 16.7502056,9.66174479 Z M9.28591319,3 C9.80122969,3 10.2189763,3.42609257 10.2189763,3.9517044 L10.2189763,3.9517044 L10.2189763,4.81689022 L15.1387633,4.81689022 C15.6540798,4.81689022 16.0718264,5.2429828 16.0718264,5.76859462 C16.0718264,6.29420645 15.6540798,6.72029902 15.1387633,6.72029902 L15.1387633,6.72029902 L13.7701295,6.72029902 C13.3816359,7.96357105 12.4290634,10.6054159 10.7474292,12.9275747 C11.6588622,13.948494 12.2865592,14.423481 12.2950416,14.4299699 C12.7114704,14.7385343 12.8042687,15.3327728 12.502436,15.7580301 L12.502436,15.7580301 C12.3571778,15.9622765 12.1380821,16.0996354 11.8934423,16.1393975 C11.6488025,16.1791596 11.398702,16.1180606 11.1982684,15.969568 L11.1982684,15.969568 L11.1627022,15.9427876 C11.0092419,15.8250179 10.396164,15.3338487 9.54717085,14.4079076 C7.29806475,16.947228 5.32845344,18.0594244 5.23684361,18.1104703 C4.9441763,18.2732894 4.58857904,18.2644848 4.30400189,18.0873733 C4.01942474,17.9102617 3.84910174,17.5917506 3.85719191,17.25182 C3.86528208,16.9118895 4.05055635,16.6021829 4.34322367,16.4393639 C5.0264803,16.0552214 6.65934067,14.8651583 8.32358588,12.9466088 C8.28499099,12.896428 8.24639611,12.8462472 8.20737711,12.7947687 C6.58257502,10.6447819 5.99007998,9.22371419 5.96548104,9.16401637 C5.77352264,8.68090365 5.99832262,8.13018165 6.46970032,7.92876424 C6.94107803,7.72734684 7.48359921,7.95019623 7.68655828,8.42860843 C7.72968672,8.5288132 8.2365598,9.67417652 9.51748248,11.4078758 C10.6515782,9.72681975 11.3950598,7.88613692 11.7988217,6.72029902 L11.7988217,6.72029902 L3.43306306,6.72029902 C2.91774656,6.72029902 2.5,6.29420645 2.5,5.76859462 C2.5,5.2429828 2.91774656,4.81689022 3.43306306,4.81689022 L3.43306306,4.81689022 L8.35285013,4.81689022 L8.35285013,3.9517044 C8.35285013,3.42609257 8.77059669,3 9.28591319,3 Z M16.7504177,13.1075333 L15.3436131,16.5834174 L18.1572223,16.5834174 L16.7504177,13.1075333 Z" id="Combined-Shape" fill="#000000" fill-rule="nonzero"></path>
        </g>
    </g>
</svg>