<?xml version="1.0" encoding="UTF-8"?>
<svg width="24px" height="24px" viewBox="0 0 24 24" version="1.1" xmlns="http://www.w3.org/2000/svg" xmlns:xlink="http://www.w3.org/1999/xlink">
    <title>VSQUARE/4) Icons/language/language_sharp</title>
    <g id="VSQUARE_Symbols" stroke="none" stroke-width="1" fill="none" fill-rule="evenodd">
        <g id="VSQUARE/4)-Icons/language/language_sharp">
            <rect id="Rectangle" x="0" y="0" width="24" height="24"></rect>
            <path d="M16.5379464,8.53846154 L21.5,21 L19.4965179,21 L18.4578795,18.4903846 L14.6180134,18.4903846 L13.579375,21 L11.5758929,21 L16.5379464,8.53846154 Z M10.21875,3 L10.21875,4.81730769 L16.0714286,4.81730769 L16.0714286,6.72115385 L13.7697991,6.72115385 C13.3817411,7.96384615 12.4308929,10.6019712 10.7522768,12.9229327 C11.8053348,14.086875 12.6679687,14.7610096 12.6785714,14.7692308 L12.6785714,14.7692308 L11.9575893,16.5865385 L11.4316964,16.2152885 C11.426875,16.2114626 11.4137735,16.2010636 11.3929756,16.1841914 L11.3080765,16.1142553 C11.0410244,15.8913661 10.3738839,15.3099823 9.55290179,14.4122596 C7.40395089,16.8690865 5.74441964,17.8352885 5.65111607,17.9075481 L5.65111607,17.9075481 L4.83258929,18.4038462 L3.85714286,16.8461538 L4.52299107,16.3905288 C4.54462054,16.3740865 6.216875,15.4122115 8.32553571,12.9519231 C8.28609375,12.9008654 8.24665179,12.8498077 8.20763393,12.7974519 C6.61638393,10.6915385 5.92508929,9.11913462 5.88734375,9.05163462 L5.88734375,9.05163462 L5.59598214,8.45192308 L7.20758929,7.5 L7.50997768,8.11182692 C7.51803571,8.12653846 8.13129464,9.53019231 9.51727679,11.4098077 C10.6513393,9.72836538 11.3947991,7.88725962 11.7985491,6.72115385 L11.7985491,6.72115385 L2.5,6.72115385 L2.5,4.81730769 L8.35267857,4.81730769 L8.35267857,3 L10.21875,3 Z M16.5379464,13.0319712 L15.4060045,16.5865385 L17.6698884,16.5865385 L16.5379464,13.0319712 Z" id="Combined-Shape" fill="#000000" fill-rule="nonzero"></path>
        </g>
    </g>
</svg>