<?xml version="1.0" encoding="UTF-8"?>
<svg width="24px" height="24px" viewBox="0 0 24 24" version="1.1" xmlns="http://www.w3.org/2000/svg" xmlns:xlink="http://www.w3.org/1999/xlink">
    <title>VSQUARE/4) Icons/language/language_outline</title>
    <g id="VSQUARE_Symbols" stroke="none" stroke-width="1" fill="none" fill-rule="evenodd">
        <g id="VSQUARE/4)-Icons/language/language_outline">
            <rect id="Rectangle" x="0" y="0" width="24" height="24"></rect>
            <path d="M17.3663575,10.3259831 L17.3735693,10.3425988 L21.4449606,20.0348109 C21.5925863,20.3862435 21.4330206,20.7932326 21.0885607,20.9438465 C20.7484066,21.0925778 20.355151,20.9356857 20.2032141,20.5933223 L20.1975609,20.5802323 L19.21,18.23 L14.289,18.23 L13.3021781,20.5802323 C13.1563977,20.9272719 12.7655718,21.0903611 12.4241205,20.9493479 L12.4111783,20.9438465 C12.0710241,20.7951152 11.9111707,20.3963781 12.0493862,20.0480151 L12.0547784,20.0348109 L16.1261697,10.3425988 C16.3588283,9.78873978 17.1230672,9.78320119 17.3663575,10.3259831 Z M9.28565214,3 C9.65595192,3 9.95697387,3.30261773 9.96408858,3.67867679 L9.964,5.076 L15.3927391,5.07690259 C15.7675003,5.07690259 16.0713043,5.38685625 16.0713043,5.76920346 C16.0713043,6.14699892 15.7746907,6.45411421 15.4060928,6.46137294 L13.581,6.461 L13.5639413,6.52135393 L13.5331338,6.62097679 L13.5012094,6.72239142 C13.4903814,6.75649048 13.4793666,6.79088151 13.4681645,6.82555786 L13.4339952,6.93043618 L13.3986981,7.03698645 C13.386744,7.07277742 13.3746013,7.10884039 13.3622694,7.14516871 L13.3247054,7.25494303 C13.280217,7.38392624 13.2334033,7.51607837 13.184238,7.65111399 C12.7226949,8.91877092 12.1486929,10.1868371 11.453051,11.3749305 C11.1285293,11.9291842 10.7842545,12.4534486 10.4194727,12.9431688 C10.7882702,13.3663893 11.1606826,13.7575938 11.5297897,14.1165754 L11.5637497,14.14952 L11.630877,14.2141445 C11.6530743,14.2354045 11.6750915,14.2563826 11.696924,14.277078 L11.7618621,14.3383147 L11.825663,14.397849 L11.8882983,14.4556752 C11.8986388,14.4651702 11.9089295,14.4745939 11.9191699,14.483946 L11.9800035,14.5391993 L12.0396003,14.5927303 C12.0494285,14.6015083 12.059204,14.6102142 12.0689261,14.6188481 L12.1266147,14.6697849 L12.1829955,14.7189851 L12.2223811,14.7529961 L12.2777087,14.8002209 L12.3120451,14.8291669 L12.3849083,14.889496 L12.414383,14.913264 C12.7111123,15.146803 12.7660943,15.5815396 12.5371889,15.8842753 C12.3113355,16.1829746 11.8935002,16.2415664 11.5973804,16.0187543 L11.5813095,16.0063035 L11.5240246,15.9599775 L11.4885599,15.9307277 L11.451121,15.899504 L11.4116035,15.8661982 L11.3700402,15.8308161 L11.3039306,15.7738623 L11.2449143,15.7223791 L11.2149586,15.6960272 L11.1541671,15.6421056 L11.092223,15.5865637 L11.0291507,15.5294055 L10.9649748,15.4706353 L10.9324807,15.440647 L10.8666955,15.3794667 L10.7998683,15.3166849 L10.7320234,15.2523058 C10.7206325,15.2414431 10.7092002,15.230514 10.6977271,15.2195186 L10.628402,15.1527513 C10.6167674,15.1414911 10.6050931,15.1301648 10.5933793,15.1187724 C10.2443602,14.7793278 9.89311521,14.4135496 9.54437691,14.0221971 L9.75089337,13.7815618 C8.69178207,15.0400816 7.55771454,16.1217682 6.42245463,17.0271377 C6.36339062,17.0742412 6.30493121,17.1203729 6.24710616,17.1655326 L6.16084807,17.2325433 L6.07556385,17.298096 C6.00490564,17.3521157 5.93528513,17.4046168 5.86676045,17.455599 L5.78506057,17.5160487 C5.77153283,17.5260021 5.75804985,17.5358948 5.7446121,17.5457267 L5.66453209,17.6039892 C5.65127711,17.6135781 5.6380683,17.6231063 5.62490611,17.6325737 L5.54649619,17.6886489 C5.53352236,17.6978732 5.52059609,17.7070368 5.50771783,17.7161397 L5.43102824,17.7700276 L5.3931226,17.7964247 L5.31820358,17.8481251 L5.26450184,17.8847859 L5.21261984,17.919869 L5.16258257,17.9533742 L5.11441501,17.9853014 L5.04572403,18.0302333 L4.97887646,18.0732111 L4.90511923,18.1195512 L4.88057885,18.1345328 C4.55783169,18.3288622 4.14178395,18.2194628 3.95131022,17.8901826 C3.76327845,17.5651238 3.86536476,17.147301 4.17850553,16.9496905 L4.23066406,16.9173723 L4.28020025,16.8859051 L4.31820918,16.8613878 L4.35814698,16.8353303 L4.39998849,16.8077335 L4.44370854,16.778598 L4.51275584,16.7320111 L4.56106216,16.6990317 L4.5967855,16.6744517 L4.66919793,16.6241477 L4.74287709,16.5723192 L4.81779783,16.5189668 L4.89393501,16.4640914 L4.9324519,16.4360828 L5.04975811,16.3497744 L5.12939375,16.2903344 C5.15612634,16.2702677 5.18304491,16.2499476 5.21014527,16.2293743 L5.29198752,16.1668949 C5.31944726,16.1458154 5.34708461,16.1244827 5.37489536,16.1028971 L5.45884365,16.0373814 C5.50107372,16.0042443 5.54368453,15.9705383 5.58666193,15.9362638 C6.63086685,15.1035106 7.67621152,14.1100905 8.65435951,12.9586741 C8.572513,12.853369 8.49050076,12.7468621 8.40893897,12.6389104 C7.72431097,11.7327659 7.13100004,10.8499531 6.62978708,10.0229742 L6.56812118,9.92073612 L6.52054215,9.84115228 L6.47418523,9.76299267 L6.42905101,9.68627702 L6.38514007,9.61102503 L6.34245298,9.53725644 L6.30099032,9.46499096 L6.26075268,9.39424831 L6.22174062,9.32504821 L6.18395474,9.25741039 L6.14739561,9.19135456 L6.11601504,9.13413871 L6.06551962,9.04092155 L6.03158783,8.9773294 L5.97575641,8.8703963 L5.96776205,8.85465319 C5.79656937,8.51452973 5.9280443,8.0972169 6.26141952,7.9225589 C6.5905748,7.75011176 6.99348469,7.87869079 7.16840584,8.20934378 L7.19866996,8.26799628 L7.22571058,8.31939272 L7.2560728,8.37628552 L7.28975603,8.43858903 L7.33144895,8.51473733 L7.3672282,8.57935006 L7.40432723,8.6456919 L7.442745,8.71373998 L7.48248044,8.78347141 L7.52353251,8.85486333 L7.56590016,8.92789284 L7.60958233,9.00253707 L7.65457797,9.07877314 L7.70088604,9.15657816 L7.74850547,9.23592927 C8.23347472,10.0407813 8.8125095,10.9051085 9.48380011,11.7936001 L9.52608027,11.8480864 C9.79111577,11.4749195 10.0450841,11.0796887 10.2879681,10.6648648 C10.9373499,9.55577944 11.4774615,8.36258276 11.9120433,7.16897679 C11.9318825,7.1144872 11.9513089,7.06051483 11.970324,7.00708275 L12.0078062,6.90094577 L12.0441944,6.79629051 C12.0561417,6.76165693 12.0679072,6.72727713 12.0794912,6.69315794 L12.1136993,6.59158904 C12.1193101,6.57479347 12.1248756,6.55806476 12.130396,6.54140376 L12.156,6.461 L3.17856521,6.46150432 C2.80380399,6.46150432 2.5,6.15155067 2.5,5.76920346 C2.5,5.391408 2.79661362,5.0842927 3.16521145,5.07703398 L3.17856521,5.07690259 L8.607,5.076 L8.60708693,3.69230086 C8.60708693,3.30995365 8.91089092,3 9.28565214,3 Z M16.7498695,12.3727585 L14.87,16.846 L18.628,16.846 L16.7498695,12.3727585 Z" id="Combined-Shape" fill="#000000" fill-rule="nonzero"></path>
        </g>
    </g>
</svg>