<?xml version="1.0" encoding="UTF-8"?>
<svg width="24px" height="24px" viewBox="0 0 24 24" version="1.1" xmlns="http://www.w3.org/2000/svg" xmlns:xlink="http://www.w3.org/1999/xlink">
    <title>VSQUARE/4) Icons/link/link_sharp</title>
    <g id="VSQUARE_Symbols" stroke="none" stroke-width="1" fill="none" fill-rule="evenodd">
        <g id="VSQUARE/4)-Icons/link/link_sharp">
            <rect id="Rectangle" x="0" y="0" width="24" height="24"></rect>
            <path d="M10.5952586,7 L10.5952586,9 L7.17241379,9 C5.45842664,9 4.06896552,10.3431458 4.06896552,12 C4.06896552,13.6402857 5.43077636,14.9731057 7.1210926,14.9995981 L7.17241379,15 L10.6491379,15 L10.6491379,17 L7.17241379,17 C4.31576854,17 2,14.7614237 2,12 C2,9.26619049 4.26968474,7.04482381 7.08687847,7.00066986 L10.5952586,7 Z M16.8275862,7 C19.6842315,7 22,9.23857625 22,12 C22,14.7338095 19.7303153,16.9551762 16.9131215,16.9993301 L16.8275862,17 L13.3508621,17 L13.3508621,15 L16.8275862,15 C18.5415734,15 19.9310345,13.6568542 19.9310345,12 C19.9310345,10.3597143 18.5692236,9.02689429 16.8789074,9.00040191 L13.4047414,9 L13.4047414,7 L16.8275862,7 Z M16.8676724,11 L16.8676724,13 L7.21853448,13 L7.21853448,11 L16.8676724,11 Z" id="Combined-Shape" fill="#000000" fill-rule="nonzero"></path>
        </g>
    </g>
</svg>