<?xml version="1.0" encoding="UTF-8"?>
<svg width="24px" height="24px" viewBox="0 0 24 24" version="1.1" xmlns="http://www.w3.org/2000/svg" xmlns:xlink="http://www.w3.org/1999/xlink">
    <title>VSQUARE/4) Icons/link/link</title>
    <g id="VSQUARE_Symbols" stroke="none" stroke-width="1" fill="none" fill-rule="evenodd">
        <g id="VSQUARE/4)-Icons/link/link">
            <rect id="Rectangle" x="0" y="0" width="24" height="24"></rect>
            <path d="M9.56077586,7 C10.1321049,7 10.5952586,7.44771525 10.5952586,8 C10.5952586,8.5467619 10.1413217,8.99103524 9.57788293,8.99986603 L9.56077586,9 L7.17241379,9 C5.45842664,9 4.06896552,10.3431458 4.06896552,12 C4.06896552,13.6402857 5.43077636,14.9731057 7.1210926,14.9995981 L7.17241379,15 L9.61465517,15 C10.1859842,15 10.6491379,15.4477153 10.6491379,16 C10.6491379,16.5467619 10.195201,16.9910352 9.63176224,16.999866 L9.61465517,17 L7.17241379,17 C4.31576854,17 2,14.7614237 2,12 C2,9.26619049 4.26968474,7.04482381 7.08687847,7.00066986 L9.56077586,7 Z M16.8275862,7 C19.6842315,7 22,9.23857625 22,12 C22,14.7338095 19.7303153,16.9551762 16.9131215,16.9993301 L16.8275862,17 L14.3853448,17 C13.8140158,17 13.3508621,16.5522847 13.3508621,16 C13.3508621,15.4532381 13.804799,15.0089648 14.3682378,15.000134 L16.8275862,15 C18.5415734,15 19.9310345,13.6568542 19.9310345,12 C19.9310345,10.3597143 18.5692236,9.02689429 16.8789074,9.00040191 L14.4392241,9 C13.8678951,9 13.4047414,8.55228475 13.4047414,8 C13.4047414,7.4532381 13.8586783,7.00896476 14.4221171,7.00013397 L16.8275862,7 Z M15.8331897,11 C16.4045187,11 16.8676724,11.4477153 16.8676724,12 C16.8676724,12.5467619 16.4137355,12.9910352 15.8502967,12.999866 L15.8331897,13 L8.25301724,13 C7.68168819,13 7.21853448,12.5522847 7.21853448,12 C7.21853448,11.4532381 7.67247143,11.0089648 8.23591018,11.000134 L8.25301724,11 L15.8331897,11 Z" id="Combined-Shape" fill="#000000" fill-rule="nonzero"></path>
        </g>
    </g>
</svg>