<?xml version="1.0" encoding="UTF-8"?>
<svg width="24px" height="24px" viewBox="0 0 24 24" version="1.1" xmlns="http://www.w3.org/2000/svg" xmlns:xlink="http://www.w3.org/1999/xlink">
    <title>VSQUARE/4) Icons/link/link_outline</title>
    <g id="VSQUARE_Symbols" stroke="none" stroke-width="1" fill="none" fill-rule="evenodd">
        <g id="VSQUARE/4)-Icons/link/link_outline">
            <rect id="Rectangle" x="0" y="0" width="24" height="24"></rect>
            <path d="M9.98230088,7 C10.4001801,7 10.7389381,7.35345941 10.7389381,7.78947368 C10.7389381,8.22064336 10.4076662,8.57108252 9.99620053,8.57881683 L7.2920354,8.57894737 C5.48122567,8.57894737 4.01327434,10.1106048 4.01327434,12 C4.01327434,13.8705012 5.45201343,15.3903837 7.23781509,15.4205943 L7.2920354,15.4210526 L9.98230088,15.4210526 C10.4001801,15.4210526 10.7389381,15.774512 10.7389381,16.2105263 C10.7389381,16.641696 10.4076662,16.9921352 9.99620053,16.9998695 L9.98230088,17 L7.2920354,17 C4.64546733,17 2.5,14.7614237 2.5,12 C2.5,9.26619049 4.60277253,7.04482381 7.21279033,7.00066986 L9.98230088,7 Z M16.7079646,7 C19.3545327,7 21.5,9.23857625 21.5,12 C21.5,14.7338095 19.3972275,16.9551762 16.7872097,16.9993301 L16.7079646,17 L14.0176991,17 C13.5998199,17 13.2610619,16.6465406 13.2610619,16.2105263 C13.2610619,15.7793566 13.5923338,15.4289175 14.0037995,15.4211832 L16.7079646,15.4210526 C18.5187743,15.4210526 19.9867257,13.8893952 19.9867257,12 C19.9867257,10.1294988 18.5479866,8.60961629 16.7621849,8.57940569 L16.7079646,8.57894737 L14.0176991,8.57894737 C13.5998199,8.57894737 13.2610619,8.22548796 13.2610619,7.78947368 C13.2610619,7.35830401 13.5923338,7.00786485 14.0037995,7.00013054 L16.7079646,7 Z M15.9811726,11.2105263 C16.3990517,11.2105263 16.7378097,11.5639857 16.7378097,12 C16.7378097,12.4311697 16.4065379,12.7816088 15.9950722,12.7893431 L8.10289823,12.7894737 C7.68501906,12.7894737 7.34626106,12.4360143 7.34626106,12 C7.34626106,11.5688303 7.67753293,11.2183912 8.08899858,11.2106569 L15.9811726,11.2105263 Z" id="Combined-Shape" fill="#000000" fill-rule="nonzero"></path>
        </g>
    </g>
</svg>