<?xml version="1.0" encoding="UTF-8"?>
<svg width="24px" height="24px" viewBox="0 0 24 24" version="1.1" xmlns="http://www.w3.org/2000/svg" xmlns:xlink="http://www.w3.org/1999/xlink">
    <title>VSQUARE/4) Icons/list/list</title>
    <g id="VSQUARE_Symbols" stroke="none" stroke-width="1" fill="none" fill-rule="evenodd">
        <g id="VSQUARE/4)-Icons/list/list">
            <rect id="Rectangle" x="0" y="0" width="24" height="24"></rect>
            <path d="M19.9811321,6.33333333 C20.5438373,6.33333333 21,6.78104858 21,7.33333333 C21,7.88009524 20.5529149,8.32436857 19.9979809,8.33319936 L19.9811321,8.33333333 L7.75471698,8.33333333 C7.19201176,8.33333333 6.73584906,7.88561808 6.73584906,7.33333333 C6.73584906,6.78657143 7.18293413,6.3422981 7.73786814,6.3334673 L7.75471698,6.33333333 L19.9811321,6.33333333 Z M19.9811321,11 C20.5438373,11 21,11.4477153 21,12 C21,12.5467619 20.5529149,12.9910352 19.9979809,12.999866 L19.9811321,13 L7.75471698,13 C7.19201176,13 6.73584906,12.5522847 6.73584906,12 C6.73584906,11.4532381 7.18293413,11.0089648 7.73786814,11.000134 L7.75471698,11 L19.9811321,11 Z M19.9811321,15.6666667 C20.5438373,15.6666667 21,16.1143819 21,16.6666667 C21,17.2134286 20.5529149,17.6577019 19.9979809,17.6665327 L19.9811321,17.6666667 L7.75471698,17.6666667 C7.19201176,17.6666667 6.73584906,17.2189514 6.73584906,16.6666667 C6.73584906,16.1199048 7.18293413,15.6756314 7.73786814,15.6668006 L7.75471698,15.6666667 L19.9811321,15.6666667 Z M4.35849057,6 C3.60821694,6 3,6.59695367 3,7.33333333 C3,8.069713 3.60821694,8.66666667 4.35849057,8.66666667 C5.10876419,8.66666667 5.71698113,8.069713 5.71698113,7.33333333 C5.71698113,6.59695367 5.10876419,6 4.35849057,6 Z M4.35849057,10.6666667 C3.60821694,10.6666667 3,11.2636203 3,12 C3,12.7363797 3.60821694,13.3333333 4.35849057,13.3333333 C5.10876419,13.3333333 5.71698113,12.7363797 5.71698113,12 C5.71698113,11.2636203 5.10876419,10.6666667 4.35849057,10.6666667 Z M4.35849057,15.3333333 C3.60821694,15.3333333 3,15.930287 3,16.6666667 C3,17.4030463 3.60821694,18 4.35849057,18 C5.10876419,18 5.71698113,17.4030463 5.71698113,16.6666667 C5.71698113,15.930287 5.10876419,15.3333333 4.35849057,15.3333333 Z" id="Combined-Shape" fill="#000000" fill-rule="nonzero"></path>
        </g>
    </g>
</svg>