<?xml version="1.0" encoding="UTF-8"?>
<svg width="24px" height="24px" viewBox="0 0 24 24" version="1.1" xmlns="http://www.w3.org/2000/svg" xmlns:xlink="http://www.w3.org/1999/xlink">
    <title>VSQUARE/4) Icons/list/list_sharp</title>
    <g id="VSQUARE_Symbols" stroke="none" stroke-width="1" fill="none" fill-rule="evenodd">
        <g id="VSQUARE/4)-Icons/list/list_sharp">
            <rect id="Rectangle" x="0" y="0" width="24" height="24"></rect>
            <path d="M21,6.33333333 L21,8.33333333 L7.15384615,8.33333333 L7.15384615,6.33333333 L21,6.33333333 Z M21,11 L21,13 L7.15384615,13 L7.15384615,11 L21,11 Z M21,15.6666667 L21,17.6666667 L7.15384615,17.6666667 L7.15384615,15.6666667 L21,15.6666667 Z M5.07692308,6 L3.69230769,6 C3.30995671,6 3,6.29847683 3,6.66666667 L3,8 C3,8.36818983 3.30995671,8.66666667 3.69230769,8.66666667 L5.07692308,8.66666667 C5.45927406,8.66666667 5.76923077,8.36818983 5.76923077,8 L5.76923077,6.66666667 C5.76923077,6.29847683 5.45927406,6 5.07692308,6 Z M5.07692308,10.6666667 L3.69230769,10.6666667 C3.30995671,10.6666667 3,10.9651435 3,11.3333333 L3,12.6666667 C3,13.0348565 3.30995671,13.3333333 3.69230769,13.3333333 L5.07692308,13.3333333 C5.45927406,13.3333333 5.76923077,13.0348565 5.76923077,12.6666667 L5.76923077,11.3333333 C5.76923077,10.9651435 5.45927406,10.6666667 5.07692308,10.6666667 Z M5.07692308,15.3333333 L3.69230769,15.3333333 C3.30995671,15.3333333 3,15.6318102 3,16 L3,17.3333333 C3,17.7015232 3.30995671,18 3.69230769,18 L5.07692308,18 C5.45927406,18 5.76923077,17.7015232 5.76923077,17.3333333 L5.76923077,16 C5.76923077,15.6318102 5.45927406,15.3333333 5.07692308,15.3333333 Z" id="Combined-Shape" fill="#000000" fill-rule="nonzero"></path>
        </g>
    </g>
</svg>