<?xml version="1.0" encoding="UTF-8"?>
<svg width="24px" height="24px" viewBox="0 0 24 24" version="1.1" xmlns="http://www.w3.org/2000/svg" xmlns:xlink="http://www.w3.org/1999/xlink">
    <title>VSQUARE/4) Icons/list/list_outline</title>
    <g id="VSQUARE_Symbols" stroke="none" stroke-width="1" fill="none" fill-rule="evenodd">
        <g id="VSQUARE/4)-Icons/list/list_outline">
            <rect id="Rectangle" x="0" y="0" width="24" height="24"></rect>
            <path d="M20.3076923,6.66666667 C20.6900433,6.66666667 21,6.9651435 21,7.33333333 C21,7.69713995 20.6973793,7.99288353 20.3213165,7.99987348 L20.3076923,8 L7.84615385,8 C7.46380287,8 7.15384615,7.70152317 7.15384615,7.33333333 C7.15384615,6.96952671 7.45646687,6.67378314 7.83252963,6.66679318 L7.84615385,6.66666667 L20.3076923,6.66666667 Z M20.3076923,11.3333333 C20.6900433,11.3333333 21,11.6318102 21,12 C21,12.3638066 20.6973793,12.6595502 20.3213165,12.6665401 L20.3076923,12.6666667 L7.84615385,12.6666667 C7.46380287,12.6666667 7.15384615,12.3681898 7.15384615,12 C7.15384615,11.6361934 7.45646687,11.3404498 7.83252963,11.3334599 L7.84615385,11.3333333 L20.3076923,11.3333333 Z M20.3076923,16 C20.6900433,16 21,16.2984768 21,16.6666667 C21,17.0304733 20.6973793,17.3262169 20.3213165,17.3332068 L20.3076923,17.3333333 L7.84615385,17.3333333 C7.46380287,17.3333333 7.15384615,17.0348565 7.15384615,16.6666667 C7.15384615,16.30286 7.45646687,16.0071165 7.83252963,16.0001265 L7.84615385,16 L20.3076923,16 Z M4.38461538,6 C3.61991342,6 3,6.59695367 3,7.33333333 C3,8.069713 3.61991342,8.66666667 4.38461538,8.66666667 C5.14931735,8.66666667 5.76923077,8.069713 5.76923077,7.33333333 C5.76923077,6.59695367 5.14931735,6 4.38461538,6 Z M4.38461538,10.6666667 C3.61991342,10.6666667 3,11.2636203 3,12 C3,12.7363797 3.61991342,13.3333333 4.38461538,13.3333333 C5.14931735,13.3333333 5.76923077,12.7363797 5.76923077,12 C5.76923077,11.2636203 5.14931735,10.6666667 4.38461538,10.6666667 Z M4.38461538,15.3333333 C3.61991342,15.3333333 3,15.930287 3,16.6666667 C3,17.4030463 3.61991342,18 4.38461538,18 C5.14931735,18 5.76923077,17.4030463 5.76923077,16.6666667 C5.76923077,15.930287 5.14931735,15.3333333 4.38461538,15.3333333 Z" id="Combined-Shape" fill="#000000" fill-rule="nonzero"></path>
        </g>
    </g>
</svg>