<?xml version="1.0" encoding="UTF-8"?>
<svg width="24px" height="24px" viewBox="0 0 24 24" version="1.1" xmlns="http://www.w3.org/2000/svg" xmlns:xlink="http://www.w3.org/1999/xlink">
    <title>VSQUARE/4) Icons/location/location_outline</title>
    <g id="VSQUARE_Symbols" stroke="none" stroke-width="1" fill="none" fill-rule="evenodd">
        <g id="VSQUARE/4)-Icons/location/location_outline">
            <rect id="Rectangle" x="0" y="0" width="24" height="24"></rect>
            <path d="M12,2.5 C15.856753,2.5 19,5.55201147 19,9.33067194 C19,11.2287168 18.1297474,12.6377578 16.6195796,15.4202077 C15.5734335,17.3477082 14.332383,19.2509286 13.1203549,20.9210748 L13.1203549,20.9210748 L13.1109819,20.9339688 C12.8529955,21.2841684 12.4507712,21.4930757 12.0214863,21.5 L12.0214863,21.5 L12,21.5 C11.5555071,21.5 11.1378236,21.2830635 10.8762395,20.9163413 L10.8762395,20.9163413 L10.8168503,20.8342736 C9.64577993,19.2134982 8.45117151,17.3787395 7.43468589,15.5183556 L7.43468589,15.5183556 L7.38040285,15.4186687 C5.87023902,12.635887 5,11.2273339 5,9.33067194 C5,5.55201147 8.14324696,2.5 12,2.5 Z M12,3.92863727 C8.90131016,3.92863727 6.4,6.35734472 6.4,9.33067194 C6.4,10.921867 7.20137718,12.1398318 8.60514403,14.7265555 C9.61735595,16.5917603 10.8263901,18.446448 11.9999563,20.0642484 L11.9999563,20.0642484 L12.0562504,19.9866571 C13.1950135,18.4111792 14.3585773,16.6246731 15.3423448,14.8244808 L15.3423448,14.8244808 L15.3948735,14.72803 C16.7986388,12.1416242 17.6,10.923289 17.6,9.33067194 C17.6,6.35734472 15.0986898,3.92863727 12,3.92863727 Z M12,6.78591181 C13.5463973,6.78591181 14.8,8.06515719 14.8,9.64318634 C14.8,11.2212155 13.5463973,12.5004609 12,12.5004609 C10.4536027,12.5004609 9.2,11.2212155 9.2,9.64318634 C9.2,8.06515719 10.4536027,6.78591181 12,6.78591181 Z M12,8.21454908 C11.2268014,8.21454908 10.6,8.85417177 10.6,9.64318634 C10.6,10.4322009 11.2268014,11.0718236 12,11.0718236 C12.7731986,11.0718236 13.4,10.4322009 13.4,9.64318634 C13.4,8.85417177 12.7731986,8.21454908 12,8.21454908 Z" id="Combined-Shape" fill="#000000" fill-rule="nonzero"></path>
        </g>
    </g>
</svg>