<?xml version="1.0" encoding="UTF-8"?>
<svg width="24px" height="24px" viewBox="0 0 24 24" version="1.1" xmlns="http://www.w3.org/2000/svg" xmlns:xlink="http://www.w3.org/1999/xlink">
    <title>VSQUARE/4) Icons/location/location</title>
    <g id="VSQUARE_Symbols" stroke="none" stroke-width="1" fill="none" fill-rule="evenodd">
        <g id="VSQUARE/4)-Icons/location/location">
            <rect id="Rectangle" x="0" y="0" width="24" height="24"></rect>
            <path d="M12,2.5 C15.859625,2.5 19,5.56484664 19,9.33061232 C19,11.1248758 18.1989375,12.5097863 16.62175,15.41927 C15.353,17.7559644 13.883875,19.8689898 13.12175,20.9203684 C12.8601091,21.2847165 12.4439626,21.5 12.0013125,21.5 C11.5586624,21.5 11.1425159,21.2847165 10.880875,20.9203684 C10.1174375,19.8689898 8.649625,17.7559644 7.380875,15.41927 C5.8010625,12.5088934 5,11.1239829 5,9.33061232 C5,5.56484664 8.140375,2.5 12,2.5 Z M12,6.7858744 C10.4536027,6.7858744 9.2,8.06510862 9.2,9.643124 C9.2,11.2211394 10.4536027,12.5003736 12,12.5003736 C13.5456976,12.4986512 14.7983122,11.2204254 14.8,9.643124 C14.8,8.06510862 13.5463973,6.7858744 12,6.7858744 Z M12,8.2144992 C12.7731986,8.2144992 13.4,8.85411631 13.4,9.643124 C13.4,10.4321317 12.7731986,11.0717488 12,11.0717488 C11.2268014,11.0717488 10.6,10.4321317 10.6,9.643124 C10.6,8.85411631 11.2268014,8.2144992 12,8.2144992 Z" id="Combined-Shape" fill="#000000" fill-rule="nonzero"></path>
        </g>
    </g>
</svg>