<?xml version="1.0" encoding="UTF-8"?>
<svg width="24px" height="24px" viewBox="0 0 24 24" version="1.1" xmlns="http://www.w3.org/2000/svg" xmlns:xlink="http://www.w3.org/1999/xlink">
    <title>VSQUARE/4) Icons/lock_closed/lock_closed</title>
    <g id="VSQUARE_Symbols" stroke="none" stroke-width="1" fill="none" fill-rule="evenodd">
        <g id="VSQUARE/4)-Icons/lock_closed/lock_closed">
            <rect id="Rectangle" x="0" y="0" width="24" height="24"></rect>
            <path d="M16.7727273,9.33333333 L16.0909091,9.33333333 L16.0909091,6 C16.0909091,3.790861 14.2593467,2 12,2 C9.7406533,2 7.90909091,3.790861 7.90909091,6 L7.90909091,9.33333333 L7.22727273,9.33333333 C5.72172308,9.3349408 4.501644,10.527907 4.5,12 L4.5,19.3333333 C4.501644,20.8054263 5.72172308,21.9983925 7.22727273,22 L16.7727273,22 C18.2782769,21.9983925 19.498356,20.8054263 19.5,19.3333333 L19.5,12 C19.498356,10.527907 18.2782769,9.3349408 16.7727273,9.33333333 Z M14.7272727,9.33333333 L9.27272727,9.33333333 L9.27272727,6 C9.27272727,4.52724067 10.4937689,3.33333333 12,3.33333333 C13.5062311,3.33333333 14.7272727,4.52724067 14.7272727,6 L14.7272727,9.33333333 Z" id="Shape" fill="#000000" fill-rule="nonzero"></path>
        </g>
    </g>
</svg>