<?xml version="1.0" encoding="UTF-8"?>
<svg width="24px" height="24px" viewBox="0 0 24 24" version="1.1" xmlns="http://www.w3.org/2000/svg" xmlns:xlink="http://www.w3.org/1999/xlink">
    <title>VSQUARE/4) Icons/lock_open/lock_open_sharp</title>
    <g id="VSQUARE_Symbols" stroke="none" stroke-width="1" fill="none" fill-rule="evenodd">
        <g id="VSQUARE/4)-Icons/lock_open/lock_open_sharp">
            <rect id="Rectangle" x="0" y="0" width="24" height="24"></rect>
            <path d="M18.9886364,9.33333337 L9.52840909,9.33333337 L9.52840909,5.96875005 C9.52973983,4.99138181 10.1322167,4.11073992 11.0555984,3.73645357 C11.9789802,3.36216721 13.0419788,3.56772027 13.750142,4.25750005 C14.2156433,4.72295409 14.4748444,5.34899696 14.4715909,6 L16.0909091,6 C16.0909091,4.57093768 15.3111862,3.25042958 14.0454546,2.53589839 C12.7797229,1.8213672 11.2202771,1.8213672 9.95454544,2.53589839 C8.68881375,3.25042958 7.90909089,4.57093768 7.90909091,6 L7.90909091,9.33333337 L5.01136364,9.33333337 C4.7289453,9.33333337 4.5,9.557191 4.5,9.83333337 L4.5,21.5 C4.5,21.7761424 4.7289453,22 5.01136364,22 L18.9886364,22 C19.2710547,22 19.5,21.7761424 19.5,21.5 L19.5,9.83333337 C19.5,9.557191 19.2710547,9.33333337 18.9886364,9.33333337 Z" id="Path" fill="#000000" fill-rule="nonzero"></path>
        </g>
    </g>
</svg>