<?xml version="1.0" encoding="UTF-8"?>
<svg width="24px" height="24px" viewBox="0 0 24 24" version="1.1" xmlns="http://www.w3.org/2000/svg" xmlns:xlink="http://www.w3.org/1999/xlink">
    <title>VSQUARE/4) Icons/lock_open/lock_open_outline</title>
    <g id="VSQUARE_Symbols" stroke="none" stroke-width="1" fill="none" fill-rule="evenodd">
        <g id="VSQUARE/4)-Icons/lock_open/lock_open_outline">
            <rect id="Rectangle" x="0" y="0" width="24" height="24"></rect>
            <path d="M12,2 C14.2593467,2 16.0909091,3.790861 16.0909091,6 C16.0909091,6.36818983 15.7856487,6.66666667 15.4090909,6.66666667 C15.037016,6.66666667 14.7345509,6.37525412 14.7274021,6.01311961 L14.7272727,6 C14.7272727,4.52724067 13.5062311,3.33333333 12,3.33333333 C10.5088312,3.33333333 9.29717662,4.50348191 9.27309265,5.95590179 L9.27272727,6 L9.272,9.333 L16.7727273,9.33333333 C18.2210264,9.33333333 19.4056518,10.4371678 19.4946344,11.8313558 L19.5,12 L19.5,19.3333333 C19.5,20.8060927 18.2789584,22 16.7727273,22 L16.7727273,22 L7.22727273,22 C5.72104159,22 4.5,20.8060927 4.5,19.3333333 L4.5,19.3333333 L4.5,12 C4.5,10.5272407 5.72104159,9.33333333 7.22727273,9.33333333 L7.22727273,9.33333333 L7.909,9.333 L7.90909091,6 C7.90909091,3.790861 9.7406533,2 12,2 Z M16.7727273,10.6666667 L7.22727273,10.6666667 C6.47415716,10.6666667 5.86363636,11.2636203 5.86363636,12 L5.86363636,12 L5.86363636,19.3333333 C5.86363636,20.069713 6.47415716,20.6666667 7.22727273,20.6666667 L7.22727273,20.6666667 L16.7727273,20.6666667 C17.5258428,20.6666667 18.1363636,20.069713 18.1363636,19.3333333 L18.1363636,19.3333333 L18.1363636,12 C18.1363636,11.2636203 17.5258428,10.6666667 16.7727273,10.6666667 L16.7727273,10.6666667 Z" id="Combined-Shape" fill="#000000" fill-rule="nonzero"></path>
        </g>
    </g>
</svg>