<?xml version="1.0" encoding="UTF-8"?>
<svg width="24px" height="24px" viewBox="0 0 24 24" version="1.1" xmlns="http://www.w3.org/2000/svg" xmlns:xlink="http://www.w3.org/1999/xlink">
    <title>VSQUARE/4) Icons/lock_closed/lock_closed_sharp</title>
    <g id="VSQUARE_Symbols" stroke="none" stroke-width="1" fill="none" fill-rule="evenodd">
        <g id="VSQUARE/4)-Icons/lock_closed/lock_closed_sharp">
            <rect id="Rectangle" x="0" y="0" width="24" height="24"></rect>
            <path d="M18.9886364,9.33333333 L16.0909091,9.33333333 L16.0909091,6 C16.0909091,3.790861 14.2593467,2 12,2 C9.7406533,2 7.90909091,3.790861 7.90909091,6 L7.90909091,9.33333333 L5.01136364,9.33333333 C4.7289453,9.33333333 4.5,9.55719096 4.5,9.83333333 L4.5,21.5 C4.5,21.7761424 4.7289453,22 5.01136364,22 L18.9886364,22 C19.2710547,22 19.5,21.7761424 19.5,21.5 L19.5,9.83333333 C19.5,9.55719096 19.2710547,9.33333333 18.9886364,9.33333333 Z M14.4715909,9.33333333 L9.52840909,9.33333333 L9.52840909,5.96875 C9.52840909,4.63406185 10.634978,3.55208333 12,3.55208333 C13.365022,3.55208333 14.4715909,4.63406185 14.4715909,5.96875 L14.4715909,9.33333333 Z" id="Shape" fill="#000000" fill-rule="nonzero"></path>
        </g>
    </g>
</svg>