<?xml version="1.0" encoding="UTF-8"?>
<svg width="24px" height="24px" viewBox="0 0 24 24" version="1.1" xmlns="http://www.w3.org/2000/svg" xmlns:xlink="http://www.w3.org/1999/xlink">
    <title>VSQUARE/4) Icons/lock_closed/lock_closed_outline</title>
    <g id="VSQUARE_Symbols" stroke="none" stroke-width="1" fill="none" fill-rule="evenodd">
        <g id="VSQUARE/4)-Icons/lock_closed/lock_closed_outline">
            <rect id="Rectangle" x="0" y="0" width="24" height="24"></rect>
            <path d="M12,2 C14.2367532,2 16.0542351,3.75888722 16.090361,5.94206532 L16.09,9.306 L16.7727273,9.30688935 C18.2210264,9.30688935 19.4056518,10.4130283 19.4946344,11.8101269 L19.5,11.9791232 L19.5,19.3277662 C19.5,20.8036002 18.2789584,22 16.7727273,22 L16.7727273,22 L7.22727273,22 C5.72104159,22 4.5,20.8036002 4.5,19.3277662 L4.5,19.3277662 L4.5,11.9791232 C4.5,10.5032892 5.72104159,9.30688935 7.22727273,9.30688935 L7.22727273,9.30688935 L7.909,9.306 L7.90909091,6.00835073 C7.90909091,3.79459975 9.7406533,2 12,2 Z M16.7727273,10.6430063 L7.22727273,10.6430063 C6.47415716,10.6430063 5.86363636,11.2412062 5.86363636,11.9791232 L5.86363636,11.9791232 L5.86363636,19.3277662 C5.86363636,20.0656832 6.47415716,20.6638831 7.22727273,20.6638831 L7.22727273,20.6638831 L16.7727273,20.6638831 C17.5258428,20.6638831 18.1363636,20.0656832 18.1363636,19.3277662 L18.1363636,19.3277662 L18.1363636,11.9791232 C18.1363636,11.2412062 17.5258428,10.6430063 16.7727273,10.6430063 L16.7727273,10.6430063 Z M12,3.33611691 C10.5088312,3.33611691 9.29717662,4.50870839 9.27309265,5.96416046 L9.27272727,6.00835073 L9.272,9.306 L14.727,9.306 L14.7272727,6.00835073 C14.7272727,4.53251674 13.5062311,3.33611691 12,3.33611691 Z" id="Combined-Shape" fill="#000000" fill-rule="nonzero"></path>
        </g>
    </g>
</svg>