<?xml version="1.0" encoding="UTF-8"?>
<svg width="24px" height="24px" viewBox="0 0 24 24" version="1.1" xmlns="http://www.w3.org/2000/svg" xmlns:xlink="http://www.w3.org/1999/xlink">
    <title>VSQUARE/4) Icons/log_out/log_out_outline</title>
    <g id="VSQUARE_Symbols" stroke="none" stroke-width="1" fill="none" fill-rule="evenodd">
        <g id="VSQUARE/4)-Icons/log_out/log_out_outline">
            <rect id="Rectangle" x="0" y="0" width="24" height="24"></rect>
            <path d="M12,4.5 C13.3585519,4.5 14.7412941,5.55650839 14.7688131,6.8471815 L14.7692308,6.88636364 L14.7692308,8.59090909 C14.7692308,8.96746687 14.4592741,9.27272727 14.0769231,9.27272727 C13.6991239,9.27272727 13.3920056,8.97469172 13.3847468,8.60432687 L13.3846154,6.88636364 C13.3846154,6.41871069 12.6855947,5.87463558 12.0201538,5.86380084 L5.42307692,5.86363636 C4.85528572,5.86363636 4.39392495,6.31241494 4.38475451,6.86945097 L4.38461538,17.1136364 C4.38461538,17.6728247 4.84029824,18.1271951 5.40590406,18.1362266 L12.3461538,18.1363636 C12.9139451,18.1363636 13.3753058,17.6875851 13.3844763,17.130549 L13.3846154,15.4090909 C13.3846154,15.0325331 13.6945721,14.7272727 14.0769231,14.7272727 C14.4547223,14.7272727 14.7618406,15.0253083 14.7690994,15.3956731 L14.7692308,17.1136364 C14.7692308,18.4184091 13.7059708,19.4786068 12.3862239,19.4996803 L12.3461538,19.5 L5.42307692,19.5 C4.09823078,19.5 3.02172231,18.45285 3.00032462,17.1530992 L3,6.88636364 C3,5.58159091 4.06326001,4.52139318 5.38300692,4.5003197 L12,4.5 Z M17.3243279,8.09785048 L17.3356893,8.10879083 L20.7972278,11.5178817 C21.0638357,11.7804502 21.0675386,12.2038918 20.8083364,12.470929 L20.7972278,12.4821183 L17.3356893,15.8912092 C17.0653263,16.1574757 16.6269814,16.1574757 16.3566184,15.8912092 C16.0900105,15.6286408 16.0863076,15.2051991 16.3455097,14.9381619 L16.3566184,14.9269726 L18.636,12.681 L8.53846154,12.6818182 C8.15611056,12.6818182 7.84615385,12.3765578 7.84615385,12 C7.84615385,11.627925 8.14877456,11.32546 8.52483733,11.3183112 L18.636,11.318 L16.3566184,9.07302735 C16.0900105,8.81045893 16.0863076,8.38701724 16.3455097,8.11998012 L16.3566184,8.10879083 C16.6232263,7.84622242 17.0531825,7.84257563 17.3243279,8.09785048 Z" id="Combined-Shape" fill="#000000" fill-rule="nonzero"></path>
        </g>
    </g>
</svg>