<?xml version="1.0" encoding="UTF-8"?>
<svg width="24px" height="24px" viewBox="0 0 24 24" version="1.1" xmlns="http://www.w3.org/2000/svg" xmlns:xlink="http://www.w3.org/1999/xlink">
    <title>VSQUARE/4) Icons/log_in/log_in</title>
    <g id="VSQUARE_Symbols" stroke="none" stroke-width="1" fill="none" fill-rule="evenodd">
        <g id="VSQUARE/4)-Icons/log_in/log_in">
            <rect id="Rectangle" x="0" y="0" width="24" height="24"></rect>
            <path d="M17.6666667,4.5 L11,4.5 C9.71190675,4.5014092 8.66804455,5.56899554 8.66666667,6.88636364 L8.66666667,11.3181818 L15.0570833,11.3181818 L12.8620833,9.07286932 C12.6130641,8.80480275 12.6183496,8.38259246 12.8739978,8.12113408 C13.129646,7.8596757 13.5424738,7.85427008 13.8045833,8.10894886 L17.1379167,11.5180398 C17.3980602,11.7842701 17.3980602,12.2157299 17.1379167,12.4819602 L13.8045833,15.8910511 C13.5424738,16.1457299 13.129646,16.1403243 12.8739978,15.8788659 C12.6183496,15.6174075 12.6130641,15.1951972 12.8620833,14.9271307 L15.0570833,12.6818182 L8.66666667,12.6818182 L8.66666667,17.1136364 C8.66666667,18.4794034 10.0745833,19.5 11.3333333,19.5 L17.6666667,19.5 C18.9547599,19.4985908 19.9986221,18.4310045 20,17.1136364 L20,6.88636364 C19.9986221,5.56899554 18.9547599,4.5014092 17.6666667,4.5 Z M4.66666667,11.3181818 C4.29847683,11.3181818 4,11.6234422 4,12 C4,12.3765578 4.29847683,12.6818182 4.66666667,12.6818182 L8.66666667,12.6818182 L8.66666667,11.3181818 L4.66666667,11.3181818 Z" id="Combined-Shape" fill="#000000" fill-rule="nonzero"></path>
        </g>
    </g>
</svg>