<?xml version="1.0" encoding="UTF-8"?>
<svg width="24px" height="24px" viewBox="0 0 24 24" version="1.1" xmlns="http://www.w3.org/2000/svg" xmlns:xlink="http://www.w3.org/1999/xlink">
    <title>VSQUARE/4) Icons/log_in/log_in_outline</title>
    <g id="VSQUARE_Symbols" stroke="none" stroke-width="1" fill="none" fill-rule="evenodd">
        <g id="VSQUARE/4)-Icons/log_in/log_in_outline">
            <rect id="Rectangle" x="0" y="0" width="24" height="24"></rect>
            <path d="M17.6666667,4.5 C18.9424444,4.5 19.9790822,5.54715001 19.9996874,6.84690075 L20,6.88636364 L20,17.1136364 C20,18.4184091 18.97612,19.4786068 17.7052526,19.4996803 L17.6666667,19.5 L11.3333333,19.5 C10.0250982,19.5 8.69356863,18.4434916 8.66706886,17.1528185 L8.66666667,17.1136364 L8.66666667,15.4090909 C8.66666667,15.0325331 8.9651435,14.7272727 9.33333333,14.7272727 C9.69713995,14.7272727 9.99288353,15.0253083 9.99987348,15.3956731 L10,15.4090909 L10,17.1136364 C10,17.5812893 10.673131,18.1253644 11.3139259,18.1361992 L17.6666667,18.1363636 C18.2134286,18.1363636 18.6577019,17.6875851 18.6665327,17.130549 L18.6666667,6.88636364 C18.6666667,6.32717533 18.2278609,5.87280487 17.6832035,5.86377338 L11,5.86363636 C10.4532381,5.86363636 10.0089648,6.31241494 10.000134,6.86945097 L10,8.59090909 C10,8.96746687 9.70152317,9.27272727 9.33333333,9.27272727 C8.96952671,9.27272727 8.67378314,8.97469172 8.66679318,8.60432687 L8.66666667,6.88636364 C8.66666667,5.58159091 9.69054667,4.52139318 10.9614141,4.5003197 L17.6666667,4.5 Z M13.7937972,8.09785048 L13.8047379,8.10879083 L17.1380712,11.5178817 C17.3948047,11.7804502 17.3983705,12.2038918 17.1487684,12.470929 L17.1380712,12.4821183 L13.8047379,15.8912092 C13.5443883,16.1574757 13.1222783,16.1574757 12.8619288,15.8912092 C12.6051953,15.6286408 12.6016295,15.2051991 12.8512316,14.9381619 L12.8619288,14.9269726 L15.057,12.681 L4.66666667,12.6818182 C4.29847683,12.6818182 4,12.3765578 4,12 C4,11.627925 4.29141254,11.32546 4.65354706,11.3183112 L15.056,11.318 L12.8619288,9.07302735 C12.6051953,8.81045893 12.6016295,8.38701724 12.8512316,8.11998012 L12.8619288,8.10879083 C13.1186624,7.84622242 13.5326943,7.84257563 13.7937972,8.09785048 Z" id="Combined-Shape" fill="#000000" fill-rule="nonzero"></path>
        </g>
    </g>
</svg>