<?xml version="1.0" encoding="UTF-8"?>
<svg width="24px" height="24px" viewBox="0 0 24 24" version="1.1" xmlns="http://www.w3.org/2000/svg" xmlns:xlink="http://www.w3.org/1999/xlink">
    <title>VSQUARE/4) Icons/log_in/log_in_sharp</title>
    <g id="VSQUARE_Symbols" stroke="none" stroke-width="1" fill="none" fill-rule="evenodd">
        <g id="VSQUARE/4)-Icons/log_in/log_in_sharp">
            <rect id="Rectangle" x="0" y="0" width="24" height="24"></rect>
            <path d="M19.3333333,4.5 L9.33333333,4.5 C8.9651435,4.5 8.66666667,4.8052604 8.66666667,5.18181818 L8.66666667,11.3181818 L15.0570833,11.3181818 L12.3904167,8.59090909 L13.3333333,7.6265625 L17.1379167,11.5180398 C17.3980602,11.7842701 17.3980602,12.2157299 17.1379167,12.4819602 L13.3333333,16.3734375 L12.3904167,15.4090909 L15.0570833,12.6818182 L8.66666667,12.6818182 L8.66666667,18.8181818 C8.66666667,19.1947396 8.9651435,19.5 9.33333333,19.5 L19.3333333,19.5 C19.7015232,19.5 20,19.1947396 20,18.8181818 L20,5.18181818 C20,4.8052604 19.7015232,4.5 19.3333333,4.5 Z M4,11.3181818 L8.66666667,11.3181818 L8.66666667,12.6818182 L4,12.6818182 L4,11.3181818 Z" id="Combined-Shape" fill="#000000" fill-rule="nonzero"></path>
        </g>
    </g>
</svg>