<?xml version="1.0" encoding="UTF-8"?>
<svg width="24px" height="24px" viewBox="0 0 24 24" version="1.1" xmlns="http://www.w3.org/2000/svg" xmlns:xlink="http://www.w3.org/1999/xlink">
    <title>VSQUARE/4) Icons/log_out/log_out</title>
    <g id="VSQUARE_Symbols" stroke="none" stroke-width="1" fill="none" fill-rule="evenodd">
        <g id="VSQUARE/4)-Icons/log_out/log_out">
            <rect id="Rectangle" x="0" y="0" width="24" height="24"></rect>
            <path d="M12.0001604,4.5 C13.3073472,4.5 14.7694406,5.52272727 14.7694406,6.88636364 L14.7694406,6.88636364 L14.7694406,11.3181818 L8.53856027,11.3181818 C8.15620247,11.3181818 7.84624024,11.6234422 7.84624024,12 C7.84624024,12.3765578 8.15620247,12.6818182 8.53856027,12.6818182 L8.53856027,12.6818182 L14.7694406,12.6818182 L14.7694406,17.1136364 C14.7680097,18.4310045 13.6839796,19.4985908 12.3463205,19.5 L12.3463205,19.5 L5.42312012,19.5 C4.08546098,19.4985908 3.00143091,18.4310045 3,17.1136364 L3,17.1136364 L3,6.88636364 C3.00143091,5.56899554 4.08546098,4.5014092 5.42312012,4.5 L5.42312012,4.5 Z M16.3693899,8.12113408 C16.6348754,7.8596757 17.0635889,7.85427008 17.3357844,8.10894886 L17.3357844,8.10894886 L20.7973846,11.5180398 C21.0675385,11.7842701 21.0675385,12.2157299 20.7973846,12.4819602 L20.7973846,12.4819602 L17.3357844,15.8910511 C17.1625108,16.0706667 16.9039397,16.1435805 16.6603957,16.0815021 C16.4168518,16.0194237 16.2266671,15.8321239 16.1636325,15.5922743 C16.100598,15.3524247 16.1746348,15.0977759 16.357017,14.9271307 L16.357017,14.9271307 L18.6364807,12.6818182 L14.7694406,12.6818182 L14.7694406,11.3181818 L18.6364807,11.3181818 L16.357017,9.07286932 C16.0984154,8.80480275 16.1039043,8.38259246 16.3693899,8.12113408 Z" id="Combined-Shape" fill="#000000" fill-rule="nonzero"></path>
        </g>
    </g>
</svg>