<?xml version="1.0" encoding="UTF-8"?>
<svg width="24px" height="24px" viewBox="0 0 24 24" version="1.1" xmlns="http://www.w3.org/2000/svg" xmlns:xlink="http://www.w3.org/1999/xlink">
    <title>VSQUARE/4) Icons/log_out/log_out_sharp</title>
    <g id="VSQUARE_Symbols" stroke="none" stroke-width="1" fill="none" fill-rule="evenodd">
        <g id="VSQUARE/4)-Icons/log_out/log_out_sharp">
            <rect id="Rectangle" x="0" y="0" width="24" height="24"></rect>
            <path d="M14.0771205,4.5 C14.4594783,4.5 14.7694406,4.8052604 14.7694406,5.18181818 L14.7694406,5.18181818 L14.7694406,11.3181818 L7.84624024,11.3181818 L7.84624024,12.6818182 L14.7694406,12.6818182 L14.7694406,18.8181818 C14.7694406,19.1947396 14.4594783,19.5 14.0771205,19.5 L14.0771205,19.5 L3.69232003,19.5 C3.30996224,19.5 3,19.1947396 3,18.8181818 L3,18.8181818 L3,5.18181818 C3,4.8052604 3.30996224,4.5 3.69232003,4.5 L3.69232003,4.5 Z M16.8464007,7.6265625 L20.7973846,11.5180398 C21.0675385,11.7842701 21.0675385,12.2157299 20.7973846,12.4819602 L20.7973846,12.4819602 L16.8464007,16.3734375 L15.8672005,15.4090909 L18.6364807,12.6818182 L14.7694406,12.6818182 L14.7694406,11.3181818 L18.6364807,11.3181818 L15.8672005,8.59090909 L16.8464007,7.6265625 Z" id="Combined-Shape" fill="#000000" fill-rule="nonzero"></path>
        </g>
    </g>
</svg>