<?xml version="1.0" encoding="UTF-8"?>
<svg width="24px" height="24px" viewBox="0 0 24 24" version="1.1" xmlns="http://www.w3.org/2000/svg" xmlns:xlink="http://www.w3.org/1999/xlink">
    <title>VSQUARE/4) Icons/mail/mail_outline</title>
    <g id="VSQUARE_Symbols" stroke="none" stroke-width="1" fill="none" fill-rule="evenodd">
        <g id="VSQUARE/4)-Icons/mail/mail_outline">
            <rect id="Rectangle" x="0" y="0" width="24" height="24"></rect>
            <path d="M18.75,5 C19.9926407,5 21,5.99718397 21,7.22727273 L21,7.22727273 L21,16.7727273 C21,18.002816 19.9926407,19 18.75,19 L18.75,19 L5.25,19 C4.00735931,19 3,18.002816 3,16.7727273 L3,16.7727273 L3,7.22727273 C3,5.99718397 4.00735931,5 5.25,5 L5.25,5 Z M18.75,6.27272727 L5.25,6.27272727 C4.71743971,6.27272727 4.28571429,6.70009183 4.28571429,7.22727273 L4.28571429,7.22727273 L4.28571429,16.7727273 C4.28571429,17.2999082 4.71743971,17.7272727 5.25,17.7272727 L5.25,17.7272727 L18.75,17.7272727 C19.2825603,17.7272727 19.7142857,17.2999082 19.7142857,16.7727273 L19.7142857,16.7727273 L19.7142857,7.22727273 C19.7142857,6.70009183 19.2825603,6.27272727 18.75,6.27272727 L18.75,6.27272727 Z M18.293155,7.7911287 C18.5082223,8.06485069 18.4619407,8.4577215 18.1914778,8.67540493 L18.1803904,8.68413323 L12.3946761,13.1386787 C12.1665361,13.3143286 11.8486479,13.317357 11.6174132,13.147764 L11.6053239,13.1386787 L5.81960961,8.68413323 C5.53935784,8.46836139 5.48887141,8.06854964 5.706845,7.7911287 C5.92191228,7.51740671 6.31797267,7.46510443 6.59768654,7.6710139 L6.60896182,7.67950313 L11.9999598,11.8301307 L17.3910382,7.67950313 C17.6712899,7.46373129 18.0751814,7.51370776 18.293155,7.7911287 Z" id="Combined-Shape" fill="#000000" fill-rule="nonzero"></path>
        </g>
    </g>
</svg>