<?xml version="1.0" encoding="UTF-8"?>
<svg width="24px" height="24px" viewBox="0 0 24 24" version="1.1" xmlns="http://www.w3.org/2000/svg" xmlns:xlink="http://www.w3.org/1999/xlink">
    <title>VSQUARE/4) Icons/mail/mail</title>
    <g id="VSQUARE_Symbols" stroke="none" stroke-width="1" fill="none" fill-rule="evenodd">
        <g id="VSQUARE/4)-Icons/mail/mail">
            <rect id="Rectangle" x="0" y="0" width="24" height="24"></rect>
            <path d="M18.75,5 L5.25,5 C4.00791008,5.00131526 3.00132868,5.99772918 3,7.22727273 L3,16.7727273 C3.00132868,18.0022708 4.00791008,18.9986847 5.25,19 L18.75,19 C19.9920899,18.9986847 20.9986713,18.0022708 21,16.7727273 L21,7.22727273 C20.9986713,5.99772918 19.9920899,5.00131526 18.75,5 Z M18.1802679,8.68414773 L12.3945536,13.1386932 C12.1624588,13.3172989 11.8375412,13.3172989 11.6054464,13.1386932 L5.81973214,8.68414773 C5.63473122,8.54585072 5.53928119,8.31966455 5.56992886,8.09219351 C5.60057654,7.86472247 5.75257411,7.67120534 5.96772333,7.58573779 C6.18287254,7.50027024 6.42784345,7.53609251 6.60883929,7.67948864 L12,11.8301705 L17.3911607,7.67948864 C17.671672,7.46979305 18.0703158,7.52200894 18.2860778,7.7967083 C18.5018398,8.07140765 18.4547064,8.4667205 18.1802679,8.68414773 Z" id="Shape" fill="#000000" fill-rule="nonzero"></path>
        </g>
    </g>
</svg>