<?xml version="1.0" encoding="UTF-8"?>
<svg width="24px" height="24px" viewBox="0 0 24 24" version="1.1" xmlns="http://www.w3.org/2000/svg" xmlns:xlink="http://www.w3.org/1999/xlink">
    <title>VSQUARE/4) Icons/map/map</title>
    <g id="VSQUARE_Symbols" stroke="none" stroke-width="1" fill="none" fill-rule="evenodd">
        <g id="VSQUARE/4)-Icons/map/map">
            <rect id="Rectangle" x="0" y="0" width="24" height="24"></rect>
            <path d="M2.72188578,5.78254274 C2.274368,6.03120933 1.99857217,6.49574373 2.00000743,6.99841984 L2.00000743,19.9311685 C1.99839096,20.421309 2.26047444,20.8762986 2.69033082,21.1295902 C3.1201872,21.3828818 3.65470156,21.3972853 4.09821714,21.1675282 C4.11741346,21.1575048 4.13616335,21.1470456 4.15446681,21.1352791 L7.91069518,18.7362098 C8.01204285,18.6716904 8.0730353,18.5614668 8.07274923,18.4433533 L8.07274923,2.86748829 C8.07312003,2.73805336 8.00000743,2.61907056 7.88284928,2.55845891 C7.76569345,2.49784726 7.62378227,2.50558431 7.51426889,2.57855405 L2.72188578,5.78254274 Z M10.0517543,2.55632834 C9.94206329,2.48672402 9.80216557,2.48123912 9.68710979,2.54203192 C9.572054,2.60282471 9.50025753,2.72016388 9.49997073,2.84787736 L9.49997073,18.4302794 C9.49968426,18.5483929 9.5606767,18.6586165 9.66202438,18.7231358 L13.947714,21.4433884 C14.0574891,21.5132733 14.1976563,21.5188512 14.3128941,21.4579205 C14.4281319,21.3969898 14.4999444,21.2793394 14.4999444,21.1514036 L14.4999444,5.57902496 C14.5002838,5.46067303 14.439095,5.35023433 14.3374439,5.28573274 L10.0517543,2.55632834 Z M21.3092787,2.86835988 C20.8808583,2.61240679 20.3454273,2.59780482 19.9030368,2.83000964 C19.8837894,2.83965592 19.8651545,2.85042511 19.8472336,2.86225871 L16.0905588,5.25914905 C15.9892111,5.32366838 15.9282187,5.433892 15.9285037,5.55200547 L15.9285037,21.1300495 C15.9280198,21.2596327 16.0011971,21.378788 16.118508,21.4394314 C16.2358189,21.5000748 16.377906,21.4921996 16.4874315,21.4189837 L21.2673147,18.2176098 C21.7203593,17.970887 22.0007826,17.5037982 21.9998997,16.9973748 L21.9998997,4.09774673 C22.00588,3.59822291 21.7439639,3.13198134 21.3092787,2.86835988 Z" id="Combined-Shape" fill="#000000" fill-rule="nonzero"></path>
        </g>
    </g>
</svg>