<?xml version="1.0" encoding="UTF-8"?>
<svg width="24px" height="24px" viewBox="0 0 24 24" version="1.1" xmlns="http://www.w3.org/2000/svg" xmlns:xlink="http://www.w3.org/1999/xlink">
    <title>VSQUARE/4) Icons/map/map_outline</title>
    <g id="VSQUARE_Symbols" stroke="none" stroke-width="1" fill="none" fill-rule="evenodd">
        <g id="VSQUARE/4)-Icons/map/map_outline">
            <rect id="Rectangle" x="0" y="0" width="24" height="24"></rect>
            <path d="M8.78571429,2.00057431 L8.81121291,2.00000918 C9.13697605,2.00096255 9.46277383,2.07613577 9.76249768,2.22584089 C9.78505729,2.2371089 9.8070043,2.24956358 9.82824652,2.26315261 L9.82824652,2.26315261 L14.9034821,5.50990329 C15.095958,5.59407854 15.3099758,5.591517 15.4956491,5.50505833 L15.4956491,5.50505833 L15.5042857,5.50084161 L19.8470896,2.67126815 C19.8591076,2.66343754 19.8713574,2.65597159 19.8838222,2.64888019 L19.8838222,2.64888019 L19.9026786,2.63852526 C20.345496,2.40396162 20.8788519,2.41854866 21.3081841,2.67696519 C21.7374999,2.93537182 22,3.39980247 22,3.90084751 L22,3.90084751 L22,17.1014298 C22,17.6142146 21.7252696,18.0859222 21.2832969,18.3398273 L21.2832969,18.3398273 L21.2675446,18.3486882 L16.1399018,21.7218441 C16.1262227,21.7308426 16.1122403,21.7393668 16.0979795,21.747402 L16.0979795,21.747402 L16.0763827,21.7590862 C15.8498015,21.8766814 15.6074106,21.9512458 15.3607612,21.982736 C15.3134661,21.9935742 15.2644806,21.9987512 15.2142857,21.9987512 L15.1929316,21.9974897 C14.8251267,22.015301 14.4536995,21.9383355 14.1163381,21.7664516 C14.0936439,21.754889 14.0715844,21.742121 14.0502543,21.7282021 L14.0502543,21.7282021 L9.09424107,18.4942107 C8.90124489,18.4077331 8.6841948,18.4094987 8.49623473,18.4973724 L8.49623473,18.4973724 L8.48772321,18.5014422 L4.15311345,21.3279251 C4.14105297,21.3357892 4.12875883,21.343286 4.11624802,21.3504054 L4.11624802,21.3504054 L4.09732143,21.3608003 C3.65450397,21.5953639 3.12114812,21.5807769 2.6918159,21.3223604 C2.26250012,21.0639537 2,20.5995231 2,20.0984781 L2,20.0984781 L2,6.89432462 C2,6.38594475 2.26998949,5.91755115 2.70598355,5.66201948 L2.70598355,5.66201948 L2.72196429,5.65279205 L7.73817859,2.28731952 C7.75186453,2.27813742 7.76586214,2.26943309 7.78014602,2.26122171 L7.78014602,2.26122171 L7.80178339,2.24927626 C8.09965538,2.09148989 8.42571763,2.00849845 8.75337911,2.00061976 C8.76408061,2.00081598 8.77486922,2.00057431 8.78571429,2.00057431 Z M9.5,3.748 L9.50081876,17.1199883 C9.59272635,17.1518658 9.68299555,17.1901928 9.77095929,17.2349746 C9.79372476,17.2465643 9.81585202,17.259367 9.83724569,17.2733272 L9.83724569,17.2733272 L14.5,20.316 L14.5000101,6.88472127 C14.469542,6.87428749 14.4392506,6.86314616 14.4091601,6.85129701 L14.2379619,6.77508129 C14.2152408,6.76375307 14.19314,6.7512216 14.1717535,6.73754025 L14.1717535,6.73754025 L9.5,3.748 Z M20.5714286,3.90420145 L16.2520176,6.71867494 C16.2399087,6.72656473 16.2275646,6.73408431 16.2150024,6.74122357 L16.2150024,6.74122357 L16.1959976,6.75164593 C16.1092054,6.79754453 16.0200247,6.83709665 15.9291127,6.87029444 L15.928,20.151 L20.5078661,17.1386267 C20.5147101,17.1341244 20.5216302,17.1297409 20.528623,17.125478 L20.5498168,17.1130528 L20.5714286,17.1013621 L20.5714286,3.90420145 Z M8.071,3.783 L3.49217855,6.85621746 L3.49217855,6.85621746 L3.4502096,6.88231614 L3.42857143,6.89426195 L3.42857143,20.0950023 L7.7397437,17.2839077 C7.75179936,17.2760467 7.7640885,17.2685528 7.77659415,17.2614359 L7.77659415,17.2614359 L7.79551287,17.2510445 C7.88511115,17.2035795 7.97725266,17.1628852 8.07121432,17.1289674 L8.071,3.783 Z" id="Combined-Shape" fill="#000000" fill-rule="nonzero"></path>
        </g>
    </g>
</svg>