<?xml version="1.0" encoding="UTF-8"?>
<svg width="24px" height="24px" viewBox="0 0 24 24" version="1.1" xmlns="http://www.w3.org/2000/svg" xmlns:xlink="http://www.w3.org/1999/xlink">
    <title>VSQUARE/4) Icons/menu/menu</title>
    <g id="VSQUARE_Symbols" stroke="none" stroke-width="1" fill="none" fill-rule="evenodd">
        <g id="VSQUARE/4)-Icons/menu/menu">
            <rect id="Rectangle" x="0" y="0" width="24" height="24"></rect>
            <path d="M19,6.5 C19.5522847,6.5 20,6.96170635 20,7.53125 C20,8.09509821 19.5611943,8.55325509 19.0165368,8.56236184 L19,8.5625 L5,8.5625 C4.44771525,8.5625 4,8.10079365 4,7.53125 C4,6.96740179 4.43880572,6.50924491 4.98346317,6.50013816 L5,6.5 L19,6.5 Z M19,10.96875 C19.5522847,10.96875 20,11.4304564 20,12 C20,12.5638482 19.5611943,13.0220051 19.0165368,13.0311118 L19,13.03125 L5,13.03125 C4.44771525,13.03125 4,12.5695436 4,12 C4,11.4361518 4.43880572,10.9779949 4.98346317,10.9688882 L5,10.96875 L19,10.96875 Z M19,15.4375 C19.5522847,15.4375 20,15.8992064 20,16.46875 C20,17.0325982 19.5611943,17.4907551 19.0165368,17.4998618 L19,17.5 L5,17.5 C4.44771525,17.5 4,17.0382936 4,16.46875 C4,15.9049018 4.43880572,15.4467449 4.98346317,15.4376382 L5,15.4375 L19,15.4375 Z" id="Combined-Shape" fill="#000000" fill-rule="nonzero"></path>
        </g>
    </g>
</svg>