<?xml version="1.0" encoding="UTF-8"?>
<svg width="24px" height="24px" viewBox="0 0 24 24" version="1.1" xmlns="http://www.w3.org/2000/svg" xmlns:xlink="http://www.w3.org/1999/xlink">
    <title>VSQUARE/4) Icons/menu/menu_outline</title>
    <g id="VSQUARE_Symbols" stroke="none" stroke-width="1" fill="none" fill-rule="evenodd">
        <g id="VSQUARE/4)-Icons/menu/menu_outline">
            <rect id="Rectangle" x="0" y="0" width="24" height="24"></rect>
            <path d="M19.3333333,7.5 C19.7015232,7.5 20,7.78781695 20,8.14285714 C20,8.49367067 19.7085875,8.77885197 19.3464529,8.78559229 L19.3333333,8.78571429 L4.66666667,8.78571429 C4.29847683,8.78571429 4,8.49789734 4,8.14285714 C4,7.79204362 4.29141254,7.50686231 4.65354706,7.500122 L4.66666667,7.5 L19.3333333,7.5 Z M19.3333333,11.3571429 C19.7015232,11.3571429 20,11.6449598 20,12 C20,12.3508135 19.7085875,12.6359948 19.3464529,12.6427351 L19.3333333,12.6428571 L4.66666667,12.6428571 C4.29847683,12.6428571 4,12.3550402 4,12 C4,11.6491865 4.29141254,11.3640052 4.65354706,11.3572649 L4.66666667,11.3571429 L19.3333333,11.3571429 Z M19.3333333,15.2142857 C19.7015232,15.2142857 20,15.5021027 20,15.8571429 C20,16.2079564 19.7085875,16.4931377 19.3464529,16.499878 L19.3333333,16.5 L4.66666667,16.5 C4.29847683,16.5 4,16.2121831 4,15.8571429 C4,15.5063293 4.29141254,15.221148 4.65354706,15.2144077 L4.66666667,15.2142857 L19.3333333,15.2142857 Z" id="Combined-Shape" fill="#000000" fill-rule="nonzero"></path>
        </g>
    </g>
</svg>