<?xml version="1.0" encoding="UTF-8"?>
<svg width="24px" height="24px" viewBox="0 0 24 24" version="1.1" xmlns="http://www.w3.org/2000/svg" xmlns:xlink="http://www.w3.org/1999/xlink">
    <title>VSQUARE/4) Icons/mic/mic_outline</title>
    <g id="VSQUARE_Symbols" stroke="none" stroke-width="1" fill="none" fill-rule="evenodd">
        <g id="VSQUARE/4)-Icons/mic/mic_outline">
            <rect id="Rectangle" x="0" y="0" width="24" height="24"></rect>
            <path d="M17.3333333,9.23084219 C17.69714,9.23084219 17.9928835,9.53346103 17.9998735,9.90952146 L18,9.92314559 L18,11.3077524 C18,14.502305 15.6572031,17.1531639 12.6667166,17.5000362 L12.666,19.615 L14.6666667,19.6153932 C15.0348565,19.6153932 15.3333333,19.925348 15.3333333,20.3076966 C15.3333333,20.6854934 15.0419208,20.9926099 14.6797863,20.9998686 L14.6666667,21 L9.33333333,21 C8.9651435,21 8.66666667,20.6900452 8.66666667,20.3076966 C8.66666667,19.9298998 8.95807921,19.6227833 9.32021372,19.6155246 L11.333,19.615 L11.333307,17.5000389 C8.37490396,17.1569004 6.05036184,14.5589475 6.00080745,11.4104169 L6,9.92314559 C6,9.54079698 6.29847683,9.23084219 6.66666667,9.23084219 C7.03047329,9.23084219 7.32621686,9.53346103 7.33320682,9.90952146 L7.33333333,11.3077524 C7.33333333,13.9715387 9.4348565,16.1538762 12,16.1538762 C14.5394921,16.1538762 16.6245898,14.0149673 16.6660378,11.3875198 L16.6666667,9.92314559 C16.6666667,9.54079698 16.9651435,9.23084219 17.3333333,9.23084219 Z M12.002,3 L12.1854358,3.00507318 C13.9028965,3.09860354 15.2384256,4.48554411 15.3284888,6.26906085 L15.3333333,6.46162859 L15.3333333,11.2644834 C15.3333333,13.1961208 13.834556,14.7692694 12,14.7692694 C10.236279,14.7692694 8.76757228,13.2768227 8.67161819,11.4541641 L8.66663295,11.2644829 L8.66663295,6.42971235 C8.6712427,5.52173016 9.02059572,4.6521011 9.63903848,4.00987606 C10.2175371,3.40913123 10.987388,3.05312672 11.7995037,3.00549018 L12.002,3 Z M12,4.38464902 C11.4662894,4.38192621 10.9568708,4.59949604 10.5818475,4.98894092 C10.2528908,5.33054768 10.0511571,5.77968673 10.0084605,6.25432724 L9.99996628,6.4333526 L9.99996628,11.2644834 C9.99996628,12.4132963 10.9176171,13.3846626 12,13.3846626 C13.0451941,13.3846626 13.9173317,12.5191147 13.9944574,11.422627 L14,11.2644834 L14,6.46162859 C14,5.28628497 13.1318009,4.38464902 12,4.38464902 Z" id="Combined-Shape" fill="#000000" fill-rule="nonzero"></path>
        </g>
    </g>
</svg>