<?xml version="1.0" encoding="UTF-8"?>
<svg width="24px" height="24px" viewBox="0 0 24 24" version="1.1" xmlns="http://www.w3.org/2000/svg" xmlns:xlink="http://www.w3.org/1999/xlink">
    <title>VSQUARE/4) Icons/mic/mic_sharp</title>
    <g id="VSQUARE_Symbols" stroke="none" stroke-width="1" fill="none" fill-rule="evenodd">
        <g id="VSQUARE/4)-Icons/mic/mic_sharp">
            <rect id="Rectangle" x="0" y="0" width="24" height="24"></rect>
            <path d="M7.33333333,9.23080328 L7.33333333,11.3077203 C7.33333333,13.9715155 9.4348565,16.1538602 12,16.1538602 C14.5394921,16.1538602 16.6245898,14.0149442 16.6660378,11.3874881 L16.6666667,9.23080328 L18,9.23080328 L18,11.3077203 C18,14.5022835 15.6572031,17.1531511 12.6667166,17.5000246 L12.666,19.6148033 L15.3333333,19.6153886 L15.3333333,21 L8.66666667,21 L8.66666667,19.6153886 L11.333,19.6148033 L11.333307,17.5000274 C8.37490396,17.1568877 6.05036184,14.5589262 6.00080745,11.4103851 L6,9.23080328 L7.33333333,9.23080328 Z M12,3.00002585 C13.8691667,3.00002585 15.3333333,4.52052845 15.3333333,6.46158052 L15.3333333,11.2644512 C15.3333333,13.1968495 13.8379167,14.7692488 12,14.7692488 C11.1110591,14.7670866 10.2609221,14.3908487 9.64375,13.7264634 C9.0184048,13.0715354 8.66726752,12.186755 8.66664141,11.2644512 L8.66664141,6.46158052 C8.66321678,5.5424325 9.0132983,4.65989613 9.63916897,4.00995539 C10.2650396,3.36001466 11.1148919,2.99646951 12,3.00002585 Z" id="Combined-Shape" fill="#000000" fill-rule="nonzero"></path>
        </g>
    </g>
</svg>