<?xml version="1.0" encoding="UTF-8"?>
<svg width="24px" height="24px" viewBox="0 0 24 24" version="1.1" xmlns="http://www.w3.org/2000/svg" xmlns:xlink="http://www.w3.org/1999/xlink">
    <title>VSQUARE/4) Icons/mic_off/mic_off_outline</title>
    <g id="VSQUARE_Symbols" stroke="none" stroke-width="1" fill="none" fill-rule="evenodd">
        <g id="VSQUARE/4)-Icons/mic_off/mic_off_outline">
            <rect id="Rectangle" x="0" y="0" width="24" height="24"></rect>
            <path d="M6.12043478,9.23201534 C6.49478261,9.25062051 6.7826087,9.57036978 6.7826087,9.94290581 L6.7826087,9.94290581 L6.7826087,11.3080059 C6.79120033,13.9808266 8.96635413,16.1454529 11.6521739,16.1540029 C12.3499541,16.1550486 13.0396309,16.0052027 13.6734783,15.7148345 C13.7394893,15.6840819 13.817767,15.6975544 13.8695652,15.7485834 L13.8695652,15.7485834 L14.6482609,16.5235102 C14.6872059,16.5620608 14.7055604,16.6166555 14.6977681,16.6707672 C14.6899758,16.724879 14.6569527,16.7721465 14.6086957,16.7982609 C13.9071849,17.1741135 13.1396553,17.4123649 12.3478261,17.5000652 L12.3478261,17.5000652 L12.3478261,19.6154294 L14.4347826,19.6154294 C14.6250797,19.6154467 14.8070623,19.6930428 14.9383386,19.8301423 C15.069615,19.9672417 15.1387233,20.1518742 15.1295652,20.3410309 C15.1108696,20.713567 14.7895652,21 14.4152174,21 L14.4152174,21 L8.86956522,21 C8.67926808,21 8.49728551,20.9223866 8.36600919,20.7852872 C8.23473286,20.6481877 8.16562456,20.4635552 8.17478261,20.2743985 C8.19347826,19.9018625 8.51478261,19.6154294 8.88913043,19.6154294 L8.88913043,19.6154294 L10.9565217,19.6154294 L10.9565217,17.5000652 C7.83043478,17.1543552 5.39130435,14.5098254 5.39130435,11.3080059 L5.39130435,11.3080059 L5.39130435,9.92343528 C5.39130435,9.73405916 5.46929523,9.55295737 5.60706144,9.42231641 C5.74482764,9.29167545 5.93035814,9.22290162 6.12043478,9.23201534 Z M5.17613622,3.1922397 L5.18755254,3.203348 L19.7962482,17.7413392 C20.0679173,18.0116934 20.0679173,18.4500242 19.7962482,18.7203784 C19.5283523,18.9869778 19.096319,18.9906805 18.8238638,18.7314868 L18.8124475,18.7203784 L4.2037518,4.18238726 C3.93208273,3.91203303 3.93208273,3.47370223 4.2037518,3.203348 C4.4716477,2.9367487 4.90368096,2.93304593 5.17613622,3.1922397 Z M8.22744144,10.2077958 C8.25987758,10.194354 8.29725514,10.201659 8.32217391,10.2263101 L8.32217391,10.2263101 L9.53347826,11.4334826 C9.56096738,11.4609016 9.57842,11.4967044 9.58304348,11.535162 C9.70869565,12.4866216 10.483913,13.2619811 11.4252174,13.3710161 C11.4649184,13.375342 11.5019909,13.3928738 11.5304348,13.4207741 L11.5304348,13.4207741 L12.6134783,14.4985757 C12.6355554,14.5202069 12.6444,14.5518937 12.6366963,14.5817572 C12.6289926,14.6116206 12.6059042,14.6351495 12.576087,14.643523 C11.3649237,14.9810885 10.0653406,14.6288406 9.19347826,13.7266776 C8.54094414,13.071769 8.17454002,12.1870146 8.17391302,11.264738 L8.17391302,11.264738 L8.17391302,10.2877504 C8.17391302,10.2527844 8.1950053,10.2212376 8.22744144,10.2077958 Z M17.2508696,9.23201534 C17.6252174,9.25062051 17.9130456,9.57036978 17.9130456,9.94290581 L17.9130456,9.94290581 L17.9130456,11.3080059 C17.9136306,12.0169477 17.7920119,12.7207364 17.5534783,13.3887559 C17.5431939,13.4164126 17.5194647,13.4369536 17.4905167,13.443258 C17.4615686,13.4495625 17.4313871,13.4407625 17.4104348,13.4199087 L17.4104348,13.4199087 L16.4617391,12.4762373 C16.4202387,12.4341899 16.402758,12.3741976 16.4152174,12.316579 C16.4862063,11.9850418 16.5219105,11.6469862 16.5217391,11.3080059 L16.5217391,11.3080059 L16.5217391,9.92343528 C16.5217565,9.73405916 16.59973,9.55295737 16.7374962,9.42231641 C16.8752624,9.29167545 17.0607929,9.22290162 17.2508696,9.23201534 Z M11.7017391,3.00058233 C13.6086957,3.02654303 15.1304348,4.60149208 15.1304348,6.50138253 L15.1304348,6.50138253 L15.1304348,10.9436907 C15.1304348,10.9786568 15.1093425,11.0102036 15.0769064,11.0236454 C15.0444702,11.0370871 15.0070927,11.0297821 14.9821739,11.0051311 L14.9821739,11.0051311 L13.79,9.81699642 C13.7574997,9.78461753 13.7392093,9.74074637 13.7391304,9.69498114 L13.7391304,9.69498114 L13.7391304,6.46200881 C13.7488884,5.90827254 13.5321481,5.37435523 13.1386327,4.98274436 C12.7451172,4.59113349 12.2086032,4.37544223 11.6521739,4.38515292 C10.8236674,4.37624812 10.0702246,4.8615708 9.73913043,5.61742075 C9.72778513,5.64379626 9.70404133,5.66286118 9.67573823,5.66832107 C9.64743513,5.67378096 9.61825283,5.66492591 9.59782609,5.64467948 L9.59782609,5.64467948 L8.74826087,4.79922607 C8.69016384,4.74163882 8.68038047,4.65149049 8.72478261,4.58288691 C9.3742784,3.57744472 10.5008519,2.97865113 11.7017391,3.00058233 Z" id="Combined-Shape" fill="#000000" fill-rule="nonzero"></path>
        </g>
    </g>
</svg>