<?xml version="1.0" encoding="UTF-8"?>
<svg width="24px" height="24px" viewBox="0 0 24 24" version="1.1" xmlns="http://www.w3.org/2000/svg" xmlns:xlink="http://www.w3.org/1999/xlink">
    <title>VSQUARE/4) Icons/mic_off/mic_off_sharp</title>
    <g id="VSQUARE_Symbols" stroke="none" stroke-width="1" fill="none" fill-rule="evenodd">
        <g id="VSQUARE/4)-Icons/mic_off/mic_off_sharp">
            <rect id="Rectangle" x="0" y="0" width="24" height="24"></rect>
            <path d="M6.96399828,9.41532801 L6.96399828,11.4596819 C6.96789365,13.1020124 7.80303794,14.6270941 9.17523435,15.4976856 C10.5474308,16.368277 12.2641468,16.4622258 13.7206339,15.7464364 L13.7206339,15.7464364 L14.7131459,16.7528548 C13.9850374,17.1868203 13.174944,17.4600926 12.3357334,17.5548378 L12.3357334,17.5548378 L12.3357334,19.6370974 L15.021601,19.6370974 L15.021601,21 L8.30693207,21 L8.30693207,19.6370974 L10.9927997,19.6370974 L10.9927997,17.5548378 C7.97539529,17.2145381 5.62106449,14.6113941 5.62106449,11.4596819 L5.62106449,11.4596819 L5.62106449,9.41532801 L6.96399828,9.41532801 Z M4.94959759,3 L20,18.2741948 L19.0504024,19.2379125 L4,3.96371766 L4.94959759,3 Z M8.30693207,10.2513836 L12.6903519,14.7012605 C11.4883645,15.0997508 10.1676982,14.7653366 9.29105074,13.8405023 C8.66120284,13.1958428 8.30753725,12.3249345 8.30693207,11.4170912 L8.30693207,11.4170912 L8.30693207,10.2513836 Z M17.707471,9.41532801 L17.707471,11.4596819 C17.7081209,12.2019348 17.5751414,12.9380631 17.3150801,13.6318079 L17.3150801,13.6318079 L16.2415724,12.5436154 C16.3233705,12.1882832 16.3646291,11.8245824 16.3645348,11.4596819 L16.3645348,11.4596819 L16.3645348,9.41532801 L17.707471,9.41532801 Z M11.6642666,3.28224443 C13.5468919,3.28224443 15.021601,4.77890377 15.021601,6.68952284 L15.021601,6.68952284 L15.021601,11.3050776 L8.76856556,4.95778474 C9.37116912,3.91604934 10.4739901,3.27793207 11.6642666,3.28224443 Z" id="Combined-Shape" fill="#000000" fill-rule="nonzero"></path>
        </g>
    </g>
</svg>