<?xml version="1.0" encoding="UTF-8"?>
<svg width="24px" height="24px" viewBox="0 0 24 24" version="1.1" xmlns="http://www.w3.org/2000/svg" xmlns:xlink="http://www.w3.org/1999/xlink">
    <title>VSQUARE/4) Icons/navigate_circle/navigate_circle_outline</title>
    <g id="VSQUARE_Symbols" stroke="none" stroke-width="1" fill="none" fill-rule="evenodd">
        <g id="VSQUARE/4)-Icons/navigate_circle/navigate_circle_outline">
            <rect id="Rectangle" x="0" y="0" width="24" height="24"></rect>
            <path d="M12,3 C16.9688894,3 21,7.03111056 21,12 C21,16.9688894 16.9688894,21 12,21 C7.03111056,21 3,16.9688894 3,12 C3,7.03111056 7.03111056,3 12,3 Z M12,4.38461538 C7.79581252,4.38461538 4.38461538,7.79581252 4.38461538,12 C4.38461538,16.2041875 7.79581252,19.6153846 12,19.6153846 C16.2041875,19.6153846 19.6153846,16.2041875 19.6153846,12 C19.6153846,7.79581252 16.2041875,4.38461538 12,4.38461538 Z M15.4944231,7.88942308 C15.6710497,7.8078581 15.8797984,7.84506601 16.0173662,7.98263382 C16.154934,8.12020162 16.1921419,8.32895032 16.1105769,8.50557692 L16.1105769,8.50557692 L12.5529808,16.5761538 C12.3461538,17.0278846 11.6538462,16.8773077 11.6538462,16.3788462 L11.6538462,16.3788462 L11.6538462,12.5200962 C11.6538462,12.4245084 11.576357,12.3470192 11.4807692,12.3470192 L11.4807692,12.3470192 L7.62115385,12.3470192 C7.12269231,12.3470192 6.97038462,11.6603365 7.42341346,11.4526442 L7.42341346,11.4526442 Z" id="Combined-Shape" fill="#000000" fill-rule="nonzero"></path>
        </g>
    </g>
</svg>