<?xml version="1.0" encoding="UTF-8"?>
<svg width="24px" height="24px" viewBox="0 0 24 24" version="1.1" xmlns="http://www.w3.org/2000/svg" xmlns:xlink="http://www.w3.org/1999/xlink">
    <title>VSQUARE/4) Icons/navigate/navigate</title>
    <g id="VSQUARE_Symbols" stroke="none" stroke-width="1" fill="none" fill-rule="evenodd">
        <g id="VSQUARE/4)-Icons/navigate/navigate">
            <rect id="Rectangle" x="0" y="0" width="24" height="24"></rect>
            <path d="M12.6538892,20.5 C12.4774599,20.5 12.3084934,20.4288216 12.1853655,20.3024625 C12.0622377,20.1761033 11.9953992,20.0053491 12.0000304,19.8289817 L12.0000304,12.3321303 C12.0000304,12.1515733 11.8536592,12.005203 11.673101,12.005203 L4.17047982,12.005203 C3.88868324,12.0085404 3.6352407,11.8342896 3.53746276,11.569981 C3.42483488,11.2511638 3.57386204,10.899065 3.8811473,10.7579754 L19.5737588,3.55944507 C19.8220471,3.44568236 20.1148884,3.49822119 20.308143,3.69120137 C20.5013977,3.88418155 20.5543511,4.17694637 20.440939,4.42539373 L13.2484921,20.1179037 C13.1421361,20.3506472 12.9097835,20.5 12.6538892,20.5 Z" id="Path" fill="#000000" fill-rule="nonzero"></path>
        </g>
    </g>
</svg>