<?xml version="1.0" encoding="UTF-8"?>
<svg width="24px" height="24px" viewBox="0 0 24 24" version="1.1" xmlns="http://www.w3.org/2000/svg" xmlns:xlink="http://www.w3.org/1999/xlink">
    <title>VSQUARE/4) Icons/navigate_circle/navigate_circle</title>
    <g id="VSQUARE_Symbols" stroke="none" stroke-width="1" fill="none" fill-rule="evenodd">
        <g id="VSQUARE/4)-Icons/navigate_circle/navigate_circle">
            <rect id="Rectangle" x="0" y="0" width="24" height="24"></rect>
            <path d="M12.125897,3.00083619 C7.06449535,2.93247724 2.93247399,7.0643 3.00083623,12.1254584 C3.06833312,16.9793767 7.02079544,20.931649 11.874947,20.9991427 C16.937214,21.0683669 21.06837,16.9365442 20.9991424,11.8753858 C20.9325109,7.02060219 16.9800486,3.06832984 12.125897,3.00083619 Z M16.1108097,8.50589512 L12.552512,16.5757127 C12.3452619,17.0286989 11.6534187,16.8785688 11.6534187,16.3784236 L11.6534187,12.5191713 C11.6534187,12.4235926 11.5759331,12.3461107 11.4803498,12.3461107 L7.62177739,12.3461107 C7.12333879,12.3461107 6.9727688,11.6594926 7.42404611,11.4518199 L15.4946843,7.88979925 C15.6713027,7.80824194 15.8800418,7.84544635 16.0176033,7.98300122 C16.1551648,8.12055608 16.192371,8.32928513 16.1108097,8.50589512 L16.1108097,8.50589512 Z" id="Shape" fill="#000000" fill-rule="nonzero"></path>
        </g>
    </g>
</svg>