<?xml version="1.0" encoding="UTF-8"?>
<svg width="24px" height="24px" viewBox="0 0 24 24" version="1.1" xmlns="http://www.w3.org/2000/svg" xmlns:xlink="http://www.w3.org/1999/xlink">
    <title>VSQUARE/4) Icons/newspaper/newspaper_outline</title>
    <g id="VSQUARE_Symbols" stroke="none" stroke-width="1" fill="none" fill-rule="evenodd">
        <g id="VSQUARE/4)-Icons/newspaper/newspaper_outline">
            <rect id="Rectangle" x="0" y="0" width="24" height="24"></rect>
            <path d="M15.9306457,2 C16.9046964,2.00283164 17.695469,2.78389202 17.7139623,3.7561927 L17.7142857,3.78571429 L17.714,5.571 L20.2142857,5.57142857 C21.1511973,5.57142857 21.919584,6.29296967 21.9940804,7.21068652 L22,7.35714286 L22,19.1428571 C22,20.7032443 20.7481402,21.9743541 19.1898727,21.9996191 L19.1898727,21.9996191 L19.1428571,22 L19.1428571,22 L4.49786674,22 C3.13382111,21.995923 2.02646285,20.9021644 2.00045624,19.5413187 L2,3.78364002 C2.00283164,2.80958932 2.78389202,2.01881671 3.7561927,2.00032341 L15.9306457,2 Z M15.9396314,3.4287738 L3.78778855,3.42856842 C3.59337432,3.42913299 3.43521355,3.58363623 3.4287738,3.77465433 L3.42856824,19.4978667 C3.43031915,20.0841244 3.90040924,20.5600596 4.48233211,20.5712326 L16.6681572,20.5717882 C16.4249284,20.1514592 16.2857143,19.6634158 16.2857143,19.1428571 L16.2857143,19.1428571 L16.2857173,3.78778855 C16.2851527,3.59337432 16.1306495,3.43521355 15.9396314,3.4287738 Z M20.2142857,7 L17.7142857,7 L17.7142857,19.1428571 C17.7142857,19.9318354 18.3538789,20.5714286 19.1428571,20.5714286 L19.1428571,20.5714286 L19.1667411,20.5712054 L19.1900291,20.5706702 C19.9501385,20.5461331 20.5590182,19.9278706 20.5712412,19.1662174 L20.5712412,19.1662174 L20.5714286,7.35714286 C20.5714286,7.1598983 20.4115303,7 20.2142857,7 L20.2142857,7 Z M14.1428571,17 C14.5373462,17 14.8571429,17.3197966 14.8571429,17.7142857 C14.8571429,18.1040785 14.5449151,18.4209466 14.1569139,18.4284359 L5.57142857,18.4285714 C5.17693946,18.4285714 4.85714286,18.1087748 4.85714286,17.7142857 C4.85714286,17.3244929 5.16937058,17.0076248 5.55737185,17.0001356 L14.1428571,17 Z M14.1428571,14.1428571 C14.5373462,14.1428571 14.8571429,14.4626538 14.8571429,14.8571429 C14.8571429,15.2469357 14.5449151,15.5638038 14.1569139,15.571293 L5.57142857,15.5714286 C5.17693946,15.5714286 4.85714286,15.251632 4.85714286,14.8571429 C4.85714286,14.46735 5.16937058,14.1504819 5.55737185,14.1429927 L14.1428571,14.1428571 Z M14.1428571,11.2857143 C14.5373462,11.2857143 14.8571429,11.6055109 14.8571429,12 C14.8571429,12.3897928 14.5449151,12.7066609 14.1569139,12.7141502 L5.57142857,12.7142857 C5.17693946,12.7142857 4.85714286,12.3944891 4.85714286,12 C4.85714286,11.6102072 5.16937058,11.2933391 5.55737185,11.2858498 L14.1428571,11.2857143 Z M14.1428571,8.42857143 C14.5373462,8.42857143 14.8571429,8.74836804 14.8571429,9.14285714 C14.8571429,9.53264995 14.5449151,9.84951807 14.1569139,9.8570073 L11.2857143,9.85714286 C10.8912252,9.85714286 10.5714286,9.53734625 10.5714286,9.14285714 C10.5714286,8.75306433 10.8836563,8.43619622 11.2716576,8.42870698 L14.1428571,8.42857143 Z M8.42857143,5.57142857 C8.82306054,5.57142857 9.14285714,5.89122518 9.14285714,6.28571429 L9.14285714,9.14285714 C9.14285714,9.53734625 8.82306054,9.85714286 8.42857143,9.85714286 L5.57142857,9.85714286 C5.17693946,9.85714286 4.85714286,9.53734625 4.85714286,9.14285714 L4.85714286,6.28571429 C4.85714286,5.89122518 5.17693946,5.57142857 5.57142857,5.57142857 L8.42857143,5.57142857 Z M14.1428571,5.57142857 C14.5373462,5.57142857 14.8571429,5.89122518 14.8571429,6.28571429 C14.8571429,6.67550709 14.5449151,6.99237521 14.1569139,6.99986445 L14.1428571,7 L11.2857143,7 C10.8912252,7 10.5714286,6.68020339 10.5714286,6.28571429 C10.5714286,5.89592148 10.8836563,5.57905336 11.2716576,5.57156413 L14.1428571,5.57142857 Z" id="Combined-Shape" fill="#000000" fill-rule="nonzero"></path>
        </g>
    </g>
</svg>