<?xml version="1.0" encoding="UTF-8"?>
<svg width="24px" height="24px" viewBox="0 0 24 24" version="1.1" xmlns="http://www.w3.org/2000/svg" xmlns:xlink="http://www.w3.org/1999/xlink">
    <title>VSQUARE/4) Icons/newspaper/newspaper_sharp</title>
    <g id="VSQUARE_Symbols" stroke="none" stroke-width="1" fill="none" fill-rule="evenodd">
        <g id="VSQUARE/4)-Icons/newspaper/newspaper_sharp">
            <rect id="Rectangle" x="0" y="0" width="24" height="24"></rect>
            <path d="M17.1785714,2 C17.4744383,2 17.7142857,2.23984657 17.7142857,2.53571232 L17.7142857,2.53571232 L17.7142857,19.1427941 C17.715812,20.4306021 18.5772631,21.5587975 19.8191964,21.8994804 C19.8447796,21.9053803 19.8616761,21.9297732 19.8582062,21.9557975 C19.8547362,21.9818219 19.8320389,22.0009356 19.8058036,21.9999646 L19.8058036,21.9999646 L4.5,21.9999646 C3.11928813,21.9999646 2,20.8806424 2,19.4999356 L2,19.4999356 L2,2.53571232 C2,2.23984657 2.23984746,2 2.53571429,2 L2.53571429,2 Z M21.4642857,5.57141544 C21.7601525,5.57141544 22,5.81126201 22,6.10712775 L22,6.10712775 L22,19.1427941 C22,19.9317694 21.3604068,20.5713603 20.5714286,20.5713603 L20.5714286,20.5713603 L20.4338476,20.5648207 C19.7094172,20.4955974 19.1428571,19.8853591 19.1428571,19.1427941 L19.1428571,19.1427941 L19.1428571,5.57141544 Z M14.8571429,16.9999448 L4.85714286,16.9999448 L4.85714286,18.428511 L14.8571429,18.428511 L14.8571429,16.9999448 Z M14.8571429,14.1428125 L4.85714286,14.1428125 L4.85714286,15.5713787 L14.8571429,15.5713787 L14.8571429,14.1428125 Z M14.8571429,11.2856801 L4.85714286,11.2856801 L4.85714286,12.7142463 L14.8571429,12.7142463 L14.8571429,11.2856801 Z M9.14285714,5.57141544 L4.85714286,5.57141544 L4.85714286,9.85711396 L9.14285714,9.85711396 L9.14285714,5.57141544 Z M14.8571429,8.42854778 L10.5714286,8.42854778 L10.5714286,9.85711396 L14.8571429,9.85711396 L14.8571429,8.42854778 Z M14.8571429,5.57141544 L10.5714286,5.57141544 L10.5714286,6.99998161 L14.8571429,6.99998161 L14.8571429,5.57141544 Z" id="Combined-Shape" fill="#000000" fill-rule="nonzero"></path>
        </g>
    </g>
</svg>