<?xml version="1.0" encoding="UTF-8"?>
<svg width="24px" height="24px" viewBox="0 0 24 24" version="1.1" xmlns="http://www.w3.org/2000/svg" xmlns:xlink="http://www.w3.org/1999/xlink">
    <title>VSQUARE/4) Icons/newspaper/newspaper</title>
    <g id="VSQUARE_Symbols" stroke="none" stroke-width="1" fill="none" fill-rule="evenodd">
        <g id="VSQUARE/4)-Icons/newspaper/newspaper">
            <rect id="Rectangle" x="0" y="0" width="24" height="24"></rect>
            <path d="M15.9285714,2 C16.4021723,2 16.8563757,2.18813721 17.1912621,2.52302361 C17.5261485,2.85791 17.7142857,3.31211341 17.7142857,3.78571429 L17.7142857,3.78571429 L17.7142857,19.1428571 C17.715812,20.4306699 18.5772631,21.5588694 19.8191964,21.8995536 C19.841517,21.9054247 19.8571448,21.925581 19.8571448,21.9486607 L19.8571448,21.9486607 L19.8533121,21.9683776 L19.8533121,21.9683776 L19.8422387,21.9850958 C19.8325845,21.99475 19.8194561,22 19.8058036,22 L19.8058036,22 L4.5,22 C3.11928813,22 2,20.8807119 2,19.5 L2,19.5 L2,3.78571429 C2,2.79949152 2.79949152,2 3.78571429,2 L3.78571429,2 Z M20.2102679,5.57142857 C21.1987096,5.57142857 22,6.37271895 22,7.36116071 L22,7.36116071 L22,19.1428571 C22,19.9318354 21.3604068,20.5714286 20.5714286,20.5714286 L20.5714286,20.5714286 L20.4338476,20.564889 C19.7094172,20.4956654 19.1428571,19.8854249 19.1428571,19.1428571 L19.1428571,19.1428571 L19.1428571,5.57544643 C19.1428571,5.57322743 19.144656,5.57142857 19.146875,5.57142857 L19.146875,5.57142857 Z M14.1227679,17 L5.57142857,17 C5.37603419,17.0000178 5.18917709,17.0800799 5.05438443,17.2215363 C4.91959178,17.3629927 4.84863236,17.5534927 4.85803571,17.7486607 C4.87723214,18.1330357 5.20714286,18.4285714 5.59151786,18.4285714 L5.59151786,18.4285714 L14.1428571,18.4285714 C14.3382515,18.4285536 14.5251086,18.3484915 14.6599013,18.2070351 C14.7946939,18.0655788 14.8656534,17.8750787 14.85625,17.6799107 C14.8370536,17.2955357 14.5071429,17 14.1227679,17 L14.1227679,17 Z M14.1227679,14.1428571 L5.57142857,14.1428571 C5.37603419,14.142875 5.18917709,14.2229371 5.05438443,14.3643934 C4.91959178,14.5058498 4.84863236,14.6963499 4.85803571,14.8915179 C4.87723214,15.2758929 5.20714286,15.5714286 5.59151786,15.5714286 L5.59151786,15.5714286 L14.1428571,15.5714286 C14.3382515,15.5714107 14.5251086,15.4913486 14.6599013,15.3498923 C14.7946939,15.2084359 14.8656534,15.0179358 14.85625,14.8227679 C14.8370536,14.4383929 14.5071429,14.1428571 14.1227679,14.1428571 L14.1227679,14.1428571 Z M14.1227679,11.2857143 L5.57142857,11.2857143 C5.37603419,11.2857321 5.18917709,11.3657942 5.05438443,11.5072506 C4.91959178,11.648707 4.84863236,11.839207 4.85803571,12.034375 C4.87723214,12.41875 5.20714286,12.7142857 5.59151786,12.7142857 L5.59151786,12.7142857 L14.1428571,12.7142857 C14.3382515,12.7142679 14.5251086,12.6342058 14.6599013,12.4927494 C14.7946939,12.351293 14.8656534,12.160793 14.85625,11.965625 C14.8370536,11.58125 14.5071429,11.2857143 14.1227679,11.2857143 L14.1227679,11.2857143 Z M8.42857143,5.57142857 L5.57142857,5.57142857 C5.17693946,5.57142857 4.85714286,5.89122518 4.85714286,6.28571429 L4.85714286,6.28571429 L4.85714286,9.14285714 C4.85714286,9.53734625 5.17693946,9.85714286 5.57142857,9.85714286 L5.57142857,9.85714286 L8.42857143,9.85714286 C8.82306054,9.85714286 9.14285714,9.53734625 9.14285714,9.14285714 L9.14285714,9.14285714 L9.14285714,6.28571429 C9.14285714,5.89122518 8.82306054,5.57142857 8.42857143,5.57142857 L8.42857143,5.57142857 Z M14.1227679,8.42857143 L11.2857143,8.42857143 C11.0903199,8.42858927 10.9034628,8.50865135 10.7686701,8.65010773 C10.6338775,8.7915641 10.5629181,8.98206416 10.5723214,9.17723214 C10.5915179,9.56160714 10.9214286,9.85714286 11.3058036,9.85714286 L11.3058036,9.85714286 L14.1428571,9.85714286 C14.3382515,9.85712501 14.5251086,9.77706293 14.6599013,9.63560656 C14.7946939,9.49415019 14.8656534,9.30365013 14.85625,9.10848214 C14.8370536,8.72410714 14.5071429,8.42857143 14.1227679,8.42857143 L14.1227679,8.42857143 Z M14.1227679,5.57142857 L11.2857143,5.57142857 C11.0903199,5.57144641 10.9034628,5.6515085 10.7686701,5.79296487 C10.6338775,5.93442124 10.5629181,6.1249213 10.5723214,6.32008929 C10.5915179,6.70446429 10.9214286,7 11.3058036,7 L11.3058036,7 L14.1428571,7 C14.3382515,6.99998216 14.5251086,6.91992007 14.6599013,6.7784637 C14.7946939,6.63700733 14.8656534,6.44650727 14.85625,6.25133929 C14.8370536,5.86696429 14.5071429,5.57142857 14.1227679,5.57142857 L14.1227679,5.57142857 Z" id="Combined-Shape" fill="#000000" fill-rule="nonzero"></path>
        </g>
    </g>
</svg>