<?xml version="1.0" encoding="UTF-8"?>
<svg width="24px" height="24px" viewBox="0 0 24 24" version="1.1" xmlns="http://www.w3.org/2000/svg" xmlns:xlink="http://www.w3.org/1999/xlink">
    <title>VSQUARE/4) Icons/notifications_off/notifications_off_sharp</title>
    <g id="VSQUARE_Symbols" stroke="none" stroke-width="1" fill="none" fill-rule="evenodd">
        <g id="VSQUARE/4)-Icons/notifications_off/notifications_off_sharp">
            <rect id="Rectangle" x="0" y="0" width="24" height="24"></rect>
            <path d="M14.9029807,19.0714286 C14.3984547,20.2418842 13.2592459,20.998722 12.0000526,21 C10.7408593,20.998722 9.60165046,20.2418842 9.09712451,19.0714286 L9.09712451,19.0714286 Z M4.39612229,3.3765487 L20.5,19.714314 L19.6038777,20.6234513 L3.5,4.28568599 L4.39612229,3.3765487 Z M6.45043033,9.09709821 L15.0146622,17.7857143 L4.39620278,17.7857143 L4.39620278,15.8571429 L6.29716523,13.2857143 L6.29716523,10.8537054 C6.29452891,10.2646181 6.3458377,9.67655595 6.45043033,9.09709821 L6.45043033,9.09709821 Z M13.584188,3 L13.901015,4.92857143 C16.6193914,5.55575893 17.70294,8.02232143 17.70294,10.8537054 L17.70294,10.8537054 L17.70294,13.2857143 L19.6039024,15.8571429 L19.6058826,16.9889732 L8.43772816,5.65861607 C8.93903709,5.30721857 9.50351564,5.05917236 10.0990901,4.92857143 L10.0990901,4.92857143 L10.4159172,3 L13.584188,3 Z" id="Combined-Shape" fill="#000000" fill-rule="nonzero"></path>
        </g>
    </g>
</svg>