<?xml version="1.0" encoding="UTF-8"?>
<svg width="24px" height="24px" viewBox="0 0 24 24" version="1.1" xmlns="http://www.w3.org/2000/svg" xmlns:xlink="http://www.w3.org/1999/xlink">
    <title>VSQUARE/4) Icons/notifications_off/notifications_off_outline</title>
    <g id="VSQUARE_Symbols" stroke="none" stroke-width="1" fill="none" fill-rule="evenodd">
        <g id="VSQUARE/4)-Icons/notifications_off/notifications_off_outline">
            <rect id="Rectangle" x="0" y="0" width="24" height="24"></rect>
            <path d="M6.8293382,9.29272277 C7.18550455,9.31379054 7.45787328,9.61141459 7.44338703,9.96039025 L7.44273816,9.9730258 C7.4346188,10.1057145 7.43003544,10.2432952 7.42901647,10.3857485 L7.42862751,10.5394623 L7.42811531,10.6307323 L7.42606304,10.810033 L7.42452148,10.8980849 L7.42263531,10.9850853 L7.42040378,11.0710448 C7.42000304,11.0852853 7.41958788,11.0994828 7.41915828,11.1136376 L7.41640732,11.1980557 L7.41330914,11.2814596 L7.409863,11.3638598 C7.4092596,11.3775101 7.40864168,11.3911191 7.40800921,11.4046868 L7.40403972,11.4856014 L7.39972041,11.5655389 L7.39505052,11.6445099 L7.39002932,11.722525 L7.38465605,11.7995948 L7.37892998,11.87573 C7.37794619,11.8883419 7.37694767,11.9009153 7.37593441,11.9134505 L7.36967773,11.9882037 L7.36306638,12.0620488 L7.35609961,12.1349965 L7.34877668,12.2070573 L7.34109685,12.278242 L7.33305937,12.3485611 L7.32466349,12.4180252 L7.31590847,12.486645 L7.31139604,12.5206416 L7.31139604,12.5206416 L7.30210092,12.5880148 L7.2824269,12.7203185 L7.27204653,12.7852703 L7.26130291,12.8494362 L7.25019531,12.9128267 L7.24450478,12.9442346 L7.24450478,12.9442346 L7.23284981,13.0064822 C7.23087685,13.0167941 7.22888864,13.0270748 7.22688518,13.0373246 L7.21468116,13.098453 L7.20844158,13.1287418 L7.20844158,13.1287418 L7.19568683,13.1887751 L7.18917147,13.2185223 L7.18917147,13.2185223 L7.17586432,13.2774842 C7.17361572,13.2872525 7.17135173,13.2969916 7.16907234,13.3067017 L7.15521111,13.3646163 C7.15287007,13.3742114 7.15051359,13.3837779 7.14814167,13.3933161 L7.13372468,13.4502072 L7.11893626,13.5064292 C7.1139448,13.5250596 7.1088913,13.5435802 7.10377566,13.5619928 L7.08824213,13.6169087 L7.07233493,13.6711873 C7.06697017,13.6891752 7.061543,13.7070586 7.05605331,13.7248394 C6.83804605,14.4309519 6.54115055,14.9512995 6.0555208,15.561157 L6.01217519,15.6151298 L5.91053669,15.7387496 L5.56028102,16.1586042 L5.48965385,16.2426161 L5.4865115,16.2465783 C5.40830931,16.3490832 5.48498716,16.4946909 5.68042416,16.4998585 L5.69120192,16.5 L9.37043697,16.5001482 C9.375151,16.5000495 9.37987731,16.5 9.38461538,16.5 L9.398,16.5 L14.6012062,16.5001482 C14.6059202,16.5000495 14.6106465,16.5 14.6153846,16.5 L14.7,16.505 L14.7120052,16.5069702 C14.7257137,16.5089666 14.7392834,16.5113812 14.7527006,16.5142006 C14.7916537,16.5224113 14.8289388,16.5338768 14.8646345,16.5483596 C14.9432334,16.5802639 15.0140467,16.6267239 15.0736725,16.6843398 C15.105653,16.7152166 15.1345735,16.7495273 15.1596915,16.7865452 C15.1822927,16.8206299 15.198564,16.849932 15.2124786,16.8804976 C15.22304,16.9036129 15.2325164,16.9282838 15.2404426,16.9536222 C15.2445885,16.966834 15.2484433,16.9807684 15.2518251,16.9948823 C15.2554814,17.0101771 15.2585287,17.025354 15.2610226,17.0407123 C15.2630392,17.0531213 15.264702,17.0657222 15.2659883,17.078432 C15.2677009,17.0952558 15.2687619,17.1126447 15.2691067,17.1302061 L15.2692308,17.7857143 C15.2692308,19.5609153 13.8055463,21 12,21 C10.2125092,21 8.76007711,19.5895531 8.73120721,17.8388684 L8.73076923,17.7857143 L5.69120192,17.7857143 C4.41653714,17.7857143 3.69338796,16.4171469 4.45470608,15.4565727 L4.48080287,15.4246172 L4.73206578,15.1246203 L4.93789714,14.8768598 L5.00340075,14.7966541 L5.04788893,14.7407914 C5.05518087,14.7315565 5.06241197,14.7223582 5.06958304,14.7131948 L5.11189536,14.6586186 C5.45166711,14.2161007 5.65113978,13.8488907 5.80474187,13.3513827 L5.81155412,13.3291156 L5.82495799,13.2840762 C5.82716744,13.2765131 5.82936464,13.2689217 5.83154956,13.2613016 L5.8445119,13.2152362 C5.8487836,13.1997656 5.8530062,13.184179 5.85717968,13.1684747 L5.86955275,13.1210072 L5.87562871,13.0970058 L5.87562871,13.0970058 L5.8875594,13.0484613 C5.88952326,13.04031 5.89147482,13.0321282 5.89341408,13.0239159 L5.90490203,12.9742724 L5.91609462,12.9238843 C5.91793543,12.9154236 5.91976392,12.9069315 5.9215801,12.8984078 L5.93232934,12.8468842 L5.94278282,12.7945916 C5.94450041,12.7858115 5.94620567,12.776999 5.9478986,12.7681538 L5.95790812,12.7146893 C5.9595517,12.7057127 5.96118294,12.6967031 5.96280183,12.6876602 L5.97236704,12.6330019 L5.99060807,12.5212519 C5.99207872,12.5118025 5.993537,12.5023187 5.99498292,12.4928003 L6.00350999,12.4352716 L6.01967303,12.3176787 L6.03101498,12.2272269 L6.04509608,12.1035529 L6.05168992,12.0403775 L6.05798573,11.976297 L6.06398336,11.9113016 L6.06968264,11.8453815 L6.0750834,11.7785271 L6.0776718,11.7447465 L6.0776718,11.7447465 L6.0826245,11.6764723 L6.08727829,11.6072395 L6.091633,11.5370383 L6.10121027,11.3572349 L6.10451695,11.2835678 L6.11023075,11.1331876 C6.1106569,11.1204851 6.11107054,11.1077396 6.11147168,11.0949509 L6.11372835,11.0176989 L6.11568466,10.9394007 L6.11734043,10.8600467 L6.11974976,10.6981321 L6.12050299,10.6155521 L6.12095505,10.5318774 L6.12110577,10.4470982 C6.12110577,10.2573854 6.12652508,10.0736336 6.13740607,9.89581349 C6.15909213,9.5414141 6.4688807,9.27140118 6.8293382,9.29272277 Z M4.60545496,3.82083045 L4.6161852,3.83114564 L20.3084929,19.2597171 C20.5638357,19.5107684 20.5638357,19.917803 20.3084929,20.1688544 C20.0566965,20.4164189 19.6506268,20.4198573 19.394545,20.1791695 L19.3838148,20.1688544 L3.6915071,4.74028293 C3.4361643,4.4892316 3.4361643,4.08219697 3.6915071,3.83114564 C3.94330348,3.58358113 4.34937321,3.58014274 4.60545496,3.82083045 Z M13.961,17.785 L10.0384615,17.7857143 C10.0384615,18.8508349 10.9166722,19.7142857 12,19.7142857 C13.0724945,19.7142857 13.9439537,18.8680175 13.9612757,17.8176067 L13.961,17.785 Z M12,3 C13.1398894,3 14.0729605,3.82446963 14.4167209,4.93106681 L14.4221731,4.94902232 L14.4282351,4.95576153 C14.4389845,4.96678678 14.4513891,4.97525817 14.4555823,4.97695206 C15.3969838,5.35789355 16.1547808,5.86865576 16.7468734,6.62976502 C17.4782431,7.56990895 17.8717955,8.81141486 17.8795934,10.3969378 L17.8798614,10.5296993 L17.8803109,10.6132098 L17.8810598,10.6956305 L17.8834553,10.8572406 L17.8851016,10.9364494 L17.8870466,11.0146069 L17.8892903,11.0917227 L17.8918325,11.1678064 L17.894673,11.2428678 L17.8978117,11.3169163 L17.9030784,11.4261113 L17.9069617,11.4976701 L17.9111426,11.5682499 L17.915621,11.6378602 L17.9203966,11.7065108 L17.9254693,11.7742113 L17.930839,11.8409713 L17.9365054,11.9068005 L17.9424685,11.9717085 L17.948728,12.0357049 L17.9621358,12.1610016 L17.9692837,12.2223212 L17.9767275,12.2827678 L17.9805602,12.3126667 L17.9805602,12.3126667 L17.9966299,12.430128 L18.0008319,12.4589658 L18.0008319,12.4589658 L18.0094573,12.5160168 L18.0183777,12.5722429 L18.0275929,12.6276539 L18.0371028,12.6822593 C18.0387123,12.6912936 18.0403341,12.7002948 18.0419682,12.709263 L18.0519198,12.7626782 L18.0621657,12.815312 L18.0727057,12.867174 L18.0835397,12.9182738 L18.0946674,12.9686212 L18.1060888,13.0182256 L18.1060888,13.0182256 L18.1178037,13.0670968 L18.1359259,13.1390499 L18.1483737,13.1861302 C18.1504727,13.1939184 18.152584,13.2016774 18.1547075,13.2094075 L18.1675946,13.2554422 L18.1807744,13.3007918 L18.1942467,13.345466 C18.3500072,13.852599 18.5535057,14.2247804 18.9023254,14.6760463 L18.945771,14.7317132 C18.9604994,14.7504103 18.9754765,14.7692537 18.990709,14.7882579 C19.2142212,15.0671145 19.1654914,15.4713196 18.881868,15.6910752 C18.5982446,15.9108309 18.1871301,15.8629201 17.9636179,15.5840635 C17.4659561,14.9631744 17.1631134,14.4357945 16.942388,13.7171456 L16.9104071,13.6093537 L16.9104071,13.6093537 L16.8949738,13.5545091 C16.8924325,13.5453148 16.8899066,13.5360935 16.8873961,13.5268451 L16.8725181,13.471027 C16.8553761,13.4055216 16.8389881,13.338664 16.823349,13.2703791 L16.8101272,13.2114979 C16.8079541,13.2016255 16.8057962,13.1917236 16.8036536,13.1817918 L16.7909806,13.1218421 L16.7786724,13.0611669 C16.7766514,13.0509934 16.7746456,13.0407891 16.772655,13.030554 L16.7608928,12.9687708 L16.7494938,12.9062359 L16.7277819,12.7788683 L16.7174676,12.7140146 L16.7075135,12.6483669 L16.6979187,12.5819147 L16.6886826,12.5146475 L16.6798044,12.4465546 L16.6712834,12.3776257 L16.6631188,12.30785 C16.6617877,12.2961496 16.6604714,12.2844135 16.6591699,12.2726414 L16.6515386,12.201576 L16.644262,12.1296375 L16.6373391,12.0568155 C16.6362148,12.0446043 16.6351052,12.0323559 16.6340102,12.0200699 L16.6276168,11.9459028 L16.6215754,11.8708258 C16.6205978,11.8582366 16.6196349,11.845609 16.6186865,11.8329428 L16.6131718,11.7564812 C16.6122819,11.7436599 16.6114066,11.7307995 16.6105459,11.7179 L16.6055562,11.64003 L16.6031923,11.6007387 L16.6031923,11.6007387 L16.5987259,11.5214367 L16.5946075,11.4411668 L16.5908364,11.3599185 L16.5874118,11.2776813 C16.5868699,11.2638921 16.5863423,11.2500613 16.5858292,11.2361886 L16.582923,11.1524482 L16.5803614,11.0676925 C16.5799631,11.0534814 16.5795792,11.0392275 16.5792096,11.0249306 L16.5771637,10.9386323 L16.5754605,10.8512922 L16.5730798,10.6734451 L16.5724008,10.5829169 L16.5720192,10.4450893 C16.5720192,9.10754522 16.2642096,8.12562979 15.7081747,7.41087114 C15.2803581,6.86093164 14.7200277,6.47917641 13.9930059,6.18023209 L13.9582597,6.1660589 C13.5948794,6.01927854 13.2853684,5.70182293 13.1727074,5.32848433 C12.988177,4.70994778 12.5139276,4.28571429 12,4.28571429 C11.491451,4.28571429 11.0222093,4.70155838 10.8348985,5.31085529 L10.829309,5.32937782 C10.71908,5.69866048 10.4167888,6.00994744 10.0581712,6.15934663 L10.0401941,6.1666812 C9.83168432,6.250293 9.6286536,6.34650417 9.43226291,6.45475728 L9.38330424,6.48207111 C9.07015749,6.65887925 8.67052047,6.55262146 8.49068996,6.24473768 C8.31085946,5.9368539 8.41893362,5.54393346 8.73208037,5.36712532 C8.99431112,5.21906524 9.26634238,5.08845595 9.54717655,4.97584291 C9.55290781,4.97355372 9.56551437,4.96507129 9.57574287,4.95468113 L9.579625,4.95046875 L9.58433287,4.93493467 C9.92302125,3.83691338 10.8407316,3.01670992 11.9655039,3.00025218 L12,3 Z" id="Combined-Shape" fill="#000000" fill-rule="nonzero"></path>
        </g>
    </g>
</svg>