<?xml version="1.0" encoding="UTF-8"?>
<svg width="24px" height="24px" viewBox="0 0 24 24" version="1.1" xmlns="http://www.w3.org/2000/svg" xmlns:xlink="http://www.w3.org/1999/xlink">
    <title>VSQUARE/4) Icons/notifications/notifications</title>
    <g id="VSQUARE_Symbols" stroke="none" stroke-width="1" fill="none" fill-rule="evenodd">
        <g id="VSQUARE/4)-Icons/notifications/notifications">
            <rect id="Rectangle" x="0" y="0" width="24" height="24"></rect>
            <path d="M19.1846478,15.4276339 C19.1198589,15.3472768 19.0562408,15.2669196 18.9937936,15.189375 C18.1351445,14.1202232 17.6156619,13.4749554 17.6156619,10.4483036 C17.6156619,8.88133929 17.2515166,7.595625 16.5337641,6.63133929 C16.004524,5.91897321 15.2891133,5.37857143 14.3461605,4.97919643 C14.3340263,4.97224772 14.3231895,4.96313254 14.3141563,4.95227679 C13.9749899,3.78308036 13.0468684,3 12.0000972,3 C10.9533259,3 10.0255947,3.78308036 9.68642829,4.95107143 C9.67737659,4.96152836 9.66669157,4.9703552 9.6548144,4.9771875 C7.45433109,5.90973214 6.38492275,7.69888393 6.38492275,10.4470982 C6.38492275,13.4749554 5.86622067,14.1202232 5.00679104,15.1881696 C4.94434384,15.2657143 4.88072575,15.3444643 4.81593678,15.4264286 C4.47420306,15.8506861 4.40334846,16.4407994 4.63444959,16.9379464 C4.87526162,17.4602679 5.38849957,17.7845089 5.97433239,17.7845089 L18.0301552,17.7845089 C18.6132559,17.7845089 19.1229812,17.4606696 19.3645738,16.9407589 C19.5966789,16.4434734 19.5264183,15.8526026 19.1846478,15.4276339 Z M12.0000972,21 C13.1491338,20.9990432 14.2049567,20.3489664 14.7493353,19.3072768 C14.7749399,19.2574358 14.7733011,19.1974273 14.7450169,19.1491459 C14.7167327,19.1008644 14.66594,19.0713718 14.6111708,19.0714276 L9.38980408,19.0714276 C9.33496539,19.0712304 9.28404679,19.1006667 9.25566794,19.1489732 C9.22728908,19.1972798 9.22561177,19.2573724 9.25124935,19.3072768 C9.79556147,20.3488397 10.8512005,20.9988956 12.0000972,21 L12.0000972,21 Z" id="Combined-Shape" fill="#000000" fill-rule="nonzero"></path>
        </g>
    </g>
</svg>