<?xml version="1.0" encoding="UTF-8"?>
<svg width="24px" height="24px" viewBox="0 0 24 24" version="1.1" xmlns="http://www.w3.org/2000/svg" xmlns:xlink="http://www.w3.org/1999/xlink">
    <title>VSQUARE/4) Icons/notifications/notifications_outline</title>
    <g id="VSQUARE_Symbols" stroke="none" stroke-width="1" fill="none" fill-rule="evenodd">
        <g id="VSQUARE/4)-Icons/notifications/notifications_outline">
            <rect id="Rectangle" x="0" y="0" width="24" height="24"></rect>
            <path d="M12.0005212,3 C13.0990519,3 13.9970017,3.84122645 14.3175293,4.96468585 L14.3129546,4.94902232 L14.3140433,4.95038044 C14.3290118,4.96678678 14.3408545,4.97525817 14.3449186,4.97697789 C15.2435917,5.35799972 15.9668942,5.8687994 16.5320818,6.63012004 C17.2372952,7.58005876 17.6134728,8.83768853 17.6134728,10.4470982 L17.6134728,10.4470982 L17.6136166,10.5318833 L17.614048,10.6155637 L17.615234,10.7390341 L17.6163836,10.8199952 C17.6165992,10.8333992 17.6168267,10.8467586 17.6170661,10.8600736 L17.6170661,10.8600736 L17.6186462,10.9394322 L17.6205132,11.0177347 L17.6226668,11.0949908 C17.6230496,11.1077802 17.6234443,11.1205263 17.623851,11.1332295 L17.623851,11.1332295 L17.6293038,11.2836169 L17.6324595,11.3572872 L17.6377291,11.4659158 L17.6377291,11.4659158 L17.6396285,11.5016296 L17.6436416,11.5723212 L17.6479402,11.6420393 L17.6573933,11.778594 L17.6573933,11.778594 L17.6599348,11.8121395 L17.6652314,11.8785271 L17.6708129,11.9439849 L17.676679,12.0085228 L17.6828296,12.0721505 L17.6892646,12.1348776 C17.6903608,12.1452576 17.6914688,12.1556005 17.6925887,12.1659065 L17.6925887,12.1659065 L17.6994499,12.2273011 C17.7006171,12.2374602 17.7017962,12.2475829 17.702987,12.2576692 L17.702987,12.2576692 L17.7102742,12.3177531 L17.7178451,12.3769754 L17.7256996,12.4353457 L17.7338375,12.4928739 C17.7352174,12.5023923 17.7366091,12.511876 17.7380127,12.5213253 L17.7380127,12.5213253 L17.750963,12.6054427 L17.7599503,12.6605027 C17.7614718,12.6696122 17.7630051,12.6786882 17.7645501,12.6877309 L17.7645501,12.6877309 L17.7739616,12.7415897 L17.7836557,12.7946597 C17.7852949,12.8034396 17.7869459,12.8121869 17.7886087,12.820902 L17.7886087,12.820902 L17.8038911,12.8984727 L17.8038911,12.8984727 L17.8091263,12.9239482 L17.8198083,12.9743344 L17.8307722,13.0239757 L17.8420179,13.0728819 L17.8535452,13.1210625 L17.8653539,13.1685274 C17.8673455,13.1763791 17.8693488,13.1842014 17.8713638,13.1919944 L17.8713638,13.1919944 L17.8835944,13.2384039 L17.8961061,13.284122 L17.9088987,13.3291583 L17.9154003,13.3514239 C18.0590247,13.8388067 18.244699,14.2011523 18.5571093,14.6316179 L18.5571093,14.6316179 L18.5968268,14.6857949 C18.6237534,14.722168 18.6515845,14.7590701 18.6803693,14.7966129 L18.6803693,14.7966129 L18.7146528,14.8407923 L18.8061426,14.9568636 L18.9529845,15.1415234 L19.2043774,15.4565996 C19.9282566,16.4143941 19.2411491,17.7857143 18.027802,17.7857143 L18.027802,17.7857143 L15.1216453,17.7857143 C15.1216453,19.5609153 13.7242704,21 12.0005212,21 C10.2940094,21 8.90737716,19.5895531 8.87981516,17.8388684 L8.879,17.785 L5.97714171,17.7857143 C4.7921428,17.7857143 4.10611271,16.4872729 4.74295251,15.5321273 L4.81919825,15.4274961 L5.21944481,14.9258578 L5.29440086,14.8305462 L5.34211307,14.7685524 L5.38388979,14.7131453 C5.73309598,14.2458544 5.93328474,13.8691112 6.08610877,13.3511971 C6.09265483,13.3290127 6.09909582,13.3065783 6.10543165,13.2838882 L6.10543165,13.2838882 L6.11796309,13.2381657 C6.12002829,13.2304879 6.1220818,13.2227813 6.12412361,13.2150457 L6.12412361,13.2150457 L6.13623416,13.1682826 L6.14806393,13.1208135 C6.15196038,13.1048718 6.15581,13.0888108 6.15961278,13.0726289 L6.15961278,13.0726289 L6.18186711,12.9740742 L6.19257231,12.9236847 L6.20299599,12.8725408 L6.21313801,12.8206328 C6.21480486,12.8119172 6.21645998,12.8031694 6.21810335,12.7943892 L6.21810335,12.7943892 L6.2278226,12.7413169 L6.23725983,12.6874563 L6.25528762,12.5773312 L6.25528762,12.5773312 L6.25961807,12.549292 L6.26806704,12.4925958 C6.26945165,12.4830774 6.27082448,12.4735243 6.27218553,12.4639363 L6.27218553,12.4639363 L6.28021041,12.4059885 L6.28795239,12.3471941 L6.29903457,12.257394 L6.30606863,12.1964408 L6.31281926,12.1346071 C6.31392074,12.1242276 6.3150104,12.1138109 6.31608824,12.103357 L6.31608824,12.103357 L6.32241346,12.0401844 C6.32344402,12.0295805 6.32446275,12.0189389 6.32546966,12.0082594 L6.32546966,12.0082594 L6.33136913,11.9437259 L6.33698459,11.8782732 L6.34231589,11.8118914 C6.34318076,11.8007499 6.34403377,11.7895692 6.34487494,11.7783491 L6.34487494,11.7783491 L6.34977972,11.7105557 L6.35439998,11.6418089 L6.35873556,11.5720992 L6.36470485,11.4657079 L6.36470485,11.4657079 L6.37003279,11.3570953 L6.3732282,11.2834366 L6.3761382,11.2087666 L6.37876264,11.1330753 L6.38110138,11.0563531 L6.38315427,10.9785904 C6.38347259,10.9655427 6.38377899,10.9524512 6.38407347,10.9393158 L6.38407347,10.9393158 L6.3856973,10.8599739 L6.38703492,10.7795673 L6.38808616,10.6980861 L6.3888509,10.6155206 L6.38932897,10.5318613 L6.38963294,10.3988753 C6.39707006,8.81101486 6.77241602,7.56901718 7.47038437,6.62913745 C8.03530801,5.86841488 8.75776133,5.35879313 9.65849854,4.97679825 C9.66358305,4.974647 9.6756604,4.96607721 9.68556834,4.95549775 L9.68556834,4.95549775 L9.6896895,4.95082891 L9.69419161,4.93523157 C10.0169275,3.83756598 10.8941663,3.01672307 11.9676,3.00025238 L11.9676,3.00025238 Z M10.1278467,17.7857143 C10.1278467,18.8508349 10.9662716,19.7142857 12.0005212,19.7142857 C13.0244282,19.7142857 13.8564076,18.8680175 13.8729448,17.8176067 L13.8731957,17.7857143 L10.1278467,17.7857143 Z M12.0005212,4.28571429 C11.5104485,4.28571429 11.0575295,4.71053512 10.8828662,5.32937782 L10.8828662,5.32937782 L10.8774706,5.3477323 C10.766541,5.71385181 10.4753254,6.02119102 10.1334039,6.16585712 L10.1334039,6.16585712 L10.1001387,6.18007714 C9.40414081,6.47997521 8.87003372,6.86082397 8.46206437,7.4101929 C7.93158037,8.12453928 7.63796989,9.10699605 7.63796979,10.4474692 L7.63796979,10.4474692 L7.63721573,10.6311037 L7.63635017,10.7212902 L7.63515796,10.8104038 L7.63363839,10.8984551 L7.63179075,10.9854547 L7.62961431,11.0714131 L7.62710835,11.1563412 L7.62427216,11.2402494 C7.62377191,11.2541497 7.62325786,11.2680079 7.62273001,11.2818243 L7.62273001,11.2818243 L7.61939713,11.3642227 C7.618814,11.3778727 7.61821703,11.3914813 7.61760622,11.4050488 L7.61760622,11.4050488 L7.60961074,11.5658964 L7.60511263,11.6448648 L7.60027999,11.7228772 C7.59944663,11.7358001 7.5985993,11.7486837 7.59773799,11.7615281 L7.59773799,11.7615281 L7.59240219,11.8381263 L7.58072088,11.9885448 L7.57437393,12.0623863 C7.57328792,12.0746181 7.57218781,12.0868126 7.57107357,12.0989698 L7.57107357,12.0989698 L7.56421863,12.1714689 L7.55702413,12.2430863 L7.54948935,12.3138326 C7.54820516,12.3255517 7.54690676,12.3372349 7.54559414,12.3488825 L7.54559414,12.3488825 L7.5375476,12.4183421 L7.5270083,12.5039804 L7.5270083,12.5039804 L7.52483618,12.5209515 L7.51593311,12.5883198 L7.49709466,12.7206133 C7.49383998,12.7423943 7.49052775,12.7640425 7.48715785,12.7855597 L7.48715785,12.7855597 L7.47687501,12.8497201 L7.46624544,12.9131051 C7.46084385,12.9446054 7.45531197,12.975819 7.44964938,13.0067518 L7.44964938,13.0067518 L7.43814983,13.0682446 L7.42630103,13.1289993 L7.41410227,13.1890263 C7.41203994,13.1989708 7.409963,13.2088853 7.40787143,13.2187703 L7.40787143,13.2187703 L7.39514637,13.2777258 L7.38206955,13.3359803 C7.37986073,13.3456315 7.37763722,13.355254 7.37539901,13.3648479 L7.37539901,13.3648479 L7.36179321,13.4220708 C7.35030783,13.469474 7.33845416,13.5161746 7.32623034,13.5622003 L7.32623034,13.5622003 L7.31138396,13.617109 C7.30887992,13.626207 7.30636103,13.6352785 7.3038273,13.6443236 L7.3038273,13.6443236 L7.28844655,13.6982803 L7.2806223,13.725025 C7.06861516,14.4435082 6.77874277,14.969683 6.30049497,15.5933974 L6.30049497,15.5933974 L6.29024267,15.6067103 L6.21114424,15.7077453 L6.01039204,15.9606082 L5.78173039,16.246571 C5.7071803,16.348947 5.78047581,16.4946861 5.96686317,16.4998584 L5.96686317,16.4998584 L18.027802,16.5 C18.2199581,16.5 18.2967346,16.344016 18.2150631,16.240986 L18.2150631,16.240986 L18.2166226,16.243058 L17.9254446,15.8787366 L17.7986758,15.7188614 L17.7164718,15.6140231 L17.6759764,15.5612028 C17.2123388,14.9514322 16.9288569,14.4309895 16.720753,13.7247982 C16.7155137,13.7070189 16.7103341,13.6891368 16.705214,13.6711504 L16.705214,13.6711504 L16.6607385,13.5064046 C16.6583566,13.49709 16.6559895,13.4877481 16.6536372,13.4783785 L16.6536372,13.4783785 L16.6397008,13.4218271 C16.630528,13.3839025 16.6215913,13.3455283 16.6128898,13.3066903 L16.6128898,13.3066903 L16.6000137,13.2480836 C16.5957804,13.2284309 16.5916058,13.2086605 16.5874897,13.1887706 L16.5693622,13.0984534 L16.5693622,13.0984534 L16.5634949,13.067983 L16.5520227,13.0064872 L16.5520227,13.0064872 L16.5408997,12.9442425 L16.5301252,12.8812384 L16.5196984,12.8174641 L16.4998852,12.6875627 C16.4982918,12.6766051 16.4967127,12.6656141 16.4951481,12.6545894 L16.4951481,12.6545894 L16.4859328,12.5880361 L16.4770621,12.5206648 L16.4685352,12.4524649 L16.4603514,12.3834258 L16.45251,12.313537 L16.4450104,12.2427876 L16.4378517,12.1711672 L16.4310332,12.0986651 L16.4245544,12.0252707 L16.4126124,11.8757623 L16.4071479,11.7996271 L16.4020202,11.722557 L16.3972284,11.6445415 L16.3927719,11.5655699 L16.3886499,11.4856316 L16.3848618,11.4047159 C16.3842582,11.3911479 16.3836686,11.3775387 16.3830927,11.3638882 L16.3830927,11.3638882 L16.3798041,11.2814865 L16.3768475,11.1980809 L16.3742223,11.1136608 C16.3738123,11.0995056 16.3734161,11.0853078 16.3730337,11.071067 L16.3730337,11.071067 L16.3709042,10.9851051 C16.3705767,10.9706916 16.370263,10.9562348 16.369963,10.9417344 L16.369963,10.9417344 L16.3683276,10.8542068 C16.3680824,10.8395311 16.3678509,10.8248113 16.3676331,10.8100473 L16.3676331,10.8100473 L16.3656747,10.63074 L16.3651859,10.5394662 L16.364935,10.40705 C16.3591217,9.08897669 16.0658297,8.11893901 15.5402851,7.41101836 C15.1254384,6.85221022 14.5801417,6.46711912 13.8700654,6.1660589 L13.8700654,6.1660589 L13.853046,6.15870309 C13.5135098,6.00885522 13.2258964,5.6957073 13.1201825,5.32876955 L13.1201825,5.32876955 L13.1148054,5.31027132 C12.9346385,4.70176592 12.4856811,4.28571429 12.0005212,4.28571429 Z" id="Combined-Shape" fill="#000000" fill-rule="nonzero"></path>
        </g>
    </g>
</svg>