<?xml version="1.0" encoding="UTF-8"?>
<svg width="24px" height="24px" viewBox="0 0 24 24" version="1.1" xmlns="http://www.w3.org/2000/svg" xmlns:xlink="http://www.w3.org/1999/xlink">
    <title>VSQUARE/4) Icons/notifications_off/notifications_off</title>
    <g id="VSQUARE_Symbols" stroke="none" stroke-width="1" fill="none" fill-rule="evenodd">
        <g id="VSQUARE/4)-Icons/notifications_off/notifications_off">
            <rect id="Rectangle" x="0" y="0" width="24" height="24"></rect>
            <path d="M14.7300644,19.0714276 C14.7874507,19.0713718 14.8406706,19.1008644 14.8703064,19.1491459 C14.8999422,19.1974273 14.9016592,19.2574358 14.874831,19.3072768 C14.3044392,20.3489664 13.1981634,20.9990432 11.9942196,21 C10.7904225,20.9988956 9.68433931,20.3488397 9.11401703,19.3072768 C9.08715435,19.2573724 9.08891181,19.1972798 9.11864676,19.1489732 C9.14838171,19.1006667 9.20173348,19.0712304 9.25919265,19.0714276 L9.25919265,19.0714276 Z M4.60498493,3.83129464 L20.3084887,19.2598661 C20.4954929,19.4437167 20.5514139,19.7201157 20.4501913,19.9602562 C20.3489688,20.2003967 20.110522,20.3571437 19.8459715,20.3571437 C19.6723959,20.3574189 19.5058947,20.2895834 19.3834542,20.1687054 L3.67995041,4.74013393 C3.43554573,4.48738545 3.44073328,4.08930146 3.69164406,3.84278356 C3.94255483,3.59626566 4.34773255,3.59116893 4.60498493,3.83129464 Z M6.35303363,9.44729419 C6.47251736,9.4041988 6.60659533,9.43310074 6.6967407,9.52138393 L6.6967407,9.52138393 L14.5484926,17.2356696 C14.6421673,17.3276019 14.6702079,17.4659435 14.6195256,17.58612 C14.5688433,17.7062966 14.4494319,17.7846113 14.3170295,17.784509 L14.3170295,17.784509 L5.6809203,17.784509 C5.06709324,17.784509 4.52933002,17.4602679 4.27701071,16.9379464 C4.03486632,16.4407994 4.10910673,15.8506861 4.46717032,15.4264286 C4.53505526,15.3444643 4.60171336,15.2657143 4.66714463,15.1881696 C5.56764242,14.1202232 6.11113088,13.4749554 6.11113088,10.4470982 C6.11113088,10.1966518 6.12067294,9.95504464 6.13975705,9.72227679 C6.15035204,9.59765856 6.23354989,9.49038958 6.35303363,9.44729419 Z M11.9942196,3 C13.0910112,3 14.0634833,3.78308036 14.4188569,4.95227679 C14.4283217,4.96313254 14.4396764,4.97224772 14.4523904,4.97919643 C15.4404025,5.37857143 16.1899995,5.91897321 16.7445295,6.63133929 C17.4965801,7.595625 17.8781261,8.88133929 17.8781261,10.4483036 C17.8781261,13.4749554 18.4224325,14.1202232 19.3221124,15.189375 C19.3875437,15.2669196 19.4542018,15.3472768 19.5220867,15.4276339 C19.6998052,15.6397655 19.8111652,15.8979402 19.8426999,16.1709375 C19.8597408,16.3071377 19.7868951,16.4389462 19.6613483,16.4990787 C19.5358016,16.5592112 19.3852454,16.5344044 19.2865341,16.4373214 L19.2865341,16.4373214 L8.58116116,5.92098214 C8.51016333,5.85128847 8.47565278,5.75343393 8.48754122,5.65552319 C8.49942966,5.55761245 8.55640154,5.47048028 8.64209403,5.41915179 C8.92825469,5.24929124 9.22741194,5.1015254 9.53686659,4.9771875 C9.54931131,4.9703552 9.56050692,4.96152836 9.56999116,4.95107143 C9.92536473,3.78308036 10.897428,3 11.9942196,3 Z" id="Combined-Shape" fill="#000000" fill-rule="nonzero"></path>
        </g>
    </g>
</svg>