<?xml version="1.0" encoding="UTF-8"?>
<svg width="24px" height="24px" viewBox="0 0 24 24" version="1.1" xmlns="http://www.w3.org/2000/svg" xmlns:xlink="http://www.w3.org/1999/xlink">
    <title>VSQUARE/4) Icons/open/open_outline</title>
    <g id="VSQUARE_Symbols" stroke="none" stroke-width="1" fill="none" fill-rule="evenodd">
        <g id="VSQUARE/4)-Icons/open/open_outline">
            <rect id="Rectangle" x="0" y="0" width="24" height="24"></rect>
            <path d="M12.6698077,5.76923077 C13.0521587,5.76923077 13.3621154,6.07918748 13.3621154,6.46153846 C13.3621154,6.83933764 13.0594947,7.14645597 12.6834319,7.15371477 L5.42307692,7.15384615 C4.85528572,7.15384615 4.39392495,7.60952901 4.38475451,8.17513483 L4.38461538,18.5769231 C4.38461538,19.1447143 4.84029824,19.6060751 5.40590406,19.6152455 L15.8076923,19.6153846 C16.0831094,19.6153846 16.3472462,19.5059756 16.5419955,19.3112263 C16.7321079,19.1211138 16.8408955,18.8648788 16.8459681,18.5965758 L16.8461538,18.5769231 L16.8461538,10.6153846 C16.8461538,10.2330336 17.1561106,9.92307692 17.5384615,9.92307692 C17.9162607,9.92307692 18.223379,10.2256976 18.2307692,10.6017604 L18.2307692,18.5769231 C18.2307692,19.219563 17.9754815,19.8358821 17.5210664,20.2902972 C17.0732371,20.7381265 16.4681626,20.9925585 15.8356162,20.9998393 L15.8076923,21 L5.42307692,21 C4.09823078,21 3.02172231,19.93674 3.00032462,18.6169931 L3,8.19230769 C3,6.86746154 4.06326001,5.79095308 5.38300692,5.76955539 L12.6698077,5.76923077 Z M20.3076923,3 C20.6854915,3 20.9926098,3.30262072 20.9998686,3.67868348 L21,3.69230769 L21,8.53846154 C21,8.92081252 20.6900433,9.23076923 20.3076923,9.23076923 C19.9298931,9.23076923 19.6227748,8.92814851 19.615516,8.55208575 L19.615,5.363 L11.1049201,13.8741508 C10.8345571,14.1445138 10.3962121,14.1445138 10.1258492,13.8741508 C9.85924122,13.6075429 9.85553833,13.1775867 10.1147405,12.9064414 L18.636,4.384 L15.4615385,4.38461538 C15.0837393,4.38461538 14.776621,4.08199467 14.7693622,3.7059319 L14.7692308,3.69230769 C14.7692308,3.31450851 15.0718515,3.00739018 15.4479143,3.00013138 L20.3076923,3 Z" id="Combined-Shape" fill="#000000" fill-rule="nonzero"></path>
        </g>
    </g>
</svg>