<?xml version="1.0" encoding="UTF-8"?>
<svg width="24px" height="24px" viewBox="0 0 24 24" version="1.1" xmlns="http://www.w3.org/2000/svg" xmlns:xlink="http://www.w3.org/1999/xlink">
    <title>VSQUARE/4) Icons/open/open</title>
    <g id="VSQUARE_Symbols" stroke="none" stroke-width="1" fill="none" fill-rule="evenodd">
        <g id="VSQUARE/4)-Icons/open/open">
            <rect id="Rectangle" x="0" y="0" width="24" height="24"></rect>
            <path d="M15.8076923,5.76922972 C16.2101399,5.76885503 16.6062749,5.86926476 16.9599519,6.06129808 L16.9599519,6.06129808 L10.1260096,12.8952404 C9.92814632,13.0932334 9.86897814,13.3908939 9.97607852,13.6495067 C10.0831789,13.9081196 10.335472,14.0767934 10.6153846,14.0769231 C10.7990395,14.0772203 10.9752092,14.0041667 11.1047596,13.8739904 L11.1047596,13.8739904 L17.9387019,7.04004808 C18.1307352,7.39372508 18.231145,7.78986009 18.2307703,8.19230769 L18.2307703,8.19230769 L18.2307703,18.5769231 C18.2293383,19.9145584 17.1453276,20.9985691 15.8076923,21 L15.8076923,21 L5.42307692,21 C4.08544163,20.9985691 3.00143088,19.9145584 3,18.5769231 L3,18.5769231 L3,8.19230769 C3.00143088,6.8546724 4.08544163,5.77066165 5.42307692,5.76922972 L5.42307692,5.76922972 Z M20.3076923,3 C20.6900433,3 21,3.30995671 21,3.69230769 L21,3.69230769 L21,8.53846154 C21,8.92081252 20.6900433,9.23076923 20.3076923,9.23076923 C19.9253413,9.23076923 19.6153846,8.92081252 19.6153846,8.53846154 L19.6153846,8.53846154 L19.6153846,5.36379808 L17.9387019,7.04004808 C17.7138516,6.62609896 17.373901,6.28614845 16.9599519,6.06129808 L16.9599519,6.06129808 L18.6362019,4.38461538 L15.4615385,4.38461538 C15.0791875,4.38461538 14.7692308,4.07465867 14.7692308,3.69230769 C14.7692308,3.30995671 15.0791875,3 15.4615385,3 L15.4615385,3 Z" id="Combined-Shape" fill="#000000" fill-rule="nonzero"></path>
        </g>
    </g>
</svg>