<?xml version="1.0" encoding="UTF-8"?>
<svg width="24px" height="24px" viewBox="0 0 24 24" version="1.1" xmlns="http://www.w3.org/2000/svg" xmlns:xlink="http://www.w3.org/1999/xlink">
    <title>VSQUARE/4) Icons/options/options_sharp</title>
    <g id="VSQUARE_Symbols" stroke="none" stroke-width="1" fill="none" fill-rule="evenodd">
        <g id="VSQUARE/4)-Icons/options/options_sharp">
            <rect id="Rectangle" x="0" y="0" width="24" height="24"></rect>
            <path d="M17.4194712,5.86315985 C17.1259091,5.04614334 16.341473,4.5 15.4615385,4.5 C14.581604,4.5 13.7971678,5.04614334 13.5036058,5.86315985 L3,5.86315985 L3,7.22690211 L13.5036058,7.22690211 C13.7971678,8.04391861 14.581604,8.59006196 15.4615385,8.59006196 C16.341473,8.59006196 17.1259091,8.04391861 17.4194712,7.22690211 L21,7.22690211 L21,5.86315985 L17.4194712,5.86315985 Z M8.53846154,9.95438662 C7.65874394,9.95561984 6.87486504,10.5016084 6.58052885,11.3181289 L3,11.3181289 L3,12.6818711 L6.58052885,12.6818711 C6.87409087,13.4988876 7.65852705,14.045031 8.53846154,14.045031 C9.41839603,14.045031 10.2028322,13.4988876 10.4963942,12.6818711 L21,12.6818711 L21,11.3181289 L10.4963942,11.3181289 C10.202058,10.5016084 9.41817914,9.95561984 8.53846154,9.95438662 L8.53846154,9.95438662 Z M15.4615385,15.4093556 C14.5818209,15.4105889 13.797942,15.9565774 13.5036058,16.7730979 L3,16.7730979 L3,18.1368401 L13.5036058,18.1368401 C13.7971678,18.9538567 14.581604,19.5 15.4615385,19.5 C16.341473,19.5 17.1259091,18.9538567 17.4194712,18.1368401 L21,18.1368401 L21,16.7730979 L17.4194712,16.7730979 C17.125135,15.9565774 16.3412561,15.4105889 15.4615385,15.4093556 L15.4615385,15.4093556 Z" id="Combined-Shape" fill="#000000" fill-rule="nonzero"></path>
        </g>
    </g>
</svg>