<?xml version="1.0" encoding="UTF-8"?>
<svg width="24px" height="24px" viewBox="0 0 24 24" version="1.1" xmlns="http://www.w3.org/2000/svg" xmlns:xlink="http://www.w3.org/1999/xlink">
    <title>VSQUARE/4) Icons/options/options_outline</title>
    <g id="VSQUARE_Symbols" stroke="none" stroke-width="1" fill="none" fill-rule="evenodd">
        <g id="VSQUARE/4)-Icons/options/options_outline">
            <rect id="Rectangle" x="0" y="0" width="24" height="24"></rect>
            <path d="M15.4615385,4.5 C16.365655,4.5 17.1348418,5.06894932 17.420102,5.86313869 L20.3076923,5.86363636 C20.6900433,5.86363636 21,6.16889676 21,6.54545455 C21,6.9175295 20.6973793,7.21999452 20.3213165,7.22714333 L17.420102,7.2277704 C17.1348418,8.02195977 16.365655,8.59090909 15.4615385,8.59090909 C14.557422,8.59090909 13.7882351,8.02195977 13.5029749,7.2277704 L3.69230769,7.22727273 C3.30995671,7.22727273 3,6.92201233 3,6.54545455 C3,6.17337959 3.30262072,5.87091457 3.67868348,5.86376576 L13.5029749,5.86313869 C13.7882351,5.06894932 14.557422,4.5 15.4615385,4.5 Z M15.4615385,5.86363636 C15.0791875,5.86363636 14.7692308,6.16889676 14.7692308,6.54545455 C14.7692308,6.92201233 15.0791875,7.22727273 15.4615385,7.22727273 C15.8438894,7.22727273 16.1538462,6.92201233 16.1538462,6.54545455 C16.1538462,6.16889676 15.8438894,5.86363636 15.4615385,5.86363636 Z M15.4615385,15.4090909 C16.365655,15.4090909 17.1348418,15.9780402 17.420102,16.7722296 L20.3076923,16.7727273 C20.6900433,16.7727273 21,17.0779877 21,17.4545455 C21,17.8266204 20.6973793,18.1290854 20.3213165,18.1362342 L17.420102,18.1368613 C17.1348418,18.9310507 16.365655,19.5 15.4615385,19.5 C14.557422,19.5 13.7882351,18.9310507 13.5029749,18.1368613 L3.69230769,18.1363636 C3.30995671,18.1363636 3,17.8311032 3,17.4545455 C3,17.0824705 3.30262072,16.7800055 3.67868348,16.7728567 L13.5029749,16.7722296 C13.7882351,15.9780402 14.557422,15.4090909 15.4615385,15.4090909 Z M15.4615385,16.7727273 C15.0791875,16.7727273 14.7692308,17.0779877 14.7692308,17.4545455 C14.7692308,17.8311032 15.0791875,18.1363636 15.4615385,18.1363636 C15.8438894,18.1363636 16.1538462,17.8311032 16.1538462,17.4545455 C16.1538462,17.0779877 15.8438894,16.7727273 15.4615385,16.7727273 Z M8.53846154,9.95454545 C9.44257804,9.95454545 10.2117649,10.5234948 10.4970251,11.3176841 L20.3076923,11.3181818 C20.6900433,11.3181818 21,11.6234422 21,12 C21,12.372075 20.6973793,12.67454 20.3213165,12.6816888 L10.4970251,12.6823159 C10.2117649,13.4765052 9.44257804,14.0454545 8.53846154,14.0454545 C7.63434504,14.0454545 6.86515816,13.4765052 6.57989802,12.6823159 L3.69230769,12.6818182 C3.30995671,12.6818182 3,12.3765578 3,12 C3,11.627925 3.30262072,11.32546 3.67868348,11.3183112 L6.57989802,11.3176841 C6.86515816,10.5234948 7.63434504,9.95454545 8.53846154,9.95454545 Z M8.53846154,11.3181818 C8.15611056,11.3181818 7.84615385,11.6234422 7.84615385,12 C7.84615385,12.3765578 8.15611056,12.6818182 8.53846154,12.6818182 C8.92081252,12.6818182 9.23076923,12.3765578 9.23076923,12 C9.23076923,11.6234422 8.92081252,11.3181818 8.53846154,11.3181818 Z" id="Combined-Shape" fill="#000000" fill-rule="nonzero"></path>
        </g>
    </g>
</svg>