<?xml version="1.0" encoding="UTF-8"?>
<svg width="24px" height="24px" viewBox="0 0 24 24" version="1.1" xmlns="http://www.w3.org/2000/svg" xmlns:xlink="http://www.w3.org/1999/xlink">
    <title>VSQUARE/4) Icons/options/options</title>
    <g id="VSQUARE_Symbols" stroke="none" stroke-width="1" fill="none" fill-rule="evenodd">
        <g id="VSQUARE/4)-Icons/options/options">
            <rect id="Rectangle" x="0" y="0" width="24" height="24"></rect>
            <path d="M3.69230769,7.22690211 L13.5036058,7.22690211 C13.7971678,8.04391861 14.581604,8.59006196 15.4615385,8.59006196 C16.341473,8.59006196 17.1259091,8.04391861 17.4194712,7.22690211 L20.3076923,7.22690211 C20.6900433,7.22690211 21,6.921618 21,6.54503098 C21,6.16844395 20.6900433,5.86315985 20.3076923,5.86315985 L17.4194712,5.86315985 C17.1259091,5.04614334 16.341473,4.5 15.4615385,4.5 C14.581604,4.5 13.7971678,5.04614334 13.5036058,5.86315985 L3.69230769,5.86315985 C3.30995671,5.86315985 3,6.16844395 3,6.54503098 C3,6.921618 3.30995671,7.22690211 3.69230769,7.22690211 Z M20.3076923,16.7730979 L17.4194712,16.7730979 C17.1259091,15.9560814 16.341473,15.409938 15.4615385,15.409938 C14.581604,15.409938 13.7971678,15.9560814 13.5036058,16.7730979 L3.69230769,16.7730979 C3.30995671,16.7730979 3,17.078382 3,17.454969 C3,17.831556 3.30995671,18.1368401 3.69230769,18.1368401 L13.5036058,18.1368401 C13.7971678,18.9538567 14.581604,19.5 15.4615385,19.5 C16.341473,19.5 17.1259091,18.9538567 17.4194712,18.1368401 L20.3076923,18.1368401 C20.6900433,18.1368401 21,17.831556 21,17.454969 C21,17.078382 20.6900433,16.7730979 20.3076923,16.7730979 L20.3076923,16.7730979 Z M20.3076923,11.3181289 L10.4963942,11.3181289 C10.2028322,10.5011124 9.41839603,9.95496902 8.53846154,9.95496902 C7.65852705,9.95496902 6.87409087,10.5011124 6.58052885,11.3181289 L3.69230769,11.3181289 C3.30995671,11.3181289 3,11.623413 3,12 C3,12.376587 3.30995671,12.6818711 3.69230769,12.6818711 L6.58052885,12.6818711 C6.87409087,13.4988876 7.65852705,14.045031 8.53846154,14.045031 C9.41839603,14.045031 10.2028322,13.4988876 10.4963942,12.6818711 L20.3076923,12.6818711 C20.6900433,12.6818711 21,12.376587 21,12 C21,11.623413 20.6900433,11.3181289 20.3076923,11.3181289 Z" id="Combined-Shape" fill="#000000" fill-rule="nonzero"></path>
        </g>
    </g>
</svg>