<?xml version="1.0" encoding="UTF-8"?>
<svg width="24px" height="24px" viewBox="0 0 24 24" version="1.1" xmlns="http://www.w3.org/2000/svg" xmlns:xlink="http://www.w3.org/1999/xlink">
    <title>VSQUARE/4) Icons/paper_plane/paper_plane_outline</title>
    <g id="VSQUARE_Symbols" stroke="none" stroke-width="1" fill="none" fill-rule="evenodd">
        <g id="VSQUARE/4)-Icons/paper_plane/paper_plane_outline">
            <rect id="Rectangle" x="0" y="0" width="24" height="24"></rect>
            <path d="M20.1182314,2.56720662 C20.4932899,2.42372812 20.9176343,2.51421222 21.2015769,2.79821129 C21.4855194,3.08221035 21.5759855,3.50663922 21.4333784,3.87955663 L21.4333784,3.87955663 L15.0128393,20.8471683 L15.0090208,20.8570269 C14.8521635,21.2528192 14.465653,21.5091523 14.0393092,21.4997498 C13.6253136,21.4901079 13.2595919,21.2308513 13.1123086,20.8461091 L13.1123086,20.8461091 L13.1087534,20.8365782 L10.2548007,13.8023355 C10.252109,13.7957012 10.2495226,13.789025 10.2470424,13.7823096 L10.2470424,13.7823096 L10.2399214,13.7620481 L10.2197627,13.7549622 L10.1998371,13.747245 L3.16978936,10.8963574 C2.77949348,10.7518859 2.51722126,10.3914127 2.50078948,9.97953368 L2.50078948,9.97953368 L2.50024743,9.96234275 C2.4908099,9.53266317 2.75209811,9.14324752 3.15621089,8.98818044 L3.15621089,8.98818044 Z M19.313,5.646 L11.557,13.404 L14.0520073,19.5514937 L19.313,5.646 Z M18.354,4.686 L4.44868068,9.95024337 L10.598,12.443 L18.354,4.686 Z" id="Combined-Shape" fill="#000000" fill-rule="nonzero"></path>
        </g>
    </g>
</svg>