<?xml version="1.0" encoding="UTF-8"?>
<svg width="24px" height="24px" viewBox="0 0 24 24" version="1.1" xmlns="http://www.w3.org/2000/svg" xmlns:xlink="http://www.w3.org/1999/xlink">
    <title>VSQUARE/4) Icons/paper_plane/paper_plane</title>
    <g id="VSQUARE_Symbols" stroke="none" stroke-width="1" fill="none" fill-rule="evenodd">
        <g id="VSQUARE/4)-Icons/paper_plane/paper_plane">
            <rect id="Rectangle" x="0" y="0" width="24" height="24"></rect>
            <path d="M21.2032471,2.7980858 C20.919788,2.51468245 20.4964006,2.42402513 20.1217535,2.56651224 L3.15587485,8.98822499 L3.15248193,8.98822499 C2.75168648,9.14238153 2.49074485,9.5314921 2.50025133,9.96081729 C2.50975782,10.3901425 2.78766727,10.7673207 3.19489344,10.9035843 L3.21228217,10.9090979 L9.03538327,13.3957568 C9.26651561,13.4659254 9.51752325,13.4079368 9.69445822,13.2434951 L19.0402598,4.53488744 C19.1160207,4.45912438 19.2264446,4.42953554 19.3299359,4.45726674 C19.4334271,4.48499795 19.514263,4.56583617 19.5419934,4.66933044 C19.5697238,4.7728247 19.5401358,4.88325177 19.464375,4.95901483 L10.7555943,14.3008446 C10.5911573,14.4777847 10.5331704,14.7287996 10.603337,14.9599386 L13.0907724,20.7866006 C13.0933171,20.7950832 13.0958618,20.8027174 13.0988306,20.8107759 C13.2345474,21.203942 13.5780807,21.4813213 13.9932894,21.5 C14.0115264,21.5 14.0178881,21.5 14.035701,21.5 C14.4646375,21.5024303 14.8514728,21.2424023 15.0111658,20.8442819 L21.4318452,3.88257952 C21.5763751,3.5076475 21.486817,3.08277441 21.2032471,2.7980858 Z" id="Path" fill="#000000" fill-rule="nonzero"></path>
        </g>
    </g>
</svg>