<?xml version="1.0" encoding="UTF-8"?>
<svg width="24px" height="24px" viewBox="0 0 24 24" version="1.1" xmlns="http://www.w3.org/2000/svg" xmlns:xlink="http://www.w3.org/1999/xlink">
    <title>VSQUARE/4) Icons/pause/pause_outline</title>
    <g id="VSQUARE_Symbols" stroke="none" stroke-width="1" fill="none" fill-rule="evenodd">
        <g id="VSQUARE/4)-Icons/pause/pause_outline">
            <rect id="Rectangle" x="0" y="0" width="24" height="24"></rect>
            <path d="M9.33333333,4.5 L8.66666667,4.5 C8.29847683,4.5 8,4.8052604 8,5.18181818 L8,18.8181818 C8,19.1947396 8.29847683,19.5 8.66666667,19.5 L9.33333333,19.5 C9.70152317,19.5 10,19.1947396 10,18.8181818 L10,5.18181818 C10,4.8052604 9.70152317,4.5 9.33333333,4.5 Z M15.3333333,4.5 L14.6666667,4.5 C14.2984768,4.5 14,4.8052604 14,5.18181818 L14,18.8181818 C14,19.1947396 14.2984768,19.5 14.6666667,19.5 L15.3333333,19.5 C15.7015232,19.5 16,19.1947396 16,18.8181818 L16,5.18181818 C16,4.8052604 15.7015232,4.5 15.3333333,4.5 Z" id="Combined-Shape" fill="#000000" fill-rule="nonzero"></path>
        </g>
    </g>
</svg>