<?xml version="1.0" encoding="UTF-8"?>
<svg width="24px" height="24px" viewBox="0 0 24 24" version="1.1" xmlns="http://www.w3.org/2000/svg" xmlns:xlink="http://www.w3.org/1999/xlink">
    <title>VSQUARE/4) Icons/pause/pause</title>
    <g id="VSQUARE_Symbols" stroke="none" stroke-width="1" fill="none" fill-rule="evenodd">
        <g id="VSQUARE/4)-Icons/pause/pause">
            <rect id="Rectangle" x="0" y="0" width="24" height="24"></rect>
            <path d="M9.85714286,19.5 L7.71428571,19.5 C7.31979661,19.5 7,19.1947396 7,18.8181818 L7,5.18181818 C7,4.8052604 7.31979661,4.5 7.71428571,4.5 L9.85714286,4.5 C10.251632,4.5 10.5714286,4.8052604 10.5714286,5.18181818 L10.5714286,18.8181818 C10.5714286,19.1947396 10.251632,19.5 9.85714286,19.5 Z M16.2857143,19.5 L14.1428571,19.5 C13.748368,19.5 13.4285714,19.1947396 13.4285714,18.8181818 L13.4285714,5.18181818 C13.4285714,4.8052604 13.748368,4.5 14.1428571,4.5 L16.2857143,4.5 C16.6802034,4.5 17,4.8052604 17,5.18181818 L17,18.8181818 C17,19.1947396 16.6802034,19.5 16.2857143,19.5 Z" id="Combined-Shape" fill="#000000" fill-rule="nonzero"></path>
        </g>
    </g>
</svg>