<?xml version="1.0" encoding="UTF-8"?>
<svg width="24px" height="24px" viewBox="0 0 24 24" version="1.1" xmlns="http://www.w3.org/2000/svg" xmlns:xlink="http://www.w3.org/1999/xlink">
    <title>VSQUARE/4) Icons/pencil/pencil_outline</title>
    <g id="VSQUARE_Symbols" stroke="none" stroke-width="1" fill="none" fill-rule="evenodd">
        <g id="VSQUARE/4)-Icons/pencil/pencil_outline">
            <rect id="Rectangle" x="0" y="0" width="24" height="24"></rect>
            <path d="M16.1896888,5.8527975 C16.4599212,5.58196065 16.8986203,5.58171556 17.1691551,5.85225029 L17.1691551,5.85225029 L18.1477539,6.83084884 C18.4182922,7.10138701 18.4180432,7.54009281 18.1471979,7.81032365 L18.1471979,7.81032365 L6.1305926,19.79967 C6.07958069,19.8505662 6.02093425,19.8931848 5.95677251,19.9259859 L5.95677251,19.9259859 L4.01039048,20.9210242 C3.41251762,21.2266715 2.77335364,20.5875653 3.07894717,19.9896651 L3.07894717,19.9896651 L4.07398577,18.042851 C4.10679248,17.978664 4.14942404,17.9199953 4.20033889,17.8689666 L4.20033889,17.8689666 Z M18.6373256,3.40516093 C19.1778945,2.86494636 20.0539543,2.86494636 20.5945232,3.40516093 L20.5945232,3.40516093 L20.6168295,3.42798222 C21.135832,3.97124432 21.1267303,4.83044402 20.5947918,5.3627311 L20.5947918,5.3627311 L19.616193,6.34176226 C19.345847,6.61222764 18.9074029,6.61222764 18.637057,6.34176226 L18.637057,6.34176226 L17.6584581,5.3627311 C17.3882389,5.09239248 17.3882873,4.65419875 17.6585663,4.38391986 L17.6585663,4.38391986 Z" id="Combined-Shape" fill="#000000" fill-rule="nonzero"></path>
        </g>
    </g>
</svg>