<?xml version="1.0" encoding="UTF-8"?>
<svg width="24px" height="24px" viewBox="0 0 24 24" version="1.1" xmlns="http://www.w3.org/2000/svg" xmlns:xlink="http://www.w3.org/1999/xlink">
    <title>VSQUARE/4) Icons/pencil/pencil</title>
    <g id="VSQUARE_Symbols" stroke="none" stroke-width="1" fill="none" fill-rule="evenodd">
        <g id="VSQUARE/4)-Icons/pencil/pencil">
            <rect id="Rectangle" x="0" y="0" width="24" height="24"></rect>
            <path d="M15.7671046,5.84408604 C16.1386637,5.47160829 16.7419364,5.47123742 17.1139532,5.84325804 L17.1139532,5.84325804 L18.156586,6.8859016 C18.5286028,7.25792222 18.528232,7.8612011 18.155758,8.23276403 L18.155758,8.23276403 L6.35367355,20.0059836 C6.26524249,20.0941984 6.16031267,20.1641441 6.04486735,20.2118323 L6.04486735,20.2118323 L4.31781745,20.9252427 C3.53492603,21.2486398 2.75136273,20.4650685 3.0747565,19.682169 L3.0747565,19.682169 L3.78815963,17.9551013 C3.83584734,17.8396548 3.90579232,17.7347239 3.99400619,17.6462919 L3.99400619,17.6462919 Z M19.3016933,3 C19.74359,3 20.1673851,3.17555764 20.4797969,3.48800845 L20.4797969,3.48800845 L20.5124937,3.52070565 C21.1625437,4.17124495 21.1625437,5.22546574 20.512244,5.87625483 L20.512244,5.87625483 L20.0021759,6.38632817 C19.6304823,6.7580256 19.0278479,6.7580256 18.6561543,6.38632817 L18.6561543,6.38632817 L17.6135215,5.34368461 C17.2417164,4.97187567 17.2418443,4.36901484 17.6138071,3.99736368 L17.6138071,3.99736368 L18.1235511,3.48804691 C18.4360015,3.17555764 18.8597965,3 19.3016933,3 Z" id="Combined-Shape" fill="#000000" fill-rule="nonzero"></path>
        </g>
    </g>
</svg>