<?xml version="1.0" encoding="UTF-8"?>
<svg width="24px" height="24px" viewBox="0 0 24 24" version="1.1" xmlns="http://www.w3.org/2000/svg" xmlns:xlink="http://www.w3.org/1999/xlink">
    <title>VSQUARE/4) Icons/person_circle/person_circle</title>
    <g id="VSQUARE_Symbols" stroke="none" stroke-width="1" fill="none" fill-rule="evenodd">
        <g id="VSQUARE/4)-Icons/person_circle/person_circle">
            <rect id="Rectangle" x="0" y="0" width="24" height="24"></rect>
            <path d="M12,2.5 C6.76175481,2.5 2.5,6.76175481 2.5,12 C2.5,17.2382452 6.76175481,21.5 12,21.5 C17.2382452,21.5 21.5,17.2382452 21.5,12 C21.5,6.76175481 17.2382452,2.5 12,2.5 Z M9.70629808,7.83552885 C10.284976,7.22213942 11.0993269,6.88461538 12,6.88461538 C12.9006731,6.88461538 13.7077163,7.22442308 14.2886779,7.84100962 C14.8774038,8.46581731 15.163774,9.30528846 15.0961779,10.2077885 C14.9609856,12 13.572524,13.4615385 12,13.4615385 C10.427476,13.4615385 9.03627404,12 8.90382212,10.2073317 C8.83668269,9.29752404 9.12259615,8.4553125 9.70629808,7.83552885 Z M12,20.0384638 C9.83193101,20.0398939 7.7557614,19.1629594 6.24519231,17.6077404 C6.67340424,16.9970749 7.21901227,16.4778622 7.85014423,16.0804327 C9.01435096,15.3341346 10.4877644,14.9230769 12,14.9230769 C13.5122356,14.9230769 14.985649,15.3341346 16.1484856,16.0804327 C16.7801414,16.477679 17.326232,16.9969076 17.7548077,17.6077404 C16.2443591,19.1631356 14.1681113,20.0401031 12,20.0384638 Z" id="Shape" fill="#000000" fill-rule="nonzero"></path>
        </g>
    </g>
</svg>