<?xml version="1.0" encoding="UTF-8"?>
<svg width="24px" height="24px" viewBox="0 0 24 24" version="1.1" xmlns="http://www.w3.org/2000/svg" xmlns:xlink="http://www.w3.org/1999/xlink">
    <title>VSQUARE/4) Icons/person_circle/person_circle_sharp</title>
    <g id="VSQUARE_Symbols" stroke="none" stroke-width="1" fill="none" fill-rule="evenodd">
        <g id="VSQUARE/4)-Icons/person_circle/person_circle_sharp">
            <rect id="Rectangle" x="0" y="0" width="24" height="24"></rect>
            <path d="M12,2.5 C6.76175481,2.5 2.5,6.76175481 2.5,12 C2.5,17.2382452 6.76175481,21.5 12,21.5 C17.2382452,21.5 21.5,17.2382452 21.5,12 C21.5,6.76175481 17.2382452,2.5 12,2.5 Z M12.0913462,6.88461538 C13.9075133,6.88461538 15.3798077,8.35690976 15.3798077,10.1730769 C15.3798077,11.9892441 13.9075133,13.4615385 12.0913462,13.4615385 C10.275179,13.4615385 8.80288462,11.9892441 8.80288462,10.1730769 C8.80288462,8.35690976 10.275179,6.88461538 12.0913462,6.88461538 Z M12,20.0384623 C9.75842331,20.0393894 7.61881,19.1019214 6.09995192,17.4533654 C6.50370192,15.3624519 10.1301442,14.9230769 12,14.9230769 C13.8698558,14.9230769 17.4962981,15.3624519 17.9000481,17.4529087 C16.3813702,19.1017733 14.2416816,20.0394399 12,20.0384623 Z" id="Shape" fill="#000000" fill-rule="nonzero"></path>
        </g>
    </g>
</svg>