<?xml version="1.0" encoding="UTF-8"?>
<svg width="24px" height="24px" viewBox="0 0 24 24" version="1.1" xmlns="http://www.w3.org/2000/svg" xmlns:xlink="http://www.w3.org/1999/xlink">
    <title>VSQUARE/4) Icons/person/person</title>
    <g id="VSQUARE_Symbols" stroke="none" stroke-width="1" fill="none" fill-rule="evenodd">
        <g id="VSQUARE/4)-Icons/person/person">
            <rect id="Rectangle" x="0" y="0" width="24" height="24"></rect>
            <path d="M15.3160627,3.88173297 C14.4740666,2.99068909 13.2980412,2.5 12,2.5 C10.6950359,2.5 9.5151164,2.98772035 8.67701445,3.87325087 C7.8298262,4.7685358 7.41704909,5.98529206 7.5139695,7.29916828 C7.70607961,9.89129593 9.7184762,11.9999443 12,11.9999443 C14.2815238,11.9999443 16.2904589,9.89172003 16.4855978,7.30001649 C16.5838163,5.99801519 16.1684431,4.78380357 15.3160627,3.88173297 Z M19.6151752,21.4998885 L4.38482478,21.4998885 C3.98110489,21.505036 3.59649735,21.3316542 3.33773818,21.0278601 C3.05649592,20.6983307 2.94313365,20.2483557 3.02707365,19.7932914 C3.39225592,17.8076334 4.53193612,16.1396298 6.32323302,14.9686769 C7.91463156,13.9291963 9.9304896,13.3570792 12,13.3570792 C14.0695104,13.3570792 16.0853684,13.9296205 17.676767,14.9686769 C19.4680639,16.1392057 20.6077441,17.8072093 20.9729264,19.7928673 C21.0568664,20.2479316 20.9435041,20.6979066 20.6622618,21.027436 C20.4035866,21.3313883 20.0189667,21.5049314 19.6151752,21.4998885 Z" id="Combined-Shape" fill="#000000" fill-rule="nonzero"></path>
        </g>
    </g>
</svg>