<?xml version="1.0" encoding="UTF-8"?>
<svg width="24px" height="24px" viewBox="0 0 24 24" version="1.1" xmlns="http://www.w3.org/2000/svg" xmlns:xlink="http://www.w3.org/1999/xlink">
    <title>VSQUARE/4) Icons/person_circle/person_circle_outline</title>
    <g id="VSQUARE_Symbols" stroke="none" stroke-width="1" fill="none" fill-rule="evenodd">
        <g id="VSQUARE/4)-Icons/person_circle/person_circle_outline">
            <rect id="Rectangle" x="0" y="0" width="24" height="24"></rect>
            <path d="M12.1328913,2.50088264 C17.2567179,2.57212594 21.4287615,6.74396897 21.4990948,11.8684628 C21.5721684,17.2107966 17.2115037,21.5721651 11.8679996,21.499095 C6.74417296,21.4278517 2.57212941,17.2560087 2.50088269,12.1324283 C2.42872255,6.79009444 6.79030064,2.42872597 12.1328913,2.50088264 Z M11.9808069,3.96225871 C7.53473753,3.9732441 3.88791019,7.69296622 3.96235388,12.1369952 C3.99500632,14.108652 4.75414006,15.9989147 6.09427499,17.4455341 C6.13110633,17.4853618 6.18373433,17.5067609 6.23790969,17.5039376 C6.29208506,17.5011142 6.34220334,17.4743605 6.37469477,17.4309201 C6.78321852,16.8966221 7.28348887,16.4392099 7.85215081,16.0800376 C9.01493383,15.3338098 10.4882795,14.9227907 12.0004455,14.9227907 C13.5126114,14.9227907 14.9859571,15.3338098 16.1487401,16.0800376 C16.7174227,16.4393693 17.2176916,16.8969349 17.6261961,17.4313768 C17.6586876,17.4748172 17.7088058,17.5015709 17.7629812,17.5043943 C17.8171566,17.5072176 17.8697846,17.4858185 17.9066159,17.4459908 C19.2785818,15.9644131 20.0400686,14.0191916 20.0385393,11.9999888 C20.0385393,7.56144013 16.4268763,3.95132309 11.9808069,3.96225871 Z M12.0004455,6.8850855 C12.8951399,6.8850855 13.7080832,7.22486122 14.289018,7.84138975 C14.8772602,8.46613866 15.1640739,9.30644421 15.0964808,10.2079459 C14.9612948,11.9999888 13.5751807,13.4613898 12.0004455,13.4613898 C10.4257102,13.4613898 9.0368559,11.9999888 8.90441007,10.2074892 C8.83910058,9.29731045 9.12819785,8.44924121 9.7068491,7.8359095 C10.2855003,7.22257779 11.0998138,6.8850855 12.0004455,6.8850855 Z" id="Combined-Shape" fill="#000000" fill-rule="nonzero"></path>
        </g>
    </g>
</svg>