<?xml version="1.0" encoding="UTF-8"?>
<svg width="24px" height="24px" viewBox="0 0 24 24" version="1.1" xmlns="http://www.w3.org/2000/svg" xmlns:xlink="http://www.w3.org/1999/xlink">
    <title>VSQUARE/4) Icons/person/person_outline</title>
    <g id="VSQUARE_Symbols" stroke="none" stroke-width="1" fill="none" fill-rule="evenodd">
        <g id="VSQUARE/4)-Icons/person/person_outline">
            <rect id="Rectangle" x="0" y="0" width="24" height="24"></rect>
            <path d="M11.9997855,2.5 C9.28255254,2.5 7.30120521,4.59505952 7.50184219,7.29922065 C7.69243909,9.86527275 9.69853886,12 11.9997855,12 C14.2998287,12 16.3035379,9.86649798 16.4976575,7.30017436 C16.6997943,4.62533169 14.704383,2.5 11.9997855,2.5 Z M11.9997855,3.85714286 C13.8965384,3.85714286 15.2597818,5.30914633 15.1169003,7.19987278 C14.9732332,9.09919764 13.5234832,10.6428571 11.9997855,10.6428571 C10.4749266,10.6428571 9.02370044,9.09858099 8.88273476,7.20072611 C8.74036432,5.28187423 10.0877665,3.85714286 11.9997855,3.85714286 Z M11.9997855,13.3571429 C9.94804358,13.3571429 7.92731863,13.9213466 6.3235102,14.9692424 C4.57049548,16.1146265 3.39831582,17.7743368 3.02681923,19.7933999 C2.86558553,20.6694544 3.44552278,21.5 4.38479535,21.5 L19.6147757,21.5 C20.5543265,21.5 21.1344414,20.6695805 20.9731786,19.7933677 C20.6014508,17.7742834 19.4291522,16.1146003 17.6761055,14.9692362 C16.0722425,13.9213422 14.0515181,13.3571429 11.9997855,13.3571429 Z M11.9997855,14.7142857 C13.7856893,14.7142857 15.5386886,15.2037345 16.9081938,16.0985094 C18.357825,17.045635 19.3080759,18.3909539 19.6106369,20.0343501 L19.6123567,20.0446572 C19.6184377,20.0853136 19.6150921,20.1189627 19.6079399,20.1405459 L19.6070556,20.1428571 L4.39286767,20.1428571 L4.39207838,20.1406323 C4.38431712,20.1172129 4.38103379,20.0796276 4.38937412,20.0343109 C4.69174957,18.3909173 5.6418719,17.045622 7.09144086,16.0985031 C8.46088487,15.2037363 10.2138775,14.7142857 11.9997855,14.7142857 Z" id="Combined-Shape" fill="#000000" fill-rule="nonzero"></path>
        </g>
    </g>
</svg>