<?xml version="1.0" encoding="UTF-8"?>
<svg width="24px" height="24px" viewBox="0 0 24 24" version="1.1" xmlns="http://www.w3.org/2000/svg" xmlns:xlink="http://www.w3.org/1999/xlink">
    <title>VSQUARE/4) Icons/play/back/play_back</title>
    <g id="VSQUARE_Symbols" stroke="none" stroke-width="1" fill="none" fill-rule="evenodd">
        <g id="VSQUARE/4)-Icons/play/back/play_back">
            <rect id="Rectangle" x="0" y="0" width="24" height="24"></rect>
            <path d="M2.61129536,10.8938111 L10.4815096,6.18662404 C10.8780664,5.9454125 11.3745454,5.93918657 11.7770301,6.17037799 C12.2135109,6.42446699 12.4801087,6.89308831 12.4754194,7.39799571 L12.4754194,10.6909438 L20.0060231,6.18537434 C20.4025799,5.94416281 20.8990589,5.93793688 21.3015436,6.1691283 C21.7380244,6.4232173 22.0046222,6.89183862 22,7.39674601 L22,16.6028374 C22.0048598,17.1079158 21.7382188,17.5767722 21.3015436,17.8308717 C20.8990589,18.0620631 20.4025799,18.0558372 20.0060231,17.8146257 L12.4754194,13.3069734 L12.4754194,16.6011712 C12.4809484,17.1068427 12.2142271,17.5764768 11.7770301,17.8308717 C11.3745454,18.0620631 10.8780664,18.0558372 10.4815096,17.8146257 L2.61129536,13.1074386 C2.23095944,12.8692663 2,12.452192 2,12.0035408 C2,11.5548896 2.23095944,11.1378153 2.61129536,10.899643 L2.61129536,10.8938111 Z" id="Path" fill="#000000" fill-rule="nonzero"></path>
        </g>
    </g>
</svg>