<?xml version="1.0" encoding="UTF-8"?>
<svg width="24px" height="24px" viewBox="0 0 24 24" version="1.1" xmlns="http://www.w3.org/2000/svg" xmlns:xlink="http://www.w3.org/1999/xlink">
    <title>VSQUARE/4) Icons/play/skip_back/play_skip_back</title>
    <g id="VSQUARE_Symbols" stroke="none" stroke-width="1" fill="none" fill-rule="evenodd">
        <g id="VSQUARE/4)-Icons/play/skip_back/play_skip_back">
            <rect id="Rectangle" x="0" y="0" width="24" height="24"></rect>
            <path d="M7.5,6 C7.77614237,6 8,6.22385763 8,6.5 L8,10.7634375 L15.2740625,6.4096875 C15.6162591,6.20153204 16.0446617,6.19626234 16.391875,6.3959375 C16.766875,6.6084375 17,7.0209375 17,7.46875 L17,16.53125 C17,16.9803125 16.766875,17.3915625 16.391875,17.6040625 C16.0445873,17.8035745 15.6162212,17.7981855 15.2740625,17.59 L8,13.2365625 L8,17.5 C8,17.7761424 7.77614237,18 7.5,18 C7.22385763,18 7,17.7761424 7,17.5 L7,6.5 C7,6.22385763 7.22385763,6 7.5,6 Z" id="Path" fill="#000000" fill-rule="nonzero"></path>
        </g>
    </g>
</svg>