<?xml version="1.0" encoding="UTF-8"?>
<svg width="24px" height="24px" viewBox="0 0 24 24" version="1.1" xmlns="http://www.w3.org/2000/svg" xmlns:xlink="http://www.w3.org/1999/xlink">
    <title>VSQUARE/4) Icons/play/skip_forward/play_skip_forward_outline</title>
    <g id="VSQUARE_Symbols" stroke="none" stroke-width="1" fill="none" fill-rule="evenodd">
        <g id="VSQUARE/4)-Icons/play/skip_forward/play_skip_forward_outline">
            <rect id="Rectangle" x="0" y="0" width="24" height="24"></rect>
            <path d="M16.5,6 C16.772855,6 16.9946626,6.21855941 16.9999051,6.49016029 L17,17.5 C17,17.7761424 16.7761424,18 16.5,18 C16.227145,18 16.0053374,17.7814406 16.0000949,17.5098397 L16,17.5 L15.999,13.236 L8.72509545,17.5905366 C7.97339671,18.0394082 7.08138214,17.4996424 7.00523664,16.6490962 L7,16.53125 L7,7.46875 C7,6.55146986 7.93922859,5.94018859 8.72552688,6.40972129 L8.72552688,6.40972129 L15.999,10.763 L16,6.5 C16,6.22385763 16.2238576,6 16.5,6 Z M8.21240455,7.26803663 C8.12366789,7.21504817 8,7.29553535 8,7.46875 L8,7.46875 L8,16.53125 C8,16.7044646 8.12366789,16.7849518 8.21197312,16.7322213 L8.21197312,16.7322213 L15.9589501,12.0955978 C16.0132666,12.0631064 16.0132666,11.9368936 15.9588481,11.9043412 L15.9588481,11.9043412 Z" id="Combined-Shape" fill="#000000" fill-rule="nonzero"></path>
        </g>
    </g>
</svg>