<?xml version="1.0" encoding="UTF-8"?>
<svg width="24px" height="24px" viewBox="0 0 24 24" version="1.1" xmlns="http://www.w3.org/2000/svg" xmlns:xlink="http://www.w3.org/1999/xlink">
    <title>VSQUARE/4) Icons/play/forward/play_forward</title>
    <g id="VSQUARE_Symbols" stroke="none" stroke-width="1" fill="none" fill-rule="evenodd">
        <g id="VSQUARE/4)-Icons/play/forward/play_forward">
            <rect id="Rectangle" x="0" y="0" width="24" height="24"></rect>
            <path d="M21.3887046,10.8938111 L13.5184894,6.18662404 C13.1219325,5.9454125 12.6254535,5.93918657 12.2229688,6.17037799 C11.7864879,6.42446699 11.5198901,6.89308831 11.5245794,7.39799571 L11.5245794,10.6909438 L3.99397485,6.18537434 C3.59741795,5.94416281 3.10093892,5.93793688 2.69845418,6.1691283 C2.2619733,6.4232173 1.99537552,6.89183862 2,7.39674601 L2,16.6028374 C1.9952252,17.1078932 2.26184303,17.5767088 2.69845418,17.8308717 C3.10093892,18.0620631 3.59741795,18.0558372 3.99397485,17.8146257 L11.5245794,13.3069734 L11.5245794,16.6011712 C11.5191379,17.1068201 11.785836,17.5764132 12.2229688,17.8308717 C12.6254535,18.0620631 13.1219325,18.0558372 13.5184894,17.8146257 L21.3887046,13.1074386 C21.7690405,12.8692663 22,12.452192 22,12.0035408 C22,11.5548896 21.7690405,11.1378153 21.3887046,10.899643 L21.3887046,10.8938111 Z" id="Path" fill="#000000" fill-rule="nonzero"></path>
        </g>
    </g>
</svg>