<?xml version="1.0" encoding="UTF-8"?>
<svg width="24px" height="24px" viewBox="0 0 24 24" version="1.1" xmlns="http://www.w3.org/2000/svg" xmlns:xlink="http://www.w3.org/1999/xlink">
    <title>VSQUARE/4) Icons/play/back/play_back_outline</title>
    <g id="VSQUARE_Symbols" stroke="none" stroke-width="1" fill="none" fill-rule="evenodd">
        <g id="VSQUARE/4)-Icons/play/back/play_back_outline">
            <rect id="Rectangle" x="0" y="0" width="24" height="24"></rect>
            <path d="M20.0048831,6.18953615 C20.9124729,5.64343124 22,6.3484317 22,7.39828539 L22,7.39828539 L22,16.6011074 C22,17.650299 20.9137045,18.3553902 20.0063132,17.8119639 L20.0063132,17.8119639 L12.476,13.306 L12.4762452,16.6011074 C12.4762452,17.6083313 11.4751153,18.2984323 10.5922231,17.8712401 L10.4825584,17.8119639 L2.61304733,13.1035793 C1.79563757,12.614665 1.79563757,11.3830621 2.61312725,10.8941 L2.61312725,10.8941 L10.4813656,6.18939343 C11.3892795,5.64360695 12.4762452,6.34843588 12.4762452,7.39828539 L12.4762452,7.39828539 L12.476,10.691 Z M20.6589993,7.35118059 L12.8861621,11.9988555 L20.6585827,16.6491123 C20.663191,16.6374266 20.6658186,16.6249681 20.6664948,16.6092434 L20.6664948,16.6092434 L20.666666,7.39828539 C20.666666,7.37868938 20.6638174,7.36363118 20.6596024,7.35258623 L20.6596024,7.35258623 L20.6589993,7.35118059 Z M11.1348279,7.35147208 L3.36240736,11.9988555 L11.1348279,16.6491123 C11.1394362,16.6374266 11.1420639,16.6249681 11.1427401,16.6092434 L11.1427401,16.6092434 L11.1429112,7.39828539 C11.1429112,7.38060346 11.140466,7.36650348 11.136348,7.355209 L11.136348,7.355209 L11.1348279,7.35147208 Z" id="Combined-Shape" fill="#000000" fill-rule="nonzero"></path>
        </g>
    </g>
</svg>