<?xml version="1.0" encoding="UTF-8"?>
<svg width="24px" height="24px" viewBox="0 0 24 24" version="1.1" xmlns="http://www.w3.org/2000/svg" xmlns:xlink="http://www.w3.org/1999/xlink">
    <title>VSQUARE/4) Icons/play/skip_back/play_skip_back_outline</title>
    <g id="VSQUARE_Symbols" stroke="none" stroke-width="1" fill="none" fill-rule="evenodd">
        <g id="VSQUARE/4)-Icons/play/skip_back/play_skip_back_outline">
            <rect id="Rectangle" x="0" y="0" width="24" height="24"></rect>
            <path d="M7.50001179,6 C7.77286676,6 7.99467444,6.21855941 7.9999169,6.49016029 L8.00001179,6.5 L8,10.763 L15.2749066,6.40946337 C16.0266044,5.96059184 16.918618,6.5003576 16.9947634,7.35090377 L17,7.46875 L17,16.53125 C17,17.4485301 16.0607725,18.0598114 15.2744828,17.5902833 L15.2744828,17.5902833 L8,13.236 L8.00001179,17.5 C8.00001179,17.7761424 7.77615416,18 7.50001179,18 C7.22715682,18 7.00534914,17.7814406 7.00010668,17.5098397 L7.00001179,6.5 C7.00001179,6.22385763 7.22386941,6 7.50001179,6 Z M15.82757,7.25322092 L15.7880207,7.26778327 L8.04074801,11.9044022 C7.98643148,11.9368936 7.98643148,12.0631064 8.04084232,12.0956542 L8.04084232,12.0956542 L15.7875969,16.7319634 C15.8763334,16.7849518 16.0000012,16.7044646 16.0000012,16.53125 L16.0000012,16.53125 L16.0000012,7.46875 C16.0000012,7.29553535 15.8763334,7.21504817 15.7880207,7.26778327 Z" id="Combined-Shape" fill="#000000" fill-rule="nonzero"></path>
        </g>
    </g>
</svg>