<?xml version="1.0" encoding="UTF-8"?>
<svg width="24px" height="24px" viewBox="0 0 24 24" version="1.1" xmlns="http://www.w3.org/2000/svg" xmlns:xlink="http://www.w3.org/1999/xlink">
    <title>VSQUARE/4) Icons/play/forward/play_forward_outline</title>
    <g id="VSQUARE_Symbols" stroke="none" stroke-width="1" fill="none" fill-rule="evenodd">
        <g id="VSQUARE/4)-Icons/play/forward/play_forward_outline">
            <rect id="Rectangle" x="0" y="0" width="24" height="24"></rect>
            <path d="M11.5237548,7.3971798 C11.5237548,6.34567119 12.6135885,5.64098676 13.5213823,6.1927307 L13.5213823,6.1927307 L21.3869527,10.8963434 C22.1961883,11.380422 22.2042807,12.59249 21.4111522,13.0911748 L21.4111522,13.0911748 L21.3868728,13.1060666 L13.5176864,17.8118614 C12.6100503,18.3554942 11.5237548,17.6503252 11.5237548,16.6010178 L11.5237548,16.6010178 L11.523,13.309 L3.99393167,17.8118614 C3.12260098,18.3337489 2.08661779,17.7047406 2.00513326,16.7252249 L2,16.6010178 L2,7.3971798 C2,6.34566648 3.090397,5.64081032 3.9978653,6.19287529 L3.9978653,6.19287529 L11.523,10.693 Z M3.340459,7.35270805 C3.33576852,7.36552656 3.333334,7.37956192 3.333334,7.3971798 L3.333334,7.3971798 L3.333334,16.6010178 C3.333334,16.6206462 3.33619987,16.635754 3.34046376,16.6468623 L3.34046376,16.6468623 L3.34137567,16.6490425 L11.1137546,12.001146 L3.340459,7.35270805 Z M12.8641721,7.35270805 C12.8595287,7.36543374 12.8570888,7.37951001 12.8570888,7.3971798 L12.8570888,7.3971798 L12.8570888,16.6010178 C12.8570888,16.6206462 12.8599546,16.635754 12.8642185,16.6468623 L12.8642185,16.6468623 L12.8651304,16.6490425 L20.6375093,12.001146 L12.8641721,7.35270805 Z" id="Combined-Shape" fill="#000000" fill-rule="nonzero"></path>
        </g>
    </g>
</svg>