<?xml version="1.0" encoding="UTF-8"?>
<svg width="24px" height="24px" viewBox="0 0 24 24" version="1.1" xmlns="http://www.w3.org/2000/svg" xmlns:xlink="http://www.w3.org/1999/xlink">
    <title>VSQUARE/4) Icons/power/power_sharp</title>
    <g id="VSQUARE_Symbols" stroke="none" stroke-width="1" fill="none" fill-rule="evenodd">
        <g id="VSQUARE/4)-Icons/power/power_sharp">
            <rect id="Rectangle" x="0" y="0" width="24" height="24"></rect>
            <path d="M16.9833381,4.47115385 L17.7189112,5.07692308 C19.7956363,6.77904637 20.9997769,9.32263387 21,12.0077885 C21,16.9660096 16.962569,21 12.0000463,21 C7.03752421,21 3.00004634,16.9660096 3.00004634,12.0077885 C2.99145577,9.33145569 4.1775691,6.79088171 6.23488414,5.07908654 L6.96613035,4.47331731 L8.18501827,5.93235577 L7.45377206,6.538125 C5.8309061,7.89003596 4.89595201,9.89560457 4.90392949,12.0077885 C4.90392949,15.9188942 8.08723032,19.1009135 12.0000463,19.1009135 C15.9128629,19.1009135 19.0961637,15.9188942 19.0961637,12.0077885 C19.0959804,9.88947134 18.145885,7.88287469 16.507379,6.54028846 L15.7718059,5.93451923 L16.9833381,4.47115385 Z M12.9519647,3 L12.9519647,12.6923077 L11.0481284,12.6923077 L11.0481284,3 L12.9519647,3 Z" id="Combined-Shape" fill="#000000" fill-rule="nonzero"></path>
        </g>
    </g>
</svg>