<?xml version="1.0" encoding="UTF-8"?>
<svg width="24px" height="24px" viewBox="0 0 24 24" version="1.1" xmlns="http://www.w3.org/2000/svg" xmlns:xlink="http://www.w3.org/1999/xlink">
    <title>VSQUARE/4) Icons/power/power</title>
    <g id="VSQUARE_Symbols" stroke="none" stroke-width="1" fill="none" fill-rule="evenodd">
        <g id="VSQUARE/4)-Icons/power/power">
            <rect id="Rectangle" x="0" y="0" width="24" height="24"></rect>
            <path d="M17.7188942,5.03711538 C19.796485,6.74588351 21.000235,9.29482382 21,11.9848558 C21,16.955625 16.9625481,21 12,21 C7.03745192,21 3,16.955625 3,11.9848558 C3,9.28269231 4.17908654,6.74927885 6.23480769,5.03798077 C6.49595305,4.81927212 6.85405797,4.75677044 7.17385103,4.87408526 C7.49364409,4.99140009 7.72637913,5.27064908 7.78414223,5.60634804 C7.84190533,5.942047 7.71589166,6.28302523 7.45370192,6.50048077 C5.83326923,7.85048077 4.90384615,9.84951923 4.90384615,11.9848558 C4.90384615,15.9059135 8.08716346,19.0961538 12,19.0961538 C15.9128365,19.0961538 19.0961538,15.9059135 19.0961538,11.9848558 C19.0959297,9.86299775 18.1461977,7.85257568 16.5073558,6.50480769 C16.2344167,6.29172243 16.0987129,5.94723328 16.1529941,5.60524696 C16.2072752,5.26326065 16.4429789,4.97772246 16.7684845,4.85962425 C17.0939901,4.74152604 17.457952,4.80949673 17.7188942,5.03711538 Z M12,3 C12.5257326,3 12.9519231,3.42619048 12.9519231,3.95192308 L12.9519231,11.7403846 C12.9519231,12.2661172 12.5257326,12.6923077 12,12.6923077 C11.4742674,12.6923077 11.0480769,12.2661172 11.0480769,11.7403846 L11.0480769,3.95192308 C11.0480769,3.42619048 11.4742674,3 12,3 Z" id="Combined-Shape" fill="#000000" fill-rule="nonzero"></path>
        </g>
    </g>
</svg>