<?xml version="1.0" encoding="UTF-8"?>
<svg width="24px" height="24px" viewBox="0 0 24 24" version="1.1" xmlns="http://www.w3.org/2000/svg" xmlns:xlink="http://www.w3.org/1999/xlink">
    <title>VSQUARE/4) Icons/power/power_outline</title>
    <g id="VSQUARE_Symbols" stroke="none" stroke-width="1" fill="none" fill-rule="evenodd">
        <g id="VSQUARE/4)-Icons/power/power_outline">
            <rect id="Rectangle" x="0" y="0" width="24" height="24"></rect>
            <path d="M17.7179924,5.06093572 C19.7959143,6.76580125 21.0003129,9.31225989 20.9999999,12 C20.9999999,16.9688894 16.9689145,21 12.0000562,21 C7.03119176,21 3.00003915,16.9688834 3.00003915,12.0020498 C2.99214783,9.32345474 4.17770917,6.78051862 6.23447033,5.06456013 C6.52805959,4.81961822 6.96462412,4.85905619 7.20956449,5.1526473 C7.45450486,5.4462384 7.41506714,5.88280566 7.12147788,6.12774756 C5.38113907,7.57971448 4.37796858,9.73143653 4.38468236,12 C4.38468236,16.2041795 7.79588703,19.6153846 12.0000562,19.6153846 C16.2042173,19.6153846 19.6153932,16.2041875 19.6153932,11.9999194 C19.6156579,9.72678577 18.5970785,7.5732044 16.8397462,6.13137197 C16.5441552,5.88884947 16.5011335,5.45262082 16.7436545,5.15702801 C16.9861755,4.8614352 17.4224014,4.81841322 17.7179924,5.06093572 Z M12.0000562,3 C12.377853,3 12.6849694,3.30262072 12.6922281,3.67868348 L12.6923595,12 C12.6923595,12.382351 12.3824048,12.6923077 12.0000562,12.6923077 C11.6222593,12.6923077 11.3151429,12.389687 11.3078842,12.0136242 L11.3077528,3.69230769 C11.3077528,3.30995671 11.6177076,3 12.0000562,3 Z" id="Combined-Shape" fill="#000000" fill-rule="nonzero"></path>
        </g>
    </g>
</svg>