<?xml version="1.0" encoding="UTF-8"?>
<svg width="24px" height="24px" viewBox="0 0 24 24" version="1.1" xmlns="http://www.w3.org/2000/svg" xmlns:xlink="http://www.w3.org/1999/xlink">
    <title>VSQUARE/4) Icons/pricetag/pricetag_outline</title>
    <g id="VSQUARE_Symbols" stroke="none" stroke-width="1" fill="none" fill-rule="evenodd">
        <g id="VSQUARE/4)-Icons/pricetag/pricetag_outline">
            <rect id="Rectangle" x="0" y="0" width="24" height="24"></rect>
            <path d="M19.6027981,2.50000186 C20.107314,2.4992956 20.5912737,2.69980857 20.9473995,3.05709647 C21.3035173,3.41437639 21.5023906,3.89891206 21.4999783,4.40001824 L21.4999783,4.40001824 L21.4999783,9.61657448 C21.4999783,9.95777913 21.3651556,10.285201 21.1229819,10.5289929 L21.1229819,10.5289929 L10.7033609,20.9463149 C9.96112845,21.6847572 8.76157456,21.6847572 8.01816513,20.945141 L8.01816513,20.945141 L3.05380716,15.9818742 C2.31520204,15.2398053 2.31520204,14.0405158 3.0549813,13.2972702 L3.0549813,13.2972702 L13.4793268,2.87522764 C13.7215143,2.63475929 14.0490088,2.50000186 14.3902869,2.50000186 L14.3902869,2.50000186 Z M19.6037509,3.85715537 L14.4168395,3.85715537 L4.01601895,14.2557454 C3.80440076,14.468356 3.80440076,14.8119651 4.0148448,15.0233989 L4.0148448,15.0233989 L8.97685161,19.9843151 C9.18950905,20.1958867 9.53319395,20.1958867 9.74467437,19.985489 L9.74467437,19.985489 L20.1425185,9.58993915 L20.1425185,4.39673328 C20.1431799,4.25883764 20.0907777,4.1261818 19.9965136,4.02606665 L19.9965136,4.02606665 L19.9858681,4.01507804 C19.8849149,3.91379542 19.7477232,3.85695449 19.6037509,3.85715537 L19.6037509,3.85715537 Z M17.4297067,5.21430995 C18.1794068,5.21430995 18.7871587,5.82192797 18.7871587,6.57146279 C18.7871587,6.93140211 18.6441419,7.27659924 18.3895703,7.53111477 C18.1349986,7.7856303 17.7897254,7.92861563 17.4297067,7.92861563 C16.6800067,7.92861563 16.0722548,7.32099761 16.0722548,6.57146279 C16.0722548,5.82192797 16.6800067,5.21430995 17.4297067,5.21430995 Z" id="Combined-Shape" fill="#000000" fill-rule="nonzero"></path>
        </g>
    </g>
</svg>