<?xml version="1.0" encoding="UTF-8"?>
<svg width="24px" height="24px" viewBox="0 0 24 24" version="1.1" xmlns="http://www.w3.org/2000/svg" xmlns:xlink="http://www.w3.org/1999/xlink">
    <title>VSQUARE/4) Icons/pricetag/pricetag</title>
    <g id="VSQUARE_Symbols" stroke="none" stroke-width="1" fill="none" fill-rule="evenodd">
        <g id="VSQUARE/4)-Icons/pricetag/pricetag">
            <rect id="Rectangle" x="0" y="0" width="24" height="24"></rect>
            <path d="M20.9485975,3.05981697 C20.5934404,2.70056089 20.1089497,2.49888271 19.6037737,2.50000466 L14.3903022,2.50000466 C14.0483118,2.50064698 13.7203687,2.63612026 13.4776372,2.8770313 L3.05535925,13.2970867 C2.31488025,14.0390791 2.31488025,15.2404744 3.05535925,15.9824669 L8.01733899,20.944398 C8.75953291,21.6852007 9.96139974,21.6852007 10.7035937,20.944398 L21.1216306,10.5285836 C21.3630241,10.2862433 21.4989787,9.95840066 21.4999647,9.61635162 L21.4999647,4.39996247 C21.5030456,3.89743917 21.3044361,3.41467009 20.9485975,3.05981697 Z M17.4285606,7.92844684 C16.6790424,7.92844684 16.0714379,7.32084828 16.0714379,6.57133747 C16.0714379,5.82182666 16.6790424,5.21422809 17.4285606,5.21422809 C18.1780787,5.21422809 18.7856832,5.82182666 18.7856832,6.57133747 C18.7856832,6.93126525 18.6427011,7.27645133 18.3881912,7.5309587 C18.1336813,7.78546608 17.7884919,7.92844684 17.4285606,7.92844684 Z" id="Shape" fill="#000000" fill-rule="nonzero"></path>
        </g>
    </g>
</svg>