<?xml version="1.0" encoding="UTF-8"?>
<svg width="24px" height="24px" viewBox="0 0 24 24" version="1.1" xmlns="http://www.w3.org/2000/svg" xmlns:xlink="http://www.w3.org/1999/xlink">
    <title>VSQUARE/4) Icons/qr_code/qr_code_sharp</title>
    <g id="VSQUARE_Symbols" stroke="none" stroke-width="1" fill="none" fill-rule="evenodd">
        <g id="VSQUARE/4)-Icons/qr_code/qr_code_sharp">
            <rect id="Rectangle" x="0" y="0" width="24" height="24"></rect>
            <path d="M14.8571429,19.8571429 L14.8571429,22 L12.7142857,22 L12.7142857,19.8571429 L14.8571429,19.8571429 Z M22,19.1428571 L22,22 L19.1428571,22 L19.1428571,19.1428571 L22,19.1428571 Z M19.1428571,15.5714286 L19.1428571,19.1428571 L15.5714286,19.1428571 L15.5714286,15.5714286 L19.1428571,15.5714286 Z M15.5714286,12.7142857 L15.5714286,15.5714286 L12.7142857,15.5714286 L12.7142857,12.7142857 L15.5714286,12.7142857 Z M22,12.7142857 L22,14.8571429 L19.8571429,14.8571429 L19.8571429,12.7142857 L22,12.7142857 Z M22,2 L22,11.2857143 L12.7142857,11.2857143 L12.7142857,2 L22,2 Z M20.0357143,3.96428571 L14.6785714,3.96428571 L14.6785714,9.32142857 L20.0357143,9.32142857 L20.0357143,3.96428571 Z M19.1428571,4.85714286 L19.1428571,8.42857143 L15.5714286,8.42857143 L15.5714286,4.85714286 L19.1428571,4.85714286 Z M11.2857143,2 L11.2857143,11.2857143 L2,11.2857143 L2,2 L11.2857143,2 Z M9.32142857,3.96428571 L3.96428571,3.96428571 L3.96428571,9.32142857 L9.32142857,9.32142857 L9.32142857,3.96428571 Z M8.42857143,4.85714286 L8.42857143,8.42857143 L4.85714286,8.42857143 L4.85714286,4.85714286 L8.42857143,4.85714286 Z M11.2857143,12.7142857 L11.2857143,22 L2,22 L2,12.7142857 L11.2857143,12.7142857 Z M9.32142857,14.6785714 L3.96428571,14.6785714 L3.96428571,20.0357143 L9.32142857,20.0357143 L9.32142857,14.6785714 Z M8.42857143,15.5714286 L8.42857143,19.1428571 L4.85714286,19.1428571 L4.85714286,15.5714286 L8.42857143,15.5714286 Z" id="Combined-Shape" fill="#000000" fill-rule="nonzero"></path>
        </g>
    </g>
</svg>