<?xml version="1.0" encoding="UTF-8"?>
<svg width="24px" height="24px" viewBox="0 0 24 24" version="1.1" xmlns="http://www.w3.org/2000/svg" xmlns:xlink="http://www.w3.org/1999/xlink">
    <title>VSQUARE/4) Icons/qr_code/qr_code</title>
    <g id="VSQUARE_Symbols" stroke="none" stroke-width="1" fill="none" fill-rule="evenodd">
        <g id="VSQUARE/4)-Icons/qr_code/qr_code">
            <rect id="Rectangle" x="0" y="0" width="24" height="24"></rect>
            <path d="M14.5,19.8571429 C14.6972446,19.8571429 14.8571429,20.0170412 14.8571429,20.2142857 L14.8571429,21.6428571 C14.8571429,21.8401017 14.6972446,22 14.5,22 L13.0714286,22 C12.874184,22 12.7142857,21.8401017 12.7142857,21.6428571 L12.7142857,20.2142857 C12.7142857,20.0170412 12.874184,19.8571429 13.0714286,19.8571429 L14.5,19.8571429 Z M21.6428571,19.1428571 C21.8401017,19.1428571 22,19.3027554 22,19.5 L22,21.6428571 C22,21.8401017 21.8401017,22 21.6428571,22 L19.5,22 C19.3027554,22 19.1428571,21.8401017 19.1428571,21.6428571 L19.1428571,19.5 C19.1428571,19.3027554 19.3027554,19.1428571 19.5,19.1428571 L21.6428571,19.1428571 Z M18.7857143,15.5714286 C18.9829588,15.5714286 19.1428571,15.7313269 19.1428571,15.9285714 L19.1428571,18.7857143 C19.1428571,18.9829588 18.9829588,19.1428571 18.7857143,19.1428571 L15.9285714,19.1428571 C15.7313269,19.1428571 15.5714286,18.9829588 15.5714286,18.7857143 L15.5714286,15.9285714 C15.5714286,15.7313269 15.7313269,15.5714286 15.9285714,15.5714286 L18.7857143,15.5714286 Z M15.2142857,12.7142857 C15.4115303,12.7142857 15.5714286,12.874184 15.5714286,13.0714286 L15.5714286,15.2142857 C15.5714286,15.4115303 15.4115303,15.5714286 15.2142857,15.5714286 L13.0714286,15.5714286 C12.874184,15.5714286 12.7142857,15.4115303 12.7142857,15.2142857 L12.7142857,13.0714286 C12.7142857,12.874184 12.874184,12.7142857 13.0714286,12.7142857 L15.2142857,12.7142857 Z M21.6428571,12.7142857 C21.8401017,12.7142857 22,12.874184 22,13.0714286 L22,14.5 C22,14.6972446 21.8401017,14.8571429 21.6428571,14.8571429 L20.2142857,14.8571429 C20.0170412,14.8571429 19.8571429,14.6972446 19.8571429,14.5 L19.8571429,13.0714286 C19.8571429,12.874184 20.0170412,12.7142857 20.2142857,12.7142857 L21.6428571,12.7142857 Z M20.5714286,2 L14.1428571,2 C13.3538789,2 12.7142857,2.63959321 12.7142857,3.42857143 L12.7142857,9.85714286 C12.7142857,10.6461211 13.3538789,11.2857143 14.1428571,11.2857143 L20.5714286,11.2857143 C21.3604068,11.2857143 22,10.6461211 22,9.85714286 L22,3.42857143 C22,2.63959321 21.3604068,2 20.5714286,2 Z M19.1428571,8.07142857 C19.1428571,8.26867312 18.9829588,8.42857143 18.7857143,8.42857143 L15.9285714,8.42857143 C15.7313269,8.42857143 15.5714286,8.26867312 15.5714286,8.07142857 L15.5714286,5.21428571 C15.5714286,5.01704116 15.7313269,4.85714286 15.9285714,4.85714286 L18.7857143,4.85714286 C18.9829588,4.85714286 19.1428571,5.01704116 19.1428571,5.21428571 L19.1428571,8.07142857 Z M9.85714286,2 L3.42857143,2 C2.63959321,2 2,2.63959321 2,3.42857143 L2,9.85714286 C2,10.6461211 2.63959321,11.2857143 3.42857143,11.2857143 L9.85714286,11.2857143 C10.6461211,11.2857143 11.2857143,10.6461211 11.2857143,9.85714286 L11.2857143,3.42857143 C11.2857143,2.63959321 10.6461211,2 9.85714286,2 Z M8.42857143,8.07142857 C8.42857143,8.26867312 8.26867312,8.42857143 8.07142857,8.42857143 L5.21428571,8.42857143 C5.01704116,8.42857143 4.85714286,8.26867312 4.85714286,8.07142857 L4.85714286,5.21428571 C4.85714286,5.01704116 5.01704116,4.85714286 5.21428571,4.85714286 L8.07142857,4.85714286 C8.26867312,4.85714286 8.42857143,5.01704116 8.42857143,5.21428571 L8.42857143,8.07142857 Z M9.85714286,12.7142857 L3.42857143,12.7142857 C2.63959321,12.7142857 2,13.3538789 2,14.1428571 L2,20.5714286 C2,21.3604068 2.63959321,22 3.42857143,22 L9.85714286,22 C10.6461211,22 11.2857143,21.3604068 11.2857143,20.5714286 L11.2857143,14.1428571 C11.2857143,13.3538789 10.6461211,12.7142857 9.85714286,12.7142857 Z M8.42857143,18.7857143 C8.42857143,18.9829588 8.26867312,19.1428571 8.07142857,19.1428571 L5.21428571,19.1428571 C5.01704116,19.1428571 4.85714286,18.9829588 4.85714286,18.7857143 L4.85714286,15.9285714 C4.85714286,15.7313269 5.01704116,15.5714286 5.21428571,15.5714286 L8.07142857,15.5714286 C8.26867312,15.5714286 8.42857143,15.7313269 8.42857143,15.9285714 L8.42857143,18.7857143 Z" id="Combined-Shape" fill="#000000" fill-rule="nonzero"></path>
        </g>
    </g>
</svg>