<?xml version="1.0" encoding="UTF-8"?>
<svg width="24px" height="24px" viewBox="0 0 24 24" version="1.1" xmlns="http://www.w3.org/2000/svg" xmlns:xlink="http://www.w3.org/1999/xlink">
    <title>VSQUARE/4) Icons/radio/radio</title>
    <g id="VSQUARE_Symbols" stroke="none" stroke-width="1" fill="none" fill-rule="evenodd">
        <g id="VSQUARE/4)-Icons/radio/radio">
            <rect id="Rectangle" x="0" y="0" width="24" height="24"></rect>
            <path d="M12.0003906,13.3800284 C12.7770296,13.3800284 13.4066198,12.7596089 13.4066198,11.9942827 C13.4066198,11.2289565 12.7770296,10.608537 12.0003906,10.608537 C11.2237517,10.608537 10.5941614,11.2289565 10.5941614,11.9942827 C10.5941614,12.7596089 11.2237517,13.3800284 12.0003906,13.3800284 Z M5.80464132,5.2158471 C6.15376168,5.52377834 6.18822551,6.05054476 5.88212165,6.40010445 C2.99708374,9.58773936 2.99708374,14.4008261 5.88212165,17.588461 C6.10800421,17.8372245 6.16451486,18.1935421 6.02642833,18.4983604 C5.88834179,18.8031786 5.58142429,18.9996201 5.24267798,19 C4.9979268,19.0004582 4.7646532,18.8977776 4.60167182,18.7178437 C1.13277606,14.887202 1.13277606,9.10136342 4.60167182,5.27072173 C4.92043123,4.93232449 5.45552095,4.90791585 5.80464132,5.2158471 Z M7.63727761,6.74899429 C7.93755001,6.81724111 8.17775515,7.03869736 8.26682455,7.32940281 C8.35589395,7.62010825 8.28019125,7.93555644 8.06841747,8.15615215 C6.01986742,10.316151 6.01986742,13.6708747 8.06841747,15.8308736 C8.30149863,16.0773026 8.3641946,16.4364338 8.22808154,16.7454516 C8.09196847,17.0544693 7.78293439,17.2545999 7.44108299,17.2551122 L7.44147361,17.2570372 C7.20317424,17.2572655 6.97555797,17.1596221 6.81335789,16.9875863 C4.14687978,14.1765061 4.14687978,9.81013468 6.81335789,6.99905452 C7.02263667,6.77615855 7.33700521,6.68074747 7.63727761,6.74899429 Z M9.60936226,8.69899323 C9.91390005,8.75908488 10.1618375,8.97642865 10.2578783,9.2674871 C10.3539191,9.55854554 10.2831168,9.87802242 10.0726847,10.1031248 C9.10000207,11.1821573 9.10000207,12.8075629 10.0726847,13.8865954 C10.297296,14.1357853 10.3526914,14.4916327 10.2142084,14.7957114 C10.0911124,15.0660036 9.83517953,15.2507058 9.54228016,15.2886091 L9.43167858,15.2958221 C9.18600524,15.2960478 8.95198039,15.1926489 8.78871933,15.0117439 C7.23705325,13.2909602 7.23705325,10.6983751 8.78871933,8.97759139 C8.99108033,8.74541384 9.30482448,8.63890157 9.60936226,8.69899323 Z M19.3983282,5.27072173 C22.8672239,9.10136342 22.8672239,14.887202 19.3983282,18.7178437 C19.2353476,18.8973338 19.0025185,19 18.7581033,19 C18.4192154,19 18.1120164,18.803595 17.9737315,18.4987114 C17.8354466,18.1938279 17.8919017,17.8373285 18.1178783,17.588461 C21.0029163,14.4008261 21.0029163,9.58773936 18.1178783,6.40010445 C17.8117745,6.05054476 17.8462383,5.52377834 18.1953587,5.2158471 C18.544479,4.90791585 19.0795688,4.93232449 19.3983282,5.27072173 Z M17.1870327,7.00097916 C19.8535108,9.81205933 19.8535108,14.1784307 17.1870327,16.9895109 C17.0245841,17.160738 16.7971753,17.2576558 16.5593076,17.2570398 C16.2174562,17.2565246 15.9084222,17.056394 15.7723091,16.7473762 C15.636196,16.4383585 15.698892,16.0792272 15.9319731,15.8327982 C17.9805232,13.6727993 17.9805232,10.3180757 15.9319731,8.1580768 C15.7201994,7.93748108 15.6444967,7.6220329 15.7335661,7.33132745 C15.8226355,7.04062201 16.0628406,6.81916575 16.363113,6.75091894 C16.6633854,6.68267212 16.9777539,6.7780832 17.1870327,7.00097916 Z M15.2112807,8.97759139 C16.7629467,10.6983751 16.7629467,13.2909602 15.2112807,15.0117439 C15.0482005,15.1924482 14.8145037,15.2958218 14.5691027,15.2958218 C14.2308793,15.295544 13.9242746,15.0997902 13.7857916,14.7957114 C13.6473086,14.4916327 13.702704,14.1357853 13.9273153,13.8865954 C14.8999979,12.8075629 14.8999979,11.1821573 13.9273153,10.1031248 C13.7168832,9.87802242 13.6460809,9.55854554 13.7421217,9.2674871 C13.8381625,8.97642865 14.0861,8.75908488 14.3906377,8.69899323 C14.6951755,8.63890157 15.0089197,8.74541384 15.2112807,8.97759139 Z" id="Combined-Shape" fill="#000000" fill-rule="nonzero"></path>
        </g>
    </g>
</svg>