<?xml version="1.0" encoding="UTF-8"?>
<svg width="24px" height="24px" viewBox="0 0 24 24" version="1.1" xmlns="http://www.w3.org/2000/svg" xmlns:xlink="http://www.w3.org/1999/xlink">
    <title>VSQUARE/4) Icons/radio/radio_sharp</title>
    <g id="VSQUARE_Symbols" stroke="none" stroke-width="1" fill="none" fill-rule="evenodd">
        <g id="VSQUARE/4)-Icons/radio/radio_sharp">
            <rect id="Rectangle" x="0" y="0" width="24" height="24"></rect>
            <path d="M5.17518716,4.5 L6.45604806,5.65209424 L5.88260988,6.29528796 C2.99736917,9.545466 2.99736917,14.454534 5.88260988,17.704712 L6.45526681,18.3482984 L5.17479653,19.5 L4.60174897,18.8564136 C1.13275034,14.9505563 1.13275034,9.04944372 4.60174897,5.14358639 L5.17518716,4.5 Z M18.8252035,4.5 L19.398251,5.14358639 C22.8672497,9.04944372 22.8672497,14.9505563 19.398251,18.8564136 L18.8255941,19.5 L17.5447332,18.3482984 L18.1173901,17.704712 C21.0026308,14.454534 21.0026308,9.545466 18.1173901,6.29528796 L17.5443426,5.65209424 L18.8252035,4.5 Z M7.40018982,6.27604712 L8.65566007,7.45602094 L8.06972187,8.08664921 C6.02029352,10.2888418 6.02029352,13.7111582 8.06972187,15.9133508 L8.65566007,16.5439791 L7.40018982,17.7235602 L6.81425161,17.0929319 C4.14703893,14.226958 4.14703893,9.77304203 6.81425161,6.90706806 L7.40018982,6.27604712 Z M16.6002008,6.27958115 L17.186139,6.91060209 C19.8533517,9.77657606 19.8533517,14.230492 17.186139,17.096466 L16.6002008,17.7235602 L15.3447306,16.5455497 L15.9306688,15.9149215 C17.9800971,13.7127289 17.9800971,10.2904125 15.9306688,8.0882199 L15.3447306,7.45759162 L16.6002008,6.27958115 Z M9.35956716,8.27827225 L10.6435531,9.42643979 L10.0724586,10.0715969 C9.09945444,11.1716122 9.09945444,12.8295658 10.0724586,13.9295812 L10.6435531,14.5751309 L9.35956716,15.7225131 L8.78847272,15.0769634 C7.23635502,13.3224875 7.23635502,10.6779052 8.78847272,8.92342932 L9.35956716,8.27827225 Z M14.6400422,8.27827225 L15.2111367,8.92342932 C16.7632544,10.6779052 16.7632544,13.3224875 15.2111367,15.0769634 L14.6408235,15.7225131 L13.3560563,14.5751309 L13.9271507,13.9295812 C14.9001549,12.8295658 14.9001549,11.1716122 13.9271507,10.0715969 L13.3560563,9.42643979 L14.6400422,8.27827225 Z M12.0001953,10.5867801 C12.7768467,10.5867801 13.406447,11.2195002 13.406447,12 C13.406447,12.7804998 12.7768467,13.4132199 12.0001953,13.4132199 C11.223544,13.4132199 10.5939436,12.7804998 10.5939436,12 C10.5939436,11.2195002 11.223544,10.5867801 12.0001953,10.5867801 Z" id="Combined-Shape" fill="#000000" fill-rule="nonzero"></path>
        </g>
    </g>
</svg>