<?xml version="1.0" encoding="UTF-8"?>
<svg width="24px" height="24px" viewBox="0 0 24 24" version="1.1" xmlns="http://www.w3.org/2000/svg" xmlns:xlink="http://www.w3.org/1999/xlink">
    <title>VSQUARE/4) Icons/radio/radio_outline</title>
    <g id="VSQUARE_Symbols" stroke="none" stroke-width="1" fill="none" fill-rule="evenodd">
        <g id="VSQUARE/4)-Icons/radio/radio_outline">
            <rect id="Rectangle" x="0" y="0" width="24" height="24"></rect>
            <path d="M12,13.2735216 C12.6903595,13.2735216 13.2500065,12.7037027 13.2500065,12.0007955 C13.2500065,11.2978882 12.6903595,10.7280693 12,10.7280693 C11.3096405,10.7280693 10.7499935,11.2978882 10.7499935,12.0007955 C10.7499935,12.7037027 11.3096405,13.2735216 12,13.2735216 Z M5.42385535,5.16151633 C5.67789957,5.39228219 5.70328567,5.78676768 5.48345403,6.04915574 L5.47415242,6.06001134 C2.53827985,9.41059368 2.50892112,14.4535122 5.38607625,17.8379413 L5.47415242,17.9399887 C5.70394673,18.2022428 5.68142796,18.6045127 5.42385535,18.8384837 C5.16628273,19.0724546 4.77119378,19.0495266 4.54139947,18.7872724 C1.15286684,14.920089 1.15286684,9.07991095 4.54139947,5.21272758 C4.77119378,4.95047344 5.16628273,4.92754538 5.42385535,5.16151633 Z M7.63301289,6.97238065 C7.88173023,7.20908568 7.89812029,7.60406468 7.67236875,7.86118902 L7.66282228,7.87182196 C5.551012,10.1721978 5.52989389,13.7325119 7.59946798,16.0580866 L7.66282228,16.128178 C7.89853076,16.3849332 7.88518464,16.7876267 7.63301289,17.0276194 C7.38084114,17.267612 6.98533607,17.2540233 6.7496276,16.9972682 C4.16740343,14.1844747 4.16740343,9.81552533 6.7496276,7.00273185 C6.98533607,6.74597673 7.38084114,6.73238804 7.63301289,6.97238065 Z M9.61235731,8.98875578 C9.86687342,9.21898196 9.89306709,9.61341272 9.67377311,9.87626677 L9.66449375,9.88714208 C8.62327452,11.0804378 8.61286233,12.8720489 9.63325717,14.077311 L9.66449375,14.1136534 C9.89375065,14.3763947 9.87040837,14.7786159 9.61235731,15.0120397 C9.35430625,15.2454634 8.9592651,15.2216969 8.7300082,14.9589556 C7.25757696,13.2714667 7.25757696,10.7293287 8.7300082,9.04183983 C8.9592651,8.77909854 9.35430625,8.75533201 9.61235731,8.98875578 Z M19.4586005,5.21272758 C22.8471332,9.07991095 22.8471332,14.920089 19.4586005,18.7872724 C19.2288062,19.0495266 18.8337173,19.0724546 18.5761447,18.8384837 C18.3221004,18.6077178 18.2967143,18.2132323 18.516546,17.9508443 L18.5258476,17.9399887 C21.4617202,14.5894063 21.4910789,9.54648776 18.6139238,6.16205869 L18.5258476,6.06001134 C18.2960533,5.79775719 18.318572,5.39548728 18.5761447,5.16151633 C18.8337173,4.92754538 19.2288062,4.95047344 19.4586005,5.21272758 Z M17.2503724,7.00273185 C19.8325966,9.81552533 19.8325966,14.1844747 17.2503724,16.9972682 C17.0146639,17.2540233 16.6191589,17.267612 16.3669871,17.0276194 C16.1182698,16.7909143 16.1018797,16.3959353 16.3276312,16.138811 L16.3371777,16.128178 C18.448988,13.8278022 18.4701061,10.2674881 16.400532,7.9419134 L16.3371777,7.87182196 C16.1014692,7.61506685 16.1148154,7.21237325 16.3669871,6.97238065 C16.6191589,6.73238804 17.0146639,6.74597673 17.2503724,7.00273185 Z M15.2707731,9.04183983 C16.7432043,10.7293287 16.7432043,13.2714667 15.2707731,14.9589556 C15.0415162,15.2216969 14.646475,15.2454634 14.3884239,15.0120397 C14.1339078,14.7818135 14.1077142,14.3873827 14.3270081,14.1245287 L14.3362875,14.1136534 C15.3775067,12.9203576 15.3879189,11.1287465 14.3675241,9.92348448 L14.3362875,9.88714208 C14.1070306,9.6244008 14.1303729,9.22217955 14.3884239,8.98875578 C14.646475,8.75533201 15.0415162,8.77909854 15.2707731,9.04183983 Z" id="Combined-Shape" fill="#000000" fill-rule="nonzero"></path>
        </g>
    </g>
</svg>