<?xml version="1.0" encoding="UTF-8"?>
<svg width="24px" height="24px" viewBox="0 0 24 24" version="1.1" xmlns="http://www.w3.org/2000/svg" xmlns:xlink="http://www.w3.org/1999/xlink">
    <title>VSQUARE/4) Icons/reader/reader_outline</title>
    <g id="VSQUARE_Symbols" stroke="none" stroke-width="1" fill="none" fill-rule="evenodd">
        <g id="VSQUARE/4)-Icons/reader/reader_outline">
            <rect id="Rectangle" x="0" y="0" width="24" height="24"></rect>
            <path d="M17.0909091,2 C18.6975556,2 20,3.27918643 20,4.85714286 L20,4.85714286 L20,19.1428571 C20,20.7208136 18.6975556,22 17.0909091,22 L17.0909091,22 L6.90909091,22 C5.30244436,22 4,20.7208136 4,19.1428571 L4,19.1428571 L4,4.85714286 C4,3.27918643 5.30244436,2 6.90909091,2 L6.90909091,2 Z M17.0909091,3.42857143 L6.90909091,3.42857143 C6.10576764,3.42857143 5.45454545,4.06816464 5.45454545,4.85714286 L5.45454545,4.85714286 L5.45454545,19.1428571 C5.45454545,19.9318354 6.10576764,20.5714286 6.90909091,20.5714286 L6.90909091,20.5714286 L17.0909091,20.5714286 C17.8942324,20.5714286 18.5454545,19.9318354 18.5454545,19.1428571 L18.5454545,19.1428571 L18.5454545,4.85714286 C18.5454545,4.06816464 17.8942324,3.42857143 17.0909091,3.42857143 L17.0909091,3.42857143 Z M12,12.7142857 C12.4016616,12.7142857 12.7272727,13.0340823 12.7272727,13.4285714 C12.7272727,13.8183642 12.4093681,14.1352324 12.0143123,14.1427216 L8.36363636,14.1428571 C7.96197473,14.1428571 7.63636364,13.8230605 7.63636364,13.4285714 C7.63636364,13.0387786 7.95426823,12.7219105 8.34932406,12.7144213 L12,12.7142857 Z M15.6363636,9.14285714 C16.0380253,9.14285714 16.3636364,9.46265375 16.3636364,9.85714286 C16.3636364,10.2469357 16.0457318,10.5638038 15.6506759,10.571293 L8.36363636,10.5714286 C7.96197473,10.5714286 7.63636364,10.251632 7.63636364,9.85714286 C7.63636364,9.46735005 7.95426823,9.15048193 8.34932406,9.1429927 L15.6363636,9.14285714 Z M15.6363636,5.57142857 C16.0380253,5.57142857 16.3636364,5.89122518 16.3636364,6.28571429 C16.3636364,6.67550709 16.0457318,6.99237521 15.6506759,6.99986445 L15.6363636,7 L8.36363636,7 C7.96197473,7 7.63636364,6.68020339 7.63636364,6.28571429 C7.63636364,5.89592148 7.95426823,5.57905336 8.34932406,5.57156413 L15.6363636,5.57142857 Z" id="Combined-Shape" fill="#000000" fill-rule="nonzero"></path>
        </g>
    </g>
</svg>