<?xml version="1.0" encoding="UTF-8"?>
<svg width="24px" height="24px" viewBox="0 0 24 24" version="1.1" xmlns="http://www.w3.org/2000/svg" xmlns:xlink="http://www.w3.org/1999/xlink">
    <title>VSQUARE/4) Icons/reader/reader</title>
    <g id="VSQUARE_Symbols" stroke="none" stroke-width="1" fill="none" fill-rule="evenodd">
        <g id="VSQUARE/4)-Icons/reader/reader">
            <rect id="Rectangle" x="0" y="0" width="24" height="24"></rect>
            <path d="M17.0909091,2 L6.90909091,2 C5.30317129,2.00172228 4.0017536,3.27990037 4,4.85714286 L4,19.1428571 C4.0017536,20.7200996 5.30317129,21.9982777 6.90909091,22 L17.0909091,22 C18.6968287,21.9982777 19.9982464,20.7200996 20,19.1428571 L20,4.85714286 C19.9982464,3.27990037 18.6968287,2.00172228 17.0909091,2 Z M12,14.1428571 L8.36363636,14.1428571 C7.96197473,14.1428571 7.63636364,13.8230605 7.63636364,13.4285714 C7.63636364,13.0340823 7.96197473,12.7142857 8.36363636,12.7142857 L12,12.7142857 C12.4016616,12.7142857 12.7272727,13.0340823 12.7272727,13.4285714 C12.7272727,13.8230605 12.4016616,14.1428571 12,14.1428571 Z M15.6363636,10.5714286 L8.36363636,10.5714286 C7.96197473,10.5714286 7.63636364,10.251632 7.63636364,9.85714286 C7.63636364,9.46265375 7.96197473,9.14285714 8.36363636,9.14285714 L15.6363636,9.14285714 C16.0380253,9.14285714 16.3636364,9.46265375 16.3636364,9.85714286 C16.3636364,10.251632 16.0380253,10.5714286 15.6363636,10.5714286 Z M15.6363636,7 L8.36363636,7 C7.96197473,7 7.63636364,6.68020339 7.63636364,6.28571429 C7.63636364,5.89122518 7.96197473,5.57142857 8.36363636,5.57142857 L15.6363636,5.57142857 C16.0380253,5.57142857 16.3636364,5.89122518 16.3636364,6.28571429 C16.3636364,6.68020339 16.0380253,7 15.6363636,7 Z" id="Shape" fill="#000000" fill-rule="nonzero"></path>
        </g>
    </g>
</svg>