<?xml version="1.0" encoding="UTF-8"?>
<svg width="24px" height="24px" viewBox="0 0 24 24" version="1.1" xmlns="http://www.w3.org/2000/svg" xmlns:xlink="http://www.w3.org/1999/xlink">
    <title>VSQUARE/4) Icons/reader/reader_sharp</title>
    <g id="VSQUARE_Symbols" stroke="none" stroke-width="1" fill="none" fill-rule="evenodd">
        <g id="VSQUARE/4)-Icons/reader/reader_sharp">
            <rect id="Rectangle" x="0" y="0" width="24" height="24"></rect>
            <path d="M4,2.53571429 L4,21.4642857 C4,21.7601525 4.24420832,22 4.54545455,22 L19.4545455,22 C19.7557917,22 20,21.7601525 20,21.4642857 L20,2.53571429 C20,2.23984746 19.7557917,2 19.4545455,2 L4.54545455,2 C4.24420832,2 4,2.23984746 4,2.53571429 Z M12.7272727,14.1428571 L7.63636364,14.1428571 L7.63636364,12.7142857 L12.7272727,12.7142857 L12.7272727,14.1428571 Z M16.3636364,10.5714286 L7.63636364,10.5714286 L7.63636364,9.14285714 L16.3636364,9.14285714 L16.3636364,10.5714286 Z M16.3636364,7 L7.63636364,7 L7.63636364,5.57142857 L16.3636364,5.57142857 L16.3636364,7 Z" id="Shape" fill="#000000" fill-rule="nonzero"></path>
        </g>
    </g>
</svg>