<?xml version="1.0" encoding="UTF-8"?>
<svg width="24px" height="24px" viewBox="0 0 24 24" version="1.1" xmlns="http://www.w3.org/2000/svg" xmlns:xlink="http://www.w3.org/1999/xlink">
    <title>VSQUARE/4) Icons/refresh/refresh_sharp</title>
    <g id="VSQUARE_Symbols" stroke="none" stroke-width="1" fill="none" fill-rule="evenodd">
        <g id="VSQUARE/4)-Icons/refresh/refresh_sharp">
            <rect id="Rectangle" x="0" y="0" width="24" height="24"></rect>
            <path d="M12,2.5 L16.3733274,6.98641951 L12,11.472839 L11.0357635,10.4836678 L13.865,7.58 L13.8061628,7.57481661 L13.7352504,7.56835044 L13.6614818,7.56220927 L13.6107097,7.5582975 L13.5321528,7.55270603 L13.4781769,7.54916406 L13.3947968,7.5441323 L13.3085061,7.53944116 L13.1889024,7.53372241 L13.0957714,7.52984009 L12.9670016,7.52521283 L12.8329532,7.52122104 L12.7289348,7.51864935 L12.6219179,7.51644352 L12.5118898,7.51460715 L12.3988381,7.51314384 L12.2433772,7.51177931 L12,7.51100676 C8.61097994,7.51100676 5.86363636,10.3293953 5.86363636,13.8060537 C5.86363636,17.2827122 8.61097994,20.1011007 12,20.1011007 C15.3551299,20.1011007 18.0813526,17.3387981 18.1355415,13.9101538 L18.1363636,13.8060537 L18.1363636,13.1066041 L19.5,13.1066041 L19.5,13.8060537 C19.5,18.0553029 16.1421356,21.5 12,21.5 C7.85786438,21.5 4.5,18.0553029 4.5,13.8060537 C4.5,9.55680452 7.85786438,6.11210743 12,6.11210743 L12.2103152,6.11261655 L12.3627124,6.11367353 L12.4617995,6.11470392 L12.5588973,6.11599753 L12.6540225,6.11755663 L12.747192,6.11938348 L12.8384225,6.12148033 L12.9277307,6.12384945 L13.0581255,6.12791858 L13.1427013,6.13097827 L13.2254136,6.13431813 L13.3062789,6.13794044 L13.3853142,6.14184744 L13.4625361,6.14604141 L13.5379614,6.15052461 L13.6116068,6.15529928 L13.636,6.157 L11.0357635,3.4891712 L12,2.5 Z" id="Combined-Shape" fill="#000000" fill-rule="nonzero"></path>
        </g>
    </g>
</svg>