<?xml version="1.0" encoding="UTF-8"?>
<svg width="24px" height="24px" viewBox="0 0 24 24" version="1.1" xmlns="http://www.w3.org/2000/svg" xmlns:xlink="http://www.w3.org/1999/xlink">
    <title>VSQUARE/4) Icons/refresh/refresh</title>
    <g id="VSQUARE_Symbols" stroke="none" stroke-width="1" fill="none" fill-rule="evenodd">
        <g id="VSQUARE/4)-Icons/refresh/refresh">
            <rect id="Rectangle" x="0" y="0" width="24" height="24"></rect>
            <path d="M12.470929,3.18628982 L12.4821183,3.19708703 L15.8912092,6.56157301 C16.1537776,6.82070595 16.1574244,7.23860728 15.9021495,7.50215046 L15.8912092,7.51319335 L12.4821183,10.8776793 C12.2158517,11.140462 11.7841483,11.140462 11.5178817,10.8776793 C11.2553133,10.6185464 11.2516665,10.2006451 11.5069414,9.93710188 L11.5178817,9.92605899 L13.865,7.608 L13.8061628,7.60344359 L13.7352504,7.59722288 L13.6614818,7.59131484 L13.6107097,7.58755157 L13.5321528,7.58217237 L13.4781769,7.57876486 L13.3947968,7.57392411 L13.3085061,7.56941106 L13.1889024,7.5639094 L13.0957714,7.56017446 L12.9670016,7.55572286 L12.8329532,7.5518826 L12.7289348,7.54940854 L12.6219179,7.54728645 L12.5118898,7.54551979 L12.3988381,7.54411203 L12.2433772,7.5427993 L12,7.54205607 C8.61097994,7.54205607 5.86363636,10.2534531 5.86363636,13.5981308 C5.86363636,16.9428086 8.61097994,19.6542056 12,19.6542056 C15.3551299,19.6542056 18.0813526,16.9967654 18.1355415,13.6982791 L18.1363636,13.5981308 C18.1363636,13.2265 18.441624,12.9252336 18.8181818,12.9252336 C19.1947396,12.9252336 19.5,13.2265 19.5,13.5981308 C19.5,17.6860703 16.1421356,21 12,21 C7.85786438,21 4.5,17.6860703 4.5,13.5981308 C4.5,9.51019138 7.85786438,6.19626168 12,6.19626168 L12.2103152,6.19675147 L12.3627124,6.19776833 L12.4617995,6.1987596 L12.5588973,6.20000411 L12.6540225,6.20150402 L12.747192,6.20326152 L12.8384225,6.20527877 L12.9277307,6.20755795 L13.0581255,6.21147261 L13.1427013,6.21441614 L13.2254136,6.21762922 L13.3062789,6.22111402 L13.3853142,6.2248727 L13.4625361,6.22890746 L13.5379614,6.23322047 L13.6116068,6.23781389 L13.635,6.239 L11.5178817,4.14870737 C11.2553133,3.88957443 11.2516665,3.47167309 11.5069414,3.20812992 L11.5178817,3.19708703 C11.7804502,2.93795408 12.2038918,2.93435502 12.470929,3.18628982 Z" id="Combined-Shape" fill="#000000" fill-rule="nonzero"></path>
        </g>
    </g>
</svg>