<?xml version="1.0" encoding="UTF-8"?>
<svg width="24px" height="24px" viewBox="0 0 24 24" version="1.1" xmlns="http://www.w3.org/2000/svg" xmlns:xlink="http://www.w3.org/1999/xlink">
    <title>VSQUARE/4) Icons/refresh_circle/refresh_circle</title>
    <g id="VSQUARE_Symbols" stroke="none" stroke-width="1" fill="none" fill-rule="evenodd">
        <g id="VSQUARE/4)-Icons/refresh_circle/refresh_circle">
            <rect id="Rectangle" x="0" y="0" width="24" height="24"></rect>
            <path d="M12,3 C7.03745192,3 3,7.03788462 3,12 C3,16.9699038 7.03009615,21 12,21 C16.9625481,21 21,16.9625481 21,12 C21,7.02966346 16.9703365,3 12,3 Z M12,16.5432692 C9.75368799,16.5432692 7.93269231,14.7222735 7.93269231,12.4759615 C7.93269231,10.2296495 9.75368799,8.40865385 12,8.40865385 L12.1821635,8.40865385 L11.5716346,7.79855769 C11.3350549,7.56197802 11.3350549,7.17840659 11.5716346,6.94182692 C11.8082143,6.70524725 12.1917857,6.70524725 12.4283654,6.94182692 L14.1591346,8.67259615 C14.2727518,8.7862017 14.3365822,8.94029084 14.3365822,9.10096154 C14.3365822,9.26163224 14.2727518,9.41572138 14.1591346,9.52932692 L12.4283654,11.2600962 C12.1917857,11.4966758 11.8082143,11.4966758 11.5716346,11.2600961 C11.335055,11.0235165 11.335055,10.6399451 11.5716346,10.4033654 L12.3504808,9.62451923 C12.2475,9.62019231 12.1298077,9.62019231 12,9.62019231 C10.4228022,9.62019231 9.14423077,10.8987637 9.14423077,12.4759615 C9.14423077,14.0531593 10.4228022,15.3317308 12,15.3317308 C13.5771978,15.3317308 14.8557692,14.0531593 14.8557692,12.4759615 C14.8557692,12.1414044 15.1269814,11.8701923 15.4615385,11.8701923 C15.7960956,11.8701923 16.0673077,12.1414044 16.0673077,12.4759615 C16.0646849,14.7211863 14.2452247,16.5406464 12,16.5432692 L12,16.5432692 Z" id="Shape" fill="#000000" fill-rule="nonzero"></path>
        </g>
    </g>
</svg>