<?xml version="1.0" encoding="UTF-8"?>
<svg width="24px" height="24px" viewBox="0 0 24 24" version="1.1" xmlns="http://www.w3.org/2000/svg" xmlns:xlink="http://www.w3.org/1999/xlink">
    <title>VSQUARE/4) Icons/refresh/refresh_outline</title>
    <g id="VSQUARE_Symbols" stroke="none" stroke-width="1" fill="none" fill-rule="evenodd">
        <g id="VSQUARE/4)-Icons/refresh/refresh_outline">
            <rect id="Rectangle" x="0" y="0" width="24" height="24"></rect>
            <g id="refresh-outline" transform="translate(4.500000, 3.000000)" fill="#000000" fill-rule="nonzero">
                <path d="M7.97092897,0.18628982 L7.98211826,0.197087026 L11.3912092,3.56157301 C11.6537776,3.82070595 11.6574244,4.23860728 11.4021495,4.50215046 L11.3912092,4.51319335 L7.98211826,7.87767933 C7.7158517,8.14046203 7.2841483,8.14046203 7.01788174,7.87767933 C6.75531332,7.61854639 6.75166654,7.20064505 7.00694139,6.93710188 L7.01788174,6.92605899 L9.365,4.608 L9.30616277,4.60344359 L9.23525038,4.59722288 L9.16148177,4.59131484 L9.1107097,4.58755157 L9.0321528,4.58217237 L8.97817691,4.57876486 L8.89479684,4.57392411 L8.80850612,4.56941106 L8.68890243,4.5639094 L8.59577135,4.56017446 L8.46700161,4.55572286 L8.33295318,4.5518826 L8.22893481,4.54940854 L8.12191788,4.54728645 L8.01188983,4.54551979 L7.89883809,4.54411203 L7.74337723,4.5427993 L7.5,4.54205607 C4.11097994,4.54205607 1.36363636,7.2534531 1.36363636,10.5981308 C1.36363636,13.9428086 4.11097994,16.6542056 7.5,16.6542056 C10.8551299,16.6542056 13.5813526,13.9967654 13.6355415,10.6982791 L13.6363636,10.5981308 C13.6363636,10.2265 13.941624,9.92523364 14.3181818,9.92523364 C14.6947396,9.92523364 15,10.2265 15,10.5981308 C15,14.6860703 11.6421356,18 7.5,18 C3.35786438,18 0,14.6860703 0,10.5981308 C0,6.51019138 3.35786438,3.19626168 7.5,3.19626168 L7.71031516,3.19675147 L7.86271236,3.19776833 L7.96179946,3.1987596 L8.05889727,3.20000411 L8.15402255,3.20150402 L8.24719205,3.20326152 L8.33842253,3.20527877 L8.42773075,3.20755795 L8.55812548,3.21147261 L8.64270133,3.21441614 L8.72541357,3.21762922 L8.80627894,3.22111402 L8.8853142,3.2248727 L8.9625361,3.22890746 L9.0379614,3.23322047 L9.11160685,3.23781389 L9.135,3.239 L7.01788174,1.14870737 C6.75531332,0.889574426 6.75166654,0.471673091 7.00694139,0.208129916 L7.01788174,0.197087026 C7.28045016,-0.0620459155 7.70389185,-0.0656449841 7.97092897,0.18628982 Z" id="Combined-Shape"></path>
            </g>
        </g>
    </g>
</svg>