<?xml version="1.0" encoding="UTF-8"?>
<svg width="24px" height="24px" viewBox="0 0 24 24" version="1.1" xmlns="http://www.w3.org/2000/svg" xmlns:xlink="http://www.w3.org/1999/xlink">
    <title>VSQUARE/4) Icons/refresh_circle/refresh_circle_outline</title>
    <g id="VSQUARE_Symbols" stroke="none" stroke-width="1" fill="none" fill-rule="evenodd">
        <g id="VSQUARE/4)-Icons/refresh_circle/refresh_circle_outline">
            <rect id="Rectangle" x="0" y="0" width="24" height="24"></rect>
            <path d="M12,3 C16.9688894,3 21,7.03111056 21,12 C21,16.9688894 16.9688894,21 12,21 C7.03111056,21 3,16.9688894 3,12 C3,7.03111056 7.03111056,3 12,3 Z M12,4.38461538 C7.79581252,4.38461538 4.38461538,7.79581252 4.38461538,12 C4.38461538,16.2041875 7.79581252,19.6153846 12,19.6153846 C16.2041875,19.6153846 19.6153846,16.2041875 19.6153846,12 C19.6153846,7.79581252 16.2041875,4.38461538 12,4.38461538 Z M12.4173217,6.93109825 L12.4283435,6.94184878 L14.1591128,8.67261801 C14.3920409,8.90554611 14.3956244,9.28097066 14.1698633,9.51828327 L14.1591128,9.52930507 L12.4283435,11.2600743 C12.1917759,11.4966419 11.8082241,11.4966419 11.5716565,11.2600743 C11.3387284,11.0271462 11.3351449,10.6517216 11.5609059,10.414409 L12.351,9.623 L12.3438384,9.62347242 L12.2850088,9.62238998 L12.2243257,9.62152036 L12.1298104,9.62062101 L12,9.62019231 C10.4228022,9.62019231 9.14423077,10.8987637 9.14423077,12.4759615 C9.14423077,14.0531593 10.4228022,15.3317308 12,15.3317308 C13.5614258,15.3317308 14.8301679,14.0786029 14.8553866,12.5231869 L14.8557692,12.4759615 C14.8557692,12.1414044 15.1269814,11.8701923 15.4615385,11.8701923 C15.7960956,11.8701923 16.0673077,12.1414044 16.0673077,12.4759615 C16.0673077,14.7222735 14.246312,16.5432692 12,16.5432692 C9.75368799,16.5432692 7.93269231,14.7222735 7.93269231,12.4759615 C7.93269231,10.2296495 9.75368799,8.40865385 12,8.40865385 L12.0905263,8.40882304 L12.1782504,8.40933752 L12.183,8.409 L11.5716565,7.79853584 C11.3387284,7.56560774 11.3351449,7.19018318 11.5609059,6.95287058 L11.5716565,6.94184878 C11.8045846,6.70892068 12.1800091,6.70533717 12.4173217,6.93109825 Z" id="Combined-Shape" fill="#000000" fill-rule="nonzero"></path>
        </g>
    </g>
</svg>