<?xml version="1.0" encoding="UTF-8"?>
<svg width="24px" height="24px" viewBox="0 0 24 24" version="1.1" xmlns="http://www.w3.org/2000/svg" xmlns:xlink="http://www.w3.org/1999/xlink">
    <title>VSQUARE/4) Icons/refresh_circle/refresh_circle_sharp</title>
    <g id="VSQUARE_Symbols" stroke="none" stroke-width="1" fill="none" fill-rule="evenodd">
        <g id="VSQUARE/4)-Icons/refresh_circle/refresh_circle_sharp">
            <rect id="Rectangle" x="0" y="0" width="24" height="24"></rect>
            <path d="M12,3 C7.03745192,3 3,7.03788462 3,12 C3,16.9699038 7.03009615,21 12,21 C16.9625481,21 21,16.9625481 21,12 C21,7.02966346 16.9703365,3 12,3 Z M16.0673077,12.4759615 C16.0673077,14.7222735 14.246312,16.5432692 12,16.5432692 C9.75368799,16.5432692 7.93269231,14.7222735 7.93269231,12.4759615 C7.93269231,10.2296495 9.75368799,8.40865385 12,8.40865385 L12.1821635,8.40865385 L11.1437019,7.37019231 L12,6.51346154 L14.5875,9.10096154 L12,11.6884615 L11.1432692,10.8317308 L12.3513462,9.62365385 C12.2475,9.62019231 12.1298077,9.62019231 12,9.62019231 C10.4228022,9.62019231 9.14423077,10.8987637 9.14423077,12.4759615 C9.14423077,14.0531593 10.4228022,15.3317308 12,15.3317308 C13.5771978,15.3317308 14.8557692,14.0531593 14.8557692,12.4759615 L14.8557692,11.8701923 L16.0673077,11.8701923 L16.0673077,12.4759615 Z" id="Shape" fill="#000000" fill-rule="nonzero"></path>
        </g>
    </g>
</svg>