<?xml version="1.0" encoding="UTF-8"?>
<svg width="24px" height="24px" viewBox="0 0 24 24" version="1.1" xmlns="http://www.w3.org/2000/svg" xmlns:xlink="http://www.w3.org/1999/xlink">
    <title>VSQUARE/4) Icons/reload_circle/reload_circle</title>
    <g id="VSQUARE_Symbols" stroke="none" stroke-width="1" fill="none" fill-rule="evenodd">
        <g id="VSQUARE/4)-Icons/reload_circle/reload_circle">
            <rect id="Rectangle" x="0" y="0" width="24" height="24"></rect>
            <path d="M12,3 C7.03745192,3 3,7.03745192 3,12 C3,16.9625481 7.03745192,21 12,21 C16.9625481,21 21,16.9625481 21,12 C21,7.03745192 16.9625481,3 12,3 Z M17.1923077,10.8814904 C17.1923077,11.087482 17.0253185,11.2544712 16.8193269,11.2544712 L14.2430769,11.2544712 C14.0921561,11.2547105 13.9560011,11.1638731 13.898271,11.02443 C13.840541,10.8849868 13.8726428,10.7244904 13.9795673,10.6179808 L14.9388462,9.65870192 L14.6965385,9.37701923 C13.5033054,8.13827046 11.6243396,7.86099886 10.124163,8.70229177 C8.62398641,9.54358468 7.88068756,11.2914117 8.31538005,12.9555469 C8.75007254,14.6196821 10.2532011,15.7807147 11.9731731,15.7808654 C13.5752959,15.7793721 15.0032477,14.770173 15.5394231,13.2604327 C15.6218947,13.0270077 15.8226325,12.8553123 16.0660202,12.8100223 C16.309408,12.7647324 16.5584695,12.8527286 16.7193856,13.0408637 C16.8803017,13.2289987 16.9286255,13.4886904 16.8461538,13.7221154 C15.9708529,16.1992401 13.3758838,17.6249981 10.8156608,17.0354588 C8.25543769,16.4459195 6.54535336,14.0288424 6.84156645,11.4183719 C7.13777954,8.8079013 9.3459506,6.83543312 11.9731731,6.8344818 C13.3859771,6.82912157 14.7382312,7.40769719 15.7099038,8.43331731 L15.7341346,8.46014423 L15.920625,8.67649038 L16.5558173,8.04129808 C16.6241568,7.97139087 16.7176721,7.93180275 16.8154327,7.93139423 C16.9149125,7.93058515 17.0105837,7.9695972 17.0811318,8.0397389 C17.1516799,8.10988059 17.191244,8.20532486 17.1910096,8.30480769 L17.1923077,10.8814904 Z" id="Shape" fill="#000000" fill-rule="nonzero"></path>
        </g>
    </g>
</svg>