<?xml version="1.0" encoding="UTF-8"?>
<svg width="24px" height="24px" viewBox="0 0 24 24" version="1.1" xmlns="http://www.w3.org/2000/svg" xmlns:xlink="http://www.w3.org/1999/xlink">
    <title>VSQUARE/4) Icons/reload_circle/reload_circle_sharp</title>
    <g id="VSQUARE_Symbols" stroke="none" stroke-width="1" fill="none" fill-rule="evenodd">
        <g id="VSQUARE/4)-Icons/reload_circle/reload_circle_sharp">
            <rect id="Rectangle" x="0" y="0" width="24" height="24"></rect>
            <path d="M12,3 C7.03745192,3 3,7.03745192 3,12 C3,16.9625481 7.03745192,21 12,21 C16.9625481,21 21,16.9625481 21,12 C21,7.03745192 16.9625481,3 12,3 Z M17.1923077,11.2544712 L13.3413462,11.2544712 L14.9371154,9.65870192 L14.6948077,9.37701923 C13.5015747,8.13827046 11.6226088,7.86099886 10.1224322,8.70229177 C8.62225564,9.54358468 7.87895679,11.2914117 8.31364928,12.9555469 C8.74834177,14.6196821 10.2514704,15.7807147 11.9714423,15.7808654 C13.5735651,15.7793721 15.0015169,14.770173 15.5376923,13.2604327 L15.7700481,12.6057692 L17.0754808,13.0674519 L16.8461538,13.7221154 C15.9708529,16.1992401 13.3758838,17.6249981 10.8156608,17.0354588 C8.25543769,16.4459195 6.54535336,14.0288424 6.84156645,11.4183719 C7.13777954,8.8079013 9.3459506,6.83543312 11.9731731,6.8344818 C13.3859771,6.82912157 14.7382312,7.40769719 15.7099038,8.43331731 L15.7341346,8.46014423 L15.920625,8.67649038 L17.1923077,7.40524038 L17.1923077,11.2544712 Z" id="Shape" fill="#000000" fill-rule="nonzero"></path>
        </g>
    </g>
</svg>