<?xml version="1.0" encoding="UTF-8"?>
<svg width="24px" height="24px" viewBox="0 0 24 24" version="1.1" xmlns="http://www.w3.org/2000/svg" xmlns:xlink="http://www.w3.org/1999/xlink">
    <title>VSQUARE/4) Icons/reload_circle/reload_circle_outline</title>
    <g id="VSQUARE_Symbols" stroke="none" stroke-width="1" fill="none" fill-rule="evenodd">
        <g id="VSQUARE/4)-Icons/reload_circle/reload_circle_outline">
            <rect id="Rectangle" x="0" y="0" width="24" height="24"></rect>
            <path d="M12,3 C16.9688894,3 21,7.03111056 21,12 C21,16.9688894 16.9688894,21 12,21 C7.03111056,21 3,16.9688894 3,12 C3,7.03111056 7.03111056,3 12,3 Z M12,4.38461538 C7.79581252,4.38461538 4.38461538,7.79581252 4.38461538,12 C4.38461538,16.2041875 7.79581252,19.6153846 12,19.6153846 C16.2041875,19.6153846 19.6153846,16.2041875 19.6153846,12 C19.6153846,7.79581252 16.2041875,4.38461538 12,4.38461538 Z M15.6617589,8.38351081 L15.7099255,8.43327616 L15.722481,8.44642193 L15.921,8.678 L16.5571154,8.04259615 C16.60837,7.99016575 16.673786,7.95478983 16.7445333,7.94020643 L16.8167308,7.93269231 C16.9175087,7.93101784 17.0131799,7.97002989 17.083728,8.04017159 C17.1542761,8.11031328 17.1938401,8.20575755 17.1936068,8.30524038 L17.1936068,8.30524038 L17.1936068,10.8823558 C17.1936068,11.0883474 17.0266166,11.255337 16.820625,11.255337 L16.820625,11.255337 L14.244375,11.255337 C14.0934542,11.2555759 13.9572992,11.1647385 13.8995691,11.0252954 C13.8418391,10.8858522 13.8739409,10.7253558 13.9808654,10.6188462 L13.9808654,10.6188462 L14.939,9.659 L14.6973606,9.37797115 L14.6733778,9.3531839 C13.5152289,8.17239344 11.7228231,7.88179184 10.2509259,8.63617461 L10.2059689,8.65959454 C8.71080885,9.45115076 7.92356509,11.1396921 8.27848708,12.7938067 C8.63340908,14.4479214 10.0440789,15.6648583 11.7323606,15.773346 C13.4037595,15.8807489 14.944356,14.8758715 15.5219712,13.308055 L15.539179,13.2603736 C15.6665823,12.899873 16.0621066,12.7109103 16.4226071,12.8383136 C16.7831077,12.9657169 16.9720704,13.3612412 16.8446671,13.7217418 C16.0744893,15.9010385 13.9501985,17.3033339 11.6435693,17.1551115 C9.33694015,17.0068892 7.40960065,15.3442389 6.92468549,13.0842908 C6.43977032,10.8243427 7.51534875,8.51735887 9.55812381,7.4358885 C11.5804711,6.36523283 14.063282,6.75378399 15.6617589,8.38351081 Z" id="Combined-Shape" fill="#000000" fill-rule="nonzero"></path>
        </g>
    </g>
</svg>