<?xml version="1.0" encoding="UTF-8"?>
<svg width="24px" height="24px" viewBox="0 0 24 24" version="1.1" xmlns="http://www.w3.org/2000/svg" xmlns:xlink="http://www.w3.org/1999/xlink">
    <title>VSQUARE/4) Icons/remove_circle/remove_circle</title>
    <g id="VSQUARE_Symbols" stroke="none" stroke-width="1" fill="none" fill-rule="evenodd">
        <g id="VSQUARE/4)-Icons/remove_circle/remove_circle">
            <rect id="Rectangle" x="0" y="0" width="24" height="24"></rect>
            <path d="M12,3 C7.03745192,3 3,7.03745192 3,12 C3,16.9625481 7.03745192,21 12,21 C16.9625481,21 21,16.9625481 21,12 C21,7.03745192 16.9625481,3 12,3 Z M15.4615385,12.6923077 L8.53846154,12.6923077 C8.15611056,12.6923077 7.84615385,12.382351 7.84615385,12 C7.84615385,11.617649 8.15611056,11.3076923 8.53846154,11.3076923 L15.4615385,11.3076923 C15.8438894,11.3076923 16.1538462,11.617649 16.1538462,12 C16.1538462,12.382351 15.8438894,12.6923077 15.4615385,12.6923077 Z" id="Shape" fill="#000000" fill-rule="nonzero"></path>
        </g>
    </g>
</svg>