<?xml version="1.0" encoding="UTF-8"?>
<svg width="24px" height="24px" viewBox="0 0 24 24" version="1.1" xmlns="http://www.w3.org/2000/svg" xmlns:xlink="http://www.w3.org/1999/xlink">
    <title>VSQUARE/4) Icons/repeat/repeat_outline</title>
    <g id="VSQUARE_Symbols" stroke="none" stroke-width="1" fill="none" fill-rule="evenodd">
        <g id="VSQUARE/4)-Icons/repeat/repeat_outline">
            <rect id="Rectangle" x="0" y="0" width="24" height="24"></rect>
            <path d="M20.3076923,10.9736842 C20.6854915,10.9736842 20.9926098,11.2727655 21,11.6444299 L21,12.3441487 C20.9932257,14.5848535 19.1752561,16.4039003 16.9147869,16.446619 L16.8461538,16.4473684 L8.825,16.447 L9.72030469,17.3319796 C9.98691262,17.5954693 9.99061551,18.0203967 9.73141336,18.2883708 L9.72030469,18.2995994 C9.45369676,18.5630891 9.02374058,18.5667487 8.7525952,18.3105781 L8.74123377,18.2995994 L6.66431069,16.2469678 C6.39770276,15.9834781 6.39399987,15.5585506 6.65320203,15.2905765 L6.66431069,15.279348 L8.74123377,13.2267164 C9.01159674,12.9595156 9.44994172,12.9595156 9.72030469,13.2267164 C9.98691262,13.4902061 9.99061551,13.9151336 9.73141336,14.1831077 L9.72030469,14.1943362 L8.825,15.078 L16.8440862,15.0789504 C18.3574522,15.0744835 19.5860315,13.8751855 19.6148786,12.3872807 L19.6153846,12.3421053 L19.6153846,11.6578947 C19.6153846,11.2800157 19.9253413,10.9736842 20.3076923,10.9736842 Z M15.2474048,5.68942189 L15.2587662,5.70040062 L17.3356893,7.7530322 C17.6022972,8.01652191 17.6060001,8.44144936 17.346798,8.70942345 L17.3356893,8.72065201 L15.2587662,10.7732836 C14.9884033,11.0404844 14.5500583,11.0404844 14.2796953,10.7732836 C14.0130874,10.5097939 14.0093845,10.0848664 14.2685866,9.81689233 L14.2796953,9.80566378 L15.174,8.921 L7.15591378,8.92104958 C5.64254782,8.92551651 4.41396847,10.1248145 4.38512137,11.6127193 L4.38461538,11.6578947 L4.38461538,12.3421053 C4.38461538,12.7199843 4.07465867,13.0263158 3.69230769,13.0263158 C3.31450851,13.0263158 3.00739018,12.7272345 3,12.3555701 L3,11.6558513 C3.00677433,9.41514654 4.82474387,7.59609967 7.08521305,7.55338097 L7.15384615,7.55263158 L15.174,7.552 L14.2796953,6.66802043 C14.0130874,6.40453072 14.0093845,5.97960327 14.2685866,5.71162918 L14.2796953,5.70040062 C14.5463032,5.43691091 14.9762594,5.43325134 15.2474048,5.68942189 Z" id="Combined-Shape" fill="#000000" fill-rule="nonzero"></path>
        </g>
    </g>
</svg>