<?xml version="1.0" encoding="UTF-8"?>
<svg width="24px" height="24px" viewBox="0 0 24 24" version="1.1" xmlns="http://www.w3.org/2000/svg" xmlns:xlink="http://www.w3.org/1999/xlink">
    <title>VSQUARE/4) Icons/resize/resize</title>
    <g id="VSQUARE_Symbols" stroke="none" stroke-width="1" fill="none" fill-rule="evenodd">
        <g id="VSQUARE/4)-Icons/resize/resize">
            <rect id="Rectangle" x="0" y="0" width="24" height="24"></rect>
            <path d="M18.8181818,4.5 C19.1902568,4.5 19.4927218,4.79803556 19.4998706,5.1684004 L19.5,5.18181818 L19.5,9.95454545 C19.5,10.3311032 19.1947396,10.6363636 18.8181818,10.6363636 C18.4461069,10.6363636 18.1436418,10.3383281 18.136493,9.96796324 L18.136,6.826 L6.827,18.136 L9.95454545,18.1363636 C10.3266204,18.1363636 10.6290854,18.4343992 10.6362342,18.804764 L10.6363636,18.8181818 C10.6363636,19.1902568 10.3383281,19.4927218 9.96796324,19.4998706 L5.18181818,19.5 C4.80974323,19.5 4.50727821,19.2019644 4.50012939,18.8315996 L4.5,14.0454545 C4.5,13.6688968 4.8052604,13.3636364 5.18181818,13.3636364 C5.55389314,13.3636364 5.85635815,13.6616719 5.86350697,14.0320368 L5.863,17.172 L17.171,5.863 L14.0454545,5.86363636 C13.6733796,5.86363636 13.3709146,5.56560081 13.3637658,5.19523597 L13.3636364,5.18181818 C13.3636364,4.80974323 13.6616719,4.50727821 14.0320368,4.50012939 L18.8181818,4.5 Z" id="Combined-Shape" fill="#000000" fill-rule="nonzero"></path>
        </g>
    </g>
</svg>