<?xml version="1.0" encoding="UTF-8"?>
<svg width="24px" height="24px" viewBox="0 0 24 24" version="1.1" xmlns="http://www.w3.org/2000/svg" xmlns:xlink="http://www.w3.org/1999/xlink">
    <title>VSQUARE/4) Icons/return_down_forward/return_down_forward</title>
    <g id="VSQUARE_Symbols" stroke="none" stroke-width="1" fill="none" fill-rule="evenodd">
        <g id="VSQUARE/4)-Icons/return_down_forward/return_down_forward">
            <rect id="Rectangle" x="0" y="0" width="24" height="24"></rect>
            <path d="M4.10714286,7.5 C4.43846674,7.5 4.70780464,7.78100495 4.71417049,8.13020609 L4.71428571,8.94642857 C4.71428571,10.9488305 6.22336157,12.6093463 8.07330234,12.6423563 L18.427,12.642 L17.0349709,11.1688544 C16.80116,10.9212899 16.7979126,10.5220448 17.0252288,10.270267 L17.0349709,10.2597171 C17.2687818,10.0121526 17.6458466,10.0087142 17.8836367,10.2494019 L17.8936005,10.2597171 L20.322172,12.8311456 C20.5559829,13.0787101 20.5592303,13.4779552 20.3319141,13.729733 L20.322172,13.7402829 L17.8936005,16.3117115 C17.6564965,16.5627628 17.2720749,16.5627628 17.0349709,16.3117115 C16.80116,16.064147 16.7979126,15.664902 17.0252288,15.4131241 L17.0349709,15.4025742 L18.427,13.928 L8.12946429,13.9285714 C5.60164154,13.9285714 3.54156988,11.7165807 3.50062123,9.02804347 L3.5,8.14285714 C3.5,7.78781695 3.77182712,7.5 4.10714286,7.5 Z" id="Combined-Shape" fill="#000000" fill-rule="nonzero"></path>
        </g>
    </g>
</svg>