<?xml version="1.0" encoding="UTF-8"?>
<svg width="24px" height="24px" viewBox="0 0 24 24" version="1.1" xmlns="http://www.w3.org/2000/svg" xmlns:xlink="http://www.w3.org/1999/xlink">
    <title>VSQUARE/4) Icons/sad/sad</title>
    <g id="VSQUARE_Symbols" stroke="none" stroke-width="1" fill="none" fill-rule="evenodd">
        <g id="VSQUARE/4)-Icons/sad/sad">
            <rect id="Rectangle" x="0" y="0" width="24" height="24"></rect>
            <path d="M19.0462916,4.95370845 C16.5330636,2.41561524 12.8536293,1.41676078 9.40195879,2.33556555 C5.95028824,3.25437031 3.25437031,5.95028824 2.33556555,9.40195879 C1.41676078,12.8536293 2.41561524,16.5330636 4.95370845,19.0462916 C7.46693638,21.5843848 11.1463707,22.5832392 14.5980412,21.6644345 C18.0497118,20.7456297 20.7456297,18.0497118 21.6644345,14.5980412 C22.5832392,11.1463707 21.5843848,7.46693638 19.0462916,4.95370845 Z M8.79693799,9.86462197 C9.38660542,9.86462197 9.86462533,10.3426452 9.86462533,10.9323127 C9.86462533,11.5219801 9.38660542,12 8.79693799,12 C8.20727056,12 7.72924729,11.5219801 7.72924729,10.9323127 C7.72853952,10.648927 7.84079931,10.3769431 8.04118388,10.1765586 C8.24156846,9.97617398 8.51355229,9.86391419 8.79693799,9.86462197 Z M7.74393135,16.5301084 C8.27777502,14.7372834 9.97717737,13.4235831 11.9977757,13.4235831 C14.0183739,13.4235831 15.7177763,14.7372834 16.2556238,16.5301084 C16.2861247,16.6382898 16.2637289,16.754522 16.195215,16.8436251 C16.1267011,16.9327283 16.0201219,16.9842295 15.9077357,16.9825409 L8.09181948,16.9825409 C7.97943319,16.9842295 7.87285405,16.9327283 7.80434012,16.8436251 C7.73582619,16.754522 7.71343045,16.6382898 7.74393135,16.5301084 Z M15.203062,12.0000034 C14.6133946,12.0000034 14.1353747,11.5219801 14.1353747,10.9323127 C14.1353747,10.3426452 14.6133946,9.86462533 15.203062,9.86462533 C15.7927294,9.86462533 16.2707527,10.3426452 16.2707527,10.9323127 C16.2714605,11.2156984 16.1592007,11.4876822 15.9588161,11.6880668 C15.7584315,11.8884513 15.4864477,12.0007111 15.203062,12.0000034 Z" id="Shape" fill="#000000" fill-rule="nonzero"></path>
        </g>
    </g>
</svg>