<?xml version="1.0" encoding="UTF-8"?>
<svg width="24px" height="24px" viewBox="0 0 24 24" version="1.1" xmlns="http://www.w3.org/2000/svg" xmlns:xlink="http://www.w3.org/1999/xlink">
    <title>VSQUARE/4) Icons/scan/scan_outline</title>
    <g id="VSQUARE_Symbols" stroke="none" stroke-width="1" fill="none" fill-rule="evenodd">
        <g id="VSQUARE/4)-Icons/scan/scan_outline">
            <rect id="Rectangle" x="0" y="0" width="24" height="24"></rect>
            <path d="M20.3076923,14.7692308 C20.6854915,14.7692308 20.9926098,15.0718515 20.9998686,15.4479143 L21,15.4615385 L21,17.8846154 C21,19.587989 19.6329514,20.9720713 17.936134,20.9995826 L17.8846154,21 L15.4615385,21 C15.0791875,21 14.7692308,20.6900433 14.7692308,20.3076923 C14.7692308,19.9298931 15.0718515,19.6227748 15.4479143,19.615516 L15.4615385,19.6153846 L17.8846154,19.6153846 C18.8309341,19.6153846 19.5998687,18.8559132 19.6151527,17.9132368 L19.6153846,17.8846154 L19.6153846,15.4615385 C19.6153846,15.0791875 19.9253413,14.7692308 20.3076923,14.7692308 Z M17.8846154,3 C19.587989,3 20.9720713,4.36704858 20.9995826,6.06386603 L21,6.11538462 L21,8.53846154 C21,8.92081252 20.6900433,9.23076923 20.3076923,9.23076923 C19.9298931,9.23076923 19.6227748,8.92814851 19.615516,8.55208575 L19.6153846,8.53846154 L19.6153846,6.11538462 C19.6153846,5.16906594 18.8559132,4.40013132 17.9132368,4.38484726 L17.8846154,4.38461538 L15.4615385,4.38461538 C15.0791875,4.38461538 14.7692308,4.07465867 14.7692308,3.69230769 C14.7692308,3.31450851 15.0718515,3.00739018 15.4479143,3.00013138 L15.4615385,3 L17.8846154,3 Z M3.69230769,14.7692308 C4.07010688,14.7692308 4.3772252,15.0718515 4.384484,15.4479143 L4.38461538,15.4615385 L4.38461538,17.8846154 C4.38461538,18.8309341 5.14408682,19.5998687 6.08676318,19.6151527 L6.11538462,19.6153846 L8.53846154,19.6153846 C8.92081252,19.6153846 9.23076923,19.9253413 9.23076923,20.3076923 C9.23076923,20.6854915 8.92814851,20.9926098 8.55208575,20.9998686 L8.53846154,21 L6.11538462,21 C4.412011,21 3.02792868,19.6329514 3.00041737,17.936134 L3,17.8846154 L3,15.4615385 C3,15.0791875 3.30995671,14.7692308 3.69230769,14.7692308 Z M8.53846154,3 C8.92081252,3 9.23076923,3.30995671 9.23076923,3.69230769 C9.23076923,4.07010688 8.92814851,4.3772252 8.55208575,4.384484 L8.53846154,4.38461538 L6.11538462,4.38461538 C5.16906594,4.38461538 4.40013132,5.14408682 4.38484726,6.08676318 L4.38461538,6.11538462 L4.38461538,8.53846154 C4.38461538,8.92081252 4.07465867,9.23076923 3.69230769,9.23076923 C3.31450851,9.23076923 3.00739018,8.92814851 3.00013138,8.55208575 L3,8.53846154 L3,6.11538462 C3,4.412011 4.36704858,3.02792868 6.06386603,3.00041737 L6.11538462,3 L8.53846154,3 Z" id="Combined-Shape" fill="#000000" fill-rule="nonzero"></path>
        </g>
    </g>
</svg>