<?xml version="1.0" encoding="UTF-8"?>
<svg width="24px" height="24px" viewBox="0 0 24 24" version="1.1" xmlns="http://www.w3.org/2000/svg" xmlns:xlink="http://www.w3.org/1999/xlink">
    <title>VSQUARE/4) Icons/scan/scan_sharp</title>
    <g id="VSQUARE_Symbols" stroke="none" stroke-width="1" fill="none" fill-rule="evenodd">
        <g id="VSQUARE/4)-Icons/scan/scan_sharp">
            <rect id="Rectangle" x="0" y="0" width="24" height="24"></rect>
            <path d="M17.6571429,21 L14.7428571,21 L14.7428571,19.1142857 L17.6571429,19.1142857 C18.4619006,19.1142857 19.1142857,18.4619006 19.1142857,17.6571429 L19.1142857,14.7428571 L21,14.7428571 L21,17.6571429 C20.9978745,19.5024707 19.5024707,20.9978745 17.6571429,21 L17.6571429,21 Z M21,9.25714286 L19.1142857,9.25714286 L19.1142857,6.34285714 C19.1142857,5.53809936 18.4619006,4.88571429 17.6571429,4.88571429 L14.7428571,4.88571429 L14.7428571,3 L17.6571429,3 C19.5024707,3.00212555 20.9978745,4.49752927 21,6.34285714 L21,9.25714286 Z M9.25714286,21 L6.34285714,21 C4.49752927,20.9978745 3.00212555,19.5024707 3,17.6571429 L3,14.7428571 L4.88571429,14.7428571 L4.88571429,17.6571429 C4.88571429,18.4619006 5.53809936,19.1142857 6.34285714,19.1142857 L9.25714286,19.1142857 L9.25714286,21 Z M4.88571429,9.25714286 L3,9.25714286 L3,6.34285714 C3.00212555,4.49752927 4.49752927,3.00212555 6.34285714,3 L9.25714286,3 L9.25714286,4.88571429 L6.34285714,4.88571429 C5.53809936,4.88571429 4.88571429,5.53809936 4.88571429,6.34285714 L4.88571429,9.25714286 Z" id="Combined-Shape" fill="#000000" fill-rule="nonzero"></path>
        </g>
    </g>
</svg>