<?xml version="1.0" encoding="UTF-8"?>
<svg width="24px" height="24px" viewBox="0 0 24 24" version="1.1" xmlns="http://www.w3.org/2000/svg" xmlns:xlink="http://www.w3.org/1999/xlink">
    <title>VSQUARE/4) Icons/scan/scan</title>
    <g id="VSQUARE_Symbols" stroke="none" stroke-width="1" fill="none" fill-rule="evenodd">
        <g id="VSQUARE/4)-Icons/scan/scan">
            <rect id="Rectangle" x="0" y="0" width="24" height="24"></rect>
            <path d="M20.0571429,14.7428571 C20.5726612,14.7428571 20.9915475,15.1565882 20.9998737,15.6701224 L21,15.6857143 L21,17.6571429 C21,19.4848898 19.5331352,20.9700321 17.7124231,20.9995522 L17.6571429,21 L15.6857143,21 C15.1649887,21 14.7428571,20.5778685 14.7428571,20.0571429 C14.7428571,19.5416245 15.1565882,19.1227382 15.6701224,19.114412 L15.6857143,19.1142857 L17.6571429,19.1142857 C18.4538531,19.1142857 19.1012228,18.4748831 19.1140905,17.6812394 L19.1142857,17.6571429 L19.1142857,15.6857143 C19.1142857,15.1649887 19.5364172,14.7428571 20.0571429,14.7428571 Z M17.6571429,3 C19.4848898,3 20.9700321,4.46686482 20.9995522,6.28757689 L21,6.34285714 L21,8.31428571 C21,8.83501134 20.5778685,9.25714286 20.0571429,9.25714286 C19.5416245,9.25714286 19.1227382,8.84341175 19.114412,8.32987758 L19.1142857,8.31428571 L19.1142857,6.34285714 C19.1142857,5.54614694 18.4748831,4.89877722 17.6812394,4.8859095 L17.6571429,4.88571429 L15.6857143,4.88571429 C15.1649887,4.88571429 14.7428571,4.46358276 14.7428571,3.94285714 C14.7428571,3.42733878 15.1565882,3.00845249 15.6701224,3.00012632 L15.6857143,3 L17.6571429,3 Z M3.94285714,14.7428571 C4.45837551,14.7428571 4.8772618,15.1565882 4.88558797,15.6701224 L4.88571429,15.6857143 L4.88571429,17.6571429 C4.88571429,18.4538531 5.5251169,19.1012228 6.31876062,19.1140905 L6.34285714,19.1142857 L8.31428571,19.1142857 C8.83501134,19.1142857 9.25714286,19.5364172 9.25714286,20.0571429 C9.25714286,20.5726612 8.84341175,20.9915475 8.32987758,20.9998737 L8.31428571,21 L6.34285714,21 C4.51511021,21 3.02996792,19.5331352 3.00044785,17.7124231 L3,17.6571429 L3,15.6857143 C3,15.1649887 3.42213152,14.7428571 3.94285714,14.7428571 Z M8.31428571,3 C8.83501134,3 9.25714286,3.42213152 9.25714286,3.94285714 C9.25714286,4.45837551 8.84341175,4.8772618 8.32987758,4.88558797 L8.31428571,4.88571429 L6.34285714,4.88571429 C5.54614694,4.88571429 4.89877722,5.5251169 4.8859095,6.31876062 L4.88571429,6.34285714 L4.88571429,8.31428571 C4.88571429,8.83501134 4.46358276,9.25714286 3.94285714,9.25714286 C3.42733878,9.25714286 3.00845249,8.84341175 3.00012632,8.32987758 L3,8.31428571 L3,6.34285714 C3,4.51511021 4.46686482,3.02996792 6.28757689,3.00044785 L6.34285714,3 L8.31428571,3 Z" id="Combined-Shape" fill="#000000" fill-rule="nonzero"></path>
        </g>
    </g>
</svg>