<?xml version="1.0" encoding="UTF-8"?>
<svg width="24px" height="24px" viewBox="0 0 24 24" version="1.1" xmlns="http://www.w3.org/2000/svg" xmlns:xlink="http://www.w3.org/1999/xlink">
    <title>VSQUARE/4) Icons/search/search_outline</title>
    <g id="VSQUARE_Symbols" stroke="none" stroke-width="1" fill="none" fill-rule="evenodd">
        <g id="VSQUARE/4)-Icons/search/search_outline">
            <rect id="Rectangle" x="0" y="0" width="24" height="24"></rect>
            <path d="M10.4894712,3 C14.6257025,3.00026328 17.978679,6.35323978 17.9789423,10.4894712 C17.9789423,12.308259 17.3306233,13.9756238 16.2524763,15.2730748 L20.7972278,19.8181568 C21.0675907,20.0885198 21.0675907,20.5268648 20.7972278,20.7972278 C20.5306198,21.0638357 20.1006637,21.0675386 19.8295183,20.8083364 L15.2730748,16.2524763 C13.9756238,17.3306233 12.308259,17.9789423 10.4894712,17.9789423 C6.35315045,17.9789423 3,14.6257919 3,10.4894712 C3,6.35315045 6.35315045,3 10.4894712,3 Z M10.4894271,4.38461538 C7.11785241,4.38461538 4.38461538,7.11785241 4.38461538,10.4894712 C4.38461538,13.8610899 7.11785241,16.5943269 10.4894712,16.5943269 C13.8610899,16.5943269 16.5943269,13.8610899 16.5943269,10.4895152 C16.5941123,7.11796104 13.8609813,4.38482999 10.4894271,4.38461538 Z" id="Combined-Shape" fill="#000000" fill-rule="nonzero"></path>
        </g>
    </g>
</svg>