<?xml version="1.0" encoding="UTF-8"?>
<svg width="24px" height="24px" viewBox="0 0 24 24" version="1.1" xmlns="http://www.w3.org/2000/svg" xmlns:xlink="http://www.w3.org/1999/xlink">
    <title>VSQUARE/4) Icons/search/search_sharp</title>
    <g id="VSQUARE_Symbols" stroke="none" stroke-width="1" fill="none" fill-rule="evenodd">
        <g id="VSQUARE/4)-Icons/search/search_sharp">
            <rect id="Rectangle" x="0" y="0" width="24" height="24"></rect>
            <path d="M21,19.4423077 L15.6311538,14.0725962 C16.4963692,12.8836146 16.9617995,11.4506591 16.9603846,9.98019231 C16.9603846,6.13139423 13.8289904,3 9.98019231,3 C6.13139423,3 3,6.13139423 3,9.98019231 C3,13.8289904 6.13139423,16.9603846 9.98019231,16.9603846 C11.4506591,16.9617995 12.8836146,16.4963692 14.0725962,15.6311538 L19.4423077,21 L21,19.4423077 Z M9.98019231,14.7558173 C8.04837855,14.7559923 6.30669444,13.5924074 5.56734048,11.8076777 C4.82798652,10.0229479 5.23657824,7.96857547 6.60257685,6.60257685 C7.96857547,5.23657824 10.0229479,4.82798652 11.8076777,5.56734048 C13.5924074,6.30669444 14.7559923,8.04837855 14.7558173,9.98019231 C14.7527177,12.6164122 12.6164122,14.7527177 9.98019231,14.7558173 L9.98019231,14.7558173 Z" id="Shape" fill="#000000" fill-rule="nonzero"></path>
        </g>
    </g>
</svg>