<?xml version="1.0" encoding="UTF-8"?>
<svg width="24px" height="24px" viewBox="0 0 24 24" version="1.1" xmlns="http://www.w3.org/2000/svg" xmlns:xlink="http://www.w3.org/1999/xlink">
    <title>VSQUARE/4) Icons/search/search</title>
    <g id="VSQUARE_Symbols" stroke="none" stroke-width="1" fill="none" fill-rule="evenodd">
        <g id="VSQUARE/4)-Icons/search/search">
            <rect id="Rectangle" x="0" y="0" width="24" height="24"></rect>
            <path d="M20.7241194,19.1932246 L16.6436125,15.1127176 C17.6260161,13.8048868 18.1563455,12.2129853 18.154558,10.577279 C18.154558,6.39919372 14.7553643,3 10.577279,3 C6.39919372,3 3,6.39919372 3,10.577279 C3,14.7553643 6.39919372,18.154558 10.577279,18.154558 C12.2129853,18.1563455 13.8048868,17.6260161 15.1127176,16.6436125 L19.1932246,20.7241194 C19.6220865,21.1074836 20.2756923,21.0891916 20.682442,20.682442 C21.0891916,20.2756923 21.1074836,19.6220865 20.7241194,19.1932246 Z M5.16493685,10.577279 C5.16493685,7.58812497 7.58812497,5.16493685 10.577279,5.16493685 C13.566433,5.16493685 15.9896211,7.58812497 15.9896211,10.577279 C15.9896211,13.566433 13.566433,15.9896211 10.577279,15.9896211 C7.58961097,15.9860366 5.16852134,13.564947 5.16493685,10.577279 Z" id="Shape" fill="#000000" fill-rule="nonzero"></path>
        </g>
    </g>
</svg>