<?xml version="1.0" encoding="UTF-8"?>
<svg width="24px" height="24px" viewBox="0 0 24 24" version="1.1" xmlns="http://www.w3.org/2000/svg" xmlns:xlink="http://www.w3.org/1999/xlink">
    <title>VSQUARE/4) Icons/settings/settings</title>
    <g id="VSQUARE_Symbols" stroke="none" stroke-width="1" fill="none" fill-rule="evenodd">
        <g id="VSQUARE/4)-Icons/settings/settings">
            <rect id="Rectangle" x="0" y="0" width="24" height="24"></rect>
            <path d="M13.8134625,2 C14.3599141,2.00574892 14.8275676,2.40351913 14.9339439,2.95304348 L14.9339439,2.95304348 L14.9390332,2.98434783 L15.1761071,4.70565217 C15.2056554,4.92380652 15.3345906,5.11457441 15.5234478,5.21956522 C15.6670776,5.29956522 15.8084454,5.38449275 15.9475513,5.47434783 C16.1314277,5.59307401 16.3597664,5.61394297 16.5612291,5.53043478 L16.5612291,5.53043478 L18.1346532,4.88130435 L18.1494968,4.87565217 C18.6637808,4.67784468 19.2425142,4.88445052 19.5257127,5.36695652 L19.5257127,5.36695652 L19.5312261,5.37652174 L21.3425722,8.58956522 C21.624535,9.07933121 21.5185743,9.7064324 21.0923511,10.0704348 L21.0923511,10.0704348 L21.0724182,10.0869565 L19.7343716,11.1634783 C19.5630168,11.3013314 19.4666286,11.5151347 19.4752444,11.7382609 L19.4752444,11.7382609 L19.4752444,12.2408696 C19.4657803,12.465421 19.5620041,12.6809884 19.7339475,12.8204348 L19.7339475,12.8204348 L21.0724182,13.8965217 L21.0923511,13.9130435 C21.5192448,14.2776176 21.6250629,14.9058592 21.3421481,15.396087 L21.3421481,15.396087 L19.530802,18.6086957 C19.5288082,18.6117868 19.5269681,18.6149793 19.5252886,18.6182609 C19.2426164,19.1021973 18.6628532,19.3097116 18.1478004,19.1113043 L18.1478004,19.1113043 L18.1329568,19.1052174 L16.5582604,18.4552174 C16.3574394,18.3719021 16.1298177,18.3924398 15.946279,18.5104348 C15.8088695,18.5986957 15.6672189,18.6834783 15.5221755,18.7634783 C15.3337604,18.8688905 15.2051043,19.0594782 15.1752588,19.2773913 L15.1752588,19.2773913 L14.9390332,21.0021739 L14.9352163,21.0265217 C14.8418213,21.5874103 14.368486,21.9981793 13.8134625,22 L13.8134625,22 L10.1865292,22 C9.63911837,21.9954804 9.17007501,21.5974321 9.06350307,21.0469565 L9.06350307,21.0469565 L9.05841383,21.0156522 L8.82261227,19.2943478 C8.79306388,19.0761935 8.66412871,18.8854256 8.47527149,18.7804348 C8.33164177,18.7007246 8.19027393,18.6157971 8.05116798,18.5256522 C7.86729158,18.406926 7.63895295,18.386057 7.43749019,18.4695652 L7.43749019,18.4695652 L5.86533846,19.1186957 L5.85049483,19.1243478 C5.33621087,19.3221553 4.75747747,19.1155495 4.47427892,18.6330435 L4.47427892,18.6330435 L4.46876558,18.6234783 L2.65741946,15.4104348 C2.37545667,14.9206688 2.48141734,14.2935676 2.90764053,13.9295652 L2.90764053,13.9295652 L2.9275734,13.9130435 L4.26561999,12.8365217 C4.43697483,12.6986686 4.53336305,12.4848653 4.52474724,12.2617391 L4.52474724,12.2617391 L4.52474724,11.7591304 C4.53421129,11.534579 4.43798751,11.3190116 4.2660441,11.1795652 L4.2660441,11.1795652 L2.9275734,10.1034783 L2.90764053,10.0869565 C2.48099463,9.72245687 2.37503303,9.09461369 2.65741946,8.60434783 L2.65741946,8.60434783 L4.4713102,5.38913043 L4.47682354,5.37956522 C4.75972511,4.89591756 5.33925475,4.68848689 5.85431176,4.88652174 L5.85431176,4.88652174 L5.86915539,4.8926087 L7.44385174,5.54478261 C7.64467278,5.62809792 7.87229445,5.60756025 8.05583312,5.48956522 C8.19324266,5.40130435 8.33489323,5.31652174 8.47993663,5.23652174 C8.66753801,5.13059956 8.79535057,4.94009702 8.82473279,4.7226087 L8.82473279,4.7226087 L9.06095845,2.99782609 L9.06477538,2.97347826 C9.15817037,2.41258966 9.63150565,2.00182073 10.1865292,2 L10.1865292,2 Z M12.0603868,8.52300331 L11.840957,8.52565217 C10.0104842,8.61367313 8.57895193,10.1758956 8.60750791,12.0542955 C8.63606389,13.9326954 10.1143881,15.4484255 11.9466475,15.4779251 C13.7789069,15.5074246 15.3029292,14.0400326 15.389007,12.1634783 C15.4310937,11.1861538 15.0708309,10.2356448 14.396116,9.54385766 C13.7214011,8.85207047 12.7942815,8.48262252 11.840957,8.52565217 Z M11.9999958,9.91304348 C13.1242802,9.91304348 14.0356927,10.8474057 14.0356927,12 C14.0356927,13.1525943 13.1242802,14.0869565 11.9999958,14.0869565 C10.8757115,14.0869565 9.96429894,13.1525943 9.96429894,12 C9.96429894,10.8474057 10.8757115,9.91304348 11.9999958,9.91304348 Z" id="Combined-Shape" fill="#000000" fill-rule="nonzero"></path>
        </g>
    </g>
</svg>