<?xml version="1.0" encoding="UTF-8"?>
<svg width="24px" height="24px" viewBox="0 0 24 24" version="1.1" xmlns="http://www.w3.org/2000/svg" xmlns:xlink="http://www.w3.org/1999/xlink">
    <title>VSQUARE/4) Icons/settings/settings_outline</title>
    <g id="VSQUARE_Symbols" stroke="none" stroke-width="1" fill="none" fill-rule="evenodd">
        <g id="VSQUARE/4)-Icons/settings/settings_outline">
            <rect id="Rectangle" x="0" y="0" width="24" height="24"></rect>
            <path d="M13.8628403,1.80434783 C14.374877,1.81354674 14.8134755,2.15411372 14.9692864,2.66750809 L15.0022266,2.79936544 L15.292658,4.91992797 C15.2938814,4.92864532 15.2973431,4.93346783 15.3018942,4.93570234 C15.5698783,5.06842548 15.8297104,5.21749876 16.0794842,5.38170927 L16.319,5.546 L18.2644493,4.74289075 C18.7164736,4.56627767 19.2171705,4.69329943 19.5370603,5.04142033 L19.6196478,5.14178218 L19.6922351,5.25273556 L21.541809,8.53615482 C21.7994171,8.99060767 21.726746,9.55813896 21.3637943,9.93993345 L21.267032,10.0313396 L19.6147302,11.3623907 C19.6112131,11.3652336 19.6075982,11.3738655 19.6092249,11.392544 C19.6262172,11.6112707 19.635111,11.8083548 19.6350996,12.0039838 L19.6322651,12.1736225 L19.6257081,12.343111 L19.605,12.619 L21.2800172,13.9671661 C21.644535,14.2771893 21.778247,14.7719198 21.6424576,15.2142505 L21.5987132,15.3334088 L21.5414307,15.4488999 L19.6871136,18.7406472 C19.4222695,19.1988476 18.8887306,19.4180171 18.3777804,19.2809738 L18.250682,19.2392241 L16.317,18.44 L15.9877792,18.6609017 L15.8183931,18.7650483 L15.6465371,18.8647482 L15.2949903,19.0529507 L14.998351,21.2097311 C14.9102021,21.7272387 14.4965934,22.1230322 13.9731418,22.186901 L13.8504935,22.1956522 L10.1371597,22.1956522 C9.62512305,22.1864533 9.18652453,21.8458863 9.03071356,21.3324919 L8.99777338,21.2006346 L8.70734203,19.080072 C8.70611859,19.0713547 8.70265694,19.0665322 8.69810582,19.0642977 C8.43012172,18.9315745 8.17028963,18.7825012 7.92051585,18.6182907 L7.68,18.453 L5.73555067,19.2571092 C5.28352636,19.4337223 4.78282953,19.3067006 4.46293967,18.9585797 L4.38035221,18.8582178 L4.30776485,18.7472644 L2.45819098,15.4638452 C2.20058286,15.0093923 2.27325398,14.441861 2.63620573,14.0600666 L2.73296803,13.9686604 L4.38326052,12.6392397 C4.38680385,12.6363537 4.39040317,12.6276874 4.38897151,12.6119012 C4.37085806,12.3966248 4.36142766,12.1951242 4.36142766,11.9986682 C4.36142766,11.7984997 4.37086394,11.5968949 4.38887683,11.3932306 L4.38749427,11.3806616 L4.38300069,11.373214 L2.71133148,10.0252681 C2.32009166,9.68583003 2.20092483,9.13220071 2.40168613,8.66572806 L2.45856931,8.55110005 L4.31288637,5.25935283 C4.57773054,4.80115243 5.11126939,4.58198288 5.62221959,4.71902617 L5.74931798,4.76077591 L7.682,5.559 L8.01222078,5.33909826 L8.1816069,5.23495168 L8.35346294,5.13525177 L8.70500971,4.94704931 L9.001649,2.79026893 C9.08979794,2.27276128 9.50340657,1.87696781 10.0268582,1.81309896 L10.1495065,1.80434783 L13.8628403,1.80434783 Z M13.653,3.195 L10.349,3.195 L10.0855874,5.12650305 C10.0370232,5.48468252 9.85448575,5.80682537 9.58058203,6.02964277 L9.45772508,6.11887028 L9.32442573,6.19482839 C9.03242725,6.3400577 8.75151385,6.50785532 8.48729292,6.69452655 C8.14395765,6.94001451 7.71182103,7.01392437 7.30981032,6.90058219 L7.16070074,6.84927082 L5.419,6.129 L3.756,9.081 L5.25562737,10.2895858 C5.53893698,10.5175278 5.71934392,10.8449305 5.7672275,11.2010449 L5.779549,11.355217 L5.77512499,11.5116672 C5.76026268,11.6798209 5.75273201,11.8407127 5.75273201,11.9986682 C5.75273201,12.1537345 5.76036541,12.3168385 5.77489748,12.4898063 C5.81332639,12.9072634 5.66608871,13.3184412 5.37486394,13.6148126 L5.25898666,13.7203583 L3.755,14.931 L5.417,17.883 L7.15917027,17.1639643 C7.50009367,17.0232341 7.87756203,17.0269939 8.21082441,17.1657817 L8.35070923,17.2335015 L8.48376851,17.3175899 C8.74765776,17.5068395 9.0258233,17.6740141 9.31209704,17.8158076 C9.68463855,17.9977266 9.95424958,18.3358754 10.055508,18.7361572 L10.0854606,18.8889916 L10.346,20.804 L13.65,20.804 L13.9144126,18.8734969 C13.9629768,18.5153175 14.1455142,18.1931746 14.419418,17.9703572 L14.5422749,17.8811297 L14.6755743,17.8051716 C14.9675728,17.6599423 15.2484861,17.4921447 15.5127071,17.3054734 C15.8560424,17.0599855 16.288179,16.9860756 16.6901897,17.0994178 L16.8392993,17.1507292 L18.58,17.87 L20.242,14.918 L18.4371204,13.4648733 C18.3011025,13.3554117 18.2132478,13.2006965 18.1863593,13.0329863 L18.1776446,12.9310589 L18.1841764,12.827561 C18.2222979,12.5520883 18.2422246,12.2742698 18.2438067,12 C18.2438067,11.8476665 18.2364903,11.6855378 18.2227977,11.5086371 C18.1852505,11.0904674 18.333912,10.6790592 18.6251859,10.3844361 L18.7410133,10.2796417 L20.244,9.068 L18.582,6.116 L16.8408297,6.83603573 C16.4999063,6.97676589 16.122438,6.97300609 15.7891756,6.83421835 L15.6492908,6.76649846 L15.5162315,6.68241005 C15.2523422,6.49316054 14.9741767,6.3259859 14.687903,6.1841924 C14.3153615,6.00227343 14.0457504,5.66412457 13.944492,5.26384277 L13.9145394,5.1110084 L13.653,3.195 Z M12.3434565,8.48065284 C13.9886708,8.65019954 15.2841326,9.97938659 15.4480732,11.6541186 C15.5907054,13.135923 14.8087502,14.5528652 13.4880406,15.193998 C12.1602669,15.83856 10.5795808,15.5572564 9.54381124,14.4945222 C8.51504123,13.4389698 8.24465077,11.839468 8.86525167,10.4936239 C9.48905994,9.14082413 10.8805505,8.33241157 12.3434565,8.48065284 Z M10.1286987,11.0762295 C9.74873404,11.9002265 9.91463584,12.8816229 10.540171,13.5234429 C11.1587067,14.1580812 12.0934339,14.324428 12.8804462,13.9423763 C13.6745227,13.5568953 14.1504758,12.6944444 14.0632787,11.7885453 C13.9633383,10.767612 13.1817926,9.96571994 12.202011,9.86474804 C11.3355239,9.77694455 10.5054561,10.259188 10.1286987,11.0762295 Z" id="Shape" fill="#000000" fill-rule="nonzero"></path>
        </g>
    </g>
</svg>