<?xml version="1.0" encoding="UTF-8"?>
<svg width="24px" height="24px" viewBox="0 0 24 24" version="1.1" xmlns="http://www.w3.org/2000/svg" xmlns:xlink="http://www.w3.org/1999/xlink">
    <title>VSQUARE/4) Icons/settings/settings_sharp</title>
    <g id="VSQUARE_Symbols" stroke="none" stroke-width="1" fill="none" fill-rule="evenodd">
        <g id="VSQUARE/4)-Icons/settings/settings_sharp">
            <rect id="Rectangle" x="0" y="0" width="24" height="24"></rect>
            <path d="M12,8.52173913 C10.1260194,8.52173913 8.60685799,10.0790096 8.60685799,12 C8.60685799,13.9209904 10.1260194,15.4782609 12,15.4782609 C13.8739806,15.4782609 15.393142,13.9209904 15.393142,12 C15.3875521,10.0813881 13.8716603,8.52746922 12,8.52173913 Z M19.3257936,12 C19.3240289,12.3250067 19.3007892,12.6495177 19.2562342,12.9713043 L21.3213852,14.6286957 C21.507159,14.7859383 21.5543895,15.0580211 21.4329348,15.2713043 L19.4793333,18.7286957 C19.3567388,18.9399764 19.1037607,19.0303914 18.8795954,18.9430435 L16.4513782,17.9430435 C15.9457494,18.3421687 15.3924247,18.6734037 14.804856,18.9286957 L14.4417898,21.5713043 C14.3998837,21.8154166 14.1953503,21.9950247 13.9536015,22 L10.0463985,22 C9.80939678,21.9952713 9.60695738,21.8234517 9.55821018,21.5856522 L9.19514398,18.9430435 C8.60595494,18.6907101 8.05223172,18.3589442 7.54862182,17.9565217 L5.12040457,18.9565217 C4.89634165,19.0439471 4.64339393,18.9537263 4.52066672,18.7426087 L2.56706521,15.2856522 C2.4456105,15.0723689 2.49284097,14.8002861 2.67861475,14.6430435 L4.74376581,12.9856522 C4.69971755,12.6589991 4.67648185,12.3297508 4.6742064,12 C4.67597111,11.6749933 4.69921078,11.3504823 4.74376581,11.0286957 L2.67861475,9.37130435 C2.49284097,9.21406171 2.4456105,8.9419789 2.56706521,8.72869565 L4.52066672,5.27130435 C4.64326116,5.06002361 4.89623932,4.96960858 5.12040457,5.05695652 L7.54862182,6.05695652 C8.05425064,5.65783129 8.60757532,5.32659634 9.19514398,5.07130435 L9.55821018,2.42869565 C9.60011627,2.18458335 9.80464967,2.00497525 10.0463985,2 L13.9536015,2 C14.1906032,2.0047287 14.3930426,2.17654831 14.4417898,2.41434783 L14.804856,5.05695652 C15.3947855,5.30911759 15.9492314,5.64088921 16.4534989,6.04347826 L18.8795954,5.04347826 C19.1036583,4.95605288 19.3566061,5.04627366 19.4793333,5.2573913 L21.4329348,8.71478261 C21.5543895,8.92806586 21.507159,9.20014867 21.3213852,9.3573913 L19.2562342,11.0147826 C19.3002641,11.3412919 19.3234997,11.6703944 19.3257936,12 Z" id="Shape" fill="#000000" fill-rule="nonzero"></path>
        </g>
    </g>
</svg>