<?xml version="1.0" encoding="UTF-8"?>
<svg width="24px" height="24px" viewBox="0 0 24 24" version="1.1" xmlns="http://www.w3.org/2000/svg" xmlns:xlink="http://www.w3.org/1999/xlink">
    <title>VSQUARE/4) Icons/share/share_sharp</title>
    <g id="VSQUARE_Symbols" stroke="none" stroke-width="1" fill="none" fill-rule="evenodd">
        <g id="VSQUARE/4)-Icons/share/share_sharp">
            <rect id="Rectangle" x="0" y="0" width="24" height="24"></rect>
            <path d="M11.3181818,8.62524798 L11.3181818,15.4437844 L12.6818182,15.4437844 L12.6818182,8.62524798 L18.9886364,8.62524798 C19.2710547,8.62524798 19.5,8.85278309 19.5,9.13346187 L19.5,9.13346187 L19.5,20.9917861 C19.5,21.2724649 19.2710547,21.5 18.9886364,21.5 L18.9886364,21.5 L5.01136364,21.5 C4.7289453,21.5 4.5,21.2724649 4.5,20.9917861 L4.5,20.9917861 L4.5,9.13346187 C4.5,8.85278309 4.7289453,8.62524798 5.01136364,8.62524798 L5.01136364,8.62524798 L11.3181818,8.62524798 Z M12,2.5 L16.3734375,6.84649934 L15.4090909,7.80490605 L12.6818182,5.09443194 L12.6818182,8.62524798 L11.3181818,8.62524798 L11.3181818,5.09443194 L8.59090909,7.80490605 L7.6265625,6.84649934 L12,2.5 Z" id="Combined-Shape" fill="#000000" fill-rule="nonzero"></path>
        </g>
    </g>
</svg>