<?xml version="1.0" encoding="UTF-8"?>
<svg width="24px" height="24px" viewBox="0 0 24 24" version="1.1" xmlns="http://www.w3.org/2000/svg" xmlns:xlink="http://www.w3.org/1999/xlink">
    <title>VSQUARE/4) Icons/share/share_outline</title>
    <g id="VSQUARE_Symbols" stroke="none" stroke-width="1" fill="none" fill-rule="evenodd">
        <g id="VSQUARE/4)-Icons/share/share_outline">
            <rect id="Rectangle" x="0" y="0" width="24" height="24"></rect>
            <path d="M8.59090909,8.60714286 C8.96746687,8.60714286 9.27272727,8.91094963 9.27272727,9.28571429 C9.27272727,9.65601745 8.97469172,9.95704216 8.60432687,9.96415694 L6.88636364,9.96428571 C6.32717533,9.96428571 5.87280487,10.4109272 5.86377338,10.9653107 L5.86363636,19.125 C5.86363636,19.6815255 6.31241494,20.1337323 6.86945097,20.1427208 L17.1136364,20.1428571 C17.6728247,20.1428571 18.1271951,19.6962156 18.1362266,19.1418321 L18.1363636,10.9821429 C18.1363636,10.4256173 17.6875851,9.97341056 17.130549,9.96442208 L15.4090909,9.96428571 C15.0325331,9.96428571 14.7272727,9.66047894 14.7272727,9.28571429 C14.7272727,8.91541112 15.0253083,8.61438641 15.3956731,8.60714286 L17.1136364,8.60714286 C18.4184091,8.60714286 19.4786068,9.64930643 19.4996803,10.9428679 L19.5,10.9821429 L19.5,19.125 C19.5,20.4235595 18.45285,21.4787087 17.1530992,21.4996818 L17.1136364,21.5 L6.88636364,21.5 C5.58159091,21.5 4.52139318,20.4578364 4.5003197,19.164275 L4.5,10.9821429 C4.5,9.68358334 5.54715001,8.62843417 6.84690075,8.60746104 L8.59090909,8.60714286 Z M12,2.5 L12.0378193,2.50103823 C12.1038206,2.50466502 12.1693931,2.51779372 12.2322903,2.54042432 C12.2524978,2.547685 12.2722923,2.55590935 12.291589,2.56500882 C12.2959861,2.56704981 12.3003909,2.56918116 12.304777,2.57136252 C12.331311,2.58463124 12.3566732,2.59940865 12.3809259,2.6156977 C12.3864741,2.61935103 12.3922484,2.62335712 12.3979731,2.62746237 C12.4205087,2.64369169 12.4417793,2.66097858 12.4619282,2.67945857 C12.4651888,2.68244617 12.4680679,2.68513865 12.470929,2.68786072 L12.4821183,2.69874897 L15.8912092,6.09160611 C16.1574757,6.35660474 16.1574757,6.7862524 15.8912092,7.05125103 C15.6286408,7.31256912 15.2051991,7.31619854 14.9381619,7.06213928 L14.9269726,7.05125103 L12.681,4.817 L12.6818182,14.7566964 C12.6818182,15.1314611 12.3765578,15.4352679 12,15.4352679 C11.627925,15.4352679 11.32546,15.1386515 11.3183112,14.7700503 L11.318,4.816 L9.07302735,7.05125103 C8.81045893,7.31256912 8.38701724,7.31619854 8.11998012,7.06213928 L8.10879083,7.05125103 C7.84622242,6.78993294 7.84257563,6.36850764 8.09785048,6.10274212 L8.10879083,6.09160611 L11.5178817,2.69874897 L11.5347363,2.68253819 C11.5509943,2.66742709 11.567996,2.65309838 11.5856806,2.63961234 L11.5178817,2.69874897 C11.5467354,2.6700327 11.5775318,2.64442823 11.6098498,2.62193557 C11.6270335,2.61005597 11.6446494,2.5989601 11.662786,2.58866881 C11.6770188,2.58052722 11.6918236,2.57283719 11.7068356,2.56572447 C11.7266169,2.55638516 11.7463551,2.54814293 11.7665386,2.54082269 C11.7750851,2.53775623 11.7835408,2.53488576 11.7920392,2.53218524 C11.8110307,2.52608884 11.8306131,2.52078978 11.8505242,2.51635747 C11.8666691,2.51284204 11.8822102,2.50996064 11.8978173,2.50761901 C11.906657,2.50623878 11.9161858,2.5050078 11.9257743,2.50397466 C11.9486377,2.50156152 11.970679,2.5002709 11.9927296,2.50003834 L12,2.5 Z" id="Combined-Shape" fill="#000000" fill-rule="nonzero"></path>
        </g>
    </g>
</svg>