<?xml version="1.0" encoding="UTF-8"?>
<svg width="24px" height="24px" viewBox="0 0 24 24" version="1.1" xmlns="http://www.w3.org/2000/svg" xmlns:xlink="http://www.w3.org/1999/xlink">
    <title>VSQUARE/4) Icons/share/share</title>
    <g id="VSQUARE_Symbols" stroke="none" stroke-width="1" fill="none" fill-rule="evenodd">
        <g id="VSQUARE/4)-Icons/share/share">
            <rect id="Rectangle" x="0" y="0" width="24" height="24"></rect>
            <path d="M17.1136364,8.60692944 L12.6818182,8.60692944 L12.6818182,14.7565848 C12.6818182,15.1313557 12.3765578,15.4351675 12,15.4351675 C11.6234422,15.4351675 11.3181818,15.1313557 11.3181818,14.7565848 L11.3181818,8.60692944 L6.88636364,8.60692944 C5.56899554,8.60833195 4.5014092,9.67085214 4.5,10.9819688 L4.5,19.1249607 C4.5014092,20.4360773 5.56899554,21.4985975 6.88636364,21.5 L17.1136364,21.5 C18.4310045,21.4985975 19.4985908,20.4360773 19.5,19.1249607 L19.5,10.9819688 C19.4985908,9.67085214 18.4310045,8.60833195 17.1136364,8.60692944 Z M12.6818182,4.81662116 L14.9271307,7.05085457 C15.1951972,7.3043248 15.6174075,7.29894482 15.8788659,7.03872718 C16.1403243,6.77850953 16.1457299,6.35830281 15.8910511,6.09150833 L12.4819602,2.69859503 C12.2157299,2.43380166 11.7842701,2.43380166 11.5180398,2.69859503 L8.10894886,6.09150833 C7.85427008,6.35830281 7.8596757,6.77850953 8.12113408,7.03872718 C8.38259246,7.29894482 8.80480275,7.3043248 9.07286932,7.05085457 L11.3181818,4.81662116 L11.3181818,8.60692944 L12.6818182,8.60692944 L12.6818182,4.81662116 Z" id="Combined-Shape" fill="#000000" fill-rule="nonzero"></path>
        </g>
    </g>
</svg>