<?xml version="1.0" encoding="UTF-8"?>
<svg width="24px" height="24px" viewBox="0 0 24 24" version="1.1" xmlns="http://www.w3.org/2000/svg" xmlns:xlink="http://www.w3.org/1999/xlink">
    <title>VSQUARE/4) Icons/share_social/share_social</title>
    <g id="VSQUARE_Symbols" stroke="none" stroke-width="1" fill="none" fill-rule="evenodd">
        <g id="VSQUARE/4)-Icons/share_social/share_social">
            <rect id="Rectangle" x="0" y="0" width="24" height="24"></rect>
            <path d="M17.6666278,15.4588891 C16.8955984,15.4586055 16.1579956,15.7667283 15.6251174,16.3117001 L9.07386954,12.7069502 C9.20076901,12.2409019 9.20076901,11.7504925 9.07386954,11.2844442 L15.6251174,7.67969428 C16.6120926,8.68041413 18.2058557,8.80761369 19.3456816,7.9766356 C20.4855074,7.14565751 20.8160071,5.61559428 20.1172173,4.40477584 C19.4184276,3.19395739 17.9082256,2.6799075 16.5917227,3.20475084 C15.2752199,3.72959419 14.5628914,5.12968869 14.9288259,6.4732048 L8.37757813,10.0779547 C7.5769899,9.2616034 6.34935511,9.00318176 5.27622736,9.42510893 C4.2030996,9.84703609 3.5,10.8645745 3.5,11.9956972 C3.5,13.1268199 4.2030996,14.1443583 5.27622736,14.5662855 C6.34935511,14.9882126 7.5769899,14.729791 8.37757813,13.9134397 L14.9288259,17.5181896 C14.6173951,18.6648213 15.0870447,19.8781153 16.0968287,20.5356107 C17.1066127,21.1931062 18.4323891,21.1488586 19.3939898,20.4255686 C20.3555905,19.7022786 20.7395688,18.4604949 20.3489308,17.3372946 C19.9582929,16.2140943 18.8797487,15.4587943 17.6666278,15.4588891 Z" id="Path" fill="#000000" fill-rule="nonzero"></path>
        </g>
    </g>
</svg>