<?xml version="1.0" encoding="UTF-8"?>
<svg width="24px" height="24px" viewBox="0 0 24 24" version="1.1" xmlns="http://www.w3.org/2000/svg" xmlns:xlink="http://www.w3.org/1999/xlink">
    <title>VSQUARE/4) Icons/share_social/share_social_outline</title>
    <g id="VSQUARE_Symbols" stroke="none" stroke-width="1" fill="none" fill-rule="evenodd">
        <g id="VSQUARE/4)-Icons/share_social/share_social_outline">
            <rect id="Rectangle" x="0" y="0" width="24" height="24"></rect>
            <path d="M17.6666667,3 C19.2314735,3 20.5,4.23982685 20.5,5.76923077 C20.5,7.29863469 19.2314735,8.53846154 17.6666667,8.53846154 C16.8634915,8.53846154 16.1383715,8.21182848 15.6227762,7.68705742 L9.07238847,11.2889201 C9.13389488,11.5158351 9.16666667,11.754177 9.16666667,12 C9.16666667,12.245823 9.13389488,12.4841649 9.07238847,12.7110799 L15.6227762,16.3129426 C16.1383715,15.7881715 16.8634915,15.4615385 17.6666667,15.4615385 C19.2314735,15.4615385 20.5,16.7013653 20.5,18.2307692 C20.5,19.7601732 19.2314735,21 17.6666667,21 C16.1018599,21 14.8333333,19.7601732 14.8333333,18.2307692 C14.8333333,17.9850688 14.8660724,17.746842 14.9275195,17.5200288 L8.37722378,13.9178267 C7.86162847,14.4425977 7.1365085,14.7692308 6.33333333,14.7692308 C4.76852654,14.7692308 3.5,13.5294039 3.5,12 C3.5,10.4705961 4.76852654,9.23076923 6.33333333,9.23076923 C7.1365085,9.23076923 7.86162847,9.55740229 8.37722378,10.0821733 L14.9275195,6.4799712 C14.8660724,6.25315798 14.8333333,6.01493119 14.8333333,5.76923077 C14.8333333,4.23982685 16.1018599,3 17.6666667,3 Z M17.6666667,16.8461538 C16.8842633,16.8461538 16.25,17.4660673 16.25,18.2307692 C16.25,18.9954712 16.8842633,19.6153846 17.6666667,19.6153846 C18.4490701,19.6153846 19.0833333,18.9954712 19.0833333,18.2307692 C19.0833333,17.4660673 18.4490701,16.8461538 17.6666667,16.8461538 Z M6.33333333,10.6153846 C5.55092994,10.6153846 4.91666667,11.235298 4.91666667,12 C4.91666667,12.764702 5.55092994,13.3846154 6.33333333,13.3846154 C7.11573673,13.3846154 7.75,12.764702 7.75,12 C7.75,11.235298 7.11573673,10.6153846 6.33333333,10.6153846 Z M17.6666667,4.38461538 C16.8842633,4.38461538 16.25,5.00452881 16.25,5.76923077 C16.25,6.53393273 16.8842633,7.15384615 17.6666667,7.15384615 C18.4490701,7.15384615 19.0833333,6.53393273 19.0833333,5.76923077 C19.0833333,5.00452881 18.4490701,4.38461538 17.6666667,4.38461538 Z" id="Combined-Shape" fill="#000000" fill-rule="nonzero"></path>
        </g>
    </g>
</svg>