<?xml version="1.0" encoding="UTF-8"?>
<svg width="24px" height="24px" viewBox="0 0 24 24" version="1.1" xmlns="http://www.w3.org/2000/svg" xmlns:xlink="http://www.w3.org/1999/xlink">
    <title>VSQUARE/4) Icons/share_social/share_social_sharp</title>
    <g id="VSQUARE_Symbols" stroke="none" stroke-width="1" fill="none" fill-rule="evenodd">
        <g id="VSQUARE/4)-Icons/share_social/share_social_sharp">
            <rect id="Rectangle" x="0" y="0" width="24" height="24"></rect>
            <path d="M17.4014527,14.937701 C16.5934683,14.937453 15.8175545,15.2469582 15.2401085,15.7998422 L9.61123015,12.703755 C9.72689622,12.2367892 9.72689622,11.7495518 9.61123015,11.282586 L15.238338,8.1864988 C16.3241875,9.21979131 18.0158856,9.32989673 19.2320855,8.44643482 C20.4482855,7.5629729 20.829788,5.9468702 20.1327337,4.63115228 C19.4356794,3.31543437 17.8659401,2.68869269 16.4269057,3.15154546 C14.9878712,3.61439823 14.1045539,5.03014394 14.3415772,6.49382678 L8.58168143,9.66352725 C7.32290105,8.63752154 5.46519457,8.74762053 4.34222624,9.91478316 C3.21925792,11.0819458 3.21925792,12.9026631 4.34222624,14.0698257 C5.46519457,15.2369884 7.32290105,15.3470874 8.58168143,14.3210817 L14.3415772,17.4925142 C14.137636,18.7463791 14.7540878,19.9917252 15.8860792,20.6126924 C17.0180706,21.2336596 18.425705,21.0986499 19.412866,20.2744294 C20.400027,19.4502089 20.7575112,18.1114501 20.3085321,16.9202085 C19.859553,15.7289668 18.6992603,14.9376953 17.4014527,14.937701 Z" id="Path" fill="#000000" fill-rule="nonzero"></path>
        </g>
    </g>
</svg>