<?xml version="1.0" encoding="UTF-8"?>
<svg width="24px" height="24px" viewBox="0 0 24 24" version="1.1" xmlns="http://www.w3.org/2000/svg" xmlns:xlink="http://www.w3.org/1999/xlink">
    <title>VSQUARE/4) Icons/star/star_outline</title>
    <g id="VSQUARE_Symbols" stroke="none" stroke-width="1" fill="none" fill-rule="evenodd">
        <g id="VSQUARE/4)-Icons/star/star_outline">
            <rect id="Rectangle" x="0" y="0" width="24" height="24"></rect>
            <path d="M9.2167968,9.14166876 L2.20122096,9.14166876 L2.18071169,9.14193923 C1.50801785,9.15974341 1.24383918,10.0519169 1.80540044,10.4448297 L7.49299909,14.4243165 L5.30009024,21.0541303 L5.29383738,21.0738681 C5.09689997,21.7241366 5.82751768,22.264827 6.3739437,21.8608022 L12,17.7008695 L17.6260563,21.8608022 L17.6426699,21.872757 C18.1927035,22.2577819 18.9156991,21.7065273 18.6999098,21.0541303 L16.5069572,14.4243165 L22.1945996,10.4448297 L22.2113642,10.4327718 C22.7562865,10.0299132 22.4796831,9.14166876 21.798779,9.14166876 L14.7831595,9.14166876 L12.6656409,2.49342784 C12.4560898,1.83552405 11.5439102,1.83552405 11.3343591,2.49342784 L9.2167968,9.14166876 Z M12,5.0247199 L13.6090757,10.0765747 L13.613991,10.091453 C13.7119103,10.3774978 13.9766537,10.5700025 14.2747166,10.5700025 L19.5404229,10.5700025 L15.2787216,13.5518429 L15.2659307,13.5610062 C15.016832,13.7436949 14.9128936,14.0714572 15.0113802,14.3692122 L16.672749,19.3920167 L12.4106915,16.2406662 L12.3972426,16.2309644 C12.1536589,16.0595656 11.8298654,16.0627995 11.5893085,16.2406662 L7.32720725,19.3920167 L8.98861982,14.3692122 L8.99345344,14.3540471 C9.08509461,14.0553252 8.97528136,13.7295635 8.72127839,13.5518429 L4.45953332,10.5700025 L9.72528344,10.5700025 C10.0284853,10.5700025 10.2972089,10.3708025 10.3909243,10.0765747 L12,5.0247199 Z" id="Path" fill="#000000" fill-rule="nonzero"></path>
        </g>
    </g>
</svg>