<?xml version="1.0" encoding="UTF-8"?>
<svg width="24px" height="24px" viewBox="0 0 24 24" version="1.1" xmlns="http://www.w3.org/2000/svg" xmlns:xlink="http://www.w3.org/1999/xlink">
    <title>VSQUARE/4) Icons/star/star</title>
    <g id="VSQUARE_Symbols" stroke="none" stroke-width="1" fill="none" fill-rule="evenodd">
        <g id="VSQUARE/4)-Icons/star/star">
            <rect id="Rectangle" x="0" y="0" width="24" height="24"></rect>
            <path d="M18.0368074,21.9978529 C17.8894597,21.9984396 17.7456875,21.9515783 17.6259677,21.8639433 L11.9989077,17.702032 L6.37184775,21.8639433 C6.125166,22.0464759 5.79107929,22.0452371 5.54570468,21.8608798 C5.30033007,21.6765225 5.20004437,21.3514044 5.29771415,21.0569146 L7.49235942,14.4252633 L1.80448293,10.4459154 C1.551603,10.2691941 1.44082393,9.94518828 1.53110805,9.64635053 C1.62139217,9.34751277 1.89174021,9.14335008 2.19825899,9.14252838 L9.21534847,9.14252838 L11.3329886,2.49391523 C11.4265759,2.19943816 11.6954676,2 11.9989077,2 C12.3023479,2 12.5712395,2.19943816 12.6648268,2.49391523 L14.782467,9.1447602 L21.7995565,9.1447602 C22.1064788,9.14460601 22.3777075,9.3484325 22.4685685,9.64751823 C22.5594296,9.94660396 22.4487312,10.2711923 22.1955202,10.4481473 L16.505456,14.4252633 L18.6987887,21.0551291 C18.7708836,21.2728888 18.7358436,21.5127389 18.6046391,21.6995865 C18.4734346,21.8864341 18.2621026,21.997441 18.0368074,21.9978529 Z" id="Path" fill="#000000" fill-rule="nonzero"></path>
        </g>
    </g>
</svg>