<?xml version="1.0" encoding="UTF-8"?>
<svg width="24px" height="24px" viewBox="0 0 24 24" version="1.1" xmlns="http://www.w3.org/2000/svg" xmlns:xlink="http://www.w3.org/1999/xlink">
    <title>VSQUARE/4) Icons/sync/sync_sharp</title>
    <g id="VSQUARE_Symbols" stroke="none" stroke-width="1" fill="none" fill-rule="evenodd">
        <g id="VSQUARE/4)-Icons/sync/sync_sharp">
            <rect id="Rectangle" x="0" y="0" width="24" height="24"></rect>
            <path d="M4.3260335,9.10657793 L7.25814779,11.9780965 L6.31644061,12.9860881 L5.051,11.747 L5.05186738,12.0069837 C5.05186738,15.9292832 8.16044849,19.1051297 11.9990142,19.1051305 C14.0872373,19.1020365 16.0639333,18.1448307 17.3909171,16.4969007 L17.4309293,16.4467523 L17.8594985,15.9046463 L18.9184556,16.7822265 L18.4898864,17.3243326 C16.9045796,19.3296201 14.5207497,20.4962659 12,20.5 C7.45459883,20.5 3.7639596,16.7759379 3.69060135,12.1475129 L3.68948844,12.0069837 L3.689,11.731 L2.46334739,12.9863316 L1.5,12.0000094 L4.3260335,9.10657793 Z M11.9774356,3.5000064 C16.5205129,3.5000064 20.2134295,7.22599867 20.2868335,11.8504486 L20.2879472,11.9908555 L20.287,12.292 L21.5366526,11.0136872 L22.5,12.0000094 L19.6739665,14.8934408 L16.7418522,12.0219222 L17.6835594,11.0139306 L18.925,12.23 L18.9255682,11.9908555 C18.9255682,8.07272832 15.8146746,4.89488307 11.9765992,4.89488255 C9.88346212,4.89225115 7.90219638,5.85695676 6.58329913,7.51808641 L6.54353586,7.56863656 L6.11868726,8.11380393 L5.05375015,7.24384233 L5.47859876,6.69867496 C7.05612009,4.6743935 9.4489208,3.49683355 11.9774356,3.5000064 Z" id="Combined-Shape" fill="#000000" fill-rule="nonzero"></path>
        </g>
    </g>
</svg>