<?xml version="1.0" encoding="UTF-8"?>
<svg width="24px" height="24px" viewBox="0 0 24 24" version="1.1" xmlns="http://www.w3.org/2000/svg" xmlns:xlink="http://www.w3.org/1999/xlink">
    <title>VSQUARE/4) Icons/sync/sync_outline</title>
    <g id="VSQUARE_Symbols" stroke="none" stroke-width="1" fill="none" fill-rule="evenodd">
        <g id="VSQUARE/4)-Icons/sync/sync_outline">
            <rect id="Rectangle" x="0" y="0" width="24" height="24"></rect>
            <path d="M4.94949861,9.56699861 L4.9608151,9.57806695 L6.87748176,11.4960136 C7.14355115,11.7622606 7.15292906,12.2037431 6.8984279,12.4820923 C6.64746149,12.7565756 6.23361103,12.7699279 5.96702717,12.5149391 L5.95585157,12.5040052 L5.2,11.748 L5.2,12.0069837 C5.2,15.9292832 8.24230686,19.1051297 11.9990353,19.1051305 C14.0633814,19.1020053 16.0163619,18.1253959 17.3151431,16.4467523 C17.5467892,16.1473554 17.966577,16.1010993 18.2527655,16.3434364 C18.5389541,16.5857735 18.5831695,17.0249357 18.3515235,17.3243326 C16.8000151,19.3296201 14.4670078,20.4962659 12,20.5 C7.55150576,20.5 3.93955012,16.7759379 3.86775585,12.1475129 L3.86666667,12.0069837 L3.866,11.731 L3.13807119,12.4931705 C2.88133763,12.761753 2.46730575,12.7654833 2.20620279,12.5043614 L2.19526215,12.4931705 C1.93852858,12.224588 1.93496284,11.7914474 2.18456491,11.5182938 L2.19526215,11.5068483 L4.02859548,9.58890166 C4.28120305,9.32463556 4.68711848,9.31618453 4.94949861,9.56699861 Z M11.9779167,3.5000064 C16.4241365,3.5000064 20.0383211,7.22599867 20.1101601,11.8504486 L20.11125,11.9908555 L20.111,12.291 L20.8619288,11.5068483 C21.1222783,11.2344829 21.5443883,11.2344829 21.8047379,11.5068483 C22.0614714,11.7754308 22.0650372,12.2085713 21.8154351,12.4817249 L21.8047379,12.4931705 L19.9714045,14.4111171 C19.7187969,14.6753832 19.3128815,14.6838342 19.0505014,14.4330201 L19.0391849,14.4219518 L17.1225182,12.5040052 C16.8564489,12.2377581 16.8470709,11.7962756 17.1015721,11.5179264 C17.3525385,11.2434432 17.766389,11.2300908 18.0329728,11.4850797 L18.0441484,11.4960136 L18.777,12.23 L18.7779167,11.9908555 C18.7779167,8.07272832 15.7333466,4.89488307 11.9770981,4.89488255 C9.90789419,4.89222457 7.95039956,5.87654446 6.65986644,7.56863656 C6.43023145,7.86972418 6.01076374,7.91905639 5.72295907,7.67882313 C5.43515441,7.43858987 5.38799857,6.99976258 5.61763356,6.69867496 C7.16152249,4.6743935 9.50330923,3.49683355 11.9779167,3.5000064 Z" id="Combined-Shape" fill="#000000" fill-rule="nonzero"></path>
        </g>
    </g>
</svg>