<?xml version="1.0" encoding="UTF-8"?>
<svg width="24px" height="24px" viewBox="0 0 24 24" version="1.1" xmlns="http://www.w3.org/2000/svg" xmlns:xlink="http://www.w3.org/1999/xlink">
    <title>VSQUARE/4) Icons/time/time_sharp</title>
    <g id="VSQUARE_Symbols" stroke="none" stroke-width="1" fill="none" fill-rule="evenodd">
        <g id="VSQUARE/4)-Icons/time/time_sharp">
            <rect id="Rectangle" x="0" y="0" width="24" height="24"></rect>
            <path d="M12,3 C7.02966346,3 3,7.02966346 3,12 C3,16.9625481 7.03788462,21 12,21 C16.9699038,21 21,16.9699038 21,12 C21,7.03745192 16.9625481,3 12,3 Z M16.6730769,13.3846154 L11.4807692,13.3846154 C11.3851815,13.3846154 11.3076923,13.3071262 11.3076923,13.2115385 L11.3076923,5.94230769 C11.3076923,5.84671995 11.3851815,5.76923077 11.4807692,5.76923077 L12.5192308,5.76923077 C12.6148185,5.76923077 12.6923077,5.84671995 12.6923077,5.94230769 L12.6923077,12 L16.6730769,12 C16.7686647,12 16.8461538,12.0774892 16.8461538,12.1730769 L16.8461538,13.2115385 C16.8461538,13.3071262 16.7686647,13.3846154 16.6730769,13.3846154 Z" id="Shape" fill="#000000" fill-rule="nonzero"></path>
        </g>
    </g>
</svg>