<?xml version="1.0" encoding="UTF-8"?>
<svg width="24px" height="24px" viewBox="0 0 24 24" version="1.1" xmlns="http://www.w3.org/2000/svg" xmlns:xlink="http://www.w3.org/1999/xlink">
    <title>VSQUARE/4) Icons/time/time_outline</title>
    <g id="VSQUARE_Symbols" stroke="none" stroke-width="1" fill="none" fill-rule="evenodd">
        <g id="VSQUARE/4)-Icons/time/time_outline">
            <rect id="Rectangle" x="0" y="0" width="24" height="24"></rect>
            <path d="M12,3 C16.9688894,3 21,7.03111056 21,12 C21,16.9688894 16.9688894,21 12,21 C7.03111056,21 3,16.9688894 3,12 C3,7.03111056 7.03111056,3 12,3 Z M12,4.38461538 C7.79581252,4.38461538 4.38461538,7.79581252 4.38461538,12 C4.38461538,16.2041875 7.79581252,19.6153846 12,19.6153846 C16.2041875,19.6153846 19.6153846,16.2041875 19.6153846,12 C19.6153846,7.79581252 16.2041875,4.38461538 12,4.38461538 Z M12,5.76923077 C12.3777992,5.76923077 12.6849175,6.07185149 12.6921763,6.44791425 L12.6923077,12 L16.1538462,12 C16.5316453,12 16.8387637,12.3026207 16.8460225,12.6786835 L16.8461538,12.6923077 C16.8461538,13.0701069 16.5435331,13.3772252 16.1674704,13.384484 L12,13.3846154 C11.6222008,13.3846154 11.3150825,13.0819947 11.3078237,12.7059319 L11.3076923,6.46153846 C11.3076923,6.07918748 11.617649,5.76923077 12,5.76923077 Z" id="Combined-Shape" fill="#000000" fill-rule="nonzero"></path>
        </g>
    </g>
</svg>