<?xml version="1.0" encoding="UTF-8"?>
<svg width="24px" height="24px" viewBox="0 0 24 24" version="1.1" xmlns="http://www.w3.org/2000/svg" xmlns:xlink="http://www.w3.org/1999/xlink">
    <title>VSQUARE/4) Icons/time/time</title>
    <g id="VSQUARE_Symbols" stroke="none" stroke-width="1" fill="none" fill-rule="evenodd">
        <g id="VSQUARE/4)-Icons/time/time">
            <rect id="Rectangle" x="0" y="0" width="24" height="24"></rect>
            <path d="M12,3 C7.02966346,3 3,7.02966346 3,12 C3,16.9703365 7.02966346,21 12,21 C16.9703365,21 21,16.9703365 21,12 C21,7.02966346 16.9703365,3 12,3 Z M16.1538462,13.3846154 L12,13.3846154 C11.617649,13.3846154 11.3076923,13.0746587 11.3076923,12.6923077 L11.3076923,6.46153846 C11.3076923,6.07918748 11.617649,5.76923077 12,5.76923077 C12.382351,5.76923077 12.6923077,6.07918748 12.6923077,6.46153846 L12.6923077,12 L16.1538462,12 C16.5361971,12 16.8461538,12.3099567 16.8461538,12.6923077 C16.8461538,13.0746587 16.5361971,13.3846154 16.1538462,13.3846154 Z" id="Shape" fill="#000000" fill-rule="nonzero"></path>
        </g>
    </g>
</svg>