<?xml version="1.0" encoding="UTF-8"?>
<svg width="24px" height="24px" viewBox="0 0 24 24" version="1.1" xmlns="http://www.w3.org/2000/svg" xmlns:xlink="http://www.w3.org/1999/xlink">
    <title>VSQUARE/4) Icons/trash/trash_sharp</title>
    <g id="VSQUARE_Symbols" stroke="none" stroke-width="1" fill="none" fill-rule="evenodd">
        <g id="VSQUARE/4)-Icons/trash/trash_sharp">
            <rect id="Rectangle" x="0" y="0" width="24" height="24"></rect>
            <path d="M19.4824219,5.57142857 L15.125,5.57142857 L15.125,3.64285714 C15.125,3.28781695 14.845178,3 14.5,3 L9.5,3 C9.15482203,3 8.875,3.28781695 8.875,3.64285714 L8.875,5.57142857 L4.51757812,5.57142857 L4.5,7.17857143 L5.7890625,7.17857143 L6.57382812,19.7946429 C6.61505333,20.4717696 7.16070553,20.9994182 7.8203125,21 L16.1796875,21 C16.838889,21 17.384723,20.4732949 17.4269531,19.7966518 L18.2109375,7.17857143 L19.5,7.17857143 L19.4824219,5.57142857 Z M8.875,18.4285714 L8.5234375,8.14285714 L9.8125,8.14285714 L10.1640625,18.4285714 L8.875,18.4285714 Z M12.625,18.4285714 L11.375,18.4285714 L11.375,8.14285714 L12.625,8.14285714 L12.625,18.4285714 Z M13.5625,5.57142857 L10.4375,5.57142857 L10.4375,4.44642857 C10.4375,4.35766852 10.5074555,4.28571429 10.59375,4.28571429 L13.40625,4.28571429 C13.4925445,4.28571429 13.5625,4.35766852 13.5625,4.44642857 L13.5625,5.57142857 Z M15.125,18.4285714 L13.8359375,18.4285714 L14.1875,8.14285714 L15.4765625,8.14285714 L15.125,18.4285714 Z" id="Shape" fill="#000000" fill-rule="nonzero"></path>
        </g>
    </g>
</svg>