<?xml version="1.0" encoding="UTF-8"?>
<svg width="24px" height="24px" viewBox="0 0 24 24" version="1.1" xmlns="http://www.w3.org/2000/svg" xmlns:xlink="http://www.w3.org/1999/xlink">
    <title>VSQUARE/4) Icons/trash/trash_outline</title>
    <g id="VSQUARE_Symbols" stroke="none" stroke-width="1" fill="none" fill-rule="evenodd">
        <g id="VSQUARE/4)-Icons/trash/trash_outline">
            <rect id="Rectangle" x="0" y="0" width="24" height="24"></rect>
            <path d="M13.5606792,3.00000674 C13.9759334,2.99876921 14.3745294,3.16788888 14.6681592,3.46990793 C14.9566377,3.7666284 15.1204022,4.16755891 15.1249148,4.58478974 L15.125004,4.60715649 L15.125,5.571 L18.875,5.5714414 C19.220178,5.5714414 19.5,5.85925811 19.5,6.21429801 C19.5,6.56511124 19.2268007,6.85029231 18.8872996,6.85703262 L18.211,6.857 L17.4675861,19.1106446 C17.4041978,20.1774911 16.6353522,20.9837388 15.6244568,20.999757 L15.59375,21 L8.40625,21 C7.38968037,21 6.60183251,20.199043 6.53391068,19.1366881 L6.53246714,19.1115305 L5.788,6.857 L5.125,6.85715462 C4.77982203,6.85715462 4.5,6.56933791 4.5,6.21429801 C4.5,5.86348477 4.77319926,5.57830371 5.11270036,5.5715634 L8.874,5.571 L8.87499201,4.60902935 C8.87378885,4.18191109 9.03821089,3.77192698 9.33184076,3.46990793 C9.62031924,3.17318746 10.0101131,3.00474414 10.4157545,3.00010259 L13.5606792,3.00000674 Z M16.959,6.857 L7.04,6.857 L7.78042669,19.0384443 C7.80061911,19.4426811 8.05345762,19.7077628 8.39361204,19.7141681 L15.59375,19.7142868 C15.9354872,19.7142868 16.1888603,19.4562032 16.2189549,19.0465706 L16.2199671,19.0313299 L16.959,6.857 Z M12,8.14286783 C12.3410687,8.14286783 12.6183283,8.42387255 12.6248814,8.7730734 L12.625,17.785717 C12.625,18.1407569 12.345178,18.4285736 12,18.4285736 C11.6589313,18.4285736 11.3816717,18.1475688 11.3751186,17.798368 L11.375,17.785717 L11.375,8.78572444 C11.375,8.43068454 11.654822,8.14286783 12,8.14286783 Z M9.16519279,8.14327743 C9.50604419,8.13075636 9.79287804,8.40140349 9.81154426,8.75014128 L9.81210178,8.7627799 L10.1246018,17.7627724 C10.1369217,18.1175861 9.86726525,18.4154921 9.52230721,18.428164 C9.18145581,18.440685 8.89462196,18.1700379 8.87595574,17.8213001 L8.87539822,17.8086615 L8.56289822,8.80866898 C8.55057829,8.45385529 8.82023475,8.15594934 9.16519279,8.14327743 Z M14.8348072,8.14327743 C15.1756586,8.15579849 15.4429906,8.44680271 15.4374222,8.79602164 L15.4371018,8.80866898 L15.1246018,17.8086615 C15.1122819,18.1634752 14.8226508,18.4408359 14.4776928,18.428164 C14.1368414,18.4156429 13.8695094,18.1246387 13.8750778,17.7754198 L13.8753982,17.7627724 L14.1878982,8.7627799 C14.2002181,8.40796622 14.4898492,8.13060551 14.8348072,8.14327743 Z M13.5745056,4.28591774 L10.4356792,4.28572132 C10.3532043,4.28547418 10.2740398,4.31906276 10.2157242,4.37904447 C10.1601856,4.4361699 10.1279213,4.51274619 10.1251843,4.59480784 L10.124996,4.60715649 L10.124,5.571 L13.875,5.571 L13.8750067,4.60528362 C13.8752469,4.52045244 13.8425914,4.43902617 13.7842758,4.37904447 C13.7287371,4.32191903 13.6542879,4.28873294 13.5745056,4.28591774 Z" id="Combined-Shape" fill="#000000" fill-rule="nonzero"></path>
        </g>
    </g>
</svg>