<?xml version="1.0" encoding="UTF-8"?>
<svg width="24px" height="24px" viewBox="0 0 24 24" version="1.1" xmlns="http://www.w3.org/2000/svg" xmlns:xlink="http://www.w3.org/1999/xlink">
    <title>VSQUARE/4) Icons/trash/trash</title>
    <g id="VSQUARE_Symbols" stroke="none" stroke-width="1" fill="none" fill-rule="evenodd">
        <g id="VSQUARE/4)-Icons/trash/trash">
            <rect id="Rectangle" x="0" y="0" width="24" height="24"></rect>
            <path d="M18.875,5.57142857 L15.125,5.57142857 L15.125,4.60714286 C15.125,3.71954237 14.4254449,3 13.5625,3 L10.4375,3 C9.57455508,3 8.875,3.71954237 8.875,4.60714286 L8.875,5.57142857 L5.125,5.57142857 C4.77982203,5.57142857 4.5,5.85924552 4.5,6.21428571 C4.5,6.56932591 4.77982203,6.85714286 5.125,6.85714286 L5.7890625,6.85714286 L6.53125,19.1083929 C6.58671875,20.1871875 7.390625,21 8.40625,21 L15.59375,21 C16.6144531,21 17.4023438,20.2052679 17.46875,19.1116071 L18.2109375,6.85714286 L18.875,6.85714286 C19.220178,6.85714286 19.5,6.56932591 19.5,6.21428571 C19.5,5.85924552 19.220178,5.57142857 18.875,5.57142857 Z M9.52226562,18.4285716 L9.5,18.4285716 C9.1633336,18.4287912 8.88699368,18.1546818 8.875,17.8086161 L8.5625,8.80861607 C8.55020303,8.45357588 8.82005641,8.15550545 9.16523437,8.14285714 C9.51041234,8.13020884 9.80020303,8.4077723 9.8125,8.7628125 L10.125,17.7628125 C10.1310116,17.9333381 10.0708629,18.0993258 9.95780623,18.2242042 C9.84474961,18.3490825 9.68806191,18.4226045 9.52226562,18.4285716 Z M12.625,17.7857143 C12.625,18.1407545 12.345178,18.4285714 12,18.4285714 C11.654822,18.4285714 11.375,18.1407545 11.375,17.7857143 L11.375,8.78571429 C11.375,8.43067409 11.654822,8.14285714 12,8.14285714 C12.345178,8.14285714 12.625,8.43067409 12.625,8.78571429 L12.625,17.7857143 Z M13.8750203,5.57142857 L10.1249797,5.57142857 L10.1249797,4.60714286 C10.1240482,4.52159834 10.1566665,4.43927167 10.2154792,4.3787786 C10.2742919,4.31828553 10.3543317,4.28473529 10.4375,4.28571429 L13.5625,4.28571429 C13.6456683,4.28473529 13.7257081,4.31828553 13.7845208,4.3787786 C13.8433335,4.43927167 13.8759518,4.52159834 13.8750203,4.60714286 L13.8750203,5.57142857 Z M15.125,17.8086161 C15.1130063,18.1546818 14.8366664,18.4287912 14.5,18.4285716 L14.4773437,18.4285716 C14.3116163,18.4225004 14.1550285,18.348933 14.0420556,18.2240662 C13.9290827,18.0991994 13.8689871,17.9332709 13.875,17.7628125 L14.1875,8.7628125 C14.1954547,8.53314176 14.3219295,8.3252823 14.5192826,8.21753276 C14.7166356,8.10978322 14.9548843,8.11851334 15.1442826,8.24043455 C15.3336809,8.36235576 15.4454547,8.57894533 15.4375,8.80861607 L15.125,17.8086161 Z" id="Shape" fill="#000000" fill-rule="nonzero"></path>
        </g>
    </g>
</svg>