<?xml version="1.0" encoding="UTF-8"?>
<svg width="24px" height="24px" viewBox="0 0 24 24" version="1.1" xmlns="http://www.w3.org/2000/svg" xmlns:xlink="http://www.w3.org/1999/xlink">
    <title>VSQUARE/4) Icons/volume_medium/volume_medium</title>
    <g id="VSQUARE_Symbols" stroke="none" stroke-width="1" fill="none" fill-rule="evenodd">
        <g id="VSQUARE/4)-Icons/volume_medium/volume_medium">
            <rect id="Rectangle" x="0" y="0" width="24" height="24"></rect>
            <path d="M12.3333333,18.5 C12.120152,18.4998628 11.9126328,18.4331614 11.74125,18.309691 L11.71375,18.2889965 L7.90291667,15.2456763 L5,15.2456763 C4.44771525,15.2456763 4,14.8096633 4,14.2718139 L4,9.72752828 C4,9.1896789 4.44771525,8.75366584 5,8.75366584 L7.90208333,8.75366584 L11.7129167,5.71034571 L11.7404167,5.68965113 C12.0442311,5.4717991 12.4480853,5.43901454 12.7847435,5.60487353 C13.1214017,5.77073251 13.3335482,6.10699774 13.3333335,6.47442195 L13.3333335,17.525326 C13.3333335,18.0631754 12.8856181,18.4991884 12.3333333,18.4991884 L12.3333333,18.5 Z M18.57625,7.13056177 C19.455,8.59784785 20,9.92554697 20,11.999874 C20,14.043362 19.4558333,15.3775535 18.5783333,16.8691862 C18.4590694,17.0703588 18.2385282,17.1941494 18,17.1938077 C17.7617218,17.1940042 17.5414516,17.0703373 17.4222248,16.8694252 C17.302998,16.668513 17.3029441,16.420906 17.4220833,16.2199446 C18.2083333,14.8829126 18.6666667,13.7629708 18.6666667,11.999874 C18.6666667,10.2095902 18.2108333,9.0977639 17.42375,7.78183227 C17.2549076,7.47344134 17.3670336,7.09022576 17.6774306,6.91482237 C17.9878276,6.73941897 18.3851029,6.83477509 18.57625,7.13056177 Z M16.5941667,9.1079083 C17.0916667,10.0586415 17.3333333,11.0045054 17.3333333,11.999874 C17.3333333,12.9668382 17.0833333,13.9386718 16.5958333,14.8881877 C16.4826926,15.1076113 16.2521243,15.2460821 16,15.2460821 C15.7688076,15.2459623 15.5541839,15.1292022 15.4328602,14.9375453 C15.3115365,14.7458885 15.3008357,14.5066999 15.4045833,14.3054933 C15.8,13.5385766 16.0004167,12.7635444 16.0004167,11.999874 C16.0004167,11.2142916 15.80625,10.4611713 15.4066667,9.69790663 C15.2474026,9.37973188 15.3791925,8.995954 15.7029575,8.83509435 C16.0267226,8.6742347 16.4231313,8.79558202 16.5941667,9.1079083 Z" id="Combined-Shape" fill="#000000" fill-rule="nonzero"></path>
        </g>
    </g>
</svg>