<?xml version="1.0" encoding="UTF-8"?>
<svg width="24px" height="24px" viewBox="0 0 24 24" version="1.1" xmlns="http://www.w3.org/2000/svg" xmlns:xlink="http://www.w3.org/1999/xlink">
    <title>VSQUARE/4) Icons/volume_medium/volume_medium_outline</title>
    <g id="VSQUARE_Symbols" stroke="none" stroke-width="1" fill="none" fill-rule="evenodd">
        <g id="VSQUARE/4)-Icons/volume_medium/volume_medium_outline">
            <rect id="Rectangle" x="0" y="0" width="24" height="24"></rect>
            <path d="M11.7268409,5.69966797 L11.7199505,5.70495245 L7.90275,8.75313681 L5,8.75315614 C4.44771525,8.75315614 4,9.18920006 4,9.7270875 L4,14.2721005 C4,14.809988 4.44771525,15.2460319 5,15.2460319 L7.90174744,15.2460318 L11.7131318,18.2896746 C11.7221749,18.2968961 11.7314115,18.3038847 11.7408321,18.3106329 C12.0448844,18.5284358 12.4489469,18.5609516 12.785581,18.3947062 C13.1222142,18.2284613 13.3340596,17.8917831 13.3333364,17.5241866 L13.3333364,6.47375095 C13.3333364,6.10639516 13.1209754,5.77041358 12.7844656,5.6047441 C12.4480206,5.43910653 12.044523,5.47182369 11.7408332,5.68936589 L11.7268409,5.69966797 Z M12,7.16047497 L12,16.839486 L8.74728486,14.2419637 L8.73017468,14.2285212 C8.49494857,14.0468158 8.2032425,13.9476044 7.90241923,13.9474568 L5.33333333,13.9474374 L5.33333333,10.051712 L7.90208333,10.0517313 C8.20204165,10.0520303 8.49370574,9.95338364 8.72926638,9.77214822 L8.74728486,9.75803591 L12,7.16047497 Z M18.5759135,7.12752547 C19.5888569,8.81943696 20,10.1089881 20,11.999594 C20,13.8703091 19.5872063,15.1526237 18.5784515,16.8673861 C18.395414,17.1785279 17.9880513,17.286245 17.6685813,17.1079791 C17.3491114,16.9297131 17.238511,16.5329698 17.4215485,16.221828 L17.4484167,16.1760095 L17.5011552,16.0851824 C18.3430469,14.6253402 18.6666667,13.5728406 18.6666667,11.999594 C18.6666667,10.3574852 18.3253944,9.28708404 17.4240865,7.78163651 C17.238624,7.47185987 17.3461221,7.07430855 17.6641904,6.89368078 C17.9822586,6.71305301 18.390451,6.81774884 18.5759135,7.12752547 Z M16.5938412,9.10736177 C17.0815039,10.0382638 17.3333333,10.9846504 17.3333333,11.999594 C17.3333333,12.9941053 17.0757595,13.9565212 16.5958544,14.8879514 C16.4307204,15.208454 16.0300797,15.3378948 15.7009984,15.1770656 C15.3719171,15.0162364 15.2390116,14.6260398 15.4041456,14.3055372 C15.7950365,13.5468715 16,12.7810323 16,11.999594 C16,11.1982294 15.8014663,10.4521304 15.4061588,9.69752566 C15.2388274,9.37810591 15.3690503,8.98705236 15.6970198,8.8240831 C16.0249892,8.66111384 16.4265099,8.78794202 16.5938412,9.10736177 Z" id="Combined-Shape" fill="#000000" fill-rule="nonzero"></path>
        </g>
    </g>
</svg>