<?xml version="1.0" encoding="UTF-8"?>
<svg width="24px" height="24px" viewBox="0 0 24 24" version="1.1" xmlns="http://www.w3.org/2000/svg" xmlns:xlink="http://www.w3.org/1999/xlink">
    <title>VSQUARE/4) Icons/volume_medium/volume_medium_sharp</title>
    <g id="VSQUARE_Symbols" stroke="none" stroke-width="1" fill="none" fill-rule="evenodd">
        <g id="VSQUARE/4)-Icons/volume_medium/volume_medium_sharp">
            <rect id="Rectangle" x="0" y="0" width="24" height="24"></rect>
            <path d="M7.90208333,8.74320652 L4,8.74320652 L4,15.2567935 L7.90208333,15.2567935 L13.3333333,19.5 L13.3333333,4.5 L7.90208333,8.74320652 L7.90208333,8.74320652 Z M18.2401039,6.54287957 L18.5759135,7.1062732 C19.5888569,8.8057059 20,10.1009896 20,12 C20,13.8602408 19.5954209,15.1412268 18.6085355,16.837889 L18.5784515,16.8894313 L18.2470328,17.4553078 L17.0901299,16.8068799 L17.4215485,16.2410035 C18.3227196,14.7023108 18.6666667,13.6291137 18.6666667,12 C18.6666667,10.3835796 18.3389087,9.31866794 17.4774947,7.85350412 L17.4240865,7.76329201 L17.0882769,7.19989838 L18.2401039,6.54287957 Z M16.290861,8.51397899 L16.5938412,9.09491065 C17.0815039,10.0299509 17.3333333,10.9805446 17.3333333,12 C17.3333333,12.9842421 17.0832795,13.9371874 16.6168823,14.8599019 L16.5958544,14.9011973 L16.2968528,15.4840983 L15.105144,14.8990951 L15.4041456,14.316194 C15.7950365,13.5541557 16,12.7849121 16,12 C16,11.2084884 15.8080289,10.4706532 15.4257601,9.72558919 L15.4061588,9.68769805 L15.1031785,9.10676639 L16.290861,8.51397899 Z" id="Combined-Shape" fill="#000000" fill-rule="nonzero"></path>
        </g>
    </g>
</svg>