<?xml version="1.0" encoding="UTF-8"?>
<svg width="24px" height="24px" viewBox="0 0 24 24" version="1.1" xmlns="http://www.w3.org/2000/svg" xmlns:xlink="http://www.w3.org/1999/xlink">
    <title>VSQUARE/4) Icons/vs_chevron_first/vs_chevron_first_outline</title>
    <g id="VSQUARE_Symbols" stroke="none" stroke-width="1" fill="none" fill-rule="evenodd">
        <g id="VSQUARE/4)-Icons/vs_chevron_first/vs_chevron_first_outline">
            <rect id="Rectangle" x="0" y="0" width="24" height="24"></rect>
            <path d="M11.7437184,6.25105133 C12.0819044,6.58233556 12.0853909,7.11733143 11.7541778,7.4528159 L11.7437184,7.46323438 L7.11243229,12 L11.7437184,16.5367656 C12.0819044,16.8680498 12.0853909,17.4030457 11.7541778,17.7385302 L11.7437184,17.7489487 C11.4055324,18.0802329 10.8593908,18.0836482 10.5169171,17.7591946 L10.5062816,17.7489487 L5.25628157,12.6060915 C4.91809558,12.2748073 4.91460913,11.7398114 5.24582221,11.404327 L5.25628157,11.3939085 L10.5062816,6.25105133 C10.8479903,5.91631622 11.4020097,5.91631622 11.7437184,6.25105133 Z M18.7437184,6.25105133 C19.0819044,6.58233556 19.0853909,7.11733143 18.7541778,7.4528159 L18.7437184,7.46323438 L14.1124323,12 L18.7437184,16.5367656 C19.0819044,16.8680498 19.0853909,17.4030457 18.7541778,17.7385302 L18.7437184,17.7489487 C18.4055324,18.0802329 17.8593908,18.0836482 17.5169171,17.7591946 L17.5062816,17.7489487 L12.2562816,12.6060915 C11.9180956,12.2748073 11.9146091,11.7398114 12.2458222,11.404327 L12.2562816,11.3939085 L17.5062816,6.25105133 C17.8479903,5.91631622 18.4020097,5.91631622 18.7437184,6.25105133 Z" id="Combined-Shape" fill="#000000" fill-rule="nonzero"></path>
        </g>
    </g>
</svg>