<?xml version="1.0" encoding="UTF-8"?>
<svg width="24px" height="24px" viewBox="0 0 24 24" version="1.1" xmlns="http://www.w3.org/2000/svg" xmlns:xlink="http://www.w3.org/1999/xlink">
    <title>VSQUARE/4) Icons/vs_chevron_last/vs_chevron_last</title>
    <g id="VSQUARE_Symbols" stroke="none" stroke-width="1" fill="none" fill-rule="evenodd">
        <g id="VSQUARE/4)-Icons/vs_chevron_last/vs_chevron_last">
            <rect id="Rectangle" x="0" y="0" width="24" height="24"></rect>
            <path d="M5.25628157,6.25105133 C5.59446755,5.9197671 6.14060916,5.9163518 6.48308289,6.24080543 L6.49371843,6.25105133 L11.7437184,11.3939085 C12.0819044,11.7251927 12.0853909,12.2601886 11.7541778,12.595673 L11.7437184,12.6060915 L6.49371843,17.7489487 C6.15200968,18.0836838 5.59799032,18.0836838 5.25628157,17.7489487 C4.91809558,17.4176644 4.91460913,16.8826686 5.24582221,16.5471841 L5.25628157,16.5367656 L9.88756771,12 L5.25628157,7.46323438 C4.91809558,7.13195015 4.91460913,6.59695429 5.24582221,6.26146982 L5.25628157,6.25105133 Z M12.2562816,6.25105133 C12.5944676,5.9197671 13.1406092,5.9163518 13.4830829,6.24080543 L13.4937184,6.25105133 L18.7437184,11.3939085 C19.0819044,11.7251927 19.0853909,12.2601886 18.7541778,12.595673 L18.7437184,12.6060915 L13.4937184,17.7489487 C13.1520097,18.0836838 12.5979903,18.0836838 12.2562816,17.7489487 C11.9180956,17.4176644 11.9146091,16.8826686 12.2458222,16.5471841 L12.2562816,16.5367656 L16.8875677,12 L12.2562816,7.46323438 C11.9180956,7.13195015 11.9146091,6.59695429 12.2458222,6.26146982 L12.2562816,6.25105133 Z" id="Combined-Shape" fill="#000000" fill-rule="nonzero"></path>
        </g>
    </g>
</svg>