<?xml version="1.0" encoding="UTF-8"?>
<svg width="24px" height="24px" viewBox="0 0 24 24" version="1.1" xmlns="http://www.w3.org/2000/svg" xmlns:xlink="http://www.w3.org/1999/xlink">
    <title>VSQUARE/4) Icons/vs_chevron_first/vs_chevron_first</title>
    <g id="VSQUARE_Symbols" stroke="none" stroke-width="1" fill="none" fill-rule="evenodd">
        <g id="VSQUARE/4)-Icons/vs_chevron_first/vs_chevron_first">
            <rect id="Rectangle" x="0" y="0" width="24" height="24"></rect>
            <path d="M11.7437184,6.25105133 C11.4055324,5.9197671 10.8593908,5.9163518 10.5169171,6.24080543 L10.5062816,6.25105133 L5.25628157,11.3939085 C4.91809558,11.7251927 4.91460913,12.2601886 5.24582221,12.595673 L5.25628157,12.6060915 L10.5062816,17.7489487 C10.8479903,18.0836838 11.4020097,18.0836838 11.7437184,17.7489487 C12.0819044,17.4176644 12.0853909,16.8826686 11.7541778,16.5471841 L11.7437184,16.5367656 L7.11243229,12 L11.7437184,7.46323438 C12.0819044,7.13195015 12.0853909,6.59695429 11.7541778,6.26146982 L11.7437184,6.25105133 Z M18.7437184,6.25105133 C18.4055324,5.9197671 17.8593908,5.9163518 17.5169171,6.24080543 L17.5062816,6.25105133 L12.2562816,11.3939085 C11.9180956,11.7251927 11.9146091,12.2601886 12.2458222,12.595673 L12.2562816,12.6060915 L17.5062816,17.7489487 C17.8479903,18.0836838 18.4020097,18.0836838 18.7437184,17.7489487 C19.0819044,17.4176644 19.0853909,16.8826686 18.7541778,16.5471841 L18.7437184,16.5367656 L14.1124323,12 L18.7437184,7.46323438 C19.0819044,7.13195015 19.0853909,6.59695429 18.7541778,6.26146982 L18.7437184,6.25105133 Z" id="Combined-Shape" fill="#000000" fill-rule="nonzero"></path>
        </g>
    </g>
</svg>