<?xml version="1.0" encoding="UTF-8"?>
<svg width="24px" height="24px" viewBox="0 0 24 24" version="1.1" xmlns="http://www.w3.org/2000/svg" xmlns:xlink="http://www.w3.org/1999/xlink">
    <title>VSQUARE/4) Icons/vs_chevron_last/vs_chevron_last_outline</title>
    <g id="VSQUARE_Symbols" stroke="none" stroke-width="1" fill="none" fill-rule="evenodd">
        <g id="VSQUARE/4)-Icons/vs_chevron_last/vs_chevron_last_outline">
            <rect id="Rectangle" x="0" y="0" width="24" height="24"></rect>
            <path d="M5.25628157,6.25105133 C5.59799032,5.91631622 6.15200968,5.91631622 6.49371843,6.25105133 L6.49371843,6.25105133 L11.7437184,11.3939085 L11.7541778,11.404327 C12.0853909,11.7398114 12.0819044,12.2748073 11.7437184,12.6060915 L11.7437184,12.6060915 L6.49371843,17.7489487 L6.48308289,17.7591946 C6.14060916,18.0836482 5.59446755,18.0802329 5.25628157,17.7489487 L5.25628157,17.7489487 L5.24582221,17.7385302 C4.91460913,17.4030457 4.91809558,16.8680498 5.25628157,16.5367656 L5.25628157,16.5367656 L9.88756771,12 L5.25628157,7.46323438 L5.24582221,7.4528159 C4.91460913,7.11733143 4.91809558,6.58233556 5.25628157,6.25105133 Z M12.2562816,6.25105133 C12.5979903,5.91631622 13.1520097,5.91631622 13.4937184,6.25105133 L13.4937184,6.25105133 L18.7437184,11.3939085 L18.7541778,11.404327 C19.0853909,11.7398114 19.0819044,12.2748073 18.7437184,12.6060915 L18.7437184,12.6060915 L13.4937184,17.7489487 L13.4830829,17.7591946 C13.1406092,18.0836482 12.5944676,18.0802329 12.2562816,17.7489487 L12.2562816,17.7489487 L12.2458222,17.7385302 C11.9146091,17.4030457 11.9180956,16.8680498 12.2562816,16.5367656 L12.2562816,16.5367656 L16.8875677,12 L12.2562816,7.46323438 L12.2458222,7.4528159 C11.9146091,7.11733143 11.9180956,6.58233556 12.2562816,6.25105133 Z" id="Combined-Shape" fill="#000000" fill-rule="nonzero"></path>
        </g>
    </g>
</svg>