<?xml version="1.0" encoding="UTF-8"?>
<svg width="24px" height="24px" viewBox="0 0 24 24" version="1.1" xmlns="http://www.w3.org/2000/svg" xmlns:xlink="http://www.w3.org/1999/xlink">
    <title>VSQUARE/4) Icons/vs_clip/vs_clip_sharp</title>
    <g id="VSQUARE_Symbols" stroke="none" stroke-width="1" fill="none" fill-rule="evenodd">
        <g id="VSQUARE/4)-Icons/vs_clip/vs_clip_sharp">
            <rect id="Rectangle" x="0" y="0" width="24" height="24"></rect>
            <path d="M8.86809556,14.8063995 C8.54692642,15.1428754 8.54692642,15.6878955 8.86809556,16.0243713 C9.1939149,16.3492524 9.70617133,16.3492524 10.0319907,16.0243713 L16.7494965,8.95048743 C17.5917213,8.06939664 17.5917213,6.64086623 16.7494965,5.75977544 C15.9072716,4.87868466 14.5417553,4.87868466 13.6995304,5.75977544 L7.07562699,12.7383047 C5.73193948,14.1438977 5.73186101,16.4228963 7.07545171,17.8285906 C8.4190424,19.2342849 10.5975118,19.234367 11.9411993,17.828774 L18.1088251,11.4047384 L18.8523858,12.1826119 L12.68476,18.6066475 C11.5518328,19.8038604 9.89301363,20.2750875 8.3368586,19.8417724 C6.78070357,19.4084574 5.56529933,18.1368961 5.15118421,16.5089058 C4.7370691,14.8809154 5.18760136,13.1455731 6.33206629,11.9604312 L12.9570214,4.98300211 C13.7673061,4.13525987 14.9483553,3.80414389 16.0552791,4.11438235 C17.1622029,4.42462081 18.0268332,5.3290811 18.3234722,6.4870618 C18.6201113,7.64504249 18.3036925,8.88061877 17.4934077,9.72836101 L10.7759019,16.8022449 C10.0421596,17.5583808 8.86275591,17.5537385 8.13447321,16.7918479 C7.40619052,16.0299574 7.40175302,14.7961281 8.12453487,14.028526 L14.7522945,7.04852969 L15.4951541,7.82640326 L8.86809556,14.8063995 Z" id="Path" fill="#000000" fill-rule="nonzero"></path>
        </g>
    </g>
</svg>