<?xml version="1.0" encoding="UTF-8"?>
<svg width="24px" height="24px" viewBox="0 0 24 24" version="1.1" xmlns="http://www.w3.org/2000/svg" xmlns:xlink="http://www.w3.org/1999/xlink">
    <title>VSQUARE/4) Icons/vs_ellipsis_vertical/vs_ellipsis_vertical_outline</title>
    <g id="VSQUARE_Symbols" stroke="none" stroke-width="1" fill="none" fill-rule="evenodd">
        <g id="VSQUARE/4)-Icons/vs_ellipsis_vertical/vs_ellipsis_vertical_outline">
            <rect id="Rectangle" x="0" y="0" width="24" height="24"></rect>
            <path d="M12,18 C12.2761424,18 12.5261424,18.1119288 12.7071068,18.2928932 C12.8880712,18.4738576 13,18.7238576 13,19 C13,19.2761424 12.8880712,19.5261424 12.7071068,19.7071068 C12.5261424,19.8880712 12.2761424,20 12,20 C11.7238576,20 11.4738576,19.8880712 11.2928932,19.7071068 C11.1119288,19.5261424 11,19.2761424 11,19 C11,18.7238576 11.1119288,18.4738576 11.2928932,18.2928932 C11.4738576,18.1119288 11.7238576,18 12,18 L12,18 Z M12,11 C12.2761424,11 12.5261424,11.1119288 12.7071068,11.2928932 C12.8880712,11.4738576 13,11.7238576 13,12 C13,12.2761424 12.8880712,12.5261424 12.7071068,12.7071068 C12.5261424,12.8880712 12.2761424,13 12,13 C11.7238576,13 11.4738576,12.8880712 11.2928932,12.7071068 C11.1119288,12.5261424 11,12.2761424 11,12 C11,11.7238576 11.1119288,11.4738576 11.2928932,11.2928932 C11.4738576,11.1119288 11.7238576,11 12,11 Z M12,4 C12.2761424,4 12.5261424,4.11192881 12.7071068,4.29289322 C12.8880712,4.47385763 13,4.72385763 13,5 C13,5.27614237 12.8880712,5.52614237 12.7071068,5.70710678 C12.5261424,5.88807119 12.2761424,6 12,6 C11.7238576,6 11.4738576,5.88807119 11.2928932,5.70710678 C11.1119288,5.52614237 11,5.27614237 11,5 C11,4.72385763 11.1119288,4.47385763 11.2928932,4.29289322 C11.4738576,4.11192881 11.7238576,4 12,4 Z" id="Combined-Shape" stroke="#000000" fill-rule="nonzero"></path>
        </g>
    </g>
</svg>