<?xml version="1.0" encoding="UTF-8"?>
<svg width="24px" height="24px" viewBox="0 0 24 24" version="1.1" xmlns="http://www.w3.org/2000/svg" xmlns:xlink="http://www.w3.org/1999/xlink">
    <title>VSQUARE/4) Icons/vs_ellipsis_vertical/vs_ellipsis_vertical</title>
    <g id="VSQUARE_Symbols" stroke="none" stroke-width="1" fill="none" fill-rule="evenodd">
        <g id="VSQUARE/4)-Icons/vs_ellipsis_vertical/vs_ellipsis_vertical">
            <rect id="Rectangle" x="0" y="0" width="24" height="24"></rect>
            <path d="M12,3.5 C12.8284271,3.5 13.5,4.17157288 13.5,5 C13.5,5.82842712 12.8284271,6.5 12,6.5 C11.1715729,6.5 10.5,5.82842712 10.5,5 C10.5,4.17157288 11.1715729,3.5 12,3.5 Z M12,10.5 C12.8284271,10.5 13.5,11.1715729 13.5,12 C13.5,12.8284271 12.8284271,13.5 12,13.5 C11.1715729,13.5 10.5,12.8284271 10.5,12 C10.5,11.1715729 11.1715729,10.5 12,10.5 Z M12,17.5 C12.8284271,17.5 13.5,18.1715729 13.5,19 C13.5,19.8284271 12.8284271,20.5 12,20.5 C11.1715729,20.5 10.5,19.8284271 10.5,19 C10.5,18.1715729 11.1715729,17.5 12,17.5 Z" id="Combined-Shape" fill="#000000" fill-rule="nonzero"></path>
        </g>
    </g>
</svg>