<?xml version="1.0" encoding="UTF-8"?>
<svg width="24px" height="24px" viewBox="0 0 24 24" version="1.1" xmlns="http://www.w3.org/2000/svg" xmlns:xlink="http://www.w3.org/1999/xlink">
    <title>VSQUARE/4) Icons/vs_menu/vs_menu_outline</title>
    <g id="VSQUARE_Symbols" stroke="none" stroke-width="1" fill="none" fill-rule="evenodd">
        <g id="VSQUARE/4)-Icons/vs_menu/vs_menu_outline">
            <rect id="Rectangle" x="0" y="0" width="24" height="24"></rect>
            <path d="M3.75,5.25 L20.25,5.25 C20.6642136,5.25 21,5.58578644 21,6 C21,6.41421356 20.6642136,6.75 20.25,6.75 L3.75,6.75 C3.33578644,6.75 3,6.41421356 3,6 C3,5.58578644 3.33578644,5.25 3.75,5.25 Z M3.75,10.75 L20.25,10.75 C20.6642136,10.75 21,11.0857864 21,11.5 C21,11.9142136 20.6642136,12.25 20.25,12.25 L3.75,12.25 C3.33578644,12.25 3,11.9142136 3,11.5 C3,11.0857864 3.33578644,10.75 3.75,10.75 Z M3.75,16.25 L20.25,16.25 C20.6642136,16.25 21,16.5857864 21,17 C21,17.4142136 20.6642136,17.75 20.25,17.75 L3.75,17.75 C3.33578644,17.75 3,17.4142136 3,17 C3,16.5857864 3.33578644,16.25 3.75,16.25 Z" id="Combined-Shape" fill="#000000" fill-rule="nonzero"></path>
        </g>
    </g>
</svg>