<?xml version="1.0" encoding="UTF-8"?>
<svg width="24px" height="24px" viewBox="0 0 24 24" version="1.1" xmlns="http://www.w3.org/2000/svg" xmlns:xlink="http://www.w3.org/1999/xlink">
    <title>VSQUARE/4) Icons/vs_menu/vs_menu</title>
    <g id="VSQUARE_Symbols" stroke="none" stroke-width="1" fill="none" fill-rule="evenodd">
        <g id="VSQUARE/4)-Icons/vs_menu/vs_menu">
            <rect id="Rectangle" x="0" y="0" width="24" height="24"></rect>
            <path d="M19.875,5 C20.4963203,5 21,5.44771525 21,6 C21,6.5467619 20.5063436,6.99103524 19.8936039,6.99986603 L19.875,7 L4.125,7 C3.50367966,7 3,6.55228475 3,6 C3,5.4532381 3.49365643,5.00896476 4.10639607,5.00013397 L4.125,5 L19.875,5 Z M19.875,11 C20.4963203,11 21,11.4477153 21,12 C21,12.5467619 20.5063436,12.9910352 19.8936039,12.999866 L19.875,13 L4.125,13 C3.50367966,13 3,12.5522847 3,12 C3,11.4532381 3.49365643,11.0089648 4.10639607,11.000134 L4.125,11 L19.875,11 Z M19.875,17 C20.4963203,17 21,17.4477153 21,18 C21,18.5467619 20.5063436,18.9910352 19.8936039,18.999866 L19.875,19 L4.125,19 C3.50367966,19 3,18.5522847 3,18 C3,17.4532381 3.49365643,17.0089648 4.10639607,17.000134 L4.125,17 L19.875,17 Z" id="Combined-Shape" fill="#000000" fill-rule="nonzero"></path>
        </g>
    </g>
</svg>