<?xml version="1.0" encoding="UTF-8"?>
<svg width="24px" height="24px" viewBox="0 0 24 24" version="1.1" xmlns="http://www.w3.org/2000/svg" xmlns:xlink="http://www.w3.org/1999/xlink">
    <title>VSQUARE/4) Icons/vs_print/vs_print_sharp</title>
    <g id="VSQUARE_Symbols" stroke="none" stroke-width="1" fill="none" fill-rule="evenodd">
        <g id="VSQUARE/4)-Icons/vs_print/vs_print_sharp">
            <rect id="Rectangle" x="0" y="0" width="24" height="24"></rect>
            <path d="M17.7142857,3.47368421 C17.7142857,3.3 17.7142857,3.14210526 17.7142857,3 L6.28571429,3 C6.28571429,3.14210526 6.28571429,3.3 6.28571429,3.47368421 L6.28571429,6.78947368 L17.7142857,6.78947368 L17.7142857,3.47368421 Z M17.7142857,13.8947368 L17.7142857,21 L6.28571429,21 L6.28571429,13.8947368 L17.7142857,13.8947368 Z M22,7.73684211 L22,18.1578947 L18.6666667,18.1578947 L18.6666667,12.9473684 L5.33333333,12.9473684 L5.33333333,18.1578947 L2,18.1578947 L2,7.73684211 L22,7.73684211 Z M19.6190476,9.86842105 L17.3968254,9.86842105 L17.3968254,10.8157895 L19.6190476,10.8157895 L19.6190476,9.86842105 Z" id="Combined-Shape" fill="#000000" fill-rule="nonzero"></path>
        </g>
    </g>
</svg>