<?xml version="1.0" encoding="UTF-8"?>
<svg width="24px" height="24px" viewBox="0 0 24 24" version="1.1" xmlns="http://www.w3.org/2000/svg" xmlns:xlink="http://www.w3.org/1999/xlink">
    <title>VSQUARE/4) Icons/vs_print/vs_print_outline</title>
    <g id="VSQUARE_Symbols" stroke="none" stroke-width="1" fill="none" fill-rule="evenodd">
        <g id="VSQUARE/4)-Icons/vs_print/vs_print_outline">
            <rect id="Rectangle" x="0" y="0" width="24" height="24"></rect>
            <path d="M17.2222223,2 C18.0199669,2 18.6666667,2.65213423 18.6666667,3.45658258 L18.666,7.008 L21.4444444,7.00840336 C21.7512693,7.00840336 22,7.25922423 22,7.56862745 L22,17.6526611 C22,17.9620643 21.7512693,18.2128852 21.4444444,18.2128852 L18.666,18.2124034 L18.6666667,21.4397759 C18.6666667,21.7491791 18.417936,22 18.1111111,22 L5.88888889,22 C5.58206403,22 5.33333333,21.7491791 5.33333333,21.4397759 L5.333,18.2124034 L2.55555556,18.2128852 C2.24873069,18.2128852 2,17.9620643 2,17.6526611 L2,7.56862745 C2,7.25922423 2.24873069,7.00840336 2.55555556,7.00840336 L5.333,7.008 L5.33333333,3.45658258 C5.33333333,2.65213423 5.98003312,2 6.77777772,2 L17.2222223,2 Z M17.2222223,14.1568627 L6.77777772,14.1568627 C6.61998211,14.1568627 6.48779534,14.2674287 6.45324801,14.4159246 L6.44444444,14.4929971 L6.44444444,20.8795518 L17.5555556,20.8795518 L17.5555556,14.4929971 C17.5555556,14.3338755 17.445911,14.2005779 17.2986525,14.1657403 L17.2222223,14.1568627 Z M20.8888889,8.12773109 L3.11111111,8.12773109 L3.11111111,17.0913165 L5.333,17.0904034 L5.33333333,14.4929971 C5.33333333,13.6885488 5.98003312,13.0364146 6.77777772,13.0364146 L17.2222223,13.0364146 C18.0199669,13.0364146 18.6666667,13.6885488 18.6666667,14.4929971 L18.666,17.0904034 L20.8888889,17.0913165 L20.8888889,8.12773109 Z M19.6190476,9.96107917 C19.882381,9.96107917 20.0952381,10.1724311 20.0952381,10.4328468 C20.0952381,10.6932626 19.882381,10.9046145 19.6190476,10.9046145 L17.7142857,10.9046145 C17.4509524,10.9046145 17.2380952,10.6932626 17.2380952,10.4328468 C17.2380952,10.1724311 17.4509524,9.96107917 17.7142857,9.96107917 L19.6190476,9.96107917 Z M17.2222223,3.12044818 L6.77777772,3.12044818 C6.61998211,3.12044818 6.48779534,3.2310141 6.45324801,3.37951005 L6.44444444,3.45658258 L6.444,7.008 L17.555,7.008 L17.5555556,3.45658258 C17.5555556,3.29746095 17.445911,3.16416337 17.2986525,3.12932573 L17.2222223,3.12044818 Z" id="Combined-Shape" fill="#000000" fill-rule="nonzero"></path>
        </g>
    </g>
</svg>