<?xml version="1.0" encoding="UTF-8"?>
<svg width="24px" height="24px" viewBox="0 0 24 24" version="1.1" xmlns="http://www.w3.org/2000/svg" xmlns:xlink="http://www.w3.org/1999/xlink">
    <title>VSQUARE/4) Icons/vs_print/vs_print</title>
    <g id="VSQUARE_Symbols" stroke="none" stroke-width="1" fill="none" fill-rule="evenodd">
        <g id="VSQUARE/4)-Icons/vs_print/vs_print">
            <rect id="Rectangle" x="0" y="0" width="24" height="24"></rect>
            <path d="M17.7142857,3.47368421 C17.7142857,3.21315789 17.5,3 17.2380952,3 L6.76190476,3 C6.5,3 6.28571429,3.21315789 6.28571429,3.47368421 L6.28571429,6.78947368 L17.7142857,6.78947368 L17.7142857,3.47368421 Z M17.2380952,13.8947368 C17.5,13.8947368 17.7142857,14.1078947 17.7142857,14.3684211 L17.7142857,14.3684211 L17.7142857,20.5263158 C17.7142857,20.7868421 17.5,21 17.2380952,21 L17.2380952,21 L6.76190476,21 C6.5,21 6.28571429,20.7868421 6.28571429,20.5263158 L6.28571429,20.5263158 L6.28571429,14.3684211 C6.28571429,14.1078947 6.5,13.8947368 6.76190476,13.8947368 L6.76190476,13.8947368 Z M21.5238095,7.73684211 C21.7871429,7.73684211 22,7.94905263 22,8.21052632 L22,8.21052632 L22,17.6842105 C22,17.9456842 21.7871429,18.1578947 21.5238095,18.1578947 L21.5238095,18.1578947 L18.6666667,18.1578947 L18.6666667,14.3684211 C18.6666667,13.5849474 18.0257143,12.9473684 17.2380952,12.9473684 L17.2380952,12.9473684 L6.76190476,12.9473684 C5.97428571,12.9473684 5.33333333,13.5849474 5.33333333,14.3684211 L5.33333333,14.3684211 L5.33333333,18.1578947 L2.47619048,18.1578947 C2.21333333,18.1578947 2,17.9456842 2,17.6842105 L2,17.6842105 L2,8.21052632 C2,7.94905263 2.21333333,7.73684211 2.47619048,7.73684211 L2.47619048,7.73684211 Z M19.6190476,9.86842105 L17.7142857,9.86842105 C17.4509524,9.86842105 17.2380952,10.0806316 17.2380952,10.3421053 C17.2380952,10.6035789 17.4509524,10.8157895 17.7142857,10.8157895 L17.7142857,10.8157895 L19.6190476,10.8157895 C19.882381,10.8157895 20.0952381,10.6035789 20.0952381,10.3421053 C20.0952381,10.0806316 19.882381,9.86842105 19.6190476,9.86842105 L19.6190476,9.86842105 Z" id="Combined-Shape" fill="#000000" fill-rule="nonzero"></path>
        </g>
    </g>
</svg>