<?xml version="1.0" encoding="UTF-8"?>
<svg width="24px" height="24px" viewBox="0 0 24 24" version="1.1" xmlns="http://www.w3.org/2000/svg" xmlns:xlink="http://www.w3.org/1999/xlink">
    <title>VSQUARE/4) Icons/warning/warning_sharp</title>
    <g id="VSQUARE_Symbols" stroke="none" stroke-width="1" fill="none" fill-rule="evenodd">
        <g id="VSQUARE/4)-Icons/warning/warning_sharp">
            <rect id="Rectangle" x="0" y="0" width="24" height="24"></rect>
            <path d="M21.4585042,20.4787407 L12.3070463,3.18610983 C12.2464232,3.07148796 12.1288148,3 12.0008677,3 C11.8729207,3 11.7553123,3.07148796 11.6946892,3.18610983 L2.54149287,20.4787407 C2.48351194,20.588386 2.4864694,20.7209678 2.54927977,20.8278246 C2.61209014,20.9346814 2.72550163,21 2.84788874,21 L21.1542813,21 C21.2762808,20.9992986 21.3889928,20.9335981 21.4512772,20.8268792 C21.5135616,20.7201604 21.5163043,20.5880394 21.4585042,20.4787407 Z M12.8698586,18.874288 L11.1314423,18.874288 L11.1314423,17.1058089 L12.8698586,17.1058089 L12.8698586,18.874288 Z M12.6960169,16.0482584 L11.3052839,16.0482584 L11.0445215,8.97434197 L12.9567794,8.97434197 L12.6960169,16.0482584 Z" id="Shape" fill="#000000" fill-rule="nonzero"></path>
        </g>
    </g>
</svg>