<?xml version="1.0" encoding="UTF-8"?>
<svg width="24px" height="24px" viewBox="0 0 24 24" version="1.1" xmlns="http://www.w3.org/2000/svg" xmlns:xlink="http://www.w3.org/1999/xlink">
    <title>VSQUARE/4) Icons/warning/warning_outline</title>
    <g id="VSQUARE_Symbols" stroke="none" stroke-width="1" fill="none" fill-rule="evenodd">
        <g id="VSQUARE/4)-Icons/warning/warning_outline">
            <rect id="Rectangle" x="0" y="0" width="24" height="24"></rect>
            <path d="M10.161722,4.10140915 C10.9503497,2.63283835 13.0496487,2.63283835 13.8383578,4.10156078 L13.8383578,4.10156078 L21.2505033,17.9125058 C21.5988087,18.5615526 21.5814133,19.3465119 21.2046993,19.9793858 C20.8279514,20.6123164 20.1473156,21 19.4125681,21 L19.4125681,21 L4.58743028,21 C3.85268278,21 3.17204696,20.6123164 2.79529908,19.9793858 C2.41858504,19.3465119 2.40118962,18.5615526 2.7495066,17.9124844 L2.7495066,17.9124844 Z M12.6130063,4.7637196 C12.3499652,4.27388834 11.6500332,4.27388834 11.3870735,4.76356797 L11.3870735,4.76356797 L3.97493953,18.5744916 C3.85884919,18.7908191 3.86464767,19.0524722 3.99021901,19.2634302 C4.11581383,19.4744275 4.34265646,19.6036349 4.58743028,19.6036349 L4.58743028,19.6036349 L19.4125681,19.6036349 C19.6573419,19.6036349 19.8841845,19.4744275 20.0097794,19.2634302 C20.1353507,19.0524722 20.1411492,18.7908191 20.0250588,18.5744916 L20.0250588,18.5744916 Z M11.9999992,16.418177 C12.4804133,16.418177 12.8698659,16.8089107 12.8698659,17.2909052 C12.8698659,17.7728997 12.4804133,18.1636334 11.9999992,18.1636334 C11.5195851,18.1636334 11.1301325,17.7728997 11.1301325,17.2909052 C11.1301325,16.8089107 11.5195851,16.418177 11.9999992,16.418177 Z M12.0196096,8.39760751 L12.036415,8.39805713 C12.2800057,8.40752959 12.5107304,8.5110459 12.6802234,8.68726404 C12.8606382,8.87483742 12.9561744,9.12862782 12.9443424,9.39013854 L12.9443424,9.39013854 L12.6951256,14.7115987 C12.6535764,15.598789 11.3464794,15.59883 11.3048748,14.7116423 L11.3048748,14.7116423 L11.0552231,9.38800036 L11.0544058,9.36109892 C11.0504538,9.11220358 11.1442092,8.87139685 11.3158924,8.69096104 C11.4920698,8.50580192 11.7353457,8.39994011 11.9904601,8.39735665 L11.9904601,8.39735665 L12.0196096,8.39760751 Z" id="Combined-Shape" fill="#000000" fill-rule="nonzero"></path>
        </g>
    </g>
</svg>