<?xml version="1.0" encoding="UTF-8"?>
<svg width="24px" height="24px" viewBox="0 0 24 24" version="1.1" xmlns="http://www.w3.org/2000/svg" xmlns:xlink="http://www.w3.org/1999/xlink">
    <title>VSQUARE/4) Icons/warning/warning</title>
    <g id="VSQUARE_Symbols" stroke="none" stroke-width="1" fill="none" fill-rule="evenodd">
        <g id="VSQUARE/4)-Icons/warning/warning">
            <rect id="Rectangle" x="0" y="0" width="24" height="24"></rect>
            <path d="M20.829968,18.3925361 L13.2524686,4.25193167 C12.7153789,3.24935611 11.2846218,3.24935611 10.7470876,4.25193167 L3.17003281,18.3925361 C2.93281218,18.8352825 2.94449192,19.3707068 3.20079154,19.8025822 C3.45709115,20.2344576 3.92032469,20.4992819 4.42072257,20.5 L19.5770551,20.5 C20.0778494,20.5 20.5418001,20.2355557 20.7986385,19.8035402 C21.055477,19.3715247 21.0673757,18.8356331 20.829968,18.3925361 Z M12.0000004,18.3107753 C11.508897,18.3107753 11.1107791,17.9107144 11.1107791,17.4172142 C11.1107791,16.923714 11.508897,16.5236531 12.0000004,16.5236531 C12.4911037,16.5236531 12.8892217,16.923714 12.8892217,17.4172142 C12.8892217,17.6542013 12.7955361,17.8814821 12.6287748,18.0490573 C12.4620135,18.2166325 12.2358365,18.3107753 12.0000004,18.3107753 Z M12.9656947,9.32378449 L12.7104882,14.7745072 C12.7104882,15.1693074 12.3919939,15.4893561 11.9991112,15.4893561 C11.6062285,15.4893561 11.2877341,15.1693074 11.2877341,14.7745072 L11.0325276,9.32601839 L11.0325276,9.32601839 C11.020939,9.06295879 11.116181,8.80645215 11.2964151,8.61531401 C11.4766492,8.42417587 11.7264142,8.31480276 11.9884405,8.31227319 L11.9977773,8.31227319 C12.2616236,8.31213665 12.5140579,8.42038984 12.6965087,8.61191527 C12.8789596,8.80344071 12.9755673,9.06158982 12.9639163,9.32646517 L12.9656947,9.32378449 Z" id="Shape" fill="#000000" fill-rule="nonzero"></path>
        </g>
    </g>
</svg>