<svg width="24" height="24" viewBox="0 0 24 24" xmlns="http://www.w3.org/2000/svg">
    <g fill="none" fill-rule="evenodd">
        <path d="M0 0h24v24H0z"/>
        <path d="m14.229 20.876-.363-.157-.322-.15a17.636 17.636 0 0 1-1.545-.835 17.53 17.53 0 0 1-1.543.836l-.322.149c-2.835 1.27-5.398 1.365-6.834-.066-1.49-1.486-1.332-4.182.083-7.135l.16-.323c.203-.402.43-.808.678-1.216l.158.258a18.903 18.903 0 0 1-.52-.875l-.233-.435-.165-.324c-1.486-3.015-1.679-5.783-.16-7.296.3-.3.652-.534 1.044-.703l.014-.135A2.283 2.283 0 0 1 6.622.5a2.281 2.281 0 0 1 2.285 2.279l-.002-.02c.38.127.766.277 1.157.45l.394.181.324.159c.403.203.81.429 1.22.676.409-.247.816-.473 1.22-.676l.324-.159c2.961-1.41 5.665-1.568 7.155-.083 1.518 1.513 1.326 4.28-.16 7.296l-.165.324c-.226.433-.477.87-.754 1.31l.159-.258c.165.27.32.54.465.81l.213.406.16.323c1.415 2.953 1.573 5.649.082 7.135-.153.153-.32.289-.499.408v.004l.006.156a2.281 2.281 0 0 1-2.284 2.279 2.281 2.281 0 0 1-2.284-2.279l.006.15a12.4 12.4 0 0 1-1.415-.495zm3.693-.933c-.71 0-1.284.573-1.284 1.278 0 .706.574 1.279 1.284 1.279.71 0 1.284-.573 1.284-1.279s-.574-1.278-1.284-1.278zM4.83 12.92l-.11.194-.17.312a15.85 15.85 0 0 0-.158.31l-.15.307c-1.2 2.546-1.359 4.782-.236 5.902.922.918 2.597.978 4.58.309l.292-.103a12.9 12.9 0 0 0 .748-.302l.305-.14c.37-.172.745-.367 1.125-.583l-.139-.095-.33-.234-.165-.12-.165-.123-.33-.252a24.812 24.812 0 0 1-2.976-2.74l-.34-.375-.283-.324-.274-.325-.266-.327c-.327-.409-.633-.82-.918-1.233l-.04-.058zm14.34 0c-.296.432-.616.863-.958 1.291l-.266.327-.274.325-.283.324a25.412 25.412 0 0 1-3.317 3.115l-.329.252c-.11.083-.22.164-.33.243l-.33.234-.14.096c.254.143.506.278.756.403l.37.18.305.139c.169.074.336.143.501.208l.247.094.292.103c.13.044.26.085.387.123a2.282 2.282 0 0 1 2.12-1.434c.79 0 1.484.398 1.895 1.004l.065.102.112-.104c1.085-1.081.975-3.203-.115-5.64l-.12-.262-.15-.307-.078-.155-.081-.155-.169-.312zM12 5.408l-.293.194-.32.22c-.107.076-.214.152-.32.23l-.321.24C9.944 6.9 9.145 7.593 8.37 8.364l-.154.155-.301.31c-.347.365-.676.734-.987 1.104l-.262.319c-.086.106-.17.212-.253.319l-.245.32c-.04.053-.08.106-.118.16l-.23.319-.113.16-.216.318-.086.13a22.68 22.68 0 0 0 2.965 3.616A22.723 22.723 0 0 0 12 18.55a22.73 22.73 0 0 0 3.629-2.956 22.68 22.68 0 0 0 2.965-3.615l-.086-.13-.217-.32-.112-.16-.23-.319-.119-.16-.244-.32-.126-.159-.127-.16-.263-.318a23.542 23.542 0 0 0-.646-.738l-.34-.365-.301-.311-.154-.155a23.822 23.822 0 0 0-1.894-1.698l-.48-.376-.322-.239-.16-.116-.16-.113-.32-.221L12 5.408zM9.297 9.284a3.83 3.83 0 0 1 5.405 0 3.805 3.805 0 0 1 0 5.392 3.831 3.831 0 0 1-5.405 0 3.805 3.805 0 0 1 0-5.392zm4.7.708a2.83 2.83 0 0 0-3.994 0 2.805 2.805 0 0 0 0 3.976 2.831 2.831 0 0 0 3.993 0 2.805 2.805 0 0 0 0-3.976zm5.996-5.977c-1.146-1.142-3.46-.956-6.078.308l-.31.154-.155.08-.313.168-.157.088-.037.021.14.094c.22.154.44.313.66.478l.33.251.328.26c.655.53 1.303 1.112 1.934 1.74a24.542 24.542 0 0 1 2.294 2.63l.327.447.214.305c.157-.274.303-.546.438-.815l.149-.307c1.201-2.546 1.36-4.783.236-5.902zM4.488 3.592l.02.048a2.228 2.228 0 0 0-.502.375c-1.084 1.08-.974 3.203.116 5.64l.12.262.15.307c.134.269.28.54.437.814l.214-.304a24.238 24.238 0 0 1 2.622-3.077c.63-.628 1.278-1.21 1.934-1.74l.328-.26c.33-.256.66-.499.99-.729l.138-.094-.035-.02-.079-.045-.078-.044-.313-.168-.156-.08-.31-.154a13.24 13.24 0 0 0-1.392-.58 2.283 2.283 0 0 1-2.07 1.314 2.285 2.285 0 0 1-2.134-1.465zM6.622 1.5c-.71 0-1.284.573-1.284 1.279 0 .705.575 1.278 1.284 1.278.71 0 1.285-.572 1.285-1.278 0-.706-.575-1.279-1.285-1.279z" fill="#616161" fill-rule="nonzero"/>
    </g>
</svg>
