<svg width="24" height="24" viewBox="0 0 24 24" xmlns="http://www.w3.org/2000/svg">
    <g fill="none" fill-rule="evenodd">
        <path d="M0 0h24v24H0z"/>
        <path d="m18.615.5.112.111-.542.13.696-.165 2.705 1.673.164.684-5.945 9.693-.02-.016a6.104 6.104 0 0 1 2.302 4.783c0 3.372-2.724 6.107-6.087 6.107-3.363 0-6.087-2.735-6.087-6.107 0-1.94.903-3.67 2.31-4.789l-.028.022L2.25 2.933l.164-.684L5.119.576l.696.164-.542-.129L5.385.5h13.23zM12 12.286c-2.804 0-5.08 2.285-5.08 5.107S9.197 22.5 12 22.5c2.804 0 5.08-2.285 5.08-5.107s-2.276-5.107-5.08-5.107zm.453 1.736.805 1.64 1.8.263.28.85-1.306 1.278.31 1.806-.734.525-1.608-.85-1.608.85-.733-.525.308-1.806-1.305-1.277.28-.851 1.8-.263.805-1.64h.906zM12 15.382l-.47.955-.379.276-1.062.155.772.756.143.44-.181 1.06.94-.497h.474l.94.496-.181-1.06.143-.44.771-.755-1.061-.155-.38-.276-.47-.955zm6.78-13.69-5.921 9.655-.035-.005a6.032 6.032 0 0 1 2.201.75l-.054-.03 5.659-9.226-1.85-1.145zm-13.56 0L3.37 2.835l5.66 9.227-.036.02a6.033 6.033 0 0 1 2.216-.745l-.07.01-5.92-9.655zM18.184.74l-.467.759H6.28L7.422 3.36h9.155l-.614 1.001H8.036L12 10.824 18.185.74z" fill="#616161" fill-rule="nonzero"/>
    </g>
</svg>
