<svg width="24" height="24" viewBox="0 0 24 24" xmlns="http://www.w3.org/2000/svg">
    <g fill="none" fill-rule="evenodd">
        <path d="M0 0h24v24H0z"/>
        <path d="m18.6 2 .487.484-.001 18.547 2.414.001V22h-19v-.968l2.413-.001V2.484L5.402 2H18.6zm-.488.968H5.888v18.064l4.224-.001v-2.884l.488-.484h2.8l.488.484-.001 2.884h4.225V2.969zM12.913 18.63h-1.826v2.402h1.826V18.63zM9.47 13.48v.968H7.814v-.968H9.47zm3.37 0v.968h-1.683v-.968h1.683zm3.346 0v.968h-1.655v-.968h1.655zM9.47 10.713v.968H7.814v-.968H9.47zm3.37 0v.968h-1.683v-.968h1.683zm3.346 0v.968h-1.655v-.968h1.655zM9.47 7.945v.968H7.814v-.968H9.47zm3.37 0v.968h-1.683v-.968h1.683zm3.346 0v.968h-1.655v-.968h1.655zM9.47 5.178v.968H7.814v-.968H9.47zm3.37 0v.968h-1.683v-.968h1.683zm3.346 0v.968h-1.655v-.968h1.655z" fill="#616161" fill-rule="nonzero"/>
    </g>
</svg>
