<svg width="24" height="24" viewBox="0 0 24 24" xmlns="http://www.w3.org/2000/svg">
    <g fill="none" fill-rule="evenodd">
        <path d="M0 0h24v24H0z"/>
        <path d="M17.083 1.206c.956.945.956 2.48 0 3.426-.252.25-.708.504-1.364.794-.23.101-.48.205-.752.312h7.283l.5.5v4.845l-.5.5h-.916V23l-.5.5H3.167l-.5-.5-.001-11.417H1.75l-.5-.5V6.238l.5-.5h7.282c-.27-.107-.522-.21-.751-.312-.656-.29-1.112-.545-1.365-.794a2.404 2.404 0 0 1 0-3.426 2.459 2.459 0 0 1 3.45 0c.252.25.51.701.804 1.35.147.325.3.695.458 1.103.125.325.25.665.372 1.01l.167-.467.205-.543c.157-.407.31-.777.457-1.101.26-.578.494-1 .72-1.261l.085-.09.088-.084a2.46 2.46 0 0 1 3.361.083zM11.5 11.583H3.665V22.5H11.5V11.583zm8.835 0H12.5V22.5h7.835V11.583zM11.5 6.737H2.25v3.846h9.249V6.737zm10.251 0h-9.251v3.846h9.251V6.737zm-7.413-4.82a1.506 1.506 0 0 0-.2.274l-.059.1-.09.166-.096.188-.1.211-.122.27c-.117.268-.24.567-.365.893-.134.345-.266.707-.395 1.075l-.127.366.156-.052c.169-.056.336-.114.502-.172l.492-.176.318-.118.195-.074.188-.074.355-.143.167-.07.159-.07.224-.101.053-.025.051-.025.191-.094.044-.023.043-.023.155-.086c.142-.082.245-.155.304-.213.56-.554.56-1.45 0-2.003a1.459 1.459 0 0 0-2.043 0zm-6.718 0a1.404 1.404 0 0 0 0 2.003c.045.044.114.096.206.154l.1.06.154.086.087.046.092.046.202.098.225.101.159.07.166.07.355.143a38.2 38.2 0 0 0 1.47.538l.38.127-.048-.144a43.8 43.8 0 0 0-.175-.496l-.178-.485-.12-.315-.037-.097-.037-.095-.148-.365c-.048-.117-.096-.23-.143-.337l-.07-.157-.102-.22-.025-.053-.025-.05-.096-.189a3.057 3.057 0 0 0-.301-.487l-.047-.051-.07-.065a1.46 1.46 0 0 0-1.974.065z" fill="#616161" fill-rule="nonzero"/>
    </g>
</svg>
