<svg width="24" height="24" viewBox="0 0 24 24" xmlns="http://www.w3.org/2000/svg">
    <g fill="none" fill-rule="evenodd">
        <path d="M0 0h24v24H0z"/>
        <path d="M10.03 2.75c.804 0 1.52.384 1.97.979a2.465 2.465 0 0 1 1.786-.972l.184-.007h9.53l.5.5v16.035l-.5.5h-9.53c-.764 0-1.392.581-1.463 1.324l-.007.141h-1c0-.761-.583-1.388-1.329-1.459l-.141-.006H.5l-.5-.5V3.25l.5-.5h9.53zm0 1H1v15.035h9.03c.47 0 .911.131 1.286.36l.156.104.028.02V5.216l-.006-.136a1.468 1.468 0 0 0-1.243-1.313l-.135-.014-.086-.002zm12.97 0h-9.03c-.764 0-1.392.582-1.463 1.324l-.007.141V19.27l.028-.02a2.46 2.46 0 0 1 1.125-.444l.21-.018.107-.002H23V3.75zM9 15v1H2.5v-1H9zm12 0v1h-6.5v-1H21zM9 12v1H2.5v-1H9zm12 0v1h-6.5v-1H21zM9 9v1H2.5V9H9zm12 0v1h-6.5V9H21zM9 6v1H2.5V6H9zm12 0v1h-6.5V6H21z" fill="#616161" fill-rule="nonzero"/>
    </g>
</svg>
