<svg width="500" height="224" viewBox="0 0 500 224" xmlns="http://www.w3.org/2000/svg" xmlns:xlink="http://www.w3.org/1999/xlink">
    <defs>
        <path id="65c0kau07a" d="M0 .017h20.508V.76H0z"/>
        <path id="knvhgt5v9c" d="M0 0h23.007v30.692H0z"/>
        <path id="yzxbjq1tie" d="M0 0h41.008v47.087H0z"/>
    </defs>
    <g fill="none" fill-rule="evenodd">
        <path fill="#F1F0EB" d="m110.326 192.72-2.82 14.586-1.355 6.461 17.868-1.185.293-22.981z"/>
        <path d="m125.41 203.361-6.873 4.583-12.392.481-1.14 9.706 34.24-.832s.383-4.09-.136-5.356c-.676-1.652-6.772-3.205-10.693-4.426-1.587-.492-3.006-4.156-3.006-4.156" fill="#272525"/>
        <path d="M104.817 217.533c.821-.645 34.01-.849 34.544-.554.531.294.537 2.497.299 2.902-.24.406-34.644.984-34.91 1.002-.264.017-.757-2.706.067-3.35" fill="#7D6B62"/>
        <path d="M136.422 219.557c-4.037.427-8.148.417-12.202.536-5.116.15-10.234.267-15.35.408-1.61.044-3.225.066-4.832.17-.471.03.12.297.326.284 3.713-.24 7.45-.24 11.167-.335 5.306-.136 10.614-.262 15.918-.475 1.817-.073 3.644-.127 5.454-.318.353-.038-.314-.288-.481-.27" fill="#272525"/>
        <path fill="#F1F0EB" d="m48.172 171.019-11.894 9.484-6.276 2.071 9.992 14.846 17.893-15.878z"/>
        <path d="m48.125 192.19-7.28-3.41-6.22-8.893-8.976 3.886L43.13 211.37s3.736-1.721 4.572-2.804c1.09-1.414-.625-7.462-1.534-11.462-.369-1.62 1.956-4.913 1.956-4.914" fill="#272525"/>
        <path d="M26.073 183.31c.97.387 17.382 27.389 17.394 28 .012.607-1.892 1.716-2.363 1.714-.471-.005-17.818-27.87-17.965-28.091-.15-.219 1.963-2.01 2.934-1.624" fill="#7D6B62"/>
        <path d="M40.12 210.365c-4.043-5.508-7.8-11.238-11.613-16.908-.117-.175-.787-.168-.71-.054 3.812 5.67 7.57 11.4 11.613 16.908.126.171.787.158.71.054M78.419 118.233s-8.927 2.572-10.241 20.294c-1.317 17.726-29.241 35.952-29.241 35.952l14.625 14.696s9.98-.359 26.672-18.478c16.692-18.116 23.967-50.23 23.967-50.23l-25.782-2.234z" fill="#272525"/>
        <path d="M99.006 119.23s-12.913 5.486-5.336 21.631c13.364 28.48 10.531 60.319 10.531 60.319l22.367.566s1.097-21.439.165-39.084c-1.504-28.46-6.551-46.686-6.551-46.686l-21.176 3.254z" fill="#272525"/>
        <path d="m241.517 53.182 16.226-20.068s5.48 6.397 5.43 14.124c-.048 7.725-4.587 11.413-4.587 11.413l-1.614 21.058-16.643 12.577 3.109-35.495-1.921-3.609z" fill="#F5D3BE"/>
        <path d="M243.106 53.247s3.816-6.876 10.972-13.603c6.902-6.493 8.563-10.81 6.814-14.587-1.433-3.1-5.9-5.69-10.698-3.299-4.798 2.391-5.62 8.127-3.832 10.036 1.791 1.903-7.146 1.874-4.91 7.158.993 2.357 1.153 1.774-1.745 2.563-2.903.789-8.334 4.107-7.05 9.06 1.284 4.956 10.45 2.672 10.45 2.672" fill="#272525"/>
        <path d="M257.282 34.985c2.406 2.992 4.333 6.554 5.09 10.339.883 4.407-.373 8.584-3.835 11.52-.392.332.22 1.07.646.708 7.448-6.317 3.89-16.666-1.343-23.174-.396-.492-.919.16-.558.607M238.251 53.102l4.629 5.391 7.261-4.474-3.045-9.892z" fill="#272525"/>
        <path d="M249.678 45.71s-5.452.24-3.127 4.195c1.613 2.743 6.24-.357 6.24-.357l-3.113-3.837z" fill="#F5D3BE"/>
        <path fill="#272525" d="m250.576 37.54-6.401 7.624 8.538 2.927zM257.716 42.744c.17.298.545.401.845.234a.617.617 0 0 0 .237-.84l-.668-1.188a.62.62 0 0 0-1.081.605l.667 1.189z"/>
        <path d="M258.577 47.171s1.523 1.028 4.661-.34" stroke="#272525" stroke-width=".94" stroke-linecap="round" stroke-linejoin="round"/>
        <path fill="#F1F0EB" d="m255.545 173.213 8.904 30.842-2.6 6.07 17.75 2.35-9.946-41.778z"/>
        <path d="m280.334 203.217-7.38 3.193-10.06-1.525-3.028 9.293 31.548 5.477s1.18-3.933.922-5.279c-.337-1.751-6.008-4.474-9.613-6.44-1.46-.796-2.388-4.719-2.389-4.719" fill="#272525"/>
        <path d="M259.798 213.554c.932-.47 31.327 5.418 31.791 5.81.465.393.037 2.555-.279 2.906-.313.35-31.974-5.408-32.238-5.443-.263-.037-.208-2.803.726-3.273" fill="#7D6B62"/>
        <path d="M288.335 221.353c-6.554-.604-13.027-1.912-19.547-2.783-.422-.056-.48.197-.045.256 6.584.879 13.123 2.197 19.742 2.807.5.045.15-.252-.15-.28" fill="#272525"/>
        <path fill="#F1F0EB" d="m233.713 193.465 3.445 14.451 1.631 6.398-17.9-.418-1.284-22.946z"/>
        <path d="m221.593 204.638 6.799 4.294 10.175.044 1.554 9.648-32.016.545s-.559-4.07-.095-5.359c.605-1.679 6.628-3.492 10.493-4.88 1.564-.56 3.09-4.292 3.09-4.292" fill="#272525"/>
        <path d="M240.285 218.019c-.849-.609-31.789.517-32.309.835-.52.315-.43 2.517-.173 2.913.256.394 32.427-.41 32.692-.403.265.006.64-2.737-.21-3.345" fill="#7D6B62"/>
        <path d="M210.864 221.587c6.63.418 13.291.124 19.93.271.467.01-.127-.28-.328-.284-6.58-.146-13.18.148-19.752-.267-.5-.032-.155.26.15.28M216.42 125.882s-3.735 5.703-4.283 23.468c-.547 17.765 6.998 52.584 6.998 52.584l17.166-.44 1.022-75.415-20.904-.197z" fill="#272525"/>
        <path d="M235.741 126.477s-4.079 7.31 4.796 25.366c8.872 18.054 19.781 47.437 19.781 47.437l20.196-.46-16.758-72.776-28.015.433z" fill="#272525"/>
        <path d="M226.402 141.022c3.501.96 6.915 2.206 10.418 3.165.15.042.422.052.546-.066.096-.091.148-.206-.031-.255-3.502-.96-6.917-2.206-10.418-3.165-.151-.042-.423-.052-.546.066-.096.092-.148.206.03.255" fill="#6A6969"/>
        <path d="M236.247 142.335c1.885 4.964 4.074 9.793 6.28 14.62a539.67 539.67 0 0 1 9.272 21.477c2.816 6.945 5.512 13.94 8.15 20.956.143.38.895.2.738-.215-4.068-10.818-8.262-21.595-12.854-32.203-2.403-5.55-4.987-11.018-7.43-16.55a169.931 169.931 0 0 1-3.417-8.3c-.144-.38-.896-.2-.739.215" fill="#6A6969"/>
        <path d="M270.718 66.734c-6.245-3.824-35.773-3.993-42.14-.31-3.426 1.982-9.731 18.91-13.083 34.071-2.88 13.027-6.116 22.979-3.945 26.442 4.697 7.493 54.123 6.048 58.91 3.434 4.788-2.61 6.503-59.814.258-63.637" fill="#F1F0EB"/>
        <path d="M260.918 62.298h-22.202l-2.11 5.43s6.164 2.904 16.735 3.103c2.606.048 8.817-2.64 8.817-2.64l-1.24-5.893z" fill="#F1F0EB"/>
        <path fill="#F5D3BE" d="m150.915 190.154 12.573-1.163 1.831 20.203-13.155 2.724z"/>
        <path d="m151.137 207.251 14.444-1.701s1.602 7.604 1.598 9.214c-.006 2.163-15.298 4.176-16.195 1.626-.653-1.856.153-9.139.153-9.139" fill="#272525"/>
        <path d="M167.188 214.78c.748-.517-15.702 1.33-16.194 1.608-.493.278 4.022 1.327 5.142 5.615.156.602 7.092-.21 7.81-.96 0 0 .02-4.028 3.242-6.263" fill="#272525"/>
        <path d="M145.537 108.223s-6.363 15.231-4.348 27.354c.879 5.293 2.304 11.474 2.775 16.353 1.836 19.101 3.75 44.32 3.75 44.32l18.137-1.418-3.543-82.426-16.77-4.183z" fill="#989797"/>
        <path d="M192.033 175.73s-7.4 24.203-6.532 27.566c.87 3.358 6.727 8.686 6.727 8.686s-3.52 3.336-8.384 2.72c-2.222-.284-10.406-1.654-12.885-3.154-2.48-1.499-.516-6.797.833-10.264 1.916-4.922 4.823-21.348 4.823-21.348l15.418-4.206z" fill="#F5D3BE"/>
        <path d="M189.074 208.865s-.382 4.07-7.504 1.5c-2.839-1.023-11.377-5.51-11.377-5.51s-1.59 1.04-1.714 5.194c-.121 4.151 1.937 8.615 1.937 8.615l5.91-.05.057-3.99s7.978 3.273 9.813 4.234c1.834.96 12.92-.317 12.92-.317s.276-3.57.155-4.492c-.303-2.31-10.197-5.184-10.197-5.184" fill="#272525"/>
        <path d="M164.557 113.728s-13.501 11.336-6.44 26.3c1.01 2.137 6.002 1.604 7.78 4 4.446 5.987 13.388 13.126 12.694 15.997-2.852 11.832-6.322 35.07-6.322 35.07l17.57 3.68s7.117-28.46 7.162-40.01c.049-11.551-10.115-36.932-10.115-36.932l-22.329-8.105z" fill="#989797"/>
        <path fill="#F5D3BE" d="m173.974 54.816-12.736 1.319-.794 21.428 20.878-1.801z"/>
        <path d="M192.68 73.526c-1.898-5.794-34.598-5.729-39.663-2.208-2.723 1.893-5.887 9.784-9.328 24.012-3.124 12.919-5.17 29.797-5.17 29.797l54.162 3.768s1.473-50.877 0-55.37" fill="#272525"/>
        <path d="M204.305 8.121c-2.205.111-1.478 9.188-1.478 9.188s-2.4-12.03-5.147-10.916c-1.94.785.227 8.676.677 10.926-.498-2.307-4.958-10.487-7.149-9.937-2.513.62 3.741 12.76 3.741 12.76s-5.177-9.764-8.245-7.773c-2.41 1.565 7.936 10.06 5.951 14.867-.512 1.25-4.789-.625-6.894-.726-1.932-.09-4.604 1.493-2.075 2.786 1.685.857 7.501 3.172 10.512 4.256 3.13 1.111 5.858.811 5.858.811l3.814 8.452 10.946-5.41s-5.167-9.077-5.38-10.315c-1.058-6.127-2.566-9.325-2.566-9.325s.034-9.771-2.565-9.644" fill="#F5D3BE"/>
        <path d="M174.812 68.972c19.844-2.983 23.852-11.243 26.457-13.508 3.626-3.152-.74-17.188-.74-17.188l20.579-3.594s9.743 27.275-4.71 37.873c-11.499 8.431-30.255 17.342-34.272 18.077-6.158 1.128-17.624-20.111-7.314-21.66M153.25 41.75c.422 5.45 5.763 14.126 2.23 17.469 0 0 9.036 3.707 18.996-.15 7.325-2.838 11.572-10.954 11.572-10.954s-4.65 3.031-10.1-12.768c-5.44-15.769-23.39-2.52-22.699 6.402" fill="#272525"/>
        <path d="m178.562 64.639-20.212.565-3.211 5.215s2.87 6.623 13.654 6.002c10.783-.62 13.219-6.344 13.219-6.344l-3.45-5.438z" fill="#272525"/>
        <path d="M182.025 69.021c-5.478 1.898-11.57 2.676-17.35 2.355a31.597 31.597 0 0 1-4.522-.561 23.297 23.297 0 0 1-2.12-.531c-.408-.123-.811-.259-1.209-.41-.08-.03-.94-.297-.933-.281-.107-.232.88-1.685 1.001-1.919l.92-1.761c.126-.243-.529-.03-.624.151l-1.925 3.69c-.02.036-.022.103.025.123 4.34 1.901 9.27 2.187 13.946 1.91 4.312-.255 8.676-.992 12.764-2.409.305-.105.488-.517.027-.357" fill="#6A6969"/>
        <path d="M165.466 144.043c4.648 5.256 9.488 10.346 13.639 16.017.156.214 1.09.28.861-.03-4.15-5.673-8.99-10.763-13.639-16.02-.176-.197-1.107-.245-.861.033M163.929 141.999c.428 6.331.56 12.688.737 19.03.223 7.911.403 15.824.57 23.737.07 3.3.137 6.602.204 9.904.008.352.833.813.823.324-.296-14.469-.561-28.94-1.08-43.403-.112-3.09-.223-6.183-.431-9.268-.024-.352-.856-.807-.823-.324M150.451 196.817l12.994-1.015c.56-.043-.105-.672-.46-.645l-12.994 1.015c-.56.043.105.673.46.645" fill="#272525"/>
        <path fill="#F5D3BE" d="m116.267 33.065-16.54-1.853-6.493 34.703 18.693 1.31z"/>
        <path d="M97.375 31.961s-4.792-3.106-4.593.191c.2 3.302 3.104 6.975 5.53 6.728 2.43-.25 5.073-2.191 5.073-2.191l-6.01-4.728zM115.755 32.817s4.352-4.166 5.79-1.962c1.434 2.205-.967 6.864-2.015 7.595-1.049.732-4.936.48-4.936.48l1.16-6.113z" fill="#F5D3BE"/>
        <path d="M117.44 32.535c4.571-6.52 5.917-13.162-4.965-15.966-2.863-.738-6.64 3.16-9.93 2.804-5.81-.632-8.92 1.756-9.272 5.6-.31 3.391 1.296 7.664 3.258 11.678 1.796 3.667.146 4.915 1.784 5.637 4.109 1.815 11.71.88 13.527 1.08 1.817.198 3.345-7.619 5.598-10.833" fill="#272525"/>
        <path d="M94.16 30.075c-.823-.037-1.754.056-2.367.667-.496.495-.62 1.233-.554 1.905.17 1.741 1.3 3.416 2.588 4.547.774.68 1.68 1.236 2.704 1.424.2.036.06-.214.01-.276a.908.908 0 0 0-.52-.317c-1.472-.27-2.618-1.577-3.32-2.817-.596-1.051-1.194-2.72-.326-3.793.544-.674 1.483-.783 2.293-.747.196.01.074-.197.01-.275-.112-.139-.33-.31-.518-.318" fill="#272525"/>
        <path d="M124.195 56.404c-6.245-3.823-35.773-3.993-42.14-.31-3.425 1.981-9.731 18.91-13.083 34.07-2.88 13.028-6.116 22.98-3.945 26.442 4.697 7.493 54.123 6.048 58.91 3.435 4.788-2.611 6.503-59.814.258-63.637" fill="#9ACD65"/>
        <path fill="#FFC112" d="m26.486 39.108-6.71-1.32-6.4 26.068 7.603 1.383z"/>
        <path fill="#7D6B62" d="M29.679 71.2 2.16 65.485.196 81.974l24.563 4.943z"/>
        <path d="M27.727 62.9s3.875-5.578-.905-12.37c-1.887-2.68-2.907-.298-2.907-.298l-1.076 3.775s-7.776-7.774-11.67-6.131C6.711 49.756 5.427 63.4 4.74 66.542c-.742 3.388 11.195 5.192 14.65 6.681 2.74 1.183 15.048 8.764 15.048 8.764l7.654-14.035-14.365-5.053z" fill="#F5D3BE"/>
        <path d="M79.497 55.82c-10.968.834-22.16 6.23-29.872 8.815-7.707 2.585-16.936-1.378-16.936-1.378L23.13 79.889s17.072 10.277 35.714 7.074c11.268-1.937 13.206-4.919 16-8.195 4.287-5.022 12.629-23.554 4.652-22.947" fill="#F1F0EB"/>
        <path d="M118.957 30.956c.673.022 1.508.13 1.93.726.361.51.297 1.244.166 1.82-.374 1.64-1.443 3.209-2.709 4.3-.636.548-1.386 1.04-2.237 1.15-.432.056-.07.859.32.808 1.812-.235 3.32-1.913 4.24-3.369.868-1.377 1.742-3.442.77-4.987-.568-.901-1.612-1.225-2.627-1.259-.494-.016-.238.798.147.81" fill="#272525"/>
        <path d="m66.498 114.01-1.241 9.329s7.914 3.001 25.327 3.46c17.413.458 32.912-2.199 32.912-2.199V113.79l-56.998.221z" fill="#9ACD65"/>
        <path d="M108.254 119.833a79.772 79.772 0 0 0 0 5.013c.009.295.193.587.494.66.26.063.55-.116.54-.404a79.21 79.21 0 0 1 0-5.014.68.68 0 0 0-.494-.66.427.427 0 0 0-.54.405M114.15 119.261c.176 1.713.147 3.48-.007 5.193-.05.566 1.063.894 1.119.266.162-1.795.176-3.642-.007-5.435-.058-.56-1.174-.703-1.104-.024M90.376 119.958c.176 1.713.146 3.48-.008 5.193-.05.566 1.063.894 1.12.266.161-1.795.176-3.642-.008-5.435-.057-.56-1.174-.703-1.104-.024M102.155 120.17c.175 1.713.146 3.48-.008 5.194-.05.565 1.063.893 1.119.265.162-1.795.176-3.642-.007-5.435-.058-.559-1.174-.703-1.104-.023M118.81 118.337c.453 1.704.715 3.49.835 5.248.038.56 1.15.705 1.104.023-.12-1.757-.383-3.544-.834-5.248-.076-.284-.365-.481-.654-.486-.248-.004-.525.18-.45.463M74.351 119.072a80.162 80.162 0 0 0-1.524 4.777c-.082.286.082.606.342.74.236.122.567.062.648-.223.457-1.61.967-3.2 1.524-4.777.2-.569-.756-1.179-.99-.517M79.81 119.427c-.207 1.71-.612 3.429-1.139 5.067-.09.279.083.533.337.653.2.094.629.124.718-.155.552-1.714.987-3.51 1.202-5.3.068-.563-1.043-.893-1.119-.265M69.225 117.954c-.207 1.71-.612 3.428-1.139 5.068-.09.278.083.532.337.652.2.094.629.124.718-.155.552-1.714.987-3.51 1.202-5.299.068-.564-1.043-.894-1.118-.266M85.096 119.586c-.089 1.761-.38 3.544-.8 5.255-.07.28.286.534.515.588.276.065.534-.04.603-.322.42-1.71.712-3.494.8-5.255.03-.567-1.086-.892-1.118-.266M97.486 119.697c-.039 1.762-.283 3.553-.658 5.273-.12.551.983.888 1.119.266.375-1.72.619-3.51.658-5.273.007-.294-.242-.524-.516-.588-.225-.053-.597.027-.603.322" fill="#6A6969"/>
        <path d="M75.77 76.45c-.852-2.035 7.664-5.293 7.664-5.293s-11.9 3.021-12.076.067c-.13-2.09 7.932-3.534 10.16-4.098-2.297.543-11.61.047-12.054-2.163-.527-2.536 13.136-2.125 13.136-2.125s-11.05-.462-10.572-4.09c.375-2.845 12.506 2.825 15.993-1.033.91-.999-2.626-4.05-3.626-5.904-.912-1.704-.633-4.794 1.623-3.07 1.5 1.15 6.098 5.396 8.37 7.644 2.357 2.345 3.26 4.933 3.26 4.933l10.155 4.045-.175 12.2s-11.304-4.997-12.513-4.653c-5.99 1.681-9.53 1.698-9.53 1.698s-8.813 4.24-9.814 1.842M191.244 107.125c.885-2.018-7.577-5.416-7.577-5.416s11.85 3.215 12.075.26c.16-2.084-7.876-3.656-10.091-4.257 2.285.582 11.604.233 12.087-1.971.562-2.527-13.103-2.335-13.103-2.335s11.055-.284 10.64-3.918c-.333-2.852-12.551 2.625-15.977-1.29-.895-1.015 2.69-4.008 3.719-5.847.94-1.688.713-4.781-1.573-3.096-1.517 1.126-6.183 5.298-8.492 7.51-2.392 2.306-3.339 4.881-3.339 4.881l-9.27-.352-.022 12.2s10.435-.58 11.638-.218c5.962 1.778 9.502 1.853 9.502 1.853s8.742 4.38 9.783 1.996" fill="#F5D3BE"/>
        <path d="M128.236 58.929c12.566 9.67 13.219 19.87 22.36 25.245 7.011 4.121 15.038 5.663 15.038 5.663l-.833 15.69s-14.371 3.26-29.978-6.853c-12.78-8.278-13.733-12.748-13.323-20.934.49-9.788-.88-24.673 6.736-18.811" fill="#F1F0EB"/>
        <path d="M172.506 78.67c-10.151-11.078-23.774-8.863-50.227-14.128-7.56-1.505-22.4-4.397-22.4-4.397l-6.21 17.771s5.335 3.585 29.782 9.58c14.02 3.436 22.66 3.379 22.66 3.379s36.008-1.714 26.395-12.204" fill="#272525"/>
        <path d="M157.52 77.71c.227-2.194 9.264-.984 9.264-.984s-11.896-3.037-10.635-5.716c.888-1.897 8.658.69 10.883 1.258-2.278-.62-10.215-5.506-9.547-7.66.753-2.479 12.551 4.414 12.551 4.414s-9.48-5.689-7.323-8.645c1.693-2.32 9.626 8.459 14.538 6.74 1.276-.443-.366-4.813-.354-6.919.014-1.931 1.739-4.512 2.894-1.919.766 1.725 2.769 7.652 3.688 10.713.945 3.185.498 5.89.498 5.89l8.242 4.258-5.996 10.628s-8.796-5.642-10.02-5.919c-6.067-1.387-9.184-3.065-9.184-3.065s-9.769-.489-9.499-3.074" fill="#F5D3BE"/>
        <path d="M235.745 65.652c-15.807-1.335-20.93 11.91-31.533 12.088-8.133.136-15.88-2.472-15.88-2.472l-7.01 14.063s10.897 9.908 29.467 8.791c15.205-.916 22.005-10.98 22.005-10.98s14.84-20.487 2.951-21.49" fill="#F1F0EB"/>
        <path fill="#6A6969" d="m341.661 200.505 12.85-7.365 1.902 20.692-14.122 1.689z"/>
        <path d="m341.091 210.789 15.416-.57s1.145 7.704 1.024 9.309c-.164 2.158-16.497 2.97-17.263.36-.556-1.9.823-9.1.823-9.1" fill="#272525"/>
        <path fill="#6A6969" d="m322.617 175.267-5.817 34.696 1.632 6.398-17.902-.418 7.979-43.191z"/>
        <path d="m301.236 206.685 6.798 4.293 10.174.045 1.556 9.648-32.017.545s-.558-4.07-.094-5.36c.604-1.678 6.627-3.491 10.492-4.88 1.565-.559 3.09-4.291 3.09-4.291" fill="#272525"/>
        <path d="M319.928 220.065c-.85-.608-31.789.518-32.309.835-.52.316-.43 2.517-.174 2.914.256.393 32.427-.41 32.693-.404.264.007.64-2.736-.21-3.345" fill="#7D6B62"/>
        <g transform="translate(290.103 223.223)">
            <mask id="5ekra419rb" fill="#fff">
                <use xlink:href="#65c0kau07a"/>
            </mask>
            <path d="M.403.411c6.63.418 13.291.124 19.93.271.467.01-.127-.28-.328-.284C13.426.252 6.825.546.253.13c-.5-.032-.155.26.15.28" fill="#272525" mask="url(#5ekra419rb)"/>
        </g>
        <path fill="#F1F0EB" d="m310.87 134.23-9.992 70.514 18.886 1.1 14.71-72.244zM336.268 140.606l1.693 64.182 18.742-.707 2.091-68.633z"/>
        <path d="M358.01 219.528c-.013-.905-17.19.121-17.732.36-.541.239-.467 3.256 0 3.513.468.258 16.917.16 17.732-.531 0 0 .01-2.65 0-3.342" fill="#7D6B62"/>
        <path d="M340.206 223.983c5.698-.36 11.42-.215 17.109-.709.21-.019.521-.307.635-.317-5.69.494-11.41.35-17.109.71-.21.013-.524.31-.635.316" fill="#272525"/>
        <path d="M400.695 148.398s-6.214 54.194-6.887 57.6c-.676 3.405-7.244 10.38-7.244 10.38s3.705 3.129 8.526 2.234c2.203-.408 10.294-2.245 12.684-3.883 2.39-1.638-.45-5.78.21-8.899.66-3.119 9.221-54.181 9.221-54.181l-16.51-3.251z" fill="#F5D3BE"/>
        <path d="M389.534 213.086s.617 4.041 7.577 1.067c2.778-1.184 11.044-6.15 11.044-6.15s1.646.947 2.01 5.088c.359 4.135-1.443 8.71-1.443 8.71l-5.901.288-.287-3.98s-7.778 3.724-9.554 4.79c-1.776 1.06-12.916.422-12.916.422s-.48-3.548-.413-4.476c.17-2.323 9.883-5.76 9.883-5.76" fill="#272525"/>
        <path d="M408.435 207.733c-2.864 2.483-6.52 4.207-10.13 5.292-2.647.795-7.718 2.07-9.596-.831-.141-.218-.715-.377-.467.005 1.904 2.94 6.162 2.418 9.078 1.722 4.152-.99 8.406-2.926 11.647-5.736.172-.15-.336-.623-.532-.452" fill="#272525"/>
        <path d="M452.594 140.268s1.582 20.547 8.957 24.5c11.242 6.023 31.289 12.814 31.823 14.93.53 2.116-6.79 14.991-6.79 14.991l-5.897 2.474s.024-8.994-2.257-9.969c-7.349-3.136-19.952-7.423-23.287-9.32-15.775-8.964-19.97-31.767-19.97-31.767l17.421-5.84z" fill="#F5D3BE"/>
        <g transform="translate(476.993 177.32)">
            <mask id="233vxl5pdd" fill="#fff">
                <use xlink:href="#knvhgt5v9c"/>
            </mask>
            <path d="M3.252 16.764s3.291 2.429 6.125-4.584C10.507 9.383 12.855.035 12.855.035s1.84-.488 5.019 2.19c3.177 2.678 5.133 7.187 5.133 7.187l-3.98 4.365-3.015-2.617s-2.88 8.12-3.387 10.128c-.508 2.002-8.854 9.404-8.854 9.404S.925 28.515.317 27.812c-1.522-1.767 2.935-11.048 2.935-11.048" fill="#272525" mask="url(#233vxl5pdd)"/>
        </g>
        <path d="M441.037 162.942c2.19 4.917 5.397 9.244 9.64 12.581 3.99 3.139 8.618 5.333 13.31 7.207 3.01 1.203 6.066 2.286 9.113 3.389.211.077.81-.055.388-.208-9.604-3.478-20.001-6.823-26.813-14.894-2.047-2.426-3.67-5.16-4.96-8.054-.088-.198-.765-.217-.678-.021" fill="#272525"/>
        <path d="M429.179 60.652s-6.626 8.32-16.63 5.613c-4.905-1.327-8.788-5.423-7.753-9.3 1.76-6.577 13.369-17.648 13.369-17.648s12.26 8.96 11.014 21.335" fill="#F5D3BE"/>
        <path fill="#F5D3BE" d="m423.464 50.484-14.115 6.574 1.83 24.482 21.853-6.142z"/>
        <path d="M417.754 50.079c2.325.859 1.979 5.768 1.363 9.108-.594 3.183 12.392 5.029 12.392 5.029s17.651.102 2.458-24.726c-2.31-3.775-7.974-8.5-13.961-5.344-2.38 1.255-4.356 3.49-5.78 5.752-2.673 4.247-1.436 8.345 3.528 10.18" fill="#272525"/>
        <path d="M413.883 43.128c-2.78 3.174-5.808 6.218-7.86 9.943-1.572 2.854-2.57 6.376-.339 9.127 1.388 1.71 3.344 2.783 5.496 3.192.426.082.94-.274.292-.397-2.3-.438-4.4-1.821-5.57-3.873-.987-1.726-.61-3.946.048-5.72 1.746-4.71 5.613-8.377 8.855-12.078.19-.216-.716-.428-.922-.194" fill="#272525"/>
        <path d="M410.052 47.625c-.905.29-1.862.49-2.726.897-.613.29-1.138.757-1.09 1.487.036.56.292 1.082.567 1.561.096.167.359.244.533.286.041.01.457.076.377-.063-.368-.642-.836-1.559-.361-2.269.4-.6 1.272-.83 1.918-1.03.547-.17 1.098-.324 1.643-.499.16-.05-.238-.266-.264-.277-.176-.076-.407-.154-.597-.093M412.223 50.176a.619.619 0 0 1-.846.225.614.614 0 0 1-.23-.842l.682-1.18a.618.618 0 0 1 1.074.617l-.68 1.18z" fill="#272525"/>
        <path d="M411.311 54.594s-1.53 1.011-4.654-.392" stroke="#272525" stroke-width=".94" stroke-linecap="round" stroke-linejoin="round"/>
        <path d="M406.293 113.315s-4.72 5.522-8.648 17.07c-2.924 8.6-5.045 33.636-5.045 33.636s19.615 2.02 43.933-4.042c16.726-4.17 29.23-13.555 29.23-13.555s-7.389-19.86-15.754-26.94c-8.801-7.448-18.017-10.408-18.017-10.408l-25.699 4.24z" fill="#272525"/>
        <path d="M413.707 110.968c-1.085 3.54-1.599 7.237-2.627 10.794-.037.128.662.362.69.263 1.029-3.556 1.542-7.253 2.627-10.793.039-.125-.659-.365-.69-.264M430.046 112.05c.368 2.249.803 4.487 1.519 6.655.075.228.794.305.715.067-.715-2.167-1.15-4.405-1.518-6.654-.037-.229-.76-.337-.716-.068" fill="#6A6969"/>
        <path d="M475.345 6.645c-2.034-.867-5.348 7.624-5.348 7.624s3.1-11.874.143-12.07c-2.09-.14-3.588 7.903-4.167 10.125.559-2.293.123-11.595-2.089-12.059-2.533-.538-2.212 13.11-2.212 13.11s-.388-11.039-4.02-10.586c-2.855.355 2.743 12.509-1.14 15.972-1.008.899-4.039-2.652-5.889-3.662-1.699-.924-4.792-.665-3.082 1.6 1.14 1.506 5.359 6.128 7.596 8.412 2.33 2.37 4.916 3.29 4.916 3.29l-.262 9.266 12.21-.095s-.68-10.418-.33-11.625c1.724-5.974 1.765-9.51 1.765-9.51s4.301-8.774 1.909-9.792M366.65 17.915c1.523-1.6 7.933 4.88 7.933 4.88s-7.56-9.668-4.923-11.02c1.865-.962 6.436 5.83 7.847 7.64-1.423-1.885-4.718-10.595-2.87-11.898 2.111-1.5 7.235 11.158 7.235 11.158s-4.027-10.287-.513-11.311c2.763-.805 2.449 12.573 7.386 14.212 1.283.424 2.656-4.038 3.953-5.696 1.196-1.525 4.138-2.512 3.465.245-.447 1.835-2.484 7.753-3.635 10.732-1.195 3.101-3.204 4.966-3.204 4.966l.997 12.49-11.25 4.747s-.586-13.912-1.387-14.884c-3.954-4.8-5.394-8.03-5.394-8.03s-7.435-6.348-5.64-8.23" fill="#F5D3BE"/>
        <path d="M448.063 87.652c6.135-1.977 11.867-6.94 17.018-15.73 10.708-18.272 9.536-34.912 9.319-35.879-.183-.804-2.989-1.564-5.885-2.54-2.9-.976-10.388-2.017-10.37-1.291.03 1.077.564 5.48-3.704 13.155-4.004 7.21-11.501 17.8-20.045 22.77-16.511 9.61-29.315-2.086-33.081-8.537-5.184-8.89-8.819-20.318-8.66-20.874.153-.553-2.267-.862-7.777.172-4.328.812-8.517 1.816-8.838 2.387-.323.57-2.75 17.093 2.957 30.314 5.542 12.837 10.011 19.017 19.384 21.447.34 2.335.416 20.772.416 20.772l47.223-1.952s1.724-17.227 2.043-24.214" fill="#9ACD65"/>
        <path d="M438.683 46.614c5.077-1.178 10.205-4.441 15.605 3.594 5.557 8.27 8.491.944 15.43 1.887 8.968 1.22 14.29 7.242 11.115 13.197-2.005 3.764 5.764 4.532 5.828 9.818.083 6.901-10.412 15.374-19.04 11.62-4.064-1.77-4.6-5.7-7.957-7.403-2.35-1.195-6.434.67-9.111-.05-5.504-1.476-7.131-6.352-10.448-6.515-1.806-.09-6.042 2.576-11.531.048-6.233-2.867-10.104-6.184-12.268-12.035-4.796-12.96 13.863-18.288 13.863-18.288s3.512 5.288 8.514 4.127" fill="#272525"/>
        <path d="M401.355 68.51c7.659 5.756 17.782 7.056 26.798 4.009.518-.175.076-.98-.415-.814-8.729 2.95-18.537 1.676-25.947-3.892-.478-.36-.886.359-.436.697" fill="#272525"/>
        <path d="M408.79 64.934c.476 1.456.725 3 .954 4.512.203 1.344.46 2.776.357 4.14-.028.381.94.432.97.042.106-1.402-.164-2.875-.376-4.255-.233-1.523-.485-3.08-.965-4.549-.113-.344-1.074-.297-.94.11M397.738 91.33c.304 1.625.3 3.32.319 4.968.025 2.212-.018 4.426-.072 6.637-.086 3.543-.41 7.157-.185 10.698.013.21.485.29.637.3 4.817.275 9.7-.074 14.51-.349 5.798-.33 11.595-.757 17.374-1.34 2.095-.212 4.202-.417 6.277-.781.239-.042-.515-.384-.73-.346-4.381.768-8.876 1.05-13.304 1.403-5.81.464-11.632.846-17.459 1.035-2.346.076-4.707.152-7.052.018l.636.298c-.23-3.62.105-7.316.19-10.939.055-2.236.097-4.475.063-6.712-.022-1.573-.036-3.183-.327-4.735-.04-.214-.916-.363-.877-.155" fill="#272525"/>
        <path fill="#F5D3BE" d="m347.513 45.913-15.322-2.787-7.223 43.11 18.661 1.703z"/>
        <path d="M330.493 42.896s-3.137-4.77-4.282-1.67c-1.147 3.102.034 7.632 2.356 8.38 2.325.75 5.527.033 5.527.033l-3.601-6.743zM348.285 47.52s5.75-1.803 6.06.808c.306 2.613-3.915 5.722-5.18 5.913-1.265.19-4.636-1.757-4.636-1.757l3.756-4.964z" fill="#F5D3BE"/>
        <path d="M350.552 50.57c1.723-4.55 8.094-10.538 1.33-15.911-5.679-4.51-16.618-7.457-20.034-1.905-1.783 2.901-2.242 7.442-2.266 11.909-.02 4.08.245 8.195 1.877 8.934 4.09 1.85 11.02 2.694 12.835 2.913 1.814.216 4.87-2.268 6.258-5.94" fill="#6A6969"/>
        <path d="M328.331 40.001c-.749-.37-1.677-.683-2.507-.389-.643.229-1.065.793-1.291 1.416-.59 1.62-.258 3.606.464 5.129.441.932 1.072 1.737 1.93 2.317.09.06.319.178.369.024.047-.145-.282-.363-.365-.42-1.224-.828-1.76-2.66-1.907-4.045-.129-1.208-.055-3.01 1.145-3.706.747-.434 1.625-.185 2.347.17.121.06.284.09.263-.084-.021-.172-.314-.346-.448-.412" fill="#272525"/>
        <path d="M350.068 32.018c-4.537-2.399-10.79-4.866-15.57-1.653-4.71 3.165-6.036 9.376-5.913 14.717.044 1.88.281 3.774.798 5.586.193.677.389 1.517.787 2.109.5.747 1.499.786 2.1 1.4.204.21 1.031.009.84-.187-.433-.442-.975-.59-1.5-.89-.704-.401-.907-1.136-1.147-1.865-.462-1.397-.733-2.855-.879-4.318-.31-3.134-.078-6.38.836-9.4 1.156-3.82 3.889-7.667 8.139-8.18 3.734-.45 7.556 1.264 10.766 2.962.234.123 1.059-.114.743-.28M346.096 65.586l-20.211.566-3.212 5.215 26.874-.342z" fill="#272525"/>
        <path d="M441.735 91.973c.518-2.144-8.406-4.015-8.406-4.015s12.23 1.101 11.936-1.844c-.206-2.082-8.393-2.234-10.68-2.44 2.356.174 11.468-1.788 11.56-4.042.115-2.585-13.309-.02-13.309-.02s10.838-2.202 9.792-5.707c-.822-2.754-11.9 4.762-15.957 1.504-1.054-.844 1.955-4.414 2.647-6.403.632-1.827-.134-4.833-2.09-2.774-1.297 1.37-5.164 6.29-7.054 8.87-1.953 2.687-2.436 5.387-2.436 5.387l-9.192 1.265 2.103 12.017s10.175-2.386 11.423-2.237c6.181.714 9.68.171 9.68.171s9.373 2.796 9.983.268" fill="#F5D3BE"/>
        <path d="M413.579 79.245s-11.813 1.628-27.774-.76c-12.494-1.867-36.259-8.897-36.259-8.897l-24.477-.782-14.75 1.456-11.01 87.413s18.088 1.231 33.597.724l.401-7.86 1.253 7.9c15.42-1.546 25.378-3.951 25.378-3.951l2.805-56.872c11.328 2.562 11.218 1.711 17.16 2.39 21.793 2.49 36.7-5.117 36.7-5.117l-3.024-15.644z" fill="#272525"/>
        <path d="M349.56 70.846c-5.478 1.898-11.57 2.676-17.35 2.355a31.485 31.485 0 0 1-4.522-.56 23.552 23.552 0 0 1-2.121-.53c-.408-.124-.81-.26-1.208-.41-.08-.03-.94-.297-.933-.282-.107-.231.879-1.684 1.001-1.918l.919-1.762c.127-.242-.528-.03-.623.152l-1.925 3.69c-.02.036-.023.103.025.123 4.34 1.9 9.27 2.185 13.945 1.908 4.313-.255 8.676-.992 12.764-2.409.305-.105.489-.517.028-.357M343.729 124.738c-7.736 1.548-16.248 3.526-23.854.405-.226-.093-.865.186-.477.346 7.771 3.187 16.485 1.208 24.388-.374.431-.086.384-.465-.057-.377" fill="#6A6969"/>
        <path d="M264.412 66.587c-9.422.209-18.904 1.348-28.292.014-.416-.059-.93.516-.358.597 9.469 1.345 19.007.224 28.51.014.48-.01.725-.638.14-.625" fill="#272525"/>
        <path d="M235.13 91.103c-.774-2.067 7.86-4.994 7.86-4.994s-12.008 2.56-12.07-.4c-.047-2.093 8.063-3.224 10.31-3.704-2.317.456-11.6-.4-11.96-2.627-.428-2.553 13.207-1.615 13.207-1.615s-11.022-.888-10.405-4.492c.484-2.832 12.385 3.304 16.022-.417.946-.964-2.47-4.149-3.395-6.04-.846-1.737-.448-4.815 1.74-3.005 1.453 1.205 5.883 5.626 8.068 7.961 2.263 2.433 3.067 5.056 3.067 5.056l9.277.155-.646 12.184s-10.389-1.152-11.61-.855c-6.051 1.45-9.59 1.33-9.59 1.33s-8.968 3.898-9.876 1.463M333.916 127.018c1.202-1.853-6.596-6.575-6.596-6.575s11.172 5.094 11.874 2.217c.497-2.032-7.176-4.89-9.266-5.842 2.166.944 11.413 2.115 12.247.018.968-2.4-12.546-4.432-12.546-4.432s10.954 1.515 11.133-2.135c.139-2.869-12.808.547-15.552-3.872-.715-1.145 3.309-3.516 4.622-5.163 1.204-1.513 1.48-4.605-1.049-3.31-1.68.865-6.963 4.221-9.601 6.028-2.735 1.887-4.086 4.274-4.086 4.274l-9.093-1.853-2.009 12.035s10.392 1.121 11.521 1.674c5.593 2.724 9.073 3.372 9.073 3.372s7.913 5.743 9.328 3.564" fill="#F5D3BE"/>
        <path d="M273.565 67.665c9.441 5.639 13.156 17.911 18.146 24.327 4.986 6.417 18.297 11.772 18.297 11.772l-1.252 15.697s-27.782.725-38.01-15.175c-8.136-12.649-6.817-16.923-7.329-21.198-.785-6.553.707-21.062 10.148-15.423" fill="#F1F0EB"/>
        <path d="M283.967 73.359c-8.346 1.211-23.49 2.51-23.49 2.51l-.688 16.234s11.932 1.597 24.577 3.263c6.778.893 19.833 2.073 30.79.939 6.023-.625 3.786-26.894 3.786-26.894s-20.964 1.913-34.975 3.948M261.386 40.249c.662.051 1.495.142 1.997.633.02.02.04.043.06.065-.002-.002.017.026.003.002a6.244 6.244 0 0 1-.174-.316c-.007-.015-.004-.01.003.015.034.12.044.243.042.366-.006.31-.09.613-.203.9-.172.443-.409.858-.663 1.258-.057.091.134.377.177.456.017.03.274.419.29.394.424-.67.925-1.503.875-2.33-.027-.456-.266-.894-.513-1.265a1.867 1.867 0 0 0-.817-.699c-.483-.214-1.02-.288-1.543-.328-.032-.003.16.424.177.455.047.086.17.384.29.394M160.21 141.975c3.188.582 6.438.402 9.66.398.614-.001.574-.804-.034-.803-3.138.003-6.3.185-9.403-.38-.568-.104-.845.672-.223.785M97.674 39.987c-.89 4.623-1.807 9.241-2.528 13.893-.08.514.77.323.838-.12.71-4.587 1.616-9.139 2.494-13.696.105-.547-.715-.536-.804-.077" fill="#272525"/>
        <path d="m45.024 16.072 17.586 4.336s-3.257 13.49-13.193 16.723c-7.054 2.294-15.598 2.423-15.598 2.423l4.714-4.843s7.02 2 13.415-3.289c3.55-2.931 4.998-8.18 4.998-8.18l-11.75-2.872-.172-4.298zM18.615 8.552 1.381 2.975s-4.349 13.176 2.387 21.16c4.782 5.662 11.976 10.272 11.976 10.272l-1.452-6.597s-7.018-2-9.664-9.86c-1.465-4.36.07-9.583.07-9.583L16.2 12.116l2.415-3.564z" fill="#DB9F0D"/>
        <g transform="translate(9.5)">
            <mask id="vnu55f9mcf" fill="#fff">
                <use xlink:href="#yzxbjq1tie"/>
            </mask>
            <path d="M41.008 9.785 6.636 0S-4.016 22.197 1.671 35.942c3.08 7.443 7.323 9.885 10.257 10.642 2.893.903 7.787 1.06 14.333-3.641C38.348 34.258 41.008 9.785 41.008 9.785" fill="#FFC112" mask="url(#vnu55f9mcf)"/>
        </g>
        <path d="M32.648 63.707c7.478 1.412 15.26 2.06 22.598-.39 2.22-.742 4.334-1.814 6.465-2.77 3.076-1.38 6.188-2.693 9.397-3.738 3.787-1.232 7.793-2.163 11.8-1.873.462.034.82-.654.244-.696-6.748-.49-13.471 2.104-19.553 4.734-2.434 1.052-4.82 2.226-7.277 3.22-2.966 1.198-6.163 1.817-9.347 2.02-4.721.3-9.453-.329-14.083-1.203-.463-.087-.811.589-.244.696M69.468 116.484c2.125 1.014 4.619 1.307 6.932 1.555 3.464.372 6.957.471 10.438.485 7.48.028 14.977-.35 22.426-1.03 2.635-.24 5.295-.477 7.898-.968.56-.106-.174-.368-.439-.318-5.397 1.02-11.01 1.273-16.483 1.58-7.309.408-14.704.659-22.01.065-2.677-.218-5.667-.428-8.13-1.603-.206-.099-1.047.036-.632.234M88.286 106.537c6.951-.607 13.658-2.87 19.734-6.264 1.305-.729 2.567-1.528 3.847-2.296.714-.427 1.483-.843 2.099-1.41.313-.29.677-.655.267-1.01-.26-.225-.751-.285-1.067-.345-.81-.152-1.637-.193-2.457-.263-4.252-.363-8.478-1.007-12.674-1.78-.216-.039-.699.515-.68.519 3.108.571 6.23 1.07 9.368 1.44 1.616.19 3.24.294 4.856.474.41.045 1.997.092 2.117.693.115.574-1.345 1.189-1.725 1.417-1.172.702-2.324 1.437-3.515 2.108a51.785 51.785 0 0 1-8.85 3.962 45.84 45.84 0 0 1-10.64 2.237c-.244.022-.638.514-.68.518M219.365 81.42c.055 2.496-.528 5.023-1.078 7.44-.758 3.34-1.673 6.642-2.58 9.942-1.785 6.489-3.866 13.073-4.601 19.787-.209 1.903-.458 4.248.404 6.038.756 1.57 2.737 2.226 4.276 2.73 2.922.958 6.003 1.451 9.044 1.856 3.818.509 7.665.814 11.513 1.01 8.656.442 17.452.476 26.07-.552.25-.03.89-.473.329-.406-7.566.901-15.264.934-22.87.667-7.217-.253-14.681-.656-21.7-2.482-1.763-.458-4.24-1.023-5.459-2.52-1.16-1.424-.998-3.794-.874-5.49.476-6.463 2.503-12.858 4.212-19.075 1.019-3.704 2.065-7.404 2.938-11.146.614-2.63 1.27-5.377 1.21-8.096-.004-.155-.84.023-.834.298M93.076 52.585c5.714-.01 11.456-.48 17.119.517.24.043.917-.478.573-.54-5.663-.996-11.405-.526-17.118-.517-.24.001-.89.54-.574.54M93.814 54.153c9.556.003 19.275.196 28.678 2.057.465.092.233-.738-.124-.809-9.454-1.87-19.234-2.062-28.843-2.066-.407 0-.086.818.289.818M121.573 85.291c4.044 8.449 12.527 14.325 21.097 17.48 4.462 1.643 9.133 2.65 13.848 3.214.317.038.97-.363.4-.431-12.226-1.462-24.848-6.326-32.228-16.664-.862-1.206-1.642-2.475-2.282-3.813-.124-.257-.986-.1-.835.214M266.093 100.554c7.223 9.857 18.664 14.797 30.369 17.057 4.01.774 8.072 1.256 12.145 1.559.163.012.303-.078.321-.247l1.474-13.697c.044-.41-.733-.78-.787-.273l-1.474 13.698.32-.247c-12.318-.918-25.507-3.442-35.352-11.419a36.144 36.144 0 0 1-6.413-6.738c-.296-.403-.947-.162-.603.307" fill="#272525"/>
        <path d="M203.745 98.749c2.584.289 5.211.309 7.788-.048 2.183-.301 4.417-.886 6.26-2.134.503-.34-.039-.325-.331-.128-1.776 1.203-3.997 1.643-6.095 1.879-2.325.26-4.686.215-7.008-.046-.203-.023-.877.447-.614.477M7.135 53.162c-.518 2.353-1.166 4.678-1.703 7.027-.466 2.039-.996 4.19-.923 6.297.057 1.681.9 2.8 2.401 3.56 2.47 1.251 5.47 1.524 8.191 1.653.432.021-.01-.72-.327-.736-2.543-.12-5.299-.354-7.637-1.442-.766-.357-1.582-.844-1.81-1.708-.186-.703-.131-1.483-.073-2.199.334-4.046 1.689-7.965 2.556-11.914.071-.323-.6-.877-.675-.538M25.231 53.62c-1.552-.177-3.075-.51-4.49-1.191-1.857-.892-3.43-2.25-4.912-3.656-.07-.068-.337-.347-.442-.32-.076.02.169.24.187.256 1.602 1.52 3.311 3 5.273 4.04 1.567.829 3.262 1.248 5.015 1.447.08.01-.173-.243-.188-.257-.102-.094-.292-.302-.443-.32" fill="#272525"/>
    </g>
</svg>
