<svg width="150" height="202" viewBox="0 0 150 202" xmlns="http://www.w3.org/2000/svg" xmlns:xlink="http://www.w3.org/1999/xlink">
    <defs>
        <path id="ip9fokj2xa" d="M0 0h118.748v32.836H0z"/>
        <path id="lznymsd4ac" d="M0 0h25.015v8.813H0z"/>
    </defs>
    <g fill="none" fill-rule="evenodd">
        <path d="m36.129 44.506 17.96-43.305s18.243-2.4 31.55 7.045c13.545 9.611 17.363 17.593 34.975 19.989 19.937 2.714 29.15-7.776 29.15-7.776s-6.747 14.204-21.777 23.518c-15.024 9.312-34.69 13.32-61.75 1.43-15.014-6.598-30.108-.901-30.108-.901" fill="#FFC112"/>
        <path d="M52.459.134c-3.443 12.211-8.268 24.054-12.991 35.81-5.895 14.675-12.033 29.252-17.952 43.918-3.193 7.91-6.33 15.845-9.294 23.845-.05.136 1.072.387 1.178.1 5.439-14.681 11.424-29.155 17.383-43.63 5.7-13.845 11.477-27.67 16.708-41.702 2.24-6.009 4.405-12.064 6.146-18.24.047-.166-1.1-.378-1.178-.101M10.59 108.784c-.905 2.235-1.64 4.548-2.401 6.834-.721 2.166-1.476 4.335-2.073 6.54-.177.652.873 1.036 1.07.31.586-2.166 1.337-4.296 2.046-6.424.746-2.235 1.465-4.495 2.349-6.68.248-.613-.717-1.258-.992-.58" fill="#272525"/>
        <g transform="translate(31.252 20.688)">
            <mask id="73t2xutowb" fill="#fff">
                <use xlink:href="#ip9fokj2xa"/>
            </mask>
            <path d="M.42 26.81c3.42-3.208 8.148-4.556 12.693-5.138 4.637-.593 9.606-.642 14.22.161 9.897 1.721 18.276 7.93 28.04 10.051 6.397 1.39 13.104 1.163 19.506-.07 7.78-1.498 15.234-4.566 21.907-8.83 7.868-5.026 14.58-11.718 19.87-19.404a80.725 80.725 0 0 0 2.073-3.176c.112-.181-.294-.557-.431-.336-5.071 8.167-11.638 15.386-19.515 20.912-6.642 4.66-14.158 8.093-22.065 9.922-6.595 1.526-13.571 1.994-20.255.765-9.42-1.733-17.508-7.472-26.764-9.768-4.604-1.141-9.489-1.278-14.206-.95-4.457.309-9.09 1.173-12.95 3.54a15.473 15.473 0 0 0-2.5 1.909c-.17.158.209.57.377.412" fill="#272525" mask="url(#73t2xutowb)"/>
        </g>
        <path d="M93.644 11.235c5.281 6.32 12.028 11.32 19.845 13.999 7.292 2.5 15.186 2.88 22.743 1.478 4.418-.82 8.71-2.231 12.792-4.104.318-.147-.038-.522-.291-.406-7 3.212-14.658 5.058-22.38 4.871-7.651-.185-15.148-2.413-21.608-6.537-4.024-2.569-7.576-5.817-10.635-9.478-.175-.21-.689-.09-.466.177" fill="#272525"/>
        <path d="M32.076 110.99c7.567 3.035 7.547 3.077-13.362-4.137l-7.338 5.322 22.206 10.077-1.506-11.261z" fill="#F5CFB8"/>
        <path d="M8.511 111.023s-3.762-1.204-.771-7.184c3.095-6.186 5.819-6.796 9.34-2.53 3.525 4.266 5.501 5.757 4.123 8.585-.574 1.18-2.65 3.364-4.697 3.979-2.86.858-7.995-2.85-7.995-2.85" fill="#F5CFB8"/>
        <path d="M20.318 108.184s.602-1.144.515-2.172c-.17-2.062-.502-4.245-1.362-5.04-1.289-1.19-4.694-1.089-4.592.256.101 1.345.204 2.894 1.649 2.38.524-.188 2.115.776 2.115.776" fill="#F5CFB8"/>
        <path d="M14.283 101.502c-.431.433-.83.916-1.141 1.443-.285.481-.587 1.167-.227 1.69.321.466.948.57 1.472.527.658-.055 1.3-.285 1.915-.515.592-.222 1.185-.52 1.808-.65.13-.028.052-.179-.006-.234a.424.424 0 0 0-.372-.106c-.46.096-.901.298-1.337.47-.567.22-1.139.443-1.732.583-.332.08-.937.232-1.226-.027-.386-.348-.039-1.058.157-1.409.303-.544.71-1.036 1.147-1.476.165-.167-.317-.438-.458-.296M15.545 104.98c-.917 1.09-1.873 2.243-3.117 2.97-1.272.745-2.683.76-4.067.338-.119-.036-.02.112 0 .146a.633.633 0 0 0 .3.24c1.356.415 2.752.433 4.022-.255 1.32-.715 2.32-1.926 3.272-3.057.076-.09-.34-.464-.41-.381M17.99 100.822c1.207-.612 1.797 1.944 1.983 2.677.473 1.862.666 3.826.6 5.746-.009.23.512.427.521.167.076-2.177-.151-4.469-.808-6.551-.321-1.019-1.184-3.162-2.638-2.425-.268.136.142.487.343.386" fill="#272525"/>
        <path d="M20.994 108.151c4.438 1.5 9.138 1.99 13.536 3.624.267.1-.048-.335-.177-.383-4.43-1.646-9.159-2.146-13.628-3.656-.164-.055.133.369.27.415" fill="#272525"/>
        <path d="M65.976 197.143s.86 2.65 1.228 2.83c.366.178 19.239-1 22.311-1.546 3.07-.547 3.656-.838 3.13-2.688-.438-1.536-.793-1.126-.793-1.126l-25.876 2.53z" fill="#AE9683"/>
        <path fill="#F5CFB8" d="m59.481 138.526 30.649 51.897 1.734 4.096-12.272 1.692-7.162-3.487 4.058-3.009-31.466-42.98z"/>
        <path d="m75.672 190.01 2.04 2.237 12.782-1.982s2.734 4.559 1.375 5.464c-1.354.905-24.747 2.772-25.303 2.633-.556-.14-1.083-1.653-.938-2.307.355-1.642 10.044-6.045 10.044-6.045" fill="#FFF"/>
        <path d="M92.67 197.43c-8.548 1.384-17.247 2.235-25.894 2.644.076-.004.333.229.492.221 8.647-.409 17.346-1.26 25.893-2.643-.062.01-.34-.246-.492-.221" fill="#272525"/>
        <path d="M.562 190.084s-.343 2.767-.088 3.085c.256.316 17.847 7.273 20.859 8.082 3.012.81 3.666.797 3.973-1.104.254-1.576-.241-1.356-.241-1.356L.562 190.084z" fill="#AE9683"/>
        <path fill="#F5CFB8" d="m56.594 139.475-31.254 54.3-.895 4.803-11.158-3.55-5.01-6.203 8.7-1.825 23.268-49.055z"/>
        <path d="m12.362 187.747.9 2.892 12.413 3.638s.545 5.289-1.068 5.534c-1.61.242-23.583-8.01-24.028-8.373-.445-.363-.28-1.956.128-2.488 1.017-1.335 11.655-1.203 11.655-1.203" fill="#FFF"/>
        <g transform="translate(0 193.187)">
            <mask id="k3tgg87o4d" fill="#fff">
                <use xlink:href="#lznymsd4ac"/>
            </mask>
            <path d="M24.614 8.61C16.351 6.251 8.176 3.347.234.066c-.29-.12-.324-.064-.025.06 8.065 3.33 16.363 6.282 24.754 8.677.21.06-.272-.17-.349-.193" fill="#272525" mask="url(#k3tgg87o4d)"/>
        </g>
        <path d="M50.241 74.456c3.596-1.663 6.53-3.347 11.789 1.815 5.415 5.315 6.465-.607 11.776-.974 6.862-.477 11.753 3.196 10.31 8.132-.913 3.118 4.988 2.49 5.853 6.427 1.127 5.137-5.377 13.083-12.378 11.614-3.296-.691-4.302-3.543-7.063-4.295-1.935-.528-4.686 1.494-6.789 1.371-4.323-.252-6.29-3.64-8.782-3.247-1.36.21-3.464 2.46-5.188 2.689-5.171.683-10.54-.844-11.102-2.245-.747-1.868 5.118-21.808 5.118-21.808s2.909 2.16 6.456.521" fill="#272525"/>
        <path d="M46.148 83.45s-.985 8.042-8.545 10.263c-3.707 1.09-8.645-.47-9.514-3.4-1.475-4.976 2.44-16.347 2.44-16.347s11.507.944 15.619 9.483" fill="#F5CFB8"/>
        <path fill="#F5CFB8" d="m42.96 88.143 4.038 8.504-11.227 4.715-4.231-12.549z"/>
        <path d="M28.834 79.377s3.513-3.15 3.926-2.28c.765 1.614.91 2.85 3.963 4.481 2.217 1.185 2.182 2.756 2.644 5.301.296 1.636 2.834 3.807 5.619 2.947 1.348-.417 2.637-1.909 3.532-4.015 1.046-2.46 4.271-3.923 3.27-5.83-1.705-3.25-6.11-3.358-10.984-8.866-2.23-2.523-6.133-5.195-9.537-1.33-3.89 4.422-2.433 9.592-2.433 9.592" fill="#272525"/>
        <path d="m48.013 97.174-11.732-.042s-.681 2.202-1.138 3.265c-1.738 4.042-4.079 9.327 3.27 8.862 14.933-.948 9.6-12.085 9.6-12.085" fill="#F5CFB8"/>
        <path d="M35.306 84.774a.471.471 0 1 1-.898-.28l.308-.99a.468.468 0 0 1 .586-.309.474.474 0 0 1 .312.59l-.308.99zM30.218 83.346a.47.47 0 1 1-.9-.28l.309-.99a.469.469 0 0 1 .586-.31.475.475 0 0 1 .313.591l-.308.99z" fill="#272525"/>
        <path d="M31.493 84.146s-.862.487-1.074.63c-.211.145.245.831.245.831M34.938 87.915s-1.75 1.356-4.259.289c-.881-.375-1.41-.791-1.726-1.173" stroke="#272525" stroke-width=".714" stroke-linecap="round" stroke-linejoin="round"/>
        <path d="M39.679 84.823s2.41-1.076 2.777.441c.368 1.517-.004 2.483-1.228 3.105-1.227.622-2.902-.411-2.902-.411l1.353-3.135z" fill="#F5CFB8"/>
        <path d="M41.453 84.08c.624.322.955.99.97 1.679.018.856-.412 1.642-1.062 2.179-.51.42-1.138.68-1.775.833-.115.028-.279.101-.279.244 0 .13.154.19.265.164 1.174-.28 2.349-.872 2.974-1.954.436-.755.58-1.715.205-2.526a2.036 2.036 0 0 0-.908-.967c-.217-.112-.664.207-.39.348M28.834 78.024c-1.315 3.514-2.794 7.778-1.938 11.583.22.98.64 1.923 1.369 2.631.806.784 1.826 1.08 2.898 1.312 2.36.513 4.554.372 6.895-.175.133-.03-.336-.19-.464-.16-2.372.555-4.55.641-6.93.042-.876-.22-1.64-.653-2.212-1.365-1.512-1.884-1.351-4.69-.997-6.929.372-2.348 1.1-4.63 1.932-6.851.032-.086-.501-.225-.553-.088" fill="#272525"/>
        <path d="m25.081 107.256-3.165 12.453s10.623 5.668 12.988 4.248c2.363-1.421 8.927-11.184 6.144-14.209-2.782-3.024-15.967-2.492-15.967-2.492" fill="#FFC112"/>
        <path d="M39.205 130.263c-3.168 7.027-3.197 6.997-4.976 10.646-1.828 3.751-7.11 14.015-7.11 14.015s16.557 7.717 35.563 1.037c13.394-4.706 16.114-14.75 16.114-14.75s-7.294-1.581-11.893-6.034c-1.963-1.9-8.279-11.308-11.052-11.549-2.775-.241-16.646 6.635-16.646 6.635" fill="#AE9683"/>
        <path d="M34.229 102.882c-1.366 3.699-.596 10.009.337 19.475.796 8.062 1.793 11.323 1.793 11.323l26.124-4.296s-9.044-27.406-10.66-30.875c-1.615-3.471-17.594 4.373-17.594 4.373" fill="#F1F0EB"/>
        <path d="M39.017 98.752c-.732 2.313.775 7.28 7.4 11.942 6.625 4.661 16.901 9.749 19.96 9.48 3.058-.268 7.392-6.666 4.879-9.628-2.514-2.963-13.505-12.323-17.791-14.172-10.393-4.485-13.717.064-14.448 2.378" fill="#FFC112"/>
        <path d="M39.017 98.752c-.574.738-2.801 5.128.48 25.685.691 4.34 2.454 14.405 2.454 14.405l24.899-8.959s-6.488-21.433-9.118-25.473c-2.63-4.041-18.715-5.658-18.715-5.658M34.535 101.839s-3.24 7.906-2.542 19.326c.7 11.419 1.72 15.23 1.72 15.23l5.429.523s-3.141-13.292-4.35-20.834c-1.68-10.501-.257-14.245-.257-14.245" fill="#FFC112"/>
        <path d="M40.279 138.582c-1.626 4.844-3.881 9.456-5.717 14.22-.02.052.508.22.546.123 1.836-4.765 4.09-9.377 5.717-14.221.02-.06-.515-.214-.546-.122M45.6 138.85c-.457 5.368-1.623 10.644-2.168 16-.03.29.522.237.549-.022.545-5.356 1.71-10.632 2.168-16 .025-.29-.527-.236-.55.023M50.597 138.106c.757 5.452 2.397 10.745 3.154 16.196.022.16.443.5.413.283-.757-5.452-2.398-10.745-3.154-16.196-.023-.16-.443-.5-.413-.283M54.397 136.187c2.847 4.593 6.122 8.902 9.068 13.431.189.291.49.062.303-.225-2.945-4.529-6.22-8.837-9.068-13.431-.183-.296-.483-.065-.303.225M60.228 134.669c1.525 2.108 3.717 3.824 5.775 5.375a38.362 38.362 0 0 0 3.536 2.4c.953.564 1.956 1.113 3.034 1.395.15.039.004-.472-.17-.517-1.049-.274-2.029-.821-2.955-1.37a37.7 37.7 0 0 1-3.584-2.44c-1.981-1.504-4.09-3.158-5.561-5.191-.21-.292-.182.2-.075.348" fill="#F1F0EB"/>
        <path d="M69.442 115.204s-2.706-2.327.75-6.796c1.124-1.45 1.528-4.184 1.625-4.854.289-2.025.953-3.463 1.859-2.905.6.369 1.158 1.737 1.166 3.323.01 1.747-.424 4.474-1.237 5.7-2.44 3.685-4.163 5.532-4.163 5.532" fill="#F5CFB8"/>
        <path d="M72.84 110.638s-2.967-1.573-5.429-1.573c-1.922 0-3.298 3.617-3.844 5.184-.546 1.569.273 4.086 1.85 4.667 2.237.822 5.437.27 6.665-.132 1.223-.405 1.853-7.3.759-8.146" fill="#F5CFB8"/>
        <path d="M78.532 108.738s-6.764-1.605-8.154 1.806c-1.393 3.41-1.607 8.468 1.05 9.55 5.838 2.375 6.721-.133 7.45-2.75.729-2.612 2.35-6.938-.346-8.606" fill="#F5CFB8"/>
        <path d="M76.938 108.658c-.718.081-1.436.157-2.15.262-.802.116-1.895.17-2.595.624-.32.207-.29.581-.252.928.051.484.109.88-.156 1.316-.174.286-.395.543-.524.855-.1.238-.131.47-.1.726.048.4.385.898.317 1.295-.086.506-.598.812-.565 1.362.084 1.373.98 2.734 2.126 3.446.18.112.044-.406-.092-.49a3.63 3.63 0 0 1-1.572-2.062c-.137-.46-.174-.78.075-1.192.148-.243.327-.481.353-.773.03-.323-.114-.648-.209-.948-.163-.512-.094-.893.199-1.341.184-.282.409-.55.49-.884.081-.327.023-.66-.013-.989-.074-.67.134-.788.707-.96.487-.148.993-.238 1.494-.32.874-.145 1.755-.238 2.636-.338.194-.022-.01-.536-.17-.517M72.619 100.25c.754.067 1.405.818 1.794 1.41.41.627.471 1.343.355 2.072-.223 1.39-1.2 2.947-.375 4.304.08.134.617.058.536-.075-.918-1.512.454-3.32.454-4.906 0-1.377-1.217-2.892-2.623-3.018-.236-.021-.522.178-.141.213" fill="#272525"/>
        <path d="M72.517 100.145c-.02 1.217-.518 2.391-1.006 3.486-.65 1.46-1.4 2.873-2.054 4.332-1.213 2.698-2.353 5.904-1.014 8.77.072.152.58.23.53.12-1.361-2.912-.147-6.16 1.093-8.887.635-1.396 1.35-2.753 1.974-4.154.488-1.094.985-2.269 1.005-3.486.003-.18-.527-.297-.528-.181M40.47 96.251c-3.305 4.47-3.16 10.62-2.868 15.92.328 5.934 1.195 11.853 2.393 17.672.6 2.915 1.293 5.817 2.17 8.662.08.26.433.36.323.001-1.617-5.247-2.672-10.684-3.47-16.111-.797-5.404-1.41-10.95-1.084-16.418.196-3.278.864-6.592 2.853-9.281.117-.159-.185-.623-.317-.445M45.433 110.386c2.512 2.824 5.993 4.684 9.38 6.24 3.535 1.626 7.209 2.918 10.882 4.185.166.057.597-.275.353-.36-3.647-1.257-7.292-2.54-10.8-4.152-3.357-1.544-6.836-3.387-9.327-6.186-.137-.155-.602.144-.488.273M33.877 101.726c-2.618 8.929-3.156 18.454-1.717 27.642.395 2.518.944 5.01 1.638 7.462.077.272.618.244.527-.077a63.887 63.887 0 0 1-1.619-27.289c.406-2.56.978-5.09 1.707-7.578.083-.284-.453-.444-.536-.16" fill="#272525"/>
        <path d="M42.707 138.775c7.928-2.948 16.138-5.036 24.214-7.52.027-.008-.215-.478-.35-.436-8.077 2.485-16.287 4.572-24.215 7.52-.036.013.224.483.351.436M25.887 154.033c8.298 2.881 17.151 4.495 25.95 3.805 6.806-.534 13.595-2.48 19.299-6.318 2.805-1.887 5.29-4.229 7.292-6.96.183-.25-.338-.13-.445.015-3.68 5.022-9.007 8.549-14.83 10.609-7.112 2.516-14.855 2.915-22.297 1.984-4.984-.623-9.875-1.85-14.618-3.498-.17-.059-.599.277-.35.363" fill="#272525"/>
        <path d="M32.022 155.731c-3.885 8.748-8.193 17.301-12.203 25.991-.888 1.924-1.767 3.854-2.582 5.81-.004.01.443-.07.5-.205 3.546-8.507 7.777-16.736 11.694-25.074a354.09 354.09 0 0 0 3.09-6.727c.004-.007-.439.07-.499.205M69.269 156.714c5.539 8.52 10.575 17.365 15.702 26.136 1.528 2.616 3.06 5.23 4.602 7.837.067.111.566-.125.524-.196-5.412-9.145-10.663-18.389-16.208-27.455a279.16 279.16 0 0 0-4.096-6.517c-.074-.113-.565.133-.524.195" fill="#272525"/>
    </g>
</svg>
