<svg width="32" height="32" viewBox="0 0 32 32" xmlns="http://www.w3.org/2000/svg" xmlns:xlink="http://www.w3.org/1999/xlink">
    <defs>
        <path id="4av7j6mlxa" d="M0 0h28.05v24H0z"/>
    </defs>
    <g fill="none" fill-rule="evenodd">
        <path d="M0 0h32v32H0z"/>
        <g transform="translate(0 4)">
            <mask id="5kt1d4m6xb" fill="#fff">
                <use xlink:href="#4av7j6mlxa"/>
            </mask>
            <path d="M12.718 20.053c-3.266 0-7.098-2.463-4.788-7.845C10.556 6.084 18.723 2.103 22.07 2.103c.838 0 1.332.289 1.303.862-.042.844-.747 1.917.113 2.592 1.079.841 4.243-.52 4.55-2.674C28.236 1.457 26.212 0 22.138 0 12.76 0 3.5 5.266.74 12.321-1.726 18.621 2.162 24 9.615 24c6.722 0 11.234-3.939 12.803-8.74l.389-1.205h-8.374c-.406 1.588.08 3.451 2.645 3.451.71 0 1.407-.168 2.015-.497.063-.034.089.013.05.05-1.181 1.452-3.549 2.994-6.425 2.994" fill="#004E95" mask="url(#5kt1d4m6xb)"/>
        </g>
        <path d="M21.657 24.937c2.312.387 3.909-.543 4.656-2.295.311-.73.583-1.62.788-2.568.32-1.493-1.457-1.97-3.342-2l-2.102 6.863z" fill="#7FC241"/>
        <path d="M31.923 17.316c.347-1.945-.493-3.36-2.356-3.552-.779-.081-1.561-.139-2.603-.061-1.64.124-2.183.861-2.972 3.613h7.931z" fill="#00B9F1"/>
        <path d="M20.448 12.947c-.279.647-.602 1.544-.766 2.393-.26 1.339 1.183 1.936 3.355 1.976l1.998-6.528c-2.356-.482-3.91.59-4.587 2.159" fill="#FAAE17"/>
    </g>
</svg>
