<?xml version="1.0" encoding="UTF-8"?>
<svg width="32px" height="32px" viewBox="0 0 32 32" version="1.1" xmlns="http://www.w3.org/2000/svg" xmlns:xlink="http://www.w3.org/1999/xlink">
    <title>62BD4C6E-EF01-4A79-BB97-668D78A7A008</title>
    <g id="Design" stroke="none" stroke-width="1" fill="none" fill-rule="evenodd">
        <g id="C-6)-세계시민캠퍼스-w" transform="translate(-1454.000000, -485.000000)">
            <g id="캠퍼스소개" transform="translate(666.000000, 411.000000)">
                <g id="title" transform="translate(540.000000, 60.000000)">
                    <g id="logo" transform="translate(234.000000, 0.000000)">
                        <g id="icon" transform="translate(14.000000, 14.000000)">
                            <rect id="Rectangle" x="0" y="0" width="32" height="32"></rect>
                            <path d="M23.7760581,18.0973422 C21.1231259,23.0174999 14.9756002,24.8594606 10.0441565,22.2131913 C5.11271277,19.5672069 3.26545627,13.4338909 5.91810289,8.51487289 C8.57132071,3.59528505 14.7182752,1.75161488 19.6497189,4.39788417 C24.5817338,7.04472328 26.4292759,13.1780393 23.7760581,18.0973422" id="Fill-3" fill="#92CCE5"></path>
                            <path d="M22.020936,0 C25.5843589,1.9114794 28.1878824,5.09309968 29.3522709,8.95822556 C30.5163738,12.8233514 30.1019691,16.9092847 28.1850264,20.4635708 C26.2683693,24.0181418 23.0793671,26.6151212 19.2049265,27.7761405 C18.09747,28.1080604 16.9717987,28.3112687 15.8456685,28.3875754 L15.845,30.86 L20.6260974,30.8603491 L20.6260974,32 L9.92354789,32 L9.92354789,30.8603491 L14.703,30.86 L14.703,28.42 L14.3651735,28.4148972 C12.0522697,28.3435153 9.76997398,27.7372855 7.67242537,26.6117023 C6.76736107,26.126211 5.91199107,25.5501175 5.13002009,24.8990919 L5.86229678,24.024125 C6.5848631,24.6261455 7.37597326,25.1589323 8.21335051,25.6079548 C11.5077388,27.3758382 15.2945004,27.7579061 18.8764873,26.6846399 C22.4584741,25.6110888 25.4067161,23.2098444 27.17886,19.9236612 C28.9512894,16.637478 29.3345637,12.8595354 28.2581398,9.2861601 C27.1817159,5.71249992 24.7743992,2.77106106 21.4797252,1.00346258 L22.020936,0 Z M20.9295752,2.02396294 C23.9509306,3.64511628 26.1583278,6.34295478 27.1453592,9.62002082 C28.0958337,12.775714 27.8050239,16.1049859 26.3310757,19.0379497 L26.1557575,19.3742925 C24.5306972,22.3880992 21.8269283,24.5901896 18.5419648,25.574563 C17.3201708,25.9406758 16.0718161,26.1221652 14.830887,26.1221652 C12.7360159,26.1221652 10.6608511,25.6053336 8.76390035,24.5870555 C5.74311618,22.966472 3.53600452,20.2692033 2.54925881,16.9921373 C1.56222751,13.7153562 1.91351469,10.2511025 3.53828931,7.23786561 C6.8932247,1.01736632 14.6952273,-1.32176706 20.9295752,2.02396294 Z M15.8115356,22.2225088 L15.5519141,22.3674947 C14.1568859,23.1322299 12.5644266,23.759966 10.7781523,24.2483405 C12.8839395,25.0342662 15.1570948,25.1933301 17.3678162,24.7032328 C16.9340952,23.8680022 16.420097,23.0255534 15.8115356,22.2225088 Z M20.967862,17.2380359 C19.983808,18.9455922 18.6057358,20.3958972 16.8433781,21.5825919 L16.7741868,21.6286022 C17.4004308,22.4571989 17.9112211,23.2931631 18.3221766,24.0679209 L18.491,24.394 L18.5619609,24.3727395 C21.2164562,23.488235 23.4284196,21.717622 24.8669365,19.3302244 L20.967862,17.2380359 Z M12.4019181,19.0430898 L10.1402246,23.2387222 C12.0091887,22.753385 13.6557029,22.1149474 15.0753091,21.3263263 C14.3138772,20.4711095 13.4291919,19.6884967 12.4019181,19.0430898 Z M3.9943773,17.3858662 L3.89116062,17.4000221 C4.69477386,19.5491277 6.09416411,21.3862817 7.93788208,22.7260986 C7.31003791,20.8123918 6.94748959,19.0000582 6.849908,17.2935463 C5.96031506,17.2354853 5.00970856,17.2618403 3.9943773,17.3858662 Z M8.0041634,17.4180027 L8.03270739,17.7775301 C8.17315879,19.3236896 8.5400237,20.9654228 9.13327099,22.6981784 L11.405648,18.4847543 C10.3972452,17.9847179 9.26799873,17.6130188 8.0041634,17.4180027 Z M15.078,14.077 L12.9328915,18.0597385 C14.1647406,18.8264595 15.1946712,19.7585239 16.0497769,20.7369784 C17.732118,19.6347973 19.0387281,18.2862874 19.9611075,16.6981346 L15.078,14.077 Z M26.2033715,10.5004586 L25.9404514,10.5329306 C25.2734479,10.6092465 24.5441204,10.6586701 23.7744302,10.6586701 C23.4394222,10.6586701 23.096681,10.6493219 22.7479584,10.6287762 C22.6931762,12.4366774 22.3487731,14.3651918 21.4918105,16.2245251 L25.4082409,18.3262599 C26.582673,15.8756987 26.8609596,13.1362687 26.2033715,10.5004586 Z M9.19036082,10.9180327 C8.43452291,12.4329829 8.02904925,14.1074279 7.97387998,15.932609 L7.96829026,16.2689468 C9.45995223,16.4804177 10.7769431,16.9167647 11.9369161,17.5004827 L14.073,13.537 L9.19036082,10.9180327 Z M4.2856218,8.28613393 C3.08422064,10.7937447 2.8211008,13.6040869 3.53863609,16.2960907 L3.84124572,16.2565051 C4.90035889,16.1269969 5.8936388,16.09819 6.82470131,16.154209 C6.85226792,14.053203 7.30537897,12.1242013 8.18366489,10.3783539 L4.2856218,8.28613393 Z M17.6013963,9.39814893 L15.619,13.074 L20.4833948,15.6831073 C21.2516465,13.9830939 21.5526919,12.1993443 21.590746,10.5184244 C20.2858186,10.3485688 18.9286611,10.0041718 17.6013963,9.39814893 Z M13.3525155,6.23224795 L13.2170994,6.32720952 C11.9207345,7.25991721 10.6906164,8.44037724 9.75085447,9.92464659 L14.614,12.534 L16.5861795,8.87800741 C15.4513492,8.22980817 14.3552376,7.36712861 13.3525155,6.23224795 Z M21.7645265,3.89149158 L21.8127947,4.05248365 C22.2143937,5.36757817 22.6710776,7.30882405 22.7446342,9.50228835 C23.8175755,9.56529451 24.8713445,9.51476885 25.8684905,9.39500075 C25.078988,7.16969437 23.6560685,5.2687963 21.7645265,3.89149158 Z M20.5597494,3.9101789 L18.1324651,8.41396717 C19.2569266,8.92178571 20.4203693,9.2289889 21.5771736,9.3890239 C21.4779922,7.09990614 20.9482626,5.10018167 20.5597494,3.9101789 Z M10.8552706,2.34356272 L10.8066443,2.35942128 C8.38400872,3.24797369 6.24501521,4.93273014 4.82703665,7.28257997 L8.74244895,9.38358728 C9.79853397,7.68802992 11.1785156,6.36217619 12.6216135,5.33135874 C11.9781085,4.47229451 11.3839278,3.48204018 10.8552706,2.34356272 Z M19.5552642,3.37157483 C18.3476953,3.70362806 16.3878174,4.36323466 14.4223594,5.53717567 L14.3122599,5.6053552 C15.181925,6.57051512 16.1281241,7.31989375 17.1173581,7.89273812 L19.5552642,3.37157483 Z M14.8674437,1.63705147 C13.88277,1.63705147 12.9052453,1.76121602 11.9586031,2.00243055 C12.4430449,3.0282483 12.984206,3.92233157 13.5690793,4.70135277 C15.5567118,3.4651295 17.5561072,2.7481452 18.9071501,2.36002472 C17.5876688,1.87165234 16.2207409,1.63705147 14.8674437,1.63705147 Z" id="Combined-Shape" fill="#424242"></path>
                        </g>
                    </g>
                </g>
            </g>
        </g>
    </g>
</svg>