<svg width="24" height="24" viewBox="0 0 24 24" xmlns="http://www.w3.org/2000/svg">
    <g fill="none" fill-rule="evenodd">
        <path d="M0 0h24v24H0z"/>
        <g fill-rule="nonzero">
            <path d="M11.5 0c7.2 0 8.743 2.468 8.76 4.553l.249 1.95h1.95c.3 0 .541.238.541.537v2.523a.539.539 0 0 1-.54.538h-1.493l.298 2.332a.528.528 0 0 1 .005.068v5.875c0 1.636-.558 2.525-1.73 2.76v1.036A1.835 1.835 0 0 1 17.7 24h-1.154a1.836 1.836 0 0 1-1.839-1.828v-.967H8.292v.967A1.836 1.836 0 0 1 6.453 24H5.299a1.835 1.835 0 0 1-1.839-1.828v-1.036c-1.172-.236-1.73-1.124-1.73-2.76v-5.875c0-.022.002-.045.005-.067l.298-2.333H.54c-.3 0-.541-.24-.541-.537V7.04c0-.299.242-.538.54-.538h1.951l.25-1.95C2.757 2.469 4.3 0 11.5 0zM7.21 21.205H4.541v.967c0 .416.34.753.757.753h1.154a.756.756 0 0 0 .757-.753v-.967zm11.248 0H15.79v.967c0 .416.34.753.757.753h1.154a.755.755 0 0 0 .757-.753v-.967zm1.73-8.166H2.812v5.338c0 1.625.578 1.754 1.334 1.754h14.708c.756 0 1.334-.129 1.334-1.755V13.04zm-.945-7.914H3.757l-.872 6.838h17.23l-.872-6.838zM2.355 7.578H1.082v1.449h1.087l.186-1.45zm19.563 0h-1.274l.187 1.449h1.087v-1.45zM11.5 1.075c-3.275 0-7.136.533-7.625 2.976h15.25c-.49-2.443-4.35-2.976-7.625-2.976zm1.261 1.074a.538.538 0 1 1 0 1.075h-2.522a.538.538 0 1 1 0-1.075z" fill="#424242"/>
            <path fill="#424242" d="M9.391 17.355h4.218v1.075H9.391zM9.391 15.313h4.218v1.075H9.391z"/>
            <path d="M5.732 14.937a1.942 1.942 0 0 0-1.947 1.934c0 1.067.873 1.935 1.947 1.935a1.943 1.943 0 0 0 1.947-1.935 1.943 1.943 0 0 0-1.947-1.934zm0 2.794a.864.864 0 0 1-.865-.86c0-.473.388-.86.865-.86s.865.387.865.86c0 .474-.388.86-.865.86zM17.268 14.937a1.943 1.943 0 0 0-1.947 1.934c0 1.067.874 1.935 1.947 1.935a1.943 1.943 0 0 0 1.947-1.935 1.942 1.942 0 0 0-1.947-1.934zm0 2.794a.864.864 0 0 1-.865-.86c0-.473.388-.86.865-.86s.865.387.865.86c0 .474-.388.86-.865.86z" fill="#FF8E22"/>
        </g>
    </g>
</svg>
