<svg width="24" height="24" viewBox="0 0 24 24" xmlns="http://www.w3.org/2000/svg">
    <g fill="none" fill-rule="evenodd">
        <path d="M0 0h24v24H0z"/>
        <g fill-rule="nonzero">
            <path d="m21.4 9.822-1.55-5.644C19.5 2.891 18.3 2 16.95 2h-9.9c-1.35 0-2.55.891-2.9 2.178L2.6 9.822c-1.45.198-2.6 1.435-2.6 2.92v2.97c0 1.635 1.35 2.971 3 2.971h.4v1.832c0 .841.65 1.485 1.5 1.485h1.65c.85 0 1.5-.644 1.5-1.485v-1.832h7.9v1.832c0 .841.65 1.485 1.5 1.485h1.65c.85 0 1.5-.644 1.5-1.485v-1.832h.4c1.65 0 3-1.336 3-2.97v-2.97c0-1.486-1.15-2.723-2.6-2.921zM5.1 4.475A2.038 2.038 0 0 1 7.05 3.04h9.9c.9 0 1.7.594 1.95 1.435l1.45 5.347H18A3.237 3.237 0 0 0 14.8 6.9c-1.7 0-3.05 1.287-3.2 2.92H3.65L5.1 4.476zm11.85 5.297h-4.4c.15-1.089 1.05-1.93 2.2-1.93 1.15.05 2.05.841 2.2 1.93zm-9.9 10.743c0 .297-.2.495-.5.495H4.9c-.3 0-.5-.198-.5-.495v-1.832h2.65v1.832zm12.55 0c0 .297-.2.495-.5.495h-1.65c-.3 0-.5-.198-.5-.495v-1.832h2.65v1.832zm3.4-4.802c0 1.089-.9 1.98-2 1.98H3c-1.1 0-2-.891-2-1.98v-2.97c0-1.09.9-1.98 2-1.98h18c1.1 0 2 .89 2 1.98v2.97z" fill="#424242"/>
            <path fill="#424242" d="M9.606 14.418h4.218v1.075H9.606zM9.606 12.376h4.218v1.075H9.606z"/>
            <path d="M5.947 12A1.942 1.942 0 0 0 4 13.934c0 1.067.873 1.935 1.947 1.935a1.943 1.943 0 0 0 1.946-1.935A1.943 1.943 0 0 0 5.947 12zm0 2.794a.864.864 0 0 1-.865-.86c0-.473.387-.86.865-.86.476 0 .865.387.865.86 0 .474-.389.86-.865.86zM17.483 12a1.943 1.943 0 0 0-1.947 1.934c0 1.067.874 1.935 1.947 1.935a1.943 1.943 0 0 0 1.946-1.935A1.942 1.942 0 0 0 17.483 12zm0 2.794a.864.864 0 0 1-.865-.86c0-.473.388-.86.865-.86s.865.387.865.86c0 .474-.388.86-.865.86z" fill="#FF8E22"/>
        </g>
    </g>
</svg>
