<svg width="31.886" height="32" viewBox="0 0 31.886 32" xmlns="http://www.w3.org/2000/svg">
    <g fill="none" fill-rule="evenodd">
        <path d="M0 0h31.886v32H0z"/>
        <path d="M15.944 0c8.804 0 15.942 7.164 15.942 16s-7.138 16-15.942 16C7.138 32 0 24.837 0 16 0 7.27 6.97.171 15.63.004L15.943 0zm.901 1.84v3.954c0 .5-.404.906-.902.906a.904.904 0 0 1-.902-.906V1.84C7.95 2.29 2.28 7.98 1.833 15.094h3.941c.498 0 .902.406.902.906s-.404.906-.902.906h-3.94C2.28 24.02 7.95 29.712 15.04 30.16v-3.954c0-.5.404-.906.902-.906s.902.405.902.906v3.954c7.09-.448 12.76-6.14 13.208-13.254h-3.94A.904.904 0 0 1 25.21 16c0-.5.404-.906.902-.906h3.94C29.607 7.98 23.935 2.288 16.846 1.84zm5.089 6.067c.4.298.483.866.186 1.267l-5.453 7.366a.901.901 0 0 1-.724.366h-4.77a.904.904 0 0 1-.902-.906c0-.5.404-.906.902-.906h4.316l5.182-7a.9.9 0 0 1 1.263-.187z" fill="#FFF" fill-rule="nonzero"/>
    </g>
</svg>
