<svg width="27" height="64" viewBox="0 0 27 64" xmlns="http://www.w3.org/2000/svg" xmlns:xlink="http://www.w3.org/1999/xlink">
    <defs>
        <path id="ee3mwe45pa" d="M0 0h2.724v7.289H0z"/>
    </defs>
    <g fill="none" fill-rule="evenodd">
        <path d="M6.168 7.288s13.74 9.62 13.74 28.397C19.907 54.46 3.981 64 3.981 64" stroke="#FFDE54" stroke-width="2.66" stroke-linecap="round"/>
        <g transform="matrix(-1 0 0 1 7.543 0)">
            <mask id="qse3ae1v8b" fill="#fff">
                <use xlink:href="#ee3mwe45pa"/>
            </mask>
            <path d="M.115 3.17c-.373 2.004.192 3.848 1.26 4.119L2.725.033C1.654-.238.487 1.166.114 3.17" fill="#F5E089" mask="url(#qse3ae1v8b)"/>
        </g>
        <path d="M3.559 4.151C3.186 2.147 3.751.304 4.819.034l1.35 7.254c-1.07.272-2.237-1.133-2.61-3.137" fill="#FFCD55"/>
        <path d="M3.642 10.517c1.69-.554 2.82-2 2.525-3.229L.046 9.295c.297 1.23 1.907 1.777 3.596 1.222" fill="#FFDE54"/>
        <path d="M2.572 6.067c-1.69.555-2.82 2-2.525 3.229l6.121-2.007c-.295-1.23-1.906-1.777-3.596-1.222" fill="#FFCD55"/>
        <path d="M15.864 9.605c.019 2.778-1.166 5.043-2.648 5.058l-.07-10.064c1.48-.014 2.698 2.228 2.718 5.006" fill="#FFDE54"/>
        <path d="M10.498 9.657c-.02-2.778 1.165-5.043 2.648-5.058l.07 10.064c-1.481.014-2.699-2.228-2.718-5.006" fill="#FFCD55"/>
        <path d="M9.1 18.131c2.375-.188 4.218-1.742 4.116-3.468l-8.597.686c.1 1.726 2.106 2.971 4.481 2.782" fill="#FFDE54"/>
        <path d="M8.734 11.88c-2.375.189-4.218 1.742-4.115 3.469l8.596-.687c-.1-1.726-2.106-2.972-4.48-2.782" fill="#FFCD55"/>
        <path d="M23.497 19.933c-.675 2.825-2.443 4.716-3.95 4.225l2.446-10.227c1.506.49 2.18 3.177 1.504 6.002" fill="#FFDE54"/>
        <path d="M18.044 18.155c.675-2.824 2.444-4.716 3.95-4.225l-2.446 10.227c-1.505-.49-2.179-3.177-1.504-6.002" fill="#FFCD55"/>
        <path d="M14.507 26.27c2.455.618 4.712-.328 5.04-2.112L10.66 21.92c-.33 1.784 1.393 3.733 3.847 4.35" fill="#FFDE54"/>
        <path d="M15.7 19.808c-2.455-.617-4.712.328-5.04 2.113l8.888 2.237c.33-1.785-1.393-3.733-3.848-4.35" fill="#FFCD55"/>
        <path d="M25.146 36.2c-1.808 2.034-4.153 2.618-5.238 1.303l6.547-7.368c1.085 1.314.5 4.03-1.309 6.065" fill="#FFDE54"/>
        <path d="M21.217 31.439c1.809-2.035 4.153-2.619 5.238-1.303l-6.547 7.367c-1.085-1.314-.5-4.03 1.31-6.064" fill="#FFCD55"/>
        <path d="M14.645 36.341c1.847 1.986 4.204 2.506 5.263 1.162l-6.692-7.19c-1.059 1.344-.418 4.042 1.43 6.028" fill="#FFDE54"/>
        <path d="M18.48 31.476c-1.848-1.986-4.205-2.506-5.264-1.162l6.692 7.19c1.059-1.344.418-4.043-1.429-6.028" fill="#FFCD55"/>
        <path d="M20.804 49.851c-2.264 1.267-4.648.96-5.323-.688l8.202-4.586c.675 1.646-.615 4.008-2.879 5.274" fill="#FFDE54"/>
        <path d="M18.359 43.889c2.264-1.266 4.648-.96 5.323.689l-8.202 4.585c-.675-1.646.614-4.008 2.879-5.274" fill="#FFCD55"/>
        <path d="M10.799 46.125c1.22 2.564 3.315 3.925 4.682 3.039l-4.413-9.286c-1.367.886-1.488 3.683-.269 6.247" fill="#FFDE54"/>
        <path d="M15.75 42.917c-1.22-2.564-3.315-3.925-4.682-3.039l4.412 9.286c1.367-.886 1.489-3.683.27-6.247" fill="#FFCD55"/>
        <path d="M14.82 61.403c-2.628.749-5.082-.193-5.482-2.104l9.518-2.712c.399 1.91-1.407 4.067-4.036 4.816" fill="#FFDE54"/>
        <path d="M13.374 54.484c2.628-.75 5.082.193 5.482 2.104l-9.518 2.711c-.399-1.91 1.407-4.067 4.036-4.815" fill="#FFCD55"/>
        <path d="M4.98 54.885c.797 3.019 2.75 4.995 4.358 4.415l-2.89-10.93c-1.608.58-2.267 3.496-1.469 6.515" fill="#FFDE54"/>
        <path d="M10.808 52.784c-.798-3.019-2.75-4.995-4.359-4.415l2.89 10.93c1.608-.58 2.267-3.496 1.469-6.515" fill="#FFCD55"/>
    </g>
</svg>
