<svg width="41" height="60" viewBox="0 0 41 60" xmlns="http://www.w3.org/2000/svg">
    <g fill="none" fill-rule="evenodd">
        <path d="M12.55 14.919v25.173c.009 4.364 3.561 7.9 7.949 7.905 4.39-.005 7.937-3.541 7.946-7.905V14.919C28.436 10.55 24.89 7.02 20.5 7.013c-4.388.008-7.94 3.538-7.95 7.906M5.498 40.092V14.919C5.5 6.674 12.213.003 20.499 0c8.281.003 14.996 6.674 14.999 14.919v25.173c-.003 8.238-6.718 14.915-14.999 14.918-8.286-.003-14.999-6.68-15.001-14.918" fill="#EBEBEB"/>
        <path d="M41 59.11c0 .491-.457.89-1.015.89H1.01C.449 60 0 59.601 0 59.11V25.214c0-.493.45-.89 1.009-.89h38.976c.558 0 1.015.397 1.015.89v33.894z" fill="#F6F6F6"/>
        <path d="M25.172 38.418c0-2.41-1.965-4.364-4.387-4.364-2.423 0-4.385 1.953-4.385 4.364a4.34 4.34 0 0 0 1.865 3.565v6.56a2.512 2.512 0 0 0 2.52 2.504 2.514 2.514 0 0 0 2.52-2.503v-6.561a4.343 4.343 0 0 0 1.867-3.565" fill="#EBEBEB"/>
    </g>
</svg>
