<svg width="24" height="24" viewBox="0 0 24 24" xmlns="http://www.w3.org/2000/svg">
    <g fill="none" fill-rule="evenodd">
        <path d="M0 0h24v24H0z"/>
        <path d="M13.5 4c.85 0 1.5.65 1.5 1.5V7h5.1c.45 0 .85.3.95.75l1.35 5.35.9.3c.4.15.7.5.7.95V17c0 .55-.45 1-1 1h-1.548A2.472 2.472 0 0 1 19 20a2.472 2.472 0 0 1-2.452-2H7.952A2.472 2.472 0 0 1 5.5 20a2.472 2.472 0 0 1-2.452-2H1.5C.65 18 0 17.35 0 16.5v-11C0 4.65.65 4 1.5 4h12zm-8 12A1.47 1.47 0 0 0 4 17.5v.02l.007.128A1.47 1.47 0 0 0 5.5 19c.85 0 1.5-.65 1.5-1.5 0-.8-.576-1.423-1.352-1.493L5.5 16zM19 16c-.85 0-1.5.65-1.5 1.5S18.15 19 19 19s1.5-.65 1.5-1.5a1.471 1.471 0 0 0-.583-1.201l-.111-.076a1.476 1.476 0 0 0-.658-.217L19 16zM14 13.5H1v3c0 .3.2.5.5.5h1.548A2.467 2.467 0 0 1 5.5 15l.17.006.039.002c1.13.09 2.03.904 2.243 1.991h6.047V13.5zM20.1 8H15v9h1.548A2.467 2.467 0 0 1 19 15l.17.006.036.002a2.467 2.467 0 0 1 2.246 1.991H23v-2.65l-.9-.3c-.35-.1-.55-.35-.65-.7L20.1 8zm-6.6-3h-12c-.3 0-.5.2-.5.5v6.999h12.999L14 7V5.5c0-.3-.2-.5-.5-.5z" fill="#9E9E9E" fill-rule="nonzero"/>
    </g>
</svg>
