<svg width="24" height="19" viewBox="0 0 24 19" xmlns="http://www.w3.org/2000/svg">
    <g fill="none" fill-rule="evenodd">
        <path d="M2.286 10.94c-.965 0-1.862-.62-2.174-1.595a2.306 2.306 0 0 1 1.47-2.9L21.01.114a2.282 2.282 0 0 1 2.878 1.481 2.307 2.307 0 0 1-1.47 2.9L2.99 10.829c-.234.076-.471.112-.704.112" fill="#FFBE00"/>
        <path d="M4.571 19c-.964 0-1.861-.62-2.174-1.595a2.306 2.306 0 0 1 1.471-2.9l12.285-4.004a2.281 2.281 0 0 1 2.878 1.482 2.306 2.306 0 0 1-1.47 2.9L5.275 18.888c-.234.076-.47.112-.704.112" fill="#C3E20E"/>
    </g>
</svg>
