<svg width="180" height="180" viewBox="0 0 180 180" xmlns="http://www.w3.org/2000/svg">
    <g fill="none" fill-rule="evenodd">
        <circle fill="#FFE993" cx="90" cy="90" r="90"/>
        <path d="M92.966 107.495c9.855-6.688 20.693-11.764 32.055-15.262 5.194-1.633 10.538-2.715 15.947-3.5a2.64 2.64 0 0 1 3.001 2.223c.238 1.535-.925 2.955-2.469 3.037-8.237.667-16.503 2.415-24.347 5.083-7.903 2.65-15.705 6.116-22.831 10.42-1.316.842-2.646-1.058-1.356-2.001" fill="#FFD15F"/>
        <path d="M92.966 107.495c9.855-6.688 20.693-11.764 32.055-15.262 5.194-1.633 10.538-2.715 15.947-3.5a2.64 2.64 0 0 1 3.001 2.223c.238 1.535-.925 2.955-2.469 3.037-8.237.667-16.503 2.415-24.347 5.083-7.903 2.65-15.705 6.116-22.831 10.42-1.316.842-2.646-1.058-1.356-2.001z" stroke="#000" stroke-width="1.5" stroke-linecap="round" stroke-linejoin="round"/>
        <path fill="#FFC957" d="m93.367 135.977-13.058 6.752-15.943 8.255-18.733 9.685-15.948 8.25L16 176l3.859-7.492 4.49-8.728 5.278-10.253 4.496-8.724 5.277-10.253 4.492-8.729 5.281-10.248 4.492-8.728 2.263-4.396z"/>
        <path fill="#FF8E22" d="m60.604 103.136-6.94-.293 2.264-4.395zM80.782 123.362l-36.89-1.542 5.282-10.248 20.708.864zM93.367 135.977l-13.058 6.752-46.186-1.927 5.277-10.253 50.665 2.118zM64.366 150.984l-18.733 9.685-21.283-.89 5.277-10.253zM29.685 168.92 16 176l3.859-7.493z"/>
        <path stroke="#000" stroke-width="1.5" stroke-linecap="round" stroke-linejoin="round" d="m93.367 135.977-13.058 6.752-15.943 8.255-18.733 9.685-15.948 8.25L16 176l3.859-7.492 4.49-8.728 5.278-10.253 4.496-8.724 5.277-10.253 4.492-8.729 5.281-10.248 4.492-8.728 2.263-4.396z"/>
        <path d="M69.817 72.188c-.156.04-.315.07-.475.098-.046-.01-.492.02-.569.018-.068-.002-.358-.051-.394-.052-.131-.029-.263-.055-.393-.094.003 0-.174-.065-.288-.105-.106-.055-.265-.133-.263-.133-.055-.031-.253-.188-.306-.221a6.162 6.162 0 0 1-.11-.11c-.02-.037-.103-.15-.16-.23-.003-.012-.004-.017-.009-.03l-.014-.065-.001-.065c.022-.067.051-.15.065-.196.066-.102.145-.224.134-.224.07-.078.144-.15.222-.22.016.002.134-.067.235-.128.03-.003.185-.062.293-.103a1.66 1.66 0 0 1 .25-.036c.084-.002.169.004.253.01l.156.03c.009.003.389.133.435.136.17.086.333.186.5.28.076.042.123.065.155.08.024.027.06.065.124.126.171.165.34.328.499.506.321.361.133.178.08.102.09.13.166.268.246.404-.105.043-.227.093-.247.1a6.957 6.957 0 0 1-.418.122zm2.703-17.24c-1.058-.7-2.593-.21-3.208.843-.67 1.148-.218 2.514.841 3.215.164.108.326.22.486.335.043.04.358.288.357.288a12.029 12.029 0 0 1 1.435 1.48l.105.137c.313.453.607.914.862 1.404.09.172.173.348.252.525.022.07.155.412.157.419.126.368.232.742.315 1.122.004.019.063.345.083.432a8.023 8.023 0 0 1 .053 1.262c-.003.08-.076.702-.052.625-.06.32-.132.636-.227.948-.05.165-.109.327-.169.489a1.33 1.33 0 0 0-.035.075c-1.134-1.441-2.664-2.54-4.54-2.834-2.95-.462-6.151 1.138-6.922 4.203-.709 2.818 1.036 5.372 3.573 6.449 1.96.832 3.944.79 5.754.165a20.15 20.15 0 0 1-.05 2.677c-.08 1-.184 1.632-.477 2.806a21.17 21.17 0 0 1-.654 2.139c-.026.072-.249.64-.246.644a19.661 19.661 0 0 1-1.48 2.803c-.676 1.072-1.069 1.57-1.898 2.475-.857.933-.922 2.399 0 3.322.868.87 2.455.938 3.315 0 3.613-3.938 5.748-8.981 6.137-14.312.13-1.79.068-3.703-.299-5.515a11.904 11.904 0 0 0 2.212-3.5c2.287-5.673-.873-11.94-5.68-15.121z" fill="#FFD15F"/>
        <path d="M69.817 72.188c-.156.04-.315.07-.475.098-.046-.01-.492.02-.569.018-.068-.002-.358-.051-.394-.052-.131-.029-.263-.055-.393-.094.003 0-.174-.065-.288-.105-.106-.055-.265-.133-.263-.133-.055-.031-.253-.188-.306-.221a6.162 6.162 0 0 1-.11-.11c-.02-.037-.103-.15-.16-.23-.003-.012-.004-.017-.009-.03l-.014-.065-.001-.065c.022-.067.051-.15.065-.196.066-.102.145-.224.134-.224.07-.078.144-.15.222-.22.016.002.134-.067.235-.128.03-.003.185-.062.293-.103a1.66 1.66 0 0 1 .25-.036c.084-.002.169.004.253.01l.156.03c.009.003.389.133.435.136.17.086.333.186.5.28.076.042.123.065.155.08.024.027.06.065.124.126.171.165.34.328.499.506.321.361.133.178.08.102.09.13.166.268.246.404-.105.043-.227.093-.247.1a6.957 6.957 0 0 1-.418.122zm2.703-17.24c-1.058-.7-2.593-.21-3.208.843-.67 1.148-.218 2.514.841 3.215.164.108.326.22.486.335.043.04.358.288.357.288a12.029 12.029 0 0 1 1.435 1.48l.105.137c.313.453.607.914.862 1.404.09.172.173.348.252.525.022.07.155.412.157.419.126.368.232.742.315 1.122.004.019.063.345.083.432a8.023 8.023 0 0 1 .053 1.262c-.003.08-.076.702-.052.625-.06.32-.132.636-.227.948-.05.165-.109.327-.169.489a1.33 1.33 0 0 0-.035.075c-1.134-1.441-2.664-2.54-4.54-2.834-2.95-.462-6.151 1.138-6.922 4.203-.709 2.818 1.036 5.372 3.573 6.449 1.96.832 3.944.79 5.754.165a20.15 20.15 0 0 1-.05 2.677c-.08 1-.184 1.632-.477 2.806a21.17 21.17 0 0 1-.654 2.139c-.026.072-.249.64-.246.644a19.661 19.661 0 0 1-1.48 2.803c-.676 1.072-1.069 1.57-1.898 2.475-.857.933-.922 2.399 0 3.322.868.87 2.455.938 3.315 0 3.613-3.938 5.748-8.981 6.137-14.312.13-1.79.068-3.703-.299-5.515a11.904 11.904 0 0 0 2.212-3.5c2.287-5.673-.873-11.94-5.68-15.121z" stroke="#000" stroke-width="1.5" stroke-linecap="round" stroke-linejoin="round"/>
        <path d="M70.482 71.966s2.573-1.013 3.293-3.42M71.64 76.53s2.694-.636 4.349-2.961" stroke="#000" stroke-width="1.5" stroke-linecap="round" stroke-linejoin="round"/>
        <path d="M44.45 67.357c.355.229.7.47 1.036.727l-.475-.367c.972.756 1.84 1.629 2.595 2.602l-.366-.475c.747.98 1.368 2.043 1.85 3.179a508.84 508.84 0 0 0-.237-.562c.118.284.227.571.329.862.202.582.533 1.085 1.077 1.404.502.294 1.242.42 1.806.237 1.142-.37 2.07-1.648 1.637-2.89-1.26-3.625-3.655-6.704-6.887-8.774-1.034-.664-2.631-.25-3.206.842-.614 1.164-.264 2.507.84 3.215" fill="#00BD99"/>
        <path d="M44.45 67.357c.355.229.7.47 1.036.727l-.475-.367c.972.756 1.84 1.629 2.595 2.602l-.366-.475c.747.98 1.368 2.043 1.85 3.179a508.84 508.84 0 0 0-.237-.562c.118.284.227.571.329.862.202.582.533 1.085 1.077 1.404.502.294 1.242.42 1.806.237 1.142-.37 2.07-1.648 1.637-2.89-1.26-3.625-3.655-6.704-6.887-8.774-1.034-.664-2.631-.25-3.206.842-.614 1.164-.264 2.507.84 3.215z" stroke="#000" stroke-width="1.5" stroke-linecap="round" stroke-linejoin="round"/>
        <path d="M54.54 86.36a2.055 2.055 0 0 1-2.053 2.057 2.055 2.055 0 0 1-2.053-2.058c0-1.136.919-2.058 2.053-2.058 1.133 0 2.052.922 2.052 2.058" fill="#FFF"/>
        <path d="M54.54 86.36a2.055 2.055 0 0 1-2.053 2.057 2.055 2.055 0 0 1-2.053-2.058c0-1.136.919-2.058 2.053-2.058 1.133 0 2.052.922 2.052 2.058z" stroke="#000" stroke-width="1.5" stroke-linecap="round" stroke-linejoin="round"/>
        <path d="M111.734 133.521a2.968 2.968 0 0 1-2.965 2.972 2.968 2.968 0 0 1-2.965-2.972 2.968 2.968 0 0 1 2.965-2.972 2.968 2.968 0 0 1 2.965 2.972" fill="#FF435F"/>
        <path d="M111.734 133.521a2.968 2.968 0 0 1-2.965 2.972 2.968 2.968 0 0 1-2.965-2.972 2.968 2.968 0 0 1 2.965-2.972 2.968 2.968 0 0 1 2.965 2.972z" stroke="#000" stroke-width="1.5" stroke-linecap="round" stroke-linejoin="round"/>
        <path d="M102.25 120.594c5.808-2.23 12.462-2.326 18.284-.327 1.157.397 2.617-.069 3.048-1.308.402-1.153-.064-2.63-1.305-3.056a32.11 32.11 0 0 0-21.927.394c-1.183.454-1.689 1.984-1.194 3.1.535 1.212 1.907 1.653 3.093 1.197" fill="#FFF"/>
        <path d="M102.25 120.594c5.808-2.23 12.462-2.326 18.284-.327 1.157.397 2.617-.069 3.048-1.308.402-1.153-.064-2.63-1.305-3.056a32.11 32.11 0 0 0-21.927.394c-1.183.454-1.689 1.984-1.194 3.1.535 1.212 1.907 1.653 3.093 1.197z" stroke="#000" stroke-width="1.5" stroke-linecap="round" stroke-linejoin="round"/>
        <path d="M131.411 97.967c.091-.063.188-.117.285-.17-.031.047.43-.07.37-.09a3.12 3.12 0 0 1 .203-.003c-.01.005.03.017.124.036-.086.006.1.2.042.026.137.415.26.67.051 1.213-.212.549-.675 1.015-1.091 1.41-.07.067-.148.123-.22.187-.01-.025-.027-.05-.035-.074-.176-.501-.28-.991-.23-1.458.053-.514.211-.867.49-1.076.098-.099.102-.099.011-.001m-4.52 1.68a8.108 8.108 0 0 0 .79 2.981c-1.359.48-2.813.707-4.249.689-2.603-.034-2.467 4.006.116 4.038 2.273.03 4.636-.481 6.768-1.459a9.453 9.453 0 0 0 2.426 1.404c3.605 1.407 7.612.448 10.332-2.272 1.839-1.84-1.131-4.572-2.966-2.737a5.529 5.529 0 0 1-6.107 1.172c.294-.274.587-.549.853-.85 1.298-1.478 2.047-3.35 1.658-5.325-.34-1.721-1.61-3.117-3.328-3.519-3.564-.832-6.51 2.47-6.293 5.877" fill="#00C3ED"/>
        <path d="M131.411 97.967c.091-.063.188-.117.285-.17-.031.047.43-.07.37-.09a3.12 3.12 0 0 1 .203-.003c-.01.005.03.017.124.036-.086.006.1.2.042.026.137.415.26.67.051 1.213-.212.549-.675 1.015-1.091 1.41-.07.067-.148.123-.22.187-.01-.025-.027-.05-.035-.074-.176-.501-.28-.991-.23-1.458.053-.514.211-.867.49-1.076.098-.099.102-.099.011-.001zm-4.52 1.68a8.108 8.108 0 0 0 .79 2.981c-1.359.48-2.813.707-4.249.689-2.603-.034-2.467 4.006.116 4.038 2.273.03 4.636-.481 6.768-1.459a9.453 9.453 0 0 0 2.426 1.404c3.605 1.407 7.612.448 10.332-2.272 1.839-1.84-1.131-4.572-2.966-2.737a5.529 5.529 0 0 1-6.107 1.172c.294-.274.587-.549.853-.85 1.298-1.478 2.047-3.35 1.658-5.325-.34-1.721-1.61-3.117-3.328-3.519-3.564-.832-6.51 2.47-6.293 5.877z" stroke="#000" stroke-width="1.5" stroke-linecap="round" stroke-linejoin="round"/>
        <path d="M134.001 103.463s-1.492 1.616-3.685 2.433M131.174 100.576s-1.303 1.217-3.492 2.052" stroke="#000" stroke-width="1.5" stroke-linecap="round" stroke-linejoin="round"/>
        <path d="M81.33 90.743c3.402-3.287 6.322-7.2 8.852-11.204a85.485 85.485 0 0 0 9.085-19.562l1.075-3.435.883-3.49c.27-.996.622-2.496.788-3.508.204-1.162.844-4.146.953-5.308.158-1.209.532-4.122.694-5.347.473-4.228 6.606-3.642 6.226.627-.238 1.378-.823 4.448-1.063 5.776-.4 2.158-1.254 5.256-1.775 7.389-.35 1.121-1.33 4.27-1.696 5.44-.62 1.716-1.356 3.612-1.997 5.332-2.896 7.003-6.58 13.692-11.079 19.784-2.708 3.534-5.581 6.952-8.986 9.848-1.563 1.238-3.462-.993-1.96-2.342" fill="#FFF"/>
        <path d="M81.33 90.743c3.402-3.287 6.322-7.2 8.852-11.204a85.485 85.485 0 0 0 9.085-19.562l1.075-3.435.883-3.49c.27-.996.622-2.496.788-3.508.204-1.162.844-4.146.953-5.308.158-1.209.532-4.122.694-5.347.473-4.228 6.606-3.642 6.226.627-.238 1.378-.823 4.448-1.063 5.776-.4 2.158-1.254 5.256-1.775 7.389-.35 1.121-1.33 4.27-1.696 5.44-.62 1.716-1.356 3.612-1.997 5.332-2.896 7.003-6.58 13.692-11.079 19.784-2.708 3.534-5.581 6.952-8.986 9.848-1.563 1.238-3.462-.993-1.96-2.342z" stroke="#000" stroke-width="1.5" stroke-linecap="round" stroke-linejoin="round"/>
        <path d="M96.332 71.035a2.968 2.968 0 0 1-2.965 2.972 2.968 2.968 0 0 1-2.965-2.972 2.968 2.968 0 0 1 2.965-2.972 2.969 2.969 0 0 1 2.965 2.972" fill="#00BD99"/>
        <path d="M96.332 71.035a2.968 2.968 0 0 1-2.965 2.972 2.968 2.968 0 0 1-2.965-2.972 2.968 2.968 0 0 1 2.965-2.972 2.969 2.969 0 0 1 2.965 2.972z" stroke="#000" stroke-width="1.5" stroke-linecap="round" stroke-linejoin="round"/>
        <path d="m120.971 70.24.783 1.59c.246.5.721.845 1.27.925l1.751.255c1.384.202 1.937 1.907.935 2.886l-1.266 1.238c-.398.388-.58.948-.485 1.497l.299 1.747c.236 1.382-1.211 2.436-2.45 1.783l-1.565-.825a1.685 1.685 0 0 0-1.57 0l-1.565.825c-1.239.653-2.686-.401-2.45-1.783l.3-1.747a1.694 1.694 0 0 0-.486-1.497l-1.266-1.238c-1.002-.979-.45-2.684.935-2.886l1.75-.255a1.687 1.687 0 0 0 1.271-.925l.783-1.59c.618-1.257 2.408-1.257 3.026 0" fill="#FFD15F"/>
        <path d="m120.971 70.24.783 1.59c.246.5.721.845 1.27.925l1.751.255c1.384.202 1.937 1.907.935 2.886l-1.266 1.238c-.398.388-.58.948-.485 1.497l.299 1.747c.236 1.382-1.211 2.436-2.45 1.783l-1.565-.825a1.685 1.685 0 0 0-1.57 0l-1.565.825c-1.239.653-2.686-.401-2.45-1.783l.3-1.747a1.694 1.694 0 0 0-.486-1.497l-1.266-1.238c-1.002-.979-.45-2.684.935-2.886l1.75-.255a1.687 1.687 0 0 0 1.271-.925l.783-1.59c.618-1.257 2.408-1.257 3.026 0z" stroke="#000" stroke-width="1.5" stroke-linecap="round" stroke-linejoin="round"/>
    </g>
</svg>
