<svg width="180" height="180" viewBox="0 0 180 180" xmlns="http://www.w3.org/2000/svg" xmlns:xlink="http://www.w3.org/1999/xlink">
    <defs>
        <circle id="w7ynay5ada" cx="90" cy="90" r="90"/>
    </defs>
    <g fill="none" fill-rule="evenodd">
        <g>
            <mask id="xx6bq8ml5b" fill="#fff">
                <use xlink:href="#w7ynay5ada"/>
            </mask>
            <use fill="#CDF1F8" xlink:href="#w7ynay5ada"/>
            <path d="M32.2 75.654c.115 1.236.17 2.464.166 3.682 1.72-.35 3.477-.61 5.267-.777 26.107-2.422 49.172 16.106 51.517 41.384.14 1.508.203 3.005.192 4.489 10.266-.6 19.996 2.029 28.097 7.006 8.325-19.173 27.004-33.434 49.831-35.551 32.93-3.056 62.023 20.314 64.98 52.2 2.958 31.883-21.338 60.206-54.268 63.263-17.905 1.66-34.676-4.492-46.728-15.578-7.707 11.129-20.316 18.952-35.128 20.326-26.107 2.423-49.171-16.106-51.516-41.383a45.06 45.06 0 0 1-.192-4.488c-25.398 1.48-47.515-16.788-49.808-41.512a44.763 44.763 0 0 1 .1-9.273l.093-.754-.15.014c-22.101 1.7-41.497-14.08-43.487-35.53-2.01-21.667 14.5-40.914 36.877-42.99C10.42 38.106 30.19 53.987 32.2 75.654z" fill="#E6FBFF" mask="url(#xx6bq8ml5b)"/>
        </g>
        <path fill="#FFF" d="m86.63 29.844 76.24-24.216-43.931 38.591z"/>
        <path d="M162.676 5.038c.648-.206 1.121.607.613 1.053l-43.931 38.592a.637.637 0 0 1-.679.102L86.371 30.41a.617.617 0 0 1 .066-1.156l76.24-24.216zm-2.45 2.081-71.85 22.822 30.449 13.547 41.401-36.369z" fill="#110101" fill-rule="nonzero"/>
        <path fill="#E0E0E0" d="m118.938 44.22 2.572 27.157 6.122-23.195L162.87 5.629z"/>
        <path d="M162.45 5.166c.58-.51 1.398.263.907.855l-35.15 42.448-6.087 23.064c-.171.646-1.096.598-1.225-.021l-.012-.078-2.572-27.157a.616.616 0 0 1 .208-.52L162.45 5.165zm-5.086 6.13-37.77 33.178 2.21 23.325 5.219-19.773a.616.616 0 0 1 .082-.182l.04-.054 30.22-36.495z" fill="#110101" fill-rule="nonzero"/>
        <path fill="#FFF" d="m127.633 48.182 37.737 17.253-2.5-59.806z"/>
        <path d="M162.382 5.236c.366-.442 1.093-.203 1.117.367l2.5 59.806a.629.629 0 0 1-.894.589l-37.738-17.253a.616.616 0 0 1-.222-.955l35.237-42.554zm-.074 2.052-33.675 40.667 36.065 16.489-2.39-57.156z" fill="#110101" fill-rule="nonzero"/>
        <path fill="#FFF" d="m121.51 71.377 18.618-17.482-12.495-5.713z"/>
        <path d="M127.023 48.026a.632.632 0 0 1 .875-.407l12.495 5.713c.403.184.49.71.17 1.012l-18.619 17.482c-.459.43-1.203-.001-1.044-.605l6.123-23.195zm1.029 1.031-5.377 20.37 16.35-15.353-10.973-5.017z" fill="#110101" fill-rule="nonzero"/>
        <path d="M25.39 109.27c10.72 11.972 29.232 16.18 44.159 10.038 5.064-2.083 9.936-5.529 11.968-10.617 3.082-7.719-1.586-16.774-8.52-21.274-2.922-1.897-6.57-3.222-9.885-2.104-4.86 1.64-6.736 8.142-4.76 12.857 1.976 4.714 6.674 7.74 11.488 9.452 9.684 3.445 20.843 2.555 29.91-2.386 9.066-4.942 15.895-13.856 18.303-23.893" stroke="#000" stroke-linecap="round" stroke-linejoin="round" stroke-dasharray="4.322391827901204,8.37739626566569"/>
    </g>
</svg>
