<svg width="1320" height="660" viewBox="0 0 1320 660" xmlns="http://www.w3.org/2000/svg">
    <g fill="#F5F5F5" fill-rule="evenodd">
        <path d="M14 0h1134v28H14C6.268 28 0 21.732 0 14S6.268 0 14 0zM172 632h1134c7.732 0 14 6.268 14 14s-6.268 14-14 14H172v-28zM172 316h976v28H172z"/>
        <path d="M1148 0c94.993 0 172 77.007 172 172s-77.007 172-172 172v-28c79.529 0 144-64.471 144-144s-64.471-144-144-144V0zM172 316C77.007 316 0 393.007 0 488s77.007 172 172 172v-28c-79.529 0-144-64.471-144-144s64.471-144 144-144v-28z" fill-rule="nonzero"/>
    </g>
</svg>
