<svg width="656" height="544" viewBox="0 0 656 544" xmlns="http://www.w3.org/2000/svg">
    <g fill="#F5F5F5" fill-rule="evenodd">
        <path d="M10 0h505v20H10C4.477 20 0 15.523 0 10S4.477 0 10 0zM141 524h505c5.523 0 10 4.477 10 10s-4.477 10-10 10H141v-20zM141 262h374v20H141z"/>
        <path d="M515 0c77.872 0 141 63.128 141 141s-63.128 141-141 141v-20c66.826 0 121-54.174 121-121S581.826 20 515 20V0zM141 262C63.128 262 0 325.128 0 403s63.128 141 141 141v-20c-66.826 0-121-54.174-121-121s54.174-121 121-121v-20z" fill-rule="nonzero"/>
    </g>
</svg>
