<svg width="24" height="24" viewBox="0 0 24 24" xmlns="http://www.w3.org/2000/svg">
    <g fill="none" fill-rule="evenodd">
        <path d="M0 0h24v24H0z"/>
        <path d="M4.829 24A.83.83 0 0 1 4 23.168a.83.83 0 0 1 .829-.832l1.23-.001v-3.356c0-1.989.885-3.874 2.413-5.138L10.696 12l-2.223-1.84a6.669 6.669 0 0 1-2.414-5.14V1.665h-1.23A.83.83 0 0 1 4 .832.83.83 0 0 1 4.829 0H19.17A.83.83 0 0 1 20 .832a.83.83 0 0 1-.829.832h-1.23v3.357a6.67 6.67 0 0 1-2.414 5.138L13.302 12l2.225 1.84a6.67 6.67 0 0 1 2.414 5.14v3.355h1.23a.83.83 0 0 1 .829.833.83.83 0 0 1-.829.832H4.83z" fill="#FFBE00" fill-rule="nonzero"/>
    </g>
</svg>
