<svg width="24" height="24" viewBox="0 0 24 24" xmlns="http://www.w3.org/2000/svg">
    <g fill="none" fill-rule="evenodd">
        <path d="M0 0h24v24H0z"/>
        <g fill-rule="nonzero">
            <path fill="#424242" d="M10.996 15.875h3.007v1h-3.007zM10.996 14.292h3.007v1h-3.007z"/>
            <path d="M8.388 14C7.622 14 7 14.673 7 15.5S7.622 17 8.388 17c.765 0 1.388-.673 1.388-1.5S9.153 14 8.388 14zm0 2.167c-.34 0-.617-.3-.617-.668 0-.366.277-.666.617-.666.34 0 .617.3.617.666 0 .368-.277.668-.617.668zM16.612 14c-.765 0-1.388.673-1.388 1.5s.623 1.5 1.388 1.5c.766 0 1.388-.673 1.388-1.5s-.622-1.5-1.388-1.5zm0 2.167c-.34 0-.617-.3-.617-.668 0-.366.277-.666.617-.666.34 0 .617.3.617.666 0 .368-.277.668-.617.668z" fill="#FF8E22"/>
            <path d="M19.961 21.26h-.001l-2.048-2.071c1.746-.098 3.138-1.562 3.138-3.35V5.458c0-2.035-1.276-3.858-3.175-4.536a16.109 16.109 0 0 0-10.75 0C5.226 1.601 3.95 3.424 3.95 5.46v10.38c0 1.788 1.391 3.252 3.137 3.35L5.04 21.26l-.001.002-1.9 1.92a.483.483 0 0 0 0 .679.474.474 0 0 0 .672 0l1.761-1.78h13.856l1.761 1.78a.471.471 0 0 0 .672 0 .483.483 0 0 0 0-.68l-1.9-1.92zm-15.06-5.422V5.46a3.853 3.853 0 0 1 2.54-3.63 15.018 15.018 0 0 1 5.06-.874c1.731 0 3.433.294 5.058.874a3.854 3.854 0 0 1 2.541 3.63v10.38c0 1.323-1.065 2.4-2.375 2.4H7.275c-1.31 0-2.374-1.077-2.374-2.4zm1.621 5.281 1.9-1.92h8.156l1.9 1.92H6.522zm11.203-8.641c.786 0 1.425-.647 1.425-1.44V5.275c0-.794-.64-1.44-1.425-1.44H7.275c-.785 0-1.425.646-1.425 1.44v5.761c0 .794.64 1.44 1.425 1.44h10.45zM6.8 11.038V5.275c0-.265.213-.48.475-.48h10.45c.262 0 .475.215.475.48v5.761c0 .265-.213.48-.475.48H7.275a.478.478 0 0 1-.475-.48z" fill="#000"/>
        </g>
    </g>
</svg>
