<svg width="20" height="15" viewBox="0 0 20 15" xmlns="http://www.w3.org/2000/svg">
    <g transform="translate(.417 .917)" fill="none" fill-rule="evenodd">
        <ellipse fill="#F37920" cx="16.967" cy="1.963" rx="1.951" ry="1.963"/>
        <path d="m.069 4.581 3.872.548c-.27 3.256.665 5.86 2.804 7.811.021-.01-1.889-8.359 4.404-8.359.033 0-3.866 2.03-3.543 9.163 0-.01-1.134-.01-3.401 0-1.54-1.092-2.666-2.426-3.377-4.001C.117 8.167-.136 6.447.068 4.58z" fill="#35B349"/>
        <path d="m9.309 7.588 2.126-2.518 2.654 7.202c1.979-1.909 2.56-4.31 1.746-7.202-.002-.006 1.075-.235 3.23-.688.517 3.533-.94 6.654-4.368 9.362-.01.008-1.05.008-3.117 0L9.31 7.588z" fill="#35B349"/>
    </g>
</svg>
