<svg width="14" height="14" viewBox="0 0 14 14" xmlns="http://www.w3.org/2000/svg">
    <g fill="none" fill-rule="evenodd">
        <path d="M0 0h14v14H0z"/>
        <path d="M5.728.578a7.02 7.02 0 0 1 4.268.704.544.544 0 0 1 .296.467c.005.196-.1.38-.272.48a.582.582 0 0 1-.562.014 5.86 5.86 0 0 0-3.77-.55 5.695 5.695 0 0 0-3.274 1.873 5.273 5.273 0 0 0-1.285 3.437c0 1.434.594 2.81 1.652 3.824a5.772 5.772 0 0 0 3.993 1.586c1.498 0 2.935-.57 3.993-1.586a5.297 5.297 0 0 0 1.652-3.824c0-.363-.038-.726-.112-1.083a.53.53 0 0 1 .084-.412.566.566 0 0 1 .358-.23.58.58 0 0 1 .421.08c.125.08.212.204.242.346.09.428.135.863.136 1.299a6.331 6.331 0 0 1-1.389 3.94 6.792 6.792 0 0 1-3.59 2.325 7.042 7.042 0 0 1-4.323-.237 6.705 6.705 0 0 1-3.29-2.703 6.285 6.285 0 0 1-.912-4.066 6.391 6.391 0 0 1 1.843-3.764A6.873 6.873 0 0 1 5.728.578zm7.742.166.09.012a.557.557 0 0 1 .414.37.532.532 0 0 1-.126.534L7.273 8.446a.574.574 0 0 1-.413.18h-.034a.57.57 0 0 1-.423-.224l-2.23-2.971a.532.532 0 0 1 .113-.782.58.58 0 0 1 .796.138l1.831 2.438L13.024.916a.565.565 0 0 1 .34-.169l.106-.003z" fill="#FFB72E" fill-rule="nonzero"/>
    </g>
</svg>
