<svg width="16" height="16" viewBox="0 0 16 16" xmlns="http://www.w3.org/2000/svg">
    <g fill="none" fill-rule="evenodd">
        <path d="M0 0h16v16H0z"/>
        <path d="M6.547.66a8.024 8.024 0 0 1 4.877.805c.203.107.333.31.338.534a.62.62 0 0 1-.31.55.665.665 0 0 1-.643.015A6.698 6.698 0 0 0 6.5 1.936a6.508 6.508 0 0 0-3.741 2.14A6.026 6.026 0 0 0 1.29 8.003c0 1.64.68 3.211 1.888 4.37a6.596 6.596 0 0 0 4.564 1.813 6.597 6.597 0 0 0 4.564-1.812 6.054 6.054 0 0 0 1.888-4.37c0-.416-.044-.83-.13-1.238a.607.607 0 0 1 .097-.47.647.647 0 0 1 .41-.264c.166-.032.339 0 .48.09a.623.623 0 0 1 .277.397c.103.489.155.986.155 1.484a7.236 7.236 0 0 1-1.587 4.503 7.763 7.763 0 0 1-4.103 2.657 8.048 8.048 0 0 1-4.94-.27 7.662 7.662 0 0 1-3.761-3.09A7.183 7.183 0 0 1 .05 7.156a7.304 7.304 0 0 1 2.107-4.3A7.855 7.855 0 0 1 6.547.66zm8.848.19.102.014c.225.05.405.21.474.423a.608.608 0 0 1-.145.61L8.312 9.652a.656.656 0 0 1-.473.206h-.038a.65.65 0 0 1-.483-.256l-2.55-3.395a.608.608 0 0 1 .13-.893.663.663 0 0 1 .91.157L7.9 8.257l6.984-7.21a.646.646 0 0 1 .388-.193l.122-.004z" fill="#FFF" fill-rule="nonzero"/>
    </g>
</svg>
