<svg width="24" height="24" viewBox="0 0 24 24" xmlns="http://www.w3.org/2000/svg" xmlns:xlink="http://www.w3.org/1999/xlink">
    <defs>
        <path id="8g2s65huva" d="M0 0h1.76v2.053H0z"/>
        <path id="lc6iniiqrc" d="M0 0h2.246v1.742H0z"/>
    </defs>
    <g fill="none" fill-rule="evenodd">
        <path d="M8.131 4.136c-.064 0-.14.049-.147.173-.005.082.035.115.035.163s.052.136-.03.184c-.079.048-.035.534-.041.615a.241.241 0 0 0 .164.25c.049.016.533.057.758.041.226-.016.33.144.322.241-.017.193-.444.492-.53.561-.232.186-.306.288-.242.369.065.08.151.08.284-.08.062-.073.568-.414.64-.572.099-.212.025-.63.008-.76-.015-.127-.112-.224-.29-.224-.175 0-.642.097-.738-.08-.096-.176-.016-.4-.016-.577 0-.176 0-.304-.177-.304M9.765 5.064c-.051.01-.177.043-.159.299.018.255.128.292.183.371.055.08.073.128-.006.244a.917.917 0 0 0-.128.584c.037.207.152.22.239.213.085-.006.335-.024.335-.225s-.115-.123-.133-.226c-.006-.036-.005-.132.01-.146.02-.017.043-.03.141-.03.097 0 .373.226.427.335.055.11.128.244.227.244.096 0 .213.012.194-.293-.018-.304-.128-.328-.22-.414-.091-.085-.207-.207-.03-.316.177-.11.372-.098.238-.402-.134-.305-.238-.274-.336-.274-.097 0-.238.048-.238.256 0 .152.019.273-.03.292-.08.03-.22.03-.311-.013-.092-.042-.119-.182-.233-.407-.041-.086-.109-.104-.17-.092M11.575 5.03c-.056 0-.156.056-.179.134-.023.079 0 .28.033.347.034.068.135.079.203.113.067.033.168.067.168.28 0 .212-.012.783.045.85.056.067.09.056.135.056.045 0 .117-.056.123-.145.008-.126-.058-.223-.101-.325-.05-.121-.078-.493-.078-.66 0-.169.067-.402-.077-.52a.597.597 0 0 0-.272-.13M12.48 5.072s-.28.022-.255.285c.022.237.176.25.211.281.036.03.168.08.15.312-.018.233-.018.344-.14.426-.093.062-.146.176-.085.246.086.097.203.198.265.131.062-.065.1-.298.097-.513-.005-.215.008-.589-.018-.742-.026-.154.04-.413-.224-.426M13.186 5.15c-.032.018-.115.05-.137.155-.022.105.022.241.035.294.013.053.097.18.084.285-.014.106-.092.215-.105.303-.014.088-.177.396.034.527.212.132.168-.088.164-.171-.005-.084-.053-.32.08-.523.13-.202.245-.36.514-.36.268 0 .4.136.435.374.036.237-.035.267-.136.28-.101.014-.55-.043-.625.018-.075.061-.167.145-.136.281.03.136.013.176.14.194.128.017.749-.005.815-.018.066-.013.175-.053.15-.378-.027-.325-.034-.641-.04-.676-.009-.053-.075-.281-.168-.387-.08-.091-.162-.276-.343-.193-.18.083-.18.211-.255.233-.075.022-.126.055-.264-.128-.084-.11-.18-.144-.242-.11M14.865 5.111c-.05.014-.18.093-.137.198.045.105.212.364.26.417.048.053.234.325.212.444-.023.118-.199.232-.317.311-.12.08-.199.202-.036.268s.62.013.66.004c.04-.008.207-.082.198-.258-.008-.176.062-.2.093-.268.045-.097.14-.356.15-.43.009-.075.053-.348 0-.488s-.176-.351-.432-.312c-.171.027-.097.407-.065.47.035.07.294.202.254.378-.039.175-.096.21-.206.21-.11 0-.269-.175-.273-.325-.004-.149.068-.289.062-.373-.009-.123-.11-.33-.423-.246" fill="#231916"/>
        <path d="m10.033 8.79-3.217 1.857a.652.652 0 0 0-.328.565l.006 5.71c0 .23.124.445.325.562l4.934 2.872a.652.652 0 0 0 .657 0l4.978-2.871a.653.653 0 0 0 .326-.564l.003-5.71a.652.652 0 0 0-.326-.564L14.17 8.79a.654.654 0 0 0-.98.564.65.65 0 0 0 .326.565l2.893 1.668-.001 4.956-4.325 2.495c-.53-.31-3.758-2.188-4.283-2.494l-.005-4.957 2.892-1.67a.65.65 0 0 0 .237-.89.654.654 0 0 0-.892-.238M3.473 9.097a.65.65 0 0 0 .238.89l1.744 1.008a.652.652 0 0 0 .656-1.128L4.366 8.86a.653.653 0 0 0-.893.237M19.84 8.86l-1.743 1.007a.65.65 0 0 0-.238.89c.181.312.58.419.893.238l1.744-1.008a.65.65 0 0 0 .237-.89.653.653 0 0 0-.892-.237M17.934 8.672a.87.87 0 0 1-1.743 0c0-.48.39-.87.872-.87a.87.87 0 0 1 .871.87M8.017 8.672a.87.87 0 1 1-1.74-.003.87.87 0 0 1 1.74.003" fill="#3C1F87"/>
        <path d="M12.973 11.61a.87.87 0 0 1-1.743 0 .871.871 0 0 1 1.743 0M8.328 11.897a.653.653 0 0 0 .236.891l1.867 1.085a.652.652 0 1 0 .658-1.127L9.221 11.66a.655.655 0 0 0-.893.236M14.973 11.66 12.661 13c-.97.536-1.197.91-1.197 1.984v2.8a.653.653 0 0 0 1.308 0v-2.8c0-.555 0-.555.534-.85l2.323-1.347a.65.65 0 0 0 .237-.89.654.654 0 0 0-.893-.237" fill="#3C1F87"/>
        <path fill="#231916" d="m2.423 8.526-.135.469-.402-.115-.426-.122-.224.783.397.113.43.123-.134.47-.833-.239-.517-.148L0 9.694l.135-.468.37.105.37.106.224-.782-.385-.11-.355-.101.135-.47.841.24.515.148z"/>
        <path d="m2.543 6.51-.534-.059-.377-.043a12.88 12.88 0 0 1-.372-.051l-.265.518.391.464.55.657.454.557.243-.475-.456-.504.309-.604.364.05.3.045.236-.462-.843-.093zm-.638.789-.437-.484-.01-.019.656.095-.21.408z" fill="#231916"/>
        <path fill="#231916" d="m4.498 5.22-.356.454-.684-.097-.412-.058-.484-.07.581.462.505.393-.265.339-.768-.6-.813-.634.363-.463 1.593.25-1.106-.87.265-.34.626.49.448.348zM5.227 3.895c.046.05.08.105.106.166.025.06.036.126.033.2a.533.533 0 0 1-.067.23.907.907 0 0 1-.194.237c-.06.055-.127.107-.197.155l-.24.146-.336-.287c.047-.012.087-.023.12-.035a.834.834 0 0 0 .11-.047.905.905 0 0 0 .212-.139.5.5 0 0 0 .066-.07.296.296 0 0 0 .04-.079c.011-.032.014-.06.011-.087a.162.162 0 0 0-.046-.084c-.032-.035-.085-.058-.157-.068a1.59 1.59 0 0 0-.236-.005l-.239.007c-.095 0-.176-.007-.245-.02a.709.709 0 0 1-.18-.062.52.52 0 0 1-.143-.112.503.503 0 0 1-.106-.176.441.441 0 0 1-.02-.207.587.587 0 0 1 .075-.212.915.915 0 0 1 .174-.206l.058-.052a3.3 3.3 0 0 1 .21-.147l.105-.065.318.267a1.974 1.974 0 0 0-.178.074 1.37 1.37 0 0 0-.171.12.339.339 0 0 0-.099.142c-.022.069-.014.123.025.164.029.034.07.057.122.071.053.015.149.019.287.012.09-.009.17-.014.239-.015.094 0 .175.006.244.022a.493.493 0 0 1 .3.162M7.213 3.152l-.411.265-.227-.352-.24-.37-.685.44.223.346.244.376-.412.265-.47-.727-.29-.452-.327-.505.411-.263.209.322.208.323.685-.441-.216-.335-.2-.31.41-.264.475.734.29.449zM7.922 2.852l-.444.206-.353-.76-.224-.483-.267-.574.445-.205.361.778.226.487zM9.91 2.184l-.552.166-.504-.471-.303-.285-.355-.335.208.711.185.611-.412.124-.282-.931-.297-.986.564-.17 1.158 1.12L8.918.392l.413-.123.23.758.163.543z"/>
        <g transform="translate(10.925)">
            <mask id="dclyqqtinb" fill="#fff">
                <use xlink:href="#8g2s65huva"/>
            </mask>
            <path d="M1.76 1.358a.73.73 0 0 1-.042.267.535.535 0 0 1-.132.202.671.671 0 0 1-.282.167 1.4 1.4 0 0 1-.403.058 1.404 1.404 0 0 1-.41-.046.673.673 0 0 1-.292-.166.55.55 0 0 1-.13-.195.73.73 0 0 1-.049-.262L.012.797.006.434 0 .025.49.018.498.63l.008.572c.003.164.036.286.098.363.062.077.16.115.292.113.134-.002.23-.044.288-.126.058-.082.086-.203.084-.36L1.26.663 1.256.356 1.25.007 1.74 0l.01.715.01.643z" fill="#231916" mask="url(#dclyqqtinb)"/>
        </g>
        <path fill="#231916" d="m14.718 2.343-.568-.104-.233-.649-.14-.39-.163-.46-.139.727-.115.629-.424-.077.175-.957.185-1.013.58.105.519 1.524.258-1.383.424.078-.142.78-.102.558zM15.442 2.61l-.464-.154.264-.796.168-.504.2-.601.464.154-.27.815-.17.51zM18.252 1.681l-.617.542-.523.472-.478.43-.504-.244.078-.67.072-.645.083-.797.454.219-.1.724-.062.423-.068.485.173-.163.507-.488.524-.51zM18.496 4.32l-1.136-.81.47-.655.29-.406.408-.569 1.135.81-.218.305-.27-.192-.13-.093-.144-.102-.194-.138-.255.356.632.45-.212.296-.353-.251-.28-.2-.262.366.738.527-.106.149zM19.757 5.543l-.37-.368c.013-.025.055-.123.126-.292a5.79 5.79 0 0 1 .128-.292 26.979 26.979 0 0 0 .214-.524l.047.064a.446.446 0 0 0 .272.182.28.28 0 0 0 .125-.011.296.296 0 0 0 .116-.077c.06-.059.087-.119.083-.18a.245.245 0 0 0-.034-.096.413.413 0 0 0-.068-.09l-.228-.225-.517.518-.307.31-.337.337-.332-.33 1.414-1.42.636.632c.152.15.229.299.234.447.005.135-.056.265-.182.391a.516.516 0 0 1-.332.167.693.693 0 0 1-.362-.09l-.116.338c-.018.04-.043.11-.077.212l-.038.115-.095.282zM20.95 6.322a.56.56 0 0 1-.176.09.517.517 0 0 1-.426-.077.896.896 0 0 1-.217-.217 1.72 1.72 0 0 1-.135-.21l-.121-.254.319-.304a.986.986 0 0 0 .06.237.905.905 0 0 0 .116.224c.023.03.044.054.064.073a.262.262 0 0 0 .075.047c.03.014.058.02.085.02a.162.162 0 0 0 .088-.038c.039-.029.067-.078.085-.149.012-.054.02-.132.028-.234.008-.131.014-.21.017-.237.01-.095.024-.175.046-.241a.664.664 0 0 1 .078-.174.523.523 0 0 1 .313-.218.44.44 0 0 1 .207.002c.072.016.14.048.205.095a.883.883 0 0 1 .188.193 1.003 1.003 0 0 1 .103.16 2.914 2.914 0 0 1 .122.238l-.298.288a2.475 2.475 0 0 0-.055-.184 1.62 1.62 0 0 0-.103-.182.338.338 0 0 0-.132-.112c-.066-.029-.122-.026-.166.007a.247.247 0 0 0-.083.116c-.02.05-.033.145-.04.282 0 .09-.004.17-.01.24a1.035 1.035 0 0 1-.046.24.492.492 0 0 1-.192.28M20.91 7.243l-.248-.421.723-.425.459-.27.546-.32.249.42-.741.435-.464.273zM23.127 8.114l-.229-.51-.496.222-.206.091-.26.116-.248.11-.278.125-.2-.445 1.489-.664-.124-.277-.062-.138-.043-.095.343-.154.657 1.466z"/>
        <g transform="translate(21.754 8.057)">
            <mask id="8fdi8pc28d" fill="#fff">
                <use xlink:href="#lc6iniiqrc"/>
            </mask>
            <path fill="#231916" mask="url(#8fdi8pc28d)" d="m1.904.518-.643.553.437.084.407.08.071.256.07.251-.67-.16-.683-.168-.411.115-.351.097-.066-.235L0 1.156.8.934l.314-.306L1.34.41l.175-.17L1.76 0z"/>
        </g>
        <path d="M8.817 21.795a2.16 2.16 0 0 0-1.03-.749l-.022-.008-.001.024c-.023.392.1.782.353 1.127.172.231.397.42.658.568a2.112 2.112 0 0 0-.87.023 1.75 1.75 0 0 0-.99.643l-.015.02.023.008c.416.153.856.18 1.272.077.392-.098.723-.308.958-.604l.018-.05v-.006c.009-.38-.114-.75-.354-1.073" fill="#231916"/>
        <path d="m8.347 22.622.012-.034c-.007-.003-.71-.272-.957-.544l-.02-.022-.152.424.03-.006c.352-.068 1.079.18 1.087.182M7.187 22.09v-.002a1.561 1.561 0 0 0-.133-1.013 1.951 1.951 0 0 0-.787-.838l-.02-.011-.006.023-.014.059c-.067.327-.02.672.137 1 .112.232.277.434.481.61a1.887 1.887 0 0 0-.766-.122c-.388.022-.73.162-.989.403l-.018.017.021.012c.343.206.729.303 1.116.283.365-.023.694-.153.953-.376l.024-.042v-.003z" fill="#231916"/>
        <path d="m6.495 21.732.02-.031c-.007-.003-.585-.36-.758-.643l-.016-.025-.208.356h.031c.323-.002.925.34.931.343M5.576 21.049l.002-.002.001-.003c.117-.304.125-.64.024-.97a1.858 1.858 0 0 0-.615-.903l-.02-.015-.009.023a1.39 1.39 0 0 0-.08.258c-.05.241-.037.497.04.755.071.232.196.445.359.638-.22-.122-.454-.2-.697-.224a1.483 1.483 0 0 0-.989.234l-.02.013.018.016c.292.243.64.391 1.008.43.344.032.672-.042.95-.214a.742.742 0 0 0 .028-.036" fill="#231916"/>
        <path d="M4.158 20.15c.302.047.817.455.822.46l.023-.029c-.005-.004-.494-.423-.615-.713l-.012-.028-.25.306.032.004zM4.133 19.856l.002-.002.001-.002c.156-.267.215-.58.172-.906a1.762 1.762 0 0 0-.439-.941l-.016-.019-.013.021a1.332 1.332 0 0 0-.177.443c-.033.16-.038.328-.016.502.031.23.115.447.239.653a1.708 1.708 0 0 0-.62-.318 1.439 1.439 0 0 0-.962.07l-.022.009.015.019c.237.272.54.464.88.555.318.085.637.065.923-.054a.503.503 0 0 0 .033-.03" fill="#231916"/>
        <path d="M2.94 18.797c.276.09.696.552.7.556l.028-.024c-.004-.005-.399-.472-.467-.762l-.008-.03-.284.25.031.01zM2.942 18.505a.644.644 0 0 0 .037-.02l.002-.002.002-.002c.199-.218.317-.498.34-.809a1.666 1.666 0 0 0-.218-.961l-.012-.021-.018.018c-.173.176-.29.401-.342.656-.013.06-.021.12-.026.183-.017.217.017.436.09.651a1.622 1.622 0 0 0-.51-.417 1.342 1.342 0 0 0-.908-.127l-.023.005.011.021c.166.301.41.54.705.692.279.14.58.186.87.133" fill="#231916"/>
        <path d="m2.054 17.247.028.016c.237.138.535.65.538.656l.032-.018c-.002-.005-.275-.518-.281-.8l-.001-.032-.316.178zM2.158 16.995a.541.541 0 0 0 .038-.016H2.2l.002-.002c.214-.184.358-.434.416-.724.064-.308.031-.63-.094-.932l-.01-.022-.019.015c-.227.18-.38.44-.446.748-.041.203-.034.412.009.622a1.54 1.54 0 0 0-.43-.45 1.272 1.272 0 0 0-.842-.226l-.024.002.009.023c.12.302.322.557.584.735.247.165.525.244.804.227" fill="#231916"/>
        <path d="m1.79 15.572-.323.132.025.02c.208.157.429.674.431.68l.034-.014c-.002-.005-.199-.52-.171-.787l.003-.031zM1.539 15.448l.038-.01.003-.001.001-.002a1.21 1.21 0 0 0 .49-.624c.101-.28.114-.59.037-.89l-.006-.024-.021.013c-.238.14-.418.363-.521.645a1.49 1.49 0 0 0-.054.193c-.026.126-.027.26-.02.394a1.458 1.458 0 0 0-.343-.482 1.212 1.212 0 0 0-.762-.327l-.025-.001.005.023c.073.301.229.568.452.771.209.189.46.3.726.322" fill="#231916"/>
        <path d="m1.06 14.14.023.022c.175.176.312.692.313.697l.036-.009c-.001-.005-.117-.515-.056-.763l.008-.03-.323.082zM1.215 13.915l.037-.004h.003l.002-.002c.23-.106.418-.288.54-.526.13-.248.182-.544.148-.834l-.003-.024-.022.01c-.243.102-.44.289-.574.542a1.39 1.39 0 0 0-.124.355c-.012.057-.016.117-.021.176a1.381 1.381 0 0 0-.259-.485 1.143 1.143 0 0 0-.677-.404l-.024-.005.002.024c.031.293.145.564.328.783.174.205.397.34.644.394" fill="#231916"/>
        <path d="m1.1 12.958.021.035.013-.039c.004-.015.118-.365.111-.595-.007-.236-.051-.368-.176-.52l-.015-.018-.014.02c-.102.147-.141.423-.12.595.02.157.1.386.18.522M15.318 21.795c.253-.343.61-.602 1.029-.749l.023-.008.001.024c.022.392-.1.782-.354 1.127-.172.231-.397.42-.657.568.296-.05.588-.047.868.023.411.103.763.332.992.643l.015.02-.024.008c-.416.153-.856.18-1.272.077a1.75 1.75 0 0 1-.957-.604c-.004-.006-.018-.05-.018-.05l-.001-.003v-.003c-.008-.38.115-.75.355-1.073" fill="#231916"/>
        <path d="m15.788 22.622-.013-.034c.007-.003.71-.272.958-.544l.02-.022.152.424-.032-.006c-.35-.068-1.078.18-1.085.182M16.948 22.09v-.002a1.561 1.561 0 0 1 .132-1.013c.167-.346.44-.636.787-.838l.021-.011.006.023c.004.02.01.039.013.059.068.327.02.672-.137 1a1.898 1.898 0 0 1-.48.61 1.89 1.89 0 0 1 .766-.122c.387.022.729.162.988.403l.019.017-.021.012c-.344.206-.73.303-1.117.283a1.591 1.591 0 0 1-.952-.376.773.773 0 0 1-.024-.042l-.001-.003z" fill="#231916"/>
        <path d="m17.64 21.732-.02-.031c.007-.003.585-.36.757-.643l.016-.025.209.356h-.032c-.322-.002-.925.34-.93.343M18.559 21.049l-.003-.002v-.003a1.482 1.482 0 0 1-.024-.97c.106-.35.319-.663.615-.903l.02-.015.009.023c.035.083.062.17.08.258.05.241.036.497-.04.755a1.8 1.8 0 0 1-.36.638c.221-.122.455-.2.698-.224.366-.036.708.045.988.234l.02.013-.018.016c-.291.243-.64.391-1.007.43a1.517 1.517 0 0 1-.95-.214c-.005-.004-.028-.036-.028-.036" fill="#231916"/>
        <path d="M19.977 20.15c-.302.047-.818.455-.823.46l-.023-.029c.005-.004.495-.423.615-.713l.012-.028.25.306-.031.004zM20.002 19.856 20 19.854l-.002-.002a1.41 1.41 0 0 1-.172-.906c.046-.345.197-.67.44-.941l.015-.019.013.021c.086.136.145.285.178.443.032.16.038.328.015.502-.03.23-.114.447-.238.653.188-.148.394-.258.62-.318.332-.087.675-.063.962.07l.022.009-.016.019c-.237.272-.54.464-.879.555a1.426 1.426 0 0 1-.923-.054.46.46 0 0 1-.033-.03" fill="#231916"/>
        <path d="M21.194 18.797c-.275.09-.696.552-.7.556l-.027-.024c.004-.005.398-.472.467-.762l.007-.03.284.25-.03.01zM21.193 18.505c-.006-.002-.037-.02-.037-.02l-.003-.002-.001-.002a1.335 1.335 0 0 1-.34-.809 1.67 1.67 0 0 1 .217-.961l.013-.021.017.018c.173.176.29.401.343.656.012.06.02.12.026.183.017.217-.018.436-.09.651.145-.174.313-.318.509-.417.296-.15.61-.194.908-.127l.024.005-.012.021c-.165.301-.41.54-.705.692-.278.14-.579.186-.87.133" fill="#231916"/>
        <path d="m22.08 17.247-.027.016c-.238.138-.536.65-.539.656l-.032-.018c.003-.005.276-.518.281-.8l.001-.032.317.178zM21.976 16.995a.572.572 0 0 1-.038-.016h-.002l-.002-.002a1.272 1.272 0 0 1-.416-.724 1.575 1.575 0 0 1 .094-.932l.01-.022.018.015c.227.18.381.44.447.748.04.203.034.412-.009.622.117-.18.258-.335.43-.45.26-.176.551-.254.841-.226l.024.002-.009.023c-.12.302-.322.557-.584.735a1.296 1.296 0 0 1-.804.227" fill="#231916"/>
        <path d="m22.345 15.572.322.132-.025.02c-.208.157-.429.674-.43.68l-.035-.014c.002-.005.2-.52.171-.787l-.003-.031zM22.596 15.448l-.039-.01-.002-.001-.002-.002a1.21 1.21 0 0 1-.49-.624 1.513 1.513 0 0 1-.037-.89l.007-.024.02.013c.239.14.419.363.522.645.022.062.04.127.054.193.026.126.027.26.019.394.085-.185.197-.35.344-.482.223-.202.487-.315.762-.327l.025-.001-.006.023c-.072.301-.228.568-.451.771-.21.189-.46.3-.726.322" fill="#231916"/>
        <path d="m23.074 14.14-.022.022c-.175.176-.313.692-.314.697l-.035-.009c0-.005.117-.515.055-.763l-.008-.03.324.082zM22.92 13.915l-.037-.004h-.003l-.003-.002a1.148 1.148 0 0 1-.54-.526 1.45 1.45 0 0 1-.148-.834l.003-.024.023.01c.242.102.44.289.573.542.058.111.1.23.125.355.012.057.016.117.02.176.057-.18.14-.345.26-.485.183-.218.417-.358.676-.404l.024-.005-.002.024c-.03.293-.144.564-.328.783-.173.205-.396.34-.643.394" fill="#231916"/>
        <path d="m23.034 12.958-.02.035-.013-.039c-.005-.015-.118-.365-.112-.595.007-.236.052-.368.176-.52l.016-.018.014.02c.102.147.14.423.119.595-.02.157-.099.386-.18.522M10.282 22.19v1.76h-.324v-1.462h-.324l.138-.297zM10.892 23.95h.382l.255-.422c.18-.295.27-.551.27-.768 0-.18-.051-.325-.154-.438a.503.503 0 0 0-.392-.169.543.543 0 0 0-.416.173.62.62 0 0 0-.162.444c0 .157.044.287.131.389a.42.42 0 0 0 .335.153.515.515 0 0 0 .207-.05l-.456.689zm.17-.994a.318.318 0 0 1-.067-.209c0-.083.023-.15.067-.203a.227.227 0 0 1 .18-.079c.07 0 .128.027.174.08a.29.29 0 0 1 .07.197.32.32 0 0 1-.07.213.225.225 0 0 1-.18.082.216.216 0 0 1-.174-.081zM12.884 23.357v-1.204h-.286l-.78 1.292v.164h.78v.342h.286v-.342h.167v-.252h-.167zm-.735 0c.189-.32.306-.524.354-.613.044-.08.077-.154.103-.222a4.473 4.473 0 0 0-.008.303v.532h-.449zM13.483 22.4c-.103.166-.155.396-.155.692 0 .287.053.51.158.669.104.159.25.239.439.239a.494.494 0 0 0 .433-.249c.108-.166.161-.387.161-.665 0-.275-.047-.495-.142-.66a.503.503 0 0 0-.459-.273.486.486 0 0 0-.435.248m.437 1.272c-.09 0-.156-.053-.198-.157a1.216 1.216 0 0 1-.063-.438c0-.191.023-.338.067-.442.045-.104.11-.156.194-.156.173 0 .26.2.26.598 0 .396-.087.595-.26.595" fill="#231916"/>
    </g>
</svg>
