<svg width="24" height="24" viewBox="0 0 24 24" xmlns="http://www.w3.org/2000/svg">
    <g fill="none" fill-rule="evenodd">
        <path d="M0 0h24v24H0z"/>
        <path d="M19.253 2.25v.993l-.937-.001v4.54H23.5l.5.497v12.975l-.5.496-5.683-.001v.001H.5l-.5-.496V8.279l.5-.496 5.184-.001v-4.54h-.937V2.25h14.506zm-1.937.992H6.685v17.515h3.148v-3.254l.5-.496h3.334l.5.496v3.254h3.149V3.242zM13.167 18h-2.333v2.758h2.333V18zM5.684 8.775H1v11.982h4.684V8.775zm17.316 0-4.684-.001v11.983H23V8.775zM3.966 15.8v.992H2.718V15.8h1.248zm17.316 0v.992h-1.248V15.8h1.248zM9.823 13.06v.992H8.575v-.992h1.248zm2.801 0v.992h-1.248v-.992h1.248zm2.8 0v.992h-1.247v-.992h1.248zm-11.458 0v.992H2.718v-.992h1.248zm17.316 0v.992h-1.248v-.992h1.248zM9.823 10.319v.992H8.575v-.992h1.248zm2.801 0v.992h-1.248v-.992h1.248zm2.8 0v.992h-1.247v-.992h1.248zm-11.458 0v.992H2.718v-.992h1.248zm17.316 0v.992h-1.248v-.992h1.248zM9.823 7.578v.992H8.575v-.992h1.248zm2.801 0v.992h-1.248v-.992h1.248zm2.8 0v.992h-1.247v-.992h1.248zm-5.6-2.741v.992h-1.25v-.992h1.25zm2.8 0v.992h-1.248v-.992h1.248zm2.8 0v.992h-1.247v-.992h1.248z" fill="#616161" fill-rule="nonzero"/>
    </g>
</svg>
