<svg width="24" height="24" viewBox="0 0 24 24" xmlns="http://www.w3.org/2000/svg">
    <g fill="none" fill-rule="evenodd">
        <path d="M0 0h24v24H0z"/>
        <path d="M9.465 2.273c.844-2.347 4.201-2.377 5.065-.012l.075.218a1.695 1.695 0 0 0 2.291.945l.175-.087c2.268-1.083 4.68 1.29 3.595 3.59l-.048.096a1.696 1.696 0 0 0 .91 2.376l.201.068c2.346.844 2.376 4.2.002 5.068l-.207.07a1.696 1.696 0 0 0-.946 2.292l.086.175c1.084 2.267-1.289 4.678-3.59 3.594l-.182-.09a1.695 1.695 0 0 0-2.29.952l-.067.201c-.845 2.346-4.201 2.376-5.07.002l-.07-.207a1.695 1.695 0 0 0-2.291-.946l-.175.087c-2.267 1.083-4.679-1.29-3.594-3.59l.09-.182a1.697 1.697 0 0 0-.953-2.29l-.2-.068c-2.347-.844-2.377-4.2-.002-5.068l.207-.07a1.697 1.697 0 0 0 .946-2.292l-.087-.175c-1.083-2.267 1.29-4.678 3.59-3.594l.182.09a1.695 1.695 0 0 0 2.289-.952zm4.09.239c-.605-1.413-2.698-1.339-3.178.187l-.037.107a2.696 2.696 0 0 1-3.771 1.47l-.08-.04c-1.457-.687-2.971.882-2.214 2.335l.05.102a2.697 2.697 0 0 1-1.627 3.705l-.095.033c-1.508.55-1.464 2.722.095 3.213l.107.036a2.697 2.697 0 0 1 1.47 3.772l-.04.08c-.687 1.457.882 2.971 2.335 2.214l.102-.05a2.695 2.695 0 0 1 3.705 1.627l.032.095c.55 1.507 2.724 1.463 3.214-.095l.037-.107a2.696 2.696 0 0 1 3.77-1.47l.08.04c1.458.687 2.973-.882 2.216-2.335l-.05-.102a2.696 2.696 0 0 1 1.627-3.705l.095-.032c1.507-.551 1.462-2.723-.095-3.214l-.108-.036a2.696 2.696 0 0 1-1.469-3.772l.04-.08c.687-1.457-.883-2.97-2.336-2.214l-.102.05a2.695 2.695 0 0 1-3.705-1.627l-.034-.1zm.033 10.93a1.75 1.75 0 1 1-.075.072zm1.693.779a.75.75 0 1 0-1.06 1.059.75.75 0 0 0 1.06-1.06zm-.634-5.574.707.707-6 6-.708-.707 6-6zm-6.635-.634a1.75 1.75 0 1 1 2.475 2.474 1.75 1.75 0 0 1-2.475-2.474zm1.71.656a.75.75 0 1 0 .058.051z" fill="#616161" fill-rule="nonzero"/>
    </g>
</svg>
