<svg width="24" height="24" viewBox="0 0 24 24" xmlns="http://www.w3.org/2000/svg">
    <g fill="none" fill-rule="evenodd">
        <path d="M0 0h24v24H0z"/>
        <path d="m12.259 2.25 7.825 4.754H22.5l.5.502v2.467l-.5.502h-.913v7.803h.913l.5.503v2.467l-.5.502h-21l-.5-.502v-2.467l.5-.502 1.472-.001v-7.803H1.5L1 9.973V7.506l.5-.502h2.415l7.826-4.754h.518zm9.74 17.032H2v1.464h20v-1.464zM5.258 10.475H3.972v7.804h1.286l-.001-7.804zm5.11 0H9.082v7.804h1.286l-.001-7.804zm5.11 0h-1.286v7.804h1.286v-7.804zm5.11 0h-1.285v7.804h1.285v-7.804zm-12.505 0H6.257v7.803h1.825v-7.803zm5.11 0h-1.824v7.803h1.824v-7.803zm5.11 0h-1.825v7.803h1.825v-7.803zM22 8.008H2V9.47h20V8.008zM12 3.266 5.846 7.003h12.308L12 3.266z" fill="#616161" fill-rule="nonzero"/>
    </g>
</svg>
