<svg width="32" height="32" viewBox="0 0 32 32" xmlns="http://www.w3.org/2000/svg">
    <g fill="none" fill-rule="evenodd">
        <path d="M0 0h32v32H0z"/>
        <path d="M15.93 27.996c2.612.035 5.369-.142 7.545-.449 8.397-1.184 8.459-3.328 8.459-3.328.776-2.653-5.5-2.815-5.932-2.967 1.885.66 2.303.845 2.586.975 2.892 1.302-1.98 2.622-1.98 2.622-2.536.66-6.845 1.096-10.663 1.065h.11c-3.818.03-8.125-.405-10.663-1.065 0 0-4.869-1.32-1.98-2.622.285-.13.7-.316 2.587-.975-.432.152-6.708.314-5.933 2.967 0 0 .063 2.144 8.46 3.328 2.176.307 4.934.484 7.543.449h-.138z" fill="#003875"/>
        <path d="M16.462 15.059c-1.498 0-2.714 1.198-2.714 2.673 0 1.476 1.216 2.676 2.714 2.676s2.713-1.2 2.713-2.676c0-1.475-1.215-2.673-2.713-2.673zm1.146-2.414c2.25.578 3.912 2.593 3.912 4.994 0 2.847-2.342 5.156-5.237 5.156-2.888 0-5.232-2.309-5.232-5.156 0-2.394 1.652-4.404 3.893-4.988V5.505h-4.702V3h7.372l-.006 9.645z" fill="#EC2124"/>
    </g>
</svg>
