<svg width="32" height="32" viewBox="0 0 32 32" xmlns="http://www.w3.org/2000/svg">
    <g fill="none" fill-rule="evenodd">
        <path d="M22.725 20.444s-.706.593-.462 2.368c0 0 1.681.247 2.603-1.031 0 0-1.325-.211-2.321.752 0 0 .65-1.156.18-2.09m-.783 1.06s-.71.488-.694 2.28c0 0 1.654.563 2.733-.588 0 0-1.324-.471-2.434.357 0 0 .742-1.064.395-2.05m1.867-9.061s-.066.994 1.181 2.029c0 0 1.051-.815.83-2.5 0 0-.767.687-.818 2.071 0 0-.209-1.252-1.193-1.6m-2.715 10.127s-.873.335-1.081 2.114c0 0 1.567.692 2.78-.283 0 0-1.232-.598-2.437.084 0 0 .957-.894.738-1.915m-1.22.826s-.865.323-1.225 2.078c0 0 1.502.793 2.8-.107 0 0-1.182-.638-2.44-.06 0 0 .997-.876.864-1.911m5.168-7.811s-.26-1.302-1.223-1.705c0 0-.151.91 1.19 2.1 0 0 1.437-.906 1.305-2.48 0 0-1.143.705-1.272 2.085m-1.795 6.12s1.7-.03 2.4-1.444c0 0-1.341.011-2.166 1.123 0 0 .452-1.247-.163-2.09 0 0-.6.7-.07 2.41m1.82-9.881c-.062-.463-.248-.855-.479-1.07-.166.267-.241.694-.178 1.159.062.465.247.856.478 1.072.166-.27.241-.696.18-1.161m-1.014 8.622s1.673-.301 2.14-1.807c0 0-1.323.223-1.96 1.454 0 0 .247-1.304-.496-2.038 0 0-.48.787.316 2.39m-.074-3.74s-.383.839.605 2.334c0 0 1.622-.502 1.902-2.056 0 0-1.286.384-1.767 1.684 0 0 .085-1.324-.74-1.963m1.03.416s-.128-1.321-1.046-1.818c0 0-.242.89.973 2.208 0 0 1.52-.757 1.548-2.334 0 0-1.208.585-1.476 1.944M13.35 25.472c-.36-1.755-1.224-2.078-1.224-2.078-.133 1.035.865 1.91.865 1.91-1.26-.577-2.44.061-2.44.061 1.297.9 2.8.107 2.8.107m-5.937-6.436c.988-1.495.605-2.335.605-2.335-.825.639-.74 1.963-.74 1.963-.481-1.3-1.767-1.684-1.767-1.684.28 1.554 1.902 2.056 1.902 2.056m-.422-3.058c1.34-1.19 1.19-2.1 1.19-2.1-.964.403-1.224 1.705-1.224 1.705-.13-1.38-1.271-2.085-1.271-2.085-.133 1.574 1.305 2.48 1.305 2.48m-.813-4.007c-.221 1.684.83 2.499.83 2.499C8.256 13.435 8.19 12.44 8.19 12.44c-.984.348-1.193 1.6-1.193 1.6-.051-1.384-.818-2.07-.818-2.07m1.41-.061c.063-.465-.011-.892-.178-1.16-.23.216-.415.608-.479 1.07-.062.466.013.892.179 1.162.231-.216.417-.607.478-1.072m10.294-7.556-.212.499c2.443.363 4.63 1.51 6.298 3.177A11.237 11.237 0 0 1 27.27 16c0 3.114-1.26 5.93-3.3 7.971a11.236 11.236 0 0 1-6.011 3.127 27.505 27.505 0 0 1-1.526-.471c.393-.15.768-.304 1.129-.462.402.194 1.332.524 2.358.071 0 0-.884-.775-2.125-.314 0 0 .898-.684.749-1.778-.115.089-.766.534-1.154 1.776-.438.192-.9.376-1.39.554-.49-.178-.953-.362-1.39-.554-.389-1.242-1.04-1.687-1.155-1.776-.149 1.094.749 1.778.749 1.778-1.241-.46-2.124.314-2.124.314 1.025.453 1.956.123 2.358-.071.36.158.735.312 1.128.462-.482.165-.99.322-1.526.47a11.237 11.237 0 0 1-6.01-3.126 11.24 11.24 0 0 1-3.301-7.97c0-3.114 1.262-5.93 3.301-7.971a11.244 11.244 0 0 1 6.298-3.177l-.211-.5c-5.62.901-9.915 5.773-9.915 11.648 0 5.665 3.995 10.397 9.321 11.535 0 0 1.193-.285 2.477-.75 1.283.465 2.476.75 2.476.75 5.326-1.138 9.322-5.87 9.322-11.535 0-5.875-4.294-10.747-9.915-11.647M7.945 20.443c.796-1.604.316-2.391.316-2.391-.743.734-.495 2.038-.495 2.038-.637-1.231-1.961-1.454-1.961-1.454.468 1.506 2.14 1.807 2.14 1.807m2.806 3.34c.017-1.792-.694-2.28-.694-2.28-.347.985.396 2.05.396 2.05-1.111-.83-2.435-.358-2.435-.358 1.079 1.15 2.733.588 2.733.588m-1.015-.971c.245-1.775-.462-2.368-.462-2.368-.47.933.181 2.09.181 2.09-.996-.964-2.32-.753-2.32-.753.921 1.278 2.601 1.03 2.601 1.03m2.25 1.87c-.208-1.778-1.08-2.113-1.08-2.113-.22 1.021.737 1.915.737 1.915-1.204-.682-2.438-.084-2.438-.084 1.214.975 2.781.283 2.781.283m-4.924-7.175c1.215-1.319.973-2.208.973-2.208-.918.497-1.045 1.818-1.045 1.818-.268-1.36-1.476-1.944-1.476-1.944.027 1.577 1.548 2.334 1.548 2.334m1.69 4.195c.53-1.71-.07-2.41-.07-2.41-.615.843-.163 2.09-.163 2.09-.825-1.112-2.166-1.123-2.166-1.123.7 1.414 2.4 1.443 2.4 1.443m18.188 5.24A15.427 15.427 0 0 1 16 31.474a15.43 15.43 0 0 1-10.942-4.532A15.427 15.427 0 0 1 .526 16c0-4.273 1.732-8.14 4.532-10.941A15.427 15.427 0 0 1 16 .527c4.273 0 8.14 1.732 10.941 4.532A15.428 15.428 0 0 1 31.474 16a15.427 15.427 0 0 1-4.533 10.942M16 0C7.163.001 0 7.164 0 16c0 8.837 7.163 16 16 16 8.836 0 15.999-7.163 16-16C31.999 7.164 24.836.001 16 0" fill="#437EC0"/>
        <path d="M4.25 21.849c.222-.116.232-.138.194-.257l-.023-.073c.005-.027.06-.053.085-.04a10.563 10.563 0 0 0 .37.717c-.004.026-.06.054-.083.043l-.046-.06c-.076-.1-.1-.106-.323.01l-.874.451c-.223.116-.233.138-.195.257l.022.073c-.004.026-.059.055-.082.043-.062-.13-.121-.251-.18-.365a13.795 13.795 0 0 0-.192-.355c.004-.025.059-.054.083-.043l.047.06c.074.1.099.105.321-.01l.875-.451zM3.27 19.539c.164-.057.323-.111.406-.144.035.007.088.068.108.13.001.001-.1.13-.205.298l-.525.832c-.13.208-.208.328-.23.386.03.004.073-.01.167-.042l.491-.167c.204-.071.391-.145.45-.197.045-.041.043-.105.03-.174l-.014-.074c.014-.027.069-.041.089-.03a5.946 5.946 0 0 0 .213.622c-.01.02-.062.043-.09.03l-.021-.04c-.036-.064-.071-.11-.131-.111-.079-.004-.27.053-.476.123l-.643.219c-.138.047-.178.064-.208.091-.037.035-.055.08-.038.173l.014.075c-.014.024-.075.042-.09.02a9.863 9.863 0 0 0-.112-.351 2.344 2.344 0 0 0-.081-.211c.105-.064.242-.294.434-.614l.179-.299c.094-.156.157-.26.195-.337-.029-.002-.072.013-.118.028l-.349.12c-.205.069-.39.144-.45.195-.046.04-.044.103-.031.175l.014.071c-.014.027-.068.04-.088.03-.043-.138-.073-.238-.11-.341a4.221 4.221 0 0 0-.104-.282c.01-.02.062-.043.09-.03l.022.044c.033.062.07.104.13.108.078.004.27-.05.476-.12l.606-.206zM1.559 17.302c.048-.008.258-.047.409-.093.034.006.054.076.033.099-.236.107-.343.295-.306.551.043.294.34.572.867.496.528-.077.766-.423.72-.74-.047-.321-.299-.435-.49-.481-.024-.018-.026-.082.004-.102.199-.01.363.01.43.038.06.138.146.317.176.524.038.26.017.533-.097.74a.838.838 0 0 1-.644.438.886.886 0 0 1-.748-.217c-.184-.165-.302-.423-.342-.699-.04-.27-.005-.475-.012-.554M2.416 15.688c-.005.11-.003.112.073.115l.384.018c.248.01.274-.005.294-.124l.015-.085c.017-.02.079-.018.094.004-.012.152-.02.286-.027.406-.004.129-.008.262-.01.398-.017.02-.078.018-.092-.004l-.006-.064c-.01-.124-.037-.139-.285-.149l-.994-.045c-.248-.011-.275 0-.296.123l-.01.064c-.018.02-.08.017-.095-.004a9.977 9.977 0 0 0 .034-.77c.017-.02.078-.017.094.004l.005.057c.011.116.038.133.286.144l.31.014c.077.003.08 0 .085-.108l.024-.556c.005-.113.003-.113-.075-.116l-.31-.015c-.248-.01-.27.002-.294.124l-.015.073c-.016.02-.077.017-.093-.005a8.748 8.748 0 0 0 .035-.783c.018-.02.079-.018.094.005l.006.053c.013.124.036.141.284.152l.994.045c.248.01.267-.004.294-.126l.014-.064c.017-.02.078-.017.094.004a8.84 8.84 0 0 0-.035.78c-.017.021-.079.018-.094-.004l-.005-.06c-.01-.123-.037-.138-.286-.148l-.383-.018c-.076-.003-.078-.003-.084.109l-.024.556zM2.51 13.068c.072.017.078.016.093-.056l.04-.18c.03-.135.02-.17-.1-.225l-.06-.027c-.018-.023-.004-.088.023-.096a5.329 5.329 0 0 0 .552.124c.022.019.009.084-.018.097l-.068-.001c-.131-.002-.16.024-.19.16l-.04.18c-.016.07-.014.074.064.091l.31.07c.12.027.207.035.258.014.054-.024.087-.069.13-.26.05-.226.062-.317-.2-.526-.025-.028.001-.09.035-.093.132.04.33.15.392.202-.036.138-.095.387-.143.602l-.075.339c-.03.125-.054.253-.094.45-.02.017-.082.004-.091-.02l.009-.127c.008-.121-.004-.14-.244-.195l-.973-.218c-.238-.053-.257-.041-.307.071l-.028.062c-.02.02-.08.004-.089-.025.032-.122.064-.25.092-.374l.124-.554c.038-.167.068-.316.071-.35.042.006.235.03.412.057.026.016.018.076-.012.098a.627.627 0 0 0-.227.053c-.061.038-.11.11-.139.237l-.046.209c-.02.086-.015.087.08.109l.458.102zM2.7 10.422c-.128.304.087.586.499.759.301.126.83.221.997-.18.136-.322-.127-.581-.527-.748-.422-.177-.842-.136-.97.169m1.104-.577c.537.226.709.721.487 1.25-.208.495-.684.72-1.2.503-.488-.204-.712-.727-.495-1.242.215-.514.707-.721 1.208-.511M5.458 8.033c.144.097.285.191.362.235.015.034-.002.112-.038.165-.002.003-.164 0-.364.018l-.978.086c-.244.023-.387.033-.447.05.015.027.053.052.135.107l.43.29c.18.12.353.223.428.24.061.011.11-.03.158-.082l.05-.055c.03-.006.074.029.079.052a6.377 6.377 0 0 0-.367.546c-.022.004-.072-.023-.077-.053l.018-.042c.029-.068.043-.122.009-.171-.044-.065-.206-.183-.386-.304l-.563-.379c-.123-.082-.16-.104-.2-.111-.049-.008-.096.005-.16.076l-.05.056c-.029.003-.081-.035-.073-.061a8.03 8.03 0 0 0 .214-.302c.05-.076.092-.141.118-.19.115.044.38.013.752-.027l.345-.04c.18-.019.302-.03.387-.048a.39.39 0 0 0-.094-.076l-.306-.206c-.18-.12-.353-.223-.428-.24-.06-.01-.109.028-.158.082l-.05.054c-.029.005-.072-.03-.076-.053.085-.117.145-.202.206-.293.055-.082.107-.163.16-.253.022-.005.072.022.078.053l-.02.044c-.03.064-.041.118-.008.169.044.064.204.186.384.307l.53.356zM7.97 5.51c.113.133.222.26.284.324.007.036-.031.108-.08.15-.003.001-.157-.045-.354-.08l-.966-.18c-.241-.043-.382-.07-.445-.07a.503.503 0 0 0 .101.139l.338.393c.14.165.28.31.349.347.054.026.113 0 .173-.037l.064-.041c.03.003.063.049.061.071-.113.09-.195.158-.277.228a4.64 4.64 0 0 0-.222.2c-.023-.001-.064-.041-.06-.07l.029-.037c.046-.056.074-.105.054-.162-.025-.074-.15-.232-.29-.396l-.442-.515c-.096-.111-.126-.143-.162-.16-.046-.021-.095-.021-.175.03l-.064.04c-.028-.004-.068-.054-.052-.078.099-.077.201-.162.285-.234.068-.06.127-.112.165-.152.098.073.363.115.73.176l.344.054c.18.029.3.05.386.056-.01-.027-.04-.06-.07-.098l-.24-.28c-.141-.164-.28-.31-.35-.346-.054-.026-.11-.002-.173.037l-.06.039c-.032-.002-.064-.048-.062-.07.113-.092.195-.157.278-.228.075-.065.147-.13.22-.202.023.003.064.042.062.071l-.031.039c-.046.052-.07.102-.052.16.024.074.147.233.288.398l.415.485zM9.152 4.388c.053-.031.06-.045.007-.094l-.17-.152c-.092-.079-.177-.156-.227-.192.007.064.028.183.056.31l.044.206c.017.074.032.074.09.04l.2-.118zm-.174.268c-.056.032-.06.038-.049.09l.073.318a.32.32 0 0 0 .033.092c.008.013.035.017.105-.01l.077-.03c.023.009.059.059.042.084-.083.043-.175.097-.272.153-.078.046-.128.083-.233.146-.034.002-.06-.047-.055-.076l.058-.043c.051-.04.086-.085.072-.2-.015-.114-.04-.249-.075-.452l-.125-.683c-.033-.176-.037-.283-.083-.346.095-.09.114-.254.118-.256.03-.018.05-.014.08.015.058.056.136.124.29.254l.847.716c.13.11.182.15.276.113l.095-.037c.02.004.058.056.045.082-.112.06-.238.131-.357.203a8.288 8.288 0 0 0-.308.19c-.034.001-.066-.044-.052-.077l.067-.055c.048-.041.048-.063.04-.077a1.346 1.346 0 0 0-.138-.13l-.18-.161c-.032-.03-.052-.024-.134.024l-.257.153zM10.474 2.809c-.024-.06-.029-.073-.089-.048l-.153.062c-.181.073-.193.193-.194.405-.024.026-.072.04-.1.015-.019-.193-.067-.352-.09-.455a.062.062 0 0 1 .03-.027.06.06 0 0 1 .038-.004c.03.038.042.044.23-.032l.922-.373c.164-.066.2-.085.2-.145a.064.064 0 0 1 .03-.02c.015-.007.036-.004.044.001.01.094.074.302.136.441-.003.029-.068.06-.088.045-.107-.141-.19-.244-.374-.168l-.15.06c-.06.024-.063.034-.037.099l.443 1.093c.092.23.116.244.233.215l.104-.028c.024.008.047.064.036.086a12.654 12.654 0 0 0-.818.332c-.026-.007-.05-.064-.035-.087l.106-.058c.106-.057.112-.086.019-.316l-.443-1.093zM12.988 3.22c.062.244.083.258.207.249l.075-.005c.025.01.038.07.02.09a11.304 11.304 0 0 0-.782.198c-.025-.01-.04-.07-.022-.09l.068-.032c.114-.05.125-.073.064-.316l-.24-.955c-.062-.244-.083-.258-.207-.248l-.075.005c-.025-.01-.04-.07-.023-.09.141-.032.271-.06.396-.093.121-.03.25-.065.39-.106.024.01.04.07.023.091l-.07.031c-.114.051-.125.073-.064.317l.24.954zM14.65 1.64c-.328.03-.475.353-.434.798.03.325.193.836.627.796.35-.032.454-.386.414-.817-.043-.455-.277-.808-.607-.777m1.028.702c.055.581-.302.966-.873 1.019-.536.05-.958-.266-1.009-.821-.05-.529.307-.973.863-1.024.555-.052.97.286 1.02.826M18.055 2.95c-.018.173-.034.34-.038.43-.022.03-.099.051-.163.044-.003 0-.077-.144-.187-.311l-.536-.824c-.136-.204-.213-.324-.256-.37-.017.026-.02.07-.031.17l-.051.516c-.023.215-.032.415-.01.49.017.059.077.084.145.101l.074.019c.018.023.008.079-.01.092a8.237 8.237 0 0 0-.654-.066c-.014-.017-.014-.074.009-.093l.046-.003c.074-.006.128-.02.155-.073.037-.07.065-.268.087-.483l.068-.676c.015-.146.017-.189.004-.227-.016-.049-.05-.084-.142-.106l-.074-.019c-.016-.023-.007-.087.02-.092.125.018.258.034.367.045.09.01.168.014.224.015.015.122.167.342.377.65l.197.286c.104.151.171.252.226.319.014-.026.018-.07.023-.118l.037-.368c.022-.215.032-.416.01-.49-.02-.059-.075-.084-.146-.101l-.07-.018c-.02-.023-.01-.078.008-.093a8 8 0 0 0 .655.066c.014.017.014.073-.01.093l-.048.003c-.07.004-.123.02-.152.074-.037.068-.068.268-.09.483l-.064.635zM19.644 3.02c.059.017.074.013.072-.06l-.009-.227c-.005-.121-.01-.236-.018-.297a3.6 3.6 0 0 0-.184.255l-.118.174c-.043.064-.032.076.033.093l.224.062zm-.313.06c-.062-.017-.071-.016-.1.028l-.18.272a.342.342 0 0 0-.043.088c-.004.015.013.037.081.07l.074.034c.01.022 0 .083-.031.09-.088-.031-.192-.06-.3-.093-.087-.024-.147-.032-.267-.066-.024-.023-.005-.076.018-.092l.071.012c.064.008.122.003.194-.085.072-.091.153-.202.274-.368l.407-.564c.104-.146.178-.222.19-.3.133.006.262-.094.268-.092.033.01.046.026.045.068 0 .08.005.184.018.385l.069 1.108c.012.17.019.236.11.277l.094.043c.011.017-.001.08-.03.088a8.238 8.238 0 0 0-.744-.207c-.024-.022-.013-.078.02-.09l.087.01c.062.006.077-.01.081-.025a1.183 1.183 0 0 0 0-.19l-.008-.24c-.001-.045-.02-.056-.11-.08l-.288-.08zM21.376 3.964c-.052.115-.078.197-.063.25.012.056.047.095.224.176.222.1.294.124.565-.093.031-.015.082.02.086.057-.07.121-.22.297-.283.347a20.87 20.87 0 0 0-.56-.263l-.326-.148c-.111-.051-.234-.104-.387-.167-.016-.025.005-.083.032-.09l.098.03c.115.036.138.023.24-.204l.412-.905c.104-.226.1-.255-.004-.319l-.066-.042c-.018-.026.008-.082.043-.082.125.061.245.12.362.172.118.053.24.106.364.157.013.023-.013.08-.039.085l-.068-.019c-.117-.033-.14-.02-.243.206l-.387.852zM24.26 4.53c.157-.194.155-.216.075-.31l-.043-.053c-.007-.025.027-.073.06-.067a9.063 9.063 0 0 0 .61.487c.007.026-.03.072-.057.07l-.056-.03c-.108-.059-.134-.052-.29.143l-.385.482c-.195.244-.384.535-.067.79.269.213.537.044.766-.242l.202-.253c.135-.169.254-.335.273-.407.017-.06-.018-.108-.066-.164l-.048-.056c-.004-.03.033-.068.056-.07a6.124 6.124 0 0 0 .514.41c.003.023-.026.068-.057.072l-.044-.022c-.064-.03-.113-.05-.168-.022-.066.036-.202.189-.337.358l-.186.234c-.158.196-.32.36-.537.396-.17.025-.365-.044-.534-.18-.159-.127-.28-.266-.32-.447-.037-.178.04-.368.223-.597l.417-.521zM26.465 7.938c-.132.114-.26.224-.322.285-.037.007-.109-.03-.15-.078-.001-.004.044-.159.08-.356l.175-.967c.042-.24.07-.382.068-.444-.029.007-.064.037-.138.102l-.393.338c-.164.142-.309.281-.345.35-.026.056 0 .114.037.174l.041.064c-.002.03-.048.063-.07.06a8.631 8.631 0 0 0-.23-.276 5.804 5.804 0 0 0-.2-.221c.001-.023.04-.064.07-.061l.036.028c.058.047.106.075.163.055.074-.025.231-.15.395-.291l.514-.444c.112-.097.141-.126.16-.163.02-.046.02-.096-.031-.175l-.04-.064c.003-.028.053-.068.078-.053a9.4 9.4 0 0 0 .234.285c.06.069.112.125.153.165-.073.098-.114.362-.173.732l-.053.343c-.03.18-.05.3-.056.387a.36.36 0 0 0 .098-.07l.28-.242c.164-.142.308-.28.344-.35.027-.055.003-.113-.037-.173l-.038-.062c.003-.03.048-.062.07-.061a6.374 6.374 0 0 0 .43.498c-.001.022-.04.063-.07.06l-.038-.03c-.054-.046-.103-.07-.161-.052-.074.025-.233.148-.397.29l-.484.417zM27.176 9.113c-.213.135-.22.159-.173.274l.03.07c-.003.027-.056.058-.08.049a10.809 10.809 0 0 0-.434-.683c.002-.025.054-.058.078-.05l.052.056c.084.093.109.097.32-.039l.83-.527c.213-.136.22-.16.172-.275l-.03-.07c.004-.026.055-.06.08-.05a9.593 9.593 0 0 0 .435.684c-.002.026-.054.06-.078.05l-.053-.056c-.083-.093-.108-.096-.32.039l-.83.528zM28.316 10.71c-.351.012-.573.035-.735.042a.176.176 0 0 1-.058-.076.113.113 0 0 1-.011-.074c.053-.057.163-.158.23-.23l.805-.85c.19-.2.19-.214.173-.3l-.02-.11c.018-.031.064-.044.086-.028.055.125.087.207.146.334.051.11.102.214.175.36-.006.026-.052.045-.081.041l-.048-.066c-.03-.04-.053-.05-.074-.04a2.14 2.14 0 0 0-.222.22l-.448.468c-.074.074-.118.125-.152.16.05 0 .13 0 .215-.005l.27-.016c.181-.01.5-.033.596-.043a.359.359 0 0 0 .098-.015c.018-.008.024-.02.011-.085l-.014-.078c.01-.029.06-.052.085-.029.048.116.089.21.131.302.04.082.075.154.112.223 0 .023-.057.052-.08.042l-.041-.057c-.044-.063-.08-.086-.147-.095a2.97 2.97 0 0 0-.5-.012l-.502.016zM29.262 12.158c-.072.02-.076.024-.056.094l.05.177c.037.135.064.16.195.151l.068-.005c.025.013.043.077.024.096a5.136 5.136 0 0 0-.546.154c-.026-.007-.047-.07-.028-.095l.06-.03c.116-.062.129-.098.09-.232l-.05-.177c-.019-.07-.023-.071-.1-.05l-.306.087c-.119.033-.198.066-.233.11-.037.047-.043.101.009.288.064.224.096.31.427.37.034.012.042.08.014.098a1.497 1.497 0 0 1-.442.008 21.71 21.71 0 0 0-.16-.596l-.095-.334c-.035-.124-.073-.25-.133-.442.01-.024.072-.041.09-.025l.053.116c.05.11.07.122.307.056l.96-.272c.234-.066.246-.086.235-.208l-.005-.068c.01-.028.07-.041.092-.02.028.122.062.249.096.373l.155.546c.046.165.09.31.105.342-.04.014-.221.085-.39.146-.031-.002-.054-.06-.037-.092a.644.644 0 0 0 .176-.155c.035-.062.044-.148.009-.275l-.058-.206c-.025-.085-.03-.084-.125-.057l-.45.127zM29.617 14.225c-.093.01-.1.02-.082.176.011.096.041.15.097.194.05.04.142.08.299.063.238-.028.377-.185.353-.393-.012-.11-.021-.114-.149-.098l-.518.058zm.296-.403c.266-.03.294-.038.298-.151l.003-.073c.01-.029.076-.037.093-.006.035.199.07.404.1.657.025.225.012.423-.038.531a.439.439 0 0 1-.366.279c-.236.027-.355-.121-.43-.236-.016-.025-.033-.024-.06-.007-.336.215-.524.347-.618.487a.331.331 0 0 0-.054.187c-.01.025-.05.03-.068.018a.625.625 0 0 1-.047-.207c-.028-.244.041-.408.22-.547.13-.101.253-.177.388-.253.068-.041.084-.086.076-.152-.01-.093-.016-.098-.07-.093l-.326.039c-.245.027-.261.045-.27.167l-.004.073c-.012.02-.075.028-.093.01a9.972 9.972 0 0 0-.088-.778c.013-.023.076-.03.092-.01l.021.07c.035.117.056.132.3.103l.941-.108zM28.688 16.397a.94.94 0 0 1 .119-.451c.061-.049.255-.076.437-.068.034.019.034.08.004.1-.176.048-.429.218-.438.445-.007.197.126.293.26.298.216.01.352-.19.438-.347.104-.189.272-.394.537-.383.301.01.5.252.486.64a1.065 1.065 0 0 1-.055.302.764.764 0 0 0-.024.09c-.06.02-.205.041-.384.034-.032-.015-.032-.08-.005-.105.139-.04.339-.147.346-.34.007-.176-.104-.277-.238-.282-.123-.004-.24.1-.314.232l-.1.172c-.096.163-.258.367-.552.357-.33-.013-.533-.291-.517-.694M28.933 18.247c-.248-.04-.268-.027-.309.092l-.025.071c-.02.02-.08.007-.092-.017.028-.142.05-.271.071-.395.02-.127.038-.26.056-.402.019-.019.079-.01.093.014v.076c.003.125.018.144.266.183l.973.156c.248.04.269.026.309-.091l.025-.072c.019-.019.08-.01.092.014-.027.142-.051.273-.072.4-.02.125-.038.256-.055.4-.02.019-.08.01-.093-.014l-.001-.077c-.002-.124-.018-.144-.266-.182l-.972-.156zM29.746 19.95c.062.018.074.022.093-.04l.047-.158c.056-.187-.03-.272-.195-.405-.006-.035.015-.082.052-.088.161.107.315.167.41.215a.069.069 0 0 1 .002.04.055.055 0 0 1-.02.033c-.047 0-.061.004-.12.2l-.285.952c-.05.17-.06.209-.012.248a.074.074 0 0 1-.002.035.062.062 0 0 1-.03.033 1.871 1.871 0 0 0-.43-.171c-.018-.019-.002-.09.022-.096.176.005.308.005.365-.187l.046-.153c.019-.062.013-.072-.053-.092l-1.13-.339c-.239-.071-.264-.062-.313.049l-.044.098c-.021.014-.08-.004-.09-.026a13.24 13.24 0 0 0 .253-.846c.023-.015.081.002.09.027l-.021.12c-.021.118-.003.14.235.212l1.13.339zM27.708 21.932c-.223-.108-.25-.104-.316-.002l-.06.09c-.022.01-.077-.017-.084-.04a10.904 10.904 0 0 0 .373-.768c.025-.012.079.014.084.04l-.028.088c-.035.117-.025.139.198.248l.121.058c.12.058.16.075.318.074l.73.001c.121 0 .17-.003.226-.08l.054-.074c.03-.013.086.017.079.05a7.881 7.881 0 0 0-.335.69c-.02.017-.077-.005-.086-.036l.02-.091c.012-.048.01-.067.007-.068a.695.695 0 0 0-.2-.02l-.311-.011a10.433 10.433 0 0 0-.289-.004c.084.126.191.261.282.386.126.175.189.247.218.26.015.008.035-.012.074-.066l.035-.05c.022-.013.083.014.083.044a6.96 6.96 0 0 0-.138.266 3.19 3.19 0 0 0-.106.24c-.024.023-.082-.004-.09-.033l.019-.068c.014-.046.02-.1-.002-.143a2.842 2.842 0 0 0-.238-.378l-.2-.284a.585.585 0 0 0-.269-.237l-.169-.082zM17.823 21.613v.241h-3.708v-.241c.572-.065.854-.386.883-.768h-4.427c1.035 1.344 2.709 2.709 5.396 3.658 2.688-.949 4.361-2.314 5.396-3.658H16.94c.028.382.312.703.883.768zm-2.822-7.538H8.963v2.594c0 .142.01.322.037.534H15v-3.128zm0 3.385H9.04c.138.806.501 1.948 1.342 3.128h4.62V17.46zm1.936 3.128h4.616c.842-1.18 1.204-2.322 1.343-3.128h-5.96v3.128zm1.933-9.752-.531 1h-4.74l-.531-1H8.963v2.982h6.035c-.028-.382-.31-.704-.883-.768v-.241h3.708v.24c-.572.065-.855.387-.883.77h6.032v-2.983H18.87zm-1.933 6.367h5.997c.027-.212.038-.392.038-.534v-2.594h-6.035v3.128zm2.168-6.81.516-.974h-7.307l.515.974h6.276zM16.373 8.93c-.045.017-.046.057-.001.064.648.012 1.247-.259 1.608-.735.316-.416.397-.92.23-1.424-.238-.72-.829-1.083-1.332-1.496-.59-.48-.947-.858-1.03-1.47-.014-.099-.05-.087-.091-.006-.587 1.206.345 1.74 1.06 2.723.902 1.243-.021 2.155-.444 2.344zm-.952.21c.078.01.22.022.309.022.11.005.095-.066.042-.095-.82-.486-1.206-1.054-1.167-1.604a1.06 1.06 0 0 1 .423-.779.56.56 0 0 0 .015.328c.064.168.188.248.421.381.525.3.397.724.142.878l.002.003c-.044.02-.049.066.008.063.23-.021.453-.153.668-.414.143-.176.295-.477.21-.919-.13-.66-.675-1.028-1.092-1.27-.083-.05-.157-.093-.213-.131-.058-.035-.16-.069-.128.043.14.42-.11.59-.473.84-.215.145-.456.311-.654.557-.365.446-.32.835-.216 1.08.215.519.885.918 1.703 1.017z" fill="#03499A"/>
        <path d="M12.774 15.505v-.421h.262c.128 0 .17.098.172.2-.002.124-.058.221-.175.221h-.259zm.394.394c.018.2.002.396.062.515l.009.018h.262l-.012-.04a2.167 2.167 0 0 1-.051-.39c-.003-.24-.058-.349-.172-.394a.363.363 0 0 0 .2-.345c0-.197-.107-.408-.394-.408h-.552v1.577h.254v-.698h.197c.065.004.183.003.197.165zm.707.533h.255v-1.577h-.255v1.577zm-3.253-.022.455-1.555h-.262l-.333 1.251-.325-1.251h-.274l.456 1.577h.277l.006-.022zm7.753-.208h-.557v-1.347h-.254v1.577h.811v-.23zm2.852 0h-.6v-.464h.545v-.229h-.545v-.425h.588v-.23h-.843v1.577h.855v-.23zm-9.043 0h-.6v-.464h.546v-.228h-.546v-.426h.588v-.23h-.842v1.578h.854v-.23zm7.214 0v-.481h.176c.196.007.312.03.315.254-.002.099-.06.226-.248.227h-.243zm0-1.118h.243c.147.002.2.083.202.198-.004.136-.058.206-.195.21h-.25v-.408zm.572 1.275c.102-.063.178-.183.177-.384.003-.185-.076-.322-.241-.375.14-.065.194-.195.19-.358a.428.428 0 0 0-.065-.218c-.057-.09-.147-.172-.363-.17h-.524v1.578h.518c.088-.001.207-.01.308-.073zm2-.854h-.26v-.421h.261c.128 0 .17.098.173.2-.002.124-.058.221-.174.221zm.455.886a2.358 2.358 0 0 1-.052-.388c-.003-.242-.057-.35-.17-.395a.361.361 0 0 0 .2-.345c0-.197-.108-.408-.394-.408h-.553v1.577h.254v-.698h.196c.065.004.185.003.198.165.018.2.002.396.063.515l.008.018h.262l-.012-.04zm-3.851.04h.254v-1.576h-.254v1.576zm.817 2.791.2-.678.204.678h-.404zm.06-.986-.006.021-.493 1.555h.26l.113-.36h.54l.109.36h.282l-.514-1.576h-.29zm-1.584.229h.399v1.348h.254v-1.348h.399v-.23h-1.052v.23zm-4.24.46c-.174-.09-.327-.16-.323-.3.002-.145.095-.188.203-.191.162.004.196.079.202.234v.041h.261l.001-.03v-.036c.001-.147-.04-.259-.119-.333-.08-.074-.193-.106-.33-.106-.265.001-.476.157-.477.443 0 .246.187.36.357.448.174.09.326.164.323.305-.003.163-.093.21-.24.215-.114-.004-.22-.05-.222-.24l-.001-.045v-.03h-.25l-.002.029-.001.044c0 .082.008.198.072.297.064.099.186.174.39.174h.012a.57.57 0 0 0 .347-.098c.095-.07.154-.188.154-.355 0-.258-.187-.376-.356-.465zm-1.619.297.198-.677.205.677h-.403zm.06-.986-.006.021-.494 1.556h.26l.113-.361h.54l.11.36h.281l-.514-1.576h-.29zm-1.584.229h.398v1.348h.255v-1.348h.4v-.23h-1.053v.23zm10.526.46c-.174-.09-.326-.16-.323-.3.002-.145.096-.188.202-.191.163.004.198.079.203.234v.04h.261l.001-.03.001-.034c0-.148-.04-.26-.12-.334-.08-.074-.193-.106-.331-.106-.265.001-.475.157-.475.442 0 .247.187.36.356.449.174.09.327.164.323.305-.002.163-.093.21-.24.215-.113-.004-.22-.05-.223-.24V19.3h-.25l-.002.029v.044c0 .082.007.198.072.297.064.099.185.174.39.174h.012a.565.565 0 0 0 .347-.098c.094-.07.154-.188.153-.355 0-.258-.186-.376-.357-.465z" fill="#FEFEFE"/>
        <path d="M8.225 25.643a.124.124 0 0 0-.043-.084l-.216-.199-.014.017c.003.036-.002.074-.059.136L6.84 26.658l.272.25 1.082-1.174a.112.112 0 0 0 .03-.091M5.708 26.35l.45-.488-.273-.25-.47.511a.184.184 0 0 0 .01.261L6.6 27.465l.146-.16-1.038-.955zM6.455 25.53c-.14-.129-.112-.385.063-.574.173-.19.427-.239.567-.11.14.128.112.385-.062.574-.174.189-.428.239-.568.11m.777-.844c-.29-.267-.732-.259-.987.018s-.227.718.064.985c.29.268.732.26.987-.018.254-.277.226-.718-.064-.985M10.171 29.4l.242-.617-.345-.135-.252.647a.184.184 0 0 0 .104.24l1.487.582.079-.202-1.315-.514zM10.976 28.022a.903.903 0 0 1 .042-.309l.522.204.078-.2-.525-.206.042-.107a.113.113 0 0 0-.004-.097.131.131 0 0 0-.07-.062l-.264-.103-.008.022c.015.031.025.07-.005.147l-.027.068-.516-.201-.079.201.512.2a.89.89 0 0 1-.178.255c-.156.15-.327.276-.735.339l.039.234a1.45 1.45 0 0 0 .87-.297c.04.253.166.54.438.807l.188-.144c-.258-.323-.306-.534-.32-.75" fill="#03499A"/>
        <path d="M12.26 27.827a.129.129 0 0 0-.07-.062l-.272-.107-.009.022c.015.032.025.07-.005.147l-.179.46-.47-.184-.08.201.47.185-.308.788.345.135.583-1.488a.117.117 0 0 0-.004-.097M17.023 28.396a.127.127 0 0 0-.088-.033h-.294v.024c.027.023.05.056.05.139v.593h-.203v-.635a.114.114 0 0 0-.037-.088.13.13 0 0 0-.09-.033h-.293v.024c.026.023.05.056.05.139v1.337c-.126.065-.326.075-.424.075h-.512v-1.26h.734v-.218H14.81v1.51c0 .101.082.184.184.184h.699c.098 0 .298-.009.423-.075v.76h.371v-1.503h.203v1.503h.37v-2.355a.115.115 0 0 0-.038-.088M21.418 27.875l-.202-.496a.114.114 0 0 0-.068-.067.13.13 0 0 0-.094.003l-.272.111.008.02c.034.013.067.034.1.111l.464 1.143.343-.14-.197-.485.385-.157-.081-.2-.386.157zM20.29 28.863c-.185.075-.379-.025-.457-.216-.077-.19-.008-.398.178-.474.186-.076.38.025.458.215.077.191.007.4-.178.475zm.315-1.19-.523.213-.042-.106a.114.114 0 0 0-.07-.068.127.127 0 0 0-.094.003l-.253.103.009.02c.033.014.067.035.099.112l.027.068-.523.213.082.2.195-.08a.53.53 0 0 0-.023.437c.122.3.519.424.884.276.365-.15.562-.514.44-.815a.536.536 0 0 0-.322-.296l.196-.08-.082-.2zM21.61 28.833l-1.432.582.082.201 1.257-.512.242.596.344-.14-.253-.626a.184.184 0 0 0-.24-.1M24.9 24.862l-1.264 1.097.142.164 1.124-.976.884 1.02.28-.243-.905-1.044a.183.183 0 0 0-.26-.018" fill="#03499A"/>
        <path d="m25.772 26.514-.493-.568a.117.117 0 0 0-.086-.042.125.125 0 0 0-.09.034l-.221.192.015.017c.036.002.074.01.128.072l.467.538-.246.213-.493-.567a.115.115 0 0 0-.087-.043.129.129 0 0 0-.089.034l-.221.193.014.017c.036 0 .075.01.129.073l.466.537-.365.316.141.163 1.862-1.615-.141-.163-.69.599z" fill="#03499A"/>
    </g>
</svg>
