<svg width="32" height="32" viewBox="0 0 32 32" xmlns="http://www.w3.org/2000/svg">
    <g fill="none" fill-rule="evenodd">
        <path fill="#82294E" d="M6.635 14.562v4.1h.8v-3.776h1.174v.436h.325v-.76zM9.994 14.562v4.1h.8v-3.776h1.174v.436h.324v-.76zM20.072 14.562v4.1h.799v-3.776h1.174v.436h.324v-.76zM23.43 14.562v4.1h.8v-3.776h1.174v.436h.325v-.76zM13.353 12.779v5.883h.8v-5.56h1.175v.437h.324v-.76zM16.713 12.779v5.883h.799v-5.56h1.174v.437h.325v-.76z"/>
        <path fill="#F29100" d="m22.912 9.763.12.832.856-.675.028.026-.677.856.833.123v.035l-.826.127.67.852-.028.025-.85-.673-.126.83h-.035l-.122-.832-.857.675-.026-.025.673-.857-.83-.122v-.035l.822-.13-.665-.849.026-.026.85.67.123-.827z"/>
        <path d="M.473 16C.473 7.44 7.437.473 15.997.473 24.56.473 31.527 7.44 31.527 16c0 8.562-6.967 15.527-15.53 15.527C7.437 31.527.473 24.562.473 16M0 16c0 8.822 7.177 16 15.997 16C24.821 32 32 24.822 32 16c0-8.823-7.179-16-16.003-16C7.177 0 0 7.177 0 16" fill="#7B7979"/>
        <path d="M4.386 16c0-6.404 5.21-11.614 11.612-11.614 6.405 0 11.617 5.21 11.617 11.614 0 6.404-5.212 11.614-11.617 11.614-6.403 0-11.612-5.21-11.612-11.614m-.255 0c0 6.545 5.324 11.87 11.867 11.87 6.546 0 11.872-5.325 11.872-11.87 0-6.544-5.326-11.869-11.872-11.869-6.543 0-11.867 5.325-11.867 11.87M6.081 24.888a.511.511 0 1 1-1.022-.003.511.511 0 0 1 1.022.003M26.94 24.888a.51.51 0 1 1-1.02-.001.51.51 0 0 1 1.02 0M2.542 22.058l.289.045s-.11.178-.049.301c.09.183.483.107 1.079-.187.595-.295.904-.58.82-.752-.04-.079-.167-.046-.167-.046l-.854.423-.14-.287.952-.47c.222.028.394.086.475.249.159.322-.04.75-.933 1.193-.894.442-1.349.35-1.514.017-.114-.23.042-.486.042-.486M4.377 20.054l.11.304-1.016.369s-.71.64-1.33.955l-.115-.316c.436-.201.986-.646.986-.646s-.707.016-1.17.142l-.115-.316c.677-.161 1.634-.123 1.634-.123l1.016-.37zM3.667 18.64l.288-.073.192.77-2.579.644-.187-.748.288-.072.11.44.825-.207-.093-.374.287-.072.094.373.89-.222zM1.14 18.044c.044.329.44.512 1.428.377s1.32-.417 1.275-.746c-.045-.33-.44-.513-1.428-.378s-1.32.417-1.276.747m1.382.035c-.658.09-1.049.076-1.07-.078-.02-.154.352-.272 1.01-.361.66-.09 1.046-.076 1.066.078.022.154-.347.27-1.006.36M2.126 16.432l1.573-.02.004.296-2.658.035-.003-.208 1.565-.61-1.573.02-.004-.297 2.659-.034.002.208zM1.396 13.876l.22.192s-.188.092-.203.228c-.022.203.35.35 1.01.422.661.07 1.075-.005 1.095-.194.01-.088-.115-.128-.115-.128l-.947-.103.034-.317 1.057.115c.172.143.286.284.267.465-.039.357-.437.612-1.428.505-.99-.107-1.326-.429-1.286-.799.028-.255.296-.386.296-.386M3.98 13.348l-.065.316-2.604-.535.065-.317zM2.671 12.114l1.502.467-.088.283-2.538-.789.061-.198 1.677-.096-1.502-.467.088-.284 2.539.79-.062.198zM3.648 9.662l1.385.745-.14.26L2.551 9.41l.099-.183 1.664.225-1.386-.744.14-.262 2.343 1.258-.099.183z" fill="#7B7979"/>
        <path d="M5.51 8.36c.203.105.406.216.59.325l.19-.268c-.821-.466-1.994-.964-2.453-1.136l-.143.203c.315.374 1.176 1.314 1.89 1.932l.191-.272a13.145 13.145 0 0 1-.502-.447l.237-.337zm-.457.133a25.302 25.302 0 0 1-.676-.678s.396.176.865.41l-.19.268zM6.583 8.077 4.796 6.533l-.22.254-.225-.194.646-.747.225.194-.217.251L6.79 7.836zM7.478 7.122l-.23.226L5.38 5.456l.23-.228zM6.546 4.355c-.258.21-.208.643.42 1.417.63.773 1.043.91 1.301.701.258-.21.208-.643-.42-1.417-.629-.773-1.043-.91-1.3-.701m.688 1.199c-.42-.516-.61-.857-.49-.955.12-.098.415.16.834.675.419.516.607.854.487.951-.12.098-.412-.155-.831-.671M8.437 4.36l.834 1.333-.252.157-1.41-2.253.177-.111 1.334 1.02-.834-1.332.251-.158 1.41 2.254-.176.11zM10.7 4.153c.123.192.245.39.35.574l.298-.138c-.482-.812-1.253-1.826-1.566-2.203l-.225.105c.089.481.37 1.724.683 2.615l.3-.14c-.073-.2-.146-.421-.214-.639l.374-.174zm-.463-.112c-.147-.503-.25-.924-.25-.924s.255.35.547.786l-.297.138zM12.343 3.927l.097.28-.741.257-.87-2.513.302-.104.772 2.232zM14.336 3.024c.084.503-.039.82-.367.874-.327.054-.541-.206-.625-.709l-.31-1.867.314-.052.31 1.867c.044.262.109.49.262.464.153-.026.145-.262.101-.525l-.31-1.866.314-.052.31 1.866zM15.13 2.147l.069 1.572-.297.013-.117-2.656.208-.01.658 1.546-.07-1.571.297-.013.117 2.656-.208.009zM16.814 3.721l-.323-.017.139-2.655.322.017zM18.767 1.281a21.742 21.742 0 0 1-.846 2.563l-.246-.036A21.835 21.835 0 0 1 17.6 1.11l.33.049c-.053.816-.023 1.926-.023 1.926s.351-1.054.535-1.851l.325.047zM19.58 3.907l-.074.287-.768-.198.664-2.574.746.192-.074.288-.438-.113-.212.824.373.096-.074.287-.373-.096-.229.888zM20.79 1.815l-.922 2.493.299.11.383-1.034c.088.363.036.874-.026 1.167l.308.114c.096-.376.103-.916.013-1.261 0 0 .376-.083.545-.54.172-.466.02-.82-.234-.914l-.365-.135zm-.137 1.291.334-.902.046.017c.14.052.121.31.041.526-.087.236-.284.41-.375.376l-.046-.017zM22.256 2.938c-.21.425-.004 1.315-.236 1.789-.14.282-.428.358-.663.242-.222-.109-.275-.465-.275-.465l.273-.153s-.004.27.14.34c.095.047.197-.001.246-.101.16-.326-.025-1.256.236-1.789.137-.279.407-.388.63-.278.211.103.231.384.231.384l-.252.153s-.006-.21-.097-.255c-.104-.05-.179.021-.233.133M22.445 5.516l-.278-.166 1.364-2.282.278.166zM23.003 5.881l1.37-1.923-.274-.196.173-.241.804.573-.172.242-.27-.193-1.371 1.923zM24.222 6.845l-.243-.213.712-.814s.313-.903.705-1.478l.254.222c-.285.386-.553 1.041-.553 1.041s.61-.354.956-.688l.253.222c-.515.467-1.372.895-1.372.895l-.712.813zM27.751 6.68c-.206-.26-.64-.215-1.421.405-.78.62-.923 1.032-.716 1.293.206.26.64.215 1.421-.405.78-.62.923-1.032.716-1.292m-1.206.675c.52-.413.863-.601.96-.48.096.122-.164.413-.685.827-.52.413-.86.598-.957.477-.096-.122.161-.411.682-.824M26.229 9.153l2.245-1.424.389.613-.25.16-.22-.345-.736.468.206.325-.25.16-.207-.326-1.006.639zM27.75 11.42l-.272.117-.314-.728 2.44-1.053.306.708-.272.118-.18-.415-.78.337.152.353-.273.118-.152-.354-.842.363zM30.214 11.308l-.063-.203-2.54.782.062.204c.16.516.567.71 1.52.417.952-.293 1.18-.684 1.02-1.2zm-.295.202.012.038c.066.216-.205.434-.84.63s-.982.168-1.049-.048l-.011-.038 1.888-.582zM28.95 14.145c-.502.092-.82-.026-.88-.353-.06-.327.198-.545.7-.636l1.86-.338.058.313-1.862.339c-.261.047-.488.115-.46.268.028.152.265.141.526.094l1.861-.339.057.314-1.86.338zM30.779 15.516l-.238-.156s.129-.062.118-.213c-.011-.163-.404-.25-1.067-.204-.663.047-1.034.188-1.023.352.01.137.169.192.169.192l-.235.19s-.236-.125-.252-.36c-.025-.357.323-.649 1.317-.719.994-.07 1.382.191 1.405.527.018.248-.194.391-.194.391M28.953 16.74c-.227.02-.458.038-.671.047l-.014.328c.942-.055 2.197-.274 2.676-.379l.01-.247c-.468-.144-1.701-.465-2.636-.596l-.013.332c.211.026.44.062.665.102l-.017.412zm.312-.36c.515.1.936.202.936.202s-.428.067-.95.125l.014-.328zM28.206 17.56l2.339.327.047-.334.294.041-.137.979-.294-.041.046-.33-2.339-.326zM27.973 18.848l.07-.315 2.595.578-.07.316zM30.255 20.67c.103-.316-.173-.653-1.12-.964-.948-.31-1.37-.201-1.474.115-.103.316.173.653 1.12.963.948.31 1.37.202 1.474-.114m-1.228-.635c.632.207.977.39.929.537-.048.148-.435.09-1.067-.116-.631-.207-.973-.389-.924-.536.048-.148.43-.092 1.062.115M28.662 21.691l-1.423-.671.127-.269 2.404 1.135-.089.188-1.674-.138 1.422.67-.126.27-2.404-1.135.089-.188zM8.983 26.699l-.136.196.366.252-.138.2-.365-.253-.136.197.366.252-.2.289.278.191.839-1.216-.416-.287-.08.115.046.032c.03.021.047.048.047.08 0 .033-.007.06-.023.084l-.083.12-.365-.252zm-.62-.056a.894.894 0 0 1-.305.114 1.134 1.134 0 0 1-.392.004 1.364 1.364 0 0 1-.407-.132c-.007-.002-.012-.002-.015 0-.003.003-.004.007-.004.014l.022.244c.103.053.232.098.389.135.156.037.319.046.49.027.151-.016.3-.06.444-.135a1.05 1.05 0 0 0 .381-.35l.094-.136a.03.03 0 0 0 .006-.02c0-.008-.005-.014-.013-.02l-.976-.672-.143.208.682.47-.02.028a.748.748 0 0 1-.233.22zm-.472.728a.559.559 0 0 0-.405.24.56.56 0 0 0-.081.465.68.68 0 0 0 .29.416.682.682 0 0 0 .492.123.56.56 0 0 0 .405-.24.56.56 0 0 0 .08-.465.682.682 0 0 0-.289-.417.681.681 0 0 0-.492-.122zm.486.545a.354.354 0 0 1-.065.265.355.355 0 0 1-.225.156.314.314 0 0 1-.25-.05.309.309 0 0 1-.135-.216.358.358 0 0 1 .066-.265.357.357 0 0 1 .224-.156.31.31 0 0 1 .25.05c.075.051.12.123.135.216zM9.74 28.145a.687.687 0 0 0 .377.384.685.685 0 0 0 .538.013c.18-.07.307-.19.382-.364a.655.655 0 0 0 .004-.528.686.686 0 0 0-.377-.384.686.686 0 0 0-.538-.013.655.655 0 0 0-.383.364.657.657 0 0 0-.003.528zm-.018.455-.056.129.052.023c.034.014.055.036.063.064a.123.123 0 0 1-.006.086l-.16.368c-.03.072-.037.133-.017.181.02.049.065.088.136.118l1.315.57.1-.232-1.168-.506a.042.042 0 0 1-.024-.022.043.043 0 0 1 .002-.033l.235-.542-.472-.204zm2.316-.818-.464-.201-.055.128.051.023c.034.015.055.038.062.07a.137.137 0 0 1-.007.085l-.633 1.462.31.134.736-1.701zm-1.764-.27a.33.33 0 0 1 .29-.014c.092.04.155.114.187.22a.46.46 0 0 1-.023.326.46.46 0 0 1-.222.239.328.328 0 0 1-.476-.207.46.46 0 0 1 .023-.325.46.46 0 0 1 .22-.239zM13.26 30.172l.892.192-.053.25-2.414-.52.053-.25.618.134.167-.775a.111.111 0 0 0-.01-.081.092.092 0 0 0-.064-.044l-.044-.01.03-.134.46.1-.217 1.013.26.056.167-.775a.11.11 0 0 0-.01-.08.09.09 0 0 0-.064-.045l-.043-.01.029-.134.461.1-.218 1.013zm.614-1.477c.004-.02.003-.035-.002-.044-.006-.008-.02-.015-.042-.02l-1.48-.319.053-.247 1.846.397c.01.003.017.006.02.01.003.005.003.013.001.024l-.172.799c-.04.183-.082.328-.128.435a.9.9 0 0 1-.177.272l-.324-.07a.882.882 0 0 0 .174-.287c.044-.113.085-.264.124-.453l.107-.497zM15.52 30.128l.003-.244.45.008-.005.244-.449-.008zm1.464-.219.004-.252-2.471-.044-.005.253.675.012-.005.244-.373-.006-.005.252 1.492.026c.009 0 .016.003.02.008a.03.03 0 0 1 .007.021l-.01.548.352.006.014-.8a.028.028 0 0 0-.007-.022c-.005-.004-.011-.007-.02-.007l-.346-.006.004-.245.674.012zm-1.67-1.446a.54.54 0 0 0-.2.413.541.541 0 0 0 .185.42.662.662 0 0 0 .456.181.663.663 0 0 0 .462-.164.542.542 0 0 0 .2-.414.541.541 0 0 0-.185-.42.665.665 0 0 0-.456-.181.665.665 0 0 0-.462.165zm.673.192a.335.335 0 0 1 .085.238.337.337 0 0 1-.093.233.282.282 0 0 1-.22.093.283.283 0 0 1-.215-.1.337.337 0 0 1-.085-.237.335.335 0 0 1 .093-.234.285.285 0 0 1 .22-.092.285.285 0 0 1 .215.1zM18.883 28.893l.21-.037-.098-.55a.137.137 0 0 0-.038-.077c-.02-.02-.05-.025-.092-.018l-.031.006-.024-.139.456-.08.451 2.545-.315.055-.265-1.493-.21.037.264 1.494-.315.055-.144-.813a.687.687 0 0 1-.174.074c-.068.02-.156.039-.265.058l-.473.084c-.11.02-.198.007-.263-.039-.066-.045-.109-.127-.13-.245l-.175-.993a.124.124 0 0 0-.042-.076c-.023-.019-.052-.025-.09-.018l-.055.01-.024-.139 1.15-.204.045.25-.65.115.183 1.034c.003.018.01.032.022.039.012.007.026.01.04.007l.529-.093c.079-.014.145-.03.198-.05a.567.567 0 0 0 .13-.063l-.218-1.23a.136.136 0 0 0-.038-.077c-.02-.02-.05-.025-.093-.018l-.03.006-.025-.138.457-.081.142.802zM21.42 27.179l-.471.184.05.13.053-.02c.035-.013.066-.011.093.006.027.018.046.04.056.066l.455 1.17.314-.122-.255-.655.34-.132-.101-.262-.34.132-.194-.497zm-1.084 2.17.092.237 1.321-.515c.01-.004.017-.004.023-.001.006.002.01.008.014.017l.245.628.327-.128-.326-.837a.054.054 0 0 0-.073-.032l-1.623.632zm-.55-.798a.539.539 0 0 0 .354.49.611.611 0 0 0 .465.002.61.61 0 0 0 .343-.316.54.54 0 0 0-.071-.6.562.562 0 0 0-.133-.115l.293-.114-.09-.233-.595.232-.118-.301-.442.172.044.112.042-.016c.014-.005.031-.003.052.006.02.009.035.024.044.047l.043.11-.59.23.091.232.288-.112a.567.567 0 0 0-.02.174zm.357-.192a.24.24 0 0 1 .14-.158.229.229 0 0 1 .213.022.37.37 0 0 1 .152.188c.032.08.036.16.012.238a.233.233 0 0 1-.143.16.23.23 0 0 1-.214-.024.368.368 0 0 1-.154-.185.34.34 0 0 1-.006-.24zM24.007 28.009l.77-.49.137.216-2.083 1.325-.137-.215.533-.34-.425-.668a.111.111 0 0 0-.064-.051.092.092 0 0 0-.077.013l-.037.025-.074-.116.398-.254.556.875.225-.144-.425-.668a.111.111 0 0 0-.064-.05.093.093 0 0 0-.076.013l-.038.024-.074-.116.398-.254.557.875zm-.6-1.483c-.012-.017-.022-.027-.033-.03-.01-.002-.025.003-.044.015l-1.277.813-.136-.213 1.593-1.014c.009-.006.016-.008.022-.007.005.001.01.007.016.016l.44.69c.1.158.171.29.214.4a.91.91 0 0 1 .066.317l-.28.178a.884.884 0 0 0-.078-.326 2.977 2.977 0 0 0-.23-.41l-.274-.429zM11.986 22.958v-.467h.898v2.754h-.536v-2.287zM14.678 25.362l.73-1.085c.179-.267.336-.592.336-.92 0-.556-.42-.94-.964-.94-.566 0-.972.406-.972.976 0 .474.315.913.818.913a.579.579 0 0 0 .216-.04l.007.007-.566.8.395.289zm.105-2.506c.27 0 .439.266.439.515 0 .248-.168.515-.439.515-.27 0-.434-.267-.434-.515 0-.249.164-.515.434-.515zM17.698 24.328v-1.889h-.49l-1.227 2.079v.24h1.213v.487h.504v-.486h.292v-.431h-.292zm-.504 0h-.588l.58-1.096h.008v1.096zM19.37 22.377l-.73 1.085c-.179.267-.336.592-.336.92 0 .552.42.936.964.936.567 0 .972-.406.972-.972 0-.475-.314-.913-.818-.913a.585.585 0 0 0-.216.036l-.007-.007.566-.8-.394-.285zm-.105 2.502c-.27 0-.439-.266-.439-.511 0-.249.168-.515.439-.515.27 0 .434.266.434.515 0 .245-.164.511-.434.511z" fill="#7B7979"/>
    </g>
</svg>
