<svg width="32" height="32" viewBox="0 0 32 32" xmlns="http://www.w3.org/2000/svg">
    <g fill="none" fill-rule="evenodd">
        <path d="M16 31.572C7.4 31.572.429 24.6.429 16 .429 7.4 7.4.43 15.999.43 24.6.429 31.572 7.4 31.572 16S24.599 31.572 16 31.572zM16 0C7.163 0 0 7.164 0 16c0 8.837 7.163 16 16 16 8.836 0 16-7.163 16-16 0-8.836-7.164-16-16-16z" fill="#1A1919"/>
        <path d="M16 25.96c-5.5 0-9.96-4.459-9.96-9.96 0-5.501 4.46-9.96 9.96-9.96 5.5 0 9.96 4.459 9.96 9.96 0 5.501-4.46 9.96-9.96 9.96zm0-20.159c-5.633 0-10.199 4.566-10.199 10.2 0 5.632 4.566 10.198 10.199 10.198 5.632 0 10.2-4.566 10.2-10.199S21.631 5.801 16 5.801zM3.021 16.516a.61.61 0 1 0 0-1.222.61.61 0 0 0 0 1.222M29.274 16.516a.61.61 0 1 0 0-1.222.61.61 0 0 0 0 1.222M4.591 18.687l-.078-.308.081-.02.25.987-.082.02-.077-.308-2.175.55.078.309-.081.02-.25-.987.082-.02.078.307 2.174-.55M4.977 20.015l-.127-.283.077-.034.314.707-1.085 1.789.003.006 1.493-.662-.148-.334.077-.034.314.71-.076.035-.126-.284-2.148.952-.041-.052 1.444-2.384-.003-.007-1.978.877.15.34-.076.034-.318-.716.077-.034.126.284 2.05-.91M6.975 23.513l-.185-.242.067-.051.608.8-.066.05-.192-.252-1.785 1.359.192.252-.066.051-.61-.8.068-.05.184.242.887-.676-.636-.834-.886.675.184.243-.066.05-.61-.8.067-.05.192.252 1.785-1.359-.192-.252.067-.05.608.799-.066.05-.185-.241-.831.632.635.835.832-.633M6.161 25.936l-.212-.188-.056.063.562.5.056-.063-.265-.235.689-.404.468.418-.332.719-.262-.233-.056.062.813.722.055-.062-.232-.207.99-2.286-.051-.045-2.167 1.24zm1.29-.009-.422-.374.789-.45.005.004-.373.82zM10.317 26.3l-.282-.13.035-.076.934.427-.035.075-.303-.137-.664 1.458c-.18.396-.18.622.316.848.58.263.746.05.914-.317l.653-1.434-.33-.15.034-.077.681.31-.035.076-.258-.117-.668 1.467c-.192.42-.41.622-1.13.294-.738-.336-.731-.608-.544-1.02l.682-1.498M12.97 27.368l-.304-.06.016-.082.758.148.847 1.913.006.001.312-1.603-.358-.07.016-.081.762.148-.016.082-.305-.06-.448 2.307-.066.004-1.13-2.55h-.006l-.413 2.124.365.07-.016.083-.769-.15.016-.082.305.059.428-2.201M15.818 27.777l-.318.001v-.084l1.018-.002v.084h-.317l.004 2.243h.317v.084l-1.017.002v-.084l.317-.001-.004-2.243M17.11 27.704l-.272.045-.014-.083 1.012-.165.014.082-.343.056.842 1.66.006-.002.303-1.845-.342.055-.014-.083.705-.115.014.083-.246.04-.43 2.468-.074.012-1.16-2.208M19.627 27.19l-.295.117-.031-.078 1.796-.708.29.68-.08.033c-.317-.516-.455-.527-1.173-.243l-.15.059.383.971.17-.066c.365-.144.337-.29.2-.629l.094-.037.422 1.07-.094.037c-.158-.391-.218-.488-.584-.344l-.17.067.402 1.017.475-.188c.48-.189.542-.492.432-.966l.085-.033.274.778-1.887.744-.031-.078.295-.116-.823-2.086M23.19 27.981l-.264.175.046.07.839-.554-.047-.069-.254.168-.623-.947.177-.117c.36-.237.502-.157.766.194.287.38.399.496.741.27l.206-.136-.046-.07-.07.047c-.172.113-.291-.02-.502-.308-.316-.43-.48-.403-.935-.175l-.003-.006c.248-.213.392-.445.177-.772-.269-.408-.571-.317-.929-.081l-.825.544.047.07.264-.175 1.235 1.872zm-.914-2.083.146-.097c.288-.19.486-.098.658.164.152.23.197.476-.054.642l-.197.13-.553-.839zM24.758 26.014l.066-.065c.289.26.73.303 1.01.027.2-.196.294-.494.066-.724-.456-.462-1.223.623-1.808.03-.3-.303-.21-.73.074-1.01a1.6 1.6 0 0 1 .545-.334l.386.362-.062.063c-.328-.216-.598-.212-.822.01-.168.166-.238.416-.051.605.424.43 1.164-.652 1.799-.01.325.33.212.82-.085 1.114a1.64 1.64 0 0 1-.623.4l-.495-.468M25.315 23.14l-.19.253-.068-.05.61-.816.066.05-.189.255 1.798 1.34.19-.254.066.05-.608.817-.068-.05.19-.254-1.797-1.342M26.42 21.482l-.132.26c-.157.31.1.584.374.739l-.046.09-.689-.35.971-1.914.69.35-.047.09c-.285-.13-.66-.173-.817.134l-.131.26 1.981 1.006.168-.332.074.038-.51 1.005-.074-.039.168-.331-1.98-1.006M28.375 19.49l-1.24.323-.072.272-.081-.022.275-1.037.082.021-.09.339 1.09-.261-.824-.74-.089.333-.081-.022.183-.69.082.022-.068.255.925.834 1.096.292.08-.3.08.02-.26.981-.08-.021.081-.31-1.09-.29M9.074 5.808c.215-.132.249-.468.075-.752-.173-.283-.488-.406-.703-.275-.215.131-.25.468-.076.752.173.283.489.407.704.275zm-1.186.02a1.017 1.017 0 0 1 .344-1.396 1.017 1.017 0 0 1 1.4.33 1.016 1.016 0 0 1-.345 1.395 1.016 1.016 0 0 1-1.399-.33z" fill="#1A1919"/>
        <path fill="#1A1919" d="m8.378 4.114-.176-.288-.497.303.176.288-.647.396.203.33 1.79-1.094-.202-.331-.647.396M9.713 3.046l-.496.303 1.645 2.692.497-.303-.94-1.537.446-.272-.203-.331-.445.272-.504-.824M17.033 1.598v.962h-.21v-.962h-.555v3.154h.555V2.978h.21v1.774h.555V1.598h-.555"/>
        <path d="M15.121 2.128H16V1.74h-1.461v1.868c0 .196.168.354.377.354h1.558v-.388h-1.353V2.128M4.676 10.784l.725.383 1.005-1.9.344.183-1.1 2.08c-.099.185-.318.259-.49.168l-.756-.4.272-.514M3.69 8.488l.272-.514 1.861.985-.272.515-1.862-.986M4.094 10.451a.447.447 0 0 0-.174-.606.445.445 0 0 0-.599.197.445.445 0 0 0 .174.605.446.446 0 0 0 .6-.196zm-.86.692c-.415-.22-.54-.8-.277-1.294.262-.495.81-.718 1.225-.5.415.22.539.8.277 1.295-.262.495-.81.719-1.226.499zM22.623 4.805c.179.118.414.078.526-.09a.377.377 0 0 0-.122-.52c-.179-.12-.414-.078-.526.09-.111.169-.057.402.122.52zm-.59-.83c.223-.337.758-.375 1.196-.085.437.29.611.798.388 1.135-.223.337-.758.374-1.196.085-.437-.29-.61-.798-.388-1.135z" fill="#1A1919"/>
        <path fill="#1A1919" d="m23.505 4.001.186-.282-.485-.321-.187.281-.61-.404-.215.324 1.706 1.13.215-.323-.61-.405M25.09 4.79l-.486-.322-.98 1.48.485.322.432-.652.435.288.214-.323-.435-.288.334-.505M21.78 4.933l-.214.323 1.75 1.158-.454.685.485.321.668-1.008-2.234-1.48M26.596 10.598l1.018-.572-.285-.508-1.018.572-.75-1.336-.339.19 1.665 2.966.338-.19-.629-1.122"/>
        <path fill="#1A1919" d="m26.022 9.888 1.152-.646-.285-.508-1.152.646"/>
        <path d="m28.99 9.947-1.176-2.093-.338.19 1.07 1.907-1.81 1.015.285.508 1.856-1.041c.164-.092.211-.31.113-.486M16.136 24.526l-.013.006-.013-.006-6.79-2.891-.023-.01.003-.024 1.117-10.518.003-.03h2.831V9.98c0-.606.172-1.119.495-1.482.343-.386.854-.59 1.478-.59h3.345v2.553h.89v.593h2.367l.003.03L22.946 21.6l.002.024-.022.01-6.79 2.891zm5.899-13.705H19.69v-.593h-.889V7.675h-3.578c-.692 0-1.263.23-1.652.668-.362.406-.553.972-.553 1.636v.842h-2.808L9.05 21.77l7.074 3.014 7.075-3.014-1.163-10.95z" fill="#1A1919"/>
        <path fill="#00B0DE" d="M19.459 12.255h-.89v1.616h.89v.414h2.297l-.3-2.818H19.46v.788M10.79 11.467l-.3 2.818h2.761v-2.818H10.79"/>
        <path d="M21.796 14.667H19.46v.985h-.89v1.365h-2.767v-2.35h-1.04v.264c0 1.348-1.254 2.054-2.492 2.054h-.124v-1.462h.08c.584 0 1.025-.306 1.025-.713v-.143h-2.8l-.713 6.7 6.385 2.719 6.385-2.72-.712-6.7" fill="#005B9C"/>
        <path fill="#00B0DE" d="M14.762 14.285h1.04v-2.818h-1.04z"/>
        <path d="M15.573 10.82h-.579v-.827c0-.404.255-.546.474-.546h.105v1.374zm-.105-1.606c-.34 0-.706.244-.706.779v1.06h1.042V9.214h-.336z" fill="#1A1919"/>
        <path d="M13.12 19.073v.18h.448v1.526h.231v-2.096h-.181c-.033.329-.199.384-.498.39M15 19.846c-.27 0-.326-.255-.326-.473 0-.212.06-.48.323-.48.28 0 .344.293.344.517 0 .218-.078.436-.341.436zm-.011-1.163c-.318 0-.556.285-.556.732 0 .339.165.64.54.64a.416.416 0 0 0 .385-.257h.006c-.011.224-.009.815-.363.815-.198 0-.279-.1-.279-.29h-.237c.008.302.178.5.488.5.603 0 .62-.73.62-1.166 0-.432-.042-.974-.604-.974zM16.735 19.405c-.145 0-.24.05-.337.15l.092-.62h.704v-.209h-.891l-.123 1.079h.206a.295.295 0 0 1 .294-.19c.295 0 .349.25.349.491 0 .261-.09.507-.335.507-.238 0-.32-.156-.31-.38h-.24c-.017.37.184.59.555.59.433 0 .57-.38.57-.753 0-.341-.148-.662-.534-.665M18.36 20.046h-.58l.58-.999v1zm.231 0v-1.363h-.213l-.782 1.358v.214h.763v.524h.232v-.524h.188v-.209h-.188z" fill="#FFFFFE"/>
    </g>
</svg>
