<svg width="16" height="16" viewBox="0 0 16 16" xmlns="http://www.w3.org/2000/svg">
    <defs>
        <clipPath id="mjlwddcgua">
            <path d="M1920 0v2914H0V0h1920z"/>
        </clipPath>
        <clipPath id="338lctmm8b">
            <path d="M12.708 9.068c.172 0 .331.072.445.185.109.118.18.278.18.45v2.957a.677.677 0 0 1-.02.164.634.634 0 0 1-.618.51H.634a.632.632 0 0 1-.626-.564C0 12.732 0 12.698 0 12.656V9.699c0-.35.285-.63.63-.63a.631.631 0 0 1 .63.63v2.368h10.818V9.699c0-.35.286-.63.63-.63zM6.675 0a.728.728 0 0 1 .735.736v6.827l1.86-1.864a.739.739 0 0 1 1.04 0 .754.754 0 0 1-.012 1.043l-3.094 3.1c-.004.009-.013.013-.017.017a.728.728 0 0 1-.407.206l-.038.004c-.025.004-.05.004-.075.004l-.072-.004-.038-.004a.715.715 0 0 1-.407-.206l-.016-.017-3.094-3.1a.736.736 0 0 1-.215-.521.736.736 0 0 1 1.256-.522l1.86 1.864V.736c0-.404.33-.736.734-.736z"/>
        </clipPath>
    </defs>
    <g clip-path="url(#mjlwddcgua)" transform="translate(-592 -896)">
        <g clip-path="url(#338lctmm8b)" transform="translate(593.333 897.333)">
            <path fill="#9E9E9E" d="M0 0h13.333v13.333H0V0z"/>
        </g>
    </g>
</svg>
