<svg width="24" height="24" viewBox="0 0 24 24" xmlns="http://www.w3.org/2000/svg">
    <g fill="none" fill-rule="evenodd">
        <path d="M0 0h24v24H0z"/>
        <path d="M2 2h20v20H2z"/>
        <path d="M17.143 4.421A.426.426 0 0 0 16.714 4H7.286a.426.426 0 0 0-.429.421v2.947h10.286V4.421zm-.429 9.263c.236 0 .429.19.429.421v5.474a.426.426 0 0 1-.429.421H7.286a.426.426 0 0 1-.429-.421v-5.474c0-.231.193-.42.429-.42zm3.857-5.473c.237 0 .429.188.429.42v8.422a.425.425 0 0 1-.429.42H18v-3.368c0-.696-.577-1.263-1.286-1.263H7.286c-.71 0-1.286.567-1.286 1.263v3.369H3.429A.425.425 0 0 1 3 17.053V8.632c0-.233.192-.421.429-.421zm-1.714 1.894h-1.714a.425.425 0 0 0-.429.421c0 .233.192.421.429.421h1.714a.425.425 0 0 0 .429-.42.425.425 0 0 0-.429-.422z" fill="#4476FF" fill-rule="nonzero"/>
    </g>
</svg>
