<svg width="24" height="24" viewBox="0 0 24 24" xmlns="http://www.w3.org/2000/svg">
    <path d="M10.57 18.133c0 .755.64 1.367 1.429 1.367s1.428-.612 1.428-1.367-.64-1.366-1.428-1.366c-.79 0-1.43.611-1.43 1.366zm11.2-8.869a.938.938 0 0 1-1.27.083l-.014-.013C15.699 5.25 8.495 5.208 3.66 9.212l-.146.122a.938.938 0 0 1-1.283-.07.844.844 0 0 1 .073-1.228c5.524-4.715 13.868-4.715 19.392 0 .375.32.408.87.073 1.228zm-2.588 3.075a.939.939 0 0 1-1.27.054l-.015-.013c-3.286-2.939-8.372-2.968-11.694-.088l-.1.088a.938.938 0 0 1-1.285-.04.843.843 0 0 1 .043-1.23c4.018-3.594 10.26-3.594 14.278 0a.843.843 0 0 1 .043 1.23zm-2.88 2.754a.938.938 0 0 1-1.268.085l-.016-.012c-1.704-1.45-4.264-1.464-5.986-.044l-.052.044a.938.938 0 0 1-1.283-.073.844.844 0 0 1 .076-1.228c2.41-2.049 6.042-2.049 8.453 0 .375.32.41.87.076 1.228z" fill="#000" fill-rule="nonzero"/>
</svg>
