<svg width="20" height="20" viewBox="0 0 20 20" xmlns="http://www.w3.org/2000/svg">
    <path d="M9.288 9.187a.465.465 0 0 1 0 .674L6.68 12.38h8.66c.272 0 .492.213.492.476s-.22.476-.492.476H6.68l2.607 2.52c.19.184.192.48.007.666l-.007.008a.504.504 0 0 1-.697 0l-3.447-3.333a.465.465 0 0 1 0-.674l3.447-3.333a.504.504 0 0 1 .697 0zm2.954-5.714 3.447 3.333a.465.465 0 0 1 0 .674l-3.447 3.333a.504.504 0 0 1-.696 0 .465.465 0 0 1 0-.674l2.606-2.52h-8.66A.485.485 0 0 1 5 7.143c0-.263.22-.476.492-.476h8.66l-2.606-2.52a.465.465 0 0 1-.008-.666l.008-.008a.504.504 0 0 1 .696 0z" fill="#9E9E9E" fill-rule="nonzero"/>
</svg>
