<svg width="20" height="20" viewBox="0 0 20 20" xmlns="http://www.w3.org/2000/svg">
    <path d="M8.283 2.5c-1.48 0-2.961.566-4.09 1.695a5.794 5.794 0 0 0 0 8.186A5.773 5.773 0 0 0 9.18 14l-.16-.408a5.35 5.35 0 0 1-4.526-1.52 5.355 5.355 0 0 1 0-7.577 5.345 5.345 0 0 1 7.578 0 5.347 5.347 0 0 1 1.52 4.528l.402.154A5.78 5.78 0 0 0 8.284 2.5zm0 2.144c-.932 0-1.867.354-2.577 1.065a3.646 3.646 0 0 0 0 5.15 3.626 3.626 0 0 0 2.67 1.06l-.16-.416a3.2 3.2 0 0 1-2.202-.945 3.215 3.215 0 0 1 0-4.548 3.198 3.198 0 0 1 4.539 0c.61.612.927 1.404.944 2.204l.421.167a3.623 3.623 0 0 0-3.635-3.737zm-1.03 2.425a.214.214 0 0 0-.168.294l3.782 9.847a.214.214 0 0 0 .389.027l1.352-2.498 2.704 2.699a.214.214 0 0 0 .302 0l1.82-1.815a.214.214 0 0 0 0-.308l-2.697-2.693 2.497-1.36a.214.214 0 0 0-.027-.389L7.359 7.082a.215.215 0 0 0-.107-.013zm.401.59 8.964 3.449-2.343 1.266a.214.214 0 0 0-.047.342l2.745 2.753-1.513 1.514-2.752-2.754a.214.214 0 0 0-.335.054l-1.272 2.344-3.447-8.969z" fill="#000" fill-rule="nonzero"/>
</svg>
