<svg width="30" height="30" viewBox="0 0 30 30" xmlns="http://www.w3.org/2000/svg">
    <g fill="none" fill-rule="evenodd">
        <path d="M0 0h30v30H0z"/>
        <path d="M18.092 27.432A2.552 2.552 0 0 1 15.558 30 2.551 2.551 0 0 1 13 27.455a2.552 2.552 0 0 1 2.535-2.568 2.551 2.551 0 0 1 2.557 2.545" fill="#504C5D"/>
        <path d="M15.442 5.001c5-.023 9.072 4.028 9.095 9.047a9.093 9.093 0 0 1-4.75 8.041c.094.274.145.568.146.874l.01 2.161a2.76 2.76 0 0 1-2.74 2.778l-3.308.015a2.76 2.76 0 0 1-2.767-2.752l-.01-2.16c-.001-.306.047-.601.137-.877a9.09 9.09 0 0 1-4.823-7.995c-.023-5.02 4.01-9.108 9.01-9.132z" fill="#97D1FF"/>
        <path d="M11.385 22.17a.154.154 0 0 1-.011-.31 95.205 95.205 0 0 1 8.265-.25.155.155 0 0 1 .152.158c-.001.085-.068.158-.156.152a94.913 94.913 0 0 0-8.239.25h-.011m-.047 1.509a.155.155 0 0 1-.018-.308 56.237 56.237 0 0 1 8.381-.373.154.154 0 0 1 .15.159c-.003.085-.074.158-.16.15a55.924 55.924 0 0 0-8.353.372m-.152 1.27a.155.155 0 0 1-.014-.309 54.134 54.134 0 0 1 8.542-.12.154.154 0 0 1-.02.309 53.711 53.711 0 0 0-8.508.12m.268 1.527a.154.154 0 0 1-.014-.309 63.413 63.413 0 0 1 8.17-.217.154.154 0 0 1 .147.16c-.003.086-.073.157-.16.15a63.097 63.097 0 0 0-8.143.216m.482 1.23a.154.154 0 0 1-.023-.308c1.624-.25 3.283-.274 4.888-.297l2.562-.037a.155.155 0 0 1 .004.31l-2.562.037c-1.594.023-3.242.047-4.845.292a.15.15 0 0 1-.024.002" fill="#212123"/>
        <path d="M16.684 12.326a3.883 3.883 0 0 0-.262.961.581.581 0 0 0 .006.193.704.704 0 0 0 .038-.07 2.24 2.24 0 0 0 .218-1.084m-2.253.262a2.307 2.307 0 0 0-.037 1.059l.008.032a.447.447 0 0 0 .028-.076 2.12 2.12 0 0 0 .001-1.015m2.952 8.972-.59-.178a91.573 91.573 0 0 0 1.728-6.692c.208-.953.373-1.812.285-2.676-.037-.364-.116-.625-.248-.823-.145-.216-.374-.351-.576-.338-.205.01-.421.153-.662.434-.061.07-.12.144-.175.22l.015.042c.23.696.18 1.472-.14 2.13-.198.412-.471.473-.616.473a.541.541 0 0 1-.414-.19c-.18-.207-.21-.528-.18-.759a4.56 4.56 0 0 1 .633-1.757.816.816 0 0 0-.28-.298c-.214-.124-.522-.112-.787.03-.21.114-.404.306-.576.573.31.716.388 1.4.225 2.012-.112.421-.432.67-.76.593-.137-.032-.38-.15-.473-.578-.143-.66-.032-1.384.312-2.054a5.251 5.251 0 0 0-.298-.502c-.144-.214-.358-.465-.562-.449-.175.015-.33.226-.405.351-.364.596-.447 1.333-.48 1.974-.137 2.631.475 5.251 1.067 7.785l-.6.142c-.602-2.577-1.224-5.24-1.083-7.959.038-.72.135-1.55.57-2.265.24-.393.544-.616.88-.644.402-.034.781.208 1.124.72.059.087.115.175.167.262.181-.218.382-.388.6-.506.456-.246.988-.253 1.388-.02.13.077.248.179.352.304l.029-.034c.356-.416.714-.627 1.096-.648.424-.023.852.211 1.12.61.192.286.303.637.35 1.106.098.954-.084 1.903-.296 2.872a92.06 92.06 0 0 1-1.74 6.737m-9.281-5.435a.412.412 0 0 1-.399-.315c-.594-2.449.076-5.138 1.746-7.018a.41.41 0 0 1 .58-.034c.17.152.185.413.034.583-1.494 1.68-2.092 4.085-1.561 6.273a.413.413 0 0 1-.4.51m3.026-7.904a.414.414 0 0 1-.234-.752l1.032-.717a.41.41 0 0 1 .572.105.414.414 0 0 1-.105.574l-1.032.716a.408.408 0 0 1-.233.074" fill="#FFF"/>
        <path d="m8.613 2.192.854 1.75c.071.145.289.197.422.11.148-.096.186-.267.11-.423L9.145 1.88c-.07-.146-.288-.197-.421-.11-.15.095-.187.267-.11.422M5.078 6.103l.811.56a.311.311 0 0 0 .237.03.314.314 0 0 0 .185-.142c.082-.157.031-.325-.111-.423l-.811-.559a.311.311 0 0 0-.238-.031.314.314 0 0 0-.184.142c-.082.157-.031.325.11.423m15.328-2.795c.265-.585.565-1.153.898-1.701.084-.139.035-.346-.11-.423a.314.314 0 0 0-.422.11 16.013 16.013 0 0 0-.898 1.702c-.067.146-.047.34.11.423.136.072.35.046.422-.111m-5.089-1.052c-.017-.642.005-1.284.065-1.924.015-.161-.12-.327-.284-.332a.315.315 0 0 0-.33.286c-.06.639-.082 1.282-.065 1.924.004.161.106.326.284.331.153.006.335-.112.33-.285m8.382 4.49 1.22-.898a.336.336 0 0 0 .142-.185.316.316 0 0 0-.031-.239c-.083-.129-.283-.213-.422-.11l-1.22.897a.336.336 0 0 0-.142.185.318.318 0 0 0 .03.238c.084.129.283.213.423.111" fill="#212123"/>
    </g>
</svg>
