<svg width="16" height="16" viewBox="0 0 16 16" xmlns="http://www.w3.org/2000/svg">
    <path d="M6.095.23a7.995 7.995 0 0 1 3.911.026l.09.012a7.97 7.97 0 0 1 5.891 7.365l.013.304v.064C16 12.407 12.406 16 8 16a7.944 7.944 0 0 1-3.746-.927v.013l-.394-.241A7.951 7.951 0 0 1 0 8C0 4.458 2.375 1.297 5.765.319l.33-.101zm7.607 7.11h-.013c-.089 0-.47.026-.495.267-.013.038 0 .102 0 .165.012.127.025.292-.038.47-.102.241-.305.381-.47.483-.026.012-.051.038-.076.05-.8.521-.813 1.753-.775 2.26v.09l.001.024c.532.193 1.328.72 1.296 2.142a7.431 7.431 0 0 0 2.271-5.277v-.051h-.013c-.05 0-.088-.013-.14-.026-.012 0-.025-.012-.037-.012l-.115-.038s-.012-.013-.025-.013c-.089-.025-.19-.076-.28-.114 0-.013-.012-.013-.012-.013-.038-.025-.089-.038-.127-.064h-.013l-.14-.076c-.126-.063-.24-.127-.355-.177a1.03 1.03 0 0 0-.444-.09zM9.092.7a7.426 7.426 0 0 0-2.946.14v.025c-.013.013-.013.026-.013.038 0 .013-.012.038-.012.064 0 .012-.013.025-.013.038-.013.025-.013.05-.025.076 0 0-.013.013-.013.025l-.038.102c0 .013-.013.013-.013.025l-.038.077c-.013.012-.013.025-.025.038l-.039.063c-.012.013-.012.026-.025.038-.013.026-.025.038-.038.064-.013.012-.013.025-.025.038-.013.025-.039.038-.051.063l-.026.026a.552.552 0 0 1-.076.089l-.013.012c-.025.026-.05.038-.076.064 0 .012-.012.012-.025.025a.223.223 0 0 1-.064.051l-.038.025-.063.038c-.013.013-.026.013-.038.026-.026.013-.038.025-.064.038 0 0-.012.013-.025.013-.026.012-.064.038-.089.05a5.121 5.121 0 0 1-.381.178c-.432.19-.838.368-.978.711-.076.165-.063.368-.063.584 0 .254.012.534-.09.8-.1.267-.279.483-.444.673a.726.726 0 0 0-.088.102c-.648.774-.927 1.98-.293 2.653.102.102.229.19.356.292.127.102.254.19.368.305.572.539.773 1.326.866 2.022.31-.256.9-.564 1.883-.486 1.004.08 2.002.87 2.616 1.46l-.006-.164c0-.19.025-.381.05-.597.039-.241.077-.495.077-.724.013-.228-.013-.432-.089-.584a.498.498 0 0 0-.228-.229c-.064-.038-.166-.05-.293-.05-.063 0-.14.012-.215.012-.216.013-.432.026-.66.026-.458 0-1.13-.038-1.69-.407-.431-.279-.736-.8-.774-1.333a1.201 1.201 0 0 1 .406-1.04c.114-.102.241-.179.356-.242.114-.05.203-.114.279-.178.178-.165.229-.444.28-.749.012-.076.025-.14.037-.203.064-.305.153-.584.267-.864.343-.825.902-1.549 1.397-2.209a.704.704 0 0 0 .076-.101c0-.013.013-.026.026-.039.012-.025.038-.038.05-.063l.077-.102c.012-.025.038-.038.05-.063.026-.038.051-.064.077-.102.012-.025.038-.038.05-.063.026-.038.064-.064.09-.102.012-.025.037-.038.05-.063l.152-.153c.051-.038.102-.088.153-.14l.038-.037C9.04.764 9.079.738 9.092.7z" fill="#FFF" fill-rule="evenodd"/>
</svg>
