<svg width="60" height="60" viewBox="0 0 60 60" xmlns="http://www.w3.org/2000/svg">
    <g fill="none" fill-rule="evenodd">
        <path fill="#FFF" d="M17.574 0 0 17.575v24.852L17.574 60h24.852L60 42.427V17.575L42.426 0z"/>
        <path d="M17.574 0 0 17.575v24.852L17.574 60h24.852L60 42.427V17.575L42.426 0H17.574zm1.637 1.715h21.577l-1.597 3.858H20.809L19.21 1.715zm21.564 4.513 1.596-3.857L57.63 17.628l-3.857 1.598L40.775 6.228zm-38.406 11.4L17.628 2.371l1.598 3.857L6.227 19.226 2.37 17.628zM7.286 39.41V20.592L20.592 7.287h18.817l13.305 13.305v18.817L39.409 52.715H20.592L7.286 39.41zm47.143-.217V20.81l3.856-1.598V40.79l-3.856-1.597zM1.715 19.212 5.57 20.81v18.382l-3.856 1.597V19.212zm39.06 34.56 12.998-12.998 3.857 1.599L42.37 57.63l-1.596-3.858zm-38.406-11.4 3.858-1.598 12.999 12.999-1.598 3.858L2.369 42.373zm18.44 12.056H39.19l1.597 3.858H19.211l1.598-3.858z" fill="#014066"/>
    </g>
</svg>
