<svg width="250" height="162" viewBox="0 0 250 162" xmlns="http://www.w3.org/2000/svg">
    <g fill="#E4E6EC" fill-rule="evenodd">
        <path d="M174.337 65.769c-9.158.44-15.7-7.832-24.92-7.21-8.837.593-15.17 7.347-20.983 13.282-3.412 3.484-7.112 7.143-11.898 8.576-4.337 1.3-9.85.11-11.399-4.69-.863-2.679-5.56-3.308-6.057 0-1.235 8.215-9.463 11.592-16.884 9.148-7.425-2.445-11.995-8.989-15.293-15.726 1.52-2.715 2.453-5.75 2.529-9.025.234-10.13-8.064-15.483-17.148-16.74-7.843-1.086-22.54.527-22.46 11.472.033 4.356 3.182 8.14 7.014 9.824 5.618 2.47 11.622.245 16.495-2.859 3.405-2.168.258-7.632-3.17-5.45-3.33 2.123-8.762 4.904-12.348 1.602-3.655-3.366-.247-6.644 3.303-7.791 6.215-2.01 17.887-1.309 21.193 5.397 3.302 6.696-2.283 14.095-7.757 17.377-6.61 3.962-14.721 3.907-22.065 2.525-10.022-1.887-30.22-9.016-25.856-23.148 1.914-6.193 10.15-6.568 14.836-9.759 5.198-3.538 6.43-10.345 11.33-13.97 2.906-2.153 7.13-2.635 10.485-1.362 3.215 1.218 5.251 4.284 8.354 5.72 2.683 1.244 5.595 1.08 8.319.074 2.897-1.07 6.696-4.412 9.957-3.73-1.25 6.4-.512 13.238 2.508 18.642 8.562 15.31 33.454 14.745 43.465 1.248 5.33-7.185 4.09-18.256-4.434-22.328-8.03-3.835-17.312 1.967-17.044 10.988.12 4.053 6.402 4.07 6.282 0-.15-5.085 5.188-7.584 9.225-4.64 3.58 2.614 3.716 7.752 1.568 11.324-4.124 6.858-14.894 9.716-22.293 8.165-8.286-1.738-13.182-8.368-13.456-16.7-.251-7.661 2.732-16.18 10.347-19.172 6.047-2.375 12.235 2.655 16.758-3.475 2.308-3.126 3.848-6.143 8.075-6.912 4.293-.78 8.257 1.525 10.355 5.204 1.655 2.903 2.333 6.22 4.734 8.69 2.235 2.298 5.784 3.189 7.64 5.8 3.943 5.546-.308 17.292-6.119 19.9-3.684 1.653-.493 7.094 3.17 5.45.108-.049.207-.111.313-.162a3.27 3.27 0 0 0 1.648-.692c5.648-4.458 12.94-10.216 20.657-8.095 5.958 1.638 9.512 8.475 14.573 11.786 6.438 4.211 14.353 5.337 21.31 3.122-3.42 4.735-8.528 8.015-14.859 8.32m22.111-20.237c-1.336-.13-2.678.526-3.04 2.25-.005.026-.014.052-.019.078-4.868 4.457-11.6 5.647-17.931 3.288-6.362-2.371-9.535-7.925-14.734-11.807-6.656-4.97-13.818-4.054-20.445-.976a29.63 29.63 0 0 0 .967-6.977c.048-3.35-.708-6.781-2.833-9.435-1.255-1.567-2.82-2.63-4.494-3.683-2.764-1.737-4.24-3.105-5.6-6.204-3.231-7.365-9.113-13.1-17.773-11.909a16.325 16.325 0 0 0-10.365 5.799c-.872 1.063-1.41 2.905-2.432 3.748-1.776 1.468-5.7-.17-7.967-.069-8.639.387-14.814 6.147-17.995 13.566-2.817-.758-5.802-.093-8.59 1.199-2.232 1.033-4.897 3.3-7.454 3.194-2.675-.11-4.715-3.008-6.788-4.427-7.064-4.84-17.157-3.45-22.71 3.041-2.902 3.392-4.323 8.188-7.946 10.916-3.827 2.881-8.919 3.38-12.75 6.33-6.921 5.33-6.859 15.16-2.61 22.185 4.515 7.47 12.732 11.7 20.803 14.175 9.72 2.977 20.837 4.391 30.453.33 3.1-1.308 6.023-3.2 8.468-5.55 4.684 8.5 11.79 15.93 21.846 17.244 7.28.952 14.74-2.343 18.436-8.422 4.54 4.077 11.589 4.765 17.58 2.235 10.759-4.544 16.421-18.72 28.234-20.684 6.022-1.002 11.023 3.589 16.336 5.605 4.783 1.816 10.11 1.98 15.042.633 9.613-2.627 16.432-10.696 18.938-20.13.03-.034.065-.063.095-.098 2.152-2.432-.284-5.794-2.722-5.445M232.32 147.356c-6.31.304-10.816-5.401-17.168-4.973-6.087.41-10.45 5.067-14.454 9.16-2.351 2.403-4.9 4.926-8.197 5.915-.22.067-.45.111-.677.157a20.642 20.642 0 0 1-11.627-3.135c-.15-.094-.294-.197-.444-.288l-.063-.036-.14-.11a15.661 15.661 0 0 1-1.454-1.267 11.52 11.52 0 0 1-2.12-2.924c-1.1-2.153-1.393-4.628-1.338-7.036 6.505.723 13.561-1.69 17.415-6.893 3.672-4.954 2.818-12.589-3.054-15.397-5.532-2.645-11.927 1.356-11.743 7.577.083 2.795 4.411 2.808 4.329 0-.105-3.506 3.574-5.23 6.354-3.2 2.468 1.803 2.56 5.347 1.08 7.81-2.84 4.73-10.26 6.7-15.357 5.63-5.708-1.199-9.081-5.77-9.27-11.516-.173-5.283 1.882-11.158 7.128-13.222 4.167-1.638 8.429 1.831 11.545-2.395 1.59-2.157 2.65-4.237 5.563-4.768 2.958-.539 5.688 1.052 7.134 3.59 1.14 2.002 1.607 4.29 3.262 5.992 1.539 1.585 3.984 2.199 5.262 4 2.717 3.825-.211 11.925-4.215 13.723-2.539 1.14-.34 4.892 2.184 3.758.074-.033.143-.075.216-.11a2.26 2.26 0 0 0 1.134-.478c3.892-3.074 8.915-7.045 14.232-5.583 4.104 1.13 6.554 5.845 10.04 8.128 4.434 2.905 9.888 3.68 14.68 2.154-2.355 3.265-5.874 5.526-10.237 5.737m15.233-13.957c-.92-.088-1.845.363-2.094 1.552l-.013.054c-3.353 3.074-7.992 3.895-12.353 2.268-4.383-1.635-6.57-5.466-10.15-8.143-4.586-3.427-9.52-2.795-14.085-.672.424-1.628.643-3.281.665-4.812.034-2.311-.487-4.676-1.95-6.507-.866-1.08-1.943-1.814-3.097-2.54-1.904-1.198-2.921-2.141-3.859-4.278-2.225-5.08-6.277-9.034-12.243-8.213a11.245 11.245 0 0 0-7.14 3.999c-.602.734-.973 2.004-1.676 2.585-1.225 1.012-3.927-.117-5.489-.048-5.825.262-10.02 4.078-12.25 9.037-.981 2.812-1.545 5.783-1.819 9.144.07 2.93.746 5.798 2.11 8.24 1.87 3.348 4.873 5.592 8.32 6.804-.216 3.428.268 6.92 1.811 10.012 1.274 2.551 3.293 4.638 5.656 6.191 3.956 2.601 8.879 3.941 13.627 3.847l-.001.081c.32-.032.642-.077.963-.132.268-.016.539-.017.806-.043.45-.044.866-.216 1.207-.477.251-.087.502-.176.748-.28 7.414-3.135 11.315-12.91 19.453-14.265 4.147-.691 7.594 2.474 11.253 3.865 3.296 1.252 6.966 1.367 10.363.437 6.622-1.812 11.32-7.377 13.046-13.882.021-.024.045-.044.066-.068 1.483-1.678-.196-3.996-1.875-3.756"/>
    </g>
</svg>
