<svg width="240" height="171" viewBox="0 0 240 171" xmlns="http://www.w3.org/2000/svg" xmlns:xlink="http://www.w3.org/1999/xlink">
    <defs>
        <path d="m4.7 34.486 11.312-.528a2.571 2.571 0 0 1 2.423 1.427l4.912 9.91a2.571 2.571 0 0 0 4.53.146L44.55 16.627a2.571 2.571 0 0 0-.975-3.535L22.253 1.23a2.571 2.571 0 0 0-3.477.961L2.353 30.631a2.571 2.571 0 0 0 2.346 3.855z" id="qyl99e07ua"/>
        <path d="m4.7 34.486 11.312-.528a2.571 2.571 0 0 1 2.423 1.427l4.912 9.91a2.571 2.571 0 0 0 4.53.146L44.55 16.627a2.571 2.571 0 0 0-.975-3.535L22.253 1.23a2.571 2.571 0 0 0-3.477.961L2.353 30.631a2.571 2.571 0 0 0 2.346 3.855z" id="oqj5ty2s1c"/>
    </defs>
    <g fill="none" fill-rule="evenodd">
        <path d="M0 0h240v171H0z"/>
        <g transform="translate(77.143 34.2)">
            <g transform="translate(0 59.85)">
                <mask id="iioxnf4qrb" fill="#fff">
                    <use xlink:href="#qyl99e07ua"/>
                </mask>
                <use fill="#7BBFFF" xlink:href="#qyl99e07ua"/>
                <path d="m11.556 52.44 11.313-.527a2.571 2.571 0 0 1 2.424 1.427l4.91 9.91a2.571 2.571 0 0 0 4.53.146l16.674-28.814a2.571 2.571 0 0 0-.975-3.535L29.11 19.185a2.571 2.571 0 0 0-3.476.961L9.21 48.586a2.571 2.571 0 0 0 2.346 3.855z" fill="#58ABF9" mask="url(#iioxnf4qrb)"/>
            </g>
            <g transform="translate(39.854 59.85)">
                <mask id="sua9gszejd" fill="#fff">
                    <use xlink:href="#oqj5ty2s1c" transform="matrix(-1 0 0 1 45.86 0)"/>
                </mask>
                <use fill="#58ABF9" transform="matrix(-1 0 0 1 45.86 0)" xlink:href="#oqj5ty2s1c"/>
                <path d="m23.556 37.05 11.313-.527a2.571 2.571 0 0 1 2.424 1.427l4.91 9.91a2.571 2.571 0 0 0 4.53.146l16.674-28.814a2.571 2.571 0 0 0-.975-3.535L41.11 3.795a2.571 2.571 0 0 0-3.476.961L21.21 33.196a2.571 2.571 0 0 0 2.346 3.855z" fill="#7BBFFF" mask="url(#sua9gszejd)" transform="matrix(-1 0 0 1 83.574 0)"/>
            </g>
            <ellipse fill="#F3F6FB" cx="42.857" cy="42.75" rx="42.857" ry="42.75"/>
            <ellipse stroke="#E2E7EC" stroke-width="5.143" fill="#F5F6F8" cx="42.857" cy="42.75" rx="31.714" ry="31.629"/>
            <path d="M30.844 35.559a1.004 1.004 0 0 1 1.741 0l2.078 3.65a1 1 0 0 0 .673.485l4.147.829a.987.987 0 0 1 .538 1.64l-2.863 3.085a.984.984 0 0 0-.257.784l.485 4.163c.09.766-.7 1.335-1.409 1.014l-3.847-1.744a1.008 1.008 0 0 0-.832 0l-3.847 1.744c-.708.32-1.498-.248-1.409-1.014l.486-4.163a.984.984 0 0 0-.257-.784l-2.864-3.085a.987.987 0 0 1 .539-1.64l4.147-.83a1 1 0 0 0 .673-.483l2.078-3.651zM53.13 35.559a1.004 1.004 0 0 1 1.741 0l2.077 3.65a1 1 0 0 0 .674.485l4.147.829a.987.987 0 0 1 .538 1.64l-2.864 3.085a.984.984 0 0 0-.257.784l.486 4.163c.09.766-.7 1.335-1.409 1.014l-3.847-1.744a1.008 1.008 0 0 0-.832 0l-3.847 1.744c-.708.32-1.498-.248-1.41-1.014l.487-4.163a.984.984 0 0 0-.258-.784l-2.863-3.085a.987.987 0 0 1 .538-1.64l4.148-.83a1 1 0 0 0 .673-.483l2.077-3.651z" fill="#D4D9DF"/>
        </g>
        <path d="M187.714 25.65a.84.84 0 0 1 .84.838v5.014a.84.84 0 0 1-1.68 0v-5.014a.84.84 0 0 1 .84-.838zm-6.667 2.755a.842.842 0 0 1 1.189 0l3.554 3.545a.837.837 0 0 1 0 1.186.842.842 0 0 1-1.188 0l-3.555-3.546a.837.837 0 0 1 0-1.185zm3.106 5.812a.84.84 0 1 1 0 1.676h-5.027a.84.84 0 1 1 0-1.676h5.027zm.449 2.757a.842.842 0 0 1 1.188 0 .837.837 0 0 1 0 1.186l-3.554 3.545a.842.842 0 0 1-1.189 0 .837.837 0 0 1 0-1.185l3.555-3.546zm3.112.795a.84.84 0 0 1 .84.839v5.014a.84.84 0 0 1-1.68 0v-5.014a.84.84 0 0 1 .84-.839zm1.924-.795a.842.842 0 0 1 1.189 0l3.554 3.546a.837.837 0 0 1 0 1.185.842.842 0 0 1-1.188 0l-3.555-3.545a.837.837 0 0 1 0-1.186zm6.664-2.757a.84.84 0 1 1 0 1.676h-5.026a.84.84 0 1 1 0-1.676h5.026zm-3.11-5.812a.842.842 0 0 1 1.19 0 .837.837 0 0 1 0 1.185l-3.555 3.546a.842.842 0 0 1-1.189 0 .837.837 0 0 1 0-1.186l3.555-3.545z" fill="#58ABF9" fill-rule="nonzero"/>
        <path d="M38.571 94.05c.422 0 .764.341.764.762v4.558a.763.763 0 0 1-1.528 0v-4.558c0-.42.342-.762.764-.762zm-6.06 2.504a.765.765 0 0 1 1.08 0l3.231 3.223a.76.76 0 0 1 0 1.078.765.765 0 0 1-1.08 0l-3.231-3.223a.76.76 0 0 1 0-1.078zm2.823 5.284a.763.763 0 1 1 0 1.524h-4.57a.763.763 0 1 1 0-1.524h4.57zm.408 2.507a.765.765 0 0 1 1.08 0 .76.76 0 0 1 0 1.078l-3.23 3.223a.765.765 0 0 1-1.081 0 .76.76 0 0 1 0-1.078l3.23-3.223zm2.83.722c.421 0 .763.342.763.763v4.558a.763.763 0 0 1-1.528 0v-4.558c0-.421.342-.763.764-.763zm1.749-.722a.765.765 0 0 1 1.08 0l3.231 3.223a.76.76 0 0 1 0 1.078.765.765 0 0 1-1.08 0l-3.231-3.223a.76.76 0 0 1 0-1.078zm6.058-2.507a.763.763 0 1 1 0 1.524h-4.57a.763.763 0 1 1 0-1.524h4.57zm-2.827-5.284a.765.765 0 0 1 1.08 0 .76.76 0 0 1 0 1.078l-3.23 3.223a.765.765 0 0 1-1.081 0 .76.76 0 0 1 0-1.078l3.23-3.223z" fill="#BDDFFF" fill-rule="nonzero"/>
        <path d="m198.86 116.904-.073.247a6.434 6.434 0 0 1-4.428 4.292.846.846 0 0 0-.016 1.64l.247.073a6.44 6.44 0 0 1 4.265 4.456c.23.843 1.47.853 1.714.014l.073-.247a6.434 6.434 0 0 1 4.428-4.292.846.846 0 0 0 .016-1.64l-.247-.072a6.44 6.44 0 0 1-4.266-4.457c-.23-.843-1.469-.853-1.714-.014zm.854 2.471.096.16a8.19 8.19 0 0 0 2.792 2.716l.025.013a8.211 8.211 0 0 0-2.804 2.713l-.11.178-.095-.16a8.19 8.19 0 0 0-2.532-2.556l-.286-.174a8.183 8.183 0 0 0 2.806-2.711l.108-.179zM18.002 77.574l-.072.247a6.434 6.434 0 0 1-4.429 4.292.846.846 0 0 0-.015 1.64l.247.073a6.44 6.44 0 0 1 4.265 4.456c.23.843 1.47.853 1.714.014l.073-.247a6.434 6.434 0 0 1 4.428-4.292.846.846 0 0 0 .015-1.64l-.246-.072a6.44 6.44 0 0 1-4.266-4.457c-.23-.843-1.47-.853-1.714-.014zm.855 2.471.096.16a8.19 8.19 0 0 0 2.792 2.716l.024.013a8.211 8.211 0 0 0-2.804 2.713l-.109.178-.095-.16a8.19 8.19 0 0 0-2.532-2.556l-.286-.174a8.183 8.183 0 0 0 2.806-2.711l.108-.179z" fill="#58ABF9" fill-rule="nonzero"/>
        <path d="M62.571 8.55c.467 0 .846.378.846.843v4.874a.844.844 0 0 1-1.691 0V9.393c0-.465.378-.843.845-.843zm-5.261 5.867a.847.847 0 0 1 1.196 0l2.212 2.207c.33.33.33.863 0 1.193a.847.847 0 0 1-1.195 0l-2.213-2.208a.842.842 0 0 1 0-1.192zm-.15 4.405a.844.844 0 1 1 0 1.686h-4.886a.844.844 0 1 1 0-1.686h4.886zm2.363 2.691a.847.847 0 0 1 1.195 0c.33.33.33.864 0 1.193l-2.212 2.207a.847.847 0 0 1-1.196 0 .842.842 0 0 1 0-1.192l2.213-2.208zm3.048 2.706c.467 0 .846.378.846.844v4.874a.844.844 0 0 1-1.691 0v-4.874c0-.466.378-.844.845-.844zm1.853-2.706a.847.847 0 0 1 1.196 0l2.213 2.208c.33.329.33.863 0 1.192a.847.847 0 0 1-1.196 0l-2.213-2.207a.842.842 0 0 1 0-1.193zm8.445-2.691a.844.844 0 1 1 0 1.686h-4.886a.844.844 0 1 1 0-1.686h4.886zm-6.232-4.405a.847.847 0 0 1 1.196 0c.33.329.33.863 0 1.192l-2.213 2.208a.847.847 0 0 1-1.196 0 .842.842 0 0 1 0-1.193l2.213-2.207z" fill="#D4D9DF" fill-rule="nonzero"/>
    </g>
</svg>
