<svg width="98" height="32" viewBox="0 0 98 32" xmlns="http://www.w3.org/2000/svg">
    <defs>
        <linearGradient x1="183.586%" y1="5.699%" x2="183.586%" y2="104.758%" id="qup2zeh9la">
            <stop stop-color="#A7A7A7" offset="17%"/>
            <stop stop-color="#989898" offset="50%"/>
            <stop stop-color="#818181" offset="73%"/>
            <stop stop-color="#727272" offset="100%"/>
        </linearGradient>
    </defs>
    <g fill-rule="nonzero" fill="none">
        <g fill="#989898">
            <path d="M70.327 15.76v1.84h2.227v8.658h1.82V17.6h2.182v-1.84h-6.229zM77.711 15.76v10.498h5.895v-1.825h-4.07v-2.776h3.196v-1.82h-3.197v-2.238h4.07v-1.84h-5.894zM88.816 15.76h-2.135c-1.033 0-1.872.85-1.872 1.888v6.717c0 1.097.79 1.888 1.872 1.888h2.135c1.038 0 1.887-.85 1.887-1.888v-1.019h-1.838v.917c0 .127-.117.17-.2.17h-1.833c-.087 0-.204-.116-.204-.242v-6.407c0-.059.044-.185.175-.185h1.863s.199 0 .199.156v.912h1.838v-1.02a1.89 1.89 0 0 0-1.887-1.887zM97.893 15.76h-1.732v4.077H93.93V15.76h-1.825v10.498h1.825v-4.601h2.231v4.601H98V15.76z"/>
        </g>
        <g fill="#5E5E5E">
            <path d="M66.31 15.76h-2.135c-1.033 0-1.872.85-1.872 1.888v8.605h1.824V22.54h2.232v3.713h1.838v-8.605a1.89 1.89 0 0 0-1.887-1.888zm.049 4.96h-2.232v-2.97c0-.15.18-.156.199-.156h1.834s.199 0 .199.156v2.97zM36.25 15.76v2.111c-.043.049-1.673 1.675-2.231 2.233v-4.35h-1.82v10.494h1.82V21.4c.393.388 1.28 1.276 1.28 1.276l.951.947v2.62h1.839v-3.358l-2.144-2.15c.14-.141 2.144-2.131 2.144-2.131V15.75H36.25v.01zM43.79 15.76h-2.135a1.88 1.88 0 0 0-1.868 1.888v6.717c0 1.097.786 1.888 1.868 1.888h2.135c1.038 0 1.887-.85 1.887-1.888v-6.717a1.887 1.887 0 0 0-1.887-1.888zm.048 8.503c0 .127-.121.17-.199.17h-1.834c-.087 0-.199-.116-.199-.242v-6.402c0-.078.054-.185.17-.185h1.863s.199 0 .199.155v6.51-.006zM55.064 15.76v10.493h5.895v-1.825h-4.07v-2.776h3.197v-1.825h-3.197v-2.233h4.07v-1.84h-5.895zM47.375 15.76v10.493h1.824v-4.6h1.761a.47.47 0 0 1 .47.46v4.14h1.84v-4.305a1.406 1.406 0 0 0-.66-1.199c.412-.272.65-.684.66-1.203v-1.903a1.886 1.886 0 0 0-1.883-1.888H47.38l-.005.005zm4.056 3.533c-.01.398-.291.539-.558.539h-1.674v-2.233h2.076c.102 0 .156.107.156.185v1.51z"/>
        </g>
        <path d="M11.678 0v31.976a33.103 33.103 0 0 1-1.5-.67 27.117 27.117 0 0 1-.839-.422V17.36l-.17.168-.344.339-1.824 1.794v9.892a25.388 25.388 0 0 1-2.334-1.655V18.69l.35-.34 3.483-3.43-3.828-3.772V4.674h2.334v5.5l1.824 1.794.343.338.171.168V2.334H0V0h11.678zM2.334 4.674v6.96c.538.53 3.352 3.281 3.352 3.281s-2.814 2.752-3.352 3.281v7.586c-.15-.16-.301-.32-.447-.48A18.43 18.43 0 0 1 0 22.807v-5.596s1.509-1.48 2.348-2.3C1.508 14.094 0 12.614 0 12.614V4.674h2.334zM25.689 0v2.335h-9.344v10.139c.96-.947 2.032-2 2.338-2.3v-5.5h2.334v6.475l-3.828 3.771 3.483 3.432-.005.004.35.34v9.227c-.422.34-.864.67-1.315.985-.34.228-.68.456-1.019.67v-9.901c-.31-.301-1.378-1.355-2.338-2.301v13.537c-.267.136-.539.272-.82.407-.48.233-.99.462-1.514.68V0H25.69zm0 4.674v7.945s-1.514 1.476-2.349 2.296c.214.2.465.447.724.7l.261.256 1.368 1.34v5.63a18.673 18.673 0 0 1-2.338 2.966v-7.61c-.538-.53-3.352-3.282-3.352-3.282l1.554-1.52.321-.315c.642-.627 1.254-1.227 1.477-1.446v-6.96h2.334z" fill="url(#qup2zeh9la)"/>
        <g fill="#8A8A8A">
            <path d="M37.584 4.873h-1.023v5.955h1.023V8.183h1.039v-.898h-1.039zM51.659 13.139h1.043V4.878h-1.043zM81.631 7.285h-.62V4.878h-1.005v4.635h-2.557V6.145h1.882v-.918h-2.906V9.8c0 .297.32.627.748.627h2.833v2.703h1.004V8.198h.621v4.936h1.024V4.878H81.63v2.407zM89.544 4.873H88.52v4.946h1.024V7.76h1.155v-.898h-1.155zM35.527 7.732c0-.52-.247-.98-.63-1.3h1.014v-.88h-1.698v-.834h-1.039v.835h-1.702v.878h.99c-.384.32-.631.781-.631 1.3 0 .962.83 1.743 1.853 1.743 1.024 0 1.853-.781 1.853-1.742h-.01zm-2.692 0c0-.48.378-.874.844-.874.466 0 .844.393.844.874 0 .48-.378.873-.844.873-.466 0-.844-.393-.844-.873zM87.652 7.732c0-.52-.248-.98-.636-1.3h1.014v-.88h-1.693v-.834h-1.038v.835H83.59v.878h.99c-.383.32-.63.781-.63 1.3 0 .962.829 1.743 1.852 1.743 1.024 0 1.854-.781 1.854-1.742h-.005zm-2.698 0c0-.48.379-.874.845-.874.465 0 .844.393.844.874 0 .48-.379.873-.844.873-.466 0-.845-.393-.845-.873zM57.126 6.237h.024c.059.029 2.387 1.344 2.645 1.49.024-.049.349-.694.373-.733-.044-.024-2.513-1.51-2.513-1.51v-.708h-1.024v.709s-2.469 1.485-2.513 1.51c.02.043.35.683.369.732.252-.146 2.586-1.461 2.644-1.49h-.005zM95.395 10.804V8.125H94.37v2.68h-.83v-2.68h-1.023v2.68h-1.591v.897h7.054v-.898H95.39zM33.888 10.43H32.83v1.961c0 .296.32.626.747.626h4.095v-.902h-3.784V10.43zM53.502 9.052h3.125v.505H54.68v.815h3.838v.544H54.68v1.47c0 .297.32.627.747.627h4.308v-.835h-3.895v-.5h3.716V9.552h-1.912v-.505h3.125v-.883h-7.273v.883l.005.005z"/>
            <path d="M96.064 10.052h1V5.853c0-.296-.32-.626-.747-.626h-4.56v.898h4.307v3.927zM65.534 8.13H64.51v2.679h-.825v-2.68h-1.023v2.68H61.07v.898h7.055v-.898h-2.591v-2.68z"/>
            <path d="M66.208 10.052h1V5.853c0-.296-.32-.626-.748-.626h-4.555v.898h4.303v3.927zM45.09 5.679c0-.296-.32-.626-.747-.626h-4.275v.902h3.998V8.11h-4.968v.903h3.008v1.121h-2.008v.898h3.983v2.146h1.023V10.76c0-.297-.325-.627-.752-.627h-1.208v-1.12h3.018V8.11H45.09V5.68zM68.58 9.411h1.995v.845h-.913v.883h3.964v2.039h1.024v-2.296c0-.296-.32-.626-.747-.626h-.287V9.41h2.014v-.883h-7.05v.883zm3.018 0h.995v.845h-.995V9.41zM88.787 10.285h-3.871v.898h3.609v1.99h1.024V10.91c0-.296-.33-.626-.762-.626zM72.098 8.26c1.082 0 1.96-.824 1.96-1.839 0-1.014-.878-1.84-1.96-1.84-1.082 0-1.96.826-1.96 1.84 0 1.015.878 1.84 1.96 1.84zm0-2.805c.514 0 .931.432.931.966s-.417.966-.931.966-.932-.432-.932-.966.418-.966.932-.966zM49.684 5.3H46.73v.918h2.644v1.601l-2.509 2.52.69.669 2.672-2.713a.713.713 0 0 0 .204-.48V5.93c0-.296-.32-.626-.747-.626V5.3z"/>
        </g>
    </g>
</svg>
