<svg width="113" height="32" viewBox="0 0 113 32" xmlns="http://www.w3.org/2000/svg">
    <defs>
        <linearGradient x1="49.981%" y1="100.062%" x2="49.981%" y2="0%" id="r0f3ektq5a">
            <stop stop-color="#7D7D7D" offset="0%"/>
            <stop stop-color="#8B8B8B" offset="27%"/>
            <stop stop-color="#9F9F9F" offset="50%"/>
            <stop stop-color="#ACACAC" offset="83%"/>
            <stop stop-color="#ACACAC" offset="100%"/>
        </linearGradient>
    </defs>
    <g fill-rule="nonzero" fill="none">
        <path d="M1.263 0h17.823a1.264 1.264 0 0 1 1.262 1.26v29.48A1.257 1.257 0 0 1 19.086 32H1.263C.567 32 .003 31.44 0 30.746V1.264A1.257 1.257 0 0 1 1.263 0z" fill="#D9D9D9"/>
        <path d="M1.408.834h17.537a.63.63 0 0 1 .632.63v21.217a.63.63 0 0 1-.632.63H1.408a.63.63 0 0 1-.631-.63V1.464a.624.624 0 0 1 .631-.63z" fill="#404040"/>
        <path fill="#484848" d="M15.844 24.884h1v5.217h-1zM11.815 24.884v5.217h2.004c.501 0 .907-.405.907-.904v-3.408c0-.5-.406-.905-.907-.905h-2.004zm2.064 4.258a.15.15 0 0 1-.155.145h-1.087v-3.578h1.087a.14.14 0 0 1 .155.135v3.298zM5.827 24.884v2.07H4.58v-2.07h-.822v5.217h.822v-2.333h1.247V30.1h.827v-5.217zM7.817 24.884v5.217h.816v-2.328h.922a.316.316 0 0 1 .326.31v1.998h.827v-2.098a.65.65 0 0 0-.396-.615.645.645 0 0 0 .396-.615v-.964c0-.5-.406-.905-.907-.905H7.817zm.816 2.064v-1.244h1.113a.145.145 0 0 1 .135.155v.734a.34.34 0 0 1-.36.36h-.888v-.005z"/>
        <path d="M9.625 5.886v15.99c-.255-.11-.5-.22-.751-.334l-.421-.21V14.57L7.28 15.72v4.946c-.17-.105-.335-.215-.5-.33-.166-.115-.457-.33-.677-.5v-4.612l.175-.17 1.739-1.718-1.924-1.884V8.21h1.172v2.748l1.173 1.154V7.051h-4.67V5.88h5.857v.005zm-3.006 7.46-1.684-1.643V8.205H3.763v3.997l1.178 1.15-1.178 1.139v2.798c.28.442.597.86.947 1.25l.225.24V14.99l1.684-1.64v-.004zm7.516 1.72-1.749-1.72 1.924-1.883V8.22h-1.172v2.773l-1.173 1.154V7.051h4.69V5.88h-5.857v15.99c.26-.11.501-.22.762-.34l.41-.204V14.57l1.173 1.15v4.951l.501-.335a10.9 10.9 0 0 0 .661-.5v-4.612l-.175-.17.005.01zm1.338-1.72 1.177-1.149V8.225h-1.172v3.498l-1.684 1.644 1.684 1.624v3.807l.235-.25c.347-.384.662-.795.942-1.229v-2.828l-1.177-1.15-.005.006z" fill="url(#r0f3ektq5a)"/>
        <path d="M10.412 2.728h-.39a.37.37 0 0 0-.366.37v1.669h.355v-.72h.436v.72h.356V3.098a.37.37 0 0 0-.39-.37zm0 .965h-.436v-.575c0-.03.035-.03.04-.03h.356s.04 0 .04.03v.575zM4.555 2.728v.41l-.436.435v-.845h-.356v2.039h.356v-.94l.25.25.186.185v.5h.36v-.645l-.405-.414.415-.415v-.555h-.37zM6.013 2.728h-.416a.37.37 0 0 0-.366.37v1.304a.35.35 0 0 0 .366.365h.416a.365.365 0 0 0 .366-.365V3.098a.37.37 0 0 0-.366-.37zm0 1.65s0 .034-.04.034h-.356s-.04-.025-.04-.045V3.123s0-.035.035-.035h.4s.04 0 .04.03v1.264l-.04-.005zM8.222 2.728v2.039H9.37v-.355h-.792v-.54H9.2v-.374h-.622v-.415h.792v-.355zM6.724 2.728v2.039h.356v-.894h.34a.085.085 0 0 1 .091.09v.804h.356v-.834a.28.28 0 0 0-.13-.235.285.285 0 0 0 .13-.235v-.37a.37.37 0 0 0-.351-.37h-.792v.005zm.792.685a.1.1 0 0 1-.11.105H7.08v-.435h.406s.03 0 .03.035v.295z" fill="#FFF"/>
        <path fill="#9F9F9F" d="M11.194 2.728v.355h.436v1.684h.355V3.083h.426v-.355zM12.637 2.728v2.039h1.147v-.355h-.791v-.54h.62v-.374h-.62v-.415h.791v-.355zM14.796 2.728h-.415a.365.365 0 0 0-.366.365v1.304a.354.354 0 0 0 .366.37h.415a.37.37 0 0 0 .366-.37v-.2h-.356v.18s-.025.035-.04.035h-.355s-.04-.025-.04-.045V3.123s0-.035.035-.035h.36s.04 0 .04.03v.18h.356v-.2a.365.365 0 0 0-.366-.365v-.005zM16.565 2.728h-.336v.795h-.435v-.795h-.356v2.039h.356v-.894h.435v.894h.356V2.728z"/>
        <path d="M66.411 18.064v1.423h2.464l.001-1.418h1.358v4.817H66.09a.951.951 0 0 1-1.002-.825v-3.997h1.323zm2.464 2.608H66.41l.001 1.014h2.465v-1.014zm5.182-.65h-1.403v-2.158h-1.348v5.406h1.348v-2.063h1.383l.02-1.185zm-7.265 7.72a.951.951 0 0 0 1.002.825h5.181v-1.084h-4.64v-.8h4.374V23.87h-5.917v1.074h4.51v.735h-4.51v2.064zm-39.399-.959a2.527 2.527 0 0 0 1.456 2.45 2.54 2.54 0 0 0 2.819-.455c.756-.715.997-1.82.606-2.783a2.535 2.535 0 0 0-2.375-1.58 2.457 2.457 0 0 0-2.506 2.368zm1.348 0a1.186 1.186 0 0 1 1.213-1.144c.65.015 1.168.548 1.161 1.197a1.186 1.186 0 0 1-1.186 1.171 1.21 1.21 0 0 1-1.188-1.224zm-3.643-4.182v1.184h9.52v-1.184h-9.52zm2.801-4.472h-1.318v2.648a.951.951 0 0 0 1.003.824h5.657v-1.184h-5.337V18.13H27.9zm53.233 4.012v3.498h1.093v-3.498h1.302l.025.025v3.498h3.418v1.16h-9.305v-1.185h2.12v-3.498h1.347zm-2.35-3.817 5.998.025c.5-.03.937.33 1.002.824v5.497h-1.318v-5.182h-5.682v-1.164zm20.97 5.501v-1.16h-9.3v1.16h2.63v1.11H91.88v1.159h5.226v2.683h1.333v-2.998a.951.951 0 0 0-1.002-.825h-.356v-1.129h2.67zm-4.009 1.11h-1.312v-1.11h1.312v1.11zm-3.232-5.042a2.582 2.582 0 0 0 1.47 2.512c.962.456 2.105.28 2.883-.445a2.578 2.578 0 0 0 .64-2.837 2.59 2.59 0 0 0-2.412-1.634 2.502 2.502 0 0 0-2.58 2.404zm1.353 0a1.231 1.231 0 0 1 1.259-1.19 1.23 1.23 0 0 1 1.206 1.242 1.231 1.231 0 0 1-1.232 1.217 1.256 1.256 0 0 1-1.233-1.27zm-36.968-2.03v10.859h1.328v-6.496h.816v6.496h1.348V17.869H59.04v3.163h-.816v-3.163h-1.328v-.005zm-5.091 1.755h2.846v2.103s-3.071 3.074-2.816 2.789l.912.88 3.036-3.044a.898.898 0 0 0 .266-.635v-2.498a.951.951 0 0 0-1.002-.824H51.81v1.209l-.005.02zm-6.173 9.09h1.318v-3.079a.951.951 0 0 0-1.002-.825h-5.206v1.18h4.89v2.723zm-.035-10.84v1.335h-1.503v1.184h1.503v1h-1.503v1.184h1.503v1.814h1.348v-6.496h-1.348v-.02zm-6.594 5.118a.951.951 0 0 0 1.002.824h3.788V22.6h-3.472v-.974h3.216v-2.553a.951.951 0 0 0-1.002-.824h-3.507v1.184h3.187v1h-3.217v2.498l.005.055zm67.974 2.923v1.674h4.966v1.184h-5.375a.952.952 0 0 1-.867-.713l-.022-.111v-2.034h1.298zm4.74-8.05v8.794h-1.328V25.53h-1.708v-1.13h1.708v-.664h-3.071v1.554h-1.328v-1.554h-2.2v-1.13h6.6V17.86h1.327zm-5.11-.295c.994 0 1.888.605 2.254 1.528a2.414 2.414 0 0 1-.593 2.653 2.43 2.43 0 0 1-2.692.426 2.418 2.418 0 0 1-1.39-2.338 2.347 2.347 0 0 1 2.42-2.269zm.029 1.225a1.081 1.081 0 0 0-1.107 1.044 1.1 1.1 0 0 0 1.077 1.114 1.08 1.08 0 0 0 1.087-1.065 1.08 1.08 0 0 0-1.057-1.093zM28.3 10.463v2.22h5.01v1.188h-5.525a.952.952 0 0 1-.866-.712l-.022-.112v-2.584H28.3zm4.885-7.32v3.173h1.388v1.18h-1.388v3.497h-1.352v-7.85h1.352zm-4.459-.2v1.1h2.24v1.154l-1.424-.001c.51.409.853 1.018.908 1.715a2.453 2.453 0 0 1-2.448 2.257 2.453 2.453 0 0 1-2.448-2.257 2.442 2.442 0 0 1 .908-1.716l-1.364.002V4.042h2.255V2.943h1.373zm-.7 2.899a1.112 1.112 0 0 0-1.128.95l-.01.119h.014A1.136 1.136 0 0 0 28 8.06a1.11 1.11 0 0 0 1.112-1.096 1.11 1.11 0 0 0-1.086-1.122zm23.749-2.694v10.878h1.378V3.148h-1.378zm38.782 0v3.168h.817V3.148h1.353v10.873h-1.353V7.525h-.817v6.496H89.23v-3.563h-3.842a.952.952 0 0 1-.867-.712l-.022-.112V3.613h3.869v1.209h-2.506v4.427h3.367V3.148h1.328zm9.926-.005v6.496h1.353V6.946h1.503V5.76h-1.503V3.143h-1.353zm-2.906-.2v1.1h2.24v1.154l-1.398-.001c.509.409.852 1.018.907 1.715a2.453 2.453 0 0 1-2.448 2.257 2.453 2.453 0 0 1-2.447-2.257 2.442 2.442 0 0 1 .907-1.715H93.95V4.043h2.254V2.943h1.373zm-.675 2.899a1.111 1.111 0 0 0-1.139 1.069 1.136 1.136 0 0 0 1.113 1.149 1.11 1.11 0 0 0 1.111-1.096 1.11 1.11 0 0 0-1.085-1.122zM58.339 2.998v.95l-3.322 1.998c0 .055.46.905.5.965l3.508-1.964c.076.035 3.157 1.774 3.508 1.964.03-.065.46-.91.5-.965l-3.321-1.998v-.95h-1.373zm48.799 4.432v3.528h1.092V7.43h1.348v3.528H113v1.184h-9.32v-1.184h2.105V7.43h1.353zm3.736-3.817c.45.025.828.368.888.824v5.557h-1.322V4.797h-5.688V3.613zM54.21 7.495V8.66h4.129v.664h-2.57V10.4h5.065v.714h-5.066v1.929a.951.951 0 0 0 1.003.824h5.687v-1.099h-5.161v-.66h4.91V9.31h-2.505v-.664h4.134v-1.15H54.21zm13.434-.065v3.528h1.112V7.43h1.328v3.528h3.422v1.184h-9.32v-1.184h2.105V7.43h1.353zm3.786-3.817c.451.025.829.368.889.824v5.557h-1.323V4.797h-5.687V3.613zm-34.968-.23v1.184h5.282v2.838H35.18V8.59h3.973v1.474h-2.655v1.184h5.266v2.828h1.353v-3.188a.961.961 0 0 0-1.003-.83h-1.583V8.586h4.009V7.4h-1.448V4.202a.951.951 0 0 0-1.003-.824h-5.627v.005zm37.696 4.572v1.164h2.635v1.11H75.56v1.164h5.237v2.688h1.378v-3.023a.951.951 0 0 0-1.003-.824h-.375v-1.11h2.66V7.96h-9.3v-.005zm4.008 1.164h1.318v1.11h-1.318v-1.11zm23.665 1.98a.971.971 0 0 0-1.002-.825h-5.126v1.184h4.77v2.618h1.353l.005-2.978zm-25.64-5.917a2.587 2.587 0 0 0 2.586 2.423c1.368 0 2.5-1.061 2.586-2.423a2.587 2.587 0 0 0-2.586-2.423 2.587 2.587 0 0 0-2.585 2.423zm1.359 0a1.231 1.231 0 0 1 1.258-1.19 1.23 1.23 0 0 1 1.206 1.243 1.231 1.231 0 0 1-1.232 1.216 1.254 1.254 0 0 1-1.232-1.27zM50.157 6.996V4.497a.951.951 0 0 0-1.003-.824h-3.888v1.244h3.508v2.109s-3.262 3.263-3.317 3.313l.911.884 3.508-3.573a.893.893 0 0 0 .266-.634l.015-.02z" fill="#8A8A8A"/>
    </g>
</svg>
