<svg width="198" height="56" viewBox="0 0 198 56" xmlns="http://www.w3.org/2000/svg">
    <defs>
        <linearGradient x1="50.019%" y1="100%" x2="50.019%" y2=".031%" id="cuwxbtmv0a">
            <stop stop-color="#EA5B0C" offset="0%"/>
            <stop stop-color="#EE7203" offset="27%"/>
            <stop stop-color="#F39200" offset="50%"/>
            <stop stop-color="#F7A600" offset="83%"/>
            <stop stop-color="#F7A600" offset="100%"/>
        </linearGradient>
    </defs>
    <g fill-rule="nonzero" fill="none">
        <path d="M2.213 0h31.236a2.21 2.21 0 0 1 2.213 2.203v51.594A2.21 2.21 0 0 1 33.45 56H2.213A2.21 2.21 0 0 1 0 53.797V2.203A2.21 2.21 0 0 1 2.213 0z" fill="#D7D9DA"/>
        <path d="M27.768 43.541h1.431v9.128h-1.431V43.54zm-7.06 0v9.128h3.477c.878 0 1.59-.708 1.59-1.583v-5.963c0-.874-.712-1.582-1.59-1.582h-3.478zm3.617 7.45c0 .165-.15.253-.272.253h-1.906v-6.26h1.906c.132 0 .272.078.272.236v5.77zm-14.112-7.45v3.62H8.026v-3.62h-1.44v9.128h1.44v-4.083h2.187v4.083h1.449V43.54h-1.449zm3.486 0v9.128h1.432v-4.074h1.616c.333 0 .562.244.57.542v3.532h1.45v-3.716c0-.516-.273-.874-.694-1.075.412-.193.693-.542.693-1.076v-1.679c0-.874-.71-1.582-1.59-1.582H13.7zm1.432 3.61v-2.176h1.95c.149 0 .236.14.236.27v1.286c0 .411-.28.63-.632.63h-1.554v-.01z" fill="#1F5187"/>
        <path d="M2.468 1.46h30.727c.614 0 1.106.498 1.106 1.102v37.123c0 .612-.5 1.102-1.106 1.102H2.468a1.105 1.105 0 0 1-1.107-1.102V2.562A1.1 1.1 0 0 1 2.468 1.46z" fill="#004F9F"/>
        <path d="M15.508 8.84v27.986a37.058 37.058 0 0 1-1.317-.586l-.738-.367V24.035c-.843.83-1.782 1.749-2.054 2.01v8.657a18.94 18.94 0 0 1-.879-.577c-.404-.28-.799-.577-1.185-.883V25.18l.307-.297 3.065-3.008-3.372-3.296v-5.674h2.055v4.809c.272.262 1.212 1.189 2.055 2.02v-8.857H5.243V8.83h10.265v.008zM10.24 21.892s-2.476-2.413-2.95-2.877v-6.094H5.234v6.951s1.326 1.294 2.064 2.011c-.738.717-2.064 2.011-2.064 2.011v4.896a16.323 16.323 0 0 0 1.66 2.186l.395.42v-6.645c.474-.463 2.95-2.868 2.95-2.868v.009zM23.412 24.9l-3.065-3.008 3.372-3.296v-5.675h-2.055v4.81c-.272.261-1.212 1.188-2.055 2.019v-8.874h8.22V8.83H17.563v28.004c.457-.192.905-.385 1.335-.595.246-.122.483-.236.72-.358V24.035c.843.83 1.783 1.749 2.055 2.01v8.665c.299-.192.597-.384.896-.585.395-.28.79-.569 1.159-.866V25.18l-.307-.297-.01.018zm2.345-3.008c.737-.717 2.063-2.011 2.063-2.011v-6.95h-2.055v6.093c-.474.464-2.95 2.877-2.95 2.877s2.476 2.413 2.95 2.867v6.663l.413-.437a16.919 16.919 0 0 0 1.651-2.151v-4.931s-1.335-1.294-2.064-2.011l-.008-.01z" fill="url(#cuwxbtmv0a)" transform="translate(1.361 1.46)"/>
        <path d="M18.248 4.774h-.729a.645.645 0 0 0-.64.647v2.92h.623V7.082h.764v1.259h.623v-2.92a.65.65 0 0 0-.64-.647zm.018 1.687h-.764V5.456c0-.053.061-.053.07-.053h.624s.07 0 .07.053V6.46zM7.983 4.774v.717l-.764.76V4.774h-.624V8.34h.624V6.697l.439.437.325.324v.892h.632V7.204s-.685-.682-.73-.725c.054-.044.73-.726.73-.726v-.97h-.632v-.01zm2.573 0h-.73a.645.645 0 0 0-.64.647v2.282c0 .376.272.638.64.638h.73c.36 0 .64-.289.64-.638V5.42a.65.65 0 0 0-.64-.647zm.017 2.885s-.044.061-.07.061h-.624s-.07-.043-.07-.078V5.464s.018-.06.062-.06h.632s.07 0 .07.052v2.212-.009zm3.838-2.885V8.34h2.01v-.62h-1.387v-.945h1.09v-.62h-1.09v-.761h1.388v-.621H14.41zm-2.626 0V8.34h.623V6.776h.598c.087 0 .158.061.158.157v1.408h.623v-1.46a.488.488 0 0 0-.228-.411.497.497 0 0 0 .228-.411v-.647a.65.65 0 0 0-.64-.647h-1.37l.008.009zm1.387 1.198c0 .13-.096.183-.193.183h-.57v-.76h.71s.053.035.053.06v.517z" fill="#FFF"/>
        <path d="M19.618 4.774v.62h.764v2.947h.624V5.395h.746v-.621h-2.134zm2.53 0V8.34h2.01v-.62h-1.387v-.945h1.089v-.62h-1.09v-.761h1.388v-.621h-2.01zm3.784 0h-.729a.643.643 0 0 0-.64.638v2.282c0 .376.272.647.64.647h.73a.645.645 0 0 0 .64-.647v-.35h-.623v.315s-.044.061-.07.061h-.624s-.07-.043-.07-.078V5.464s.017-.06.061-.06h.633s.07 0 .07.052v.314h.623v-.35c0-.349-.29-.637-.64-.637v-.01zm3.1 0h-.588v1.39h-.764v-1.39h-.624V8.34h.624V6.776h.764v1.565h.623V4.774h-.035z" fill="#F39200"/>
        <path d="M116.392 31.607v2.465h4.32v-2.457h2.354v8.402h-7.262c-.993 0-1.73-.76-1.73-1.442v-6.968h2.318zm4.32 4.537h-4.32v1.801h4.32v-1.801zm9.08-1.11h-2.423v-3.777h-2.362v9.46h2.362v-3.611h2.424v-2.072zM117.06 48.542c0 .682.738 1.443 1.73 1.443h9.08V48.06h-8.131V46.69h7.666v-4.923H117.06v1.88H125v1.285h-7.94v3.611zm-69.05-1.679c0 2.282 1.985 4.145 4.435 4.145 2.45 0 4.435-1.863 4.435-4.145 0-2.282-1.994-4.144-4.435-4.144s-4.435 1.862-4.435 4.144zm2.363 0c0-1.18.93-2.142 2.08-2.142 1.151 0 2.073.962 2.073 2.142s-.93 2.142-2.072 2.142-2.081-.961-2.081-2.142zm-6.385-7.318v2.072h16.668v-2.072H43.987zm4.91-7.825h-2.31v4.634c0 .682.737 1.443 1.73 1.443h9.94v-2.072h-9.352V31.72h-.009zm93.296 7.021v6.164h1.914V38.74h2.362v6.164h5.99v2.072H136.15v-2.072h3.68V38.74h2.362zm6.419-6.68c.992 0 1.73.76 1.73 1.443v9.661h-2.31v-9.032h-9.958v-2.072zm26.213 9.626V39.66h-16.299v2.028h4.61v1.941h-2.107v2.029h9.16v4.695h2.335V45.07c0-.682-.737-1.443-1.73-1.443h-.623v-1.94h4.654zm-7.016 1.941h-2.301v-1.94h2.3v1.94zm-5.673-8.821c0 2.334 2.028 4.231 4.522 4.231s4.532-1.897 4.532-4.231c0-2.335-2.029-4.232-4.532-4.232s-4.522 1.897-4.522 4.232zm2.37 0c0-1.224.976-2.221 2.161-2.221 1.186 0 2.16.997 2.16 2.22 0 1.225-.966 2.221-2.16 2.221-1.194 0-2.16-.996-2.16-2.22zm-64.79-3.55v18.999h2.327V38.907h1.431v11.357h2.363V31.266h-2.363V36.8h-1.431v-5.534h-2.327v-.01zm-8.922 3.069h4.988v3.68s-5.384 5.378-4.936 4.88l1.598 1.538 5.322-5.325a1.57 1.57 0 0 0 .466-1.11v-4.328c0-.682-.738-1.442-1.73-1.442h-5.7v2.115l-.008-.008zM79.974 50.23h2.31v-5.386c0-.682-.738-1.443-1.73-1.443h-9.15v2.072h8.57v4.765-.008zm-.07-18.964V33.6h-2.617v2.072h2.617v1.74h-2.617v2.072h2.617v3.174h2.363V31.274h-2.363v-.008zm-11.548 8.909c0 .682.738 1.442 1.73 1.442h6.666v-2.072h-6.086V37.84h5.638v-4.467c0-.682-.738-1.443-1.73-1.443H68.4v2.072h5.585v1.775h-5.637v4.398h.008zm119.132 5.158v2.93h8.703v2.071h-9.247c-.937 0-1.647-.678-1.723-1.328l-.007-.114v-3.559h2.274zm8.308-14.085v15.388h-2.327V44.67h-2.995v-1.976h2.995V41.53h-5.383v2.72h-2.328v-2.72h-3.855v-1.976h11.565v-8.306h2.328zm-8.957-.516c2.335 0 4.241 1.793 4.241 3.97 0 2.177-1.906 3.96-4.241 3.96-2.336 0-4.242-1.775-4.242-3.96 0-2.186 1.906-3.97 4.242-3.97zm0 2.02c-1.037 0-1.889.874-1.889 1.95 0 1.075.835 1.95 1.889 1.95 1.053 0 1.896-.875 1.896-1.95 0-1.076-.86-1.95-1.896-1.95z" fill="#1D1D1B"/>
        <path d="M49.59 18.308v3.882h8.764v2.081H48.87c-.937 0-1.647-.678-1.723-1.328l-.007-.115v-4.52h2.45zM58.16 5.5v5.552h2.398v2.072h-2.397v6.094H55.79V5.5h2.37zm-7.815-.35v1.924h3.926v2.02h-2.327c.888.733 1.448 1.805 1.448 2.999 0 2.212-1.914 4.004-4.285 4.004-2.371 0-4.294-1.792-4.294-4.004 0-1.195.563-2.267 1.453-3h-2.279V7.074h3.952V5.15h2.406zm-1.247 4.932c-1.071 0-1.95.9-1.95 2.01 0 1.111.879 2.012 1.95 2.012 1.072 0 1.95-.9 1.95-2.011 0-1.11-.878-2.011-1.95-2.011zm41.643-4.573v19.034h2.415V5.508H90.74zm67.97 0v5.543h1.431V5.508h2.371v19.034h-2.37V13.167h-1.432v11.366h-2.327V18.3h-6.56c-.937 0-1.647-.678-1.723-1.328l-.007-.114V6.32h6.718v2.116h-4.356v7.747h5.927V5.507h2.328zm17.396-.009v11.402h2.371v-4.748h2.679v-2.072h-2.679V5.499h-2.37zm-5.067-.35v1.924h3.926v2.02l-2.337-.001c.89.733 1.45 1.805 1.45 3 0 2.212-1.932 4.004-4.294 4.004-2.363 0-4.286-1.792-4.286-4.004 0-1.194.558-2.266 1.445-3h-2.262V7.074h3.952V5.15h2.406zm-1.255 4.932c-1.072 0-1.95.9-1.95 2.01 0 1.111.878 2.012 1.95 2.012 1.07 0 1.95-.9 1.95-2.011 0-1.11-.88-2.011-1.95-2.011zm-67.54-4.8v1.626s-5.717 3.419-5.822 3.48c.043.096.807 1.582.86 1.687.589-.332 5.99-3.366 6.121-3.436l.026-.017.027.017c.131.061 5.532 3.104 6.12 3.436.053-.113.808-1.59.861-1.687-.105-.061-5.822-3.48-5.822-3.48V5.281h-2.371zm85.48 7.72v6.173h1.915V13h2.362v6.173H198v2.072h-16.334v-2.072h3.688V13h2.371zm6.42-6.68c.992 0 1.73.761 1.73 1.443v9.679h-2.319v-9.05h-9.967V6.321zm-99.136 6.776v2.037h7.236v1.163H97.74v1.88h8.878v1.25H97.74v3.393c0 .682.737 1.442 1.73 1.442h9.967V22.34h-9.019v-1.154h8.606v-4.896h-4.426v-1.163h7.245v-2.037H95l.009.008zm23.578-.096v6.173h1.915V13h2.362v6.173h5.998v2.072h-16.334v-2.072h3.688V13h2.371zm6.429-6.68c.992 0 1.73.761 1.73 1.443v9.679h-2.319v-9.05h-9.967V6.321zM63.904 5.92v2.072h9.256v4.966H61.656v2.073h6.964v2.579h-4.654v2.072h9.23v4.949h2.37V19.05c0-.682-.746-1.451-1.739-1.451h-2.792v-2.58h6.981V12.95h-2.485V7.353c0-.682-.738-1.443-1.73-1.443h-9.897v.01zm66.02 8v2.037h4.62v1.941h-2.117v2.037h9.177v4.704h2.371v-5.29c0-.681-.737-1.442-1.73-1.442h-.658v-1.941h4.663v-2.037h-16.325v-.009zm6.99 2.037h2.31v1.941h-2.31v-1.94zm41.556 3.463c0-.682-.773-1.443-1.766-1.443h-8.966v2.072h8.36v4.582h2.372v-5.211zM133.534 9.067c0 2.334 2.037 4.24 4.531 4.24 2.494 0 4.532-1.906 4.532-4.24 0-2.335-2.029-4.24-4.532-4.24s-4.531 1.905-4.531 4.24zm2.38 0c0-1.224.966-2.221 2.16-2.221 1.194 0 2.151.997 2.151 2.22 0 1.225-.965 2.221-2.151 2.221s-2.16-.996-2.16-2.22zm-48.01 3.2V7.93c0-.682-.737-1.443-1.73-1.443h-6.84v2.116h6.12v3.69s-5.717 5.71-5.813 5.797l1.598 1.547 6.191-6.251c.29-.289.466-.682.466-1.11l.008-.01z" fill="#1F5187"/>
    </g>
</svg>
