<svg width="130" height="32" viewBox="0 0 130 32" xmlns="http://www.w3.org/2000/svg">
    <g fill="none" fill-rule="evenodd">
        <path d="m37.25 7.037-.016.016v5.18h2.352V7.322h4.956V4.989h-5.226L37.25 7.037zm-.016 17.718v5.181l2.066 2.048.016.016h5.226v-2.332h-4.956v-4.913h-2.352z" fill="#C8C8C8"/>
        <path d="M76.87 13.547v1.423h2.484l.001-1.418h1.369v4.814h-4.292a.955.955 0 0 1-.896-.824v-3.995h1.334zm2.484 2.606H76.87v1.014h2.486v-1.014zm5.224-.648h-1.414v-2.157h-1.359v5.402h1.359v-2.062h1.394l.02-1.183zm-7.324 7.714a.957.957 0 0 0 1.01.824h5.223v-1.084H78.81v-.799h4.41v-2.81h-5.966v1.073H81.8v.734h-4.546v2.062zm-33.681-.959a2.523 2.523 0 0 0 1.467 2.448c.952.44 2.08.26 2.842-.455a2.506 2.506 0 0 0 .611-2.78 2.556 2.556 0 0 0-2.395-1.58c-1.354-.025-2.479 1.029-2.525 2.367zm1.359 0a1.191 1.191 0 0 1 1.223-1.143 1.19 1.19 0 0 1 1.17 1.196 1.19 1.19 0 0 1-2.051.804 1.196 1.196 0 0 1-.342-.857zm-3.673-4.179v1.183h9.598v-1.183h-9.598zm2.824-4.469h-1.329v2.647a.957.957 0 0 0 1.01.823h5.704V15.9h-5.38v-2.287h-.005zm45.615 4.01v3.495h1.101v-3.495h1.314l.025.025v3.495h3.445V22.3h-9.38v-1.183h2.136v-3.495h1.359zm-2.37-3.815 6.047.025a.957.957 0 0 1 1.01.824v5.492h-1.328V14.97H87.33v-1.163zm19.128 5.497v-1.158h-9.375v1.158h2.652v1.109H98.52v1.158h5.268v2.681h1.344v-2.995a.957.957 0 0 0-1.01-.824h-.36v-1.129h2.693zm-4.04 1.109h-1.324v-1.109h1.323v1.109zm-3.259-5.038a2.577 2.577 0 0 0 1.482 2.51c.969.456 2.121.28 2.906-.444a2.56 2.56 0 0 0 .646-2.835 2.611 2.611 0 0 0-2.433-1.633c-1.387-.042-2.549 1.03-2.601 2.402zm1.364 0a1.236 1.236 0 0 1 1.269-1.188c.68.014 1.223.568 1.215 1.24a1.236 1.236 0 0 1-1.241 1.216 1.26 1.26 0 0 1-1.243-1.268zM69.29 13.348v10.85h1.339v-6.491h.823v6.49h1.359V13.353h-1.36v3.16h-.822v-3.16h-1.34v-.005zM64.158 15.1h2.869v2.102s-3.097 3.07-2.839 2.786l.92.88 3.06-3.042a.894.894 0 0 0 .268-.634v-2.496a.957.957 0 0 0-1.01-.824h-3.263v1.208l-.005.02zm-4.21 9.082h1.328v-3.075a.957.957 0 0 0-1.01-.824h-5.249v1.178h4.93v2.721zm-.036-10.83v1.334h-1.516v1.183h1.516v.999h-1.516v1.183h1.516v1.813h1.359v-6.491h-1.36v-.02zm-6.648 5.113a.957.957 0 0 0 1.01.824h3.82v-1.208h-3.501v-.974h3.243v-2.551a.957.957 0 0 0-1.01-.824h-3.537v1.184h3.213v.998H53.26v2.497l.005.054zm58.464 2.921v1.673h5.006v1.183h-5.42a.957.957 0 0 1-.873-.712l-.022-.112v-2.032h1.309zm4.778-8.043v8.787h-1.338v-1.123h-1.723v-1.128h1.723v-.665h-3.097v1.553h-1.338v-1.553h-2.218v-1.128h6.652v-4.743h1.34zm-5.152-.295c1.003 0 1.904.605 2.273 1.526.37.922.132 1.973-.598 2.652a2.467 2.467 0 0 1-2.714.426 2.413 2.413 0 0 1-1.401-2.337c.041-1.292 1.133-2.306 2.44-2.267zm.03 1.224a1.086 1.086 0 0 0-1.116 1.043c-.009.603.476 1.1 1.086 1.113a1.085 1.085 0 0 0 1.095-1.063 1.084 1.084 0 0 0-1.066-1.093z" fill="#FAFAFA" fill-rule="nonzero"/>
        <path d="M122.692 0v4.92h-4.952v2.332h4.956v4.913h2.353v-4.92H130V4.913h-4.956V0h-2.352zm.004 24.687V29.6h-4.956v2.331h5.226l2.066-2.048.016-.016v-5.18h-2.352z" fill="#C8C8C8"/>
        <path d="M5.069 13.312v1.674H1.842v-1.674H.178v6.497h6.554v-6.497H5.07zM1.842 18.16h3.227v-1.525H1.842v1.525zm2.445 2.772H2.623v2.195H.178v1.65h6.554v-1.65H4.287v-2.195zm11.062-5.196v-2.424h-1.664v6.497h1.664v-2.424h1.371v-1.65H15.35zm-7.223 4.073h4.588v-1.65H9.789v-3.198h2.925v-1.65H8.126v6.498zm18.053-4.073v-2.424h-1.664v6.497h1.664v-2.424h1.371v-1.65H26.18zm-5.56 2.424v-4.848h-1.664v6.497h4.588v-1.65H20.62zm7.209 1.649h6.554v-1.65h-6.554v1.65zm1.935 1.123H28.1v3.844h6.282v-1.65h-4.619v-2.194zm1.342-3.523c1.46 0 2.645-1.174 2.645-2.622s-1.184-2.622-2.645-2.622-2.646 1.174-2.646 2.622 1.185 2.622 2.646 2.622m0-3.678c.588 0 1.066.473 1.066 1.056 0 .584-.478 1.057-1.066 1.057a1.061 1.061 0 0 1-1.066-1.057c0-.583.477-1.056 1.066-1.056" fill="#FAFAFA"/>
        <path d="M3.82 7.63a2.762 2.762 0 0 1-1.65-1.504 2.926 2.926 0 0 1-1.754 1.69L0 7.179c1.1-.39 1.737-1.325 1.737-2.29v-.102H.236v-.647h3.796v.647H2.554v.093c0 .88.605 1.753 1.666 2.12l-.4.63zm2.09 1.745c0 .841-.912 1.332-2.39 1.332-1.484 0-2.396-.49-2.396-1.332 0-.834.912-1.333 2.397-1.333 1.477 0 2.39.5 2.39 1.333zm-.81 0c0-.46-.581-.71-1.58-.71-1.013 0-1.587.25-1.587.71 0 .46.574.709 1.588.709.998 0 1.58-.25 1.58-.71zM5.07 5.432V3.664h.81v4.192h-.81v-1.77H3.812v-.654h1.257zm8.444 2.992h-2.837v2.283h-.81V8.424h-2.79v-.646h6.437v.646zm-.794-1.41H7.855V3.937h.81v.888h3.245v-.888h.81v3.077zm-4.055-.647h3.246v-.895H8.664v.895zm9.503-1.335h-3.938v-.64h1.596V3.66h.81v.733h1.532v.639zm-1.941 2.976c-.944 0-1.627-.546-1.627-1.332 0-.78.683-1.325 1.627-1.325.95 0 1.634.545 1.634 1.325 0 .786-.683 1.332-1.634 1.332zm-.92.553h4.786v2.205h-.809V9.208h-3.977V8.56zm.92-1.169c.518 0 .88-.272.88-.716 0-.437-.362-.71-.88-.71-.511 0-.873.273-.873.71 0 .444.362.716.873.716zm3.866-3.669v4.472h-.809v-.826h-1.092v-.654h1.092v-.686h-1.077v-.647h1.077V3.723h.81zm5.016 3.985a2.87 2.87 0 0 1-1.697-1.605c-.323.786-.912 1.425-1.745 1.737l-.417-.647a2.588 2.588 0 0 0 1.738-2.438v-.701h.825v.701c0 .997.62 1.94 1.713 2.314l-.417.639zm2.17 2.204v.655h-4.842V8.33h.817v1.581h4.025zm-1.014-1.098h.81V3.672h-.81v5.142z" fill="#C0C0BF"/>
    </g>
</svg>
