<svg width="120" height="110" viewBox="0 0 120 110" xmlns="http://www.w3.org/2000/svg">
    <defs>
        <linearGradient x1="50.019%" y1="100%" x2="50.019%" y2=".031%" id="tr1v8wx2ka">
            <stop stop-color="#96B2FF" offset="0%"/>
            <stop stop-color="#FFF" offset="100%"/>
        </linearGradient>
    </defs>
    <g fill="none" fill-rule="evenodd">
        <path d="M0 0h120v110H0z"/>
        <path d="M56.378 10.031v99.938c-1.586-.687-3.172-1.374-4.664-2.092l-2.612-1.311V64.293a1348.527 1348.527 0 0 1-7.275 7.18v30.91a67.009 67.009 0 0 1-3.11-2.061c-1.43-1-2.829-2.061-4.197-3.154V68.383l1.088-1.062 10.851-10.74-11.939-11.77V24.55h7.276V41.72c.963.937 4.29 4.246 7.275 7.212V17.306h-29.04V10h36.347v.031zM37.723 56.644s-8.768-8.617-10.447-10.272v-21.76H20v24.82s4.695 4.62 7.307 7.18C24.695 59.173 20 63.794 20 63.794v17.484c1.648 2.654 3.638 5.276 5.876 7.805l1.4 1.499V66.853c1.679-1.655 10.447-10.24 10.447-10.24v.03zm46.638 10.74L73.51 56.644l11.939-11.77V24.61h-7.276v17.172c-.964.936-4.29 4.246-7.275 7.212v-31.69H100V10H63.653v100c1.617-.687 3.203-1.374 4.726-2.123.87-.437 1.71-.843 2.55-1.28V64.293c2.985 2.966 6.312 6.244 7.275 7.18v30.94a184.608 184.608 0 0 0 3.172-2.091c1.399-1 2.798-2.03 4.104-3.091V68.383l-1.088-1.062-.031.063zm8.301-10.74c2.612-2.56 7.307-7.181 7.307-7.181v-24.82h-7.276v21.76c-1.679 1.655-10.447 10.272-10.447 10.272s8.768 8.617 10.447 10.24v23.79l1.462-1.56a60.36 60.36 0 0 0 5.845-7.68v-17.61s-4.726-4.62-7.307-7.18l-.03-.031z" fill="url(#tr1v8wx2ka)" fill-rule="nonzero" opacity=".1"/>
        <path d="M73.974 33H76v12h-2.026V33zm-9.991 0v12h4.921c1.243 0 2.25-.931 2.25-2.08v-7.84c0-1.149-1.007-2.08-2.25-2.08h-4.921zm5.12 9.793c0 .218-.211.333-.385.333H66.02v-8.23h2.697c.186 0 .385.104.385.31v7.587zM49.133 33v4.759h-3.095V33H44v12h2.038v-5.368h3.094V45h2.05V33h-2.05zm4.933 0v12h2.026v-5.356h2.286c.472 0 .796.322.808.712V45h2.05v-4.885c0-.678-.385-1.15-.981-1.414.584-.253.982-.712.982-1.414V35.08c0-1.149-1.007-2.08-2.25-2.08h-4.921zm2.026 4.747v-2.862h2.758c.212 0 .336.184.336.356v1.69c0 .54-.398.828-.895.828h-2.2v-.012z" fill="#FFD64A" fill-rule="nonzero"/>
        <path d="M56.064 57.96v2.291h4.104v-2.284h2.237v7.813h-6.9c-.943 0-1.644-.707-1.644-1.341v-6.48h2.203zm4.104 4.218h-4.105v1.676h4.106v-1.676zm8.628-1.032h-2.303v-3.512h-2.244v8.797h2.244v-3.358h2.303v-1.927zM56.698 73.707c0 .634.7 1.342 1.644 1.342h8.627V73.26h-7.726v-1.276h7.283v-4.577h-9.828v1.747h7.542v1.196h-7.542v3.357zm19.738-9.114v5.732h1.819v-5.732h2.244v5.732h5.69v1.927H70.697v-1.927h3.496v-5.732h2.244zm6.1-6.21c.942 0 1.643.706 1.643 1.34v8.984h-2.194V60.31h-9.462v-1.927zm21.04 8.95v-1.886H88.09v1.886h4.38v1.805h-2.002v1.886h8.702v4.366h2.22v-4.91c0-.634-.702-1.342-1.645-1.342h-.592v-1.805h4.422zm-6.667 1.805h-2.186v-1.805h2.186v1.805zm-5.39-8.203c0 2.17 1.927 3.935 4.297 3.935 2.37 0 4.305-1.764 4.305-3.935 0-2.17-1.927-3.935-4.305-3.935-2.378 0-4.297 1.764-4.297 3.935zm2.253 0c0-1.138.926-2.065 2.052-2.065s2.053.927 2.053 2.065A2.06 2.06 0 0 1 95.824 63a2.06 2.06 0 0 1-2.052-2.065zm-49.527-3.3V75.3h2.211V64.748h1.36v10.56h2.245V57.643h-2.245v5.147h-1.36v-5.147h-2.21v-.008zm-8.476 2.853h4.739v3.423s-5.115 5-4.69 4.536l1.52 1.431 5.055-4.951c.267-.26.442-.626.442-1.033V59.87c0-.634-.7-1.342-1.643-1.342h-5.415v1.968l-.008-.008zm-6.036 14.788h2.194v-5.008c0-.634-.7-1.341-1.644-1.341H21.59v1.927h8.144v4.43-.008zm-.067-17.634v2.171H27.18v1.927h2.486v1.618H27.18v1.927h2.486v2.95h2.244V57.65h-2.244v-.008zm-10.972 8.285c0 .634.701 1.341 1.644 1.341h6.333v-1.927h-5.782v-1.585h5.356v-4.154c0-.635-.7-1.342-1.644-1.342h-5.865v1.927h5.306v1.65h-5.356v4.09h.008zm93.038 4.797v2.723H120v1.927h-8.786c-.942 0-1.643-.707-1.643-1.341v-3.31h2.16zm7.893-13.098v14.309h-2.211v-1.83h-2.846v-1.837h2.846v-1.082l-5.115.001v2.528h-2.21v-2.528h-3.664V65.35h10.988v-7.724h2.212zm-8.51-.48c2.219 0 4.03 1.667 4.03 3.691 0 2.025-1.811 3.683-4.03 3.683-2.22 0-4.03-1.65-4.03-3.683 0-2.032 1.81-3.69 4.03-3.69zm0 1.878c-.985 0-1.795.813-1.795 1.813a1.798 1.798 0 1 0 3.596 0c0-1-.817-1.813-1.802-1.813zM3.82 72.146C3.821 74.268 5.707 76 8.035 76c2.327 0 4.213-1.732 4.213-3.854s-1.894-3.853-4.213-3.853c-2.32 0-4.214 1.731-4.214 3.853zm2.245 0c0-1.097.884-1.992 1.977-1.992s1.969.895 1.969 1.992c0 1.098-.884 1.992-1.969 1.992a1.991 1.991 0 0 1-1.977-1.992zM0 65.341v1.927h15.836v-1.927H0zm4.664-7.276H2.47v4.309c0 .634.7 1.341 1.643 1.341h9.445V61.79H4.672v-3.724h-.008z" fill="#FFF" fill-rule="nonzero"/>
    </g>
</svg>
