<svg width="16" height="16" viewBox="0 0 16 16" xmlns="http://www.w3.org/2000/svg">
    <g fill="none" fill-rule="evenodd">
        <path d="M0 0h16v16H0z"/>
        <path d="M7.411.005v15.99c-.257-.11-.515-.22-.757-.335l-.425-.21V8.688c-.485.474-1.026.999-1.182 1.149v4.945a13.29 13.29 0 0 1-1.187-.834V9.34l.176-.17L5.8 7.453 3.86 5.57V2.328h1.182v2.747c.156.15.697.68 1.182 1.154V1.17H1.505V0h5.906v.005zM4.38 7.463 2.682 5.82V2.338H1.5v3.971s.763.74 1.187 1.149L1.5 8.607v2.797c.268.425.591.845.955 1.25l.227.239V9.096L4.38 7.458v.005zm7.579 1.718-1.764-1.718 1.94-1.883V2.338h-1.182v2.747c-.156.15-.697.68-1.182 1.154V1.17H14.5V0H8.594v16c.262-.11.52-.22.768-.34.141-.07.278-.135.414-.204v-6.77c.485.475 1.026 1 1.182 1.15v4.95c.172-.11.344-.22.516-.335.227-.16.454-.324.666-.494V9.34l-.176-.17-.005.01zm1.349-1.718 1.187-1.149V2.343h-1.182v3.482l-1.698 1.643s1.425 1.379 1.698 1.638v3.807l.237-.25c.359-.395.677-.81.95-1.229V8.617s-.768-.74-1.187-1.149l-.005-.005z" fill="#1F5AFC" fill-rule="nonzero"/>
    </g>
</svg>
