<svg width="30" height="36" viewBox="0 0 30 36" xmlns="http://www.w3.org/2000/svg">
    <defs>
        <linearGradient x1="50.019%" y1="100%" x2="50.019%" y2=".031%" id="au59b9spza">
            <stop stop-color="#EA5B0C" offset="0%"/>
            <stop stop-color="#EE7203" offset="27%"/>
            <stop stop-color="#F39200" offset="50%"/>
            <stop stop-color="#F7A600" offset="83%"/>
            <stop stop-color="#F7A600" offset="100%"/>
        </linearGradient>
    </defs>
    <path d="M38.642 22.011V57.99a50.031 50.031 0 0 1-1.75-.753l-.979-.472V41.545a496.52 496.52 0 0 1-2.728 2.586v11.127a25.241 25.241 0 0 1-1.166-.742 30.636 30.636 0 0 1-1.574-1.135V43.018l.408-.382 4.07-3.867-4.478-4.237v-7.294h2.728v6.181c.362.337 1.61 1.529 2.729 2.597V24.63h-10.89V22h13.63v.011zm-6.996 16.78s-3.288-3.101-3.918-3.697V27.26H25v8.935s1.76 1.664 2.74 2.586c-.98.921-2.74 2.585-2.74 2.585v6.294c.618.955 1.364 1.9 2.204 2.81l.524.54v-8.543c.63-.596 3.918-3.686 3.918-3.686v.01zm17.49 3.867-4.07-3.866 4.477-4.238V27.26h-2.728v6.182c-.361.337-1.609 1.528-2.728 2.596V24.63H55V22H41.37v36c.606-.247 1.2-.495 1.772-.764.327-.158.642-.304.956-.461v-15.23a496.518 496.518 0 0 0 2.729 2.586v11.138c.396-.247.793-.495 1.189-.753.525-.36 1.05-.73 1.539-1.113V43.018l-.408-.382-.012.022zm3.112-3.866c.98-.922 2.74-2.585 2.74-2.585V27.27H52.26v7.834c-.63.596-3.918 3.698-3.918 3.698s3.288 3.102 3.918 3.687v8.564l.548-.562A21.844 21.844 0 0 0 55 47.727v-6.339s-1.772-1.663-2.74-2.585l-.012-.011z" transform="translate(-25 -22)" fill="url(#au59b9spza)" fill-rule="nonzero"/>
</svg>
