<svg width="825" height="734" viewBox="0 0 825 734" xmlns="http://www.w3.org/2000/svg">
    <path d="M823.242 376.943c10.362 94.943-25.262 208.636-102.354 268.2C519.058 801.085 181.583 747.002 56.8 520.336l-.317-.579C14.936 444-7.297 341.123 2.16 255.232 11.617 169.34 56.328 85.759 128.816 38.765 202.478-8.991 294.628-12.861 372.08 28.477c37.237 19.874 70.073 47.035 101.203 75.545 55.602 50.925 116.964 44.372 186.906 62.788 52.858 13.916 95.241 50.58 123.745 96.515 21.434 34.541 35.018 74.323 39.307 113.618z" fill="#00C3ED" fill-rule="evenodd"/>
</svg>
