<svg width="32" height="32" viewBox="0 0 32 32" xmlns="http://www.w3.org/2000/svg">
    <g fill="none" fill-rule="evenodd">
        <path d="M0 0h32v32H0z"/>
        <path d="M16 13.168c-1.035 0-1.875-.82-1.875-1.833S14.965 9.5 16 9.5c1.035 0 1.875.82 1.875 1.834 0 1.013-.84 1.833-1.875 1.833M16 4c-3.204 0-6.218 1.22-8.485 3.437a11.606 11.606 0 0 0-3.422 6.832h7.053c1.846 0 3.573.697 4.857 1.937.365-.35.77-.66 1.208-.925a7.033 7.033 0 0 1 3.643-1.012h7.053C27.164 8.45 22.08 4 16.001 4" fill="#C5ADD2"/>
        <path d="M11.146 15.736H4v8.33h7.146c1.028 0 2.012.283 2.852.792A5.347 5.347 0 0 1 16 27v-8.331c-.92-1.798-2.798-2.933-4.854-2.933" fill="#8F79B5"/>
        <path d="M20.853 15.736a5.509 5.509 0 0 0-2.853.792 5.345 5.345 0 0 0-2 2.14V27c.918-1.798 2.798-2.935 4.853-2.935H28v-8.33h-7.147z" fill="#5A3A87"/>
        <path d="M4 27v-1.468h7.147A4.744 4.744 0 0 1 14.578 27H4zM17.418 27a4.7 4.7 0 0 1 3.434-1.468H28V27H17.418z" fill="#C5ADD2"/>
        <path d="M16 13.168c-1.035 0-1.875-.82-1.875-1.833S14.965 9.5 16 9.5c1.035 0 1.875.82 1.875 1.834 0 1.013-.84 1.833-1.875 1.833" fill="#FFE100"/>
    </g>
</svg>
