<svg width="193" height="48" viewBox="0 0 193 48" xmlns="http://www.w3.org/2000/svg" xmlns:xlink="http://www.w3.org/1999/xlink">
    <defs>
        <path id="tge0l8xtla" d="M0 0h193v48H0z"/>
    </defs>
    <g fill="none" fill-rule="evenodd">
        <mask id="31xm74ubpb" fill="#fff">
            <use xlink:href="#tge0l8xtla"/>
        </mask>
        <path d="M74.544 33.567h2.212V17.72h-2.212v15.847zm-2.734-5.013c-.396-.19-.788-.416-1.179-.674a9 9 0 0 1-1.123-.88 8.617 8.617 0 0 1-.998-1.086 7.464 7.464 0 0 1-.801-1.294c-.24.479-.521.925-.845 1.338a9.627 9.627 0 0 1-1.052 1.141c-.377.347-.77.659-1.179.935a9.18 9.18 0 0 1-1.221.7l-1.17-1.473c1.343-.659 2.4-1.52 3.174-2.588.774-1.066 1.16-2.341 1.16-3.826V17.63h2.249v3.216c0 1.51.356 2.76 1.069 3.755.714.994 1.748 1.82 3.103 2.479l-1.187 1.473zM90.956 28.986h2.212V17.72h-2.212v11.265zm-9.045-4.888h3.866V19.5H81.91v4.6zm-.775 9.505V27.44h2.23v4.348h10.072v1.815H81.136zm-1.439-7.727h8.292V17.72h-8.292v8.156zM108.635 22.05h2.553v1.833h-2.553v9.684h-2.212V28.25h-10.72V21.87h5.702v-2.317h-5.737v-1.832h7.985v5.982h-5.72v2.714h8.49V17.72h2.212zM124.348 33.567h2.212V17.72h-2.212v15.847zm-6.583-8.373c.396 0 .753-.068 1.07-.206a2.34 2.34 0 0 0 .818-.584c.229-.251.406-.548.532-.889.125-.342.188-.715.188-1.123 0-.827-.236-1.497-.71-2.013-.474-.514-1.106-.771-1.898-.771-.79 0-1.42.257-1.888.771-.467.516-.701 1.186-.701 2.013 0 .408.063.781.188 1.123.126.341.3.638.522.89.222.25.492.446.81.583.317.138.674.206 1.07.206zm0 1.887c-.768 0-1.45-.128-2.05-.387a4.492 4.492 0 0 1-1.51-1.032 4.355 4.355 0 0 1-.927-1.5 5.068 5.068 0 0 1-.314-1.77c0-.61.104-1.197.314-1.76a4.37 4.37 0 0 1 .926-1.492c.408-.43.912-.775 1.511-1.034.6-.257 1.282-.386 2.05-.386.768 0 1.452.13 2.051.386a4.506 4.506 0 0 1 1.51 1.034c.408.432.72.928.935 1.492a4.86 4.86 0 0 1 .324 1.76c0 .611-.107 1.201-.324 1.77a4.467 4.467 0 0 1-.935 1.5c-.408.43-.91.775-1.51 1.032-.6.259-1.283.387-2.05.387zM135.088 24.063H138v-4.528h-2.913v4.528zm-4.73 1.814v-1.814h2.5v-4.528h-2.32V17.72h12.014v1.815h-2.32v4.528h2.5v1.814h-12.374zm-1.619 5.12h15.54v-1.814h-15.54v1.815zM158.517 20.272h2.553v1.814h-2.553v3.917h-2.212V17.72h2.212v2.55zm-11.853 13.51v-4.456h9.64V28.5h-9.64v-1.778h11.853v4.384h-9.622v.898h9.892v1.778h-12.123zm4.712-8.533v-2.12h-5.88v-1.815h5.88v-1.779h-5.808v-1.814h8.111v7.528h-2.303zM176.373 33.567h-2.212v-5.318h-11.258v-6.378h5.7v-2.318h-5.736V17.72h7.985v5.984h-5.72v2.712h9.03V17.72h2.211zM190.788 33.567H193V17.72h-2.212v15.847zm-2.302-15.847v1.833h-3.418v1.294c0 1.51.357 2.76 1.071 3.755.713.994 1.747 1.82 3.102 2.479l-1.187 1.473a9.898 9.898 0 0 1-1.178-.674 9.01 9.01 0 0 1-1.124-.88 8.617 8.617 0 0 1-.998-1.086 7.459 7.459 0 0 1-.8-1.294c-.24.479-.522.925-.846 1.338a9.627 9.627 0 0 1-1.052 1.141c-.377.347-.77.659-1.178.935a9.118 9.118 0 0 1-1.223.7l-1.17-1.473c1.344-.659 2.403-1.52 3.175-2.588.774-1.066 1.16-2.341 1.16-3.826v-1.294h-3.416V17.72h9.082zM104.657 45.815h.992v-5.323h-.992v5.323zm-2.173-3.332c0-.306-.083-.563-.25-.77-.167-.207-.415-.31-.743-.31a1.02 1.02 0 0 0-.416.08.884.884 0 0 0-.31.226.953.953 0 0 0-.194.342 1.36 1.36 0 0 0-.064.424c0 .312.085.571.258.778.171.208.414.311.726.311.328 0 .576-.103.743-.31.167-.208.25-.464.25-.771zm-2.236 5.404v-2.766h1v1.952h4.523v.814h-5.523zm-.727-5.404a1.888 1.888 0 0 1 .561-1.363c.175-.172.383-.306.623-.403.238-.097.5-.145.786-.145.285 0 .55.048.792.145.241.097.45.231.625.403a1.877 1.877 0 0 1 .56 1.363 1.889 1.889 0 0 1-.56 1.364 1.883 1.883 0 0 1-.625.402 2.122 2.122 0 0 1-.792.146c-.286 0-.548-.049-.786-.146a1.868 1.868 0 0 1-.622-.402 1.893 1.893 0 0 1-.562-1.364zM115.097 42.322v-1.83h.994v5.322h-.994v-2.67h-1.3v-.822h1.3zm-4.407 5.565V45.12h1v1.951h4.521v.815h-5.521zm.758-6.807v-.767h1.002v.767h1.534v.823h-1.534c.01.253.068.48.173.685.105.204.239.386.403.545.164.158.35.293.558.406.206.114.42.203.642.267l-.461.726a2.846 2.846 0 0 1-.944-.452 3.38 3.38 0 0 1-.84-.871 3.633 3.633 0 0 1-.828.927c-.33.264-.698.474-1.102.63l-.46-.686c.275-.113.524-.24.747-.383.223-.143.416-.303.578-.484.161-.18.287-.379.38-.597.09-.217.141-.456.152-.713h-1.541v-.823h1.54zM125.549 47.87h.992v-7.38h-.992v7.38zm-1.228-2.25a4.27 4.27 0 0 1-1.033-.697 3.819 3.819 0 0 1-.449-.488 3.285 3.285 0 0 1-.36-.581 3.516 3.516 0 0 1-.378.601 4.44 4.44 0 0 1-1.55 1.246l-.526-.661c.603-.296 1.079-.682 1.426-1.162.347-.478.52-1.05.52-1.717v-1.444h1.01v1.444c0 .677.16 1.239.48 1.686.32.446.784.817 1.392 1.112l-.532.661zM135.906 45.815h.992v-5.323h-.992v5.323zm-4.061-2.195h1.735v-2.064h-1.735v2.064zm-.347 4.267v-2.766h1v1.952h4.521v.814h-5.521zm-.647-3.468h3.722v-3.662h-3.722v3.662zM145.814 42.709h.548v-2.218h.978v7.38h-.978v-4.347h-.548v4.298h-.97v-2.33h-3.697v-4.734h3.165v.822h-2.164v3.089h2.697V40.57h.969zM157.216 42.064h1.146v.814h-1.146v1.759h-.993V40.49h.993v1.573zm-3.028.693c0-.096-.01-.2-.032-.314a.845.845 0 0 0-.121-.307.73.73 0 0 0-.246-.23.78.78 0 0 0-.4-.092.742.742 0 0 0-.388.093.718.718 0 0 0-.242.234.963.963 0 0 0-.124.306 1.375 1.375 0 0 0 0 .617.861.861 0 0 0 .124.294c.06.09.14.162.242.219a.804.804 0 0 0 .388.083c.161 0 .295-.029.4-.088a.701.701 0 0 0 .246-.222c.06-.089.1-.185.12-.29.023-.105.033-.206.033-.303zM156.223 48v-2.234h-4.417v-.807h5.41V48h-.993zm-4.61-5.243c0-.365.099-.687.298-.968h-.637V41h1.614v-.685h1.01v.685h1.615v.79h-.638c.199.28.299.603.299.968 0 .238-.04.461-.118.674a1.531 1.531 0 0 1-.347.553c-.154.156-.34.28-.561.37-.22.092-.473.137-.759.137-.285 0-.537-.045-.754-.137a1.625 1.625 0 0 1-.557-.375 1.564 1.564 0 0 1-.349-.552 1.897 1.897 0 0 1-.116-.67z" fill="#5A3A87" mask="url(#31xm74ubpb)"/>
        <path d="M24.517 19.134a3.83 3.83 0 0 1-3.831-3.827 3.829 3.829 0 0 1 3.831-3.826 3.829 3.829 0 0 1 3.831 3.826 3.83 3.83 0 0 1-3.83 3.827m0-19.134C17.971 0 11.813 2.547 7.182 7.173A24.416 24.416 0 0 0 .19 21.43H14.6c3.771 0 7.3 1.455 9.923 4.044a14.09 14.09 0 0 1 2.468-1.93 14.143 14.143 0 0 1 7.443-2.114h14.411C47.327 9.288 36.94 0 24.518 0" fill="#C5ADD2" mask="url(#31xm74ubpb)"/>
        <path d="M14.599 24.492h-14.6v17.384h14.6c2.101 0 4.11.592 5.829 1.655A11.068 11.068 0 0 1 24.516 48V30.612a11.088 11.088 0 0 0-9.917-6.121" fill="#8F79B5" mask="url(#31xm74ubpb)"/>
        <path d="M34.433 24.492c-2.099 0-4.11.592-5.829 1.655a11.064 11.064 0 0 0-4.087 4.466V48a11.087 11.087 0 0 1 9.916-6.124h14.602V24.492H34.433z" fill="#5A3A87" mask="url(#31xm74ubpb)"/>
        <path d="M0 48v-3.063h14.603a9.54 9.54 0 0 1 5.02 1.427A9.534 9.534 0 0 1 21.612 48H0zM27.414 48a9.506 9.506 0 0 1 7.017-3.063h14.603V48h-21.62z" fill="#C5ADD2" mask="url(#31xm74ubpb)"/>
        <path d="M24.517 19.134a3.83 3.83 0 0 1-3.831-3.827 3.829 3.829 0 0 1 3.831-3.826 3.829 3.829 0 0 1 3.831 3.826 3.83 3.83 0 0 1-3.83 3.827" fill="#FFE100" mask="url(#31xm74ubpb)"/>
    </g>
</svg>
